<svg xmlns="http://www.w3.org/2000/svg" xmlns:xlink="http://www.w3.org/1999/xlink" width="163.689" height="42.687" viewBox="0 0 163.689 42.687">
  <defs>
    <clipPath id="clip-path">
      <rect id="Retângulo_424" data-name="Retângulo 424" width="42.51" height="40.552" transform="translate(0 0)" fill="none"/>
    </clipPath>
    <clipPath id="clip-path-2">
      <rect id="Retângulo_425" data-name="Retângulo 425" width="46.937" height="42.687" transform="translate(0 0)" fill="none"/>
    </clipPath>
    <clipPath id="clip-path-3">
      <rect id="Retângulo_426" data-name="Retângulo 426" width="54.689" height="42.628" transform="translate(0 0)" fill="none"/>
    </clipPath>
  </defs>
  <g id="icone_insta_botoes" transform="translate(-96 -2568)">
    <g id="icone_insta_favorito" transform="translate(96 2569)">
      <g id="Grupo_3373" data-name="Grupo 3373" clip-path="url(#clip-path)">
        <path id="Caminho_4592" data-name="Caminho 4592" d="M21.255,1.255l4.721,14.531H41.255l-12.361,8.98L33.616,39.3l-12.361-8.98L8.894,39.3l4.722-14.531L1.255,15.786H16.534Z" fill="none" stroke="#005c7d" stroke-linecap="round" stroke-linejoin="round" stroke-width="2.51"/>
      </g>
    </g>
    <g id="icone_insta_enviar" transform="translate(148 2568)">
      <g id="Grupo_3375" data-name="Grupo 3375" clip-path="url(#clip-path-2)">
        <path id="Caminho_4593" data-name="Caminho 4593" d="M4.72,41.343s7.8-17.875,24.338-18.108v8.5L45.593,16.831,28.825,1.343v9.2S2.158,12.056,1.343,41.343Z" fill="none" stroke="#005c7d" stroke-linecap="round" stroke-linejoin="round" stroke-width="2.687"/>
      </g>
    </g>
    <g id="icone_insta_balao" transform="translate(205 2568)">
      <g id="Grupo_3377" data-name="Grupo 3377" clip-path="url(#clip-path-3)">
        <path id="Caminho_4594" data-name="Caminho 4594" d="M44.272,41.264a5.674,5.674,0,0,1-2.6-4.986,1.6,1.6,0,0,1,1.346-1.617,8.743,8.743,0,0,0,5.988-3.79c2.675-4.05,5.5-13.908,3.9-20.862S42.9.915,35.866,1.373,25.6,2.59,20.047,3.054C11.049,3.808.942,4.2,1.324,19.408S16.455,34.845,16.455,34.845l14.741.411a2.8,2.8,0,0,1,2.317,1.287C34.684,38.431,37.7,41.761,44.272,41.264Z" fill="none" stroke="#005c7d" stroke-linecap="round" stroke-linejoin="round" stroke-width="2.628"/>
      </g>
    </g>
  </g>
</svg>
