<svg id="icone_insta_local" xmlns="http://www.w3.org/2000/svg" xmlns:xlink="http://www.w3.org/1999/xlink" width="27.305" height="40" viewBox="0 0 27.305 40">
  <defs>
    <clipPath id="clip-path">
      <rect id="Retângulo_423" data-name="Retângulo 423" width="27.305" height="40" fill="none"/>
    </clipPath>
  </defs>
  <g id="Grupo_3371" data-name="Grupo 3371" clip-path="url(#clip-path)">
    <path id="Caminho_4591" data-name="Caminho 4591" d="M11.042.242A13.705,13.705,0,0,0,.831,9.047,13.179,13.179,0,0,0,1.56,19.863l10.851,19.4a1.447,1.447,0,0,0,2.515.017L24.952,21.938a15.836,15.836,0,0,0,2.353-8.286A13.665,13.665,0,0,0,11.042.242m4.593,21.14a7.98,7.98,0,1,1,5.748-5.748,7.992,7.992,0,0,1-5.748,5.748" fill="#005c7d"/>
  </g>
</svg>
