<svg id="icone_insta_balao" xmlns="http://www.w3.org/2000/svg" xmlns:xlink="http://www.w3.org/1999/xlink" width="54.689" height="42.628" viewBox="0 0 54.689 42.628">
  <defs>
    <clipPath id="clip-path">
      <rect id="Retângulo_426" data-name="Retângulo 426" width="54.689" height="42.628" transform="translate(0 0)" fill="none"/>
    </clipPath>
  </defs>
  <g id="Grupo_3377" data-name="Grupo 3377" clip-path="url(#clip-path)">
    <path id="Caminho_4594" data-name="Caminho 4594" d="M44.272,41.264a5.674,5.674,0,0,1-2.6-4.986,1.6,1.6,0,0,1,1.346-1.617,8.743,8.743,0,0,0,5.988-3.79c2.675-4.05,5.5-13.908,3.9-20.862S42.9.915,35.866,1.373,25.6,2.59,20.047,3.054C11.049,3.808.942,4.2,1.324,19.408S16.455,34.845,16.455,34.845l14.741.411a2.8,2.8,0,0,1,2.317,1.287C34.684,38.431,37.7,41.761,44.272,41.264Z" fill="none" stroke="#005c7d" stroke-linecap="round" stroke-linejoin="round" stroke-width="2.628"/>
  </g>
</svg>
