<svg id="icone_conversa_emoji" xmlns="http://www.w3.org/2000/svg" xmlns:xlink="http://www.w3.org/1999/xlink" width="42.711" height="49.733" viewBox="0 0 42.711 49.733">
  <defs>
    <clipPath id="clip-path">
      <rect id="Retângulo_421" data-name="Retângulo 421" width="42.711" height="49.733" transform="translate(0 0)" fill="none"/>
    </clipPath>
  </defs>
  <g id="Grupo_3366" data-name="Grupo 3366" clip-path="url(#clip-path)">
    <path id="Caminho_4583" data-name="Caminho 4583" d="M41.355,22.074V13.333a2.587,2.587,0,0,0-2.587-2.587H29.907a1.56,1.56,0,0,1-1.524-1.762,6.952,6.952,0,1,0-13.871-.676,6.722,6.722,0,0,0,.035.684,1.556,1.556,0,0,1-1.523,1.754H3.943a2.588,2.588,0,0,0-2.588,2.587V45.791a2.588,2.588,0,0,0,2.588,2.587H38.768a2.587,2.587,0,0,0,2.587-2.587V37.049a1.505,1.505,0,0,0-.792-1.338,6.94,6.94,0,0,1,0-12.3A1.507,1.507,0,0,0,41.355,22.074Z" fill="none" stroke="#fff" stroke-miterlimit="10" stroke-width="2.711"/>
    <path id="Caminho_4584" data-name="Caminho 4584" d="M13.983,27.649a4.668,4.668,0,1,0-4.668-4.668,4.668,4.668,0,0,0,4.668,4.668" fill="#fff"/>
    <path id="Caminho_4585" data-name="Caminho 4585" d="M13.983,25.985a3,3,0,1,0-3-3,3,3,0,0,0,3,3" fill="#fff"/>
    <path id="Caminho_4586" data-name="Caminho 4586" d="M26.509,27.649a4.668,4.668,0,1,0-4.668-4.668,4.668,4.668,0,0,0,4.668,4.668" fill="#fff"/>
    <path id="Caminho_4587" data-name="Caminho 4587" d="M26.509,25.985a3,3,0,1,0-3-3,3,3,0,0,0,3,3" fill="#fff"/>
    <path id="Caminho_4588" data-name="Caminho 4588" d="M12.4,30.451a8.071,8.071,0,0,0,7.843,8.282,8.072,8.072,0,0,0,7.843-8.282" fill="none" stroke="#fff" stroke-miterlimit="10" stroke-width="2.711"/>
  </g>
</svg>
