<svg xmlns="http://www.w3.org/2000/svg" xmlns:xlink="http://www.w3.org/1999/xlink" width="47.543" height="40" viewBox="0 0 47.543 40">
  <defs>
    <clipPath id="clip-path">
      <path id="Caminho_3699" data-name="Caminho 3699" d="M15.062-194.087H62.6v-40H15.062Z" transform="translate(0 0)" fill="none"/>
    </clipPath>
  </defs>
  <g id="alfabeto_a_e002_fim" transform="translate(-15.062 234.087)" clip-path="url(#clip-path)">
    <g id="Grupo_2496" data-name="Grupo 2496" transform="translate(50.93 -204.303)">
      <path id="Caminho_3678" data-name="Caminho 3678" d="M3.754,1.114A43.907,43.907,0,0,0-2.073-.934a.653.653,0,0,0-.747.526.527.527,0,0,0,.072.361.6.6,0,0,0-.009.224A.629.629,0,0,0-2.686,1.4q3.023.524,6.064.923a.638.638,0,0,0,.376-1.205" transform="translate(3.204 0.951)" fill="#2b2e34"/>
    </g>
    <g id="Grupo_2497" data-name="Grupo 2497" transform="translate(42.475 -225.938)">
      <path id="Caminho_3679" data-name="Caminho 3679" d="M10.425,1.58A4.9,4.9,0,0,0,7.183-.989,11.773,11.773,0,0,0-.95-.044,18.522,18.522,0,0,0-8.706,7.264a1.205,1.205,0,0,0,0,1.3c-.269.615-.146,1.518.523,1.581A44.516,44.516,0,0,0,2.229,9.9,32.1,32.1,0,0,0,7.354,8.845a4.862,4.862,0,0,0,3.14-2.482,5.682,5.682,0,0,0-.069-4.782" transform="translate(8.897 1.348)" fill="#72c1e8"/>
    </g>
    <g id="Grupo_2498" data-name="Grupo 2498" transform="translate(29.01 -230.436)">
      <path id="Caminho_3680" data-name="Caminho 3680" d="M7.752,6.836C7.426.4,3.858-4.729-.955-5.678a4.418,4.418,0,0,0-3.431.415A6.352,6.352,0,0,0-6.434-1.489c-.8,3.256,1.181,5.075,3.125,6.142A43.071,43.071,0,0,0,5.55,8.278a.645.645,0,0,0,.786-.467c.45.569,1.472.128,1.416-.975" transform="translate(6.615 5.834)" fill="#72c1e8"/>
    </g>
    <g id="Grupo_2499" data-name="Grupo 2499" transform="translate(38.209 -216.261)">
      <path id="Caminho_3681" data-name="Caminho 3681" d="M5.761,4.3C5.711,2.244,5.517.2,5.55-1.855A6.452,6.452,0,0,0,4.622-2.4c-.007-.028-.015-.056-.02-.085A14.732,14.732,0,0,0,2.22-3.668c1.1,4.611,1.3,9.552-.486,14a16.19,16.19,0,0,1-6.65,7.938c.321-.054.643-.109.958-.182.226.017.452.043.678.052a15.053,15.053,0,0,0,4.467-.476,19.693,19.693,0,0,0,3.794-7.008A20.448,20.448,0,0,0,5.761,4.3" transform="translate(4.916 3.668)" fill="#ffc734"/>
    </g>
    <g id="Grupo_2500" data-name="Grupo 2500" transform="translate(21.582 -217.814)">
      <path id="Caminho_3682" data-name="Caminho 3682" d="M7.36,12.683a14.335,14.335,0,0,0,8.55-8.731c1.629-4.413,1.281-9.219.1-13.7a13.4,13.4,0,0,0-4.765-.374c-.089.009-.174.028-.263.039a8.182,8.182,0,0,0-5.625-.443A8.938,8.938,0,0,0-.882-7.864a8.98,8.98,0,0,0-3.8,3.282,9.391,9.391,0,0,0-1.566,5.8,9.3,9.3,0,0,0-.033.938A8.578,8.578,0,0,0-5.1,6.3,8.049,8.049,0,0,0-3.154,8.481,11.814,11.814,0,0,0-1.5,10.4a6.521,6.521,0,0,0,3.89,1.759,10.334,10.334,0,0,0,1.907.237.226.226,0,0,0,.035.013,12.8,12.8,0,0,0,2.763.445.64.64,0,0,1,.269-.176" transform="translate(6.281 10.824)" fill="#ffc734"/>
    </g>
    <g id="Grupo_2501" data-name="Grupo 2501" transform="translate(46.302 -213.245)">
      <path id="Caminho_3683" data-name="Caminho 3683" d="M3.87,3.454c.161-1.635.215-3.288-1.082-4.574A4.313,4.313,0,0,0,.9-2.188C.836-2.3.786-2.409.715-2.516.608-2.668.489-2.807.372-2.948.415-1.093.585.759.593,2.618a20.865,20.865,0,0,1-.908,6.32A21.1,21.1,0,0,1-3.3,14.915l.054-.011c.111-.093.206-.2.313-.3A5.768,5.768,0,0,0-.271,12.96a5.488,5.488,0,0,0,1.1-1.807A5.778,5.778,0,0,0,2.776,8.86a8.57,8.57,0,0,0,.5-1.4c.111-.219.213-.445.306-.675A6.091,6.091,0,0,0,3.87,3.454" transform="translate(3.303 2.948)" fill="#ffc734"/>
    </g>
    <g id="Grupo_2502" data-name="Grupo 2502" transform="translate(34.951 -216.739)">
      <path id="Caminho_3684" data-name="Caminho 3684" d="M5.346,7.813c1.785-4.452,1.588-9.393.486-14a13.089,13.089,0,0,0-1.472-.48c1.179,4.48,1.529,9.289-.1,13.7a14.335,14.335,0,0,1-8.55,8.731.641.641,0,0,0-.271.176,13.932,13.932,0,0,0,1.592.013,14.362,14.362,0,0,0,1.666-.2,16.185,16.185,0,0,0,6.65-7.94" transform="translate(4.562 6.668)" fill="#2b2e34"/>
    </g>
    <g id="Grupo_2503" data-name="Grupo 2503" transform="translate(44.311 -214.446)">
      <path id="Caminho_3685" data-name="Caminho 3685" d="M3.177,3.651C3.166,1.794,3-.058,2.955-1.913a6.377,6.377,0,0,0-1.3-1.2c-.03,2.052.161,4.1.211,6.153A20.37,20.37,0,0,1,1.083,9.4a19.7,19.7,0,0,1-3.794,7.011c.339-.089.675-.178,1-.291.337-.041.662-.1.988-.167A21.034,21.034,0,0,0,2.267,9.971a20.857,20.857,0,0,0,.91-6.32" transform="translate(2.711 3.116)" fill="#2b2e34"/>
    </g>
    <g id="Grupo_2504" data-name="Grupo 2504" transform="translate(19.898 -220.792)">
      <path id="Caminho_3686" data-name="Caminho 3686" d="M2.727,13.036c2.53.849,5.5.13,8.018-.382,2.915-.593,5.675-1.36,7.328-4.055A28.594,28.594,0,0,0,19.9,4.624a12.786,12.786,0,0,0,.691-1.846,1.244,1.244,0,0,0,.526-.665c.817-2.454.074-5.44-1.064-7.695a9.969,9.969,0,0,0-5.484-5.169c-2.478-.8-5.21-.159-7.647.428C4.6-9.764,1.654-9.33-.09-7.538S-1.943-2.675-2.134-.3A24.812,24.812,0,0,0-1.8,8.082a7.113,7.113,0,0,0,4.528,4.954" transform="translate(2.327 11.124)" fill="#2b2e34"/>
    </g>
    <g id="Grupo_2505" data-name="Grupo 2505" transform="translate(17.13 -230.195)">
      <path id="Caminho_3687" data-name="Caminho 3687" d="M3.191.941A3.554,3.554,0,0,0,1.81-.443,3.718,3.718,0,0,0,.04-.8a2.731,2.731,0,0,0-1.924.7,3.236,3.236,0,0,0-.791,1.757A2.409,2.409,0,0,0-1.107,4.592,1.634,1.634,0,0,0,.659,3.957,2.151,2.151,0,0,0,.746,1.994a.644.644,0,0,0-.854-.3A.656.656,0,0,0-.4,2.557a.849.849,0,0,1-.009.691A.29.29,0,0,1-.6,3.36a.655.655,0,0,1-.337-.048c-.66-.269-.576-1.223-.41-1.792A1.31,1.31,0,0,1-.774.652,2.166,2.166,0,0,1,.394.487,2.038,2.038,0,0,1,1.469.834a2.9,2.9,0,0,1,.743.936,4.984,4.984,0,0,1,.96,2.619.636.636,0,0,0,1.268.1A6.317,6.317,0,0,0,3.191.941" transform="translate(2.723 0.803)" fill="#2b2e34"/>
    </g>
    <g id="Grupo_2506" data-name="Grupo 2506" transform="translate(24.243 -233.838)">
      <path id="Caminho_3688" data-name="Caminho 3688" d="M3.5.793A3.87,3.87,0,0,0-.252-.587C-1.8-.2-2.484,1.168-2.767,2.634A12.437,12.437,0,0,0-2.68,7.7c.18.806,1.431.571,1.251-.237A11.331,11.331,0,0,1-1.7,4.274,5.911,5.911,0,0,1-.979,1.368,1.924,1.924,0,0,1,1.4.795c.536.217,1.733,1.014,1.4,1.746a1.576,1.576,0,0,1-1.155.749c-.3.037-.808-.106-.821-.489a.665.665,0,0,0-.591-.688.637.637,0,0,0-.678.593A1.863,1.863,0,0,0,.591,4.352a2.334,2.334,0,0,0,2.1-.061A2.506,2.506,0,0,0,4.068,2.778,2.278,2.278,0,0,0,3.5.793" transform="translate(2.986 0.676)" fill="#2b2e34"/>
    </g>
    <g id="Grupo_2507" data-name="Grupo 2507" transform="translate(15.279 -225.013)">
      <path id="Caminho_3689" data-name="Caminho 3689" d="M12.117,1.28C9.984-.323,6.937-.574,4.387-.881c-2.954-.356-5.816-.5-8.233,1.54a28.472,28.472,0,0,0-2.982,3.2A12.64,12.64,0,0,0-8.066,5.391a1.253,1.253,0,0,0-.708.465C-10.32,7.928-10.557,11-10.188,13.494a9.977,9.977,0,0,0,3.577,6.633c2.1,1.54,4.9,1.792,7.395,2,2.374.2,5.308.717,7.527-.437s3.29-4.031,4.22-6.224a24.847,24.847,0,0,0,2.322-8.062A7.1,7.1,0,0,0,12.117,1.28" transform="translate(10.34 1.093)" fill="#ffc734"/>
    </g>
    <g id="Grupo_2508" data-name="Grupo 2508" transform="translate(24.582 -221.509)">
      <path id="Caminho_3690" data-name="Caminho 3690" d="M6.205,1.914A4.5,4.5,0,0,0,4.7-.312,6.3,6.3,0,0,0,2.665-1.3,5.522,5.522,0,0,0-1.9-.966c-.054.033-.1.083-.15.117a1.84,1.84,0,0,0-.467.232,5.856,5.856,0,0,0-1.6,1.709,4.442,4.442,0,0,0-.636.973,4.7,4.7,0,0,0-.528,2.369,4.87,4.87,0,0,0,.73,2.333c.072.109.165.2.243.3a4.813,4.813,0,0,0,.356.719,4.632,4.632,0,0,0,4.072,2.23A5.6,5.6,0,0,0,1.671,9.7a4.787,4.787,0,0,0,1.518-.287A4.842,4.842,0,0,0,5.2,8.093,5.04,5.04,0,0,0,6.333,5.83a8.259,8.259,0,0,0,.156-2,7.484,7.484,0,0,0-.285-1.916" transform="translate(5.296 1.634)" fill="#fff"/>
    </g>
    <g id="Grupo_2509" data-name="Grupo 2509" transform="translate(28.243 -217.071)">
      <path id="Caminho_3691" data-name="Caminho 3691" d="M0,.029.022.02H.028C.154-.032.2-.049,0,.029" transform="translate(0 0.025)" fill="#2b2e34"/>
    </g>
    <g id="Grupo_2510" data-name="Grupo 2510" transform="translate(26.232 -217.128)">
      <path id="Caminho_3692" data-name="Caminho 3692" d="M2.946,1.127c0-.009,0-.017-.007-.024a.106.106,0,0,0-.007-.015C2.911,1.032,2.7.519,2.672.465a.011.011,0,0,0,0-.009A.213.213,0,0,0,2.64.408C2.505.226,2.375.033,2.223-.137L2.2-.156c-.087-.072-.237-.185-.271-.211s-.176-.146-.269-.208a.09.09,0,0,0-.024-.015l-.007,0c-.2-.089-.41-.176-.617-.263l0,0A.04.04,0,0,0,1-.862l-.013,0H.978C.937-.875.327-.958.288-.962H.259a3.979,3.979,0,0,0-.717.1c.23-.03.458-.061.686-.093a4.811,4.811,0,0,0-.7.1c-.182.074-.536.217-.652.274l-.011.007a2.583,2.583,0,0,0-.282.217A2.608,2.608,0,0,0-1.7-.143l-.017.017c.152-.187-.3.363-.415.547a.084.084,0,0,0-.013.024c-.1.211-.191.421-.269.641l-.007.026a6.071,6.071,0,0,0-.1.715V1.85a4.587,4.587,0,0,0,.093.717.134.134,0,0,0,.007.024.017.017,0,0,0,0,.011c.043.106.087.211.13.315s.085.213.132.315l.013.026a1.945,1.945,0,0,0,.667.73,1.9,1.9,0,0,0,.877.467,2.08,2.08,0,0,0,.3.056c.03.009.063.009.093.015.048.007.1.017.141.02A2.428,2.428,0,0,0,.4,4.606c.228-.03.456-.061.686-.093a2.583,2.583,0,0,0,1.138-.669.14.14,0,0,1,.02-.017,4.249,4.249,0,0,0,.419-.547.2.2,0,0,1,.011-.022l.261-.623v0a.008.008,0,0,0,0-.007.031.031,0,0,0,0-.015.016.016,0,0,0,0-.011.008.008,0,0,0,0-.007c0-.022.089-.671.093-.695V1.87a3.3,3.3,0,0,0-.1-.743" transform="translate(2.514 0.962)" fill="#2b2e34"/>
    </g>
    <g id="Grupo_2511" data-name="Grupo 2511" transform="translate(15.61 -219.353)">
      <path id="Caminho_3693" data-name="Caminho 3693" d="M4.277,1.319A3.093,3.093,0,0,0,3.243-.214,4.329,4.329,0,0,0,1.838-.9a3.817,3.817,0,0,0-3.149.23c-.037.024-.067.056-.1.083a1.231,1.231,0,0,0-.321.159A4.061,4.061,0,0,0-2.838.752a3.06,3.06,0,0,0-.441.671,3.261,3.261,0,0,0-.363,1.633,3.333,3.333,0,0,0,.5,1.607c.05.076.113.139.167.211a3.09,3.09,0,0,0,.245.5A3.189,3.189,0,0,0,.081,6.907a3.934,3.934,0,0,0,1.071-.222,3.312,3.312,0,0,0,1.045-.2,3.33,3.33,0,0,0,1.383-.91,3.465,3.465,0,0,0,.786-1.559,5.668,5.668,0,0,0,.106-1.379,5.205,5.205,0,0,0-.2-1.32" transform="translate(3.65 1.126)" fill="#fff"/>
    </g>
    <g id="Grupo_2512" data-name="Grupo 2512" transform="translate(19.566 -216.294)">
      <path id="Caminho_3694" data-name="Caminho 3694" d="M0,.02a.04.04,0,0,1,.015,0s0,0,0,0C.106-.021.137-.034,0,.02" transform="translate(0 0.017)" fill="#2b2e34"/>
    </g>
    <g id="Grupo_2513" data-name="Grupo 2513" transform="translate(18.18 -216.333)">
      <path id="Caminho_3695" data-name="Caminho 3695" d="M2.031.777c0-.007,0-.011,0-.017s0-.007,0-.009c-.015-.039-.163-.393-.18-.43,0,0,0,0,0-.007A.13.13,0,0,0,1.82.282C1.727.156,1.638.023,1.533-.094L1.518-.107c-.059-.05-.163-.128-.187-.146S1.21-.352,1.147-.4C1.14-.4,1.136-.4,1.129-.407a.008.008,0,0,0,0,0C.984-.47.843-.531.7-.589l0,0-.011,0S.682-.6.68-.6h0C.647-.6.226-.661.2-.663H.178A2.9,2.9,0,0,0-.315-.6L.159-.659a3.315,3.315,0,0,0-.486.065C-.452-.541-.7-.441-.777-.4l-.007,0a2.178,2.178,0,0,0-.193.15A1.686,1.686,0,0,0-1.171-.1l-.011.013c.1-.13-.208.248-.287.376l-.009.015c-.065.146-.132.293-.185.443a.051.051,0,0,0,0,.017,4.2,4.2,0,0,0-.067.493v.017a3.364,3.364,0,0,0,.065.493.067.067,0,0,0,0,.017s0,0,0,.007c.03.074.061.146.091.217s.059.146.091.217a.129.129,0,0,0,.009.017,1.366,1.366,0,0,0,.458.5,1.344,1.344,0,0,0,.606.321A1.758,1.758,0,0,0-.2,3.109l.065.011c.033,0,.065.011.1.013a1.691,1.691,0,0,0,.313.041c.159-.022.317-.043.473-.063a1.8,1.8,0,0,0,.786-.463l.013-.013A3.028,3.028,0,0,0,1.84,2.26l.007-.015.18-.43v0a.008.008,0,0,0,0,0s0-.007,0-.009,0,0,0-.009v0c0-.015.063-.463.065-.478v-.02A2.4,2.4,0,0,0,2.031.777" transform="translate(1.733 0.663)" fill="#2b2e34"/>
    </g>
    <g id="Grupo_2514" data-name="Grupo 2514" transform="translate(24.57 -208.513)">
      <path id="Caminho_3696" data-name="Caminho 3696" d="M0,0A.013.013,0,0,0,0,0H0S0,0,0,0" transform="translate(0.004)" fill="#2b2e34"/>
    </g>
    <g id="Grupo_2515" data-name="Grupo 2515" transform="translate(24.241 -208.516)">
      <path id="Caminho_3697" data-name="Caminho 3697" d="M0,0H0C.063.013.124,0,0,0" transform="translate(0 0)" fill="#2b2e34"/>
    </g>
    <g id="Grupo_2516" data-name="Grupo 2516" transform="translate(22.28 -209.612)">
      <path id="Caminho_3698" data-name="Caminho 3698" d="M2.47.276a.736.736,0,0,0-.341-.426.763.763,0,0,0-1.01.256,2.089,2.089,0,0,1-.2.337C.9.467.881.491.857.515.811.561.759.6.711.645L.65.685a1.816,1.816,0,0,1-.18.1C.418.808.411.808.422.8S.416.8.414.806C.34.83.266.845.19.863a.185.185,0,0,1,.059,0,.139.139,0,0,0-.065,0c-.043.011-.03.007,0,0a.221.221,0,0,1-.05,0,1.74,1.74,0,0,1-.213,0c-.03,0-.063-.009-.1-.009h.03a1.96,1.96,0,0,1-.2-.05L-.438.782C-.5.75-.562.719-.622.682A.713.713,0,0,1-.69.639Q-.774.567-.853.489A.767.767,0,0,0-1.9.489a.7.7,0,0,0,0,1.006,2.752,2.752,0,0,0,2.435.747A2.588,2.588,0,0,0,2.4.823.763.763,0,0,0,2.47.276" transform="translate(2.108 0.236)" fill="#2b2e34"/>
    </g>
  </g>
</svg>
