<svg xmlns="http://www.w3.org/2000/svg" xmlns:xlink="http://www.w3.org/1999/xlink" width="48.11" height="40" viewBox="0 0 48.11 40">
  <defs>
    <clipPath id="clip-path">
      <path id="Caminho_3797" data-name="Caminho 3797" d="M308.754-195.718h48.11v-40h-48.11Z" transform="translate(0)" fill="none"/>
    </clipPath>
  </defs>
  <g id="alfabeto_i_e002_fim" transform="translate(-308.754 235.718)" clip-path="url(#clip-path)">
    <g id="Grupo_2609" data-name="Grupo 2609" transform="translate(309.354 -222.624)">
      <path id="Caminho_3791" data-name="Caminho 3791" d="M11.018,3.689a2.29,2.29,0,0,0-.495-1.544A7.1,7.1,0,0,0,8.991-1.239c-2-2.406-5-2.845-7.851-2.2-.118.008-.235,0-.353.018A12.128,12.128,0,0,0-8.977,4.114a12.933,12.933,0,0,0-.7,1.536c-.972,2.6-2,6.446-.972,9.144.012.034.028.062.042.094A7.119,7.119,0,0,0-6.618,19.78a8.15,8.15,0,0,0,4.563.824,9.609,9.609,0,0,0,5.227-.726A12.323,12.323,0,0,0,9.281,13.19a14.508,14.508,0,0,0,.88-2.853,33.93,33.93,0,0,0,.858-6.648" transform="translate(11.073 3.707)" fill="#ffe08c"/>
    </g>
    <g id="Grupo_2610" data-name="Grupo 2610" transform="translate(311.724 -221.637)">
      <path id="Caminho_3792" data-name="Caminho 3792" d="M10.371,3.675a2.372,2.372,0,0,0-.459-1.542A7.276,7.276,0,0,0,8.484-1.245c-1.867-2.4-4.691-2.827-7.37-2.173C1-3.408.892-3.411.78-3.4-3.6-2.879-6.751.226-8.423,4.172a13.22,13.22,0,0,0-.66,1.538c-.924,2.6-1.9,6.45-.948,9.146.012.03.028.062.038.092a6.983,6.983,0,0,0,3.731,4.878,7.251,7.251,0,0,0,4.287.808,8.556,8.556,0,0,0,4.914-.746,12.2,12.2,0,0,0,5.766-6.706,15.306,15.306,0,0,0,.836-2.857,36.02,36.02,0,0,0,.83-6.65" transform="translate(10.422 3.693)" fill="#ff9a39"/>
    </g>
    <g id="Grupo_2611" data-name="Grupo 2611" transform="translate(316.769 -235.21)">
      <path id="Caminho_3793" data-name="Caminho 3793" d="M18.308,2.306a.91.91,0,0,1-.225.389c-.006.006-.014.008-.02.014s0,.018,0,.028a.122.122,0,0,1-.026-.006c-.014.01-.022.018-.034.028s-.01.02-.02.028a.521.521,0,0,1-.148.1s0,0-.006,0,0,0,0,0a1.036,1.036,0,0,1-.134.054.529.529,0,0,1-.423-.068s-.006-.006-.01-.008-.024-.01-.036-.012a1.426,1.426,0,0,1-.419-.1,1.284,1.284,0,0,1-.273-.146,1,1,0,0,1-.211-.207,1,1,0,0,1-.233-.279.956.956,0,0,1-.1-.259,1.045,1.045,0,0,1-.026-.3,1.064,1.064,0,0,1,.182-.531,1.092,1.092,0,0,1,.2-.219A1.187,1.187,0,0,1,16.716.61a1.075,1.075,0,0,1,.557-.016,1.058,1.058,0,0,1,.4.166,1.3,1.3,0,0,1,.567.8.3.3,0,0,1,0,.074,1,1,0,0,1,.052.188c0,.008.008.014.008.024a.173.173,0,0,1,0,.046.72.72,0,0,1,.016.13.678.678,0,0,1-.012.092.6.6,0,0,1,0,.2m.066-4.431c-2.28-.7-5.076.559-5.461,3.055a4.268,4.268,0,0,0,3.839,4.816A14.871,14.871,0,0,1,14.384,8.76,5.667,5.667,0,0,1,9.231,10.5,9.312,9.312,0,0,1,5.2,7.685,26.7,26.7,0,0,0,1,3.96c-3.948-2.56-8.659-1.2-12,1.7a27.648,27.648,0,0,0-4.962,6.051A13.533,13.533,0,0,0-18.39,19.48a1.585,1.585,0,0,0,3.166-.106c-.12-2.883,1.444-5.431,3.092-7.675,1.514-2.063,3.284-4.236,5.668-5.315a5.987,5.987,0,0,1,6.255.569c1.692,1.231,2.995,2.933,4.573,4.3a8.9,8.9,0,0,0,6.374,2.54,9.912,9.912,0,0,0,6.618-3.561,16.941,16.941,0,0,0,3.8-6.753c.543-2.34-.343-4.854-2.779-5.6" transform="translate(18.398 2.317)" fill="#72c1e8"/>
    </g>
    <g id="Grupo_2612" data-name="Grupo 2612" transform="translate(313.522 -220.324)">
      <path id="Caminho_3794" data-name="Caminho 3794" d="M11.19,3.693a2.272,2.272,0,0,0-.5-1.546,7.076,7.076,0,0,0-1.56-3.384C7.1-3.645,4.041-4.088,1.148-3.445c-.12.008-.237,0-.359.016A12.271,12.271,0,0,0-9.125,4.1a13.015,13.015,0,0,0-.706,1.536c-.986,2.6-2.023,6.442-.978,9.142.01.032.028.062.042.1a7.167,7.167,0,0,0,4.052,4.894,8.436,8.436,0,0,0,4.639.83,9.857,9.857,0,0,0,5.309-.724,12.376,12.376,0,0,0,6.2-6.68,14.424,14.424,0,0,0,.89-2.855,33.474,33.474,0,0,0,.866-6.646" transform="translate(11.245 3.711)" fill="#ffc734"/>
    </g>
    <g id="Grupo_2613" data-name="Grupo 2613" transform="translate(317.619 -217.994)">
      <path id="Caminho_3795" data-name="Caminho 3795" d="M9.446,4.644c.622-4.2-.734-8.328-5.171-9.144C-4.384-6.091-9.662,3.974-9.488,11.637a5.372,5.372,0,0,0,.038.8.384.384,0,0,1,0,.048,2.641,2.641,0,0,0,.146.664c.036.128.082.257.126.385A4.044,4.044,0,0,0-8.129,15.41,3.462,3.462,0,0,0-6.96,16.449a2.339,2.339,0,0,0,1.341.648c.435.068.878.124,1.321.162a10.735,10.735,0,0,0,5.155-.231,10.019,10.019,0,0,0,3.388-1.913,2.415,2.415,0,0,0,.553-.4c.048-.048.09-.1.136-.142a2.54,2.54,0,0,0,.523-.349A9.409,9.409,0,0,0,8.446,8.637c.028-.044.058-.09.086-.138a7.5,7.5,0,0,0,.914-3.855" transform="translate(9.492 4.667)" fill="#0081c9"/>
    </g>
    <g id="Grupo_2614" data-name="Grupo 2614" transform="translate(322.139 -213.479)">
      <path id="Caminho_3796" data-name="Caminho 3796" d="M3.416.85A4.006,4.006,0,0,0,.771,1.876,8.472,8.472,0,0,0-1.8,8.158a1.931,1.931,0,0,0,.014.331.766.766,0,0,0,.046.233c.024.084.042.134.058.184a1.491,1.491,0,0,0,.385.708.329.329,0,0,1,.052.064,1.134,1.134,0,0,0,.379.339.516.516,0,0,1,.126.094.614.614,0,0,0,.349.162c.2.03.4.056.6.074a4.793,4.793,0,0,0,2.268-.088,4.373,4.373,0,0,0,1.452-.818.548.548,0,0,1,.088-.064.642.642,0,0,0,.15-.108,1.3,1.3,0,0,1,.2-.164.719.719,0,0,0,.144-.1C5.224,8.39,6.244,5.351,6.246,4.8a.511.511,0,0,1,.006-.078c.116-.78.309-3.362-2.059-3.8A4.339,4.339,0,0,0,3.416.85m-2.324,11.3a6.786,6.786,0,0,1-1.271-.118c-.19-.014-.439-.046-.686-.084a1.874,1.874,0,0,1-.978-.451,2.442,2.442,0,0,1-.726-.656A2.767,2.767,0,0,1-3.247,9.6a1.872,1.872,0,0,1-.064-.188,1.9,1.9,0,0,1-.1-.469,3.62,3.62,0,0,1-.024-.511A10.484,10.484,0,0,1-.159.565,5.607,5.607,0,0,1,4.618-.756C7.01-.315,8.281,1.85,7.864,4.763c-.046.968-1.241,4.561-2.334,5.509a1.925,1.925,0,0,1-.3.213l-.024.026a1.783,1.783,0,0,1-.367.275,5.9,5.9,0,0,1-1.961,1.1,5.719,5.719,0,0,1-1.782.263" transform="translate(3.433 0.854)" fill="#72c1e8"/>
    </g>
  </g>
</svg>
