<svg xmlns="http://www.w3.org/2000/svg" xmlns:xlink="http://www.w3.org/1999/xlink" width="66.298" height="40" viewBox="0 0 66.298 40">
  <defs>
    <clipPath id="clip-path">
      <path id="Caminho_3831" data-name="Caminho 3831" d="M344.321-191.766h66.3v-40h-66.3Z" transform="translate(0 0)" fill="none"/>
    </clipPath>
  </defs>
  <g id="alfabeto_j_e002_fim" transform="translate(-344.321 231.766)" clip-path="url(#clip-path)">
    <g id="Grupo_2616" data-name="Grupo 2616" transform="translate(382.039 -225.964)">
      <path id="Caminho_3798" data-name="Caminho 3798" d="M15,6.643c.117.154-.027-.045-.047-.077-.025-.05-.052-.1-.077-.149a.376.376,0,0,0-.022-.035A.894.894,0,0,1,14.8,6.2c-.017-.062-.027-.127-.042-.191,0-.007,0-.01,0-.015v-.01a2.562,2.562,0,0,1,.015-.39.744.744,0,0,0-.718-.763c-.793,0-1.588.01-2.381.017a.526.526,0,0,0-.03-.05c.062.084,0-.015-.027-.05s-.062-.1-.089-.154c-.055-.092-.094-.191-.142-.286a.061.061,0,0,0-.01-.015c0-.007,0-.015-.01-.037-.02-.057-.037-.112-.052-.169a2.719,2.719,0,0,1-.072-.313s-.012-.087-.017-.119-.007-.084-.007-.094a.981.981,0,0,0-.251-.629,1.065,1.065,0,0,0-1.088-.179l-2.92.666a2.919,2.919,0,0,1-.134-.263.1.1,0,0,1-.007-.02,1.292,1.292,0,0,1-.045-.152c-.032-.112-.05-.221-.072-.33v-.04c0-.045,0-.089,0-.134a1.7,1.7,0,0,0-.045-.405.989.989,0,0,0-.939-.683,13.2,13.2,0,0,0-1.536.06c-.5.032-1,.084-1.5.139a.31.31,0,0,0-.02-.03c-.114-.139-.258-.244-.378-.373l0-.007c0-.03-.01-.062-.01-.072A1.4,1.4,0,0,0,1.968.2,1.1,1.1,0,0,0,.879-.1C.6-.036.32.038.037.086-.107.11-.251.13-.393.148A.361.361,0,0,0-.435.155l-.047,0L-.7.173c-.2.01-.408.007-.611,0a.689.689,0,0,0-.082-.253c-.268-.5-.534-1.006-.808-1.508a1.673,1.673,0,0,0-1.337-1,2.077,2.077,0,0,0-1.193.4c-.142.087-.281.169-.427.241L-5.2-1.94c-.017-.037-.037-.077-.052-.117a.351.351,0,0,0-.02-.211c-.211-.46-.4-.942-.651-1.379a1.483,1.483,0,0,0-1.073-.81,2.229,2.229,0,0,0-1.349.313c-.472.246-.934.514-1.4.773a.4.4,0,0,0-.2.293.547.547,0,0,0-.075.1c-.313.544.353.895.8.939a4.58,4.58,0,0,0,1.188-.082.862.862,0,0,0,.681.3,5.587,5.587,0,0,1,.47.37l.01.01a.382.382,0,0,1,.047.042,4.278,4.278,0,0,1,.8-.2.6.6,0,0,0-.08.154.754.754,0,0,0,.487.927A1.6,1.6,0,0,0-4.54-.61.052.052,0,0,1-4.53-.6a.851.851,0,0,0,.721.268,5.434,5.434,0,0,1,.495.338L-3.3.018c.03.027.062.055.094.082.08.072.159.149.236.226a5.294,5.294,0,0,1,.39.46.529.529,0,0,0,.263.176.747.747,0,0,0,.7.7c.132,0,.263,0,.4,0a.663.663,0,0,0,.629.437c.032,0,.06-.012.092-.015A.8.8,0,0,0-.179,2.3q.913.354,1.829.7a.436.436,0,0,0,.1.015A.664.664,0,0,0,2.2,3.46l1.265.3L4.1,3.9l.313.075a.828.828,0,0,0,.939.119c.035.015.089.042.117.052.089.05.176.1.261.159.01.012.1.087.117.1l.022.025.037.057,0,0a1.586,1.586,0,0,0,.107.157.682.682,0,0,0,.671.206.769.769,0,0,0,.326.234,13.767,13.767,0,0,0,2.174.584c.37.1.75.216,1.133.293a.811.811,0,0,0,.2.5,2.581,2.581,0,0,0,1.635.785c.152.025.3.047.45.067.055.01.107.017.159.025.03.007.062.012.092.017a3.323,3.323,0,0,1,.36.092l.109.037a.243.243,0,0,0,.042.017c.027.017.06.035.092.055a.766.766,0,0,0,.457.092l0,0a.751.751,0,0,0,1.046.032A.76.76,0,0,0,15,6.643" transform="translate(10.101 4.474)" fill="#3b8f39"/>
    </g>
    <g id="Grupo_2617" data-name="Grupo 2617" transform="translate(389.149 -206.408)">
      <path id="Caminho_3799" data-name="Caminho 3799" d="M.013,0A.3.3,0,0,0-.009.037S0,.03,0,.027.008.01.013,0" transform="translate(0.009)" fill="#3b8f39"/>
    </g>
    <g id="Grupo_2618" data-name="Grupo 2618" transform="translate(386.963 -210.024)">
      <path id="Caminho_3800" data-name="Caminho 3800" d="M4.7,1.237A2.1,2.1,0,0,0,4.588.489a1.617,1.617,0,0,0-.7-.81,1.03,1.03,0,0,0-.129-.127A1.691,1.691,0,0,0,2.588-.83a1.583,1.583,0,0,0-.875.345A1.4,1.4,0,0,0,.876.268,16.1,16.1,0,0,1,.143,1.714c-.047.084-.1.164-.149.246.042-.06.082-.112,0,0a.262.262,0,0,0-.017.027.594.594,0,0,0-.032.052A.449.449,0,0,1-.026,2c-.035.052-.072.107-.109.157-.147.206-.3.405-.462.6-.263.326-.514.661-.745,1.011-.015.012-.03.027-.037.035-.142.122-.286.236-.427.35A4.194,4.194,0,0,0-2.936,5.38a1.663,1.663,0,0,0,.895,2.428,4.2,4.2,0,0,0,1.615.062A10.342,10.342,0,0,0,.647,7.713,3.724,3.724,0,0,0,3.731,6.4C4.765,5.052,4.407,3.265,5,1.761a.389.389,0,0,0-.3-.524" transform="translate(3.165 0.833)" fill="#3b8f39"/>
    </g>
    <g id="Grupo_2619" data-name="Grupo 2619" transform="translate(344.369 -231.715)">
      <path id="Caminho_3801" data-name="Caminho 3801" d="M39.241,12.746a3.711,3.711,0,0,0-.258-1.046,2.517,2.517,0,0,0-.827-1.069,9.413,9.413,0,0,0-4.831-3.4,14.576,14.576,0,0,0-1.951-.87A24.774,24.774,0,0,0,26.732,5.2c-.055,0-.107,0-.162-.01-1.327-.5-2.664-.972-4.031-1.352-.067-.02-.137-.035-.209-.055-1.414-.713-2.818-1.449-4.145-2.289,0,0-.007-.012-.015-.017A8.072,8.072,0,0,0,16.735.47a12.729,12.729,0,0,0-1.31-.76,14.2,14.2,0,0,0-2.972-.972c-.03-.015-.057-.027-.084-.042-.286-.152-.549-.308-.813-.465-.072-.052-.149-.094-.219-.154A5.661,5.661,0,0,1,10.016-3.19c-.015-.03-.032-.06-.047-.092a2.221,2.221,0,0,1-.08-.248c-.01-.075-.017-.149-.03-.221A3.521,3.521,0,0,0,8.686-6.473,8.41,8.41,0,0,0,5.62-8.08a15.111,15.111,0,0,0-1.479-.405,5.064,5.064,0,0,0-2.072.02A4.691,4.691,0,0,0-.491-7.213a5.373,5.373,0,0,0-.586.554.847.847,0,0,1-.1.089,1.243,1.243,0,0,1-.34.467,1.153,1.153,0,0,1-1.526-.092A7.579,7.579,0,0,0-3.7-6.925c-.082-.082-.171-.157-.261-.234.052.047-.181-.137-.246-.176-.112-.07-.226-.132-.343-.191-.007-.007-.05-.022-.082-.04l-.142-.05a3.759,3.759,0,0,0-.4-.107c-.06-.015-.122-.025-.184-.035-.012,0-.025,0-.042,0a19.9,19.9,0,0,0-2.072-.055c-.189,0-.373.015-.559.032-.022,0-.037,0-.047,0h-.01c-.022,0-.042.01-.062.012-.268.089-.542.169-.8.273-.1.04-.189.092-.281.134a7.055,7.055,0,0,0-.914.4A4.952,4.952,0,0,0-12.17-5.218a5.677,5.677,0,0,0-.778,2.6,7.332,7.332,0,0,0,.08,2c-1.861-.179-1.931-.3-4.132-.43a3.728,3.728,0,0,0-2.045-1.839,2.794,2.794,0,0,0-3.1.611,1.585,1.585,0,0,0-.4-.373A1.922,1.922,0,0,0-24.5-2.5,2.318,2.318,0,0,0-25.574-.6c0,.03.017.045.022.07a1.655,1.655,0,0,0-.6.557,3.371,3.371,0,0,0-.276,1.794c0,.437,0,.875,0,1.31v.323s0,0,0,.007v.288a1.372,1.372,0,0,0,.2.748,1.4,1.4,0,0,0,1.558,1.282l2.127.112c.644.139.967.842,1.65.9,1.543.139,1.2.293,2.741.417,1.141.094,1.255.082,2.4.176a3.523,3.523,0,0,1,2.42,1c1.456,1.538,4.863,5,8.831,5.184a4.021,4.021,0,0,0,.44.907c.753,1.151,2.788,2.982,4.1,3.25.206.045.412.08.616.112.281.072.564.137.832.214,1.409.4,2.823.89,4.257,1.2l.089.015c-.323.147-.646.288-.974.415a79.227,79.227,0,0,0,10.862.589c2.475,0,10.019-2.7,10.852-2.788-.1.077-2,1.933-2.574,2.448-1.677,1.511-3.929,3.491-4.234,7.492-.06.808.075,2.49.917,3.2,1.1.738,2.4.261,3.424-1.292a26.866,26.866,0,0,1,4.227-5.427c1.672-1.508,3.9-2.222,5.867-3.394a8.26,8.26,0,0,0,1.158-.825,10.629,10.629,0,0,0,2.992-2.077c.007-.007.012-.017.022-.027.032-.01.065-.027.1-.04.214-.266.43-.532.644-.8.092-.139.179-.276.266-.422.042-.092.075-.189.114-.281,0-.122.007-.244.012-.368a3.814,3.814,0,0,0-.271-2.93" transform="translate(26.426 8.583)" fill="#46ac46"/>
    </g>
    <g id="Grupo_2620" data-name="Grupo 2620" transform="translate(349.182 -225.826)">
      <path id="Caminho_3802" data-name="Caminho 3802" d="M1.808.991A.808.808,0,0,0,1.726.109,2.227,2.227,0,0,0,.67-.517a1.36,1.36,0,0,0-1.228,0A1.6,1.6,0,0,0-1.169.41,1.413,1.413,0,0,0-1.027,1.5a1.376,1.376,0,0,0,.845.6A1.419,1.419,0,0,0,.943,1.883c.042-.025.084-.052.124-.08A1.526,1.526,0,0,0,1.808.991" transform="translate(1.218 0.667)" fill="#3b8f39"/>
    </g>
    <g id="Grupo_2621" data-name="Grupo 2621" transform="translate(345.71 -225.389)">
      <path id="Caminho_3803" data-name="Caminho 3803" d="M.2.2A.846.846,0,0,0-.13.766a1.136,1.136,0,0,0,.184.678c.109.189.256.4.514.34A1.341,1.341,0,0,0,1.2,1.38,1.533,1.533,0,0,0,1.59.662a.771.771,0,0,0-.109-.6A.522.522,0,0,0,.924-.116.5.5,0,0,0,.839-.1,1.09,1.09,0,0,0,.2.2" transform="translate(0.133 0.133)" fill="#3b8f39"/>
    </g>
    <g id="Grupo_2622" data-name="Grupo 2622" transform="translate(367.497 -230.04)">
      <path id="Caminho_3804" data-name="Caminho 3804" d="M7.18,2.738A4.536,4.536,0,0,0,6.05.263,6.479,6.479,0,0,0,4.166-1.074a5.683,5.683,0,0,0-4.652-.45c-.062.022-.114.065-.174.092a1.784,1.784,0,0,0-.507.152A5.9,5.9,0,0,0-3.068.146a4.347,4.347,0,0,0-.808.862A4.707,4.707,0,0,0-4.81,3.28a4.887,4.887,0,0,0,.338,2.45c.055.119.132.226.194.343a4.476,4.476,0,0,0,.236.778A4.738,4.738,0,0,0-.324,9.775a5.766,5.766,0,0,0,1.615-.055A5.011,5.011,0,0,0,2.869,9.7a4.944,4.944,0,0,0,2.244-.972,5.063,5.063,0,0,0,1.531-2.06,8.288,8.288,0,0,0,.5-1.968,7.491,7.491,0,0,0,.04-1.958" transform="translate(4.835 1.844)" fill="#fff"/>
    </g>
    <g id="Grupo_2623" data-name="Grupo 2623" transform="translate(371.464 -225.893)">
      <path id="Caminho_3805" data-name="Caminho 3805" d="M0,.018l.025,0h0c.137-.03.184-.042-.03,0" transform="translate(0 0.012)" fill="#2b2e34"/>
    </g>
    <g id="Grupo_2624" data-name="Grupo 2624" transform="translate(368.952 -225.876)">
      <path id="Caminho_3806" data-name="Caminho 3806" d="M3.374,1.54a.085.085,0,0,0,0-.025s0-.01,0-.015c-.015-.062-.144-.609-.157-.668,0,0,0,0,0-.007A.2.2,0,0,0,3.187.772,6.659,6.659,0,0,0,2.859.156.117.117,0,0,0,2.844.134C2.77.047,2.638-.09,2.608-.122S2.454-.3,2.372-.378L2.35-.4l0,0L1.768-.769l0,0L1.754-.778l-.015,0s0,0,0,0C1.694-.8,1.1-.987,1.053-1a.089.089,0,0,0-.027,0A4.049,4.049,0,0,0,.29-1.029L1-1a4.746,4.746,0,0,0-.728-.027c-.194.042-.574.127-.7.162l-.012,0a2.508,2.508,0,0,0-.321.169,3.212,3.212,0,0,0-.316.169.142.142,0,0,0-.02.017,6.569,6.569,0,0,0-.512.472.137.137,0,0,0-.017.022c-.132.194-.266.388-.38.594a.171.171,0,0,1-.01.025A5.748,5.748,0,0,0-2.24,1.3c0,.01,0,.017,0,.025a4.81,4.81,0,0,0-.025.731v.025a.022.022,0,0,0,0,.012c.025.112.052.224.08.335s.05.226.077.338a.133.133,0,0,0,.012.027,1.971,1.971,0,0,0,.544.842,1.988,1.988,0,0,0,.8.616,2.219,2.219,0,0,0,.3.107c.032.012.065.02.094.032.047.012.092.035.139.045a2.6,2.6,0,0,0,.447.137L.931,4.6a2.618,2.618,0,0,0,1.26-.472.059.059,0,0,0,.022-.015,4.025,4.025,0,0,0,.514-.472l.015-.02.368-.577a0,0,0,0,0,0,0s0,0,0,0a.042.042,0,0,0,0-.012s0-.007,0-.012a.009.009,0,0,0,0-.007c.007-.02.206-.654.211-.676L3.346,2.3a3.357,3.357,0,0,0,.027-.758" transform="translate(2.272 1.037)" fill="#2b2e34"/>
    </g>
    <g id="Grupo_2625" data-name="Grupo 2625" transform="translate(358.428 -229.719)">
      <path id="Caminho_3807" data-name="Caminho 3807" d="M4.949,1.886A3.152,3.152,0,0,0,4.169.179a4.476,4.476,0,0,0-1.3-.919A3.928,3.928,0,0,0-.336-1.051c-.042.017-.077.045-.117.062a1.315,1.315,0,0,0-.353.1A4.1,4.1,0,0,0-2.115.1a3.142,3.142,0,0,0-.557.594,3.289,3.289,0,0,0-.644,1.566,3.388,3.388,0,0,0,.234,1.69c.037.082.092.157.134.236a3.041,3.041,0,0,0,.162.537A3.273,3.273,0,0,0-.224,6.737,4.092,4.092,0,0,0,.891,6.7a3.384,3.384,0,0,0,1.086-.017,3.4,3.4,0,0,0,1.546-.671A3.486,3.486,0,0,0,4.579,4.593a5.813,5.813,0,0,0,.343-1.357,5.221,5.221,0,0,0,.027-1.349" transform="translate(3.333 1.27)" fill="#fff"/>
    </g>
    <g id="Grupo_2626" data-name="Grupo 2626" transform="translate(362.604 -226.615)">
      <path id="Caminho_3808" data-name="Caminho 3808" d="M0,.012s.01,0,.017,0h0c.094-.02.127-.027-.02,0" transform="translate(0 0.008)" fill="#2b2e34"/>
    </g>
    <g id="Grupo_2627" data-name="Grupo 2627" transform="translate(360.873 -226.603)">
      <path id="Caminho_3809" data-name="Caminho 3809" d="M2.325,1.061V1.044a.019.019,0,0,1,0-.01c-.01-.042-.1-.42-.109-.46V.566L2.2.532A4.334,4.334,0,0,0,1.972.107L1.96.092C1.91.03,1.818-.065,1.8-.085s-.107-.122-.162-.176a.045.045,0,0,0-.017-.012,0,0,0,0,0,0,0l-.4-.253s0,0,0,0,0,0-.01,0l-.007,0h0c-.027-.01-.44-.139-.47-.147a.158.158,0,0,0-.017,0A2.889,2.889,0,0,0,.2-.708l.485.015a3.356,3.356,0,0,0-.5-.015C.051-.681-.212-.624-.3-.6H-.306A1.642,1.642,0,0,0-.525-.48,1.644,1.644,0,0,0-.746-.36a.025.025,0,0,0-.012.01,4.484,4.484,0,0,0-.353.326.066.066,0,0,0-.012.015c-.092.134-.181.268-.261.408a.121.121,0,0,1-.007.017A4.166,4.166,0,0,0-1.544.9s0,.01,0,.015a3.1,3.1,0,0,0-.017.5v.017s0,.007,0,.01c.017.077.035.154.055.231s.032.157.052.231a.171.171,0,0,0,.007.02,1.377,1.377,0,0,0,.375.581,1.373,1.373,0,0,0,.554.422A1.347,1.347,0,0,0-.314,3c.022.01.045.015.065.025s.065.022.094.027a1.927,1.927,0,0,0,.308.1l.49.017a1.821,1.821,0,0,0,.867-.326.052.052,0,0,1,.015-.01,3.155,3.155,0,0,0,.355-.326s.007-.01.01-.015l.253-.4s0,0,0,0,0,0,0,0,0,0,0-.01l0-.007v0L2.3,1.6c0-.007,0-.012,0-.02a2.441,2.441,0,0,0,.017-.522" transform="translate(1.566 0.714)" fill="#2b2e34"/>
    </g>
    <g id="Grupo_2628" data-name="Grupo 2628" transform="translate(367.669 -204.898)">
      <path id="Caminho_3810" data-name="Caminho 3810" d="M.013,0-.009.03,0,.022.013,0" transform="translate(0.009)" fill="#46ac46"/>
    </g>
    <g id="Grupo_2629" data-name="Grupo 2629" transform="translate(364.375 -207.304)">
      <path id="Caminho_3811" data-name="Caminho 3811" d="M4.651,1.261A1.9,1.9,0,0,0,4.606.553a1.5,1.5,0,0,0-.589-.818c-.037-.047-.075-.092-.109-.129A1.6,1.6,0,0,0,2.842-.849a1.459,1.459,0,0,0-.85.253,1.326,1.326,0,0,0-.845.636C.9.486.635.921.344,1.335c-.052.075-.107.147-.159.221.042-.055.082-.1,0,0,0,.007-.012.015-.02.025s-.025.032-.035.047l.027-.04c-.037.045-.075.094-.114.139-.154.184-.316.355-.482.524-.276.286-.534.579-.778.885l-.042.032c-.142.1-.283.2-.43.293A3.928,3.928,0,0,0-2.841,4.521,1.563,1.563,0,0,0-2.2,6.867a3.96,3.96,0,0,0,1.511.189c.338,0,.678-.025,1.016-.057a3.51,3.51,0,0,0,3-.979c1.076-1.18.887-2.883,1.568-4.244a.364.364,0,0,0-.241-.514" transform="translate(3.132 0.849)" fill="#46ac46"/>
    </g>
    <g id="Grupo_2630" data-name="Grupo 2630" transform="translate(363.07 -202.277)">
      <path id="Caminho_3812" data-name="Caminho 3812" d="M3.338,1.26a.354.354,0,0,0-.08-.112A.319.319,0,0,0,3.033.942a2.961,2.961,0,0,0-.711-.01A3.881,3.881,0,0,1,1.229.591,4.678,4.678,0,0,1,.585.276a.264.264,0,0,1-.119-.36A.354.354,0,0,0,.22-.517s-.01,0-.017,0a.343.343,0,0,0-.1-.231.364.364,0,0,0-.5,0L-2.148.847a.348.348,0,0,0-.072.383.359.359,0,0,0,.321.219A6.331,6.331,0,0,0-.367,1.434c-.042.162-.087.318-.119.482a.363.363,0,0,0,.127.368.364.364,0,0,0,.39.03l1.315-.589a1.475,1.475,0,0,0,.025.35.469.469,0,0,0,.6.345,2.727,2.727,0,0,0,.609-.33c.209-.127.412-.258.614-.39a.358.358,0,0,0,.144-.44" transform="translate(2.248 0.848)" fill="#46ac46"/>
    </g>
    <g id="Grupo_2631" data-name="Grupo 2631" transform="translate(393.966 -197.696)">
      <path id="Caminho_3813" data-name="Caminho 3813" d="M1.16.6a1.544,1.544,0,0,1-.2-.4A2.406,2.406,0,0,0,.842-.218.334.334,0,0,0,.313-.312a2.363,2.363,0,0,0-.306.4,5.081,5.081,0,0,0-.78,1.752.26.26,0,0,0,.179.318A.256.256,0,0,0-.3,2.016a.268.268,0,0,0,.1-.06c.107-.1.206-.209.3-.318a2.735,2.735,0,0,1,.9-.659A.259.259,0,0,0,1.16.6" transform="translate(0.781 0.405)" fill="#3b8f39"/>
    </g>
    <g id="Grupo_2632" data-name="Grupo 2632" transform="translate(396.25 -201.049)">
      <path id="Caminho_3814" data-name="Caminho 3814" d="M1.337.69A1.405,1.405,0,0,1,1.255.25a2.362,2.362,0,0,0,.007-.44A.337.337,0,0,0,.778-.426a2.52,2.52,0,0,0-.4.293A5.124,5.124,0,0,0-.864,1.331a.264.264,0,0,0,.082.355.264.264,0,0,0,.323-.047.258.258,0,0,0,.114-.032,4.194,4.194,0,0,0,.38-.221A2.7,2.7,0,0,1,1.084,1.01C1.235,1,1.394.861,1.337.69" transform="translate(0.901 0.465)" fill="#3b8f39"/>
    </g>
    <g id="Grupo_2633" data-name="Grupo 2633" transform="translate(399.354 -203.433)">
      <path id="Caminho_3815" data-name="Caminho 3815" d="M1.423.739a1.415,1.415,0,0,1,.05-.445,2.052,2.052,0,0,0,.137-.417.331.331,0,0,0-.388-.368,2.573,2.573,0,0,0-.472.159A5.185,5.185,0,0,0-.871.7.264.264,0,0,0-.9,1.064a.261.261,0,0,0,.321.05.273.273,0,0,0,.119,0,3.619,3.619,0,0,0,.425-.1A2.688,2.688,0,0,1,1.085.97c.149.03.343-.05.338-.231" transform="translate(0.958 0.497)" fill="#3b8f39"/>
    </g>
    <g id="Grupo_2634" data-name="Grupo 2634" transform="translate(402.756 -205.649)">
      <path id="Caminho_3816" data-name="Caminho 3816" d="M1.423.739a1.415,1.415,0,0,1,.05-.445,2.052,2.052,0,0,0,.137-.417.332.332,0,0,0-.39-.368,2.549,2.549,0,0,0-.47.159A5.129,5.129,0,0,0-.871.7.264.264,0,0,0-.9,1.064a.261.261,0,0,0,.321.05.262.262,0,0,0,.117,0,3.548,3.548,0,0,0,.427-.1A2.688,2.688,0,0,1,1.085.97c.149.03.343-.05.338-.231" transform="translate(0.958 0.497)" fill="#3b8f39"/>
    </g>
    <g id="Grupo_2635" data-name="Grupo 2635" transform="translate(406.213 -207.167)">
      <path id="Caminho_3817" data-name="Caminho 3817" d="M1.426.744A1.49,1.49,0,0,1,1.5.3,2.035,2.035,0,0,0,1.667-.1.334.334,0,0,0,1.3-.5,2.774,2.774,0,0,0,.82-.367,5.084,5.084,0,0,0-.86.56.257.257,0,0,0-.907.92.261.261,0,0,0-.591.992.3.3,0,0,0-.475,1,3.567,3.567,0,0,0-.042.93,2.719,2.719,0,0,1,1.073.952.262.262,0,0,0,1.426.744" transform="translate(0.961 0.501)" fill="#3b8f39"/>
    </g>
    <g id="Grupo_2636" data-name="Grupo 2636" transform="translate(348.846 -217.862)">
      <path id="Caminho_3818" data-name="Caminho 3818" d="M24.216,7.235A8.841,8.841,0,0,0,20.854,5.6c-2.048-.79-3.665-.83-5.705-3.911a10.043,10.043,0,0,0-2.075-2.848c-.944-.718-1.449-1.461-2.632-1.484a1.055,1.055,0,0,0-.4.07,1.3,1.3,0,0,0-.855.306c-.328.261-1,.343-1.342.586A22.46,22.46,0,0,1-3.4-2.573c-2.013-.634-4.5-2.152-6.622-2.269a27.753,27.753,0,0,0-5.442.368,1.108,1.108,0,0,0-.845.527,2.1,2.1,0,0,0,1.066.6c1.543.137,1.2.291,2.741.417,1.143.092,1.255.08,2.4.174a3.529,3.529,0,0,1,2.423,1c1.456,1.538,4.863,5,8.831,5.186a3.759,3.759,0,0,0,.44.9c.753,1.151,2.786,2.982,4.1,3.253.206.042.413.077.616.109.283.072.567.137.832.214,1.411.405,2.823.89,4.259,1.2l.087.015a.251.251,0,0,1-.037.017c.174.03.348.047.519.075l.365.109c.333.1.676.231,1.024.338a1.1,1.1,0,0,0,.154.075,11,11,0,0,0,1.61.326,1.6,1.6,0,0,0,.442.124,11.043,11.043,0,0,0,3.581-.045c.191,0,.39.012.577.012l1.359-.117,2.3-.2a1.5,1.5,0,0,0,.837-2.609" transform="translate(16.308 4.872)" fill="#85c957"/>
    </g>
    <g id="Grupo_2637" data-name="Grupo 2637" transform="translate(353.548 -219.421)">
      <path id="Caminho_3819" data-name="Caminho 3819" d="M1.612.8C1.6.787,1.6.782,1.6.782L1.579.757A.578.578,0,0,1,1.537.692C1.517.66,1.5.63,1.485.6c.025.052,0,0-.01-.022-.05-.119-.092-.241-.137-.36A1.362,1.362,0,0,0,.807-.5a.314.314,0,0,0-.326.015L-.935.541a.331.331,0,0,0-.1.45.325.325,0,0,0,.447.1L-.411.963a.23.23,0,0,0,.055.042.946.946,0,0,0,.569.084,4.863,4.863,0,0,1,1.026.231A.325.325,0,0,0,1.612.8" transform="translate(1.085 0.537)" fill="#fff"/>
    </g>
    <g id="Grupo_2638" data-name="Grupo 2638" transform="translate(356.213 -218.802)">
      <path id="Caminho_3820" data-name="Caminho 3820" d="M1.61.837C1.6.825,1.6.823,1.6.82A.215.215,0,0,1,1.58.8C1.568.775,1.555.75,1.543.728S1.51.661,1.5.629c.022.052,0,0-.007-.025C1.448.482,1.416.358,1.379.234A1.344,1.344,0,0,0,.9-.512.313.313,0,0,0,.579-.524L-.912.393a.332.332,0,0,0-.134.44.329.329,0,0,0,.44.132L-.42.852A.184.184,0,0,0-.368.9a.934.934,0,0,0,.559.127A4.7,4.7,0,0,1,1.2,1.334a.326.326,0,0,0,.412-.5" transform="translate(1.084 0.564)" fill="#fff"/>
    </g>
    <g id="Grupo_2639" data-name="Grupo 2639" transform="translate(358.991 -217.958)">
      <path id="Caminho_3821" data-name="Caminho 3821" d="M1.606.855C1.6.843,1.593.84,1.593.838A.219.219,0,0,1,1.578.813C1.564.79,1.554.766,1.541.743S1.514.676,1.5.644c.02.052,0,0-.007-.025C1.457.495,1.429.37,1.4.244a1.385,1.385,0,0,0-.45-.763A.319.319,0,0,0,.622-.542C.112-.251-.395.035-.9.326a.331.331,0,0,0-.147.435A.329.329,0,0,0-.613.907L-.424.8a.313.313,0,0,0,.05.05A.953.953,0,0,0,.179.994a4.643,4.643,0,0,1,1,.343A.325.325,0,0,0,1.606.855" transform="translate(1.081 0.576)" fill="#fff"/>
    </g>
    <g id="Grupo_2640" data-name="Grupo 2640" transform="translate(361.629 -216.861)">
      <path id="Caminho_3822" data-name="Caminho 3822" d="M1.606.855A.075.075,0,0,0,1.593.837.219.219,0,0,1,1.578.813C1.566.79,1.554.765,1.544.743A.851.851,0,0,1,1.5.644c.02.052,0,0-.007-.025C1.457.495,1.429.37,1.4.244a1.37,1.37,0,0,0-.45-.76A.314.314,0,0,0,.622-.542C.112-.251-.395.035-.9.326A.33.33,0,0,0-1.048.76.329.329,0,0,0-.613.907L-.424.8A.25.25,0,0,0-.372.85.943.943,0,0,0,.182.994a4.76,4.76,0,0,1,1,.343A.325.325,0,0,0,1.606.855" transform="translate(1.081 0.576)" fill="#fff"/>
    </g>
    <g id="Grupo_2641" data-name="Grupo 2641" transform="translate(364.478 -216.203)">
      <path id="Caminho_3823" data-name="Caminho 3823" d="M1.612.8,1.6.78c0-.007-.012-.015-.017-.022L1.535.691C1.517.659,1.5.629,1.485.6c.025.05,0,0-.01-.025C1.423.455,1.383.331,1.336.214A1.37,1.37,0,0,0,.807-.5a.318.318,0,0,0-.328.015L-.938.544a.333.333,0,0,0-.1.45.328.328,0,0,0,.447.1L-.411.964a.239.239,0,0,0,.055.045.963.963,0,0,0,.569.082,4.713,4.713,0,0,1,1.026.231A.326.326,0,0,0,1.612.8" transform="translate(1.085 0.536)" fill="#fff"/>
    </g>
    <g id="Grupo_2642" data-name="Grupo 2642" transform="translate(367.427 -215.817)">
      <path id="Caminho_3824" data-name="Caminho 3824" d="M1.61.773,1.6.758,1.578.736A.615.615,0,0,1,1.531.671c-.02-.03-.037-.06-.055-.092.027.05,0,0-.01-.022C1.409.44,1.364.319,1.315.2A1.349,1.349,0,0,0,.758-.487.319.319,0,0,0,.43-.462L-.947.617a.334.334,0,0,0-.082.452.327.327,0,0,0,.452.082L-.4,1.019a.332.332,0,0,0,.057.04.98.98,0,0,0,.569.062,4.662,4.662,0,0,1,1.036.191A.325.325,0,0,0,1.61.773" transform="translate(1.085 0.521)" fill="#fff"/>
    </g>
    <g id="Grupo_2643" data-name="Grupo 2643" transform="translate(370.233 -216.148)">
      <path id="Caminho_3825" data-name="Caminho 3825" d="M1.568.644C1.555.636,1.553.634,1.55.634L1.528.614C1.508.6,1.488.579,1.468.559S1.421.507,1.4.482c.035.042,0,0-.017-.022-.075-.1-.144-.211-.219-.318A1.377,1.377,0,0,0,.482-.422a.324.324,0,0,0-.316.092C-.211.114-.592.557-.969,1a.335.335,0,0,0,.01.46.33.33,0,0,0,.46-.01l.142-.164A.278.278,0,0,0-.3,1.314a.969.969,0,0,0,.572-.052,4.568,4.568,0,0,1,1.056-.017.331.331,0,0,0,.378-.2.326.326,0,0,0-.142-.4" transform="translate(1.056 0.433)" fill="#fff"/>
    </g>
    <g id="Grupo_2644" data-name="Grupo 2644" transform="translate(348.562 -218.187)">
      <path id="Caminho_3826" data-name="Caminho 3826" d="M17.226,1.428a3.3,3.3,0,0,1-2.5-.678.335.335,0,0,0-.46,0,.325.325,0,0,0,0,.46c.08.065.162.122.246.181C11.719,3,8.323,3,5.219,2.439,1.683,1.8-1.948-.521-5.543-.873a14.363,14.363,0,0,0-5.884.532c-.4.129-.025.716.239.606C-4.552-2.5,2.963,4.012,10.1,3.378a11.254,11.254,0,0,0,5.067-1.62,3.826,3.826,0,0,0,2.06.321.339.339,0,0,0,.326-.326.328.328,0,0,0-.326-.326" transform="translate(11.601 0.961)" fill="#3b8f39"/>
    </g>
    <g id="Grupo_2645" data-name="Grupo 2645" transform="translate(386.179 -205.037)">
      <path id="Caminho_3827" data-name="Caminho 3827" d="M.016,0-.011.035A.034.034,0,0,0,0,.025.174.174,0,0,0,.016,0" transform="translate(0.011)" fill="#46ac46"/>
    </g>
    <g id="Grupo_2646" data-name="Grupo 2646" transform="translate(381.738 -207.568)">
      <path id="Caminho_3828" data-name="Caminho 3828" d="M6.269,1.429a2.1,2.1,0,0,0-.05-.805A1.72,1.72,0,0,0,5.551-.3c-.042-.052-.082-.1-.124-.147A1.8,1.8,0,0,0,4.219-.962a1.663,1.663,0,0,0-.964.283A1.515,1.515,0,0,0,2.3.045a17.026,17.026,0,0,1-.909,1.469c-.057.082-.122.166-.181.251.05-.065.1-.114,0,0l-.022.027c-.012.017-.03.035-.042.055.007-.012.022-.03.035-.047l-.132.162c-.174.2-.358.4-.544.594-.313.321-.606.654-.885,1a.281.281,0,0,0-.045.035c-.162.114-.323.224-.49.333a4.586,4.586,0,0,0-1.312,1.2c-.032.05-.05.1-.08.152-.6.549-1.208,1.1-1.809,1.645a.373.373,0,0,0-.077.41.389.389,0,0,0,.343.231,7.055,7.055,0,0,0,1.635-.015c-.047.169-.092.338-.127.512a.379.379,0,0,0,.137.393.381.381,0,0,0,.415.03c.375-.166.753-.338,1.128-.5.094.01.189.012.283.015a1.24,1.24,0,0,0,.017.239A.5.5,0,0,0,.28,8.6a3.063,3.063,0,0,0,.651-.353c.159-.1.318-.2.477-.308A3.967,3.967,0,0,0,4.766,6.824c1.223-1.334,1-3.27,1.777-4.813a.412.412,0,0,0-.273-.581" transform="translate(4.222 0.962)" fill="#46ac46"/>
    </g>
    <g id="Grupo_2647" data-name="Grupo 2647" transform="translate(375.482 -204.498)">
      <path id="Caminho_3829" data-name="Caminho 3829" d="M.015,0-.01.032A.034.034,0,0,0,0,.022C0,.015.01.007.015,0" transform="translate(0.01)" fill="#46ac46"/>
    </g>
    <g id="Grupo_2648" data-name="Grupo 2648" transform="translate(370.651 -207.216)">
      <path id="Caminho_3830" data-name="Caminho 3830" d="M5.88.8C5.868.779,5.85.756,5.838.734S5.83.679,5.826.655A1.075,1.075,0,0,0,5.507.17C5.478.128,5.453.083,5.42.043a.469.469,0,0,0-.132-.109H5.281a.272.272,0,0,0-.025-.027,1.383,1.383,0,0,0-.663-.316l-.05-.022a1.175,1.175,0,0,0-.45-.1.3.3,0,0,0-.047,0,2.2,2.2,0,0,0-.711.042,2.427,2.427,0,0,0-.678.308,1.662,1.662,0,0,0-.447.4,1.372,1.372,0,0,0-.291.348c-.266.472-.544.934-.855,1.379C1.012,2.021.953,2.1.9,2.178c.047-.062.089-.107,0,0L.878,2.2c-.012.017-.025.032-.037.052a.348.348,0,0,1,.03-.045c-.04.052-.08.1-.122.152-.164.191-.338.375-.512.557-.293.3-1,1.327-1.151,1.429A5.505,5.505,0,0,0-2.3,5.654q-.779.712-1.561,1.421a.353.353,0,0,0-.075.385.372.372,0,0,0,.323.216,6.459,6.459,0,0,0,1.533-.015c-.045.159-.087.321-.119.48a.363.363,0,0,0,.127.373.359.359,0,0,0,.39.025q.581-.257,1.163-.522c.052,0,.1,0,.157,0a1.324,1.324,0,0,0,.02.283.467.467,0,0,0,.6.343,2.691,2.691,0,0,0,.609-.333c.181-.109.358-.221.534-.338A3.543,3.543,0,0,0,4.233,6.922c1.138-1.242.949-3.037,1.655-4.48a1.347,1.347,0,0,0,.072-.179.949.949,0,0,0,.027-.142.6.6,0,0,0,.047-.231c0-.037.017-.075.02-.112A1.984,1.984,0,0,0,5.88.8" transform="translate(3.96 0.541)" fill="#46ac46"/>
    </g>
  </g>
</svg>
