<svg xmlns="http://www.w3.org/2000/svg" xmlns:xlink="http://www.w3.org/1999/xlink" width="38.892" height="40" viewBox="0 0 38.892 40">
  <defs>
    <clipPath id="clip-path">
      <path id="Caminho_4023" data-name="Caminho 4023" d="M345.517-116.584h38.892v-40H345.517Z" transform="translate(0)" fill="none"/>
    </clipPath>
  </defs>
  <g id="alfabeto_w_e002_fim" transform="translate(-345.517 156.584)" clip-path="url(#clip-path)">
    <g id="Grupo_2835" data-name="Grupo 2835" transform="translate(352.87 -128.726)">
      <path id="Caminho_4017" data-name="Caminho 4017" d="M3.914,4.127c9.6-.32,18.078,2.3,12.8-6.077C14.412-5.609,9.533-7.2,4.9-6.8A11.955,11.955,0,0,0-3.879-2.937C-10.163,4.149-4.238,4.4,3.914,4.127" transform="translate(6.509 6.863)" fill="#0086cc"/>
    </g>
    <g id="Grupo_2836" data-name="Grupo 2836" transform="translate(349.958 -154.649)">
      <path id="Caminho_4018" data-name="Caminho 4018" d="M6.543.083C-4.875-2.075-15.324,12-8.941,22.136c2.788,4.426,8.689,6.351,14.29,5.872a14.46,14.46,0,0,0,10.62-4.677C23.568,14.757,16.9,2.04,6.543.083" transform="translate(10.882 0.138)" fill="#00b8f1"/>
    </g>
    <g id="Grupo_2837" data-name="Grupo 2837" transform="translate(354.181 -152.135)">
      <path id="Caminho_4019" data-name="Caminho 4019" d="M4.53.009C-2.943-.513-10.09,7.316-6.641,14.621a10.129,10.129,0,0,0,.874,1.491,9.546,9.546,0,0,0,2.251,3.481c5.489,5.334,15.041,1.963,17.523-4.721A11.089,11.089,0,0,0,4.53.009" transform="translate(7.533 0.015)" fill="#1f394f"/>
    </g>
    <g id="Grupo_2838" data-name="Grupo 2838" transform="translate(357.161 -148.303)">
      <path id="Caminho_4020" data-name="Caminho 4020" d="M4.816.735A6.241,6.241,0,0,0-.143-1.21a7.105,7.105,0,0,0-.961.128A6.853,6.853,0,0,0-7.832,4.189a6.9,6.9,0,0,0-.083,2.687,4.825,4.825,0,0,0,.887,2.538c1.622,3.5,6.77,4.615,10.354,3.556A5.706,5.706,0,0,0,7.417,8.234a6.611,6.611,0,0,0-2.6-7.5" transform="translate(8.01 1.222)" fill="#2b2e34"/>
    </g>
    <g id="Grupo_2839" data-name="Grupo 2839" transform="translate(359.275 -147.144)">
      <path id="Caminho_4021" data-name="Caminho 4021" d="M0,1.4A5.777,5.777,0,0,1,2.5-1.654a5.6,5.6,0,0,1,2.887-.653L5.745-.462a4.446,4.446,0,0,0-2.37.986A11.152,11.152,0,0,0,1.96,2.593Z" transform="translate(0 2.32)" fill="#fff"/>
    </g>
    <g id="Grupo_2840" data-name="Grupo 2840" transform="translate(362.655 -143.827)">
      <path id="Caminho_4022" data-name="Caminho 4022" d="M1.861.5A1.952,1.952,0,0,0,1.633.189a1.874,1.874,0,0,0-.251-.3C1.244-.229,1.094-.344.945-.448.924-.463.9-.477.882-.49S.839-.512.817-.524C.674-.591.482-.674.335-.725L.295-.74A.781.781,0,0,0,.211-.759C.029-.794-.173-.818-.357-.836a.763.763,0,0,0-.16,0,3.164,3.164,0,0,0-.657.107c-.171.064-.352.139-.519.219-.026.013-.051.027-.075.042a3.518,3.518,0,0,0-.511.4.438.438,0,0,0-.053.056,5.711,5.711,0,0,0-.352.453.827.827,0,0,0-.082.141c-.078.17-.159.352-.221.528a.717.717,0,0,0-.026.083,2.829,2.829,0,0,0,0,1.364,2.206,2.206,0,0,0,.155.405,2.487,2.487,0,0,0,.184.4,6.241,6.241,0,0,0,.416.548,1.477,1.477,0,0,0,.127.141,3.831,3.831,0,0,0,.488.383,1.774,1.774,0,0,0,.325.151,1.815,1.815,0,0,0,.871.2.286.286,0,0,0,.037,0,.137.137,0,0,0,.037,0l.556-.074L.229,4.7l.5-.211.021-.01c.014-.008.026-.016.038-.024l.424-.327L1.239,4.1a2.037,2.037,0,0,0,.221-.272c.072-.094.157-.192.221-.3a4.231,4.231,0,0,0,.3-.668,1.364,1.364,0,0,0,.07-.211c.008-.038.014-.077.021-.115s.011-.1.019-.144c0-.022.013-.043.018-.067.032-.173.056-.362.072-.536a.5.5,0,0,0,0-.085A2.623,2.623,0,0,0,1.861.5" transform="translate(3.095 0.839)" fill="#fff"/>
    </g>
  </g>
</svg>
