<svg xmlns="http://www.w3.org/2000/svg" xmlns:xlink="http://www.w3.org/1999/xlink" width="48.948" height="40" viewBox="0 0 48.948 40">
  <defs>
    <clipPath id="clip-path">
      <path id="Caminho_3748" data-name="Caminho 3748" d="M127.166-191.02h48.948v-40H127.166Z" transform="translate(0 0)" fill="none"/>
    </clipPath>
  </defs>
  <g id="alfabeto_d_e002_fim" transform="translate(-127.166 231.02)" clip-path="url(#clip-path)">
    <g id="Grupo_2557" data-name="Grupo 2557" transform="translate(127.507 -231.021)">
      <path id="Caminho_3739" data-name="Caminho 3739" d="M.178,3.619c1.368-.3,25.968,1.329,27.081,1.438v.026a45.963,45.963,0,0,0,5.529-1.378,62.508,62.508,0,0,1,7.374-2.152c1.282-.263,2.569-.485,3.862-.688A37.528,37.528,0,0,1,48,.422q-2.568-.34-5.136-.638h-.023C36.911-.9,30.957-1.467,25.037-2.254q-2.349.332-4.688.688c-.805.2-1.613.386-2.418.586C14.822-.214,11.708.537,8.615,1.363c-.92.248-1.84.5-2.754.758-1.946.558-3.9,1.1-5.881,1.524a.117.117,0,0,0,0,.029c-.016.253-.034.5-.047.756l0,0c-.016.24-.031.479-.044.722l.016.013c.018-.5.042-.964.065-1.376a2.606,2.606,0,0,1,.208-.172" transform="translate(0.111 2.254)" fill="#72c1e8"/>
    </g>
    <g id="Grupo_2558" data-name="Grupo 2558" transform="translate(154.775 -228.344)">
      <path id="Caminho_3740" data-name="Caminho 3740" d="M12.845,0a37.483,37.483,0,0,0-3.976.44C7.576.646,6.287.868,5,1.131A62.8,62.8,0,0,0-2.369,3.283,46.2,46.2,0,0,1-7.9,4.659C-8.441,14.472-6.57,36-7.732,36.868c2.137-.625,4.318-1.11,6.493-1.6,3.481-.784,6.921-1.733,10.365-2.647q2.107-.559,4.213-1.094V.058a1.044,1.044,0,0,0-.5-.057" transform="translate(8 0)" fill="#0081c9"/>
    </g>
    <g id="Grupo_2559" data-name="Grupo 2559" transform="translate(127.368 -225.185)">
      <path id="Caminho_3741" data-name="Caminho 3741" d="M16.952.909C15.839.8-8.761-.831-10.129-.529c-.07.052-.138.112-.206.172-.422,7.069-.133,27.683-.023,28.694C-3.539,29.9,16.342,33.6,17.1,33.173c1.2-.672-.7-22.412-.151-32.264" transform="translate(10.557 0.566)" fill="#03a2de"/>
    </g>
    <g id="Grupo_2560" data-name="Grupo 2560" transform="translate(165.434 -213.584)">
      <path id="Caminho_3742" data-name="Caminho 3742" d="M3.241,1.7A2.691,2.691,0,0,0,1.18-1.035,2.911,2.911,0,0,0-1.59.666a3.356,3.356,0,0,0,.237,3.658,2.089,2.089,0,0,0,.959.646,1.747,1.747,0,0,0,1.24.039,2.023,2.023,0,0,0,.482-.237A3.191,3.191,0,0,0,3.241,1.7" transform="translate(2.019 1.059)" fill="#ffbf31"/>
    </g>
    <g id="Grupo_2561" data-name="Grupo 2561" transform="translate(160.173 -202.323)">
      <path id="Caminho_3743" data-name="Caminho 3743" d="M3.241,1.7A2.686,2.686,0,0,0,1.18-1.035,2.91,2.91,0,0,0-1.59.669a3.352,3.352,0,0,0,.24,3.656,2.03,2.03,0,0,0,.956.646,1.782,1.782,0,0,0,1.243.042,2.3,2.3,0,0,0,.482-.237A3.2,3.2,0,0,0,3.241,1.7" transform="translate(2.018 1.059)" fill="#ffbf31"/>
    </g>
    <g id="Grupo_2562" data-name="Grupo 2562" transform="translate(169.167 -223.608)">
      <path id="Caminho_3744" data-name="Caminho 3744" d="M3.241,1.7A2.686,2.686,0,0,0,1.18-1.034,2.9,2.9,0,0,0-1.59.667a3.357,3.357,0,0,0,.237,3.658,2.063,2.063,0,0,0,.959.644,1.761,1.761,0,0,0,1.24.042,2.241,2.241,0,0,0,.482-.237A3.2,3.2,0,0,0,3.241,1.7" transform="translate(2.019 1.058)" fill="#ffbf31"/>
    </g>
    <g id="Grupo_2563" data-name="Grupo 2563" transform="translate(143.923 -220.422)">
      <path id="Caminho_3745" data-name="Caminho 3745" d="M3.871,2.224A2.815,2.815,0,0,0,2.365-1.122a3.581,3.581,0,0,0-3.648.631,2.932,2.932,0,0,0-.829,3.575,2.482,2.482,0,0,0,.886.959,2.467,2.467,0,0,0,1.391.482A2.637,2.637,0,0,0,.781,4.47a3.211,3.211,0,0,0,3.09-2.246" transform="translate(2.411 1.385)" fill="#ffc734"/>
    </g>
    <g id="Grupo_2564" data-name="Grupo 2564" transform="translate(131.018 -204.185)">
      <path id="Caminho_3746" data-name="Caminho 3746" d="M3.843,1.7A2.817,2.817,0,0,0,1.4-1.035,3.577,3.577,0,0,0-1.886.669,2.931,2.931,0,0,0-1.6,4.327a2.5,2.5,0,0,0,1.136.644,2.457,2.457,0,0,0,1.472.042,2.833,2.833,0,0,0,.568-.237A3.215,3.215,0,0,0,3.843,1.7" transform="translate(2.394 1.059)" fill="#ffc734"/>
    </g>
    <g id="Grupo_2565" data-name="Grupo 2565" transform="translate(150.642 -228.982)">
      <path id="Caminho_3747" data-name="Caminho 3747" d="M3.4.537A1.243,1.243,0,0,0,2.2-.081a1.32,1.32,0,0,0-.776-.214c-.175.005-.349.005-.524.008l-.151,0L.544-.279a6.259,6.259,0,0,0-1.806.021,1.207,1.207,0,0,0-.7.388A.679.679,0,0,0-2.1.67a.566.566,0,0,0,.05.107A.482.482,0,0,0-2.066.9a.968.968,0,0,0,.865.816c.06.013.12.018.18.026a5.082,5.082,0,0,0,.959.122,6.147,6.147,0,0,0,.79-.021c.628-.055,1.232-.149,1.847-.263.594-.112,1.014-.61.821-1.04" transform="translate(2.114 0.334)" fill="#ffd938"/>
    </g>
  </g>
</svg>
