<svg xmlns="http://www.w3.org/2000/svg" xmlns:xlink="http://www.w3.org/1999/xlink" width="55.302" height="40" viewBox="0 0 55.302 40">
  <defs>
    <clipPath id="clip-path">
      <path id="Caminho_3886" data-name="Caminho 3886" d="M15.476-106.839h55.3v-40h-55.3Z" transform="translate(0 0)" fill="none"/>
    </clipPath>
  </defs>
  <g id="alfabeto_n_e002_fim" transform="translate(-15.476 146.839)" clip-path="url(#clip-path)">
    <g id="Grupo_2691" data-name="Grupo 2691" transform="translate(20.677 -146.74)">
      <path id="Caminho_3873" data-name="Caminho 3873" d="M27.323,10.316Q26.764,7.457,26.21,4.6c-.176-.908-.362-1.817-.528-2.725a19.32,19.32,0,0,1-.336-2.463,2.107,2.107,0,0,0-1.434-1.9,1.222,1.222,0,0,0-.638-.113L11.3-1.806a1.113,1.113,0,0,0-.777.331.861.861,0,0,0-.515.517,47.442,47.442,0,0,0-.99,4.744c-.344.013-.685.029-1.029.039q-1.02.032-2.04.06c-.394.011-.793.021-1.189.029H4.689a2.954,2.954,0,0,0-.754-1.46,3,3,0,0,0-2.268-.8c-.037-.163-.066-.323-.089-.48a39.523,39.523,0,0,1-.315-4.561.184.184,0,0,1,.016-.024,3.06,3.06,0,0,0,.543-.467,1.287,1.287,0,0,0-.475-2.03,5.605,5.605,0,0,0-3.282-.362,28.143,28.143,0,0,0-3.6.641,18.488,18.488,0,0,0-6.031,2.1c-.961.635-1.108,1.439-.328,2.177a3.722,3.722,0,0,0,2.09.911q.177,2.107.352,4.214-3.186.7-6.412,1.273a.881.881,0,0,0-.549.339.663.663,0,0,0-.389.641c.281,3.164.465,6.333.583,9.5l38.388-2.544a2.339,2.339,0,0,0,.845.223,6.041,6.041,0,0,0,2.247-.291,2.335,2.335,0,0,0,.239-.1,1.62,1.62,0,0,0,.449-.071,2.023,2.023,0,0,0,1.378-2.426" transform="translate(16.809 6.346)" fill="#0794d4"/>
    </g>
    <g id="Grupo_2692" data-name="Grupo 2692" transform="translate(15.771 -135.803)">
      <path id="Caminho_3874" data-name="Caminho 3874" d="M34.052,1.309a.819.819,0,0,0-.176-.575,2.146,2.146,0,0,0-.4-1.045A.621.621,0,0,0,33.3-.463a.759.759,0,0,0-.357-.273,1.247,1.247,0,0,0-.462-.05c-.013,0-.029-.011-.045-.011L31.8-.789s0,0-.005,0A.5.5,0,0,0,31.668-.8C18.994-.13,5.588,7.6-7.211,7.492c-3.636-.032-8.144-.045-11.781-.047a1.685,1.685,0,0,0-1.665,1.617c-.585,3.067-.352,2.355,1.281,4.7.788,1.129,5.309,14.391,30.847,14.391a63.1,63.1,0,0,0,9.179-.546c2.342-.349,4.87-.52,6.968-2.077,1.554-1.147,3.875-7.155,4.823-9.793a.719.719,0,0,0,.184-.412c.013-.081.021-.163.034-.244a12.465,12.465,0,0,0,.488-2.4.9.9,0,0,0,.192-.53c.147-2.612.7-10.232.712-10.843" transform="translate(20.948 0.805)" fill="#72c1e8"/>
    </g>
    <g id="Grupo_2693" data-name="Grupo 2693" transform="translate(30.15 -126.085)">
      <path id="Caminho_3875" data-name="Caminho 3875" d="M4.142.929a3.182,3.182,0,0,0-.7-.667A3.063,3.063,0,0,0,1.991-.494,3.723,3.723,0,0,0-2.22,1.73a2.725,2.725,0,0,0-.223,2.006A3.17,3.17,0,0,0-1.671,5.03a3.512,3.512,0,0,0,2,1.3A3.685,3.685,0,0,0,3.01,5.939,3.32,3.32,0,0,0,4.438,4.193a3.077,3.077,0,0,0-.3-3.264" transform="translate(2.548 0.572)" fill="#f5425e"/>
    </g>
    <g id="Grupo_2694" data-name="Grupo 2694" transform="translate(32.45 -124.128)">
      <path id="Caminho_3876" data-name="Caminho 3876" d="M1.82.9A1.467,1.467,0,0,0,1.625.176.057.057,0,0,1,1.617.163C1.583.113,1.51.024,1.507.021s-.071-.1-.11-.144L1.392-.129A1.475,1.475,0,0,0,.759-.5L.743-.5A2.1,2.1,0,0,0,.36-.554,2.1,2.1,0,0,0-.024-.5.049.049,0,0,0-.042-.5a2.073,2.073,0,0,0-.344.144s-.005,0-.008.005h0s0,0-.005,0C-.494-.27-.588-.2-.68-.129l-.013.013a1.77,1.77,0,0,0-.226.3l0,.008h0l-.139.328,0,.005a.01.01,0,0,1,0,.008c-.024.123-.037.252-.05.378A1.025,1.025,0,0,0-1,1.439a1.032,1.032,0,0,0,.284.446c.018.018.039.032.06.05s.016.024.026.034A1.4,1.4,0,0,0,0,2.334H0c.005,0,.365.05.37.05H.376C.439,2.376.5,2.371.562,2.36a.824.824,0,0,0,.186-.026l0,0c.06-.021.244-.1.349-.15a1.95,1.95,0,0,0,.286-.223,2.142,2.142,0,0,0,.226-.289l.008-.016c.029-.053.063-.147.074-.168s.053-.116.071-.173L1.77,1.3A2.651,2.651,0,0,0,1.82.916Z" transform="translate(1.119 0.554)" fill="#fff"/>
    </g>
    <g id="Grupo_2695" data-name="Grupo 2695" transform="translate(34.653 -121.422)">
      <path id="Caminho_3877" data-name="Caminho 3877" d="M0,.026C.137-.035.1-.021.016.015a0,0,0,0,0,0,0L0,.026" transform="translate(0 0.016)" fill="#fff"/>
    </g>
    <g id="Grupo_2696" data-name="Grupo 2696" transform="translate(23.625 -125.626)">
      <path id="Caminho_3878" data-name="Caminho 3878" d="M3.388.76A2.567,2.567,0,0,0,2.813.214,2.5,2.5,0,0,0,1.629-.4,3.037,3.037,0,0,0-1.816,1.417,2.231,2.231,0,0,0-2,3.058a2.629,2.629,0,0,0,.633,1.058A2.868,2.868,0,0,0,.272,5.176a3.013,3.013,0,0,0,2.192-.318A2.716,2.716,0,0,0,3.632,3.43,2.52,2.52,0,0,0,3.388.76" transform="translate(2.084 0.468)" fill="#f5425e"/>
    </g>
    <g id="Grupo_2697" data-name="Grupo 2697" transform="translate(25.506 -124.024)">
      <path id="Caminho_3879" data-name="Caminho 3879" d="M1.489.735a1.186,1.186,0,0,0-.16-.591c0-.005,0-.008-.005-.011C1.3.094,1.235.021,1.232.018S1.174-.063,1.143-.1L1.137-.105A1.2,1.2,0,0,0,.62-.41c-.005,0-.008,0-.013,0A2.074,2.074,0,0,0,.295-.452,2.153,2.153,0,0,0-.02-.413l-.013.005a2.079,2.079,0,0,0-.284.118s0,0-.005.005h0a0,0,0,0,1,0,0L-.556-.1c-.005,0-.008.008-.011.011A1.625,1.625,0,0,0-.753.147a.008.008,0,0,1,0,.005v0c-.039.089-.076.181-.113.27l0,0a.01.01,0,0,1,0,.008A3.081,3.081,0,0,0-.916.743a.865.865,0,0,0,.1.436.827.827,0,0,0,.231.365c.016.013.034.024.05.037s.013.021.021.032a1.136,1.136,0,0,0,.512.3H0c.005,0,.3.042.3.042H.308c.05-.005.1-.013.15-.021a.675.675,0,0,0,.155-.021h0c.05-.021.2-.084.284-.123A1.761,1.761,0,0,0,1.135,1.6a1.805,1.805,0,0,0,.184-.239l.008-.011c.021-.045.053-.121.058-.139s.045-.095.06-.142a.114.114,0,0,0,0-.013A2.441,2.441,0,0,0,1.489.75Z" transform="translate(0.916 0.452)" fill="#fff"/>
    </g>
    <g id="Grupo_2698" data-name="Grupo 2698" transform="translate(27.308 -121.813)">
      <path id="Caminho_3880" data-name="Caminho 3880" d="M0,.022C.11-.031.081-.017.013.014h0Z" transform="translate(0 0.014)" fill="#fff"/>
    </g>
    <g id="Grupo_2699" data-name="Grupo 2699" transform="translate(18.917 -125.907)">
      <path id="Caminho_3881" data-name="Caminho 3881" d="M2.472.554a1.829,1.829,0,0,0-.42-.4,1.835,1.835,0,0,0-.864-.449A2.216,2.216,0,0,0-1.324,1.032a1.644,1.644,0,0,0-.137,1.2A1.917,1.917,0,0,0-1,3,2.094,2.094,0,0,0,.2,3.778a2.213,2.213,0,0,0,1.6-.234A1.974,1.974,0,0,0,2.651,2.5,1.838,1.838,0,0,0,2.472.554" transform="translate(1.521 0.341)" fill="#f5425e"/>
    </g>
    <g id="Grupo_2700" data-name="Grupo 2700" transform="translate(20.29 -124.739)">
      <path id="Caminho_3882" data-name="Caminho 3882" d="M1.086.538A.883.883,0,0,0,.971.1S.968.1.966.1C.945.068.9.016.9.013S.858-.045.834-.071L.829-.076A.849.849,0,0,0,.451-.3L.443-.3A1.365,1.365,0,0,0,.215-.331,1.649,1.649,0,0,0-.014-.3c-.005,0-.008,0-.011,0A1.814,1.814,0,0,0-.232-.21s0,0-.005,0v0h0l-.165.131a.036.036,0,0,0-.011.008A1.22,1.22,0,0,0-.549.107s0,0,0,.005c-.029.066-.055.134-.084.2v0a.009.009,0,0,1,0,.005A1.609,1.609,0,0,0-.668.543.607.607,0,0,0-.6.861a.624.624,0,0,0,.171.265.333.333,0,0,0,.034.029.146.146,0,0,1,.016.021A.866.866,0,0,0,0,1.394H0l.221.032h0l.11-.016a.632.632,0,0,0,.113-.016h0c.037-.016.144-.06.207-.089a1.2,1.2,0,0,0,.171-.134A1.239,1.239,0,0,0,.963,1S.966.992.968.99C.984.956,1,.9,1.01.887s.032-.071.042-.1c0,0,0-.005,0-.011A1.3,1.3,0,0,0,1.086.549Z" transform="translate(0.668 0.331)" fill="#fff"/>
    </g>
    <g id="Grupo_2701" data-name="Grupo 2701" transform="translate(21.605 -123.125)">
      <path id="Caminho_3883" data-name="Caminho 3883" d="M0,.016C.081-.023.06-.013.008.011L0,.016" transform="translate(0 0.01)" fill="#fff"/>
    </g>
    <g id="Grupo_2702" data-name="Grupo 2702" transform="translate(17.935 -128.406)">
      <path id="Caminho_3884" data-name="Caminho 3884" d="M31.83,5.41c.013-.081.021-.163.034-.247a12.625,12.625,0,0,0,.488-2.4.875.875,0,0,0,.189-.528c.071-1.192.218-3.424.365-5.561A90.52,90.52,0,0,1,9.024,5.315C1.09,6.961-9.706,8.965-17.286,5.181a3.111,3.111,0,0,0-2.295-.234c1.854,3.447,8.249,13.29,30.257,13.29a63.1,63.1,0,0,0,9.179-.546c2.342-.349,4.87-.522,6.968-2.077,1.554-1.15,3.875-7.155,4.823-9.8a.71.71,0,0,0,.184-.41" transform="translate(19.581 3.328)" fill="#ff4227"/>
    </g>
    <g id="Grupo_2703" data-name="Grupo 2703" transform="translate(37.129 -126.996)">
      <path id="Caminho_3885" data-name="Caminho 3885" d="M3.124,2.17a1.537,1.537,0,0,1-.189-.8A1.216,1.216,0,0,1,3.227.561.936.936,0,0,1,3.474.38a1.132,1.132,0,0,1,.48-.221,1.045,1.045,0,0,1,.67.1c.034.005.074.008.105.016a1.056,1.056,0,0,1,.7.53.918.918,0,0,1-.118.966,1.178,1.178,0,0,1-.375.3,1.031,1.031,0,0,1-.207.163,1.072,1.072,0,0,1-1.6-.066m7.333,3.182-.483-.192a.9.9,0,0,1-.116-.05c.118.068-.005,0-.034-.016A1.915,1.915,0,0,1,9.63,5c-.063-.037-.126-.074-.186-.116-.005,0,0,0-.005-.005a.144.144,0,0,1-.024-.018,1.1,1.1,0,0,1-.084-.076,1.191,1.191,0,0,0-.515-.31.172.172,0,0,0-.037,0,.465.465,0,0,0-.467-.008c-.016.008-.034.008-.047.018a.47.47,0,0,0-.15.147A9.68,9.68,0,0,0,6.769,6.177a.478.478,0,0,0-.047.36.49.49,0,0,0,.215.281.465.465,0,0,0,.567-.1.381.381,0,0,0,.181-.108c.063-.068.116-.142.176-.213.089.691.242,1.686-.368,2.15a3.129,3.129,0,0,1-1.1.41c-.281.071-.564.121-.848.179-.018-1.058-.089-2.114-.181-3.169.27-.058.538-.134.806-.218A.48.48,0,0,0,6.5,5.179a.469.469,0,0,0-.522-.328.45.45,0,0,0-.257-.016c-.15.034-.3.071-.452.108-.008-.071-.011-.139-.018-.2-.005-.165-.011-.328-.013-.491.123-.089.273-.207.383-.3a1.626,1.626,0,0,0,.192-.21c.108-.084.218-.163.315-.244.021-.018.045-.039.066-.06a3.817,3.817,0,0,0,.42-.536.79.79,0,0,0,.076-.129,4.483,4.483,0,0,0,.265-.638,4.015,4.015,0,0,0,.1-.685.878.878,0,0,0,.005-.165,5.76,5.76,0,0,0-.084-.6C6.968.653,6.963.626,6.955.6A2.708,2.708,0,0,0,6.69-.022a2.646,2.646,0,0,0-.958-.945L5.687-.991c-.155-.074-.354-.155-.515-.218a.8.8,0,0,0-.105-.032,3.6,3.6,0,0,0-.36-.053,2.378,2.378,0,0,0-.386-.042,3.915,3.915,0,0,0-.74.095,1.263,1.263,0,0,0-.221.068,4.265,4.265,0,0,0-.654.289,4.575,4.575,0,0,0-.585.444A1.09,1.09,0,0,0,1.974-.3,4.01,4.01,0,0,0,1.528.29a.739.739,0,0,0-.055.1c-.087.181-.165.375-.239.564a3.149,3.149,0,0,0-.129.754,1.047,1.047,0,0,0-.005.2,4.988,4.988,0,0,0,.084.622,1.127,1.127,0,0,0,.034.116,2.943,2.943,0,0,0,.735,1.21,2.77,2.77,0,0,0,1.226.7.543.543,0,0,0,.058.011c.1.018.218.037.336.053.005.045.013.092.018.139,0,.155.013.31.018.465a9.442,9.442,0,0,0-1,.218.425.425,0,0,0-.32.488.438.438,0,0,0,0,.218.476.476,0,0,0,.572.326l.788-.173c.045,1.048.105,2.09.2,3.135a8.221,8.221,0,0,1-2.024.066C1.082,9.417.769,8.64.475,8.041.462,8.017.438,8,.423,7.975c.344.066.688.134,1.032.2a.475.475,0,0,0,.575-.326A.48.48,0,0,0,1.7,7.272,19.046,19.046,0,0,0-.612,6.644a.321.321,0,0,0-.071,0,.265.265,0,0,0-.06-.032.5.5,0,0,0-.454.137.461.461,0,0,0-.249.444c-.184.659-.341,1.323-.465,2a.474.474,0,0,0,.326.575.479.479,0,0,0,.572-.326C-1,9.39-.99,9.343-.977,9.3a3.513,3.513,0,0,0,2.182,1.993,3.8,3.8,0,0,0,.667.087.48.48,0,0,0,.239.081c.53.021,1.071.034,1.609.024,0,.011,0,.024,0,.034.016.034.032.074.047.11a.5.5,0,0,0,.165.165.449.449,0,0,0-.037-.029,7.291,7.291,0,0,1,.7.635c.018.029.039.055.058.081a.487.487,0,0,0,.257.2.45.45,0,0,0,.341.242.467.467,0,0,0,.509-.333c.163-.478.31-.958.452-1.439A5.934,5.934,0,0,0,7.8,10.472a3.537,3.537,0,0,0,1.071-.654,4.025,4.025,0,0,0,.843-3.571A.971.971,0,0,0,9.672,6.1l.024.013a1.514,1.514,0,0,0,.641.155.468.468,0,0,0,.121-.919" transform="translate(1.922 1.335)" fill="#fff"/>
    </g>
  </g>
</svg>
