<svg xmlns="http://www.w3.org/2000/svg" xmlns:xlink="http://www.w3.org/1999/xlink" width="66.198" height="40" viewBox="0 0 66.198 40">
  <defs>
    <clipPath id="clip-path">
      <path id="Caminho_3872" data-name="Caminho 3872" d="M456.664-189.626h66.2v-40h-66.2Z" transform="translate(0 0)" fill="none"/>
    </clipPath>
  </defs>
  <g id="alfabeto_m_e002_fim" transform="translate(-456.664 229.626)" clip-path="url(#clip-path)">
    <g id="Grupo_2681" data-name="Grupo 2681" transform="translate(456.921 -229.005)">
      <path id="Caminho_3863" data-name="Caminho 3863" d="M40.681,0c-1.3.138-2.6.278-3.9.413A2.16,2.16,0,0,0,36.617.7,2.193,2.193,0,0,0,36.179.47c-2.158.215-4.325.393-6.486.47A220.05,220.05,0,0,0-19.578,12.507a2.585,2.585,0,0,0-1.791,2.376,2.991,2.991,0,0,0-.387,1.232,17.294,17.294,0,0,0,2.68,10,34.7,34.7,0,0,0,5.824,7.664c5.23,5.01,12.636,5.6,19.54,5.377a98.438,98.438,0,0,0,11.381-1.115,37.513,37.513,0,0,0,10.016-2.789A26.815,26.815,0,0,0,40.36,22.988,27.093,27.093,0,0,0,41.272.931,3.259,3.259,0,0,0,40.681,0" transform="translate(21.802)" fill="#46ac46"/>
    </g>
    <g id="Grupo_2682" data-name="Grupo 2682" transform="translate(458.672 -229.041)">
      <path id="Caminho_3864" data-name="Caminho 3864" d="M37.664.272c-.759-1-2.462-.014-1.7,1,3.631,4.815,3.287,11.237.857,16.516a30.772,30.772,0,0,1-4.812,7.423,17.862,17.862,0,0,1-7.325,4.729,68.329,68.329,0,0,1-8.859,2.832,29.561,29.561,0,0,1-3.239.533.966.966,0,0,0-.714-.149c-.817.143-1.639.261-2.462.358-1.123.023-2.247.009-3.367-.063a54.986,54.986,0,0,1-9.332-1.539c-1.625-.4-3.279-.825-4.9-1.344a.965.965,0,0,0-.355-1.677,22.849,22.849,0,0,1-3.267-.969,5.982,5.982,0,0,1-2.187-1.742,15.948,15.948,0,0,1-3-5.1,1,1,0,0,0-1.181-.7,36.246,36.246,0,0,1-.052-6.964c.075-1.275-1.98-1.275-1.963,0,.066,5.173,1.218,11.653,5.563,15.591a11.308,11.308,0,0,0,3.224,2.5,17.61,17.61,0,0,0,3.425,1.952,33.881,33.881,0,0,0,6.655,1.393,47.843,47.843,0,0,0,6.566.874,29.763,29.763,0,0,0,4.316-.235,35.768,35.768,0,0,0,4.525-.37,54.568,54.568,0,0,0,9.965-2.843,22.78,22.78,0,0,0,8.294-4.56,29.476,29.476,0,0,0,5.617-7.8c3.15-6.09,4.05-13.883-.3-19.652" transform="translate(20.185 0.146)" fill="#9ad58c"/>
    </g>
    <g id="Grupo_2683" data-name="Grupo 2683" transform="translate(459.166 -228.781)">
      <path id="Caminho_3865" data-name="Caminho 3865" d="M36.736,0c-1.169.12-7.97.759-9.922.825A203.528,203.528,0,0,0-17.68,10.977,2.284,2.284,0,0,0-19.3,13.063a2.567,2.567,0,0,0-.347,1.08,14.855,14.855,0,0,0,2.419,8.776,30.524,30.524,0,0,0,5.259,6.726c4.723,4.4,11.409,4.918,17.646,4.717a91.536,91.536,0,0,0,10.277-.977A34.772,34.772,0,0,0,25,30.938,23.912,23.912,0,0,0,36.444,20.176,23.157,23.157,0,0,0,37.272.817,2.822,2.822,0,0,0,36.736,0" transform="translate(19.688)" fill="#ff6e88"/>
    </g>
    <g id="Grupo_2684" data-name="Grupo 2684" transform="translate(468.585 -214.39)">
      <path id="Caminho_3866" data-name="Caminho 3866" d="M2.649,1.273a.143.143,0,0,0-.023-.023c-.009-.011-.02-.023-.029-.034-.023-.032-.046-.063-.069-.1s-.057-.092-.083-.14c.043.075,0,0-.017-.034C2.348.769,2.279.585,2.2.408a2.075,2.075,0,0,0-.84-1.04.484.484,0,0,0-.493.04Q-.171.224-1.212,1.035a.506.506,0,0,0-.123.685.494.494,0,0,0,.682.123l.258-.2A.441.441,0,0,0-.309,1.7,1.447,1.447,0,0,0,.554,1.8a7.072,7.072,0,0,1,1.562.289.491.491,0,0,0,.533-.814" transform="translate(1.42 0.682)" fill="#2b2e34"/>
    </g>
    <g id="Grupo_2685" data-name="Grupo 2685" transform="translate(475.103 -207.077)">
      <path id="Caminho_3867" data-name="Caminho 3867" d="M2.45.855A.156.156,0,0,0,2.422.844.424.424,0,0,1,2.384.821a.785.785,0,0,1-.1-.066C2.238.724,2.2.689,2.155.658c.066.052,0,0-.029-.029C1.986.494,1.857.348,1.72.211A2.053,2.053,0,0,0,.562-.454a.474.474,0,0,0-.444.215Q-.562.9-1.235,2.028A.5.5,0,0,0-1.1,2.71a.5.5,0,0,0,.682-.129L-.255,2.3a.419.419,0,0,0,.1.026A1.473,1.473,0,0,0,.685,2.1a6.9,6.9,0,0,1,1.565-.3.5.5,0,0,0,.513-.39A.5.5,0,0,0,2.45.855" transform="translate(1.313 0.458)" fill="#2b2e34"/>
    </g>
    <g id="Grupo_2686" data-name="Grupo 2686" transform="translate(498.557 -219.162)">
      <path id="Caminho_3868" data-name="Caminho 3868" d="M2.024.421l-.032,0c-.014,0-.029,0-.04-.006A1.16,1.16,0,0,1,1.835.381C1.78.367,1.729.347,1.68.33c.077.029,0,0-.037-.017C1.468.232,1.3.138,1.124.052A2.045,2.045,0,0,0-.189-.2.481.481,0,0,0-.541.149q-.267,1.294-.53,2.588a.5.5,0,0,0,.347.6.5.5,0,0,0,.6-.35l.066-.318a.478.478,0,0,0,.109-.009,1.49,1.49,0,0,0,.716-.484,7.032,7.032,0,0,1,1.379-.791A.5.5,0,0,0,2.505.851a.5.5,0,0,0-.481-.43" transform="translate(1.085 0.226)" fill="#2b2e34"/>
    </g>
    <g id="Grupo_2687" data-name="Grupo 2687" transform="translate(483.723 -215.582)">
      <path id="Caminho_3869" data-name="Caminho 3869" d="M2.546,1C2.529.987,2.523.984,2.518.984L2.486.959C2.452.933,2.423.907,2.392.878A1.4,1.4,0,0,1,2.277.767c.06.06,0,0-.026-.032C2.128.586,2.016.426,1.9.274a2.028,2.028,0,0,0-1.072-.8.483.483,0,0,0-.467.16l-1.608,2.1a.5.5,0,0,0,.052.694.5.5,0,0,0,.694-.052l.2-.258a.457.457,0,0,0,.1.037,1.444,1.444,0,0,0,.854-.123,7.144,7.144,0,0,1,1.588-.109A.492.492,0,0,0,2.546,1" transform="translate(1.365 0.535)" fill="#2b2e34"/>
    </g>
    <g id="Grupo_2688" data-name="Grupo 2688" transform="translate(507.287 -223.572)">
      <path id="Caminho_3870" data-name="Caminho 3870" d="M1.624.026a.178.178,0,0,1-.032.009l-.04.009c-.04.006-.08.011-.12.014s-.106.006-.163.006c.086,0,0,0-.04,0C1.037.049.845.02.65,0A2.058,2.058,0,0,0-.665.238a.478.478,0,0,0-.2.45L-.439,3.3A.5.5,0,0,0,.1,3.731a.491.491,0,0,0,.436-.539L.487,2.872a.942.942,0,0,0,.095-.046,1.466,1.466,0,0,0,.5-.711A6.962,6.962,0,0,1,2.083.885.5.5,0,0,0,2.229.255a.5.5,0,0,0-.6-.229" transform="translate(0.871 0.014)" fill="#2b2e34"/>
    </g>
    <g id="Grupo_2689" data-name="Grupo 2689" transform="translate(495.749 -208.346)">
      <path id="Caminho_3871" data-name="Caminho 3871" d="M2.052.442H2.02L1.98.434,1.863.4C1.811.382,1.76.365,1.711.345c.077.032,0,0-.037-.017C1.5.245,1.332.144,1.158.058A2.032,2.032,0,0,0-.149-.214.481.481,0,0,0-.507.127L-1.086,2.7a.507.507,0,0,0,.335.608.5.5,0,0,0,.608-.338l.075-.318c.032,0,.069,0,.106-.006a1.468,1.468,0,0,0,.725-.473,7.018,7.018,0,0,1,1.4-.765.5.5,0,0,0,.367-.53A.5.5,0,0,0,2.052.442" transform="translate(1.1 0.237)" fill="#2b2e34"/>
    </g>
  </g>
</svg>
