<svg xmlns="http://www.w3.org/2000/svg" xmlns:xlink="http://www.w3.org/1999/xlink" width="38.598" height="40" viewBox="0 0 38.598 40">
  <defs>
    <clipPath id="clip-path">
      <path id="Caminho_3851" data-name="Caminho 3851" d="M384.946-195.495h38.6v-40h-38.6Z" transform="translate(0 0)" fill="none"/>
    </clipPath>
  </defs>
  <g id="alfabeto_k_e002_fim" transform="translate(-384.946 235.495)" clip-path="url(#clip-path)">
    <g id="Grupo_2650" data-name="Grupo 2650" transform="translate(386.972 -230.977)">
      <path id="Caminho_3832" data-name="Caminho 3832" d="M16.9,1.974C15.1-2.83,10.4-3.012,5.916.339,3.346,2.26,1.575,4.9-.5,7.286c-2.5,2.869-5.615,4.778-8.351,7.356a9.907,9.907,0,0,0-2.623,4.237,3.079,3.079,0,0,0-4.291,1.584,2.629,2.629,0,0,0-.418,3.349c5.825,9.731,22.262,8.272,29.834,1.3a16.09,16.09,0,0,0,3.218-4.126,16.143,16.143,0,0,0,3.022-9.743c-.077-3.843-.92-6.9-2.99-9.271" transform="translate(16.606 1.94)" fill="#f28e34"/>
    </g>
    <g id="Grupo_2651" data-name="Grupo 2651" transform="translate(385.135 -235.212)">
      <path id="Caminho_3833" data-name="Caminho 3833" d="M18.26,7.566a15.211,15.211,0,0,0-.89-5.6c-.024-.167-.042-.333-.071-.5-.4-2.5-1.221-3.375-3.065-4.941a2.8,2.8,0,0,0-1.717-.648A15.889,15.889,0,0,0,6.881-6.532a16.52,16.52,0,0,0-8.788-.549,19,19,0,0,0-2.77.825l-.212.077c-.129.05-.256.1-.381.159-.357.143-.708.3-1.051.478-.155.079-.307.161-.46.244-.137.075-.276.151-.412.232a18.116,18.116,0,0,0-5.2,4.414c-3.287,2.445-4.731,6.236-5.078,10.243a13.782,13.782,0,0,0-.232,6.079,12.537,12.537,0,0,0,2.179,7.364c2.841,4.092,7.6,4.842,12.232,4.041a34.882,34.882,0,0,0,12.66-4.854,16.791,16.791,0,0,0,7.582-10.237A8.25,8.25,0,0,0,18.26,7.566" transform="translate(17.945 7.436)" fill="#85c957"/>
    </g>
    <g id="Grupo_2652" data-name="Grupo 2652" transform="translate(394.436 -226.798)">
      <path id="Caminho_3834" data-name="Caminho 3834" d="M7.538,3.494a8.1,8.1,0,0,0-.3-1.366C7.409.1,6.434-2.2,4.657-2.9a7.5,7.5,0,0,0-8.5,2.139c-2.1,2.28-2.893,5.246-3.486,8.332a5.013,5.013,0,0,0,2.57,5.248,8.283,8.283,0,0,0,8.373-.95A9.393,9.393,0,0,0,7.538,3.494" transform="translate(7.408 3.434)" fill="#9ad58c"/>
    </g>
    <g id="Grupo_2653" data-name="Grupo 2653" transform="translate(397.239 -223.701)">
      <path id="Caminho_3835" data-name="Caminho 3835" d="M4.795,2.223a5.065,5.065,0,0,0-.19-.87,3.172,3.172,0,0,0-1.642-3.2A4.773,4.773,0,0,0-2.444-.481a10.364,10.364,0,0,0-2.217,5.3A3.185,3.185,0,0,0-3.026,8.156a5.265,5.265,0,0,0,5.324-.6,5.976,5.976,0,0,0,2.5-5.33" transform="translate(4.712 2.184)" fill="#d9ecc4"/>
    </g>
    <g id="Grupo_2654" data-name="Grupo 2654" transform="translate(404.029 -228.871)">
      <path id="Caminho_3836" data-name="Caminho 3836" d="M.921.339a.694.694,0,0,0-.712-.67.713.713,0,0,0-.67.714C-.465.5-.476.607-.486.72A8.937,8.937,0,0,1-.879,2.544a.7.7,0,0,0,.51.835.708.708,0,0,0,.833-.51A9.64,9.64,0,0,0,.921.339" transform="translate(0.905 0.333)" fill="#2b2e34"/>
    </g>
    <g id="Grupo_2655" data-name="Grupo 2655" transform="translate(408.397 -218.066)">
      <path id="Caminho_3837" data-name="Caminho 3837" d="M1.445,1.087A.7.7,0,0,0,2.212.478.711.711,0,0,0,1.6-.289c-.111-.02-.22-.046-.331-.073A9.014,9.014,0,0,1-.475-1.013a.7.7,0,0,0-.9.383.709.709,0,0,0,.383.9,9.822,9.822,0,0,0,2.437.817" transform="translate(1.42 1.068)" fill="#2b2e34"/>
    </g>
    <g id="Grupo_2656" data-name="Grupo 2656" transform="translate(408.45 -226.118)">
      <path id="Caminho_3838" data-name="Caminho 3838" d="M1.626.6a.692.692,0,0,0,.042-.976A.709.709,0,0,0,.691-.419q-.136.1-.272.2a8.966,8.966,0,0,1-1.64.892.7.7,0,0,0-.3.93.714.714,0,0,0,.932.3A9.831,9.831,0,0,0,1.626.6" transform="translate(1.597 0.592)" fill="#2b2e34"/>
    </g>
    <g id="Grupo_2657" data-name="Grupo 2657" transform="translate(407.992 -212.011)">
      <path id="Caminho_3839" data-name="Caminho 3839" d="M.695,1.179a.53.53,0,0,0,.74-.1.539.539,0,0,0-.1-.738C1.272.281,1.211.221,1.151.162A7.078,7.078,0,0,1,.259-.952a.529.529,0,0,0-.738-.1.543.543,0,0,0-.1.74A7.636,7.636,0,0,0,.695,1.179" transform="translate(0.683 1.159)" fill="#2b2e34"/>
    </g>
    <g id="Grupo_2658" data-name="Grupo 2658" transform="translate(391.351 -219.567)">
      <path id="Caminho_3840" data-name="Caminho 3840" d="M1.445,1.087A.7.7,0,0,0,2.21.478.711.711,0,0,0,1.6-.289c-.111-.02-.22-.046-.329-.073A9.033,9.033,0,0,1-.477-1.013a.693.693,0,0,0-.9.383.709.709,0,0,0,.383.9,9.794,9.794,0,0,0,2.437.817" transform="translate(1.42 1.068)" fill="#2b2e34"/>
    </g>
    <g id="Grupo_2659" data-name="Grupo 2659" transform="translate(395.885 -228.812)">
      <path id="Caminho_3841" data-name="Caminho 3841" d="M.491,1.664a.7.7,0,0,0,.958.192A.707.707,0,0,0,1.641.9c-.054-.1-.1-.2-.155-.3A9.062,9.062,0,0,1,.856-1.159.694.694,0,0,0-.017-1.6a.708.708,0,0,0-.44.874A9.756,9.756,0,0,0,.491,1.664" transform="translate(0.483 1.635)" fill="#2b2e34"/>
    </g>
    <g id="Grupo_2660" data-name="Grupo 2660" transform="translate(395.708 -211.369)">
      <path id="Caminho_3842" data-name="Caminho 3842" d="M1.124.4A.7.7,0,0,0,.541-.388.711.711,0,0,0-.244.2C-.27.306-.3.415-.329.524a9.247,9.247,0,0,1-.712,1.725.693.693,0,0,0,.353.91.707.707,0,0,0,.912-.353A9.752,9.752,0,0,0,1.124.4" transform="translate(1.104 0.392)" fill="#2b2e34"/>
    </g>
    <g id="Grupo_2661" data-name="Grupo 2661" transform="translate(407.743 -225.626)">
      <path id="Caminho_3843" data-name="Caminho 3843" d="M4.783.309a.819.819,0,0,0-1-.569L-4.1,2.954a.84.84,0,0,0-.569,1,.818.818,0,0,0,1,.569q3.94-1.6,7.883-3.212a.842.842,0,0,0,.569-1" transform="translate(4.701 0.303)" fill="#d9ecc4"/>
    </g>
    <g id="Grupo_2662" data-name="Grupo 2662" transform="translate(399.694 -231.356)">
      <path id="Caminho_3844" data-name="Caminho 3844" d="M.822.411A.827.827,0,0,0,.007-.4.829.829,0,0,0-.808.411q.091,2.712.295,5.415A.831.831,0,0,0,.3,6.642a.825.825,0,0,0,.815-.815Q.911,3.124.822.411" transform="translate(0.808 0.404)" fill="#d9ecc4"/>
    </g>
    <g id="Grupo_2663" data-name="Grupo 2663" transform="translate(390.381 -214.705)">
      <path id="Caminho_3845" data-name="Caminho 3845" d="M3.181.2A.838.838,0,0,0,2.067-.1,27.11,27.11,0,0,0-2.888,2.972a.815.815,0,0,0,0,1.152.84.84,0,0,0,1.152,0c-.071.054.153-.115.18-.135l.278-.206c.188-.135.375-.268.565-.4Q-.141,2.99.449,2.629A26.3,26.3,0,0,1,2.889,1.313.821.821,0,0,0,3.181.2" transform="translate(3.126 0.194)" fill="#d9ecc4"/>
    </g>
    <g id="Grupo_2664" data-name="Grupo 2664" transform="translate(398.113 -212.286)">
      <path id="Caminho_3846" data-name="Caminho 3846" d="M1.182,0A.834.834,0,0,0,.367.813,42.948,42.948,0,0,1-1.126,8.5.816.816,0,0,0,.446,8.93,45.319,45.319,0,0,0,2,.813.82.82,0,0,0,1.182,0" transform="translate(1.162)" fill="#d9ecc4"/>
    </g>
    <g id="Grupo_2665" data-name="Grupo 2665" transform="translate(403.585 -213.113)">
      <path id="Caminho_3847" data-name="Caminho 3847" d="M1.607,2.408A18.319,18.319,0,0,1,.666.342C.513-.065.459-.226.34-.608.229-.969.132-1.334.041-1.7a.825.825,0,0,0-.954-.644.824.824,0,0,0-.646.952,19.482,19.482,0,0,0,1.7,4.525A.828.828,0,0,0,1.237,3.5a.83.83,0,0,0,.369-1.094" transform="translate(1.579 2.367)" fill="#d9ecc4"/>
    </g>
    <g id="Grupo_2666" data-name="Grupo 2666" transform="translate(406.177 -229.711)">
      <path id="Caminho_3848" data-name="Caminho 3848" d="M2.171.119a.825.825,0,0,0-1.152,0L-1.9,3.769a.879.879,0,0,0-.238.575.828.828,0,0,0,.238.575.823.823,0,0,0,1.154,0Q.714,3.1,2.171,1.271A.888.888,0,0,0,2.41.7.833.833,0,0,0,2.171.119" transform="translate(2.134 0.117)" fill="#d9ecc4"/>
    </g>
    <g id="Grupo_2667" data-name="Grupo 2667" transform="translate(390.828 -225.454)">
      <path id="Caminho_3849" data-name="Caminho 3849" d="M3.224,1.459A32.678,32.678,0,0,0-2.141-1.392a.818.818,0,0,0-1,.571.84.84,0,0,0,.569,1A31.245,31.245,0,0,1,2.4,2.865a.82.82,0,0,0,1.116-.293.834.834,0,0,0-.293-1.114" transform="translate(3.168 1.434)" fill="#d9ecc4"/>
    </g>
    <g id="Grupo_2668" data-name="Grupo 2668" transform="translate(407.371 -215.803)">
      <path id="Caminho_3850" data-name="Caminho 3850" d="M2.849,1.136Q.583.17-1.581-1.013A.828.828,0,0,0-2.7-.72.827.827,0,0,0-2.4.4Q-.244,1.572,2.028,2.542a.839.839,0,0,0,1.116-.291.827.827,0,0,0-.295-1.116" transform="translate(2.8 1.116)" fill="#d9ecc4"/>
    </g>
  </g>
</svg>
