<svg xmlns="http://www.w3.org/2000/svg" xmlns:xlink="http://www.w3.org/1999/xlink" width="44.853" height="43.013" viewBox="0 0 44.853 43.013">
  <defs>
    <clipPath id="clip-path">
      <rect id="Retângulo_337" data-name="Retângulo 337" width="44.853" height="43.013" transform="translate(0 0)" fill="none"/>
    </clipPath>
    <clipPath id="clip-path-2">
      <path id="Caminho_4036" data-name="Caminho 4036" d="M0,13.794a36.633,36.633,0,0,1,.483,4.74c.2,4.155.325,6.377.566,10.54q.5,4.191,1.017,8.381a2.816,2.816,0,0,0,.28.155A2.267,2.267,0,0,0,4.3,39.438c5.626,1.144,11.562.359,17.163,1.585,5.069,1.11,10,2.465,15.26,1.825a3.167,3.167,0,0,0,1.043-.313c.15-1.088.3-2.176.464-3.265.354-2.351.58-3.375.966-5.722.437-5.349.709-8.754.807-14.121a2.436,2.436,0,0,0-.188-1,1.793,1.793,0,0,0,.025-1.159c-.523-.342-1.05-.68-1.573-1.022-.805-.035-1.608-.069-2.4-.116q-6.707-.4-13.4-.9-6.3-.465-12.6-1.015c-3.184-.278-6.452-.782-9.685-.911-.057.161-.12.322-.173.483" fill="none"/>
    </clipPath>
  </defs>
  <g id="alfabeto_q_e002_fim" transform="translate(0 0)">
    <g id="Grupo_2849" data-name="Grupo 2849">
      <g id="Grupo_2848" data-name="Grupo 2848" clip-path="url(#clip-path)">
        <path id="Caminho_4030" data-name="Caminho 4030" d="M39.811,18.433a1.787,1.787,0,0,0,.026-1.159C34.2,13.581,28.481,10.009,22.894,6.25a97.557,97.557,0,0,0-8.416-5.157C13.816.739,13.146.378,12.485,0A23.813,23.813,0,0,0,0,13.794a36.668,36.668,0,0,1,.483,4.74c.2,4.156.325,6.378.566,10.541q.5,4.191,1.016,8.38a2.648,2.648,0,0,0,.281.156A2.267,2.267,0,0,0,4.3,39.439c5.625,1.143,11.562.359,17.162,1.585,5.069,1.11,10,2.465,15.261,1.825a3.191,3.191,0,0,0,1.043-.313c.149-1.088.3-2.176.463-3.265.354-2.352.581-3.375.967-5.722C39.629,28.2,39.9,24.8,40,19.427a2.415,2.415,0,0,0-.188-.994" fill="#ffbe00"/>
        <path id="Caminho_4031" data-name="Caminho 4031" d="M22.457,15.238q-6.3-.466-12.6-1.015c-3.183-.278-6.451-.782-9.685-.911-.057.161-.12.321-.173.482a36.668,36.668,0,0,1,.483,4.74c.2,4.156.325,6.378.567,10.541q.5,4.191,1.015,8.38a2.765,2.765,0,0,0,.282.156A2.266,2.266,0,0,0,4.3,39.439c5.626,1.143,11.562.359,17.162,1.585,5.07,1.11,10,2.465,15.261,1.825a3.191,3.191,0,0,0,1.043-.313c.15-1.088.3-2.176.463-3.265.355-2.352.581-3.375.967-5.722C39.629,28.2,39.9,24.8,40,19.427a2.432,2.432,0,0,0-.189-.994,1.774,1.774,0,0,0,.026-1.159c-.523-.343-12.915-1.706-17.38-2.036" fill="#ffd400"/>
      </g>
    </g>
    <g id="Grupo_2851" data-name="Grupo 2851">
      <g id="Grupo_2850" data-name="Grupo 2850" clip-path="url(#clip-path-2)">
        <path id="Caminho_4032" data-name="Caminho 4032" d="M16.373,35.213A3.344,3.344,0,0,0,15.2,31.668a3.031,3.031,0,0,0-.37-.244,1.043,1.043,0,0,0,.239-.177.994.994,0,0,0,.152-.207,1.089,1.089,0,0,0,.08-.205.233.233,0,0,0,.008-.038,1.2,1.2,0,0,0-.047-.616,2.005,2.005,0,0,0-.13-.273.868.868,0,0,0-.066-.1c-.023-.031-.05-.061-.075-.091h0l0,0c-.023-.028-.045-.056-.071-.082a.831.831,0,0,0-.155-.147,1.719,1.719,0,0,0-.219-.132,1.471,1.471,0,0,0-.149-.093,1.837,1.837,0,0,0-.869-.172,2.507,2.507,0,0,0-.311.046.7.7,0,0,0-.126.036,1.694,1.694,0,0,0-.307.138,1.537,1.537,0,0,0-.212.164l-.028.028a1.162,1.162,0,0,0-.14.188.925.925,0,0,0-.055.787,2.053,2.053,0,0,0,.15.286,1.6,1.6,0,0,0-.632.09,3.38,3.38,0,0,0-2.3,2.518c0,.017-.006.035-.01.052a2.967,2.967,0,0,0-.03.3,2.574,2.574,0,0,0,.06.863,1.444,1.444,0,0,0,.154.361,3.686,3.686,0,0,0,2.684,2.174c1.62.352,3.479-.341,3.952-1.9" fill="#eeac00"/>
        <path id="Caminho_4033" data-name="Caminho 4033" d="M37.882,22.6a8.827,8.827,0,0,0-2.223.955,3.1,3.1,0,0,0-1.515-1.707,3.493,3.493,0,0,0-2.328-.259,3.846,3.846,0,0,0-.518.061,5.055,5.055,0,0,0-2.07,1.034,3,3,0,0,0-.172,4.552,4.434,4.434,0,0,0,4.251.749,5.02,5.02,0,0,0,1.826,3.025,3.374,3.374,0,0,0,1.175.6c3.159,1.239,7.531.121,8.4-3.218.967-3.73-2.957-6.83-6.822-5.787" fill="#eeac00"/>
        <path id="Caminho_4034" data-name="Caminho 4034" d="M15.214,22.833A2.542,2.542,0,0,0,14.5,21.7a2.835,2.835,0,0,0-1.229-.662,4.488,4.488,0,0,0-1.12-.11l-.129.012c-.053-.007-.1-.009-.157-.013a3,3,0,0,0-.419-2.1,3.783,3.783,0,0,0-2.315-1.549,4.005,4.005,0,0,0-3.775,1.066c-.043.033-.09.061-.132.1A2.866,2.866,0,0,0,5.29,22.9a2.859,2.859,0,0,0,2.491,1.431,3.285,3.285,0,0,0,.85-.154,2.273,2.273,0,0,0,.075.359,2.98,2.98,0,0,0,.834,1.324,3.551,3.551,0,0,0,1.4.745l.37.046c.142.021.285.038.428.052a3.453,3.453,0,0,0,.427-.048,2.772,2.772,0,0,0,1.173-.341l.016-.01c.072-.031.138-.062.186-.088A3.044,3.044,0,0,0,13.867,26a2.844,2.844,0,0,0,.5-.362,2.974,2.974,0,0,0,.826-1.262,2.819,2.819,0,0,0,.023-1.548" fill="#eeac00"/>
        <path id="Caminho_4035" data-name="Caminho 4035" d="M31.537,36.872a2.7,2.7,0,0,0-.058-.378,2.1,2.1,0,0,0-.155-.362.6.6,0,0,0-.053-.091c-.063-.087-.136-.17-.208-.251-.012-.014-.025-.028-.038-.041a1.607,1.607,0,0,0-.188-.143,1.39,1.39,0,0,0-.213-.139,3.346,3.346,0,0,0-.364-.142.922.922,0,0,0-.1-.024,2.783,2.783,0,0,0-.409-.047,2.509,2.509,0,0,0-.407.044.673.673,0,0,0-.1.021c-.062.019-.129.049-.187.071l-.063.026a2.684,2.684,0,0,0-.416-.47,3.994,3.994,0,0,0-2.177-.917,3.886,3.886,0,0,0-2.376.4,3.321,3.321,0,0,0-1.591,1.9,2.948,2.948,0,0,0,.366,2.4,3.168,3.168,0,0,0,1.135,1.047,2.883,2.883,0,0,0,.624.252,3.308,3.308,0,0,0,4.47-1.32,1.93,1.93,0,0,0,.472.052,1.126,1.126,0,0,0,.115-.007,3.644,3.644,0,0,0,.43-.059c.038-.009.074-.02.111-.032a3.777,3.777,0,0,0,.381-.152.923.923,0,0,0,.1-.061,2.948,2.948,0,0,0,.32-.234,1.5,1.5,0,0,0,.164-.184,1.529,1.529,0,0,0,.162-.206,2.881,2.881,0,0,0,.159-.343.8.8,0,0,0,.035-.108,2.877,2.877,0,0,0,.056-.38.7.7,0,0,0,0-.121" fill="#eeac00"/>
      </g>
    </g>
  </g>
</svg>
