<svg xmlns="http://www.w3.org/2000/svg" xmlns:xlink="http://www.w3.org/1999/xlink" width="30.416" height="30" viewBox="0 0 30.416 30">
  <defs>
    <clipPath id="clip-path">
      <path id="Caminho_3375" data-name="Caminho 3375" d="M0,15.006H30.416v-30H0Z" transform="translate(0 14.994)" fill="none"/>
    </clipPath>
  </defs>
  <g id="ico_e002_calculo_mental" transform="translate(0 14.994)">
    <g id="Grupo_2190" data-name="Grupo 2190" transform="translate(0 -14.994)" clip-path="url(#clip-path)">
      <g id="Grupo_2184" data-name="Grupo 2184" transform="translate(0 0.8)">
        <path id="Caminho_3369" data-name="Caminho 3369" d="M4.642,2.775c-4.836.216-4.9,7.395-.33,7.819,5.8.54,5.736-8.059.33-7.819m3.617-4.93L8.207.74l1.022.68L11.847.312l1.639,2.5-.06.216-1.987,1.9.288,1.17,2.615,1.04-.618,2.991c-.65-.01-1.309.028-1.961.008-.286-.01-.818-.15-1.066.056a6.021,6.021,0,0,0-.564.964L11.2,13.776,8.749,15.352c-.094.036-.144-.014-.214-.062-.578-.388-1.23-1.545-1.761-1.853-.362-.212-.944.054-1.341.09L4.42,16.2l-3.061-.62c-.04-.874.162-1.771.072-2.649-.05-.5-.66-.658-1.04-.928l-2.649,1.124L-3.848,10.6l.04-.2,2-1.913-.242-1.178L-4.638,6.283l.6-3.023,2.727.088c.238-.026.7-.834.812-1.092L-1.565-.388.962-1.983,2.845-.01A2.416,2.416,0,0,0,4.2-.2c.376-.376.678-2.109,1.122-2.573Z" transform="translate(4.638 2.773)" fill="#b43fa0"/>
      </g>
      <g id="Grupo_2185" data-name="Grupo 2185" transform="translate(17.374 11.126)">
        <path id="Caminho_3370" data-name="Caminho 3370" d="M3.141,1.84c-3.409.048-3.421,5.34.132,5.24,3.393-.1,3.249-5.288-.132-5.24m5.85,5.118L7.264,6.822c-.208.01-.544.53-.646.722l.69,1.807c-.532.092-1.253.852-1.687.97-.058.016-.1.052-.158,0L4.371,8.985a1.523,1.523,0,0,0-.944.138c-.178.166-.654,1.629-.736,1.689L.7,10.35l.08-1.961-.724-.48-1.737.672-.99-1.669-.006-.164,1.359-1.1L-1.453,4.7l-1.685-.774.46-1.947,1.955.078C.179,1.3-.815.5-.907-.4L.772-1.379,2.116.02l.792-.14.784-1.715A13.058,13.058,0,0,1,5.565-1.4c.076.042.138.068.126.172C5.664-.883,5.443.418,5.618.626a5.224,5.224,0,0,0,.638.412L8,.394,9.063,2.089,7.634,3.4c.082.274,0,.628.216.834.242.224,1.533.556,1.6.784Z" transform="translate(3.138 1.839)" fill="#b43fa0"/>
      </g>
      <g id="Grupo_2186" data-name="Grupo 2186" transform="translate(11.685 21.355)">
        <path id="Caminho_3371" data-name="Caminho 3371" d="M2.1,1.261A1.812,1.812,0,0,0,1.87,4.834c2.657.456,2.881-3.683.232-3.573M3.812-.988c-.05.322-.186,1.1-.006,1.351.42.584,1.108-.172,1.647-.2l.728,1.12c-.192.3-.9.736-.914,1.072-.024.644.864.642,1.311.892l-.3,1.335c-.106.16-1.074-.1-1.4.154-.512.4.214,1.04.23,1.531A7.276,7.276,0,0,1,4.062,7c-.232.058-.65-.678-.9-.842a1.563,1.563,0,0,0-.642.018c-.074.046-.348,1.156-.522,1.214L.663,7.157C.6,6.819.775,5.977.581,5.739.193,5.263-.535,5.909-.986,6a8.242,8.242,0,0,1-.708-1.068c-.084-.3.882-.85.888-1.032a1.565,1.565,0,0,0-.148-.546A6.675,6.675,0,0,0-2.1,2.926l.334-1.435,1.257.04.3-.482-.474-1.2L.425-.882c.164-.044.734.91.962.94a3.762,3.762,0,0,0,.56-.142c.106-.1.318-1.086.476-1.176Z" transform="translate(2.1 1.26)" fill="#b43fa0"/>
      </g>
      <g id="Grupo_2187" data-name="Grupo 2187" transform="translate(0.452 -0.001)">
        <path id="Caminho_3372" data-name="Caminho 3372" d="M4.642,2.775c-4.836.216-4.9,7.395-.33,7.819,5.8.54,5.736-8.059.33-7.819m3.617-4.93L8.207.74l1.022.68L11.847.312l1.639,2.5-.06.216-1.987,1.9.288,1.17,2.615,1.04-.618,2.991c-.65-.01-1.309.028-1.961.008-.286-.01-.748-.208-.994,0a7.014,7.014,0,0,0-.636,1.024L11.2,13.776,8.749,15.352c-.094.036-.144-.014-.214-.062-.578-.388-1.23-1.545-1.761-1.853-.362-.212-.878.038-1.341.09L4.42,16.2l-3.061-.62c-.04-.874.162-1.771.072-2.649-.05-.5-.66-.658-1.04-.928l-2.649,1.124L-3.848,10.6l.04-.2,2-1.913-.242-1.178L-4.638,6.283l.6-3.023,2.727.088c.238-.026.7-.834.812-1.092L-1.565-.388.962-1.983,2.845-.01A2.416,2.416,0,0,0,4.2-.2c.376-.376.678-2.109,1.122-2.573Z" transform="translate(4.638 2.773)" fill="#ff9147"/>
      </g>
      <g id="Grupo_2188" data-name="Grupo 2188" transform="translate(17.825 10.325)">
        <path id="Caminho_3373" data-name="Caminho 3373" d="M3.141,1.84c-3.409.048-3.421,5.34.132,5.24,3.393-.1,3.249-5.288-.132-5.24m5.85,5.118L7.264,6.822c-.208.01-.544.53-.646.722l.69,1.807c-.532.092-1.253.852-1.687.97-.058.016-.1.052-.158,0L4.371,8.985a1.523,1.523,0,0,0-.944.138c-.178.166-.654,1.629-.736,1.689L.7,10.35l.08-1.961-.724-.48-1.737.672-.99-1.669-.006-.164,1.359-1.1L-1.453,4.7l-1.685-.774.46-1.947,1.955.078C.179,1.3-.815.5-.907-.4l1.679-.98L2.116.02l.792-.14.784-1.715A13.058,13.058,0,0,1,5.565-1.4c.076.042.138.068.126.172C5.664-.883,5.443.418,5.618.626a5.224,5.224,0,0,0,.638.412L8,.394,9.063,2.089,7.634,3.4c.082.274,0,.628.216.834.242.224,1.533.558,1.6.784Z" transform="translate(3.138 1.839)" fill="#35bf9f"/>
      </g>
      <g id="Grupo_2189" data-name="Grupo 2189" transform="translate(12.136 20.554)">
        <path id="Caminho_3374" data-name="Caminho 3374" d="M2.1,1.261A1.812,1.812,0,0,0,1.87,4.834c2.657.456,2.881-3.683.232-3.573M3.812-.988c-.05.322-.186,1.1-.006,1.351.42.584,1.108-.172,1.647-.2l.728,1.12c-.192.3-.9.736-.914,1.072-.024.644.864.642,1.311.892l-.3,1.335c-.106.16-1.074-.1-1.4.154-.512.4.214,1.04.23,1.531A7.276,7.276,0,0,1,4.062,7c-.232.058-.65-.678-.9-.842a1.563,1.563,0,0,0-.642.018c-.074.046-.348,1.156-.522,1.214L.663,7.157C.6,6.819.775,5.977.581,5.739.193,5.263-.535,5.909-.986,6a8.242,8.242,0,0,1-.708-1.068c-.084-.3.882-.85.888-1.032a1.565,1.565,0,0,0-.148-.546A6.675,6.675,0,0,0-2.1,2.926l.334-1.435,1.257.04.3-.482-.474-1.2L.425-.882c.164-.044.734.91.962.94a3.762,3.762,0,0,0,.56-.142c.106-.1.318-1.086.476-1.176Z" transform="translate(2.1 1.26)" fill="#0fbed2"/>
      </g>
    </g>
  </g>
</svg>
