<svg xmlns="http://www.w3.org/2000/svg" width="28.346" height="28.258" viewBox="0 0 28.346 28.258">
  <g id="ico_e002_cartografia" transform="translate(-720.598 -79.258)">
    <g id="Grupo_2094" data-name="Grupo 2094" transform="translate(734.727 102.654)">
      <path id="Caminho_3278" data-name="Caminho 3278" d="M0,0A9.221,9.221,0,0,1-9.221-9.221,9.221,9.221,0,0,1,0-18.441a9.221,9.221,0,0,1,9.221,9.22A9.221,9.221,0,0,1,0,0M0-20.963A11.743,11.743,0,0,0-11.743-9.221,11.743,11.743,0,0,0,0,2.522,11.743,11.743,0,0,0,11.743-9.221,11.743,11.743,0,0,0,0-20.963" fill="#35bf9f"/>
    </g>
    <g id="Grupo_2095" data-name="Grupo 2095" transform="translate(734.771 79.258)">
      <path id="Caminho_3279" data-name="Caminho 3279" d="M0,0-2.975,11.284,0,14.129Z" fill="#ffcb6a"/>
    </g>
    <g id="Grupo_2096" data-name="Grupo 2096" transform="translate(734.771 79.258)">
      <path id="Caminho_3280" data-name="Caminho 3280" d="M0,0,2.975,11.284,0,14.129Z" fill="#b43fa0"/>
    </g>
    <g id="Grupo_2097" data-name="Grupo 2097" transform="translate(748.944 93.4)">
      <path id="Caminho_3281" data-name="Caminho 3281" d="M0,0-11.284-2.975-14.129,0Z" fill="#ffcb6a"/>
    </g>
    <g id="Grupo_2098" data-name="Grupo 2098" transform="translate(748.944 93.4)">
      <path id="Caminho_3282" data-name="Caminho 3282" d="M0,0-11.284,2.975-14.129,0Z" fill="#b43fa0"/>
    </g>
    <g id="Grupo_2099" data-name="Grupo 2099" transform="translate(734.771 107.516)">
      <path id="Caminho_3283" data-name="Caminho 3283" d="M0,0,2.975-11.284,0-14.129Z" fill="#ffcb6a"/>
    </g>
    <g id="Grupo_2100" data-name="Grupo 2100" transform="translate(734.771 107.516)">
      <path id="Caminho_3284" data-name="Caminho 3284" d="M0,0-2.975-11.284,0-14.129Z" fill="#b43fa0"/>
    </g>
    <g id="Grupo_2101" data-name="Grupo 2101" transform="translate(720.598 93.4)">
      <path id="Caminho_3285" data-name="Caminho 3285" d="M0,0,11.284,2.975,14.129,0Z" fill="#ffcb6a"/>
    </g>
    <g id="Grupo_2102" data-name="Grupo 2102" transform="translate(720.598 93.4)">
      <path id="Caminho_3286" data-name="Caminho 3286" d="M0,0,11.284-2.975,14.129,0Z" fill="#b43fa0"/>
    </g>
    <path id="Caminho_3287" data-name="Caminho 3287" d="M0,0H28.346V-28.258H0Z" transform="translate(720.598 107.516)" fill="none"/>
  </g>
</svg>
