<svg xmlns="http://www.w3.org/2000/svg" xmlns:xlink="http://www.w3.org/1999/xlink" width="26.426" height="30" viewBox="0 0 26.426 30">
  <defs>
    <clipPath id="clip-path">
      <path id="Caminho_3313" data-name="Caminho 3313" d="M0,13.91H26.426v-30H0Z" transform="translate(0 16.09)" fill="none"/>
    </clipPath>
  </defs>
  <g id="ico_e002_caderno" transform="translate(0 16.09)">
    <g id="Grupo_2125" data-name="Grupo 2125" transform="translate(0 -16.09)" clip-path="url(#clip-path)">
      <g id="Grupo_2115" data-name="Grupo 2115" transform="translate(0.635 0)">
        <path id="Caminho_3303" data-name="Caminho 3303" d="M1.377,1.123a3.554,3.554,0,0,0-2.92,4.094L1.78,25.052a3.557,3.557,0,0,0,4.1,2.922l14.2-2.372A3.557,3.557,0,0,0,23,21.506L19.673,1.671a3.562,3.562,0,0,0-4.1-2.922Z" transform="translate(1.593 1.299)" fill="#0fbed2"/>
      </g>
      <g id="Grupo_2116" data-name="Grupo 2116" transform="translate(1.787 0.677)">
        <path id="Caminho_3304" data-name="Caminho 3304" d="M1.377,1.123a3.553,3.553,0,0,0-2.92,4.094L1.78,25.053a3.557,3.557,0,0,0,4.1,2.922l14.2-2.372A3.557,3.557,0,0,0,23,21.506L19.673,1.672a3.56,3.56,0,0,0-4.1-2.922Z" transform="translate(1.593 1.299)" fill="#b43fa0"/>
      </g>
      <g id="Grupo_2117" data-name="Grupo 2117" transform="translate(4.033 7.495)">
        <path id="Caminho_3305" data-name="Caminho 3305" d="M1.021,1.74A1.89,1.89,0,0,0,2.572-.436,1.889,1.889,0,0,0,.4-1.987,1.893,1.893,0,0,0-1.155.189,1.888,1.888,0,0,0,1.021,1.74Z" transform="translate(1.181 2.013)" fill="none" stroke="#fff" stroke-width="0.4"/>
      </g>
      <g id="Grupo_2118" data-name="Grupo 2118" transform="translate(4.828 12.244)">
        <path id="Caminho_3306" data-name="Caminho 3306" d="M1.021,1.74A1.89,1.89,0,0,0,2.572-.436,1.889,1.889,0,0,0,.4-1.987,1.892,1.892,0,0,0-1.155.189,1.888,1.888,0,0,0,1.021,1.74Z" transform="translate(1.181 2.013)" fill="none" stroke="#fff" stroke-width="0.4"/>
      </g>
      <g id="Grupo_2119" data-name="Grupo 2119" transform="translate(5.623 16.992)">
        <path id="Caminho_3307" data-name="Caminho 3307" d="M1.021,1.74A1.89,1.89,0,0,0,2.572-.436,1.889,1.889,0,0,0,.4-1.987,1.894,1.894,0,0,0-1.155.191,1.888,1.888,0,0,0,1.021,1.74Z" transform="translate(1.181 2.013)" fill="none" stroke="#fff" stroke-width="0.4"/>
      </g>
      <g id="Grupo_2120" data-name="Grupo 2120" transform="translate(6.417 21.74)">
        <path id="Caminho_3308" data-name="Caminho 3308" d="M1.021,1.74A1.889,1.889,0,0,0,2.572-.436,1.889,1.889,0,0,0,.4-1.987,1.894,1.894,0,0,0-1.155.191,1.887,1.887,0,0,0,1.021,1.74Z" transform="translate(1.181 2.013)" fill="none" stroke="#fff" stroke-width="0.4"/>
      </g>
      <g id="Grupo_2121" data-name="Grupo 2121" transform="translate(-0.001 7.998)">
        <path id="Caminho_3309" data-name="Caminho 3309" d="M.557.376a1.445,1.445,0,1,0,.489,2.849l4.592-.789a1.445,1.445,0,0,0-.49-2.849Z" transform="translate(0.644 0.434)" fill="#ff9147"/>
      </g>
      <g id="Grupo_2122" data-name="Grupo 2122" transform="translate(0.745 12.761)">
        <path id="Caminho_3310" data-name="Caminho 3310" d="M.557.376a1.445,1.445,0,1,0,.489,2.849l4.592-.789a1.445,1.445,0,0,0-.49-2.849Z" transform="translate(0.644 0.434)" fill="#ff9147"/>
      </g>
      <g id="Grupo_2123" data-name="Grupo 2123" transform="translate(1.616 17.574)">
        <path id="Caminho_3311" data-name="Caminho 3311" d="M.557.375a1.446,1.446,0,0,0,.489,2.851l4.592-.789a1.446,1.446,0,0,0-.49-2.851Z" transform="translate(0.644 0.434)" fill="#ff9147"/>
      </g>
      <g id="Grupo_2124" data-name="Grupo 2124" transform="translate(2.385 22.238)">
        <path id="Caminho_3312" data-name="Caminho 3312" d="M.557.376a1.445,1.445,0,1,0,.489,2.849l4.592-.791a1.445,1.445,0,0,0-.49-2.847Z" transform="translate(0.644 0.434)" fill="#ff9147"/>
      </g>
    </g>
  </g>
</svg>
