<svg xmlns="http://www.w3.org/2000/svg" xmlns:xlink="http://www.w3.org/1999/xlink" width="28.458" height="30" viewBox="0 0 28.458 30">
  <defs>
    <clipPath id="clip-path">
      <path id="Caminho_3368" data-name="Caminho 3368" d="M0,15.059H28.458v-30H0Z" transform="translate(0 14.941)" fill="none"/>
    </clipPath>
  </defs>
  <g id="ico_e002_desafio" transform="translate(0 14.941)">
    <g id="Grupo_2182" data-name="Grupo 2182" transform="translate(0 -14.941)" clip-path="url(#clip-path)">
      <g id="Grupo_2135" data-name="Grupo 2135" transform="translate(7.884 3.165)">
        <path id="Caminho_3321" data-name="Caminho 3321" d="M0,1.228,4.092-1.207a.085.085,0,0,1,.1.01L7.748,1.983,3.807,4.8a.143.143,0,0,1-.187-.014Z" transform="translate(0 1.219)" fill="#fff"/>
      </g>
      <g id="Grupo_2136" data-name="Grupo 2136" transform="translate(12.466 0.829)">
        <path id="Caminho_3322" data-name="Caminho 3322" d="M0,1.059l3.321-2.11L6.666,2.037,3.45,4.36Z" transform="translate(0 1.051)" fill="#35bf9f"/>
      </g>
      <g id="Grupo_2137" data-name="Grupo 2137" transform="translate(16.297 4.124)">
        <path id="Caminho_3323" data-name="Caminho 3323" d="M0,1.164,3.092-1.155l3.939,3.6L3.865,4.764Z" transform="translate(0 1.155)" fill="#0fbed2"/>
      </g>
      <g id="Grupo_2138" data-name="Grupo 2138" transform="translate(20.446 7.985)">
        <path id="Caminho_3324" data-name="Caminho 3324" d="M1.589,0-1.577,2.265,2.258,5.9,5.605,3.5Z" transform="translate(1.577)" fill="#35bf9f"/>
      </g>
      <g id="Grupo_2139" data-name="Grupo 2139" transform="translate(12.029 6.66)">
        <path id="Caminho_3325" data-name="Caminho 3325" d="M1.941,0,5.859,3.564,2.2,6.447l-4.13-3.654Z" transform="translate(1.926)" fill="#ff9147"/>
      </g>
      <g id="Grupo_2140" data-name="Grupo 2140" transform="translate(16.405 10.559)">
        <path id="Caminho_3326" data-name="Caminho 3326" d="M1.861,0-1.846,2.781,2.2,6.642,5.85,3.68Z" transform="translate(1.846)" fill="#ff5639"/>
      </g>
      <g id="Grupo_2141" data-name="Grupo 2141" transform="translate(19.518 14.884)">
        <path id="Caminho_3327" data-name="Caminho 3327" d="M.466,1.266l3.4-2.522L2.68,1.7-.462,3.995Z" transform="translate(0.462 1.256)" fill="#0fbed2"/>
      </g>
      <g id="Grupo_2142" data-name="Grupo 2142" transform="translate(23.328 12.259)">
        <path id="Caminho_3328" data-name="Caminho 3328" d="M.595,1.046-.59,3.982,2.139,1.843,3.4-1.038Z" transform="translate(0.59 1.038)" fill="#ff5639"/>
      </g>
      <g id="Grupo_2143" data-name="Grupo 2143" transform="translate(22.068 15.792)">
        <path id="Caminho_3329" data-name="Caminho 3329" d="M1.861,0-.894,2.1l-.952,2.4L.883,2.49Z" transform="translate(1.846)" fill="#0fbed2"/>
      </g>
      <g id="Grupo_2144" data-name="Grupo 2144" transform="translate(18.541 18.487)">
        <path id="Caminho_3330" data-name="Caminho 3330" d="M1.951,0,.973,2.42-1.936,4.375l.807-2.251Z" transform="translate(1.936)" fill="#fff"/>
      </g>
      <g id="Grupo_2145" data-name="Grupo 2145" transform="translate(18.36 21.448)">
        <path id="Caminho_3331" data-name="Caminho 3331" d="M1.46,0,.868,1.416l-2.317,2.06.335-1.648Z" transform="translate(1.449)" fill="#35bf9f"/>
      </g>
      <g id="Grupo_2146" data-name="Grupo 2146" transform="translate(21.269 18.86)">
        <path id="Caminho_3332" data-name="Caminho 3332" d="M.3.989l-.592,1.64,2.44-1.564L3.014-.981Z" transform="translate(0.295 0.981)" fill="#ff9147"/>
      </g>
      <g id="Grupo_2147" data-name="Grupo 2147" transform="translate(7.028 -0.001)">
        <path id="Caminho_3333" data-name="Caminho 3333" d="M.7,2.821,12.76,13.654,19.394,8.8,8-1.63ZM12.726,14.846a.516.516,0,0,1-.349-.135L-.52,3.128a.524.524,0,0,1-.171-.436.526.526,0,0,1,.249-.4L7.794-2.723a.521.521,0,0,1,.622.06L20.569,8.457a.521.521,0,0,1-.044.805l-7.491,5.484a.525.525,0,0,1-.307.1" transform="translate(0.693 2.799)" fill="#b43fa0"/>
      </g>
      <g id="Grupo_2148" data-name="Grupo 2148" transform="translate(17.839 11.12)">
        <path id="Caminho_3334" data-name="Caminho 3334" d="M1.538,3.17-.129,9.4,4.06,6.455,7.327-1.068ZM-1,11.18a.517.517,0,0,1-.3-.094.52.52,0,0,1-.207-.562l2.086-7.8a.507.507,0,0,1,.2-.285L8.264-3.046a.527.527,0,0,1,.634.014.525.525,0,0,1,.153.614L4.957,7a.515.515,0,0,1-.179.219L-.7,11.083a.521.521,0,0,1-.3.1" transform="translate(1.526 3.145)" fill="#b43fa0"/>
      </g>
      <g id="Grupo_2149" data-name="Grupo 2149" transform="translate(7.083 5.539)">
        <path id="Caminho_3335" data-name="Caminho 3335" d="M.233,0-.231,4.016,11.415,17.035l1.715-5.451Z" transform="translate(0.231)" fill="#b43fa0"/>
      </g>
      <g id="Grupo_2150" data-name="Grupo 2150" transform="translate(6.562 5.018)">
        <path id="Caminho_3336" data-name="Caminho 3336" d="M.535,2.19,11.414,14.352,12.753,10.1.856-.591ZM11.635,15.9a.519.519,0,0,1-.388-.175L-.4,2.71A.52.52,0,0,1-.527,2.3l.462-4.016A.525.525,0,0,1,.27-2.141a.525.525,0,0,1,.532.1L13.7,9.543a.522.522,0,0,1,.149.544l-1.715,5.451a.524.524,0,0,1-.388.353.5.5,0,0,1-.11.012" transform="translate(0.531 2.173)" fill="#b43fa0"/>
      </g>
      <g id="Grupo_2151" data-name="Grupo 2151" transform="translate(11.507 2.288)">
        <path id="Caminho_3337" data-name="Caminho 3337" d="M4.72,10.723a.523.523,0,0,1-.486-.711L7.563,1.466l-12.08-11.2a.521.521,0,0,1-.028-.737.519.519,0,0,1,.737-.028L8.533.942a.522.522,0,0,1,.131.572L5.206,10.391a.522.522,0,0,1-.486.331" transform="translate(4.683 10.639)" fill="#b43fa0"/>
      </g>
      <g id="Grupo_2152" data-name="Grupo 2152" transform="translate(16.017 7.167)">
        <path id="Caminho_3338" data-name="Caminho 3338" d="M.262,3.244a.522.522,0,0,1-.317-.936L7.026-3.111a.524.524,0,0,1,.733.1.523.523,0,0,1-.1.731L.579,3.137a.521.521,0,0,1-.317.106" transform="translate(0.26 3.218)" fill="#b43fa0"/>
      </g>
      <g id="Grupo_2153" data-name="Grupo 2153" transform="translate(11.246 3.401)">
        <path id="Caminho_3339" data-name="Caminho 3339" d="M.262,3.237a.522.522,0,0,1-.3-.95L7.7-3.118a.522.522,0,0,1,.725.131.519.519,0,0,1-.129.725L.561,3.142a.517.517,0,0,1-.3.094" transform="translate(0.26 3.211)" fill="#b43fa0"/>
      </g>
      <g id="Grupo_2154" data-name="Grupo 2154" transform="translate(18.983 14.733)">
        <path id="Caminho_3340" data-name="Caminho 3340" d="M.262,3.051a.524.524,0,0,1-.42-.211.524.524,0,0,1,.11-.731L6.789-2.924a.52.52,0,0,1,.729.108.52.52,0,0,1-.108.729L.571,2.949a.506.506,0,0,1-.309.1" transform="translate(0.259 3.027)" fill="#b43fa0"/>
      </g>
      <g id="Grupo_2155" data-name="Grupo 2155" transform="translate(18.591 17.935)">
        <path id="Caminho_3341" data-name="Caminho 3341" d="M.262,2.636A.522.522,0,0,1-.043,1.69L5.818-2.517a.521.521,0,0,1,.729.12.52.52,0,0,1-.118.727L.567,2.537a.526.526,0,0,1-.305.1" transform="translate(0.26 2.615)" fill="#b43fa0"/>
      </g>
      <g id="Grupo_2156" data-name="Grupo 2156" transform="translate(0.522 7.16)">
        <path id="Caminho_3342" data-name="Caminho 3342" d="M0,1.4,4.016-1.385l11.662,4.48,3.2,14.615-3.514,2.875L3.939,14.524Z" transform="translate(0 1.385)" fill="#fff"/>
      </g>
      <g id="Grupo_2157" data-name="Grupo 2157" transform="translate(0 6.639)">
        <path id="Caminho_3343" data-name="Caminho 3343" d="M2.458,8.068l10.931,5.8,3-2.454L13.311-2.616,2.169-6.9-1.309-4.49Zm10.993,6.941a.526.526,0,0,1-.245-.06L1.777,8.887a.523.523,0,0,1-.255-.311L-2.417-4.554a.521.521,0,0,1,.2-.578L1.8-7.911a.52.52,0,0,1,.484-.058L13.947-3.49a.52.52,0,0,1,.321.375l3.2,14.613a.52.52,0,0,1-.179.516L13.781,14.89a.518.518,0,0,1-.329.118" transform="translate(2.439 8.004)" fill="#b43fa0"/>
      </g>
      <g id="Grupo_2158" data-name="Grupo 2158" transform="translate(4.229 8.654)">
        <path id="Caminho_3344" data-name="Caminho 3344" d="M1.834,0-1.82,2.574,1.5,4.068,5.412,1.389Z" transform="translate(1.82)" fill="#35bf9f"/>
      </g>
      <g id="Grupo_2159" data-name="Grupo 2159" transform="translate(8.012 10.224)">
        <path id="Caminho_3345" data-name="Caminho 3345" d="M1.951,0-1.936,2.709,2.228,4.544,6.037,1.628Z" transform="translate(1.936)" fill="#fff"/>
      </g>
      <g id="Grupo_2160" data-name="Grupo 2160" transform="translate(0.908 10.327)">
        <path id="Caminho_3346" data-name="Caminho 3346" d="M0,0,2.729,1.159,4.042,5.534,1.363,4.439Z" fill="#ff5639"/>
      </g>
      <g id="Grupo_2161" data-name="Grupo 2161" transform="translate(4.074 11.64)">
        <path id="Caminho_3347" data-name="Caminho 3347" d="M0,0,1.159,4.48,4.737,6.024,3.578,1.468Z" fill="#fff"/>
      </g>
      <g id="Grupo_2162" data-name="Grupo 2162" transform="translate(8.013 13.262)">
        <path id="Caminho_3348" data-name="Caminho 3348" d="M0,0,1.179,4.576,5,6.255l-1.042-4.5Z" fill="#0fbed2"/>
      </g>
      <g id="Grupo_2163" data-name="Grupo 2163" transform="translate(12.26 12.067)">
        <path id="Caminho_3349" data-name="Caminho 3349" d="M0,1.447,1.08,6.013,4.839,3.248l-.9-4.684Z" transform="translate(0 1.436)" fill="#ffcb6a"/>
      </g>
      <g id="Grupo_2164" data-name="Grupo 2164" transform="translate(13.418 17.162)">
        <path id="Caminho_3350" data-name="Caminho 3350" d="M0,1.405l3.823-2.8L4.941,3.238,1.261,6.1Z" transform="translate(0 1.394)" fill="#ff5639"/>
      </g>
      <g id="Grupo_2165" data-name="Grupo 2165" transform="translate(14.68 22.2)">
        <path id="Caminho_3351" data-name="Caminho 3351" d="M0,1.367,3.777-1.356,4.725,2.7,1.106,5.467Z" transform="translate(0 1.356)" fill="#35bf9f"/>
      </g>
      <g id="Grupo_2166" data-name="Grupo 2166" transform="translate(10.619 23.128)">
        <path id="Caminho_3352" data-name="Caminho 3352" d="M1.841.9l-3.668-1.8L-.8,2.786,2.922,5.11Z" transform="translate(1.827 0.894)" fill="#fff"/>
      </g>
      <g id="Grupo_2167" data-name="Grupo 2167" transform="translate(9.346 18.32)">
        <path id="Caminho_3353" data-name="Caminho 3353" d="M2.432,3.14-1.246,1.248-2.413-3.115l3.783,1.7Z" transform="translate(2.413 3.115)" fill="#ffcb6a"/>
      </g>
      <g id="Grupo_2168" data-name="Grupo 2168" transform="translate(5.387 16.737)">
        <path id="Caminho_3354" data-name="Caminho 3354" d="M0,0,3.534,1.4,4.672,5.837l-3.4-1.859Z" fill="#ff9147"/>
      </g>
      <g id="Grupo_2169" data-name="Grupo 2169" transform="translate(2.375 15.231)">
        <path id="Caminho_3355" data-name="Caminho 3355" d="M0,0,2.741,1.235l1.14,4.016L1.2,3.823Z" fill="#fff"/>
      </g>
      <g id="Grupo_2170" data-name="Grupo 2170" transform="translate(3.707 19.517)">
        <path id="Caminho_3356" data-name="Caminho 3356" d="M0,0,2.652,1.412l.978,3.57L1.042,3.347Z" fill="#35bf9f"/>
      </g>
      <g id="Grupo_2171" data-name="Grupo 2171" transform="translate(6.777 21.139)">
        <path id="Caminho_3357" data-name="Caminho 3357" d="M0,0,.928,3.534,4.439,5.618,3.456,1.833Z" fill="#0fbed2"/>
      </g>
      <g id="Grupo_2172" data-name="Grupo 2172" transform="translate(0.908 7.315)">
        <path id="Caminho_3358" data-name="Caminho 3358" d="M1.938,0-1.923,2.536.908,3.785,4.719,1.132Z" transform="translate(1.923)" fill="#ffcb6a"/>
      </g>
      <g id="Grupo_2173" data-name="Grupo 2173" transform="translate(0 9.42)">
        <path id="Caminho_3359" data-name="Caminho 3359" d="M2.459,6.676l10.076,5.7L9.147-.782-1.1-5.183Zm10.887,7.281a.533.533,0,0,1-.257-.066L1.764,7.481a.518.518,0,0,1-.243-.305L-2.418-5.954a.522.522,0,0,1,.153-.538.521.521,0,0,1,.552-.088L9.794-1.639a.522.522,0,0,1,.3.349L13.85,13.3a.522.522,0,0,1-.5.653" transform="translate(2.44 6.623)" fill="#b43fa0"/>
      </g>
      <g id="Grupo_2174" data-name="Grupo 2174" transform="translate(0 6.639)">
        <path id="Caminho_3360" data-name="Caminho 3360" d="M7.924,11.726a.521.521,0,0,1-.333-.922l3.564-2.962L7.892-6.246-3.254-10.527-7.043-7.9a.517.517,0,0,1-.727-.133.522.522,0,0,1,.133-.725l4.018-2.779a.516.516,0,0,1,.482-.058L8.524-7.12a.521.521,0,0,1,.319.367l3.4,14.674a.521.521,0,0,1-.175.518L8.257,11.606a.52.52,0,0,1-.333.12" transform="translate(7.862 11.634)" fill="#b43fa0"/>
      </g>
      <g id="Grupo_2175" data-name="Grupo 2175" transform="translate(11.507 11.118)">
        <path id="Caminho_3361" data-name="Caminho 3361" d="M.262,2.152a.521.521,0,0,1-.319-.934l4.17-3.243a.518.518,0,0,1,.731.092.519.519,0,0,1-.092.731L.581,2.042a.514.514,0,0,1-.319.11" transform="translate(0.26 2.135)" fill="#b43fa0"/>
      </g>
      <g id="Grupo_2176" data-name="Grupo 2176" transform="translate(7.131 9.364)">
        <path id="Caminho_3362" data-name="Caminho 3362" d="M2.174,9.13a.525.525,0,0,1-.5-.384L-2.139-5.178a.523.523,0,0,1,.193-.556L2.4-8.957a.523.523,0,0,1,.729.106.521.521,0,0,1-.108.731l-4.06,3.012L2.678,8.472a.523.523,0,0,1-.367.641.532.532,0,0,1-.137.018" transform="translate(2.157 9.059)" fill="#b43fa0"/>
      </g>
      <g id="Grupo_2177" data-name="Grupo 2177" transform="translate(3.229 11.119)">
        <path id="Caminho_3363" data-name="Caminho 3363" d="M2.119,7.055a.525.525,0,0,1-.5-.379l-3.7-13.011a.517.517,0,0,1,.357-.643.517.517,0,0,1,.645.357L2.621,6.39a.522.522,0,0,1-.359.645.509.509,0,0,1-.143.02" transform="translate(2.102 7)" fill="#b43fa0"/>
      </g>
      <g id="Grupo_2178" data-name="Grupo 2178" transform="translate(3.115 8.132)">
        <path id="Caminho_3364" data-name="Caminho 3364" d="M.262,1.945A.522.522,0,0,1-.027.99L4.219-1.842a.52.52,0,0,1,.723.145A.521.521,0,0,1,4.8-.974L.551,1.857a.51.51,0,0,1-.289.088" transform="translate(0.26 1.93)" fill="#b43fa0"/>
      </g>
      <g id="Grupo_2179" data-name="Grupo 2179" transform="translate(12.787 16.343)">
        <path id="Caminho_3365" data-name="Caminho 3365" d="M.262,2.024a.522.522,0,0,1-.311-.94l4.036-2.99a.521.521,0,0,1,.729.108.518.518,0,0,1-.108.729L.573,1.921a.53.53,0,0,1-.311.1" transform="translate(0.26 2.008)" fill="#b43fa0"/>
      </g>
      <g id="Grupo_2180" data-name="Grupo 2180" transform="translate(2.802 18.755)">
        <path id="Caminho_3366" data-name="Caminho 3366" d="M5.962,3.358A.528.528,0,0,1,5.729,3.3L-5.627-2.343a.521.521,0,0,1-.233-.7.519.519,0,0,1,.7-.235l11.07,5.5L9.508-.5a.524.524,0,0,1,.731.1.52.52,0,0,1-.1.731L6.277,3.253a.535.535,0,0,1-.315.1" transform="translate(5.915 3.331)" fill="#b43fa0"/>
      </g>
      <g id="Grupo_2181" data-name="Grupo 2181" transform="translate(1.482 14.364)">
        <path id="Caminho_3367" data-name="Caminho 3367" d="M5.936,3.017a.514.514,0,0,1-.209-.044L-5.577-2a.521.521,0,0,1-.269-.687.527.527,0,0,1,.689-.267l11.3,4.97a.521.521,0,0,1-.209,1" transform="translate(5.89 2.993)" fill="#b43fa0"/>
      </g>
    </g>
  </g>
</svg>
