<svg xmlns="http://www.w3.org/2000/svg" width="28.346" height="24.719" viewBox="0 0 28.346 24.719">
  <g id="ico_e002_fontes_historicas" transform="translate(-774.154 -81.028)">
    <g id="Grupo_2104" data-name="Grupo 2104" transform="translate(789.435 86.684)">
      <path id="Caminho_3288" data-name="Caminho 3288" d="M0,0A2.389,2.389,0,0,0-2.39,2.39V16.673A2.39,2.39,0,0,0,0,19.063H10.673a2.392,2.392,0,0,0,2.392-2.39V2.39A2.39,2.39,0,0,0,10.673,0Z" fill="#ff9147"/>
    </g>
    <path id="Caminho_3289" data-name="Caminho 3289" d="M165.376-15.389h11.4v-1.228h-11.4Z" transform="translate(623.695 106.423)" fill="#fff"/>
    <path id="Caminho_3290" data-name="Caminho 3290" d="M165.376-11.525h11.4v-1.228h-11.4Z" transform="translate(623.695 106.423)" fill="#fff"/>
    <path id="Caminho_3291" data-name="Caminho 3291" d="M165.376-7.662h11.4V-8.89h-11.4Z" transform="translate(623.695 106.423)" fill="#fff"/>
    <path id="Caminho_3292" data-name="Caminho 3292" d="M165.376-3.8h11.4V-5.026h-11.4Z" transform="translate(623.695 106.423)" fill="#fff"/>
    <g id="Grupo_2105" data-name="Grupo 2105" transform="translate(794.872 83.959)">
      <path id="Caminho_3293" data-name="Caminho 3293" d="M0,0A8.341,8.341,0,0,0-11.8,0,8.343,8.343,0,0,0-13.3,9.737l-6.187,6.187a2.521,2.521,0,0,0,0,3.566,2.521,2.521,0,0,0,3.566,0L-9.737,13.3A8.343,8.343,0,0,0,0,11.8,8.341,8.341,0,0,0,0,0M-1.714,10.081a5.914,5.914,0,0,1-8.367,0,5.912,5.912,0,0,1,0-8.367,5.915,5.915,0,0,1,8.367,0,5.915,5.915,0,0,1,0,8.367" fill="#fff"/>
    </g>
    <g id="Grupo_2106" data-name="Grupo 2106" transform="translate(788.975 84.434)">
      <path id="Caminho_3294" data-name="Caminho 3294" d="M0,0A5.409,5.409,0,0,0-3.836,1.586,5.389,5.389,0,0,0-5.427,5.423,5.386,5.386,0,0,0-3.836,9.259,5.39,5.39,0,0,0,0,10.849H0a5.385,5.385,0,0,0,3.836-1.59A5.389,5.389,0,0,0,5.426,5.423,5.391,5.391,0,0,0,3.837,1.586,5.412,5.412,0,0,0,0,0M0,11.832H0A6.365,6.365,0,0,1-4.531,9.954,6.365,6.365,0,0,1-6.409,5.423,6.363,6.363,0,0,1-4.531.892a6.414,6.414,0,0,1,9.063,0A6.366,6.366,0,0,1,6.409,5.423,6.369,6.369,0,0,1,4.532,9.954,6.363,6.363,0,0,1,0,11.832M0-2.423a7.826,7.826,0,0,0-5.55,2.3A7.82,7.82,0,0,0-6.969,9.036l.166.32L-13.245,15.8a2.018,2.018,0,0,0-.6,1.435,2.018,2.018,0,0,0,.6,1.435,2.078,2.078,0,0,0,2.871,0l6.442-6.441.319.166A7.82,7.82,0,0,0,5.55,10.973a7.8,7.8,0,0,0,2.3-5.55A7.8,7.8,0,0,0,5.55-.128,7.827,7.827,0,0,0,0-2.423M-11.809,20.245a3,3,0,0,1-2.131-.883,3.017,3.017,0,0,1,0-4.26L-8,9.164A8.8,8.8,0,0,1-6.245-.822a8.842,8.842,0,0,1,12.49,0A8.771,8.771,0,0,1,8.832,5.423a8.772,8.772,0,0,1-2.587,6.244,8.793,8.793,0,0,1-9.986,1.758l-5.938,5.937a2.994,2.994,0,0,1-2.13.883" fill="#fff"/>
    </g>
    <g id="Grupo_2107" data-name="Grupo 2107" transform="translate(794.872 83.959)">
      <path id="Caminho_3295" data-name="Caminho 3295" d="M0,0A8.341,8.341,0,0,0-11.8,0,8.343,8.343,0,0,0-13.3,9.737l-6.187,6.187a2.521,2.521,0,0,0,0,3.566,2.521,2.521,0,0,0,3.566,0L-9.737,13.3A8.343,8.343,0,0,0,0,11.8,8.341,8.341,0,0,0,0,0M-1.714,10.081a5.914,5.914,0,0,1-8.367,0,5.912,5.912,0,0,1,0-8.367,5.915,5.915,0,0,1,8.367,0,5.915,5.915,0,0,1,0,8.367" fill="#b43fa0"/>
    </g>
    <path id="Caminho_3296" data-name="Caminho 3296" d="M150.459-.677H178.8V-25.4H150.459Z" transform="translate(623.695 106.423)" fill="none"/>
  </g>
</svg>
