<svg xmlns="http://www.w3.org/2000/svg" xmlns:xlink="http://www.w3.org/1999/xlink" width="30" height="30" viewBox="0 0 30 30">
  <defs>
    <clipPath id="clip-path">
      <path id="Caminho_3299" data-name="Caminho 3299" d="M0,12.539H30v-30H0Z" transform="translate(0 17.461)" fill="none"/>
    </clipPath>
  </defs>
  <g id="icone_e002_oed" transform="translate(0 17.461)">
    <g id="Grupo_2110" data-name="Grupo 2110" transform="translate(0 -17.461)" clip-path="url(#clip-path)">
      <g id="Grupo_2108" data-name="Grupo 2108" transform="translate(11.8 9.893)">
        <path id="Caminho_3297" data-name="Caminho 3297" d="M2.685,1.305-3-1.756a.5.5,0,0,0-.734.538L-1.97,7.973a.519.519,0,0,0,.905.239L3.08,3.367a1.343,1.343,0,0,0-.4-2.062" transform="translate(3.739 1.818)" fill="#b43fa0"/>
      </g>
      <g id="Grupo_2109" data-name="Grupo 2109" transform="translate(0 -0.001)">
        <path id="Caminho_3298" data-name="Caminho 3298" d="M7.751,0H.663A11.457,11.457,0,0,0-10.793,11.456v7.087A11.456,11.456,0,0,0,.663,30H7.751A11.456,11.456,0,0,0,19.207,18.544V11.456A11.457,11.457,0,0,0,7.751,0M-2.19,19.413a.136.136,0,0,1-.137.136h-.808a.138.138,0,0,0-.137.137v.808a.136.136,0,0,1-.136.137h-.905a.138.138,0,0,1-.136-.137v-.808a.138.138,0,0,0-.136-.137h-.809a.136.136,0,0,1-.137-.136v-.905a.136.136,0,0,1,.137-.136h.809a.138.138,0,0,0,.136-.137v-.808a.138.138,0,0,1,.136-.137h.905a.136.136,0,0,1,.136.137v.808a.138.138,0,0,0,.137.137h.808a.136.136,0,0,1,.137.136Zm4.208,5.579a1.358,1.358,0,0,1-2.376-.62L-3.032,10.115a1.439,1.439,0,0,1,.438-1.27l1.1-1.2A1.667,1.667,0,0,1,.54,7.082l6.352,3.424V9.041a.308.308,0,0,0-.308-.308H4.761a.307.307,0,0,1-.308-.308V6.386a.307.307,0,0,1,.308-.308H6.584a.307.307,0,0,0,.308-.308V3.948A.309.309,0,0,1,7.2,3.641H9.24a.307.307,0,0,1,.308.308V5.771a.307.307,0,0,0,.308.308h1.823a.307.307,0,0,1,.308.308V8.426a.307.307,0,0,1-.308.308H9.855a.308.308,0,0,0-.308.308v1.825a.307.307,0,0,1-.308.308H8.129l2.622,1.412a1.343,1.343,0,0,1,.4,2.062L3.582,23.339c-.191.223-1.565,1.653-1.565,1.653M12.17,21.3a.2.2,0,0,1-.2.2h-1.2a.2.2,0,0,0-.2.2v1.2a.2.2,0,0,1-.2.2H9.031a.2.2,0,0,1-.2-.2V21.7a.2.2,0,0,0-.2-.2h-1.2a.2.2,0,0,1-.2-.2V19.961a.2.2,0,0,1,.2-.2h1.2a.2.2,0,0,0,.2-.2v-1.2a.2.2,0,0,1,.2-.2h1.338a.2.2,0,0,1,.2.2v1.2a.2.2,0,0,0,.2.2h1.2a.2.2,0,0,1,.2.2Z" transform="translate(10.793)" fill="#b43fa0"/>
      </g>
    </g>
  </g>
</svg>
