<svg xmlns="http://www.w3.org/2000/svg" xmlns:xlink="http://www.w3.org/1999/xlink" width="100.002" height="61.07" viewBox="0 0 100.002 61.07">
  <defs>
    <clipPath id="clip-path">
      <path id="Caminho_4972" data-name="Caminho 4972" d="M79.286,11.2a20.66,20.66,0,0,0-16.067,7.753A18.988,18.988,0,0,1,46.031,23.62a20.793,20.793,0,0,0-2.468-.628l-.11-.031,0,.011A20.633,20.633,0,0,0,18.929,43.209v.1A20.7,20.7,0,0,0,33.3,62.943H45.9a20.574,20.574,0,0,0,7.691-4.5l.05.04c.132-.153.266-.293.4-.44.249-.244.474-.508.711-.763,6.851-7.017,14.42-6.578,18.039-5.819a20.713,20.713,0,0,0,2.091.587l.073.029,0-.015A20.668,20.668,0,1,0,79.386,11.2Z" fill="none"/>
    </clipPath>
  </defs>
  <g id="pv_apres" transform="translate(0 -2.861)">
    <path id="Caminho_4970" data-name="Caminho 4970" d="M19.735,48.956A20.635,20.635,0,0,0,53.59,58.447l.049.041c.133-.154.269-.294.4-.443.248-.243.473-.507.709-.761,6.852-7.016,14.421-6.579,18.04-5.819a20.657,20.657,0,0,0,2.092.587l.072.028,0-.014A20.673,20.673,0,1,0,63.219,18.949,18.991,18.991,0,0,1,46.028,23.62a20.648,20.648,0,0,0-2.465-.628l-.111-.031,0,.011A20.636,20.636,0,0,0,19.735,48.956" fill="#00a8c3"/>
    <g id="Grupo_3705" data-name="Grupo 3705" clip-path="url(#clip-path)">
      <path id="Caminho_4971" data-name="Caminho 4971" d="M52.829,19.8A17.184,17.184,0,1,0,81.895,1.464m32.2,30.513A17.184,17.184,0,0,0,91.657,58.013" fill="none" stroke="#3fbcd2" stroke-width="5.487"/>
    </g>
    <path id="Caminho_4973" data-name="Caminho 4973" d="M40.53,52.612a6.385,6.385,0,1,0-6.385-6.385,6.385,6.385,0,0,0,6.385,6.385" fill="#fff"/>
    <path id="Caminho_4976" data-name="Caminho 4976" d="M51.212,54.073a16.383,16.383,0,0,0-6.44-27.162l.009-.049c-.159-.034-.307-.073-.462-.109-.264-.078-.535-.134-.8-.2A15.183,15.183,0,0,1,32.533,16.265a16.444,16.444,0,0,0-.4-1.676c-.005-.037-.009-.062-.009-.062l-.012,0a16.412,16.412,0,1,0-18.476,20.9A15.077,15.077,0,0,1,23.5,45.567a16.1,16.1,0,0,0,.514,1.954c.006.03.014.058.02.088l.01,0a16.382,16.382,0,0,0,27.17,6.466" fill="#ffc04f"/>
    <path id="Caminho_4977" data-name="Caminho 4977" d="M39.813,51.077a8.49,8.49,0,1,0-8.489-8.489,8.489,8.489,0,0,0,8.489,8.489" fill="#fff"/>
    <path id="Caminho_4978" data-name="Caminho 4978" d="M39.813,51.077a8.49,8.49,0,1,0-8.489-8.489A8.489,8.489,0,0,0,39.813,51.077Z" fill="none" stroke="#00a8c3" stroke-width="3.293"/>
  </g>
</svg>
