<svg xmlns="http://www.w3.org/2000/svg" width="20.242" height="21" viewBox="0 0 20.242 21">
  <g id="pv_o4boxmateriais" transform="translate(-74.8 -3129)">
    <g id="Grupo_2462" data-name="Grupo 2462">
      <path id="Caminho_3643" data-name="Caminho 3643" d="M2.2,0A10.122,10.122,0,1,0,12.321,10.121,10.121,10.121,0,0,0,2.2,0" transform="translate(82.721 3129.643)" fill="#35bf9f"/>
      <path id="Caminho_3639" data-name="Caminho 3639" d="M0,0A7.921,7.921,0,0,0-7.921,7.921,7.921,7.921,0,0,0,0,15.843,7.921,7.921,0,0,0,7.921,7.921,7.921,7.921,0,0,0,0,0" transform="translate(84.921 3131.844)" fill="#ffcb6a"/>
    </g>
    <path id="Caminho_3640" data-name="Caminho 3640" d="M0,0A7.921,7.921,0,0,0-7.921,7.921,7.921,7.921,0,0,0,0,15.843,7.921,7.921,0,0,0,7.921,7.921,7.921,7.921,0,0,0,0,0Z" transform="translate(84.921 3131.844)" fill="none" stroke="#35bf9f" stroke-width="4"/>
    <ellipse id="Elipse_11" data-name="Elipse 11" cx="10" cy="10.5" rx="10" ry="10.5" transform="translate(74.8 3129)" fill="none"/>
  </g>
</svg>
