<svg xmlns="http://www.w3.org/2000/svg" width="33.701" height="14.827" viewBox="0 0 33.701 14.827">
  <g id="pv_o4dicabox" transform="translate(-797 -447.826)">
    <g id="Grupo_2364" data-name="Grupo 2364" transform="translate(823.231 447.826)">
      <path id="Caminho_3539" data-name="Caminho 3539" d="M0,0H-18.669A7.561,7.561,0,0,0-26.14,6.435H7.47A7.559,7.559,0,0,0,0,0" fill="#0fbed2"/>
    </g>
    <g id="Grupo_2365" data-name="Grupo 2365" transform="translate(804.412 449.086)">
      <path id="Caminho_3540" data-name="Caminho 3540" d="M0,0A6.153,6.153,0,0,0-6.153,6.154,6.153,6.153,0,0,0,0,12.307,6.154,6.154,0,0,0,6.154,6.154,6.154,6.154,0,0,0,0,0" fill="#ffcb6a"/>
    </g>
    <g id="Grupo_2366" data-name="Grupo 2366" transform="translate(804.412 450.345)">
      <path id="Caminho_3541" data-name="Caminho 3541" d="M0,0A4.9,4.9,0,0,0-4.894,4.895,4.9,4.9,0,0,0,0,9.788,4.9,4.9,0,0,0,4.895,4.895,4.9,4.9,0,0,0,0,0M0,12.307A7.42,7.42,0,0,1-7.412,4.895,7.421,7.421,0,0,1,0-2.519,7.423,7.423,0,0,1,7.414,4.895,7.421,7.421,0,0,1,0,12.307" fill="#0fbed2"/>
    </g>
    <path id="Caminho_3542" data-name="Caminho 3542" d="M0,0H33.7V-14.826H0Z" transform="translate(797 462.652)" fill="none"/>
  </g>
</svg>
