<svg xmlns="http://www.w3.org/2000/svg" width="46.849" height="31.678" viewBox="0 0 46.849 31.678">
  <g id="pv_o4exemplobox" transform="translate(-45 -217.825)">
    <path id="Caminho_3668" data-name="Caminho 3668" d="M0,0A12.022,12.022,0,0,0-15.214-7.586a11.965,11.965,0,0,0-4.7,2.929l-.03-.022c-.073.093-.147.178-.221.267-.138.148-.263.307-.393.461A11.127,11.127,0,0,1-30.9-.112,11.935,11.935,0,0,0-32.127-.4l-.043-.014,0,.008a11.965,11.965,0,0,0-5.842.449A12.022,12.022,0,0,0-45.6,15.258a12.02,12.02,0,0,0,15.214,7.585,11.956,11.956,0,0,0,5.877-4.3,11.049,11.049,0,0,1,9.871-3.15,11.978,11.978,0,0,0,1.449.3l.065.016,0-.007a11.941,11.941,0,0,0,5.536-.488A12.021,12.021,0,0,0,0,0" transform="translate(91.225 226.035)" fill="#ff5639"/>
  </g>
</svg>
