<svg xmlns="http://www.w3.org/2000/svg" xmlns:xlink="http://www.w3.org/1999/xlink" width="87.938" height="62.728" viewBox="0 0 87.938 62.728">
  <defs>
    <clipPath id="clip-path">
      <path id="Caminho_3481" data-name="Caminho 3481" d="M83.537-200.589A22.753,22.753,0,0,0,75-198.923h0a22.674,22.674,0,0,0-8.565,6.093h0l-.06-.038c-.128.183-.258.353-.388.531h0c-.245.3-.462.611-.692.918h0c-6.711,8.492-15.072,8.885-19.134,8.47h0a22.844,22.844,0,0,0-2.362-.4h0c-.05-.012-.083-.023-.083-.023h0l-.005.017A22.708,22.708,0,0,0,32.7-181.831h0a22.81,22.81,0,0,0-12.6,29.7h0a22.809,22.809,0,0,0,29.7,12.6h0a22.675,22.675,0,0,0,10.631-8.829h0a20.969,20.969,0,0,1,18.333-7.111h0a22.5,22.5,0,0,0,2.779.4h0l.126.023h0l0-.015a22.679,22.679,0,0,0,10.431-1.564h0a22.811,22.811,0,0,0,12.605-29.695h0A22.819,22.819,0,0,0,83.537-200.589Z" fill="none"/>
    </clipPath>
  </defs>
  <g id="pv_o0sec12" transform="translate(-1285.511 -3255.589)">
    <g id="Grupo_2302" data-name="Grupo 2302" transform="translate(1371.782 3269.862)">
      <path id="Caminho_3476" data-name="Caminho 3476" d="M0,0A22.812,22.812,0,0,0-29.7-12.6a22.683,22.683,0,0,0-8.566,6.092l-.059-.038c-.128.184-.259.353-.388.531-.245.3-.463.611-.692.918-6.712,8.493-15.072,8.885-19.134,8.469a22.883,22.883,0,0,0-2.362-.4l-.083-.022,0,.017A22.7,22.7,0,0,0-72,4.486a22.811,22.811,0,0,0-12.6,29.7,22.811,22.811,0,0,0,29.7,12.6,22.682,22.682,0,0,0,10.632-8.828,20.965,20.965,0,0,1,18.332-7.111,22.7,22.7,0,0,0,2.78.405l.125.021,0-.013A22.676,22.676,0,0,0-12.6,29.7,22.811,22.811,0,0,0,0,0" fill="#ff5639"/>
    </g>
    <g id="Grupo_2307" data-name="Grupo 2307" transform="translate(1267.087 3456.179)" clip-path="url(#clip-path)">
      <g id="Grupo_2304" data-name="Grupo 2304" transform="translate(22.021 -126.376)">
        <path id="Caminho_3478" data-name="Caminho 3478" d="M0,0A19.577,19.577,0,0,1,15.762-22.722a19.431,19.431,0,0,1,14.626,3.176,19.425,19.425,0,0,1,8.1,12.587L33.186-6a14.076,14.076,0,0,0-5.867-9.121,14.063,14.063,0,0,0-10.6-2.3A14.187,14.187,0,0,0,5.3-.957Z" fill="#ff9073"/>
      </g>
      <g id="Grupo_2305" data-name="Grupo 2305" transform="translate(101.813 -170.457)">
        <path id="Caminho_3479" data-name="Caminho 3479" d="M0,0A19.5,19.5,0,0,1-14.248-6.147a19.428,19.428,0,0,1-5.3-14A19.427,19.427,0,0,1-13.4-33.789l3.69,3.922a14.075,14.075,0,0,0-4.454,9.888A14.079,14.079,0,0,0-10.326-9.836,14.185,14.185,0,0,0,9.7-9.225L13.393-5.3A19.484,19.484,0,0,1,0,0" fill="#ff9073"/>
      </g>
      <g id="Grupo_2306" data-name="Grupo 2306" transform="translate(56.521 -177.411)">
        <path id="Caminho_3480" data-name="Caminho 3480" d="M0,0A14.409,14.409,0,0,1-2.621-.241,13.374,13.374,0,0,1-11.506-6.12L-6.99-9.052A8.041,8.041,0,0,0-1.639-5.536,9.215,9.215,0,0,0,5.075-6.917a9.21,9.21,0,0,0,3.992-5.571,8.041,8.041,0,0,0-1.036-6.32l4.516-2.932A13.373,13.373,0,0,1,14.3-11.231,14.571,14.571,0,0,1,8.007-2.4,14.688,14.688,0,0,1,0,0" fill="#ff9073"/>
      </g>
    </g>
  </g>
</svg>
