<svg xmlns="http://www.w3.org/2000/svg" width="50.695" height="34.278" viewBox="0 0 50.695 34.278">
  <g id="pv_p1glossariotit1" transform="translate(50.019 8.884)">
    <path id="Caminho_3662" data-name="Caminho 3662" d="M0,0A13.007,13.007,0,0,0-16.463-8.208,12.926,12.926,0,0,0-21.55-5.039l-.033-.024c-.079.1-.16.192-.239.289-.15.16-.285.332-.426.5A12.041,12.041,0,0,1-33.433-.121a12.794,12.794,0,0,0-1.331-.312l-.046-.015,0,.009a12.942,12.942,0,0,0-6.322.486A13.007,13.007,0,0,0-49.343,16.51,13.007,13.007,0,0,0-32.88,24.718a12.93,12.93,0,0,0,6.359-4.655,11.953,11.953,0,0,1,10.682-3.408,13.14,13.14,0,0,0,1.568.327l.07.016,0-.007a12.93,12.93,0,0,0,5.991-.528A13.007,13.007,0,0,0,0,0" fill="#ff5639"/>
  </g>
</svg>
