<svg xmlns="http://www.w3.org/2000/svg" xmlns:xlink="http://www.w3.org/1999/xlink" width="22.677" height="17.008" viewBox="0 0 22.677 17.008">
  <defs>
    <clipPath id="clip-path">
      <path id="Caminho_4722" data-name="Caminho 4722" d="M0,0H22.677V-17.008H0Z" fill="none"/>
    </clipPath>
  </defs>
  <g id="pv_p0tit2mp_" data-name="pv_p0tit2mp " transform="translate(0 17.008)">
    <g id="Grupo_3506" data-name="Grupo 3506" clip-path="url(#clip-path)">
      <g id="Grupo_3502" data-name="Grupo 3502" transform="translate(14.174 -1.25)">
        <path id="Caminho_4718" data-name="Caminho 4718" d="M0,0A7.254,7.254,0,0,0,7.254-7.254,7.254,7.254,0,0,0,0-14.508,7.254,7.254,0,0,0-7.254-7.254,7.254,7.254,0,0,0,0,0" fill="#ffcb6a"/>
      </g>
      <g id="Grupo_3503" data-name="Grupo 3503" transform="translate(14.174 -1.25)">
        <path id="Caminho_4719" data-name="Caminho 4719" d="M0,0A7.254,7.254,0,0,0,7.254-7.254,7.254,7.254,0,0,0,0-14.508,7.254,7.254,0,0,0-7.254-7.254,7.254,7.254,0,0,0,0,0Z" fill="none" stroke="#ff5639" stroke-width="2.5"/>
      </g>
      <g id="Grupo_3504" data-name="Grupo 3504" transform="translate(7.087 -14.34)">
        <path id="Caminho_4720" data-name="Caminho 4720" d="M0,0A5.837,5.837,0,0,1,5.837,5.837,5.836,5.836,0,0,1,0,11.673,5.837,5.837,0,0,1-5.837,5.837,5.837,5.837,0,0,1,0,0" fill="#ff5639"/>
      </g>
      <g id="Grupo_3505" data-name="Grupo 3505" transform="translate(7.087 -14.34)">
        <path id="Caminho_4721" data-name="Caminho 4721" d="M0,0A5.837,5.837,0,0,1,5.837,5.837,5.836,5.836,0,0,1,0,11.673,5.837,5.837,0,0,1-5.837,5.837,5.837,5.837,0,0,1,0,0Z" fill="none" stroke="#ffcb6a" stroke-width="2.5"/>
      </g>
    </g>
  </g>
</svg>
