<svg xmlns="http://www.w3.org/2000/svg" xmlns:xlink="http://www.w3.org/1999/xlink" width="132.727" height="87.607" viewBox="0 0 132.727 87.607">
  <defs>
    <clipPath id="clip-path">
      <path id="Caminho_4713" data-name="Caminho 4713" d="M104.758-69.549a28.1,28.1,0,0,0-6.806.84h0a27.816,27.816,0,0,0-12.028,6.434h0l-.017-.016-.066.084h0a27.89,27.89,0,0,0-2.053,2.1h0c-3.729,3.346-12.306,8.988-25.093,5.406h0c-.449-.14-.9-.277-1.357-.394h0c-.256-.082-.791-.183-.791-.183h0a27.794,27.794,0,0,0-12.894.136h0A27.982,27.982,0,0,0,23.288-21.207h0A27.984,27.984,0,0,0,57.222-.842h0A27.823,27.823,0,0,0,68.7-6.815h0l.011.012c.037-.04.073-.074.108-.113h0c.869-.757,1.631-1.543,2.467-2.405h0A25.7,25.7,0,0,1,94.6-15.5h0a27.828,27.828,0,0,0,16.918,1.085h0a27.983,27.983,0,0,0,20.365-33.933h0a27.99,27.99,0,0,0-27.123-21.205h0Z" fill="none"/>
    </clipPath>
  </defs>
  <g id="pv_p0tit1mp" transform="translate(-39 -269.197)">
    <g id="Grupo" transform="translate(39 356.803)">
      <text id="UNID" transform="translate(52.605 -21.879)" fill="#fff" font-size="10" font-family="ArialMT, Arial" letter-spacing="0.019em"><tspan x="0" y="0">UNID</tspan></text>
      <text id="ADE_1" data-name="ADE 1" transform="translate(96.338 -21.879)" fill="#fff" font-size="10" font-family="ArialMT, Arial" letter-spacing="0.019em"><tspan x="0" y="0">ADE 1</tspan></text>
    </g>
    <g id="Grupo_3491" data-name="Grupo 3491" transform="translate(62.288 335.598)">
      <path id="Caminho_4708" data-name="Caminho 4708" d="M0,0A27.985,27.985,0,0,1,20.365-33.934a27.83,27.83,0,0,1,12.893-.136s.535.1.792.185c.457.117.908.253,1.357.392,12.786,3.582,21.364-2.06,25.093-5.4A27.917,27.917,0,0,1,62.553-41l.066-.082.016.014A27.851,27.851,0,0,1,74.663-47.5,27.983,27.983,0,0,1,108.6-27.138,27.985,27.985,0,0,1,88.232,6.8,27.821,27.821,0,0,1,71.314,5.709,25.708,25.708,0,0,0,48,11.884c-.835.862-1.6,1.648-2.466,2.407-.035.039-.072.072-.108.111l-.012-.011a27.82,27.82,0,0,1-11.476,5.974A27.985,27.985,0,0,1,0,0" fill="#0fbed2"/>
    </g>
    <g id="Grupo_3496" data-name="Grupo 3496" transform="translate(39 356.803)" clip-path="url(#clip-path)">
      <g id="Grupo_3493" data-name="Grupo 3493" transform="translate(38.15 25.094)">
        <path id="Caminho_4710" data-name="Caminho 4710" d="M0,0A18.142,18.142,0,0,0,18.142-18.142,18.142,18.142,0,0,0,0-36.283,18.142,18.142,0,0,0-18.142-18.142,18.142,18.142,0,0,0,0,0Z" fill="none" stroke="#6fd6e2" stroke-width="6"/>
      </g>
      <g id="Grupo_3494" data-name="Grupo 3494" transform="translate(127.175 -39.678)">
        <path id="Caminho_4711" data-name="Caminho 4711" d="M0,0A18.142,18.142,0,0,0,18.142-18.142,18.142,18.142,0,0,0,0-36.283,18.142,18.142,0,0,0-18.142-18.142,18.142,18.142,0,0,0,0,0Z" fill="none" stroke="#6fd6e2" stroke-width="6"/>
      </g>
      <g id="Grupo_3495" data-name="Grupo 3495" transform="translate(80.386 -50.309)">
        <path id="Caminho_4712" data-name="Caminho 4712" d="M0,0A15.425,15.425,0,0,0,15.425-15.425,15.425,15.425,0,0,0,0-30.85,15.425,15.425,0,0,0-15.425-15.425,15.425,15.425,0,0,0,0,0Z" fill="none" stroke="#6fd6e2" stroke-width="6"/>
      </g>
    </g>
    <g id="Grupo_3635" data-name="Grupo 3635" transform="translate(39 356.803)">
      <g id="Grupo_3497" data-name="Grupo 3497" transform="translate(9.047 -83.019)">
        <path id="Caminho_4714" data-name="Caminho 4714" d="M0,0A22.708,22.708,0,0,1,36.047,14.061s.094.432.113.651c.058.379.1.759.138,1.14,1.38,10.7,8.324,15.327,12.01,17.054a22.731,22.731,0,0,1,2.226.868l.083.023-.005.017A22.75,22.75,0,1,1,18.374,55.16,20.892,20.892,0,0,0,6.351,39.678c-.911-.351-1.741-.672-2.584-1.081-.04-.014-.077-.03-.118-.045l.005-.013A22.709,22.709,0,0,1,0,0" fill="#ffcb6a"/>
      </g>
      <g id="Grupo_3499" data-name="Grupo 3499" transform="translate(22.564 -55.534)">
        <path id="Caminho_4716" data-name="Caminho 4716" d="M0,0A9.921,9.921,0,0,0,9.921-9.921,9.921,9.921,0,0,0,0-19.843,9.921,9.921,0,0,0-9.921-9.921,9.921,9.921,0,0,0,0,0" fill="#fff"/>
      </g>
    </g>
  </g>
</svg>
