<svg xmlns="http://www.w3.org/2000/svg" xmlns:xlink="http://www.w3.org/1999/xlink" width="77.971" height="55.617" viewBox="0 0 77.971 55.617">
  <defs>
    <clipPath id="clip-path">
      <path id="Caminho_3557" data-name="Caminho 3557" d="M0,0A20.227,20.227,0,0,0-26.33-11.177a20.114,20.114,0,0,0-7.595,5.4l-.053-.035c-.113.164-.229.314-.344.471-.217.263-.41.542-.613.815A18.721,18.721,0,0,1-51.9,2.985a20.5,20.5,0,0,0-2.095-.357l-.074-.02,0,.015a20.135,20.135,0,0,0-9.765,1.354A20.226,20.226,0,0,0-75.014,30.308a20.226,20.226,0,0,0,26.33,11.176,20.1,20.1,0,0,0,9.427-7.828A18.589,18.589,0,0,1-23,27.352a20.3,20.3,0,0,0,2.465.359c.037.007.073.011.11.019l0-.012a20.119,20.119,0,0,0,9.247-1.387A20.226,20.226,0,0,0,0,0" transform="translate(1372.492 232.272)" fill="#ff9147"/>
    </clipPath>
  </defs>
  <g id="pv_p1materialcomplementartit1" transform="translate(-1296 -219.617)">
    <g id="Grupo_2381" data-name="Grupo 2381" transform="translate(1372.492 232.272)">
      <path id="Caminho_3557-2" data-name="Caminho 3557" d="M0,0A20.227,20.227,0,0,0-26.33-11.177a20.114,20.114,0,0,0-7.595,5.4l-.053-.035c-.113.164-.229.314-.344.471-.217.263-.41.542-.613.815A18.721,18.721,0,0,1-51.9,2.985a20.5,20.5,0,0,0-2.095-.357l-.074-.02,0,.015a20.135,20.135,0,0,0-9.765,1.354A20.226,20.226,0,0,0-75.014,30.308a20.226,20.226,0,0,0,26.33,11.176,20.1,20.1,0,0,0,9.427-7.828A18.589,18.589,0,0,1-23,27.352a20.3,20.3,0,0,0,2.465.359c.037.007.073.011.11.019l0-.012a20.119,20.119,0,0,0,9.247-1.387A20.226,20.226,0,0,0,0,0" fill="#ff9147"/>
    </g>
    <g id="Grupo_de_máscara_16" data-name="Grupo de máscara 16" clip-path="url(#clip-path)">
      <path id="Caminho_3559" data-name="Caminho 3559" d="M0,0A16.446,16.446,0,0,0-19.11-13.257,16.445,16.445,0,0,0-32.367,5.853" transform="translate(1326.477 284.426)" fill="none" stroke="#ffb681" stroke-width="5.252"/>
      <path id="Caminho_3560" data-name="Caminho 3560" d="M0,0A16.446,16.446,0,0,0,22.537,23.958" transform="translate(1358.074 216.71)" fill="none" stroke="#ffb681" stroke-width="5.252"/>
      <path id="Caminho_3561" data-name="Caminho 3561" d="M0,0C3.243,4.994,10.138,6.272,15.4,2.855s6.9-10.236,3.655-15.23" transform="translate(1316.154 233.571)" fill="none" stroke="#ffb681" stroke-width="5.252"/>
    </g>
    <path id="Caminho_3558" data-name="Caminho 3558" d="M0,0H77.971V-55.617H0Z" transform="translate(1296 275.234)" fill="none"/>
    <path id="Caminho_3562" data-name="Caminho 3562" d="M57.71-55.617a20.143,20.143,0,0,0-7.549,1.478h0a20.135,20.135,0,0,0-7.594,5.4h0l-.052-.034c-.112.163-.229.313-.345.471h0c-.216.262-.41.542-.613.814h0a18.722,18.722,0,0,1-16.965,7.509h0a20.181,20.181,0,0,0-2.095-.357h0l-.073-.02h0l0,.015a20.125,20.125,0,0,0-9.765,1.354h0A20.232,20.232,0,0,0,0-20.193H0v.015a20.19,20.19,0,0,0,1.478,7.523h0A20.234,20.234,0,0,0,20.211,0h.05a20.177,20.177,0,0,0,7.548-1.478h0a20.127,20.127,0,0,0,9.428-7.828h0a18.584,18.584,0,0,1,16.255-6.305h0a20.241,20.241,0,0,0,2.463.36h0c.038.007.074.011.111.019h0l0-.012a20.13,20.13,0,0,0,9.249-1.388h0a20.226,20.226,0,0,0,11.175-26.33h0A20.232,20.232,0,0,0,57.758-55.617h0Z" transform="translate(1296 275.234)" fill="none"/>
    <g id="Grupo_2387" data-name="Grupo 2387" transform="translate(1364.038 255.765)">
      <path id="Caminho_3563" data-name="Caminho 3563" d="M0,0A15.492,15.492,0,0,0-15.492-15.492a15.4,15.4,0,0,0-6.943,1.657l-.028-.039c-.127.083-.253.156-.379.235-.23.124-.447.268-.67.4a14.34,14.34,0,0,1-14.2.465,15.557,15.557,0,0,0-1.385-.855l-.047-.035-.007.009a15.422,15.422,0,0,0-7.323-1.84A15.492,15.492,0,0,0-61.968,0,15.492,15.492,0,0,0-46.476,15.492a15.409,15.409,0,0,0,8.941-2.854,14.235,14.235,0,0,1,13.352.186,15.428,15.428,0,0,0,1.647.962l.073.045,0-.007a15.411,15.411,0,0,0,6.966,1.668A15.492,15.492,0,0,0,0,0" fill="#0fbed2"/>
    </g>
    <g id="Grupo_2388" data-name="Grupo 2388" transform="translate(1317.127 265.225)">
      <path id="Caminho_3564" data-name="Caminho 3564" d="M0,0A9.46,9.46,0,0,0,9.46-9.46,9.46,9.46,0,0,0,0-18.919,9.46,9.46,0,0,0-9.46-9.46,9.46,9.46,0,0,0,0,0" fill="#fff"/>
    </g>
    <g id="Grupo_2389" data-name="Grupo 2389" transform="translate(1317.127 265.225)">
      <path id="Caminho_3565" data-name="Caminho 3565" d="M0,0A9.46,9.46,0,0,0,9.46-9.46,9.46,9.46,0,0,0,0-18.919,9.46,9.46,0,0,0-9.46-9.46,9.46,9.46,0,0,0,0,0Z" fill="none" stroke="#ffcb6a" stroke-width="2.7"/>
    </g>
    <path id="Caminho_3566" data-name="Caminho 3566" d="M0,0H77.971V-55.617H0Z" transform="translate(1296 275.234)" fill="none"/>
  </g>
</svg>
