<svg xmlns="http://www.w3.org/2000/svg" xmlns:xlink="http://www.w3.org/1999/xlink" width="86.663" height="51.909" viewBox="0 0 86.663 51.909">
  <defs>
    <clipPath id="clip-path">
      <path id="Caminho_3518" data-name="Caminho 3518" d="M0,0H86.663V-51.909H0Z" fill="none"/>
    </clipPath>
    <clipPath id="clip-path-2">
      <path id="Caminho_3522" data-name="Caminho 3522" d="M67.766-51.909a18.806,18.806,0,0,0-7.058,1.378h0a18.789,18.789,0,0,0-7.089,5.042h0l-.048-.03c-.106.152-.214.29-.322.439h0c-.2.245-.383.506-.573.76h0a17.471,17.471,0,0,1-15.834,7.008h0a19.161,19.161,0,0,0-1.954-.333h0l-.069-.019h0l0,.013A18.788,18.788,0,0,0,25.7-36.386h0A18.877,18.877,0,0,0,15.269-11.812h0A18.889,18.889,0,0,0,32.765,0h.025a18.815,18.815,0,0,0,7.055-1.381h0a18.757,18.757,0,0,0,8.8-7.306h0A17.354,17.354,0,0,1,63.814-14.57h0a18.839,18.839,0,0,0,2.3.335h0c.034.007.067.01.1.018h0l0-.011a18.782,18.782,0,0,0,8.631-1.3h0A18.88,18.88,0,0,0,85.283-40.1h0a18.886,18.886,0,0,0-17.5-11.81h0Z" fill="none"/>
    </clipPath>
  </defs>
  <g id="pv_p1referenciasbibliotit1" transform="translate(0 51.909)">
    <g id="Grupo_2343" data-name="Grupo 2343" clip-path="url(#clip-path)">
      <g id="Grupo_2342" data-name="Grupo 2342" transform="translate(85.283 -40.098)">
        <path id="Caminho_3517" data-name="Caminho 3517" d="M0,0A18.878,18.878,0,0,0-24.575-10.432,18.772,18.772,0,0,0-31.663-5.39l-.049-.031c-.106.152-.215.292-.322.439-.2.245-.383.506-.572.76A17.472,17.472,0,0,1-48.44,2.786,18.907,18.907,0,0,0-50.4,2.453l-.069-.019,0,.014a18.8,18.8,0,0,0-9.115,1.264A18.878,18.878,0,0,0-70.013,28.287,18.878,18.878,0,0,0-45.438,38.719a18.77,18.77,0,0,0,8.8-7.307,17.351,17.351,0,0,1,15.171-5.884,18.647,18.647,0,0,0,2.3.335l.1.018,0-.011a18.769,18.769,0,0,0,8.631-1.3A18.878,18.878,0,0,0,0,0" fill="#ff5639"/>
      </g>
    </g>
    <g id="Grupo_2347" data-name="Grupo 2347" clip-path="url(#clip-path-2)">
      <g id="Grupo_2344" data-name="Grupo 2344" transform="translate(46.522 4.143)">
        <path id="Caminho_3519" data-name="Caminho 3519" d="M0,0A13.955,13.955,0,0,0-16.215-11.249,13.955,13.955,0,0,0-27.463,4.966" fill="none" stroke="#ff9073" stroke-width="4.456"/>
      </g>
      <g id="Grupo_2345" data-name="Grupo 2345" transform="translate(73.332 -53.313)">
        <path id="Caminho_3520" data-name="Caminho 3520" d="M0,0A13.954,13.954,0,1,0,19.122,20.328" fill="none" stroke="#ff9073" stroke-width="4.456"/>
      </g>
      <g id="Grupo_2346" data-name="Grupo 2346" transform="translate(37.763 -39.006)">
        <path id="Caminho_3521" data-name="Caminho 3521" d="M0,0A9.4,9.4,0,0,0,13.066,2.422a9.4,9.4,0,0,0,3.1-12.922" fill="none" stroke="#ff9073" stroke-width="4.456"/>
      </g>
    </g>
    <g id="Grupo_2350" data-name="Grupo 2350" clip-path="url(#clip-path)">
      <g id="Grupo_2348" data-name="Grupo 2348" transform="translate(41.154 -9.565)">
        <path id="Caminho_3523" data-name="Caminho 3523" d="M0,0A13.185,13.185,0,0,0,0-18.646a13.105,13.105,0,0,0-5.176-3.181l.007-.041c-.127-.026-.246-.058-.37-.086-.213-.064-.43-.108-.645-.161a12.2,12.2,0,0,1-8.827-8.267,13.059,13.059,0,0,0-.319-1.348c0-.029-.007-.049-.007-.049h-.01a13.112,13.112,0,0,0-3.3-5.514,13.185,13.185,0,0,0-18.646,0,13.185,13.185,0,0,0,0,18.646,13.112,13.112,0,0,0,7.1,3.663,12.114,12.114,0,0,1,7.923,8.147,13.059,13.059,0,0,0,.412,1.571c.006.024.012.046.017.071l.008,0A13.1,13.1,0,0,0-18.646,0,13.185,13.185,0,0,0,0,0" fill="#ffcb6a"/>
      </g>
      <g id="Grupo_2349" data-name="Grupo 2349" transform="translate(40.387 -19.27)">
        <path id="Caminho_3524" data-name="Caminho 3524" d="M0,0A8.831,8.831,0,0,1-8.778,8.884,8.831,8.831,0,0,1-17.556,0,8.831,8.831,0,0,1-8.778-8.884,8.831,8.831,0,0,1,0,0" fill="#35bf9f"/>
      </g>
    </g>
  </g>
</svg>
