<svg xmlns="http://www.w3.org/2000/svg" xmlns:xlink="http://www.w3.org/1999/xlink" width="39.288" height="39" viewBox="0 0 39.288 39">
  <defs>
    <clipPath id="clip-path">
      <circle id="Elipse_21" data-name="Elipse 21" cx="19.5" cy="19.5" r="19.5" transform="translate(1243 686)" fill="#fff" stroke="#707070" stroke-width="1"/>
    </clipPath>
  </defs>
  <g id="pv_p1sugestcomptit1" transform="translate(-1243 -686)">
    <g id="Grupo_de_m치scara_21" data-name="Grupo de m치scara 21" clip-path="url(#clip-path)">
      <g id="Grupo_2322" data-name="Grupo 2322" transform="translate(1315.959 691.337)">
        <path id="Caminho_3497" data-name="Caminho 3497" d="M0,0A18.2,18.2,0,0,0-22.3-12.872,18.107,18.107,0,0,0-29.671-8.88l-.044-.036c-.119.134-.239.255-.359.383-.223.211-.426.439-.637.66A16.849,16.849,0,0,1-46.69-3.026a18.218,18.218,0,0,0-1.832-.548l-.063-.026-.005.013a18.111,18.111,0,0,0-8.872.138,18.2,18.2,0,0,0-12.872,22.3A18.2,18.2,0,0,0-48.039,31.718a18.1,18.1,0,0,0,9.28-5.959A16.729,16.729,0,0,1-23.548,21.91a18.129,18.129,0,0,0,2.163.591c.032.011.064.019.1.029l0-.01a18.094,18.094,0,0,0,8.413-.225A18.2,18.2,0,0,0,0,0" fill="#ff9147"/>
      </g>
    </g>
    <g id="Grupo_de_m치scara_22" data-name="Grupo de m치scara 22" clip-path="url(#clip-path)">
      <g id="Grupo_2328" data-name="Grupo 2328" transform="translate(1310.512 705.585)">
        <path id="Caminho_3503" data-name="Caminho 3503" d="M0,0A15.492,15.492,0,0,0-15.492-15.492a15.4,15.4,0,0,0-6.943,1.657l-.028-.039c-.127.083-.253.156-.379.235-.23.124-.447.268-.67.4a14.34,14.34,0,0,1-14.2.465,15.557,15.557,0,0,0-1.385-.855l-.047-.035-.007.009a15.422,15.422,0,0,0-7.323-1.84A15.492,15.492,0,0,0-61.968,0,15.492,15.492,0,0,0-46.476,15.492a15.409,15.409,0,0,0,8.941-2.854,14.235,14.235,0,0,1,13.352.186,15.428,15.428,0,0,0,1.647.962l.073.045,0-.007a15.411,15.411,0,0,0,6.966,1.668A15.492,15.492,0,0,0,0,0" fill="#35bf9f"/>
      </g>
    </g>
    <g id="Grupo_2331" data-name="Grupo 2331" transform="translate(1263.857 716.096)">
      <path id="Caminho_3506" data-name="Caminho 3506" d="M0,0A10.511,10.511,0,0,0,10.511-10.511,10.511,10.511,0,0,0,0-21.022,10.511,10.511,0,0,0-10.511-10.511,10.511,10.511,0,0,0,0,0" fill="#ffcb6a"/>
    </g>
    <g id="Grupo_2332" data-name="Grupo 2332" transform="translate(1263.857 716.096)">
      <path id="Caminho_3507" data-name="Caminho 3507" d="M0,0A10.511,10.511,0,0,0,10.511-10.511,10.511,10.511,0,0,0,0-21.022,10.511,10.511,0,0,0-10.511-10.511,10.511,10.511,0,0,0,0,0Z" fill="none" stroke="#ffcb6a" stroke-width="3"/>
    </g>
    <g id="Grupo_2333" data-name="Grupo 2333" transform="translate(1258.326 696.956)">
      <path id="Caminho_3508" data-name="Caminho 3508" d="M0,0A2.835,2.835,0,0,0-2.213,3.343L.6,17.141a2.834,2.834,0,0,0,3.342,2.212l10.3-2.1a2.835,2.835,0,0,0,2.213-3.343L13.641.118A2.835,2.835,0,0,0,10.3-2.1Z" fill="#fff"/>
    </g>
    <g id="Grupo_2334" data-name="Grupo 2334" transform="translate(1258.326 696.956)">
      <path id="Caminho_3509" data-name="Caminho 3509" d="M0,0A2.835,2.835,0,0,0-2.213,3.343L.6,17.141a2.834,2.834,0,0,0,3.342,2.212l10.3-2.1a2.835,2.835,0,0,0,2.213-3.343L13.641.118A2.835,2.835,0,0,0,10.3-2.1Z" fill="none" stroke="#fff" stroke-width="3"/>
    </g>
    <g id="Grupo_2335" data-name="Grupo 2335" transform="translate(1258.904 697.294)">
      <path id="Caminho_3510" data-name="Caminho 3510" d="M0,0A2.835,2.835,0,0,0-2.213,3.343L.4,16.184A2.835,2.835,0,0,0,3.743,18.4L13.054,16.5a2.835,2.835,0,0,0,2.213-3.343L12.654.318A2.835,2.835,0,0,0,9.311-1.895Z" fill="none" stroke="#b43fa0" stroke-width="2"/>
    </g>
    <g id="Grupo_2336" data-name="Grupo 2336" transform="translate(1259.253 703.352)">
      <path id="Caminho_3511" data-name="Caminho 3511" d="M0,0-.4-1.96l11.11-2.261.4,1.96Z" fill="#b43fa0"/>
    </g>
    <g id="Grupo_2337" data-name="Grupo 2337" transform="translate(1260.173 707.869)">
      <path id="Caminho_3512" data-name="Caminho 3512" d="M0,0-.4-1.959,10.712-4.221l.4,1.959Z" fill="#b43fa0"/>
    </g>
    <g id="Grupo_2338" data-name="Grupo 2338" transform="translate(1261.092 712.387)">
      <path id="Caminho_3513" data-name="Caminho 3513" d="M0,0-.4-1.959,10.712-4.221l.4,1.959Z" fill="#b43fa0"/>
    </g>
    <g id="Grupo_2339" data-name="Grupo 2339" transform="translate(1279.288 702.533)">
      <path id="Caminho_3514" data-name="Caminho 3514" d="M0,0H-2.953V-2.953a3,3,0,0,0-3-3,3,3,0,0,0-3,3V0H-11.9a3,3,0,0,0-3,3,3,3,0,0,0,3,3h2.952V8.952a3,3,0,0,0,3,3,3,3,0,0,0,3-3V6H0A3,3,0,0,0,0,0" fill="#fff"/>
    </g>
    <g id="Grupo_2340" data-name="Grupo 2340" transform="translate(1279.288 703.533)">
      <path id="Caminho_3515" data-name="Caminho 3515" d="M0,0H-3.953V-3.953a2,2,0,0,0-2-2,2,2,0,0,0-2,2V0H-11.9a2,2,0,0,0-2,2,2,2,0,0,0,2,2h3.952V7.952a2,2,0,0,0,2,2,2,2,0,0,0,2-2V4H0A2,2,0,0,0,2,2,2,2,0,0,0,0,0" fill="#ff9147"/>
    </g>
  </g>
</svg>
