<svg xmlns="http://www.w3.org/2000/svg" width="102.397" height="58.132" viewBox="0 0 102.397 58.132">
  <g id="pv_sec4" transform="translate(-945 -1257.712)">
    <path id="Caminho_4695" data-name="Caminho 4695" d="M0,0A25.706,25.706,0,0,0,28.843,22.132,25.555,25.555,0,0,0,39.907,17.9l.055.059c.191-.165.382-.313.573-.47.351-.254.677-.536,1.014-.807,9.719-7.372,18.951-5.442,23.265-3.841a25.93,25.93,0,0,0,2.464,1.106l.085.048.009-.017a25.592,25.592,0,0,0,12.447,1.441,25.708,25.708,0,0,0,22.132-28.843A25.706,25.706,0,0,0,73.108-35.554a25.558,25.558,0,0,0-14.091,6.632,23.625,23.625,0,0,1-22.008,2.585,25.737,25.737,0,0,0-2.919-1.226c-.044-.021-.086-.037-.129-.058l-.007.013a25.559,25.559,0,0,0-11.822-1.235A25.707,25.707,0,0,0,0,0" transform="translate(945.223 1293.489)" fill="#ffcb6a"/>
  </g>
</svg>
