<svg xmlns="http://www.w3.org/2000/svg" xmlns:xlink="http://www.w3.org/1999/xlink" width="42" height="18.724" viewBox="0 0 42 18.724">
  <defs>
    <clipPath id="clip-path">
      <rect id="Ret칙ngulo_336" data-name="Ret칙ngulo 336" width="42" height="10" transform="translate(1096 3166)" fill="none"/>
    </clipPath>
  </defs>
  <g id="pv_sec10tit4" transform="translate(-1096 -3166)">
    <g id="Grupo_de_m치scara_14" data-name="Grupo de m치scara 14" clip-path="url(#clip-path)">
      <path id="Caminho_3489" data-name="Caminho 3489" d="M0,0A8.5,8.5,0,0,0,8.5-8.5a8.5,8.5,0,0,0-8.5-8.5H-22.677a8.5,8.5,0,0,0-8.5,8.5,8.5,8.5,0,0,0,8.5,8.5Z" transform="translate(1128.479 3184.723)" fill="#ffcb6a"/>
    </g>
    <g id="Grupo_2317" data-name="Grupo 2317" transform="translate(1105.802 3169.373)">
      <path id="Caminho_3491" data-name="Caminho 3491" d="M0,0A6.846,6.846,0,0,0-6.846,6.846,6.846,6.846,0,0,0,0,13.693,6.846,6.846,0,0,0,6.846,6.846,6.846,6.846,0,0,0,0,0" fill="#0fbed2"/>
    </g>
    <g id="Grupo_2318" data-name="Grupo 2318" transform="translate(1105.802 3169.373)">
      <path id="Caminho_3492" data-name="Caminho 3492" d="M0,0A6.846,6.846,0,0,0-6.846,6.846,6.846,6.846,0,0,0,0,13.693,6.846,6.846,0,0,0,6.846,6.846,6.846,6.846,0,0,0,0,0Z" fill="none" stroke="#ffcb6a" stroke-width="3.315"/>
    </g>
  </g>
</svg>
