<svg xmlns="http://www.w3.org/2000/svg" xmlns:xlink="http://www.w3.org/1999/xlink" width="33" height="34" viewBox="0 0 33 34">
  <defs>
    <clipPath id="clip-path">
      <ellipse id="Elipse_9" data-name="Elipse 9" cx="16.5" cy="17" rx="16.5" ry="17" transform="translate(71 2621)" fill="none"/>
    </clipPath>
    <clipPath id="clip-path-2">
      <ellipse id="Elipse_10" data-name="Elipse 10" cx="11" cy="13" rx="11" ry="13" transform="translate(76 2625)" fill="none"/>
    </clipPath>
  </defs>
  <g id="pv_sec7tit1" transform="translate(-71 -2621)">
    <g id="Grupo_de_m치scara_19" data-name="Grupo de m치scara 19" clip-path="url(#clip-path)">
      <path id="Caminho_3581" data-name="Caminho 3581" d="M0,0A16.98,16.98,0,0,0-16.98,16.98,16.98,16.98,0,0,0,0,33.96H233.064a16.98,16.98,0,1,0,0-33.96Z" transform="translate(87.523 2621.16)" fill="#ff9147"/>
    </g>
    <g id="Grupo_de_m치scara_20" data-name="Grupo de m치scara 20" clip-path="url(#clip-path-2)">
      <g id="Grupo_2406" data-name="Grupo 2406" transform="translate(127.004 2638.032)">
        <path id="Caminho_3582" data-name="Caminho 3582" d="M0,0A12.7,12.7,0,0,0-12.7-12.7a12.636,12.636,0,0,0-5.691,1.358l-.023-.032c-.1.069-.207.128-.311.193-.188.1-.366.219-.548.33a11.752,11.752,0,0,1-11.641.381,12.663,12.663,0,0,0-1.135-.7l-.039-.029-.005.008a12.641,12.641,0,0,0-6-1.509A12.7,12.7,0,0,0-50.792,0a12.7,12.7,0,0,0,12.7,12.7,12.619,12.619,0,0,0,7.328-2.34,11.673,11.673,0,0,1,10.945.153,12.592,12.592,0,0,0,1.35.789l.059.037.005-.006A12.63,12.63,0,0,0-12.7,12.7,12.7,12.7,0,0,0,0,0" fill="#fff"/>
      </g>
    </g>
    <g id="Grupo_2408" data-name="Grupo 2408" transform="translate(98.118 2638.479)">
      <path id="Caminho_3584" data-name="Caminho 3584" d="M0,0-3.835-1.028-5.171-5.455A4.042,4.042,0,0,0-3.015-9.02a4.059,4.059,0,0,0-4.059-4.058,4.058,4.058,0,0,0-4.058,4.059A4.042,4.042,0,0,0-8.976-5.455L-9.9-2.41a1.57,1.57,0,0,0-1.131,1.1L-11.5.457l-1.209-2.028a4.043,4.043,0,0,0,1.23-3.981A4.058,4.058,0,0,0-16.4-8.507a4.058,4.058,0,0,0-2.956,4.92A4.042,4.042,0,0,0-16.4-.651l-.47,9.613a1.571,1.571,0,0,0,2.066,1.7l3.142-.784,3.87,1.038,1.342-5.008h0l-1.342,5.009L-3.25,12.13A1.589,1.589,0,0,0-1.3,11.006L-.093,6.484,1.124,1.946A1.589,1.589,0,0,0,0,0" fill="#fff"/>
    </g>
    <g id="Grupo_2409" data-name="Grupo 2409" transform="translate(98.118 2638.479)">
      <path id="Caminho_3585" data-name="Caminho 3585" d="M0,0-3.835-1.028-5.171-5.455A4.042,4.042,0,0,0-3.015-9.02a4.059,4.059,0,0,0-4.059-4.058,4.058,4.058,0,0,0-4.058,4.059A4.042,4.042,0,0,0-8.976-5.455L-9.9-2.41a1.57,1.57,0,0,0-1.131,1.1L-11.5.457l-1.209-2.028a4.043,4.043,0,0,0,1.23-3.981A4.058,4.058,0,0,0-16.4-8.507a4.058,4.058,0,0,0-2.956,4.92A4.042,4.042,0,0,0-16.4-.651l-.47,9.613a1.571,1.571,0,0,0,2.066,1.7l3.142-.784,3.87,1.038,1.342-5.008h0l-1.342,5.009L-3.25,12.13A1.589,1.589,0,0,0-1.3,11.006L-.093,6.484,1.124,1.946A1.589,1.589,0,0,0,0,0Z" fill="none" stroke="#fff" stroke-width="2.802"/>
    </g>
    <g id="Grupo_2410" data-name="Grupo 2410" transform="translate(95.692 2642.128)">
      <path id="Caminho_3586" data-name="Caminho 3586" d="M0,0-2.75-9.109A4.043,4.043,0,0,0-.594-12.673a4.059,4.059,0,0,0-4.059-4.059,4.058,4.058,0,0,0-4.058,4.059A4.043,4.043,0,0,0-6.555-9.109L-9.337.1A1.572,1.572,0,0,0-7.743,2.251h6.071A1.648,1.648,0,0,0,0,0" fill="#35bf9f"/>
    </g>
    <g id="Grupo_2411" data-name="Grupo 2411" transform="translate(90.277 2645.076)">
      <path id="Caminho_3587" data-name="Caminho 3587" d="M0,0-4.872-8.174a4.041,4.041,0,0,0,1.229-3.979,4.056,4.056,0,0,0-4.919-2.956,4.057,4.057,0,0,0-2.956,4.92A4.04,4.04,0,0,0-8.564-7.253l-.47,9.613a1.571,1.571,0,0,0,2.065,1.7l5.891-1.469A1.647,1.647,0,0,0,0,0" fill="#b43fa0"/>
    </g>
    <g id="Grupo_2412" data-name="Grupo 2412" transform="translate(89.032 2636.041)">
      <path id="Caminho_3588" data-name="Caminho 3588" d="M0,0A1.589,1.589,0,0,0-1.946,1.124L-3.162,5.662,2.911,7.289,4.538,1.216Z" fill="#ff9147"/>
    </g>
    <g id="Grupo_2413" data-name="Grupo 2413" transform="translate(98.025 2644.943)">
      <path id="Caminho_3589" data-name="Caminho 3589" d="M0,0-1.216,4.538A1.589,1.589,0,0,1-3.162,5.662L-7.7,4.445l1.627-6.072Z" fill="#ff9147"/>
    </g>
    <g id="Grupo_2414" data-name="Grupo 2414" transform="translate(93.575 2637.258)">
      <path id="Caminho_3590" data-name="Caminho 3590" d="M0,0-1.627,6.073,4.446,7.7,5.662,3.162A1.589,1.589,0,0,0,4.538,1.216Z" fill="#ffcb6a"/>
    </g>
    <g id="Grupo_2415" data-name="Grupo 2415" transform="translate(91.948 2643.314)">
      <path id="Caminho_3591" data-name="Caminho 3591" d="M0,0-1.627,6.073-6.166,4.856A1.588,1.588,0,0,1-7.289,2.911l1.216-4.538Z" fill="#ffcb6a"/>
    </g>
  </g>
</svg>
