<svg xmlns="http://www.w3.org/2000/svg" xmlns:xlink="http://www.w3.org/1999/xlink" width="88.453" height="61.753" viewBox="0 0 88.453 61.753">
  <defs>
    <clipPath id="clip-path">
      <path id="Caminho_3410" data-name="Caminho 3410" d="M6.759,3.421A23.689,23.689,0,0,1-16.785,27.251,23.69,23.69,0,0,1-40.331,3.421,23.69,23.69,0,0,1-16.785-20.41,23.689,23.689,0,0,1,6.759,3.421Z" transform="translate(77.407 243.219)"/>
    </clipPath>
    <clipPath id="clip-path-2">
      <path id="Caminho_3390" data-name="Caminho 3390" d="M0,0A22.472,22.472,0,0,0-28.443-14.181,22.333,22.333,0,0,0-37.232-8.7l-.056-.042c-.137.174-.276.332-.414.5-.259.276-.492.573-.736.862C-45.548.561-53.793.444-57.762-.21a22.632,22.632,0,0,0-2.3-.538l-.08-.027-.005.017A22.365,22.365,0,0,0-71.068.081,22.473,22.473,0,0,0-85.249,28.524,22.472,22.472,0,0,0-56.806,42.705,22.342,22.342,0,0,0-45.82,34.663a20.65,20.65,0,0,1,18.455-5.889,22.45,22.45,0,0,0,2.709.565c.041.011.08.018.121.029l0-.013a22.346,22.346,0,0,0,10.351-.912A22.473,22.473,0,0,0,0,0" transform="translate(124.285 224.102)" fill="#ff5639"/>
    </clipPath>
  </defs>
  <g id="original" transform="translate(-37 -208.752)">
    <g id="Grupo_2205" data-name="Grupo 2205" transform="translate(124.285 224.102)">
      <path id="Caminho_3390-2" data-name="Caminho 3390" d="M0,0A22.472,22.472,0,0,0-28.443-14.181,22.333,22.333,0,0,0-37.232-8.7l-.056-.042c-.137.174-.276.332-.414.5-.259.276-.492.573-.736.862C-45.548.561-53.793.444-57.762-.21a22.632,22.632,0,0,0-2.3-.538l-.08-.027-.005.017A22.365,22.365,0,0,0-71.068.081,22.473,22.473,0,0,0-85.249,28.524,22.472,22.472,0,0,0-56.806,42.705,22.342,22.342,0,0,0-45.82,34.663a20.65,20.65,0,0,1,18.455-5.889,22.45,22.45,0,0,0,2.709.565c.041.011.08.018.121.029l0-.013a22.346,22.346,0,0,0,10.351-.912A22.473,22.473,0,0,0,0,0" fill="#ff5639"/>
    </g>
    <g id="Grupo_2207" data-name="Grupo 2207" transform="translate(81.636 253.213)">
      <path id="Caminho_3392" data-name="Caminho 3392" d="M0,0A11.678,11.678,0,0,0-11.9-11.909C-18.7-11.966-24.4-6.725-24.639-.2" fill="none" stroke="#ff9073" stroke-width="4"/>
    </g>
    <path id="Caminho_3395" data-name="Caminho 3395" d="M65.975-61.753a22.424,22.424,0,0,0-7.132,1.169h0a22.357,22.357,0,0,0-8.79,5.475h0L50-55.149c-.137.172-.277.331-.414.5h0c-.259.278-.493.575-.736.863h0c-7.11,7.947-15.355,7.831-19.324,7.176h0a22.382,22.382,0,0,0-2.3-.537h0l-.079-.027h0l-.006.015a22.378,22.378,0,0,0-10.922.84h0A22.472,22.472,0,0,0,2.037-17.878h0A22.473,22.473,0,0,0,30.479-3.7h0A22.365,22.365,0,0,0,41.466-11.74h0a20.653,20.653,0,0,1,18.453-5.889h0a23.218,23.218,0,0,0,2.709.566h0c.043.01.08.017.123.028h0l0-.014A22.324,22.324,0,0,0,73.1-17.96h0A22.475,22.475,0,0,0,87.286-46.4h0A22.49,22.49,0,0,0,65.975-61.753Z" transform="translate(37 270.505)" fill="none"/>
    <g id="Grupo_2211" data-name="Grupo 2211" transform="translate(80.787 246.639)">
      <path id="Caminho_3396" data-name="Caminho 3396" d="M0,0A20.289,20.289,0,0,1-20.165,20.41,20.289,20.289,0,0,1-40.331,0,20.289,20.289,0,0,1-20.165-20.41,20.289,20.289,0,0,1,0,0" fill="#ffcb6a"/>
    </g>
    <g id="Grupo_2212" data-name="Grupo 2212" transform="translate(80.787 246.639)">
      <path id="Caminho_3397" data-name="Caminho 3397" d="M0,0A20.289,20.289,0,0,1-20.165,20.41,20.289,20.289,0,0,1-40.331,0,20.289,20.289,0,0,1-20.165-20.41,20.289,20.289,0,0,1,0,0Z" fill="none" stroke="#ffcb6a" stroke-width="6.912"/>
    </g>
    <g id="Grupo_2214" data-name="Grupo 2214" transform="translate(58.601 240.23)">
      <path id="Caminho_3399" data-name="Caminho 3399" d="M0,0A3.2,3.2,0,0,0,2.494-3.768,3.2,3.2,0,0,0-1.274-6.261,3.2,3.2,0,0,0-3.768-2.494,3.2,3.2,0,0,0,0,0" fill="#fff"/>
    </g>
    <g id="Grupo_de_m치scara_1" data-name="Grupo de m치scara 1" clip-path="url(#clip-path)">
      <g id="Grupo_2225" data-name="Grupo 2225">
        <g id="Grupo_2213" data-name="Grupo 2213" transform="translate(113.025 246.176)">
          <path id="Caminho_3398" data-name="Caminho 3398" d="M0,0A17.413,17.413,0,0,0-17.413-17.413a17.312,17.312,0,0,0-7.8,1.863l-.031-.044c-.143.094-.284.176-.426.265-.259.139-.5.3-.753.452a16.115,16.115,0,0,1-15.963.522,17.3,17.3,0,0,0-1.557-.96l-.052-.04-.008.011a17.327,17.327,0,0,0-8.231-2.069A17.413,17.413,0,0,0-69.651,0,17.413,17.413,0,0,0-52.238,17.413,17.309,17.309,0,0,0-42.189,14.2a16.005,16.005,0,0,1,15.008.21A17.493,17.493,0,0,0-25.329,15.5c.027.017.054.032.081.05l.006-.008a17.322,17.322,0,0,0,7.829,1.875A17.413,17.413,0,0,0,0,0" fill="#0fbed2"/>
        </g>
      </g>
    </g>
    <g id="Grupo_2215" data-name="Grupo 2215" transform="translate(58.601 240.23)">
      <path id="Caminho_3400" data-name="Caminho 3400" d="M0,0A3.2,3.2,0,0,0,2.494-3.768,3.2,3.2,0,0,0-1.274-6.261,3.2,3.2,0,0,0-3.768-2.494,3.2,3.2,0,0,0,0,0Z" fill="none" stroke="#fff" stroke-width="2"/>
    </g>
    <g id="Grupo_2216" data-name="Grupo 2216" transform="translate(52.93 238.382)">
      <path id="Caminho_3401" data-name="Caminho 3401" d="M0,0A2.835,2.835,0,0,0-2.213,3.343L.6,17.141a2.834,2.834,0,0,0,3.342,2.212l10.3-2.1a2.835,2.835,0,0,0,2.213-3.343L13.641.118A2.835,2.835,0,0,0,10.3-2.1Z" fill="#fff"/>
    </g>
    <g id="Grupo_2217" data-name="Grupo 2217" transform="translate(52.93 238.382)">
      <path id="Caminho_3402" data-name="Caminho 3402" d="M0,0A2.835,2.835,0,0,0-2.213,3.343L.6,17.141a2.834,2.834,0,0,0,3.342,2.212l10.3-2.1a2.835,2.835,0,0,0,2.213-3.343L13.641.118A2.835,2.835,0,0,0,10.3-2.1Z" fill="none" stroke="#fff" stroke-width="3"/>
    </g>
    <g id="Grupo_2218" data-name="Grupo 2218" transform="translate(58.69 240.356)">
      <path id="Caminho_3403" data-name="Caminho 3403" d="M0,0A3.2,3.2,0,0,0,2.494-3.768,3.2,3.2,0,0,0-1.274-6.261,3.2,3.2,0,0,0-3.768-2.494,3.2,3.2,0,0,0,0,0" fill="#b43fa0"/>
    </g>
    <g id="Grupo_2219" data-name="Grupo 2219" transform="translate(53.509 238.72)">
      <path id="Caminho_3404" data-name="Caminho 3404" d="M0,0A2.835,2.835,0,0,0-2.213,3.343L.4,16.184A2.835,2.835,0,0,0,3.743,18.4L13.054,16.5a2.835,2.835,0,0,0,2.213-3.343L12.654.318A2.835,2.835,0,0,0,9.311-1.895Z" fill="#fff"/>
    </g>
    <g id="Grupo_2220" data-name="Grupo 2220" transform="translate(53.509 238.72)">
      <path id="Caminho_3405" data-name="Caminho 3405" d="M0,0A2.835,2.835,0,0,0-2.213,3.343L.4,16.184A2.835,2.835,0,0,0,3.743,18.4L13.054,16.5a2.835,2.835,0,0,0,2.213-3.343L12.654.318A2.835,2.835,0,0,0,9.311-1.895Z" fill="none" stroke="#b43fa0" stroke-width="2"/>
    </g>
    <g id="Grupo_2221" data-name="Grupo 2221" transform="translate(60.652 252.554)">
      <path id="Caminho_3406" data-name="Caminho 3406" d="M0,0-7.574-6.582-4.95-9.6-.565-5.791,7.774-16.524l3.158,2.454Z" fill="#ff9147"/>
    </g>
    <g id="Grupo_de_m치scara_2" data-name="Grupo de m치scara 2" clip-path="url(#clip-path-2)">
      <path id="Caminho_3393" data-name="Caminho 3393" d="M0,0A14.116,14.116,0,0,1-11.975-6.387,13.2,13.2,0,0,1-13.7-16.59,14.14,14.14,0,0,1-7.105-25.5l2.06,3.428a10.181,10.181,0,0,0-4.759,6.4A9.231,9.231,0,0,0-8.6-8.539C-5.672-3.945.708-2.609,5.619-5.559L7.68-2.13A14.9,14.9,0,0,1,0,0" transform="translate(121.206 233.551)" fill="#ff9073"/>
      <path id="Caminho_3394" data-name="Caminho 3394" d="M0,0A9.687,9.687,0,0,1-8.479-4.638l3.452-2.021C-3.427-3.927.439-3.17,3.592-4.97A6.908,6.908,0,0,0,6.886-9.1a5.233,5.233,0,0,0-.493-4.026l3.451-2.021a9.2,9.2,0,0,1,.907,7.079A10.933,10.933,0,0,1,5.575-1.5,11.242,11.242,0,0,1,0,0" transform="translate(88.861 222.858)" fill="#ff9073"/>
    </g>
  </g>
</svg>
