<svg xmlns="http://www.w3.org/2000/svg" xmlns:xlink="http://www.w3.org/1999/xlink" width="73.703" height="47.941" viewBox="0 0 73.703 47.941">
  <defs>
    <clipPath id="clip-path">
      <path id="Caminho_3631" data-name="Caminho 3631" d="M54.87-50.01a18.8,18.8,0,0,0-5.138.731h0a18.686,18.686,0,0,0-9.468,6.317h0a17.266,17.266,0,0,1-15.627,4.246h0a19.173,19.173,0,0,0-2.242-.572h0c-.034-.011-.067-.018-.1-.028h0l0,.01a18.691,18.691,0,0,0-8.678.385h0A18.794,18.794,0,0,0,0-20.907H0v.092a18.8,18.8,0,0,0,.733,5.133h0A18.787,18.787,0,0,0,23.971-2.8h0a18.685,18.685,0,0,0,7.54-4.252h0l.045.037c.12-.141.242-.268.363-.4h0c.227-.22.432-.459.647-.692h0a17.4,17.4,0,0,1,16.4-5.29h0a18.518,18.518,0,0,0,1.9.535h0a.662.662,0,0,1,.066.025h0l.005-.014a18.668,18.668,0,0,0,9.152-.3h0A18.786,18.786,0,0,0,72.97-36.4h0A18.8,18.8,0,0,0,54.962-50.01h0Z" fill="none"/>
    </clipPath>
  </defs>
  <g id="pv_sec9" transform="translate(-75 -3069.011)">
    <g id="Grupo_2450" data-name="Grupo 2450" transform="translate(75.733 3103.339)">
      <path id="Caminho_3626" data-name="Caminho 3626" d="M0,0A18.787,18.787,0,0,0,23.238,12.881a18.692,18.692,0,0,0,7.54-4.253l.045.037c.121-.14.243-.267.364-.4.226-.221.431-.461.646-.692a17.388,17.388,0,0,1,16.4-5.29,18.455,18.455,0,0,0,1.9.533l.066.026,0-.013a18.707,18.707,0,0,0,9.153-.3A18.787,18.787,0,0,0,72.238-20.714,18.787,18.787,0,0,0,49-33.6a18.685,18.685,0,0,0-9.469,6.316A17.264,17.264,0,0,1,23.9-23.033a18.731,18.731,0,0,0-2.242-.571l-.1-.028,0,.01a18.686,18.686,0,0,0-8.677.384A18.787,18.787,0,0,0,0,0" fill="#ff9147"/>
    </g>
    <g id="Grupo_2455" data-name="Grupo 2455" transform="translate(75 3119.022)" clip-path="url(#clip-path)">
      <g id="Grupo_2452" data-name="Grupo 2452" transform="translate(90.055 -41.041)">
        <path id="Caminho_3628" data-name="Caminho 3628" d="M0,0A15.622,15.622,0,0,0-22.032,1.637,15.622,15.622,0,0,0-20.4,23.669" fill="none" stroke="#ffb681" stroke-width="4.988"/>
      </g>
      <g id="Grupo_2453" data-name="Grupo 2453" transform="translate(34.362 -45.021)">
        <path id="Caminho_3629" data-name="Caminho 3629" d="M0,0A15.622,15.622,0,0,0,21.548,4.876a15.623,15.623,0,0,0,4.876-21.548" fill="none" stroke="#ffb681" stroke-width="4.988"/>
      </g>
      <g id="Grupo_2454" data-name="Grupo 2454" transform="translate(49.467 5.72)">
        <path id="Caminho_3630" data-name="Caminho 3630" d="M0,0A10.526,10.526,0,0,0-6.637-13.314,10.526,10.526,0,0,0-20.28-7.381" fill="none" stroke="#ffb681" stroke-width="4.988"/>
      </g>
    </g>
  </g>
</svg>
