<svg xmlns="http://www.w3.org/2000/svg" xmlns:xlink="http://www.w3.org/1999/xlink" width="73.703" height="47.942" viewBox="0 0 73.703 47.942">
  <defs>
    <clipPath id="clip-path">
      <path id="Caminho_3544" data-name="Caminho 3544" d="M0,0A18.787,18.787,0,0,0,23.238,12.881a18.692,18.692,0,0,0,7.54-4.253l.045.037c.121-.14.243-.267.364-.4.226-.221.431-.461.646-.692a17.388,17.388,0,0,1,16.4-5.29,18.455,18.455,0,0,0,1.9.533l.066.026,0-.013a18.707,18.707,0,0,0,9.153-.3A18.787,18.787,0,0,0,72.238-20.714,18.787,18.787,0,0,0,49-33.6a18.685,18.685,0,0,0-9.469,6.316A17.264,17.264,0,0,1,23.9-23.033a18.731,18.731,0,0,0-2.242-.571l-.1-.028,0,.01a18.686,18.686,0,0,0-8.677.384A18.787,18.787,0,0,0,0,0" transform="translate(964.732 2604.888)" fill="#ff9147"/>
    </clipPath>
  </defs>
  <g id="pv_sec8tit" transform="translate(-964 -2570.56)">
    <g id="Grupo_2368" data-name="Grupo 2368" transform="translate(964.732 2604.888)">
      <path id="Caminho_3544-2" data-name="Caminho 3544" d="M0,0A18.787,18.787,0,0,0,23.238,12.881a18.692,18.692,0,0,0,7.54-4.253l.045.037c.121-.14.243-.267.364-.4.226-.221.431-.461.646-.692a17.388,17.388,0,0,1,16.4-5.29,18.455,18.455,0,0,0,1.9.533l.066.026,0-.013a18.707,18.707,0,0,0,9.153-.3A18.787,18.787,0,0,0,72.238-20.714,18.787,18.787,0,0,0,49-33.6a18.685,18.685,0,0,0-9.469,6.316A17.264,17.264,0,0,1,23.9-23.033a18.731,18.731,0,0,0-2.242-.571l-.1-.028,0,.01a18.686,18.686,0,0,0-8.677.384A18.787,18.787,0,0,0,0,0" fill="#ff9147"/>
    </g>
    <path id="Caminho_3550" data-name="Caminho 3550" d="M54.87-55.56a18.8,18.8,0,0,0-5.138.733h0a18.678,18.678,0,0,0-9.468,6.316h0a17.26,17.26,0,0,1-15.627,4.245h0a18.969,18.969,0,0,0-2.242-.57h0l-.1-.028h0l0,.01a18.677,18.677,0,0,0-8.678.384h0A18.8,18.8,0,0,0,0-26.456H0v.092a18.789,18.789,0,0,0,.733,5.132h0A18.787,18.787,0,0,0,23.971-8.351h0A18.677,18.677,0,0,0,31.51-12.6h0l.046.036c.12-.139.242-.266.363-.4h0c.227-.221.432-.461.647-.692h0a17.385,17.385,0,0,1,16.4-5.289h0a19.3,19.3,0,0,0,1.9.532h0l.066.026h0l.005-.013a18.715,18.715,0,0,0,9.152-.3h0A18.788,18.788,0,0,0,72.97-41.946h0A18.8,18.8,0,0,0,54.962-55.56h0Z" transform="translate(964 2626.12)" fill="none"/>
    <g id="Grupo_de_máscara_15" data-name="Grupo de máscara 15" clip-path="url(#clip-path)">
      <g id="Grupo_2370" data-name="Grupo 2370" transform="translate(1050.511 2583.074)">
        <path id="Caminho_3546" data-name="Caminho 3546" d="M0,0A15.622,15.622,0,0,0-22.032,1.637,15.622,15.622,0,0,0-20.4,23.669" fill="none" stroke="#ffb681" stroke-width="4.988"/>
      </g>
      <g id="Grupo_2371" data-name="Grupo 2371" transform="translate(994.11 2577.677)">
        <path id="Caminho_3547" data-name="Caminho 3547" d="M0,0A15.622,15.622,0,0,0,21.548,4.876a15.623,15.623,0,0,0,4.876-21.548" fill="none" stroke="#ffb681" stroke-width="4.988"/>
      </g>
      <g id="Grupo_2372" data-name="Grupo 2372" transform="translate(988.369 2606.011)">
        <path id="Caminho_3548" data-name="Caminho 3548" d="M0,0A15.621,15.621,0,0,0-10.457-19.461,15.621,15.621,0,0,0-29.918-9" fill="none" stroke="#ffb681" stroke-width="4.988"/>
      </g>
      <g id="Grupo_2373" data-name="Grupo 2373" transform="translate(983.648 2605.727)">
        <path id="Caminho_3549" data-name="Caminho 3549" d="M0,0A15.622,15.622,0,0,0-21.548,4.876a15.622,15.622,0,0,0,4.876,21.548" fill="none" stroke="#ffb681" stroke-width="4.988"/>
      </g>
    </g>
  </g>
</svg>
