<svg xmlns="http://www.w3.org/2000/svg" xmlns:xlink="http://www.w3.org/1999/xlink" width="73.703" height="47.942" viewBox="0 0 73.703 47.942">
  <defs>
    <clipPath id="clip-path">
      <path id="Caminho_3615" data-name="Caminho 3615" d="M54.87-50.278a18.839,18.839,0,0,0-5.138.734h0a18.678,18.678,0,0,0-9.468,6.316h0a17.26,17.26,0,0,1-15.627,4.244h0a18.774,18.774,0,0,0-2.242-.569h0c-.034-.011-.067-.018-.1-.029h0l0,.011a18.664,18.664,0,0,0-8.678.384h0A18.8,18.8,0,0,0,0-21.173H0v.091a18.8,18.8,0,0,0,.733,5.133h0A18.789,18.789,0,0,0,23.971-3.068h0A18.667,18.667,0,0,0,31.51-7.322h0l.046.036c.12-.138.242-.265.363-.4h0c.227-.221.432-.461.647-.693h0a17.39,17.39,0,0,1,16.4-5.289h0a19.3,19.3,0,0,0,1.9.533h0l.066.026h0l.005-.014a18.727,18.727,0,0,0,9.152-.3h0A18.788,18.788,0,0,0,72.97-36.663h0A18.8,18.8,0,0,0,54.962-50.278h0Z" fill="none"/>
    </clipPath>
  </defs>
  <g id="pv_sec6" transform="translate(-960 -2063.941)">
    <g id="Grupo_2434" data-name="Grupo 2434" transform="translate(960.732 2098.27)">
      <path id="Caminho_3610" data-name="Caminho 3610" d="M0,0A18.787,18.787,0,0,0,23.238,12.881a18.692,18.692,0,0,0,7.54-4.253l.045.037c.121-.14.243-.267.364-.4.226-.221.431-.461.646-.692a17.388,17.388,0,0,1,16.4-5.29,18.455,18.455,0,0,0,1.9.533l.066.026,0-.013a18.707,18.707,0,0,0,9.153-.3A18.787,18.787,0,0,0,72.238-20.714,18.787,18.787,0,0,0,49-33.6a18.685,18.685,0,0,0-9.469,6.316A17.264,17.264,0,0,1,23.9-23.033a18.731,18.731,0,0,0-2.242-.571l-.1-.028,0,.01a18.686,18.686,0,0,0-8.677.384A18.787,18.787,0,0,0,0,0" fill="#35bf9f"/>
    </g>
    <g id="Grupo_2439" data-name="Grupo 2439" transform="translate(960 2114.219)" clip-path="url(#clip-path)">
      <g id="Grupo_2436" data-name="Grupo 2436" transform="translate(90.055 -41.307)">
        <path id="Caminho_3612" data-name="Caminho 3612" d="M0,0A15.622,15.622,0,0,0-22.032,1.637,15.622,15.622,0,0,0-20.4,23.669" fill="none" stroke="#7bd3be" stroke-width="4.988"/>
      </g>
      <g id="Grupo_2437" data-name="Grupo 2437" transform="translate(34.362 -45.287)">
        <path id="Caminho_3613" data-name="Caminho 3613" d="M0,0A15.622,15.622,0,0,0,21.548,4.876a15.623,15.623,0,0,0,4.876-21.548" fill="none" stroke="#7bd3be" stroke-width="4.988"/>
      </g>
      <g id="Grupo_2438" data-name="Grupo 2438" transform="translate(49.467 5.453)">
        <path id="Caminho_3614" data-name="Caminho 3614" d="M0,0A10.526,10.526,0,0,0-6.637-13.314,10.526,10.526,0,0,0-20.28-7.381" fill="none" stroke="#7bd3be" stroke-width="4.988"/>
      </g>
    </g>
  </g>
</svg>
