<svg id="pv_sumario" xmlns="http://www.w3.org/2000/svg" xmlns:xlink="http://www.w3.org/1999/xlink" width="250.016" height="118.772" viewBox="0 0 250.016 118.772">
  <defs>
    <clipPath id="clip-path">
      <rect id="Retângulo_452" data-name="Retângulo 452" width="250.016" height="118.772" fill="none"/>
    </clipPath>
    <clipPath id="clip-path-2">
      <path id="Caminho_4960" data-name="Caminho 4960" d="M116.561,39.021A20.67,20.67,0,0,0,100.5,46.774a19,19,0,0,1-17.19,4.671,20.241,20.241,0,0,0-2.466-.627l-.111-.033,0,.012A20.633,20.633,0,0,0,56.2,71.034v.1A20.7,20.7,0,0,0,70.569,90.767H83.177a20.562,20.562,0,0,0,7.688-4.5l.049.04c.134-.152.268-.293.4-.44.249-.244.474-.507.712-.762,6.851-7.017,14.42-6.58,18.039-5.819a20.617,20.617,0,0,0,2.09.586l.073.029.005-.015a20.668,20.668,0,1,0,4.429-40.869Z" fill="none"/>
    </clipPath>
    <clipPath id="clip-path-3">
      <rect id="Retângulo_454" data-name="Retângulo 454" width="86.745" height="72.924" transform="translate(75.412 19.825)" fill="none"/>
    </clipPath>
    <clipPath id="clip-path-4">
      <rect id="Retângulo_453" data-name="Retângulo 453" width="86.744" height="72.924" transform="translate(75.412 19.825)" fill="none"/>
    </clipPath>
  </defs>
  <g id="Grupo_3701" data-name="Grupo 3701">
    <g id="Grupo_3690" data-name="Grupo 3690">
      <g id="Grupo_3689" data-name="Grupo 3689" clip-path="url(#clip-path)">
        <path id="Caminho_4957" data-name="Caminho 4957" d="M22.737,115.036A87.026,87.026,0,0,0,66.2,84.655c11.044-10.79,35.121-27.968,72.359-21.364a86.872,86.872,0,0,0,10.5,2.431c.16.045.311.077.467.123l.016-.051a87.03,87.03,0,0,0,40.381-2.669C219.585,53.913,242.413,27.9,250.016,0H0V118.772a80.125,80.125,0,0,0,22.737-3.736" fill="#eb412f"/>
        <path id="Caminho_4958" data-name="Caminho 4958" d="M57.01,76.781a20.636,20.636,0,0,0,33.856,9.491l.049.041c.133-.154.268-.294.4-.443.248-.243.474-.507.71-.761,6.851-7.016,14.42-6.579,18.04-5.819a20.567,20.567,0,0,0,2.091.587l.073.028,0-.014a20.673,20.673,0,1,0-11.74-33.117A18.989,18.989,0,0,1,83.3,51.445a20.615,20.615,0,0,0-2.466-.628l-.11-.031,0,.011A20.636,20.636,0,0,0,57.01,76.781" fill="#ffc04f"/>
      </g>
    </g>
    <g id="Grupo_3697" data-name="Grupo 3697">
      <g id="Grupo_3696" data-name="Grupo 3696" clip-path="url(#clip-path-2)">
        <g id="Grupo_3695" data-name="Grupo 3695" opacity="0.6">
          <g id="Grupo_3694" data-name="Grupo 3694">
            <g id="Grupo_3693" data-name="Grupo 3693" clip-path="url(#clip-path-3)">
              <g id="Grupo_3692" data-name="Grupo 3692">
                <g id="Grupo_3691" data-name="Grupo 3691" clip-path="url(#clip-path-4)">
                  <path id="Caminho_4959" data-name="Caminho 4959" d="M90.1,47.627A17.184,17.184,0,1,0,119.17,29.288m32.2,30.513a17.184,17.184,0,1,0-22.434,26.036" fill="none" stroke="#ffdfbe" stroke-width="5.487"/>
                </g>
              </g>
            </g>
          </g>
        </g>
      </g>
    </g>
    <g id="Grupo_3699" data-name="Grupo 3699">
      <g id="Grupo_3698" data-name="Grupo 3698" clip-path="url(#clip-path)">
        <path id="Caminho_4961" data-name="Caminho 4961" d="M77.805,80.436a6.384,6.384,0,1,0-6.385-6.385,6.385,6.385,0,0,0,6.385,6.385" fill="#fff"/>
        <path id="Caminho_4962" data-name="Caminho 4962" d="M88.2,82.323a16.383,16.383,0,0,0-6.44-27.162l.009-.049c-.159-.034-.307-.073-.462-.109-.264-.078-.535-.134-.8-.2A15.183,15.183,0,0,1,69.525,44.515a16.444,16.444,0,0,0-.4-1.676c0-.037-.009-.062-.009-.062l-.012,0a16.412,16.412,0,1,0-18.476,20.9A15.077,15.077,0,0,1,60.49,73.817,16.1,16.1,0,0,0,61,75.771c.006.03.014.058.02.088l.01,0A16.382,16.382,0,0,0,88.2,82.323" fill="#00a8c3"/>
        <path id="Caminho_4963" data-name="Caminho 4963" d="M76.8,79.327a8.49,8.49,0,1,0-8.489-8.489A8.489,8.489,0,0,0,76.8,79.327" fill="#fff"/>
        <path id="Caminho_4964" data-name="Caminho 4964" d="M76.8,79.327a8.49,8.49,0,1,0-8.489-8.489A8.489,8.489,0,0,0,76.8,79.327Z" fill="none" stroke="#ffc04f" stroke-width="3.293"/>
      </g>
    </g>
  </g>
</svg>
