<svg xmlns="http://www.w3.org/2000/svg" width="43.159" height="42.378" viewBox="0 0 43.159 42.378">
  <g id="pv_sec4tit1" transform="translate(-950.135 -1330.073)">
    <path id="Caminho_4702" data-name="Caminho 4702" d="M0,0A17.533,17.533,0,0,0,17.725-17.335,17.533,17.533,0,0,0,0-34.669,17.533,17.533,0,0,0-17.725-17.335,17.533,17.533,0,0,0,0,0" transform="translate(971.714 1368.596)" fill="#b43fa0"/>
    <path id="Caminho_4703" data-name="Caminho 4703" d="M0,0A17.533,17.533,0,0,0,17.725-17.335,17.533,17.533,0,0,0,0-34.669,17.533,17.533,0,0,0-17.725-17.335,17.533,17.533,0,0,0,0,0Z" transform="translate(971.714 1368.596)" fill="none" stroke="#ff5639" stroke-width="7.709"/>
    <path id="Caminho_4705" data-name="Caminho 4705" d="M0,0A12.882,12.882,0,0,0,12.882-12.882,12.881,12.881,0,0,0,0-25.764,12.881,12.881,0,0,0-12.882-12.882,12.882,12.882,0,0,0,0,0" transform="translate(971.714 1364.144)" fill="#ff5639"/>
    <path id="Caminho_4706" data-name="Caminho 4706" d="M0,0A12.882,12.882,0,0,0,12.882-12.882,12.881,12.881,0,0,0,0-25.764,12.881,12.881,0,0,0-12.882-12.882,12.882,12.882,0,0,0,0,0Z" transform="translate(971.714 1364.144)" fill="none" stroke="#fff" stroke-width="4.902"/>
  </g>
</svg>
