<svg xmlns="http://www.w3.org/2000/svg" xmlns:xlink="http://www.w3.org/1999/xlink" width="139" height="109" viewBox="0 0 139 109">
  <defs>
    <clipPath id="clip-path">
      <rect id="Ret칙ngulo_465" data-name="Ret칙ngulo 465" width="139" height="109" transform="translate(1331 325)" fill="none" stroke="#707070" stroke-width="1"/>
    </clipPath>
    <clipPath id="clip-path-2">
      <path id="Caminho_3445" data-name="Caminho 3445" d="M0,0A22.473,22.473,0,0,0-29.256-12.418a22.338,22.338,0,0,0-8.438,6l-.059-.038c-.126.182-.255.348-.382.523-.242.292-.456.6-.682.905-6.612,8.366-14.848,8.754-18.85,8.343a22.746,22.746,0,0,0-2.327-.4l-.082-.022,0,.017a22.367,22.367,0,0,0-10.851,1.5A22.473,22.473,0,0,0-83.349,33.675,22.475,22.475,0,0,0-54.093,46.094a22.344,22.344,0,0,0,10.474-8.7,20.654,20.654,0,0,1,18.061-7,22.59,22.59,0,0,0,2.739.4c.041.008.081.012.122.021l0-.013a22.351,22.351,0,0,0,10.275-1.542A22.473,22.473,0,0,0,0,0" transform="translate(1077.202 348.555)" fill="#0fbed2"/>
    </clipPath>
  </defs>
  <g id="pv_sec2tit1" transform="translate(-1331 -325)" clip-path="url(#clip-path)">
    <g id="pv_sec2" transform="translate(381.188 5.805)">
      <path id="Caminho_3417" data-name="Caminho 3417" d="M0,0C.01.136.016.23.016.23L.061.225A60.767,60.767,0,0,0,13.516,26.754a61.026,61.026,0,0,0,86.093,6.02,61.026,61.026,0,0,0,6.02-86.093,60.671,60.671,0,0,0-31.591-19.2c-.777-.312-1.6-.67-2.466-1.065H-2.156v63.2c.461,1.467.83,2.836,1.117,4.065A61.083,61.083,0,0,0,0,0" transform="translate(938.156 376.117)" fill="#ff5639"/>
      <path id="Caminho_3423" data-name="Caminho 3423" d="M0,0A11.553,11.553,0,0,0-11.553-11.553a11.488,11.488,0,0,0-5.178,1.236l-.021-.03c-.095.063-.188.117-.283.176-.171.093-.333.2-.5.3a10.692,10.692,0,0,1-10.591.347,11.745,11.745,0,0,0-1.033-.638l-.035-.026,0,.007a11.507,11.507,0,0,0-5.462-1.372A11.553,11.553,0,0,0-46.213,0,11.553,11.553,0,0,0-34.66,11.553a11.49,11.49,0,0,0,6.668-2.129,10.619,10.619,0,0,1,9.957.14,11.557,11.557,0,0,0,1.229.717l.054.034,0-.006a11.478,11.478,0,0,0,5.195,1.244A11.553,11.553,0,0,0,0,0" transform="translate(1001.719 350.899)" fill="#fff"/>
      <path id="Caminho_3424" data-name="Caminho 3424" d="M0,0A22.473,22.473,0,0,0-29.256-12.418a22.338,22.338,0,0,0-8.438,6l-.059-.038c-.126.182-.255.348-.382.523-.242.292-.456.6-.682.905-6.612,8.366-14.848,8.754-18.85,8.343a22.746,22.746,0,0,0-2.327-.4l-.082-.022,0,.017a22.367,22.367,0,0,0-10.851,1.5A22.473,22.473,0,0,0-83.349,33.675,22.475,22.475,0,0,0-54.093,46.094a22.344,22.344,0,0,0,10.474-8.7,20.654,20.654,0,0,1,18.061-7,22.59,22.59,0,0,0,2.739.4c.041.008.081.012.122.021l0-.013a22.351,22.351,0,0,0,10.275-1.542A22.473,22.473,0,0,0,0,0" transform="translate(1077.202 348.555)" fill="#0fbed2"/>
      <path id="Caminho_3429" data-name="Caminho 3429" d="M111.947-134.923a22.363,22.363,0,0,0-8.44,6h0l-.057-.037c-.126.182-.255.349-.384.523h0c-.24.292-.454.6-.68.906h0c-6.613,8.365-14.848,8.752-18.852,8.343h0a22.318,22.318,0,0,0-2.326-.4h0l-.082-.022h0l0,.016a22.373,22.373,0,0,0-10.85,1.5h0A22.474,22.474,0,0,0,57.854-88.828h0A22.473,22.473,0,0,0,87.108-76.409h0a22.345,22.345,0,0,0,10.475-8.7h0a20.658,20.658,0,0,1,18.062-7h0a22.224,22.224,0,0,0,2.737.4h0c.043.009.081.014.124.023h0l0-.014a22.355,22.355,0,0,0,10.276-1.541h0A22.477,22.477,0,0,0,141.2-122.5h0a22.483,22.483,0,0,0-20.845-14.06h0a22.431,22.431,0,0,0-8.411,1.641" transform="translate(936 471.059)" fill="none"/>
      <path id="Caminho_3430" data-name="Caminho 3430" d="M0,0A10.515,10.515,0,0,1-10.45,10.577,10.515,10.515,0,0,1-20.9,0,10.515,10.515,0,0,1-10.45-10.577,10.515,10.515,0,0,1,0,0" transform="translate(1023.755 373.351)" fill="#0fbed2"/>
      <g id="Grupo_de_m치scara_5" data-name="Grupo de m치scara 5" clip-path="url(#clip-path-2)">
        <path id="Caminho_3426" data-name="Caminho 3426" d="M0,0A19.288,19.288,0,0,1,15.529-22.387a19.152,19.152,0,0,1,14.409,3.129,19.142,19.142,0,0,1,7.977,12.4l-5.221.943A13.975,13.975,0,0,0,16.473-17.166,13.975,13.975,0,0,0,5.221-.945Z" transform="translate(995.754 407.609)" fill="#63d3e0"/>
        <path id="Caminho_3427" data-name="Caminho 3427" d="M0,0A19.215,19.215,0,0,1-14.038-6.056a19.14,19.14,0,0,1-5.224-13.788,19.136,19.136,0,0,1,6.056-13.443l3.635,3.863a13.867,13.867,0,0,0-4.388,9.742A13.867,13.867,0,0,0-10.174-9.69a13.979,13.979,0,0,0,19.734.6l3.634,3.863A19.192,19.192,0,0,1,0,0" transform="translate(1074.363 364.179)" fill="#63d3e0"/>
        <path id="Caminho_3428" data-name="Caminho 3428" d="M0,0A13.4,13.4,0,0,1-11.331-6.021l4.449-2.888C-4.408-5.1.924-4.156,5-6.806s5.386-7.905,2.913-11.715l4.449-2.888C16.432-15.146,14.425-6.6,7.894-2.356A14.491,14.491,0,0,1,0,0" transform="translate(1029.738 357.321)" fill="#63d3e0"/>
      </g>
      <path id="Caminho_3433" data-name="Caminho 3433" d="M0,0A15.7,15.7,0,0,0,0-22.2a15.612,15.612,0,0,0-6.162-3.787l.009-.048c-.151-.031-.293-.069-.441-.1-.253-.076-.511-.129-.768-.191A14.53,14.53,0,0,1-17.87-36.169a15.645,15.645,0,0,0-.38-1.6c0-.035-.008-.059-.008-.059l-.012,0A15.624,15.624,0,0,0-22.2-44.4a15.7,15.7,0,0,0-22.2,0,15.7,15.7,0,0,0,0,22.2,15.62,15.62,0,0,0,8.451,4.361,14.422,14.422,0,0,1,9.432,9.7,15.686,15.686,0,0,0,.491,1.87c.006.029.014.055.02.084h.009A15.607,15.607,0,0,0-22.2,0,15.7,15.7,0,0,0,0,0" transform="translate(1024.668 384.905)" fill="#ffcb6a"/>
      <path id="Caminho_3434" data-name="Caminho 3434" d="M0,0A9.084,9.084,0,0,0,9.084-9.084,9.084,9.084,0,0,0,0-18.168,9.084,9.084,0,0,0-9.084-9.084,9.084,9.084,0,0,0,0,0" transform="translate(990.874 359.983)" fill="#fff"/>
      <path id="Caminho_3435" data-name="Caminho 3435" d="M0,0A9.084,9.084,0,0,0,9.084-9.084,9.084,9.084,0,0,0,0-18.168,9.084,9.084,0,0,0-9.084-9.084,9.084,9.084,0,0,0,0,0Z" transform="translate(990.874 359.983)" fill="none" stroke="#ffcb6a" stroke-width="4.939"/>
    </g>
  </g>
</svg>
