<svg xmlns="http://www.w3.org/2000/svg" width="28.914" height="28.913" viewBox="0 0 28.914 28.913">
  <g id="pv_sec11tit1" transform="translate(-75 -3456.913)">
    <g id="Grupo_2354" data-name="Grupo 2354" transform="translate(89.457 3485.826)">
      <path id="Caminho_3529" data-name="Caminho 3529" d="M0,0A14.457,14.457,0,0,0,14.457-14.457,14.457,14.457,0,0,0,0-28.913,14.457,14.457,0,0,0-14.457-14.457,14.457,14.457,0,0,0,0,0" fill="#0fbed2"/>
    </g>
    <g id="Grupo_2355" data-name="Grupo 2355" transform="translate(87.952 3466.835)">
      <path id="Caminho_3530" data-name="Caminho 3530" d="M0,0A2.716,2.716,0,0,0,2.12-3.2a2.716,2.716,0,0,0-3.2-2.119A2.715,2.715,0,0,0-3.2-2.12,2.716,2.716,0,0,0,0,0" fill="#fff"/>
    </g>
    <g id="Grupo_2356" data-name="Grupo 2356" transform="translate(87.952 3466.835)">
      <path id="Caminho_3531" data-name="Caminho 3531" d="M0,0A2.716,2.716,0,0,0,2.12-3.2a2.716,2.716,0,0,0-3.2-2.119A2.715,2.715,0,0,0-3.2-2.12,2.716,2.716,0,0,0,0,0Z" fill="none" stroke="#fff" stroke-width="1.7"/>
    </g>
    <g id="Grupo_2357" data-name="Grupo 2357" transform="translate(83.131 3465.264)">
      <path id="Caminho_3532" data-name="Caminho 3532" d="M0,0A2.41,2.41,0,0,0-1.881,2.842L.5,14.57a2.409,2.409,0,0,0,2.842,1.88L12.1,14.669a2.409,2.409,0,0,0,1.881-2.841L11.594.1A2.409,2.409,0,0,0,8.753-1.781Z" fill="#fff"/>
    </g>
    <g id="Grupo_2358" data-name="Grupo 2358" transform="translate(83.131 3465.264)">
      <path id="Caminho_3533" data-name="Caminho 3533" d="M0,0A2.41,2.41,0,0,0-1.881,2.842L.5,14.57a2.409,2.409,0,0,0,2.842,1.88L12.1,14.669a2.409,2.409,0,0,0,1.881-2.841L11.594.1A2.409,2.409,0,0,0,8.753-1.781Z" fill="none" stroke="#fff" stroke-width="2.55"/>
    </g>
    <g id="Grupo_2359" data-name="Grupo 2359" transform="translate(88.027 3466.942)">
      <path id="Caminho_3534" data-name="Caminho 3534" d="M0,0A2.716,2.716,0,0,0,2.12-3.2a2.716,2.716,0,0,0-3.2-2.119A2.715,2.715,0,0,0-3.2-2.12,2.716,2.716,0,0,0,0,0" fill="#b43fa0"/>
    </g>
    <g id="Grupo_2360" data-name="Grupo 2360" transform="translate(83.623 3465.551)">
      <path id="Caminho_3535" data-name="Caminho 3535" d="M0,0A2.41,2.41,0,0,0-1.881,2.842L.34,13.757a2.408,2.408,0,0,0,2.841,1.88l7.915-1.61a2.409,2.409,0,0,0,1.881-2.841L10.756.271A2.409,2.409,0,0,0,7.915-1.61Z" fill="#fff"/>
    </g>
    <g id="Grupo_2361" data-name="Grupo 2361" transform="translate(83.623 3465.551)">
      <path id="Caminho_3536" data-name="Caminho 3536" d="M0,0A2.41,2.41,0,0,0-1.881,2.842L.34,13.757a2.408,2.408,0,0,0,2.841,1.88l7.915-1.61a2.409,2.409,0,0,0,1.881-2.841L10.756.271A2.409,2.409,0,0,0,7.915-1.61Z" fill="none" stroke="#b43fa0" stroke-width="1.7"/>
    </g>
    <g id="Grupo_2362" data-name="Grupo 2362" transform="translate(89.694 3477.31)">
      <path id="Caminho_3537" data-name="Caminho 3537" d="M0,0-6.437-5.595l2.23-2.566L-.48-4.922l7.088-9.124L9.293-11.96Z" fill="#ff9147"/>
    </g>
  </g>
</svg>
