<svg xmlns="http://www.w3.org/2000/svg" width="32.19" height="34.654" viewBox="0 0 32.19 34.654">
  <g id="pv_sec5tit1" transform="translate(-168.975 -2071.228)">
    <g id="Grupo_2425" data-name="Grupo 2425" transform="translate(185.069 2076.428)">
      <path id="Caminho_3601" data-name="Caminho 3601" d="M0,0A13.36,13.36,0,0,0-13.36,13.36,13.36,13.36,0,0,0,0,26.719,13.36,13.36,0,0,0,13.36,13.36,13.36,13.36,0,0,0,0,0" fill="#ffcb6a"/>
    </g>
    <g id="Grupo_2426" data-name="Grupo 2426" transform="translate(185.07 2079.163)">
      <path id="Caminho_3602" data-name="Caminho 3602" d="M0,0A10.625,10.625,0,0,0,0,21.25,10.638,10.638,0,0,0,10.625,10.625,10.638,10.638,0,0,0,0,0M0,26.719A16.112,16.112,0,0,1-16.095,10.625,16.113,16.113,0,0,1,0-5.47,16.113,16.113,0,0,1,16.095,10.625,16.112,16.112,0,0,1,0,26.719" fill="#ff5639"/>
    </g>
    <g id="Grupo_2427" data-name="Grupo 2427" transform="translate(192.63 2081.289)">
      <path id="Caminho_3603" data-name="Caminho 3603" d="M0,0A7.561,7.561,0,0,0-7.561-7.561,7.561,7.561,0,0,0-15.121,0a7.514,7.514,0,0,0,1.078,3.877c.028.06.042.116.074.176l4.922,9.273c.819,1.542,2.146,1.542,2.964,0l4.922-9.273c.024-.045.034-.086.055-.13A7.519,7.519,0,0,0,0,0" fill="#fff"/>
    </g>
    <g id="Grupo_2428" data-name="Grupo 2428" transform="translate(192.63 2081.289)">
      <path id="Caminho_3604" data-name="Caminho 3604" d="M0,0A7.561,7.561,0,0,0-7.561-7.561,7.561,7.561,0,0,0-15.121,0a7.514,7.514,0,0,0,1.078,3.877c.028.06.042.116.074.176l4.922,9.273c.819,1.542,2.146,1.542,2.964,0l4.922-9.273c.024-.045.034-.086.055-.13A7.519,7.519,0,0,0,0,0Z" fill="none" stroke="#fff" stroke-width="5"/>
    </g>
    <g id="Grupo_2429" data-name="Grupo 2429" transform="translate(186.547 2094.615)">
      <path id="Caminho_3605" data-name="Caminho 3605" d="M0,0C-.818,1.542-2.145,1.542-2.964,0L-7.886-9.273c-.819-1.542-.067-2.792,1.678-2.792H3.244c1.745,0,2.5,1.25,1.679,2.792Z" fill="#b43fa0"/>
    </g>
    <g id="Grupo_2430" data-name="Grupo 2430" transform="translate(186.547 2094.615)">
      <path id="Caminho_3606" data-name="Caminho 3606" d="M0,0C-.818,1.542-2.145,1.542-2.964,0L-7.886-9.273c-.819-1.542-.067-2.792,1.678-2.792H3.244c1.745,0,2.5,1.25,1.679,2.792Z" fill="none" stroke="#b43fa0" stroke-width="2.23"/>
    </g>
    <g id="Grupo_2431" data-name="Grupo 2431" transform="translate(185.069 2088.85)">
      <path id="Caminho_3607" data-name="Caminho 3607" d="M0,0A7.561,7.561,0,0,0,7.561-7.561,7.561,7.561,0,0,0,0-15.121a7.561,7.561,0,0,0-7.561,7.56A7.561,7.561,0,0,0,0,0" fill="#fff"/>
    </g>
    <g id="Grupo_2432" data-name="Grupo 2432" transform="translate(185.069 2088.85)">
      <path id="Caminho_3608" data-name="Caminho 3608" d="M0,0A7.561,7.561,0,0,0,7.561-7.561,7.561,7.561,0,0,0,0-15.121a7.561,7.561,0,0,0-7.561,7.56A7.561,7.561,0,0,0,0,0Z" fill="none" stroke="#b43fa0" stroke-width="2.23"/>
    </g>
  </g>
</svg>
