<svg xmlns="http://www.w3.org/2000/svg" xmlns:xlink="http://www.w3.org/1999/xlink" width="73.703" height="47.941" viewBox="0 0 73.703 47.941">
  <defs>
    <clipPath id="clip-path">
      <path id="Caminho_3598" data-name="Caminho 3598" d="M54.87-47.94a18.72,18.72,0,0,0-5.138.732h0a18.672,18.672,0,0,0-9.468,6.316h0a17.271,17.271,0,0,1-15.627,4.246h0a18.783,18.783,0,0,0-2.242-.572h0l-.1-.028h0l0,.01a18.7,18.7,0,0,0-8.678.385h0A18.793,18.793,0,0,0,0-18.838H0v.093a18.8,18.8,0,0,0,.733,5.132h0A18.8,18.8,0,0,0,18.74,0h.095a18.779,18.779,0,0,0,5.136-.733h0A18.677,18.677,0,0,0,31.51-4.986h0l.046.036c.12-.139.242-.265.363-.4h0c.227-.222.431-.46.647-.693h0a17.385,17.385,0,0,1,16.4-5.29h0a18.345,18.345,0,0,0,1.9.533h0l.066.026h0l.005-.012a18.692,18.692,0,0,0,9.152-.3h0A18.787,18.787,0,0,0,72.97-34.328h0A18.8,18.8,0,0,0,54.962-47.94h0Z" fill="none"/>
    </clipPath>
  </defs>
  <g id="pv_sec5" transform="translate(-67 -2057.941)">
    <g id="pv_sec5_dois" transform="translate(67.733 2092.268)">
      <path id="Caminho_3593" data-name="Caminho 3593" d="M0,0A18.787,18.787,0,0,0,23.238,12.881a18.692,18.692,0,0,0,7.54-4.253l.045.037c.121-.14.243-.267.364-.4.226-.221.431-.461.646-.692a17.388,17.388,0,0,1,16.4-5.29,18.455,18.455,0,0,0,1.9.533l.066.026,0-.013a18.707,18.707,0,0,0,9.153-.3A18.787,18.787,0,0,0,72.238-20.714,18.787,18.787,0,0,0,49-33.6a18.685,18.685,0,0,0-9.469,6.316A17.264,17.264,0,0,1,23.9-23.033a18.731,18.731,0,0,0-2.242-.571l-.1-.028,0,.01a18.686,18.686,0,0,0-8.677.384A18.787,18.787,0,0,0,0,0" fill="#35bf9f"/>
    </g>
    <g id="Grupo_2422" data-name="Grupo 2422" transform="translate(67 2105.882)" clip-path="url(#clip-path)">
      <g id="Grupo_2419" data-name="Grupo 2419" transform="translate(86.511 -29.05)">
        <path id="Caminho_3595" data-name="Caminho 3595" d="M0,0A15.622,15.622,0,0,0-22.032,1.637,15.622,15.622,0,0,0-20.4,23.669" fill="none" stroke="#7bd3be" stroke-width="4.988"/>
      </g>
      <g id="Grupo_2420" data-name="Grupo 2420" transform="translate(30.818 -40.117)">
        <path id="Caminho_3596" data-name="Caminho 3596" d="M0,0A15.622,15.622,0,0,0,21.548,4.876a15.623,15.623,0,0,0,4.876-21.548" fill="none" stroke="#7bd3be" stroke-width="4.988"/>
      </g>
      <g id="Grupo_2421" data-name="Grupo 2421" transform="translate(45.924 -0.006)">
        <path id="Caminho_3597" data-name="Caminho 3597" d="M0,0A10.526,10.526,0,0,0-6.637-13.314,10.526,10.526,0,0,0-20.28-7.381" fill="none" stroke="#7bd3be" stroke-width="4.988"/>
      </g>
    </g>
  </g>
</svg>
