<svg xmlns="http://www.w3.org/2000/svg" xmlns:xlink="http://www.w3.org/1999/xlink" width="135" height="105" viewBox="0 0 135 105">
  <defs>
    <clipPath id="clip-path">
      <rect id="Ret칙ngulo_467" data-name="Ret칙ngulo 467" width="135" height="105" transform="translate(1498 336)" fill="none" stroke="#707070" stroke-width="1"/>
    </clipPath>
    <clipPath id="clip-path-2">
      <path id="Caminho_3467" data-name="Caminho 3467" d="M0,0A23.6,23.6,0,0,0-30.719-13.039a23.452,23.452,0,0,0-8.86,6.3l-.061-.04c-.133.191-.268.366-.4.549-.254.307-.479.633-.716.951C-47.7,3.507-56.348,3.914-60.55,3.483a23.618,23.618,0,0,0-2.444-.417l-.086-.023,0,.018A23.479,23.479,0,0,0-74.477,4.64,23.6,23.6,0,0,0-87.516,35.359,23.6,23.6,0,0,0-56.8,48.4a23.469,23.469,0,0,0,11-9.132A21.686,21.686,0,0,1-26.836,31.91a23.442,23.442,0,0,0,2.876.419c.043.009.085.014.128.022l0-.013a23.478,23.478,0,0,0,10.789-1.619A23.6,23.6,0,0,0,0,0" transform="translate(200.813 1356.844)" fill="#ff5639"/>
    </clipPath>
  </defs>
  <g id="pv_sec3tit1" transform="translate(-1498 -336)" clip-path="url(#clip-path)">
    <g id="pv_sec3_um" transform="translate(1430.96 -994.118)">
      <path id="Caminho_3446" data-name="Caminho 3446" d="M0,0A51.4,51.4,0,0,0,17.3-26.1c3.733-8.319,13.245-22.969,35.135-27.4a51.465,51.465,0,0,0,6.3-.937c.1-.01.187-.025.283-.034l0-.031a51.392,51.392,0,0,0,21.61-10.207,51.64,51.64,0,0,0,19.015-46H-38.241V11.036A51.527,51.527,0,0,0,0,0" transform="translate(93.241 1423.783)" fill="#35bf9f"/>
      <path id="Caminho_3447" data-name="Caminho 3447" d="M0,0A12.131,12.131,0,0,0-12.131-12.131a12.067,12.067,0,0,0-5.437,1.3l-.021-.031c-.1.065-.2.122-.3.184-.179.1-.349.21-.524.315A11.225,11.225,0,0,1-29.532-10a12.367,12.367,0,0,0-1.084-.669l-.037-.027-.005.007a12.077,12.077,0,0,0-5.735-1.441A12.131,12.131,0,0,0-48.524,0,12.131,12.131,0,0,0-36.393,12.131a12.059,12.059,0,0,0,7-2.235,11.148,11.148,0,0,1,10.456.146,12.166,12.166,0,0,0,1.29.753c.019.013.038.023.057.036l0-.006a12.069,12.069,0,0,0,5.454,1.306A12.131,12.131,0,0,0,0,0" transform="translate(122.005 1359.643)" fill="#fff"/>
      <path id="Caminho_3448" data-name="Caminho 3448" d="M0,0A23.6,23.6,0,0,0-30.719-13.039a23.452,23.452,0,0,0-8.86,6.3l-.061-.04c-.133.191-.268.366-.4.549-.254.307-.479.633-.716.951C-47.7,3.507-56.348,3.914-60.55,3.483a23.618,23.618,0,0,0-2.444-.417l-.086-.023,0,.018A23.479,23.479,0,0,0-74.477,4.64,23.6,23.6,0,0,0-87.516,35.359,23.6,23.6,0,0,0-56.8,48.4a23.469,23.469,0,0,0,11-9.132A21.686,21.686,0,0,1-26.836,31.91a23.442,23.442,0,0,0,2.876.419c.043.009.085.014.128.022l0-.013a23.478,23.478,0,0,0,10.789-1.619A23.6,23.6,0,0,0,0,0" transform="translate(200.813 1356.844)" fill="#ff5639"/>
      <path id="Caminho_3453" data-name="Caminho 3453" d="M115.1-91.354a23.468,23.468,0,0,0-8.861,6.3h0l-.061-.039c-.132.189-.268.363-.4.548h0c-.253.306-.478.632-.716.95h0c-6.942,8.784-15.59,9.191-19.793,8.761h0a23.826,23.826,0,0,0-2.443-.418h0l-.086-.022h0l0,.018a23.49,23.49,0,0,0-11.393,1.578h0A23.6,23.6,0,0,0,58.3-42.956h0A23.594,23.594,0,0,0,89.015-29.917h0a23.456,23.456,0,0,0,11-9.132h0A21.687,21.687,0,0,1,118.977-46.4h0a23.636,23.636,0,0,0,2.876.419h0l.129.021h0l0-.013A23.452,23.452,0,0,0,132.774-47.6h0a23.6,23.6,0,0,0,13.039-30.718h0a23.6,23.6,0,0,0-21.887-14.764h0a23.514,23.514,0,0,0-8.831,1.724" transform="translate(55 1435.158)" fill="none"/>
      <path id="Caminho_3457" data-name="Caminho 3457" d="M0,0A9.538,9.538,0,0,0,9.538-9.538,9.538,9.538,0,0,0,0-19.076,9.538,9.538,0,0,0-9.538-9.538,9.538,9.538,0,0,0,0,0Z" transform="translate(110.214 1369.181)" fill="none" stroke="#ffcb6a" stroke-width="5.186"/>
      <g id="Grupo_de_m치scara_8" data-name="Grupo de m치scara 8" clip-path="url(#clip-path-2)">
        <path id="Caminho_3450" data-name="Caminho 3450" d="M0,0A17.443,17.443,0,0,0-20.268-14.061,17.444,17.444,0,0,0-34.329,6.208" transform="translate(152.362 1412.146)" fill="none" stroke="#ff9073" stroke-width="5.57"/>
        <path id="Caminho_3451" data-name="Caminho 3451" d="M0,0A17.443,17.443,0,0,0,23.9,25.41" transform="translate(185.875 1340.326)" fill="none" stroke="#ff9073" stroke-width="5.57"/>
        <path id="Caminho_3452" data-name="Caminho 3452" d="M0,0C3.44,5.3,10.752,6.652,16.333,3.028S23.65-7.828,20.21-13.125" transform="translate(141.414 1358.209)" fill="none" stroke="#ff9073" stroke-width="5.57"/>
      </g>
      <path id="Caminho_3454" data-name="Caminho 3454" d="M0,0A16.482,16.482,0,0,0,0-23.308a16.388,16.388,0,0,0-6.47-3.976l.009-.05c-.159-.033-.308-.073-.463-.109-.266-.079-.537-.135-.806-.2A15.255,15.255,0,0,1-18.763-37.978a16.665,16.665,0,0,0-.4-1.684c-.006-.037-.009-.062-.009-.062l-.012,0a16.4,16.4,0,0,0-4.125-6.894,16.48,16.48,0,0,0-23.307,0,16.48,16.48,0,0,0,0,23.307,16.394,16.394,0,0,0,8.873,4.579,15.142,15.142,0,0,1,9.9,10.184,16.387,16.387,0,0,0,.516,1.963c.006.031.014.059.021.089l.009,0A16.392,16.392,0,0,0-23.308,0,16.482,16.482,0,0,0,0,0" transform="translate(145.652 1395.01)" fill="#ffcb6a"/>
      <path id="Caminho_3455" data-name="Caminho 3455" d="M0,0A11.04,11.04,0,0,1-10.973,11.1,11.04,11.04,0,0,1-21.945,0,11.04,11.04,0,0,1-10.973-11.1,11.04,11.04,0,0,1,0,0" transform="translate(144.694 1382.879)" fill="#ff5639"/>
      <path id="Caminho_3456" data-name="Caminho 3456" d="M0,0A9.538,9.538,0,0,0,9.538-9.538,9.538,9.538,0,0,0,0-19.076,9.538,9.538,0,0,0-9.538-9.538,9.538,9.538,0,0,0,0,0" transform="translate(110.214 1369.181)" fill="#fff"/>
    </g>
  </g>
</svg>
