<svg xmlns="http://www.w3.org/2000/svg" width="19.843" height="19.844" viewBox="0 0 19.843 19.844">
  <g id="pv_sec2boxtiti" transform="translate(-945 -584.669)">
    <path id="Caminho_3673" data-name="Caminho 3673" d="M-117.583,0a9.921,9.921,0,0,0,9.921-9.921,9.921,9.921,0,0,0-9.921-9.922h0A9.921,9.921,0,0,0-127.5-9.921,9.921,9.921,0,0,0-117.583,0Z" transform="translate(1072.504 604.512)" fill="#0fbed2"/>
    <path id="Caminho_3674" data-name="Caminho 3674" d="M0,0A7.921,7.921,0,0,0-7.921,7.921,7.921,7.921,0,0,0,0,15.843,7.921,7.921,0,0,0,7.921,7.921,7.921,7.921,0,0,0,0,0" transform="translate(954.921 586.67)" fill="#ffcb6a"/>
    <path id="Caminho_3675" data-name="Caminho 3675" d="M0,0A7.921,7.921,0,0,0-7.921,7.921,7.921,7.921,0,0,0,0,15.843,7.921,7.921,0,0,0,7.921,7.921,7.921,7.921,0,0,0,0,0Z" transform="translate(954.921 586.67)" fill="none" stroke="#0fbed2" stroke-width="4"/>
  </g>
</svg>
