<svg xmlns="http://www.w3.org/2000/svg" xmlns:xlink="http://www.w3.org/1999/xlink" width="41.077" height="37.733" viewBox="0 0 41.077 37.733">
  <defs>
    <clipPath id="clip-path">
      <circle id="Elipse_7" data-name="Elipse 7" cx="17" cy="17" r="17" transform="translate(964 2078)" fill="none"/>
    </clipPath>
    <clipPath id="clip-path-2">
      <ellipse id="Elipse_8" data-name="Elipse 8" cx="12.5" cy="13" rx="12.5" ry="13" transform="translate(969 2082)" fill="none"/>
    </clipPath>
  </defs>
  <g id="pv_sec6tit1" transform="translate(-1061.976 -2078.486)">
    <g id="Grupo_de_m치scara_17" data-name="Grupo de m치scara 17" transform="translate(99 2)" clip-path="url(#clip-path)">
      <path id="Caminho_3616" data-name="Caminho 3616" d="M0,0A16.98,16.98,0,0,0-16.98,16.98,16.98,16.98,0,0,0,0,33.96H233.064a16.98,16.98,0,1,0,0-33.96Z" transform="translate(980.523 2078.116)" fill="#b43fa0"/>
    </g>
    <g id="Grupo_de_m치scara_18" data-name="Grupo de m치scara 18" transform="translate(99 2)" clip-path="url(#clip-path-2)">
      <g id="Grupo_2441" data-name="Grupo 2441" transform="translate(1020.379 2094.988)">
        <path id="Caminho_3617" data-name="Caminho 3617" d="M0,0A12.886,12.886,0,0,0-12.886-12.886a12.834,12.834,0,0,0-5.775,1.378,3.352,3.352,0,0,0-.339.164c-.191.1-.371.222-.556.335a11.924,11.924,0,0,1-11.813.386,12.9,12.9,0,0,0-1.152-.71l-.039-.03,0,.009a12.822,12.822,0,0,0-6.092-1.532A12.886,12.886,0,0,0-51.543,0,12.886,12.886,0,0,0-38.657,12.886a12.8,12.8,0,0,0,7.436-2.375,11.847,11.847,0,0,1,11.107.155,12.539,12.539,0,0,0,1.37.8c.02.013.04.024.06.038l0-.007a12.814,12.814,0,0,0,5.793,1.388A12.886,12.886,0,0,0,0,0" fill="#fff"/>
      </g>
    </g>
    <g id="Grupo_2443" data-name="Grupo 2443" transform="translate(1088.899 2080.949)">
      <path id="Caminho_3619" data-name="Caminho 3619" d="M0,0C-.432-1.284-1.131-1.284-1.563,0L-3.669,6.265A3.765,3.765,0,0,1-6.9,8.656l-6.1.164c-1.354.037-1.6.755-.542,1.605l4.92,3.964a4.019,4.019,0,0,1,1.243,3.9l-1.8,6.377c-.368,1.3.223,1.717,1.32.923l5.1-3.687a3.611,3.611,0,0,1,3.975,0l5.1,3.687c1.1.794,1.688.381,1.32-.923l-1.8-6.377a4.017,4.017,0,0,1,1.243-3.9l4.919-3.964c1.055-.85.813-1.568-.542-1.605l-6.1-.164A3.764,3.764,0,0,1,2.106,6.265Z" fill="#ffcb6a"/>
    </g>
    <g id="Grupo_2444" data-name="Grupo 2444" transform="translate(1088.899 2080.949)">
      <path id="Caminho_3620" data-name="Caminho 3620" d="M0,0C-.432-1.284-1.131-1.284-1.563,0L-3.669,6.265A3.765,3.765,0,0,1-6.9,8.656l-6.1.164c-1.354.037-1.6.755-.542,1.605l4.92,3.964a4.019,4.019,0,0,1,1.243,3.9l-1.8,6.377c-.368,1.3.223,1.717,1.32.923l5.1-3.687a3.611,3.611,0,0,1,3.975,0l5.1,3.687c1.1.794,1.688.381,1.32-.923l-1.8-6.377a4.017,4.017,0,0,1,1.243-3.9l4.919-3.964c1.055-.85.813-1.568-.542-1.605l-6.1-.164A3.764,3.764,0,0,1,2.106,6.265Z" fill="none" stroke="#fff" stroke-width="3"/>
    </g>
    <g id="Grupo_2445" data-name="Grupo 2445" transform="translate(1088.223 2104.402)">
      <path id="Caminho_3621" data-name="Caminho 3621" d="M0,0A10.2,10.2,0,0,0,0-14.43a10.2,10.2,0,0,0-14.43,0A10.207,10.207,0,0,0-16.274-2.519L-23.843,5.05a3.085,3.085,0,0,0,0,4.363,3.085,3.085,0,0,0,4.363,0l7.569-7.569A10.207,10.207,0,0,0,0,0" fill="#fff"/>
    </g>
    <g id="Grupo_2446" data-name="Grupo 2446" transform="translate(1088.223 2104.402)">
      <path id="Caminho_3622" data-name="Caminho 3622" d="M0,0A10.2,10.2,0,0,0,0-14.43a10.2,10.2,0,0,0-14.43,0A10.207,10.207,0,0,0-16.274-2.519L-23.843,5.05a3.085,3.085,0,0,0,0,4.363,3.085,3.085,0,0,0,4.363,0l7.569-7.569A10.207,10.207,0,0,0,0,0Z" fill="none" stroke="#fff" stroke-width="3"/>
    </g>
    <g id="Grupo_2447" data-name="Grupo 2447" transform="translate(1088.899 2080.949)">
      <path id="Caminho_3623" data-name="Caminho 3623" d="M0,0C-.432-1.284-1.131-1.284-1.563,0L-3.669,6.265A3.765,3.765,0,0,1-6.9,8.656l-6.1.164c-1.354.037-1.6.755-.542,1.605l4.92,3.964a4.019,4.019,0,0,1,1.243,3.9l-1.8,6.377c-.368,1.3.223,1.717,1.32.923l5.1-3.687a3.611,3.611,0,0,1,3.975,0l5.1,3.687c1.1.794,1.688.381,1.32-.923l-1.8-6.377a4.017,4.017,0,0,1,1.243-3.9l4.919-3.964c1.055-.85.813-1.568-.542-1.605l-6.1-.164A3.764,3.764,0,0,1,2.106,6.265Z" fill="#ffcb6a"/>
    </g>
    <g id="Grupo_2448" data-name="Grupo 2448" transform="translate(1088.223 2089.973)">
      <path id="Caminho_3624" data-name="Caminho 3624" d="M0,0A10.2,10.2,0,0,0-14.43,0a10.207,10.207,0,0,0-1.844,11.911l-7.569,7.569a3.085,3.085,0,0,0,0,4.363,3.085,3.085,0,0,0,4.363,0l7.569-7.569A10.207,10.207,0,0,0,0,14.43,10.2,10.2,0,0,0,0,0M-2.1,12.334a7.24,7.24,0,0,1-10.238,0,7.24,7.24,0,0,1,0-10.238A7.24,7.24,0,0,1-2.1,2.1a7.24,7.24,0,0,1,0,10.238" fill="#ff5639"/>
    </g>
  </g>
</svg>
