<svg xmlns="http://www.w3.org/2000/svg" width="35.333" height="36.281" viewBox="0 0 35.333 36.281">
  <g id="pv_sec9tit1" transform="translate(-166.976 -3082.741)">
    <ellipse id="Elipse_14" data-name="Elipse 14" cx="16.502" cy="17.5" rx="16.502" ry="17.5" transform="matrix(1, -0.017, 0.017, 1, 168.7, 3083.317)" fill="#35bf9f"/>
    <circle id="Elipse_13" data-name="Elipse 13" cx="13" cy="13" r="13" transform="translate(173 3087)" fill="#fff"/>
    <g id="Grupo_2458" data-name="Grupo 2458" transform="translate(193.223 3107.205)">
      <path id="Caminho_3634" data-name="Caminho 3634" d="M0,0A10.2,10.2,0,0,0,0-14.43a10.2,10.2,0,0,0-14.43,0A10.207,10.207,0,0,0-16.274-2.519L-23.843,5.05a3.085,3.085,0,0,0,0,4.363,3.085,3.085,0,0,0,4.363,0l7.569-7.569A10.207,10.207,0,0,0,0,0" fill="#fff"/>
    </g>
    <g id="Grupo_2459" data-name="Grupo 2459" transform="translate(193.223 3107.205)">
      <path id="Caminho_3635" data-name="Caminho 3635" d="M0,0A10.2,10.2,0,0,0,0-14.43a10.2,10.2,0,0,0-14.43,0A10.207,10.207,0,0,0-16.274-2.519L-23.843,5.05a3.085,3.085,0,0,0,0,4.363,3.085,3.085,0,0,0,4.363,0l7.569-7.569A10.207,10.207,0,0,0,0,0Z" fill="none" stroke="#fff" stroke-width="3"/>
    </g>
    <g id="Grupo_2460" data-name="Grupo 2460" transform="translate(193.223 3092.775)">
      <path id="Caminho_3636" data-name="Caminho 3636" d="M0,0A10.2,10.2,0,0,0-14.43,0a10.207,10.207,0,0,0-1.844,11.911l-7.569,7.569a3.085,3.085,0,0,0,0,4.363,3.085,3.085,0,0,0,4.363,0l7.569-7.569A10.207,10.207,0,0,0,0,14.43,10.2,10.2,0,0,0,0,0M-2.1,12.334a7.24,7.24,0,0,1-10.238,0,7.24,7.24,0,0,1,0-10.238A7.24,7.24,0,0,1-2.1,2.1a7.24,7.24,0,0,1,0,10.238" fill="#ff5639"/>
    </g>
  </g>
</svg>
