<svg xmlns="http://www.w3.org/2000/svg" width="17.78" height="17.377" viewBox="0 0 17.78 17.377">
  <g id="pv_sec2tit3_marc" transform="translate(-1085.693 -487.229)">
    <g id="Grupo_2263" data-name="Grupo 2263" transform="translate(1094.583 503.181)">
      <path id="Caminho_3440" data-name="Caminho 3440" d="M0,0A7.366,7.366,0,0,0,7.465-7.263,7.366,7.366,0,0,0,0-14.527,7.366,7.366,0,0,0-7.465-7.263,7.366,7.366,0,0,0,0,0" fill="#0fbed2"/>
    </g>
    <g id="Grupo_2264" data-name="Grupo 2264" transform="translate(1094.583 490.079)">
      <path id="Caminho_3441" data-name="Caminho 3441" d="M0,0A5.95,5.95,0,0,0-6.041,5.839,5.949,5.949,0,0,0,0,11.678,5.949,5.949,0,0,0,6.041,5.839,5.95,5.95,0,0,0,0,0M0,14.527A8.8,8.8,0,0,1-8.89,5.839,8.8,8.8,0,0,1,0-2.85,8.8,8.8,0,0,1,8.89,5.839,8.8,8.8,0,0,1,0,14.527" fill="#ffcb6a"/>
    </g>
  </g>
</svg>
