<svg xmlns="http://www.w3.org/2000/svg" xmlns:xlink="http://www.w3.org/1999/xlink" width="73.703" height="47.942" viewBox="0 0 73.703 47.942">
  <defs>
    <clipPath id="clip-path">
      <path id="Caminho_3580" data-name="Caminho 3580" d="M54.77-48.134a18.781,18.781,0,0,0-5.038.733h0a18.684,18.684,0,0,0-9.468,6.316h0A17.269,17.269,0,0,1,24.637-36.84h0a18.776,18.776,0,0,0-2.242-.57h0c-.034-.01-.067-.017-.1-.028h0l0,.011a18.664,18.664,0,0,0-8.678.383h0A18.8,18.8,0,0,0,0-19.031H0v.092a18.8,18.8,0,0,0,.733,5.133h0A18.787,18.787,0,0,0,23.971-.925h0a18.666,18.666,0,0,0,7.54-4.254h0l.045.036c.12-.138.242-.265.363-.4h0c.227-.222.432-.461.647-.693h0a17.386,17.386,0,0,1,16.4-5.29h0a19.025,19.025,0,0,0,1.9.532h0c.04.017.066.026.066.026h0l.005-.012a18.727,18.727,0,0,0,9.152-.3h0A18.788,18.788,0,0,0,72.97-34.52h0A18.8,18.8,0,0,0,55.062-48.134H54.77Z" fill="none"/>
    </clipPath>
  </defs>
  <g id="pv_sec7" transform="translate(-67 -2666.986)">
    <g id="Grupo_2399" data-name="Grupo 2399" transform="translate(67.733 2701.314)">
      <path id="Caminho_3575" data-name="Caminho 3575" d="M0,0A18.787,18.787,0,0,0,23.238,12.881a18.692,18.692,0,0,0,7.54-4.253l.045.037c.121-.14.243-.267.364-.4.226-.221.431-.461.646-.692a17.388,17.388,0,0,1,16.4-5.29,18.455,18.455,0,0,0,1.9.533l.066.026,0-.013a18.707,18.707,0,0,0,9.153-.3A18.787,18.787,0,0,0,72.238-20.714,18.787,18.787,0,0,0,49-33.6a18.685,18.685,0,0,0-9.469,6.316A17.264,17.264,0,0,1,23.9-23.033a18.731,18.731,0,0,0-2.242-.571l-.1-.028,0,.01a18.686,18.686,0,0,0-8.677.384A18.787,18.787,0,0,0,0,0" fill="#35bf9f"/>
    </g>
    <g id="Grupo_2404" data-name="Grupo 2404" transform="translate(67 2715.12)" clip-path="url(#clip-path)">
      <g id="Grupo_2401" data-name="Grupo 2401" transform="translate(68.032 -13.605)">
        <path id="Caminho_3577" data-name="Caminho 3577" d="M0,0A18,18,0,0,1-6.241-12.381,18,18,0,0,1-1.9-25.549,17.993,17.993,0,0,1,10.483-31.79a18,18,0,0,1,13.168,4.342L20.4-23.669a13.06,13.06,0,0,0-9.542-3.147A13.042,13.042,0,0,0,1.88-22.293a13.039,13.039,0,0,0-3.146,9.542A13.045,13.045,0,0,0,3.256-3.779Z" fill="#7bd3be"/>
      </g>
      <g id="Grupo_2402" data-name="Grupo 2402" transform="translate(47.609 -33.357)">
        <path id="Caminho_3578" data-name="Caminho 3578" d="M0,0A18.275,18.275,0,0,1-4.033-.453a18,18,0,0,1-11.323-8l4.218-2.662a13.042,13.042,0,0,0,8.2,5.8,13.044,13.044,0,0,0,9.9-1.7,13.144,13.144,0,0,0,4.1-18.108l4.219-2.662A18.14,18.14,0,0,1,9.632-2.8,18,18,0,0,1,0,0" fill="#7bd3be"/>
      </g>
      <g id="Grupo_2403" data-name="Grupo 2403" transform="translate(49.467 7.597)">
        <path id="Caminho_3579" data-name="Caminho 3579" d="M0,0A10.526,10.526,0,0,0-6.637-13.314,10.526,10.526,0,0,0-20.28-7.381" fill="none" stroke="#7bd3be" stroke-width="4.988"/>
      </g>
    </g>
  </g>
</svg>
