<svg xmlns="http://www.w3.org/2000/svg" width="48.188" height="48.189" viewBox="0 0 48.188 48.189">
  <g id="pv_tit2_num" transform="translate(-920.764 -187.918)">
    <path id="Caminho_3247" data-name="Caminho 3247" d="M0,0A21.594,21.594,0,0,0,21.594-21.594,21.594,21.594,0,0,0,0-43.189,21.594,21.594,0,0,0-21.594-21.594,21.594,21.594,0,0,0,0,0" transform="translate(944.858 233.607)" fill="#0fbed2"/>
    <path id="Caminho_3248" data-name="Caminho 3248" d="M0,0A19.116,19.116,0,0,0-19.094,19.095,19.116,19.116,0,0,0,0,38.189,19.116,19.116,0,0,0,19.094,19.095,19.116,19.116,0,0,0,0,0M0,43.189A24.121,24.121,0,0,1-24.094,19.095,24.122,24.122,0,0,1,0-5,24.122,24.122,0,0,1,24.094,19.095,24.121,24.121,0,0,1,0,43.189" transform="translate(944.858 192.918)" fill="#ffcb6a"/>
  </g>
</svg>
