<svg xmlns="http://www.w3.org/2000/svg" xmlns:xlink="http://www.w3.org/1999/xlink" width="311.363" height="198.906" viewBox="0 0 311.363 198.906">
  <defs>
    <clipPath id="clip-path">
      <path id="Caminho_3378" data-name="Caminho 3378" d="M0,0H311.363V-198.906H0Z" fill="none"/>
    </clipPath>
    <clipPath id="clip-path-2">
      <path id="Caminho_3382" data-name="Caminho 3382" d="M223.685-166.886a65.3,65.3,0,0,0-26.986,13.7h0s-1.09.88-1.534,1.33h0c-.824.74-1.529,1.427-2.313,2.205h0c-22.729,21.329-45.961,19.453-58.1,15.974h0c-2.717-.886-4.641-1.662-6.783-2.252h0a69.716,69.716,0,0,0-32.036-.292h0A65.687,65.687,0,0,0,47.4-57.009h0A65.689,65.689,0,0,0,126.607-8.468h0c13.743-3.3,24.39-9.676,34.037-20.619h0c8.889-9.441,27.676-19.221,55.237-12.448h0a65.783,65.783,0,0,0,7.745,2.336h0c.116.042.227.073.344.114h0l.015-.036a65.323,65.323,0,0,0,30.37-.017h0a65.69,65.69,0,0,0,48.539-79.21h0a65.715,65.715,0,0,0-63.82-50.369h0a65.777,65.777,0,0,0-15.389,1.831" fill="none"/>
    </clipPath>
  </defs>
  <g id="pv_tit1_a" transform="translate(0 198.906)">
    <g id="Grupo_2193" data-name="Grupo 2193" clip-path="url(#clip-path)">
      <g id="Grupo_2191" data-name="Grupo 2191" transform="translate(169.084 -51.033)">
        <path id="Caminho_3376" data-name="Caminho 3376" d="M0,0A62.828,62.828,0,0,0-38.252-80.2a62.465,62.465,0,0,0-28.786-3.064l-.053-.187c-.6.146-1.178.255-1.769.386-1.047.163-2.07.417-3.1.632-29.342,5.269-47.3-9.177-54.923-17.449a62.592,62.592,0,0,0-4.139-5.142l-.13-.2-.039.027a62.54,62.54,0,0,0-25.5-16.95,62.828,62.828,0,0,0-80.2,38.253A62.826,62.826,0,0,0-198.645-3.694,62.468,62.468,0,0,0-160.6-2.5c10.986-1.463,32.211-1,50.791,18.789a62.964,62.964,0,0,0,5,5.909c.072.093.145.177.217.271l.03-.022A62.477,62.477,0,0,0-80.2,38.251,62.828,62.828,0,0,0,0,0" fill="#ff5639"/>
      </g>
      <g id="Grupo_2192" data-name="Grupo 2192" transform="translate(302.894 -118.348)">
        <path id="Caminho_3377" data-name="Caminho 3377" d="M0,0A65.689,65.689,0,0,0-79.209-48.539,65.315,65.315,0,0,0-106.2-34.833s-1.089.879-1.533,1.33c-.824.739-1.529,1.425-2.313,2.2C-132.771-9.971-156-11.847-168.139-15.325c-2.717-.887-4.642-1.662-6.783-2.252a69.713,69.713,0,0,0-32.035-.292A65.689,65.689,0,0,0-255.5,61.339a65.689,65.689,0,0,0,79.209,48.54c13.745-3.3,24.391-9.676,34.038-20.619,8.888-9.441,27.675-19.22,55.237-12.447a65.64,65.64,0,0,0,7.744,2.337c.116.04.229.072.345.113l.014-.036a65.3,65.3,0,0,0,30.371-.018A65.689,65.689,0,0,0,0,0" fill="#0fbed2"/>
      </g>
    </g>
    <g id="Grupo_2197" data-name="Grupo 2197" clip-path="url(#clip-path-2)">
      <g id="Grupo_2194" data-name="Grupo 2194" transform="translate(309.053 -96.82)">
        <path id="Caminho_3379" data-name="Caminho 3379" d="M0,0A27.623,27.623,0,0,1-34.4-18.523,27.623,27.623,0,0,1-15.872-52.918" fill="none" stroke="#57d0de" stroke-width="9.702"/>
      </g>
      <g id="Grupo_2195" data-name="Grupo 2195" transform="translate(208.618 -171.592)">
        <path id="Caminho_3380" data-name="Caminho 3380" d="M0,0C2.776,18.575,20.432,31.331,39.436,28.491S71.594,8.29,68.818-10.285" fill="none" stroke="#57d0de" stroke-width="9.702"/>
      </g>
      <g id="Grupo_2196" data-name="Grupo 2196" transform="translate(159.791 -159.868)">
        <path id="Caminho_3381" data-name="Caminho 3381" d="M0,0A27.624,27.624,0,0,1,11.1,37.457,27.623,27.623,0,0,1-26.362,48.552" fill="none" stroke="#57d0de" stroke-width="9.702"/>
      </g>
    </g>
    <g id="Grupo_2200" data-name="Grupo 2200" clip-path="url(#clip-path)">
      <g id="Grupo_2198" data-name="Grupo 2198" transform="translate(149.45 -35.677)">
        <path id="Caminho_3383" data-name="Caminho 3383" d="M0,0A56.278,56.278,0,0,0,0-79.589,55.947,55.947,0,0,0-22.092-93.167s-1.028-.378-1.556-.5c-.909-.271-1.828-.5-2.747-.728C-52.15-101.45-61.1-120.056-64.071-129.682a56.189,56.189,0,0,0-1.362-5.753c-.018-.125-.029-.211-.029-.211l-.043.008a55.992,55.992,0,0,0-14.084-23.539,56.275,56.275,0,0,0-79.588,0,56.277,56.277,0,0,0,0,79.588,55.957,55.957,0,0,0,30.3,15.634c8.116,2.178,26.6,11.5,33.818,34.778.547,2.351,1.048,4.5,1.761,6.7.021.1.049.2.071.3l.032-.006A55.976,55.976,0,0,0-79.589,0,56.278,56.278,0,0,0,0,0" fill="#ffcb6a"/>
      </g>
      <g id="Grupo_2199" data-name="Grupo 2199" transform="translate(149.942 -72.452)">
        <path id="Caminho_3384" data-name="Caminho 3384" d="M0,0A39.686,39.686,0,0,1-39.685,39.685,39.685,39.685,0,0,1-79.37,0,39.685,39.685,0,0,1-39.685-39.685,39.686,39.686,0,0,1,0,0" fill="#0fbed2"/>
      </g>
    </g>
  </g>
</svg>
