<svg xmlns="http://www.w3.org/2000/svg" width="55.18" height="27.59" viewBox="0 0 55.18 27.59">
  <g id="pv_tit3" transform="translate(-39 -444.59)">
    <g id="Grupo_2064" data-name="Grupo 2064" transform="translate(94.18 458.385)">
      <path id="Caminho_3252" data-name="Caminho 3252" d="M-.18-.385c0-7.619-6.381-13-14-13a12.722,12.722,0,0,0-6,1h0c-.114.074.113-.07,0,0-.2.111-.8.879-1,1a11.3,11.3,0,0,1-12,0c-.4-.274-1.574-.769-2-1h0c-1.942-1.044-3.641-1-6-1-7.619,0-14,5.381-14,13a14.147,14.147,0,0,0,14,14c2.968,0,5.75-.4,8-2a12.787,12.787,0,0,1,12,0c.468.317.494.741,1,1h0a12.642,12.642,0,0,0,6,1,14.147,14.147,0,0,0,14-14" fill="#0fbed2"/>
    </g>
    <g id="Grupo_2065" data-name="Grupo 2065" transform="translate(62.135 458.252)">
      <path id="Caminho_3253" data-name="Caminho 3253" d="M0,0A9.385,9.385,0,0,1-9.638,9.111,9.385,9.385,0,0,1-19.276,0,9.385,9.385,0,0,1-9.638-9.111,9.385,9.385,0,0,1,0,0" fill="#ff5639"/>
    </g>
    <g id="Grupo_2066" data-name="Grupo 2066" transform="translate(62.135 458.252)">
      <path id="Caminho_3254" data-name="Caminho 3254" d="M0,0A9.385,9.385,0,0,1-9.638,9.111,9.385,9.385,0,0,1-19.276,0,9.385,9.385,0,0,1-9.638-9.111,9.385,9.385,0,0,1,0,0Z" fill="none" stroke="#ffcb6a" stroke-width="2.806"/>
    </g>
    <path id="Caminho_3255" data-name="Caminho 3255" d="M0,0H55.18V-27.59H0Z" transform="translate(39 472.18)" fill="none"/>
  </g>
</svg>
