<svg xmlns="http://www.w3.org/2000/svg" xmlns:xlink="http://www.w3.org/1999/xlink" width="40" height="35.151" viewBox="0 0 40 35.151">
  <defs>
    <clipPath id="clip-path">
      <rect id="Ret창ngulo_392" data-name="Ret창ngulo 392" width="40" height="35.151" transform="translate(0 0.001)" fill="none"/>
    </clipPath>
  </defs>
  <g id="tecla_on_c_fim" transform="translate(0 0)">
    <rect id="Ret창ngulo_391" data-name="Ret창ngulo 391" width="40" height="35.151" transform="translate(0 0.001)" fill="#fe9e36"/>
    <g id="Grupo_3331" data-name="Grupo 3331">
      <g id="Grupo_3330" data-name="Grupo 3330" clip-path="url(#clip-path)">
        <path id="Caminho_4560" data-name="Caminho 4560" d="M34.714,27.251a6.874,6.874,0,0,1-1.906,2.036,6.784,6.784,0,0,1-2.875,1.184,14.9,14.9,0,0,1-5.739-.589,36.335,36.335,0,0,0-5.793-1.09,34.119,34.119,0,0,1-3.7-.389,14.361,14.361,0,0,1-7.8-4.11A12.72,12.72,0,0,1,3.67,18.329a11.01,11.01,0,0,1,.73-7.151c.115-.234.243-.46.379-.683s.274-.443.429-.654C7.773,6.329,13.63,4.067,18.652,4.963a14.6,14.6,0,0,1,3.992,1.331c3.4,1.711,4.463,3.242,6.5,6.042a16.747,16.747,0,0,0,1.865,2.2,22.737,22.737,0,0,1,3.79,4.075c.9,1.463.985,4.712.768,6.247a6.326,6.326,0,0,1-.854,2.393" fill="#c00015"/>
        <path id="Caminho_4561" data-name="Caminho 4561" d="M28.938,25.984a4.029,4.029,0,0,1-1.024.143,2.48,2.48,0,0,1-2.611-2.8,2.472,2.472,0,0,1,2.644-2.777,3.376,3.376,0,0,1,.947.132l.474.132a.114.114,0,0,1,.088.155L29.2,21.8a.107.107,0,0,1-.143.077l-.375-.1a2.505,2.505,0,0,0-.738-.122c-.981,0-1.432.629-1.432,1.664,0,1.069.473,1.7,1.41,1.7a3.256,3.256,0,0,0,.815-.122l.363-.11a.116.116,0,0,1,.155.077l.253.827a.113.113,0,0,1-.087.154Z" fill="#fff"/>
        <path id="Caminho_4562" data-name="Caminho 4562" d="M27.437,12.807,17.9,26.007H16.369l9.557-13.2Z" fill="#fff"/>
        <path id="Caminho_4563" data-name="Caminho 4563" d="M12.182,15.651c0,2.057-1.075,3.345-2.817,3.345s-2.819-1.288-2.819-3.345,1.067-3.328,2.819-3.328,2.817,1.278,2.817,3.328m-4.569,0c0,1.482.648,2.382,1.752,2.382s1.742-.9,1.742-2.382-.649-2.373-1.742-2.373-1.752.88-1.752,2.373" fill="#fff"/>
        <path id="Caminho_4564" data-name="Caminho 4564" d="M18.59,18.792a.094.094,0,0,1-.1.1H17.375a.132.132,0,0,1-.119-.074,8.639,8.639,0,0,0-.483-.956L14.79,14.6c-.121-.215-.233-.428-.325-.622-.056-.1-.148-.065-.13.038a9.038,9.038,0,0,1,.083,1.287v3.494a.093.093,0,0,1-.1.1h-.853a.093.093,0,0,1-.1-.1V12.518a.093.093,0,0,1,.1-.1h1.111a.131.131,0,0,1,.121.076,10.565,10.565,0,0,0,.492.954l1.983,3.272c.121.222.233.434.325.62.047.121.139.074.12-.036a7.865,7.865,0,0,1-.073-1.271V12.518a.093.093,0,0,1,.1-.1h.842a.094.094,0,0,1,.1.1Z" fill="#fff"/>
        <path id="Caminho_4565" data-name="Caminho 4565" d="M37.777,21.919a7.309,7.309,0,0,0-3.3-5.137c-.531-.565-1.1-1.1-1.662-1.62A18.746,18.746,0,0,1,29.96,12.07a20.241,20.241,0,0,0-2.68-3.323,22.032,22.032,0,0,0-3.313-3.428c-5.227-3.8-12.828-2.15-17.359,1.36A13.322,13.322,0,0,0,5.274,25.148a.384.384,0,0,0,.483.093A14.873,14.873,0,0,0,16.191,29.5a13.676,13.676,0,0,1,6.46,1.483A12.661,12.661,0,0,0,27.592,32a10.374,10.374,0,0,0,7.58-3.021,8.669,8.669,0,0,0,2.6-7.056m-1.734,2.122a11.979,11.979,0,0,0-.055-2.41,11.611,11.611,0,0,1,.134,1.833c-.027.193-.037.386-.079.577m-1.141,1.3a5.966,5.966,0,0,1-.858,2.163c-.069.093-.136.186-.21.276-.1.13-.2.251-.306.374a6.819,6.819,0,0,1-.945.823,6.412,6.412,0,0,1-2.71,1.116,14.53,14.53,0,0,1-5.586-.582,42.822,42.822,0,0,0-5.016-1,11.492,11.492,0,0,0-2.342-.284,22.858,22.858,0,0,1-2.548-.388,13.852,13.852,0,0,1-7.432-4.263,12.207,12.207,0,0,1-2.914-5.886c-.048-.266-.051-.529-.08-.794a11.408,11.408,0,0,1,.564-3.285A8.94,8.94,0,0,1,8.274,7.618a11.967,11.967,0,0,1,2.057-1.181,15.377,15.377,0,0,1,5.82-1.272c.3,0,.591,0,.885.016.083,0,.166,0,.249.011.436.031.871.08,1.3.152a14.753,14.753,0,0,1,2.034.525,14.1,14.1,0,0,1,1.417.589c.163.075.335.133.5.214.183.093.34.184.51.276a14.854,14.854,0,0,1,3.294,2.483c.5.637.979,1.286,1.45,1.928.5.681,1.022,1.367,1.561,2.045a15.883,15.883,0,0,0,1.435,1.782c.272.283.55.564.829.844a16.405,16.405,0,0,1,2.745,3.286c.755,1.338.827,4.461.547,6.021m-.289,3.1a8.154,8.154,0,0,1-1.674,1.317l0,0a8.43,8.43,0,0,0,1.5-1.266q.353-.37.66-.763a.353.353,0,0,0,.029.144c-.162.195-.334.387-.514.572m2.213-3.806c.033-.3.045-.613.054-.922a7.326,7.326,0,0,0,.044-2.069,6.591,6.591,0,0,0-.192-.79,6.2,6.2,0,0,1,.278,1.165,6.845,6.845,0,0,1-.184,2.616" fill="#fff"/>
      </g>
    </g>
  </g>
</svg>
