<svg xmlns="http://www.w3.org/2000/svg" xmlns:xlink="http://www.w3.org/1999/xlink" width="40" height="34.802" viewBox="0 0 40 34.802">
  <defs>
    <clipPath id="clip-path">
      <rect id="Retângulo_378" data-name="Retângulo 378" width="40" height="34.802" transform="translate(0 0)" fill="none"/>
    </clipPath>
  </defs>
  <g id="tecla_m_menos_fim" transform="translate(0 0)">
    <rect id="Retângulo_376" data-name="Retângulo 376" width="40" height="34.802" transform="translate(0 0)" fill="#fe9e36"/>
    <g id="Grupo_3310" data-name="Grupo 3310">
      <g id="Grupo_3309" data-name="Grupo 3309" clip-path="url(#clip-path)">
        <path id="Caminho_4542" data-name="Caminho 4542" d="M32.289,27.461H7.43a1.078,1.078,0,0,1-1.078-1.078V7.638A1.078,1.078,0,0,1,7.43,6.56H32.289a1.078,1.078,0,0,1,1.078,1.078V26.383a1.078,1.078,0,0,1-1.078,1.078" fill="#0055a5"/>
        <path id="Caminho_4543" data-name="Caminho 4543" d="M34.843,19.284c-.085-.609-.173-1.229-.242-1.848.08-2.7.158-5.478.147-8.232V9.193c0-.03,0-.061,0-.091a3.036,3.036,0,0,0-.856-2.138A5.222,5.222,0,0,0,30.81,5.893c-1.131-.1-2.254-.186-3.4-.191a17.914,17.914,0,0,0-3.529.249,7.571,7.571,0,0,1-1.74.017,11.471,11.471,0,0,0-1.387-.032c-.933-.062-1.862-.141-2.778-.219-1.746-.147-3.524-.288-5.307-.325a31.807,31.807,0,0,0-5.36.25,2.92,2.92,0,0,0-1.989.889,2.524,2.524,0,0,0-.43,1.386c-.064.735-.1,1.476-.113,2.219s-.008,1.488.025,2.23a.424.424,0,0,0,.153.3c-.07,2.067-.126,4.159-.154,6.265s-.036,4.253.009,6.4a4.043,4.043,0,0,0,.506,2.215,2.736,2.736,0,0,0,1.5,1.065,4.79,4.79,0,0,0,1.69.413,69.8,69.8,0,0,0,7.542.407q3.219,0,6.428-.3a51.5,51.5,0,0,0,8.249.122,9.367,9.367,0,0,0,1.382.03,2.578,2.578,0,0,0,1.934-.787,2.5,2.5,0,0,0,.732-1.245,11.464,11.464,0,0,0,.455-3.789,28.982,28.982,0,0,0-.38-4.181m-4.3-12.069a3.345,3.345,0,0,1,.963.327,2.714,2.714,0,0,1,1.1,1.625,13.284,13.284,0,0,1,.346,4.373c-.019.661-.037,1.323-.017,1.98.017.539.06,1.083.117,1.624,0,.114-.007.227-.01.34-.084,2.774-.172,5.642-.161,8.483a1.629,1.629,0,0,1-.1.725.423.423,0,0,1-.023.041,2.069,2.069,0,0,1-.747.233q-.9.156-1.814.237c-.463-.043-.931-.111-1.41-.182-.61-.09-1.241-.181-1.872-.218-.233-.014-.467-.02-.7-.02a26.472,26.472,0,0,0-2.78.194l-.53.056-.569.055-.509-.036c-1.243-.09-2.483-.179-3.717-.229l-.918-.039a57.027,57.027,0,0,0-7.04-.008,7.034,7.034,0,0,1-2.388-.12,1.3,1.3,0,0,1-.194-.133,2.6,2.6,0,0,1-.617-1.884c-.276-4.543-.394-9.155-.351-13.708a10.1,10.1,0,0,1,.329-2.985.423.423,0,0,0-.03-.33,1.164,1.164,0,0,1,.32-.378,1.79,1.79,0,0,1,.911-.3c.052,0,.1-.005.153-.006.674-.011,1.277-.028,1.842-.044a38.884,38.884,0,0,1,5.493.118,32.618,32.618,0,0,0,4.452-.131l.712-.051c1.057.07,2.118.12,3.173.128.571,0,1.143,0,1.72-.011,1.225-.014,2.469-.022,3.691.086.394.047.786.1,1.171.187" fill="#fff"/>
        <path id="Caminho_4544" data-name="Caminho 4544" d="M20.59,21.067a.121.121,0,0,1-.134.132H19.367a.121.121,0,0,1-.134-.132V17.182a18.413,18.413,0,0,1,.108-2.3c.026-.157-.108-.192-.168-.036-.117.325-.251.634-.382.959L17.652,18.49c-.131.325-.3.79-.432,1.187a.145.145,0,0,1-.155.108h-1a.144.144,0,0,1-.144-.108c-.132-.4-.3-.862-.431-1.187l-1.139-2.685c-.143-.325-.275-.634-.394-.959-.06-.156-.18-.121-.169.036a18.213,18.213,0,0,1,.12,2.3v3.885a.12.12,0,0,1-.131.132H12.687a.119.119,0,0,1-.13-.132V12.952a.118.118,0,0,1,.13-.131h1.682a.143.143,0,0,1,.154.106,7.205,7.205,0,0,0,.3.888l1.2,2.875c.167.434.347.985.464,1.392.037.132.134.132.171,0,.117-.419.287-.972.441-1.392l1.21-2.863a7.667,7.667,0,0,0,.324-.9.126.126,0,0,1,.144-.106h1.678a.12.12,0,0,1,.134.131Z" fill="#fff"/>
        <path id="Retângulo_377" data-name="Retângulo 377" d="M.13,0H4.744a.131.131,0,0,1,.131.131v.923a.132.132,0,0,1-.132.132H.13A.13.13,0,0,1,0,1.056V.13A.13.13,0,0,1,.13,0Z" transform="translate(22.287 16.417)" fill="#fff"/>
      </g>
    </g>
  </g>
</svg>
