<svg xmlns="http://www.w3.org/2000/svg" xmlns:xlink="http://www.w3.org/1999/xlink" width="40" height="34.802" viewBox="0 0 40 34.802">
  <defs>
    <clipPath id="clip-path">
      <rect id="Ret창ngulo_386" data-name="Ret창ngulo 386" width="40" height="34.802" transform="translate(0 0)" fill="none"/>
    </clipPath>
  </defs>
  <g id="tecla_multiplicacao_fim" transform="translate(0 0)">
    <rect id="Ret창ngulo_385" data-name="Ret창ngulo 385" width="40" height="34.802" transform="translate(0 0)" fill="#fe9e36"/>
    <g id="Grupo_3322" data-name="Grupo 3322">
      <g id="Grupo_3321" data-name="Grupo 3321" clip-path="url(#clip-path)">
        <path id="Caminho_4553" data-name="Caminho 4553" d="M32.43,27.851H7.571a1.078,1.078,0,0,1-1.078-1.078V8.028A1.078,1.078,0,0,1,7.571,6.95H32.43a1.078,1.078,0,0,1,1.078,1.078V26.773a1.078,1.078,0,0,1-1.078,1.078" fill="#0055a5"/>
        <path id="Caminho_4554" data-name="Caminho 4554" d="M34.843,19.284c-.085-.609-.173-1.229-.242-1.848.08-2.7.158-5.478.147-8.232V9.193c0-.03,0-.061,0-.091a3.036,3.036,0,0,0-.856-2.138A5.222,5.222,0,0,0,30.81,5.893c-1.126-.1-2.244-.186-3.387-.191a17.987,17.987,0,0,0-3.543.249,7.516,7.516,0,0,1-1.74.017,11.669,11.669,0,0,0-1.387-.032c-.933-.062-1.864-.141-2.778-.219-1.743-.146-3.517-.287-5.3-.324a31.711,31.711,0,0,0-5.37.249,2.919,2.919,0,0,0-1.988.889,2.512,2.512,0,0,0-.431,1.386c-.065.74-.1,1.486-.113,2.231s-.008,1.482.025,2.218a.425.425,0,0,0,.153.3c-.07,2.074-.126,4.171-.154,6.28s-.035,4.248.01,6.38a4.045,4.045,0,0,0,.505,2.215,2.737,2.737,0,0,0,1.5,1.066,4.8,4.8,0,0,0,1.687.412,69.787,69.787,0,0,0,7.542.407q3.219,0,6.428-.3a51.735,51.735,0,0,0,8.249.122,9.237,9.237,0,0,0,1.382.03,2.578,2.578,0,0,0,1.934-.787,2.5,2.5,0,0,0,.732-1.245,11.464,11.464,0,0,0,.455-3.789,28.982,28.982,0,0,0-.38-4.181m-4.3-12.069a3.345,3.345,0,0,1,.963.327,2.714,2.714,0,0,1,1.1,1.625,13.284,13.284,0,0,1,.346,4.373c-.019.661-.037,1.323-.017,1.98.017.539.06,1.083.117,1.624,0,.114-.007.227-.01.34-.084,2.774-.172,5.642-.161,8.483a1.629,1.629,0,0,1-.1.725.423.423,0,0,1-.023.041,2.069,2.069,0,0,1-.747.233q-.9.156-1.814.237c-.463-.043-.931-.111-1.41-.182-.61-.09-1.241-.181-1.872-.218-.233-.014-.467-.02-.7-.02a26.472,26.472,0,0,0-2.78.194l-.53.056-.569.055-.509-.036c-1.243-.09-2.483-.179-3.717-.229l-.918-.039a56.444,56.444,0,0,0-7.04-.008,7.013,7.013,0,0,1-2.391-.121,1.359,1.359,0,0,1-.192-.132,2.6,2.6,0,0,1-.617-1.884c-.276-4.543-.393-9.155-.35-13.708a10.056,10.056,0,0,1,.329-2.985.427.427,0,0,0-.03-.33,1.164,1.164,0,0,1,.32-.378,1.8,1.8,0,0,1,.912-.3c.052,0,.1-.005.154-.006.673-.011,1.275-.028,1.841-.044a38.856,38.856,0,0,1,5.492.118,32.771,32.771,0,0,0,4.452-.131l.712-.051c1.057.07,2.118.12,3.173.128.573,0,1.145,0,1.72-.011a36.682,36.682,0,0,1,3.692.086c.394.047.785.1,1.17.187" fill="#fff"/>
        <path id="Caminho_4555" data-name="Caminho 4555" d="M24.912,20.965l-3.956-3.956,3.959-3.958c.234-.234.323-.413.246-.49l-.852-.853c-.076-.076-.256.015-.488.247l-3.96,3.961L15.9,11.955c-.232-.232-.413-.323-.49-.247l-.852.853c-.079.077.013.256.247.49l3.962,3.958-3.956,3.956c-.236.24-.33.418-.253.495l.852.85c.077.079.258-.011.494-.249L19.861,18.1l3.955,3.956c.237.238.417.328.493.249l.852-.85c.077-.077-.012-.255-.249-.495" fill="#fff"/>
      </g>
    </g>
  </g>
</svg>
