<svg xmlns="http://www.w3.org/2000/svg" xmlns:xlink="http://www.w3.org/1999/xlink" width="40" height="34.802" viewBox="0 0 40 34.802">
  <defs>
    <clipPath id="clip-path">
      <rect id="Ret창ngulo_373" data-name="Ret창ngulo 373" width="40" height="34.802" transform="translate(0 0)" fill="none"/>
    </clipPath>
  </defs>
  <g id="tecla_divisao_fim" transform="translate(0 0)">
    <rect id="Ret창ngulo_372" data-name="Ret창ngulo 372" width="40" height="34.802" transform="translate(0 0)" fill="#fe9e36"/>
    <g id="Grupo_3304" data-name="Grupo 3304">
      <g id="Grupo_3303" data-name="Grupo 3303" clip-path="url(#clip-path)">
        <path id="Caminho_4535" data-name="Caminho 4535" d="M32.289,27.461H7.43a1.078,1.078,0,0,1-1.078-1.078V7.638A1.078,1.078,0,0,1,7.43,6.56H32.289a1.078,1.078,0,0,1,1.078,1.078V26.383a1.078,1.078,0,0,1-1.078,1.078" fill="#0055a5"/>
        <path id="Caminho_4536" data-name="Caminho 4536" d="M34.842,19.28c-.085-.608-.173-1.227-.242-1.845.081-2.7.158-5.477.149-8.232V9.192c0-.03,0-.06,0-.091a3.057,3.057,0,0,0-.856-2.138,5.231,5.231,0,0,0-3.084-1.07c-1.129-.1-2.255-.187-3.407-.191a17.865,17.865,0,0,0-3.523.249,7.577,7.577,0,0,1-1.74.016,11.955,11.955,0,0,0-1.39-.031c-.931-.063-1.857-.141-2.769-.219-1.747-.147-3.525-.288-5.307-.325a31.861,31.861,0,0,0-5.365.249,2.939,2.939,0,0,0-1.99.89,2.526,2.526,0,0,0-.429,1.386c-.065.741-.1,1.487-.113,2.233s-.008,1.48.025,2.216a.425.425,0,0,0,.153.3q-.107,3.113-.155,6.28c-.031,2.118-.034,4.248.011,6.38a4.036,4.036,0,0,0,.505,2.215,2.737,2.737,0,0,0,1.5,1.066,4.8,4.8,0,0,0,1.687.412,70.127,70.127,0,0,0,7.545.407q3.219,0,6.425-.3a51.822,51.822,0,0,0,8.246.122,9.832,9.832,0,0,0,1.384.03,2.593,2.593,0,0,0,1.934-.784,2.537,2.537,0,0,0,.734-1.249,11.478,11.478,0,0,0,.455-3.778,28.755,28.755,0,0,0-.382-4.195m-4.3-12.065a3.345,3.345,0,0,1,.963.327,2.707,2.707,0,0,1,1.1,1.625,13.284,13.284,0,0,1,.346,4.373c-.019.661-.037,1.323-.017,1.98.017.54.06,1.084.119,1.627,0,.113-.007.225-.01.337-.086,2.774-.173,5.642-.163,8.485a1.6,1.6,0,0,1-.1.723c-.009.013-.015.026-.024.039a2.062,2.062,0,0,1-.748.235q-.9.156-1.814.237c-.463-.043-.931-.112-1.414-.182-.608-.09-1.237-.182-1.869-.219-.23-.013-.463-.019-.693-.019a26.625,26.625,0,0,0-2.788.194l-.527.056-.571.055-.507-.036c-1.244-.09-2.485-.179-3.718-.229l-.918-.039a56.637,56.637,0,0,0-7.04-.008,7.017,7.017,0,0,1-2.392-.121,1.409,1.409,0,0,1-.191-.132,2.6,2.6,0,0,1-.617-1.884c-.276-4.543-.394-9.155-.35-13.708a10.083,10.083,0,0,1,.328-2.985.425.425,0,0,0-.029-.329,1.154,1.154,0,0,1,.319-.379,1.821,1.821,0,0,1,.915-.3c.051,0,.1-.005.152-.006.672-.011,1.275-.028,1.84-.044a38.87,38.87,0,0,1,5.493.118,32.529,32.529,0,0,0,4.467-.133l.691-.049c1.058.07,2.121.12,3.178.128.575,0,1.141,0,1.711-.011a36.844,36.844,0,0,1,3.714.087c.389.047.776.1,1.157.186" fill="#fff"/>
        <path id="Caminho_4537" data-name="Caminho 4537" d="M19.86,14.837a1.454,1.454,0,1,0-1.455-1.454,1.456,1.456,0,0,0,1.455,1.454" fill="#fff"/>
        <path id="Caminho_4538" data-name="Caminho 4538" d="M19.86,19.18a1.455,1.455,0,1,0,1.456,1.454A1.455,1.455,0,0,0,19.86,19.18" fill="#fff"/>
        <path id="Caminho_4539" data-name="Caminho 4539" d="M26.232,16.234H13.492c-.336,0-.528.062-.528.173v1.2c0,.108.192.17.528.17h12.74c.331,0,.523-.062.523-.17v-1.2c0-.111-.192-.173-.523-.173" fill="#fff"/>
      </g>
    </g>
  </g>
</svg>
