<svg xmlns="http://www.w3.org/2000/svg" xmlns:xlink="http://www.w3.org/1999/xlink" width="47.717" height="40" viewBox="0 0 47.717 40">
  <defs>
    <clipPath id="clip-path">
      <path id="Caminho_4437" data-name="Caminho 4437" d="M382.63-20.606h47.717v-40H382.63Z" transform="translate(0 0)" fill="none"/>
    </clipPath>
  </defs>
  <g id="alfabeto_ing_x_fim" transform="translate(-382.63 60.606)" clip-path="url(#clip-path)">
    <g id="Grupo_3231" data-name="Grupo 3231" transform="translate(383.539 -42.429)">
      <path id="Caminho_4423" data-name="Caminho 4423" d="M15.962,9.216-13.669-8.922a1.45,1.45,0,0,0-1.484,2.49Q-.338,2.634,14.478,11.7a1.449,1.449,0,0,0,1.484-2.488" transform="translate(15.836 9.144)" fill="#f28e34"/>
    </g>
    <g id="Grupo_3232" data-name="Grupo 3232" transform="translate(387.674 -48.717)">
      <path id="Caminho_4424" data-name="Caminho 4424" d="M17.75,5.151-15.77-5.039a1.462,1.462,0,0,0-.837,2.8L16.915,7.95a1.461,1.461,0,0,0,.835-2.8" transform="translate(17.61 5.11)" fill="#f28e34"/>
    </g>
    <g id="Grupo_3233" data-name="Grupo 3233" transform="translate(384.905 -48.59)">
      <path id="Caminho_4425" data-name="Caminho 4425" d="M4.765.42,2.625-.361a.758.758,0,0,0-.406-.032A.922.922,0,0,0,1.266,0q-2.3,3.12-4.548,6.287c-.367.52-.739,1.04-1.1,1.564A1.256,1.256,0,0,0-4.5,9.423,4.114,4.114,0,0,0-3.17,10.3a1.9,1.9,0,0,0,.279.414.788.788,0,0,0,.807.2c.271.155.542.311.811.466a.88.88,0,0,0,1.191-.313A57.587,57.587,0,0,1,2.826,6.05c.51-.787,1.044-1.558,1.588-2.321a4.174,4.174,0,0,0,.99-2.47A.9.9,0,0,0,4.765.42" transform="translate(4.728 0.417)" fill="#ff4227"/>
    </g>
    <g id="Grupo_3234" data-name="Grupo 3234" transform="translate(389.867 -47.446)">
      <path id="Caminho_4426" data-name="Caminho 4426" d="M5.836.407A5.047,5.047,0,0,0,3.306-.4.927.927,0,0,0,2.577-.1,1,1,0,0,0,1.326.369,78.205,78.205,0,0,1-5.493,10.531,1.129,1.129,0,0,0-5,12.388a4.748,4.748,0,0,1,2.261,1.47A1.12,1.12,0,0,0-1,13.633Q2.572,7.751,6.234,1.927a1.131,1.131,0,0,0-.4-1.52" transform="translate(5.79 0.404)" fill="#ffc734"/>
    </g>
    <g id="Grupo_3235" data-name="Grupo 3235" transform="translate(395.326 -45.445)">
      <path id="Caminho_4427" data-name="Caminho 4427" d="M4.83.079A.665.665,0,0,0,4.7.1.921.921,0,0,0,3.332.42,78.278,78.278,0,0,1-2.23,9.269q-.759,1.045-1.554,2.062a3.464,3.464,0,0,0-1.008,2.054,1.768,1.768,0,0,0,1.285,1.649c.819.325,1.651.62,2.474.93A1.011,1.011,0,0,0,.109,15.5C1.483,12.361,3.8,9.823,5.856,7.127A17.449,17.449,0,0,0,8.535,2.9C9.266.906,6.213.243,4.83.079" transform="translate(4.792 0.078)" fill="#46ac46"/>
    </g>
    <g id="Grupo_3236" data-name="Grupo 3236" transform="translate(400.57 -43.659)">
      <path id="Caminho_4428" data-name="Caminho 4428" d="M7.5.394a8.057,8.057,0,0,0-3.556-.56c-.04,0-.06.032-.1.038A1.114,1.114,0,0,0,2.185.115q-4.738,7.3-9.471,14.6a1.131,1.131,0,0,0,.4,1.52c1.408.932,3.175,2.58,4.674.9A23.655,23.655,0,0,0-.586,14.84q.9-1.3,1.8-2.6Q4.721,7.151,8.165,2.027A1.128,1.128,0,0,0,7.5.394" transform="translate(7.441 0.391)" fill="#0794d4"/>
    </g>
    <g id="Grupo_3237" data-name="Grupo 3237" transform="translate(406.962 -42.235)">
      <path id="Caminho_4429" data-name="Caminho 4429" d="M7.738.731A3.654,3.654,0,0,0,4.907-.676,1.119,1.119,0,0,0,3.64-.242c-.038.054-.074.11-.112.165a1.022,1.022,0,0,0-.632.49Q2.091,1.8,1.282,3.191C.9,3.743.523,4.293.144,4.848-.4,5.516-.946,6.183-1.541,6.813a1.038,1.038,0,0,0-.291.91c-.169.251-.343.5-.512.747q-1.449,2.154-2.877,4.323a16.416,16.416,0,0,0-2.416,4.144,1.135,1.135,0,0,0,.51,1.255c.825.51,1.875,1.474,2.867,1.556,1.08.09,1.385-.9,1.767-1.687A31.81,31.81,0,0,1,.76,12.93C1.981,11.291,3.262,9.7,4.415,8.01c1.3-1.9,2.4-3.917,3.5-5.933A1.145,1.145,0,0,0,7.738.731" transform="translate(7.677 0.726)" fill="#ff6e88"/>
    </g>
    <g id="Grupo_3238" data-name="Grupo 3238" transform="translate(405.533 -49.818)">
      <path id="Caminho_4430" data-name="Caminho 4430" d="M.55,6.116A1.736,1.736,0,0,0,2.911,4.56Q13.064.1,23.218-4.354A.892.892,0,0,0,22.5-5.986L2.11,2.965a1.667,1.667,0,0,0-.265-.171A1.783,1.783,0,0,0,.55,6.116" transform="translate(0.546 6.068)" fill="#ff9a39"/>
    </g>
    <g id="Grupo_3239" data-name="Grupo 3239" transform="translate(390.229 -60.083)">
      <path id="Caminho_4431" data-name="Caminho 4431" d="M5.668,11.851A1.737,1.737,0,0,0,4.206,9.43Q.155-.892-3.9-11.212a.891.891,0,0,0-1.659.651l8.138,20.73a1.541,1.541,0,0,0-.181.257,1.783,1.783,0,0,0,3.267,1.426" transform="translate(5.624 11.758)" fill="#ff9a39"/>
    </g>
    <g id="Grupo_3240" data-name="Grupo 3240" transform="translate(386.163 -43.66)">
      <path id="Caminho_4432" data-name="Caminho 4432" d="M1.383.053A.641.641,0,0,0,.505.214L-1.264,2.772a.639.639,0,0,0,.161.879.644.644,0,0,0,.877-.161L1.544.931A.639.639,0,0,0,1.383.053" transform="translate(1.372 0.053)" fill="#fff"/>
    </g>
    <g id="Grupo_3241" data-name="Grupo 3241" transform="translate(390.859 -39.407)">
      <path id="Caminho_4433" data-name="Caminho 4433" d="M1.383.053A.641.641,0,0,0,.505.214L-1.264,2.772a.639.639,0,0,0,.161.879.644.644,0,0,0,.877-.161L1.544.931A.639.639,0,0,0,1.383.053" transform="translate(1.372 0.053)" fill="#fff"/>
    </g>
    <g id="Grupo_3242" data-name="Grupo 3242" transform="translate(395.956 -35.439)">
      <path id="Caminho_4434" data-name="Caminho 4434" d="M1.383.053A.641.641,0,0,0,.505.214L-1.264,2.772a.639.639,0,0,0,.161.879.644.644,0,0,0,.877-.161L1.544.931A.639.639,0,0,0,1.383.053" transform="translate(1.372 0.053)" fill="#fff"/>
    </g>
    <g id="Grupo_3243" data-name="Grupo 3243" transform="translate(401.354 -31.266)">
      <path id="Caminho_4435" data-name="Caminho 4435" d="M1.383.053A.641.641,0,0,0,.505.214L-1.264,2.772a.639.639,0,0,0,.161.879.644.644,0,0,0,.877-.161L1.544.931A.637.637,0,0,0,1.383.053" transform="translate(1.372 0.053)" fill="#fff"/>
    </g>
    <g id="Grupo_3244" data-name="Grupo 3244" transform="translate(407.918 -27.456)">
      <path id="Caminho_4436" data-name="Caminho 4436" d="M1.383.053A.641.641,0,0,0,.505.214L-1.264,2.772a.639.639,0,0,0,.161.879.644.644,0,0,0,.877-.161L1.544.931A.639.639,0,0,0,1.383.053" transform="translate(1.372 0.053)" fill="#fff"/>
    </g>
  </g>
</svg>
