<svg xmlns="http://www.w3.org/2000/svg" xmlns:xlink="http://www.w3.org/1999/xlink" width="48.113" height="40" viewBox="0 0 48.113 40">
  <defs>
    <clipPath id="clip-path">
      <path id="Caminho_4344" data-name="Caminho 4344" d="M419.3-20.733h48.113v-40H419.3Z" transform="translate(0 0)" fill="none"/>
    </clipPath>
  </defs>
  <g id="alfabeto_ing_y_fim" transform="translate(-419.305 60.733)" clip-path="url(#clip-path)">
    <g id="Grupo_3146" data-name="Grupo 3146" transform="translate(419.905 -47.64)">
      <path id="Caminho_4338" data-name="Caminho 4338" d="M11.02,3.689a2.29,2.29,0,0,0-.495-1.544A7.1,7.1,0,0,0,8.992-1.239c-2-2.406-5-2.845-7.851-2.2-.118.008-.235,0-.353.018A12.129,12.129,0,0,0-8.976,4.114a12.933,12.933,0,0,0-.7,1.536c-.972,2.6-2,6.447-.972,9.144.012.034.028.062.042.094a7.119,7.119,0,0,0,3.986,4.892,8.151,8.151,0,0,0,4.563.824,9.609,9.609,0,0,0,5.227-.726,12.324,12.324,0,0,0,6.109-6.688,14.508,14.508,0,0,0,.88-2.853,33.931,33.931,0,0,0,.858-6.648" transform="translate(11.073 3.707)" fill="#ffe08c"/>
    </g>
    <g id="Grupo_3147" data-name="Grupo 3147" transform="translate(422.275 -46.653)">
      <path id="Caminho_4339" data-name="Caminho 4339" d="M10.372,3.676a2.372,2.372,0,0,0-.459-1.542A7.277,7.277,0,0,0,8.485-1.245c-1.868-2.4-4.691-2.827-7.37-2.173C1-3.407.893-3.411.781-3.4-3.6-2.879-6.751.226-8.423,4.172a13.221,13.221,0,0,0-.66,1.538c-.924,2.6-1.9,6.451-.948,9.146.012.03.028.062.038.092a6.983,6.983,0,0,0,3.731,4.878,7.251,7.251,0,0,0,4.288.808,8.556,8.556,0,0,0,4.914-.746,12.2,12.2,0,0,0,5.766-6.706,15.307,15.307,0,0,0,.836-2.857,36.022,36.022,0,0,0,.83-6.65" transform="translate(10.422 3.693)" fill="#ff9a39"/>
    </g>
    <g id="Grupo_3148" data-name="Grupo 3148" transform="translate(427.321 -60.227)">
      <path id="Caminho_4340" data-name="Caminho 4340" d="M18.31,2.306a.91.91,0,0,1-.225.389c-.006.006-.014.008-.02.014s0,.018,0,.028a.122.122,0,0,1-.026-.006c-.014.01-.022.018-.034.028s-.01.02-.02.028a.521.521,0,0,1-.148.1s0,0-.006,0,0,0,0,0a1.036,1.036,0,0,1-.134.054.529.529,0,0,1-.423-.068s-.006-.006-.01-.008-.024-.01-.036-.012a1.426,1.426,0,0,1-.419-.1,1.284,1.284,0,0,1-.273-.146,1,1,0,0,1-.211-.208,1,1,0,0,1-.233-.279.956.956,0,0,1-.1-.259,1.045,1.045,0,0,1-.026-.3,1.064,1.064,0,0,1,.182-.531,1.092,1.092,0,0,1,.2-.219A1.187,1.187,0,0,1,16.718.61a1.075,1.075,0,0,1,.557-.016,1.058,1.058,0,0,1,.4.166,1.3,1.3,0,0,1,.567.8.3.3,0,0,1,0,.074,1,1,0,0,1,.052.188c0,.008.008.014.008.024a.173.173,0,0,1,0,.046.72.72,0,0,1,.016.13.678.678,0,0,1-.012.092.6.6,0,0,1,0,.2m.066-4.431c-2.281-.7-5.076.559-5.461,3.055a4.268,4.268,0,0,0,3.839,4.816,14.872,14.872,0,0,1-2.368,3.015A5.667,5.667,0,0,1,9.232,10.5,9.313,9.313,0,0,1,5.2,7.685,26.7,26.7,0,0,0,1,3.96c-3.949-2.56-8.659-1.2-12,1.7a27.649,27.649,0,0,0-4.962,6.051,13.534,13.534,0,0,0-2.428,7.773,1.585,1.585,0,0,0,3.166-.106c-.12-2.883,1.445-5.431,3.093-7.676,1.514-2.063,3.284-4.236,5.668-5.315a5.987,5.987,0,0,1,6.255.569c1.692,1.231,2.995,2.933,4.573,4.3a8.9,8.9,0,0,0,6.375,2.54,9.912,9.912,0,0,0,6.618-3.561,16.942,16.942,0,0,0,3.8-6.754c.543-2.34-.343-4.854-2.779-5.6" transform="translate(18.398 2.317)" fill="#72c1e8"/>
    </g>
    <g id="Grupo_3149" data-name="Grupo 3149" transform="translate(424.074 -45.34)">
      <path id="Caminho_4341" data-name="Caminho 4341" d="M11.191,3.693a2.272,2.272,0,0,0-.5-1.546,7.076,7.076,0,0,0-1.56-3.384C7.1-3.645,4.042-4.088,1.149-3.445c-.12.008-.237,0-.359.016A12.271,12.271,0,0,0-9.124,4.1a13.015,13.015,0,0,0-.706,1.536c-.986,2.6-2.023,6.443-.978,9.142.01.032.028.062.042.1a7.167,7.167,0,0,0,4.052,4.894,8.436,8.436,0,0,0,4.639.83,9.858,9.858,0,0,0,5.309-.724,12.376,12.376,0,0,0,6.2-6.68,14.425,14.425,0,0,0,.89-2.855,33.475,33.475,0,0,0,.866-6.646" transform="translate(11.245 3.711)" fill="#ffc734"/>
    </g>
    <g id="Grupo_3150" data-name="Grupo 3150" transform="translate(428.171 -43.01)">
      <path id="Caminho_4342" data-name="Caminho 4342" d="M9.447,4.645c.623-4.2-.734-8.328-5.172-9.144C-4.384-6.091-9.662,3.974-9.488,11.638a5.372,5.372,0,0,0,.038.8.385.385,0,0,1,0,.048,2.641,2.641,0,0,0,.146.664c.036.128.082.257.126.385a4.044,4.044,0,0,0,1.047,1.875A3.462,3.462,0,0,0-6.96,16.45a2.339,2.339,0,0,0,1.341.648c.435.068.878.124,1.321.162a10.736,10.736,0,0,0,5.156-.231,10.019,10.019,0,0,0,3.388-1.913,2.415,2.415,0,0,0,.553-.4c.048-.048.09-.1.136-.142a2.54,2.54,0,0,0,.523-.349A9.409,9.409,0,0,0,8.447,8.637c.028-.044.058-.09.086-.138a7.5,7.5,0,0,0,.914-3.855" transform="translate(9.492 4.667)" fill="#0081c9"/>
    </g>
    <g id="Grupo_3151" data-name="Grupo 3151" transform="translate(432.691 -38.495)">
      <path id="Caminho_4343" data-name="Caminho 4343" d="M3.417.85A4.007,4.007,0,0,0,.771,1.876,8.473,8.473,0,0,0-1.8,8.159a1.931,1.931,0,0,0,.014.331.766.766,0,0,0,.046.233c.024.084.042.134.058.184a1.491,1.491,0,0,0,.385.708.329.329,0,0,1,.052.064,1.134,1.134,0,0,0,.379.339.516.516,0,0,1,.126.094.614.614,0,0,0,.349.162c.2.03.4.056.6.074a4.793,4.793,0,0,0,2.269-.088,4.373,4.373,0,0,0,1.453-.818.548.548,0,0,1,.088-.064.642.642,0,0,0,.15-.108,1.3,1.3,0,0,1,.2-.164.72.72,0,0,0,.144-.1C5.224,8.39,6.244,5.352,6.246,4.8a.511.511,0,0,1,.006-.078c.116-.78.309-3.362-2.059-3.8A4.339,4.339,0,0,0,3.417.85m-2.324,11.3A6.786,6.786,0,0,1-.179,12.03c-.19-.014-.439-.046-.686-.084a1.874,1.874,0,0,1-.978-.451,2.443,2.443,0,0,1-.726-.656A2.767,2.767,0,0,1-3.247,9.6a1.872,1.872,0,0,1-.064-.188,1.9,1.9,0,0,1-.1-.469,3.62,3.62,0,0,1-.024-.511A10.484,10.484,0,0,1-.159.565,5.607,5.607,0,0,1,4.618-.756C7.01-.315,8.281,1.85,7.864,4.763c-.046.968-1.241,4.561-2.334,5.509a1.925,1.925,0,0,1-.3.213l-.024.026a1.783,1.783,0,0,1-.367.275,5.9,5.9,0,0,1-1.961,1.1,5.719,5.719,0,0,1-1.782.263" transform="translate(3.433 0.854)" fill="#72c1e8"/>
    </g>
  </g>
</svg>
