<svg xmlns="http://www.w3.org/2000/svg" xmlns:xlink="http://www.w3.org/1999/xlink" width="47.346" height="40" viewBox="0 0 47.346 40">
  <defs>
    <clipPath id="clip-path">
      <path id="Caminho_4337" data-name="Caminho 4337" d="M272.746-19.635h47.346v-40H272.746Z" transform="translate(0 0)" fill="none"/>
    </clipPath>
  </defs>
  <g id="alfabeto_ing_u_fim" transform="translate(-272.746 59.635)" clip-path="url(#clip-path)">
    <g id="Grupo_3139" data-name="Grupo 3139" transform="translate(286.861 -38.969)">
      <path id="Caminho_4331" data-name="Caminho 4331" d="M4.535.472a89.569,89.569,0,0,1-.958,12.177c-.215,1.391-.65,3.572-2.56,3.9C-1.15,16.928-2.049,14.7-2,13.215c.034-1.178-2.039-1.148-2.075.027A4.835,4.835,0,0,0-.747,18.2a4.715,4.715,0,0,0,5.52-2.381c1.127-2.161,1.134-4.868,1.366-7.2C6.413,5.9,6.563,3.171,6.61.444,6.629-.734,4.554-.7,4.535.472" transform="translate(4.082 0.425)" fill="#a72517"/>
    </g>
    <g id="Grupo_3140" data-name="Grupo 3140" transform="translate(296.175 -57.062)">
      <path id="Caminho_4332" data-name="Caminho 4332" d="M.223,1.066c.015.011.027.023.042.034a1.273,1.273,0,0,0,.876.705C3.608,3.96,5.2,7.052,6.46,9.961A36.159,36.159,0,0,1,9.23,20.7c.116,1.134,1.786,1.167,2.2.211.754-1.731,2.571-2.989,4.217-3.888a6.963,6.963,0,0,1,6.193-.652,1.145,1.145,0,0,0,1.467-1.494A29.384,29.384,0,0,0,14.336,4.1,29.889,29.889,0,0,0,8.187.608,11.373,11.373,0,0,0,1.911-.467C1.8-.551,1.7-.646,1.584-.729A1.127,1.127,0,0,0,.223,1.066" transform="translate(0.2 0.959)" fill="#ff4242"/>
    </g>
    <g id="Grupo_3141" data-name="Grupo 3141" transform="translate(273.103 -57.061)">
      <path id="Caminho_4333" data-name="Caminho 4333" d="M12.58.081c-.125.065-.239.148-.361.217A11.484,11.484,0,0,0,5.842.592,30.554,30.554,0,0,0-.748,3.3,30.1,30.1,0,0,0-11.159,12.87a1.127,1.127,0,0,0,1.245,1.661A6.926,6.926,0,0,1-3.86,15.937C-2.35,17.031-.723,18.5-.218,20.307c.279,1,1.94,1.174,2.214.063a36.623,36.623,0,0,1,4.251-10.3c1.659-2.727,3.669-5.594,6.417-7.426a1.311,1.311,0,0,0,.971-.589l.044-.03A1.117,1.117,0,0,0,12.58.081" transform="translate(11.325 0.073)" fill="#ff4242"/>
    </g>
    <g id="Grupo_3142" data-name="Grupo 3142" transform="translate(284.362 -57.693)">
      <path id="Caminho_4334" data-name="Caminho 4334" d="M10.46,5.717a49.237,49.237,0,0,0-5.57-9.4C5.025-4.6,4.125-5.6,3.195-4.923A31.493,31.493,0,0,0-9.4,15.514c-.139.889.808,2.022,1.741,1.338,1.393-1.017,3.145-1.087,4.8-1.269A42.454,42.454,0,0,1,2.4,15.265c3.194.053,6.472.808,8.853,3.063a1.2,1.2,0,0,0,2.024-.84c.477-4.04-1.205-8.148-2.816-11.77" transform="translate(9.416 5.147)" fill="#1cc1db"/>
    </g>
    <g id="Grupo_3143" data-name="Grupo 3143" transform="translate(296.275 -59.616)">
      <path id="Caminho_4335" data-name="Caminho 4335" d="M1.207.234a.89.89,0,0,0-.35-.287A.9.9,0,0,0,.428-.205,1.2,1.2,0,0,0-.461.042,1.222,1.222,0,0,0-.9.821L-1.073,2.3a.9.9,0,0,0,.044.473.883.883,0,0,0,.2.416.89.89,0,0,0,.35.287.876.876,0,0,0,.428.154,1.2,1.2,0,0,0,.889-.249A1.222,1.222,0,0,0,1.281,2.6c.057-.494.116-.988.173-1.482A.9.9,0,0,0,1.409.65a.883.883,0,0,0-.2-.416" transform="translate(1.086 0.211)" fill="#a72517"/>
    </g>
    <g id="Grupo_3144" data-name="Grupo 3144" transform="translate(304.251 -54.426)">
      <path id="Caminho_4336" data-name="Caminho 4336" d="M5.682,4.362A21.036,21.036,0,0,0-3.633-3.817c-1.112-.515-2.109.925-.994,1.442A19.32,19.32,0,0,1,3.98,5.2a1.1,1.1,0,0,0,1.349.3.783.783,0,0,0,.353-1.142" transform="translate(5.115 3.927)" fill="#fff"/>
    </g>
  </g>
</svg>
