<svg xmlns="http://www.w3.org/2000/svg" xmlns:xlink="http://www.w3.org/1999/xlink" width="35.543" height="40" viewBox="0 0 35.543 40">
  <defs>
    <clipPath id="clip-path">
      <path id="Caminho_4167" data-name="Caminho 4167" d="M236.943-107.635h35.543v-40H236.943Z" transform="translate(0 0)" fill="none"/>
    </clipPath>
  </defs>
  <g id="alfabeto_ing_g_fim" transform="translate(-236.943 147.635)" clip-path="url(#clip-path)">
    <g id="Grupo_2951" data-name="Grupo 2951" transform="translate(244.566 -122.297)">
      <path id="Caminho_4158" data-name="Caminho 4158" d="M3.258,2.3a4.038,4.038,0,0,0,.708-3.676c-.184-.033-.365-.066-.547-.115A9.325,9.325,0,0,1,.8-2.65c-.093-.061-.17-.136-.253-.2a.692.692,0,0,1-.379-.163c-.211-.187-.958.1-1.176.154a7.476,7.476,0,0,0-1.442.482A3.445,3.445,0,0,0-4.323-.528c-.012.035-.017.07-.03.1a4.47,4.47,0,0,0,1.1,3.249A5.638,5.638,0,0,0,.2,4.4,6.692,6.692,0,0,0,3.258,2.3" transform="translate(4.356 3.078)" fill="#6a43a3"/>
    </g>
    <g id="Grupo_2952" data-name="Grupo 2952" transform="translate(249.212 -132.147)">
      <path id="Caminho_4159" data-name="Caminho 4159" d="M.05,2.084A5.56,5.56,0,0,0,.19,4.86a2.591,2.591,0,0,0,1.4,1.687,8.48,8.48,0,0,0,2.1.821A5.055,5.055,0,0,0,7.921,6.347a5.1,5.1,0,0,0,1.83-3.683c.051-1.44-.225-3.414-1.327-4.45,0,0,0-.007-.007-.009a5.312,5.312,0,0,0-1.942-.794,6.152,6.152,0,0,0-1.1-.112A4.873,4.873,0,0,0,2.5-2.382a4.231,4.231,0,0,0-.467.245,4.242,4.242,0,0,0-1.4,1.089.6.6,0,0,1,.1.379A17.832,17.832,0,0,1,.05,2.084" transform="translate(0.067 2.787)" fill="#6a43a3"/>
    </g>
    <g id="Grupo_2953" data-name="Grupo 2953" transform="translate(249.379 -117.432)">
      <path id="Caminho_4160" data-name="Caminho 4160" d="M3.052,1.292A7.556,7.556,0,0,1,.6-1.727,5.633,5.633,0,0,1-.093-.481,8.124,8.124,0,0,1-3.776,2.162,3.946,3.946,0,0,0-1.786,7.268a4.251,4.251,0,0,0,3.326.514A3.411,3.411,0,0,0,3.73,6.423a4.3,4.3,0,0,0,.9-4.041c-.028-.093-.072-.18-.1-.269-.1-.042-.2-.084-.29-.128a3.271,3.271,0,0,1-1.187-.694" transform="translate(4.08 1.727)" fill="#6a43a3"/>
    </g>
    <g id="Grupo_2954" data-name="Grupo 2954" transform="translate(259.832 -131.89)">
      <path id="Caminho_4161" data-name="Caminho 4161" d="M1.25.021A4.053,4.053,0,0,0-1.672,1.551a7.472,7.472,0,0,1,.271.9,9.422,9.422,0,0,1,.259,3.415,6.245,6.245,0,0,1-.5,1.69A5.672,5.672,0,0,1,1.8,9.4,3.47,3.47,0,0,0,3.97,8.941,4.623,4.623,0,0,0,6.183,5.527a5.305,5.305,0,0,0,.229-1.65C6.361,1.1,3.64-.32,1.25.021" transform="translate(1.672 0.029)" fill="#6a43a3"/>
    </g>
    <g id="Grupo_2955" data-name="Grupo 2955" transform="translate(239.959 -132.435)">
      <path id="Caminho_4162" data-name="Caminho 4162" d="M3.548,3.787c.024-.005.047-.007.072-.01a4.75,4.75,0,0,1-.175-.447A7.2,7.2,0,0,1,3.174.307c.138-1.014.657-1.945.732-2.966A.675.675,0,0,1,4.23-3.2,5.8,5.8,0,0,0,.4-5.033,4.616,4.616,0,0,0-4.674-1.089,4.49,4.49,0,0,0-4.415,1.4a5.078,5.078,0,0,0,.17.689,4.42,4.42,0,0,0,4.6,2.9A6.581,6.581,0,0,1,1.5,4.374a10.132,10.132,0,0,1,2.049-.587" transform="translate(4.744 5.064)" fill="#6a43a3"/>
    </g>
    <g id="Grupo_2956" data-name="Grupo 2956" transform="translate(254.773 -122.944)">
      <path id="Caminho_4163" data-name="Caminho 4163" d="M0,1.023a6.19,6.19,0,0,0,3.183,5.4c.1.054.2.107.306.159a5.9,5.9,0,0,0,1.393.2,7.762,7.762,0,0,0,1.258.005,5.367,5.367,0,0,0,2.073-2.3,3.789,3.789,0,0,0,.336-1.25,4.122,4.122,0,0,0,.1-.785,4.772,4.772,0,0,0-.308-1.124,4.358,4.358,0,0,0-4.085-2.7A6.568,6.568,0,0,1,0,1.023" transform="translate(0 1.368)" fill="#6a43a3"/>
    </g>
    <g id="Grupo_2957" data-name="Grupo 2957" transform="translate(244.57 -131.434)">
      <path id="Caminho_4164" data-name="Caminho 4164" d="M7.644,3.973A5.351,5.351,0,0,0,7,3.239a4.8,4.8,0,0,0,1.515.416A5.672,5.672,0,0,0,5.071,1.813a6.263,6.263,0,0,0,.5-1.69,9.434,9.434,0,0,0-.259-3.417,7.669,7.669,0,0,0-.271-.9,4.047,4.047,0,0,0-.545.909A4.626,4.626,0,0,0,2.906-5.035s0,.007.007.009C4.014-3.99,4.29-2.015,4.239-.576a5.106,5.106,0,0,1-1.83,3.685A5.054,5.054,0,0,1-1.819,4.127a8.372,8.372,0,0,1-2.1-.821,2.586,2.586,0,0,1-1.4-1.687,5.56,5.56,0,0,1-.14-2.776c.182-.776.472-1.5.608-2.281A.668.668,0,0,0-4.811-3.6c.1-.22.213-.439.322-.659a.514.514,0,0,0,.082-.259A.525.525,0,0,0-4.42-4.8a.531.531,0,0,0-.126-.238.521.521,0,0,0-.2-.178.707.707,0,0,0-.538-.072.693.693,0,0,0-.416.322c-.079.161-.157.322-.236.481-.03.063-.059.124-.091.185a.674.674,0,0,0-.157.39c0,.009,0,.016,0,.023a.582.582,0,0,0-.012.094c-.1.975-.584,1.875-.717,2.849a7.164,7.164,0,0,0,.271,3.022,4.741,4.741,0,0,0,.173.447l-.072.01a10.2,10.2,0,0,0-2.049.587,6.835,6.835,0,0,0-1.143.608,4.4,4.4,0,0,0,.479-.047A3.634,3.634,0,0,0-10,5.054a5.769,5.769,0,0,0-.222,1.425c.01-.035.017-.07.03-.1A3.451,3.451,0,0,1-8.319,4.522,7.476,7.476,0,0,1-6.877,4.04c.218-.054.963-.339,1.176-.154a.68.68,0,0,0,.378.163c.086.068.163.142.255.2A9.261,9.261,0,0,0-2.452,5.412c.184.049.365.084.547.115A4.037,4.037,0,0,1-2.611,9.2a6.684,6.684,0,0,1-3.062,2.1,5.329,5.329,0,0,0,.911.024,3.9,3.9,0,0,0,.7-.117,3.822,3.822,0,0,0-.883,1.043c-.059.1-.11.215-.159.325A8.124,8.124,0,0,0-1.424,9.935,5.633,5.633,0,0,0-.73,8.689,7.556,7.556,0,0,0,1.72,11.708a3.271,3.271,0,0,0,1.187.694c.094.044.192.086.29.126a4.534,4.534,0,0,0-.454-.895,4.277,4.277,0,0,0,.841.241,3.73,3.73,0,0,0,2.54-.538,7.761,7.761,0,0,1-1.258-.005,5.918,5.918,0,0,1-1.395-.2c-.107-.052-.21-.1-.3-.157A6.2,6.2,0,0,1-.019,5.567,6.564,6.564,0,0,0,4.237,3.18a4.361,4.361,0,0,1,4.087,2.7A4.839,4.839,0,0,1,8.63,7a4.85,4.85,0,0,0-.986-3.031" transform="translate(10.221 5.313)" fill="#8066b4"/>
    </g>
    <g id="Grupo_2958" data-name="Grupo 2958" transform="translate(237.177 -139.734)">
      <path id="Caminho_4165" data-name="Caminho 4165" d="M14.655,3.339a4.326,4.326,0,0,1-3.805-.3A8.127,8.127,0,0,1,8.48.382,5.131,5.131,0,0,0,3.837-1.46a3.473,3.473,0,0,0-.147-.5A3.659,3.659,0,0,0,1.607-3.928a4.329,4.329,0,0,0-1.57-.206.044.044,0,0,0-.012-.007c-.192.01-.385.023-.579.023a2.829,2.829,0,0,1-1.283-.236,6.853,6.853,0,0,1-.683-.068c-.22-.009-.439-.021-.657-.042a.026.026,0,0,0-.012,0c-.005,0-.01,0-.016,0A5.809,5.809,0,0,0-4.7-4.283a4.134,4.134,0,0,0-3.022,2.84c-1.844-.11-3.709.218-4.877,1.825a8.132,8.132,0,0,1-2.372,2.66,4.323,4.323,0,0,1-3.8.3.634.634,0,0,0-.689,1c2.131,2.72,6.3,2.41,9.279,1.494a13.114,13.114,0,0,0,1.94-.759,9.174,9.174,0,0,0,.6,4.576.49.49,0,0,0,.248.252.6.6,0,0,0,.731.164,15.332,15.332,0,0,0,4.4-3.1A7.389,7.389,0,0,0-.759,4.717c.1.189.2.376.3.559A5.03,5.03,0,0,0,2.275,7.795a.508.508,0,0,0,.323.061.567.567,0,0,0,.535-.439,5.436,5.436,0,0,0,.946-2.36,13.028,13.028,0,0,0,1.986.78c2.977.916,7.149,1.225,9.279-1.494a.634.634,0,0,0-.689-1" transform="translate(19.596 4.465)" fill="#46ac46"/>
    </g>
    <g id="Grupo_2959" data-name="Grupo 2959" transform="translate(254.713 -147.426)">
      <path id="Caminho_4166" data-name="Caminho 4166" d="M2.447,1.439a3.3,3.3,0,0,1,1.9,1.612c.439.678.879,1.622.357,2.377-.577.832-1.454.156-1.863-.468A4.186,4.186,0,0,1,2.162,2.5a3.357,3.357,0,0,1,.229-1.071c.019,0,.037,0,.056.007M5.726-.7c.774.108,1.108-1.075.327-1.185A4.521,4.521,0,0,0,1.6.224c-.079.01-.157.016-.238.033A5.684,5.684,0,0,0-1.69,2.276a6.979,6.979,0,0,0-.634,7.939.615.615,0,0,0,1.061-.62,5.73,5.73,0,0,1-.3-5.247A5.7,5.7,0,0,1,1.045,1.613c0,.01-.005.021-.007.031A5.391,5.391,0,0,0,1.557,5.2,2.905,2.905,0,0,0,4.319,7.035a2.359,2.359,0,0,0,1.851-2.3A5,5,0,0,0,4.615,1.395,3.854,3.854,0,0,0,3.045.357,3.028,3.028,0,0,1,5.726-.7" transform="translate(3.272 1.924)" fill="#46ac46"/>
    </g>
  </g>
</svg>
