<svg xmlns="http://www.w3.org/2000/svg" xmlns:xlink="http://www.w3.org/1999/xlink" width="55.544" height="40" viewBox="0 0 55.544 40">
  <defs>
    <clipPath id="clip-path">
      <path id="Caminho_4157" data-name="Caminho 4157" d="M198-102.413H253.54v-40H198Z" transform="translate(0 0)" fill="none"/>
    </clipPath>
  </defs>
  <g id="alfabeto_ing_f_fim" transform="translate(-197.996 142.413)" clip-path="url(#clip-path)">
    <g id="Grupo_2934" data-name="Grupo 2934" transform="translate(232.867 -134.642)">
      <path id="Caminho_4141" data-name="Caminho 4141" d="M.277,11.709a1.122,1.122,0,0,1,.6-1.341c.077-.032.147-.079.224-.113-.555-.788-.213-1.977.337-3.048A19.626,19.626,0,0,1,5.357-.3a1.072,1.072,0,0,1-.6-1.721,24.769,24.769,0,0,1,7.414-5.689c1.291-.7,2.77-1.68,4.287-1.531a3.439,3.439,0,0,1,2.711,2.129c1.282,2.829-.7,5.548-2.367,7.648a40.257,40.257,0,0,1-6.574,6.524,38.662,38.662,0,0,1-5.874,3.793q3.067.944,6.13,1.893c1.021.317.867,2.016-.258,1.975a23.942,23.942,0,0,1-4.885-.772q.6,1.084,1.2,2.165A.987.987,0,0,1,5.026,17.33a17.725,17.725,0,0,1-1.909-2.043c-.236-.3-.455-.6-.675-.91-.183.72-.378,1.438-.541,2.163a.97.97,0,0,1-1.873,0,8.821,8.821,0,0,1,.249-4.83" transform="translate(0.219 9.259)" fill="#3b8f39"/>
    </g>
    <g id="Grupo_2935" data-name="Grupo 2935" transform="translate(226.864 -118.5)">
      <path id="Caminho_4142" data-name="Caminho 4142" d="M.432,7.171a3.641,3.641,0,0,0,2.487-.813,7.345,7.345,0,0,0,.269,1.655.869.869,0,0,0,1.544.349,5.749,5.749,0,0,0,.745-1.685c.58.885,1.35,1.529,2.371,1.261a.879.879,0,0,0,.654-1.2A13.476,13.476,0,0,0,6.974,4.323a2.512,2.512,0,0,1-.072-2c.014-.029.036-.045.048-.077A29.912,29.912,0,0,1,8.385-1.117l.007-.014c.317-.627.709-1.221,1.071-1.828a12.06,12.06,0,0,1,.94-1.207.844.844,0,0,0-.186-1.187,1.071,1.071,0,0,0-.106-.045.729.729,0,0,0-1.1-.038c-.179.183-.358.367-.539.55-.034.034-.188.2-.285.322a.716.716,0,0,0-.557.2C6-2.8,5.31-.671,3.987,1.107,2.676,2.866.749,4.03-.271,6.026a.843.843,0,0,0,.7,1.146" transform="translate(0.341 5.671)" fill="#46ac46"/>
    </g>
    <g id="Grupo_2936" data-name="Grupo 2936" transform="translate(198.868 -133.938)">
      <path id="Caminho_4143" data-name="Caminho 4143" d="M10.781,11.709a1.122,1.122,0,0,0-.6-1.341c-.077-.032-.147-.079-.224-.113.555-.788.213-1.977-.337-3.048A19.626,19.626,0,0,0,5.7-.3a1.072,1.072,0,0,0,.6-1.721A24.769,24.769,0,0,0-1.117-7.713c-1.291-.7-2.77-1.68-4.287-1.531A3.439,3.439,0,0,0-8.115-7.115C-9.4-4.286-7.417-1.566-5.748.533A40.257,40.257,0,0,0,.826,7.057,38.662,38.662,0,0,0,6.7,10.851q-3.067.944-6.13,1.893c-1.021.317-.867,2.016.258,1.975a23.942,23.942,0,0,0,4.885-.772q-.6,1.084-1.2,2.165A.987.987,0,0,0,6.032,17.33a17.725,17.725,0,0,0,1.909-2.043c.236-.3.455-.6.675-.91.183.72.378,1.438.541,2.163a.97.97,0,0,0,1.873,0,8.821,8.821,0,0,0-.249-4.83" transform="translate(8.525 9.259)" fill="#3b8f39"/>
    </g>
    <g id="Grupo_2937" data-name="Grupo 2937" transform="translate(214.25 -116.085)">
      <path id="Caminho_4144" data-name="Caminho 4144" d="M6.9,5.545C5.589,3.745,3.507,2.916,1.94,1.4.36-.139-.646-2.125-2.5-3.4a.712.712,0,0,0-.582-.1c-.113-.1-.292-.242-.331-.269l-.618-.455a.728.728,0,0,0-1.08.22.67.67,0,0,0-.1.063.847.847,0,0,0,0,1.2A11.5,11.5,0,0,1-4.093-1.708c.453.539.928,1.06,1.338,1.628a.023.023,0,0,1,.009.011A29.029,29.029,0,0,1-.809,3.009c.018.029.041.043.059.07A2.5,2.5,0,0,1-.512,5.065,13.919,13.919,0,0,0-1.647,7.706.87.87,0,0,0-.816,8.782c1.049.1,1.71-.668,2.147-1.64a5.626,5.626,0,0,0,.994,1.542.875.875,0,0,0,1.472-.6A7.582,7.582,0,0,0,3.809,6.4a3.615,3.615,0,0,0,2.579.39A.852.852,0,0,0,6.9,5.545" transform="translate(5.458 4.385)" fill="#46ac46"/>
    </g>
    <g id="Grupo_2938" data-name="Grupo 2938" transform="translate(208.846 -141.421)">
      <path id="Caminho_4145" data-name="Caminho 4145" d="M19.129,8.036c-.211-1.08-.9-1.343-1.8-1.719a8.051,8.051,0,0,1-3.13-2.21C13.169,2.87,12.879,1.276,12.335-.2c-.018-.163-.025-.324-.059-.494A7.087,7.087,0,0,0,8.388-5.67,8.036,8.036,0,0,0-1.825-2.2,6.871,6.871,0,0,0-8.3-2.64,4.488,4.488,0,0,0-10.56-.2a6.364,6.364,0,0,0-.2,3.134.782.782,0,0,0-.027.1c-.143,2.267-.544,4.769-2.027,6.545-.811.969-1.966,1.755-2.108,2.858a.943.943,0,0,0,.276,1.415l.1.045c.014.023.016.038.029.061,2.521,4,7.654,5.3,11.941,5.582a27.328,27.328,0,0,0,3.6-.016,8.669,8.669,0,0,0,2.484-.3,28.451,28.451,0,0,0,7.177-2.093,25.973,25.973,0,0,0,6-3.678c1.549-1.284,2.869-3.241,2.446-5.415" transform="translate(15.126 6.354)" fill="#46ac46"/>
    </g>
    <g id="Grupo_2939" data-name="Grupo 2939" transform="translate(223.177 -140.088)">
      <path id="Caminho_4146" data-name="Caminho 4146" d="M6.173,1.7A4.275,4.275,0,0,0,4.592-.327a6.219,6.219,0,0,0-2.038-.815,5.487,5.487,0,0,0-4.418.6c-.05.036-.091.084-.14.122a1.832,1.832,0,0,0-.439.249A5.65,5.65,0,0,0-3.9,1.55a4.208,4.208,0,0,0-.566.967A4.453,4.453,0,0,0-4.849,4.8a4.538,4.538,0,0,0,.84,2.174c.077.1.172.181.254.274a4.273,4.273,0,0,0,.387.664A4.5,4.5,0,0,0,.713,9.789a5.479,5.479,0,0,0,1.49-.4,4.7,4.7,0,0,0,1.458-.367A4.726,4.726,0,0,0,5.536,7.642a4.756,4.756,0,0,0,.981-2.224A7.624,7.624,0,0,0,6.556,3.5a6.916,6.916,0,0,0-.383-1.8" transform="translate(4.881 1.344)" fill="#fff"/>
    </g>
    <g id="Grupo_2940" data-name="Grupo 2940" transform="translate(226.667 -135.724)">
      <path id="Caminho_4147" data-name="Caminho 4147" d="M0,.033A.235.235,0,0,1,.023.024h0C.147-.035.188-.053,0,.033" transform="translate(0 0.026)" fill="#2b2e34"/>
    </g>
    <g id="Grupo_2941" data-name="Grupo 2941" transform="translate(224.863 -135.818)">
      <path id="Caminho_4148" data-name="Caminho 4148" d="M2.94,1.019A.1.1,0,0,0,2.931,1s0-.009,0-.014C2.9.931,2.664.458,2.637.406c0,0,0,0,0-.009A.522.522,0,0,0,2.6.353c-.14-.165-.279-.34-.435-.491a.089.089,0,0,0-.023-.018c-.086-.066-.24-.161-.274-.183S1.692-.469,1.6-.523L1.575-.537a.008.008,0,0,1-.007,0L.954-.749l0,0a.042.042,0,0,1-.016,0,.017.017,0,0,1-.011,0H.918C.877-.763.279-.8.241-.806a.11.11,0,0,0-.027,0,4.187,4.187,0,0,0-.691.136L.184-.8A4.678,4.678,0,0,0-.5-.663c-.172.082-.507.242-.618.3l-.009.007a2.533,2.533,0,0,0-.26.224A2.523,2.523,0,0,0-1.643.1a.126.126,0,0,0-.014.018c.136-.188-.274.362-.374.546a.071.071,0,0,0-.011.023c-.082.206-.163.414-.224.627a.081.081,0,0,0,0,.025,5.354,5.354,0,0,0-.054.686v.023a4.679,4.679,0,0,0,.131.675l.007.025a.017.017,0,0,1,0,.009c.05.1.1.195.147.292s.093.195.145.292a.137.137,0,0,0,.016.023,1.864,1.864,0,0,0,.686.654,1.876,1.876,0,0,0,.879.39,1.918,1.918,0,0,0,.3.034c.029.007.063.007.093.011.045,0,.093.011.138.009a2.638,2.638,0,0,0,.446.029c.22-.043.439-.086.661-.131A2.524,2.524,0,0,0,2.4,3.649l.018-.018a4.1,4.1,0,0,0,.376-.546A.235.235,0,0,0,2.8,3.062l.217-.607s0,0,0,0,0,0,0,0,0-.009,0-.014a.1.1,0,0,1,0-.011V2.414c0-.023.05-.645.052-.668V1.721a3.212,3.212,0,0,0-.138-.7" transform="translate(2.325 0.806)" fill="#2b2e34"/>
    </g>
    <g id="Grupo_2942" data-name="Grupo 2942" transform="translate(214.483 -137.37)">
      <path id="Caminho_4149" data-name="Caminho 4149" d="M4.254,1.172a2.927,2.927,0,0,0-1.089-1.4,4.259,4.259,0,0,0-1.4-.562,3.781,3.781,0,0,0-3.046.412c-.034.025-.063.059-.1.084a1.22,1.22,0,0,0-.3.172,3.883,3.883,0,0,0-1,1.189,2.817,2.817,0,0,0-.39.666,3.049,3.049,0,0,0-.263,1.576,3.118,3.118,0,0,0,.58,1.5c.052.068.118.125.174.188a2.938,2.938,0,0,0,.265.457A3.106,3.106,0,0,0,.49,6.747a3.861,3.861,0,0,0,1.028-.276,3.266,3.266,0,0,0,1-.251,3.254,3.254,0,0,0,1.293-.951,3.314,3.314,0,0,0,.677-1.533,5.367,5.367,0,0,0,.027-1.32,4.852,4.852,0,0,0-.265-1.243" transform="translate(3.364 0.926)" fill="#fff"/>
    </g>
    <g id="Grupo_2943" data-name="Grupo 2943" transform="translate(218.28 -134.45)">
      <path id="Caminho_4150" data-name="Caminho 4150" d="M0,.022.016.016h0C.1-.023.129-.037,0,.022" transform="translate(0 0.018)" fill="#2b2e34"/>
    </g>
    <g id="Grupo_2944" data-name="Grupo 2944" transform="translate(217.038 -134.514)">
      <path id="Caminho_4151" data-name="Caminho 4151" d="M2.026.7,2.019.686s0-.007,0-.009l-.2-.4s0,0,0,0A.145.145,0,0,0,1.793.244a4.274,4.274,0,0,0-.3-.34.1.1,0,0,0-.016-.014C1.419-.152,1.313-.22,1.29-.236S1.165-.324,1.1-.363L1.084-.369a.008.008,0,0,0,0,0L.658-.517l0,0-.011,0s0,0-.009,0h0C.6-.526.192-.555.164-.555H.146a2.807,2.807,0,0,0-.476.1c.152-.029.3-.061.457-.091a3.239,3.239,0,0,0-.469.093c-.12.057-.351.165-.426.208,0,0,0,0-.007,0a1.433,1.433,0,0,0-.181.154,1.9,1.9,0,0,0-.179.156.049.049,0,0,0-.009.011c.093-.129-.19.251-.258.376l-.007.016C-1.464.611-1.52.754-1.564.9c0,.007,0,.011,0,.018a3.669,3.669,0,0,0-.036.473v.016a3.174,3.174,0,0,0,.091.464.042.042,0,0,0,0,.016s0,0,0,.007c.034.068.068.136.1.2s.063.136.1.2a.069.069,0,0,0,.011.016,1.273,1.273,0,0,0,.473.451,1.289,1.289,0,0,0,.6.269,1.638,1.638,0,0,0,.206.023.6.6,0,0,0,.063.007.672.672,0,0,0,.1.007,1.732,1.732,0,0,0,.308.02L.914,3a1.77,1.77,0,0,0,.738-.489s.007-.007.011-.011a2.858,2.858,0,0,0,.258-.378l.007-.014.152-.419v0s0,0,0,0V1.676s0,0,0-.009v0c0-.014.034-.444.036-.457v-.02A2.193,2.193,0,0,0,2.026.7" transform="translate(1.602 0.555)" fill="#2b2e34"/>
    </g>
    <g id="Grupo_2945" data-name="Grupo 2945" transform="translate(208.549 -128.931)">
      <path id="Caminho_4152" data-name="Caminho 4152" d="M19.034.182c-.928-.743-1.773-.063-2.557.505a25.87,25.87,0,0,1-3.322,2.04,31.568,31.568,0,0,1-7.5,2.65A47.432,47.432,0,0,1-3.512,6.462c-3.311.093-6.708-.077-9.724-1.574a.98.98,0,0,0-1.361.553.969.969,0,0,0-.351,1.246c1.155,2.389,2.432,5.333,4.443,7.136,1.852,1.662,4.735,2.276,7.127,2.6a22.854,22.854,0,0,0,7.122-.181,20.331,20.331,0,0,0,7.6-2.444A17.447,17.447,0,0,0,18.6,5.91c.983-1.56,2.072-4.416.43-5.727" transform="translate(15.051 0.144)" fill="#85c957"/>
    </g>
    <g id="Grupo_2946" data-name="Grupo 2946" transform="translate(214.483 -127.452)">
      <path id="Caminho_4153" data-name="Caminho 4153" d="M10.876.157A14.231,14.231,0,0,1,2.868,4.174a17.6,17.6,0,0,1-5,.048,19.275,19.275,0,0,1-2.31-.453A5.426,5.426,0,0,1-6.92,2.7c-.722-.759-2.215.138-1.483.908,1.171,1.23,3.168,1.671,4.907,2a19.577,19.577,0,0,0,6.139.181,16.384,16.384,0,0,0,9.573-4.62c.756-.779-.584-1.789-1.341-1.01" transform="translate(8.6 0.124)" fill="#388735"/>
    </g>
    <g id="Grupo_2947" data-name="Grupo 2947" transform="translate(232.253 -121.38)">
      <path id="Caminho_4154" data-name="Caminho 4154" d="M2.173.217a.966.966,0,0,0-.686-.294c-.032,0-.057.016-.086.02A.955.955,0,0,0,.713-.143,3.306,3.306,0,0,0-.782.716a3.616,3.616,0,0,0-.548.709,3.03,3.03,0,0,0-.344.82,1.374,1.374,0,0,0,.1.981,1.181,1.181,0,0,0,.888.591,2.477,2.477,0,0,0,.956-.061,2.875,2.875,0,0,0,1.424-.9A3.039,3.039,0,0,0,2.457.928,1.044,1.044,0,0,0,2.173.217" transform="translate(1.719 0.172)" fill="#bbd754"/>
    </g>
    <g id="Grupo_2948" data-name="Grupo 2948" transform="translate(238.117 -123.162)">
      <path id="Caminho_4155" data-name="Caminho 4155" d="M1.157.414A1,1,0,0,0,.908-.03l-.2-.156A.92.92,0,0,0,.222-.324l-.165,0a.747.747,0,0,0-.376.086.718.718,0,0,0-.31.208.76.76,0,0,0-.2.324A.782.782,0,0,0-.915.679c.011.091.023.179.034.267a1,1,0,0,0,.251.444c.066.052.129.106.195.159a.94.94,0,0,0,.491.136c.054,0,.109,0,.165,0A.711.711,0,0,0,.6,1.6a.739.739,0,0,0,.313-.208.742.742,0,0,0,.2-.324A.758.758,0,0,0,1.191.681L1.157.414" transform="translate(0.915 0.327)" fill="#bbd754"/>
    </g>
    <g id="Grupo_2949" data-name="Grupo 2949" transform="translate(213.159 -118.035)">
      <path id="Caminho_4156" data-name="Caminho 4156" d="M2.416.994A18.171,18.171,0,0,0-.449-.65a1.024,1.024,0,0,0-.747-.1,1,1,0,0,0-.58.462,1.055,1.055,0,0,0-.1.777c0,.014.016.027.02.043a.991.991,0,0,0,.258.811,5.874,5.874,0,0,0,1.5,1.227,2.965,2.965,0,0,0,2.276.265,1.01,1.01,0,0,0,.7-.838,1.04,1.04,0,0,0-.464-1" transform="translate(1.91 0.786)" fill="#bbd754"/>
    </g>
  </g>
</svg>
