<svg xmlns="http://www.w3.org/2000/svg" xmlns:xlink="http://www.w3.org/1999/xlink" width="33.803" height="40" viewBox="0 0 33.803 40">
  <defs>
    <clipPath id="clip-path">
      <path id="Caminho_4083" data-name="Caminho 4083" d="M17.212-105.565h33.8v-40h-33.8Z" transform="translate(0 0)" fill="none"/>
    </clipPath>
  </defs>
  <g id="alfabeto_ing_a_fim" transform="translate(-17.212 145.565)" clip-path="url(#clip-path)">
    <g id="Grupo_2871" data-name="Grupo 2871" transform="translate(17.697 -135.32)">
      <path id="Caminho_4078" data-name="Caminho 4078" d="M15.649,3.431a2.531,2.531,0,0,0-.1-.246,3.432,3.432,0,0,0-.163-.621c-.069-.173-.144-.352-.219-.528A9.339,9.339,0,0,0,14.713.718a6.771,6.771,0,0,0-4.445-3.767c-3.213-1.017-6.3-.227-9.411.686-.325.094-.669.154-.988.265-.042.008-.065.013-.092.019-.171.023-.342.046-.513.06-.317.021-.632.015-.947.012.113-.012-.651-.06-.68-.063-.559-.081-1.115-.194-1.672-.3-.269-.154-.54-.315-.809-.448A8.318,8.318,0,0,0-14.56-1.244a9.313,9.313,0,0,0-1.954,9.322,54.627,54.627,0,0,0,2.492,5.911c.9,2.466,1.756,4.964,2.8,7.366a6.364,6.364,0,0,0,2.3,2.884,6.439,6.439,0,0,0,1.314.638c.11.06.206.125.321.181,2.074.974,4.257.8,6.453.475a10.359,10.359,0,0,1,2.69-.106,17.331,17.331,0,0,0,3.476.275,4.341,4.341,0,0,0,1.789-.575,5.863,5.863,0,0,0,2-1.291,12.014,12.014,0,0,0,2.083-3.8c1.026-2.227,2.556-4.209,3.4-6.509a11.806,11.806,0,0,0,.724-2.089c.578-2.483,1.005-5.519.313-8.008" transform="translate(16.979 3.723)" fill="#ff4242"/>
    </g>
    <g id="Grupo_2872" data-name="Grupo 2872" transform="translate(45.568 -131.025)">
      <path id="Caminho_4079" data-name="Caminho 4079" d="M.8.149C-.083-.8-1.459.652-.582,1.6A5.7,5.7,0,0,1,.023,8.448a1.061,1.061,0,0,0,.359,1.4.974.974,0,0,0,1.339-.375A7.847,7.847,0,0,0,.8.149" transform="translate(0.863 0.161)" fill="#fff"/>
    </g>
    <g id="Grupo_2873" data-name="Grupo 2873" transform="translate(31.302 -142.904)">
      <path id="Caminho_4080" data-name="Caminho 4080" d="M.854.225a.98.98,0,0,0-1.3-.342.961.961,0,0,0-.342,1.3,10.792,10.792,0,0,1,1.426,8.7c-.256,1.2,1.58,1.7,1.833.507C3.2,6.978,2.991,3.125.854.225" transform="translate(0.927 0.244)" fill="#a72517"/>
    </g>
    <g id="Grupo_2874" data-name="Grupo 2874" transform="translate(28.842 -133.253)">
      <path id="Caminho_4081" data-name="Caminho 4081" d="M5.071.217a.978.978,0,0,0-1.3-.342,12.116,12.116,0,0,1-8.1.411.951.951,0,0,0-.505,1.833,14.165,14.165,0,0,0,9.562-.6.954.954,0,0,0,.342-1.3" transform="translate(5.502 0.235)" fill="#d53537"/>
    </g>
    <g id="Grupo_2875" data-name="Grupo 2875" transform="translate(33.582 -145.363)">
      <path id="Caminho_4082" data-name="Caminho 4082" d="M6.567.029C3.744,1.238.635,1.585-2.1,3.032A8.231,8.231,0,0,0-6.5,8.542c-.05.029-.092.065-.142.092a1.02,1.02,0,0,0,.5,1.876A16.549,16.549,0,0,0,2.63,8.125C5.08,6.637,7.9,4.207,7.809,1,7.789.419,7.184-.234,6.567.029" transform="translate(7.125 0.031)" fill="#46ac46"/>
    </g>
  </g>
</svg>
