<svg xmlns="http://www.w3.org/2000/svg" xmlns:xlink="http://www.w3.org/1999/xlink" width="51.634" height="40" viewBox="0 0 51.634 40">
  <defs>
    <clipPath id="clip-path">
      <path id="Caminho_4304" data-name="Caminho 4304" d="M122.346-22.706H173.98v-40H122.346Z" transform="translate(0 0)" fill="none"/>
    </clipPath>
  </defs>
  <g id="alfabeto_ing_q_fim" transform="translate(-122.346 62.706)" clip-path="url(#clip-path)">
    <g id="Grupo_3096" data-name="Grupo 3096" transform="translate(122.852 -45.014)">
      <path id="Caminho_4288" data-name="Caminho 4288" d="M5.945,1.618a2.247,2.247,0,0,0-.283-.274A2.322,2.322,0,0,0,4.312-.17,17.787,17.787,0,0,0,1.137-1.294,21.071,21.071,0,0,0-2.22-1.877a9.01,9.01,0,0,0-3.1.062A2.815,2.815,0,0,0-6.846,2.426c1.017,1.746,3.33,2.592,5.188,2.91a11.078,11.078,0,0,0,1.291.118,6.66,6.66,0,0,0-.569.563,3.818,3.818,0,0,0,.521,5.25,4.757,4.757,0,0,0,5.715.114A8.118,8.118,0,0,0,8.639,6.035,4.329,4.329,0,0,0,5.945,1.618" transform="translate(7.282 1.981)" fill="#a83519"/>
    </g>
    <g id="Grupo_3097" data-name="Grupo 3097" transform="translate(133.94 -49.108)">
      <path id="Caminho_4289" data-name="Caminho 4289" d="M11.092,4.471c-1.2-1.822-1.929-3.88-3.409-5.52A9.454,9.454,0,0,0,4.918-3.118,3.26,3.26,0,0,0,2.587-5.011c-2.676-.5-5.291-.826-7.867.254A7.446,7.446,0,0,0-9.919,1.81c-.049.7.147,1.66.042,2.418a.581.581,0,0,0-.094.22c-.214.334-.416.672-.641,1-.08.118-.114.173-.129.2-.065.073-.134.145-.183.207-.352.449-.71.9-1.044,1.359a8.834,8.834,0,0,0-1.366,2.768A7.506,7.506,0,0,0-11.122,17.4a12.2,12.2,0,0,0,6.657,2.843c4.814.679,10.474.109,14.354-3.079a9.287,9.287,0,0,0,3.1-6.319,9.8,9.8,0,0,0-1.9-6.378" transform="translate(13.585 5.476)" fill="#f9a57f"/>
    </g>
    <g id="Grupo_3098" data-name="Grupo 3098" transform="translate(133.94 -51.174)">
      <path id="Caminho_4290" data-name="Caminho 4290" d="M16.981,3.479a10.7,10.7,0,0,0-6.116-.8A12.951,12.951,0,0,0,5.556,4.563a1.121,1.121,0,0,0-.14.087c-.178.113-.365.211-.538.331a4.458,4.458,0,0,0-.058-2.2C3.894-.694.433-2.759-3.038-3.448a23.148,23.148,0,0,0-2.939-.383,3.833,3.833,0,0,0-2.156.193.705.705,0,0,0-.432-.323c-4.783-1.331-9.377,1.991-11.48,5.891a4.326,4.326,0,0,0-.625,3.264c.361,1.059,1.8,1.368,2.812,1.522a6.42,6.42,0,0,0,3.551-.463A13.026,13.026,0,0,0-11.4,4.207,12.623,12.623,0,0,0-8.616,1.148a6.927,6.927,0,0,0,.45.543A3.938,3.938,0,0,0-6.019,3.437c.015,0,.031,0,.047.005A25.416,25.416,0,0,0-2.645,5.177a13.565,13.565,0,0,0,5.34,1.244s0,0,0,.005a7.16,7.16,0,0,0,4.745,9.028c2,.636,3.953.216,4.908-1.675a3.855,3.855,0,0,0,.472-2.926,4.433,4.433,0,0,0-1.624-2.034c-.065-.049-.138-.093-.2-.14a19.949,19.949,0,0,0,3.108-.1,9.461,9.461,0,0,0,3.21-.748c1.935-1.008,1.39-3.411-.325-4.35" transform="translate(20.799 4.261)" fill="#a83519"/>
    </g>
    <g id="Grupo_3099" data-name="Grupo 3099" transform="translate(155.794 -43.989)">
      <path id="Caminho_4291" data-name="Caminho 4291" d="M2.191.009A1.014,1.014,0,0,0,1.063,1.335.884.884,0,0,0,.336,2.5.864.864,0,0,0,.1,2.406.879.879,0,0,0-.912,3.453l-.1-.114a.893.893,0,0,0-.421-.2c-.065-.011-.131-.022-.2-.035a.682.682,0,0,0-.352.013.688.688,0,0,0-.316.129.664.664,0,0,0-.233.249.671.671,0,0,0-.138.323l-.011.238a.881.881,0,0,0,.154.427c.051.058.1.114.153.171a.9.9,0,0,0,.421.2c.065.013.131.024.2.035a.662.662,0,0,0,.352-.013.655.655,0,0,0,.316-.129A.679.679,0,0,0-.856,4.5a.652.652,0,0,0,.136-.323c.005-.08.009-.16.013-.238a.783.783,0,0,0-.04-.109.819.819,0,0,0,.529.329A.882.882,0,0,0,.752,2.97a.866.866,0,0,0,.233.094A.878.878,0,0,0,2,2.023,1.019,1.019,0,0,0,2.191.009" transform="translate(2.683 0.011)" fill="#ff5872"/>
    </g>
    <g id="Grupo_3100" data-name="Grupo 3100" transform="translate(141.033 -59.2)">
      <path id="Caminho_4292" data-name="Caminho 4292" d="M4.842.977A5.241,5.241,0,0,0,2.193-.81,8.458,8.458,0,0,0-1-1.177a8.952,8.952,0,0,0-3.1.652A2.993,2.993,0,0,0-5.93,2.253,5.683,5.683,0,0,0-4.313,5.662a.977.977,0,0,0,1.148.2A3.348,3.348,0,0,0-.617,7.077a6.212,6.212,0,0,0,3.4-.307A4.719,4.719,0,0,0,3.964,5.677,6.353,6.353,0,0,0,4.989,4.2,3.2,3.2,0,0,0,4.842.977" transform="translate(5.93 1.197)" fill="#ff5872"/>
    </g>
    <g id="Grupo_3101" data-name="Grupo 3101" transform="translate(138.303 -62.706)">
      <path id="Caminho_4293" data-name="Caminho 4293" d="M7.751,1.546a2.055,2.055,0,0,0-.527-.9L6.808.32A2.05,2.05,0,0,0,5.772.041H5.7a1.558,1.558,0,0,0-.79.176,1.544,1.544,0,0,0-.659.425,1.527,1.527,0,0,0-.425.659,1.542,1.542,0,0,0-.176.792c.024.182.049.363.073.545a2.153,2.153,0,0,0,.089.211Q2.093,4.546.539,6.393A30.039,30.039,0,0,0,.576,2.057c1.853-.7,1.618-3.951-.743-3.951-2.281,0-2.585,3.053-.921,3.885-.625,1.8-1.268,3.591-1.951,5.368C-3.466,6.683-3.917,6.02-4.4,5.381c-.351-.465-.7-.972-1.079-1.45a2.016,2.016,0,0,0,.165-.761c-.024-.182-.049-.363-.073-.545a2.055,2.055,0,0,0-.529-.906c-.025-.025-.051-.051-.076-.074a1.527,1.527,0,0,0-.659-.425,1.54,1.54,0,0,0-.79-.176,1.542,1.542,0,0,0-.792.176,1.527,1.527,0,0,0-.659.425l-.322.414a2.05,2.05,0,0,0-.28,1.035l.074.545a2.034,2.034,0,0,0,.527.906l.076.074a1.55,1.55,0,0,0,.661.425,1.532,1.532,0,0,0,.79.176,1.54,1.54,0,0,0,.285-.064,31.92,31.92,0,0,1,1.244,4.65c.078.465.129.932.165,1.4a2.129,2.129,0,0,0,.263,1.083,3.837,3.837,0,0,0,2.178,1.041,10.091,10.091,0,0,0,5.142.033,2.336,2.336,0,0,0,1.633-1.27,12.693,12.693,0,0,0,.507-2.743c.314-1.773.734-3.524,1.166-5.271a1.977,1.977,0,0,0,.476.064h.076a1.555,1.555,0,0,0,.79-.178,1.54,1.54,0,0,0,.661-.423,1.529,1.529,0,0,0,.423-.661,1.532,1.532,0,0,0,.176-.79Z" transform="translate(9.493 1.894)" fill="#ffc734"/>
    </g>
    <g id="Grupo_3102" data-name="Grupo 3102" transform="translate(146.022 -51.723)">
      <path id="Caminho_4294" data-name="Caminho 4294" d="M.445,0a1.026,1.026,0,0,0,0,2.051A1.026,1.026,0,0,0,.445,0" transform="translate(0.546)" fill="#fff"/>
    </g>
    <g id="Grupo_3103" data-name="Grupo 3103" transform="translate(142.829 -51.929)">
      <path id="Caminho_4295" data-name="Caminho 4295" d="M.445,0a1.026,1.026,0,0,0,0,2.051A1.026,1.026,0,0,0,.445,0" transform="translate(0.546)" fill="#fff"/>
    </g>
    <g id="Grupo_3104" data-name="Grupo 3104" transform="translate(148.982 -52.2)">
      <path id="Caminho_4296" data-name="Caminho 4296" d="M.445,0a1.026,1.026,0,0,0,0,2.051A1.026,1.026,0,0,0,.445,0" transform="translate(0.546)" fill="#fff"/>
    </g>
    <g id="Grupo_3105" data-name="Grupo 3105" transform="translate(144.102 -37.097)">
      <path id="Caminho_4297" data-name="Caminho 4297" d="M1.73,2.393a1.013,1.013,0,0,1-.245-.078c.074.038-.113-.085-.134-.105.056.053-.094-.114-.113-.142.045.067-.069-.142-.082-.173A.563.563,0,0,0,.471,1.55,2.494,2.494,0,0,1-.306,1.8a2.77,2.77,0,0,1-.425.011L-.771,1.8a.1.1,0,0,0,.009-.02,4.158,4.158,0,0,1,.509-.609A8.441,8.441,0,0,0,.975-.132a3.135,3.135,0,0,0,.487-2.249.609.609,0,0,0-.745-.525.8.8,0,0,0-.423.926.765.765,0,0,1-.016.352,1.266,1.266,0,0,1-.136.369,3.019,3.019,0,0,1-.592.745A6.876,6.876,0,0,0-1.826,1.058a1.956,1.956,0,0,0-.263,1.31,1.145,1.145,0,0,0,.783.857A2.851,2.851,0,0,0,.406,3.15a1.763,1.763,0,0,0,1,.694.618.618,0,0,0,.745-.525c.08-.363-.1-.857-.423-.926" transform="translate(2.119 2.931)" fill="#b75d3d"/>
    </g>
    <g id="Grupo_3106" data-name="Grupo 3106" transform="translate(148.818 -37.819)">
      <path id="Caminho_4298" data-name="Caminho 4298" d="M3.343.512C3.251.51,3.16.5,3.069.49A3.722,3.722,0,0,1,2.417.314a.651.651,0,0,0-.243-.852.661.661,0,0,0-.883.231A2.731,2.731,0,0,1-.722.413a4.076,4.076,0,0,1-2.4-.623.654.654,0,0,0-.883.231A.656.656,0,0,0-3.777.9a5.291,5.291,0,0,0,3.23.79c.027,0,.051-.007.076-.009a.573.573,0,0,0,.122.18q.381.36.761.719a.675.675,0,0,0,.458.189.49.49,0,0,0,.249-.054.488.488,0,0,0,.207-.134.648.648,0,0,0,.189-.456.656.656,0,0,0-.189-.456c-.107-.1-.214-.2-.323-.3.1-.038.176-.1.269-.142.009.005.015.016.024.022A4.545,4.545,0,0,0,3.343,1.8a.649.649,0,0,0,.645-.645A.658.658,0,0,0,3.343.512" transform="translate(4.095 0.627)" fill="#2b2e34"/>
    </g>
    <g id="Grupo_3107" data-name="Grupo 3107" transform="translate(137.512 -37.819)">
      <path id="Caminho_4299" data-name="Caminho 4299" d="M.29.512C.383.51.474.5.564.49A3.722,3.722,0,0,0,1.216.314.651.651,0,0,1,1.46-.538a.661.661,0,0,1,.883.231A2.731,2.731,0,0,0,4.355.413a4.076,4.076,0,0,0,2.4-.623.654.654,0,0,1,.883.231A.656.656,0,0,1,7.411.9a5.291,5.291,0,0,1-3.23.79c-.027,0-.051-.007-.076-.009a.573.573,0,0,1-.122.18q-.381.36-.761.719a.675.675,0,0,1-.458.189.49.49,0,0,1-.249-.054.488.488,0,0,1-.207-.134.648.648,0,0,1-.189-.456.656.656,0,0,1,.189-.456c.107-.1.214-.2.323-.3-.1-.038-.176-.1-.267-.142-.011.005-.016.016-.025.022A4.545,4.545,0,0,1,.29,1.8a.649.649,0,0,1-.645-.645A.658.658,0,0,1,.29.512" transform="translate(0.355 0.627)" fill="#2b2e34"/>
    </g>
    <g id="Grupo_3108" data-name="Grupo 3108" transform="translate(133.201 -44.599)">
      <path id="Caminho_4300" data-name="Caminho 4300" d="M2.231,2.173a1.018,1.018,0,0,0-.263-.452c-.069-.054-.138-.107-.209-.16a1.018,1.018,0,0,0-.518-.142c-.024,0-.049,0-.074,0a.778.778,0,0,0-.4.087c-.036.013-.062.045-.094.062A.936.936,0,0,0-.283.747a.973.973,0,0,0-.2.04,1.025,1.025,0,0,0-.676-1.6,1.03,1.03,0,0,0-.59-1.846A1.02,1.02,0,0,0-1.872-.635,1.029,1.029,0,0,0-1.28,1.209a.939.939,0,0,0,.2-.038A1.024,1.024,0,0,0-.283,2.8a1.011,1.011,0,0,0,.456-.105.142.142,0,0,1,0,.025,1.034,1.034,0,0,0,.263.454c.071.053.14.107.209.16a1.016,1.016,0,0,0,.518.14h.074a.779.779,0,0,0,.4-.089.775.775,0,0,0,.331-.213.769.769,0,0,0,.213-.329.782.782,0,0,0,.087-.4c-.013-.091-.024-.182-.036-.272" transform="translate(2.733 2.662)" fill="#ff5872"/>
    </g>
    <g id="Grupo_3109" data-name="Grupo 3109" transform="translate(144.974 -28.838)">
      <path id="Caminho_4301" data-name="Caminho 4301" d="M1.769.345A.988.988,0,0,0,.549-.381a1.159,1.159,0,0,0-.6.474,1.233,1.233,0,0,0-.1.187C-.162.307-.173.334-.183.363A1.314,1.314,0,0,0-.372.153a1.025,1.025,0,0,0-.761-.429A1.014,1.014,0,0,0-2.167.7a1.134,1.134,0,0,0,.672.986.649.649,0,0,0-.058.247,1.039,1.039,0,0,0,.225.63,1.759,1.759,0,0,0,.647.518A1.394,1.394,0,0,0,0,3.348a1.147,1.147,0,0,0,.719-.22c.033-.015.069-.015.1-.031a1.324,1.324,0,0,0,.538-.543,1.173,1.173,0,0,0,.134-.492,1.012,1.012,0,0,0-.085-.405A1.423,1.423,0,0,0,1.769.345" transform="translate(2.167 0.423)" fill="#ff5756"/>
    </g>
    <g id="Grupo_3110" data-name="Grupo 3110" transform="translate(149.797 -40.358)">
      <path id="Caminho_4302" data-name="Caminho 4302" d="M0,.4a3.186,3.186,0,0,1,4.743.46Z" transform="translate(0 0.484)" fill="#a83519"/>
    </g>
    <g id="Grupo_3111" data-name="Grupo 3111" transform="translate(140.005 -40.353)">
      <path id="Caminho_4303" data-name="Caminho 4303" d="M2.137.432A3.185,3.185,0,0,0-2.618.723Z" transform="translate(2.618 0.53)" fill="#a83519"/>
    </g>
  </g>
</svg>
