<svg xmlns="http://www.w3.org/2000/svg" xmlns:xlink="http://www.w3.org/1999/xlink" width="40" height="37.387" viewBox="0 0 40 37.387">
  <defs>
    <clipPath id="clip-path">
      <rect id="Retângulo_354" data-name="Retângulo 354" width="40" height="37.387" transform="translate(0 0)" fill="none"/>
    </clipPath>
    <clipPath id="clip-path-2">
      <path id="Caminho_4503" data-name="Caminho 4503" d="M20.677,20.887a15.958,15.958,0,0,0-2.332.159,2.607,2.607,0,0,0-1,.286,1.2,1.2,0,0,0-.541,1.081c.032.868.95,1.458,1.623,1.849a15.029,15.029,0,0,0,2.248.994.642.642,0,0,0,.479-.033,5.469,5.469,0,0,0,1.388-.328,6.924,6.924,0,0,0,2.532-1.6.724.724,0,0,0,.119-.909,1.07,1.07,0,0,0-.171-.639c-.42-.65-1.359-.723-2.054-.8a14.289,14.289,0,0,0-1.549-.068c-.248,0-.5,0-.742,0" fill="none"/>
    </clipPath>
  </defs>
  <g id="alfabeto_ing_m_fim" transform="translate(0 0)">
    <g id="Grupo_3269" data-name="Grupo 3269">
      <g id="Grupo_3268" data-name="Grupo 3268" clip-path="url(#clip-path)">
        <path id="Caminho_4488" data-name="Caminho 4488" d="M29.173,11.25a.758.758,0,0,0,.113.145q.414,2.161.825,4.322.24,1.256.479,2.511c.129.675.2,1.449.875,1.835a3.223,3.223,0,0,0,2.064.039,11.5,11.5,0,0,0,1.805-.419,7.478,7.478,0,0,0,3.125-1.868c1.832-1.926,1.875-4.925.939-7.285a5.8,5.8,0,0,0-5.7-3.9c-2.253.213-5.907,1.818-4.522,4.617" fill="#f9a27d"/>
        <path id="Caminho_4489" data-name="Caminho 4489" d="M30.962,10.53A4.44,4.44,0,0,1,35.06,9.2a3.456,3.456,0,0,1,2.558,2.882,5.414,5.414,0,0,1-1.113,3.967,3.784,3.784,0,0,1-1.713,1.518,1.66,1.66,0,0,1-.183.03,1.688,1.688,0,0,1-.877.55,1.909,1.909,0,0,1-1.962-.836,3.569,3.569,0,0,1-.494-1.845c-.031-.508-.014-1.017-.044-1.525,0-.041-.046-.465-.013-.239-.015-.1-.035-.206-.058-.308a2.8,2.8,0,0,0-.112-.369c.016.058-.115-.2-.135-.232a1.083,1.083,0,0,1-.075-.908,1.109,1.109,0,0,1,.123-1.359" fill="#d35f5a"/>
        <path id="Caminho_4490" data-name="Caminho 4490" d="M6.3,6.411a5.8,5.8,0,0,0-5.7,3.9c-.936,2.36-.892,5.359.939,7.286a7.486,7.486,0,0,0,3.125,1.867,11.474,11.474,0,0,0,1.805.419,3.223,3.223,0,0,0,2.064-.039c.673-.386.747-1.16.876-1.835q.238-1.255.479-2.511.411-2.16.824-4.322a.8.8,0,0,0,.114-.145c1.385-2.8-2.27-4.4-4.523-4.617" fill="#f9a27d"/>
        <path id="Caminho_4491" data-name="Caminho 4491" d="M9.038,10.308a4.44,4.44,0,0,0-4.1-1.326,3.456,3.456,0,0,0-2.558,2.882,5.414,5.414,0,0,0,1.113,3.967,3.784,3.784,0,0,0,1.713,1.518,1.661,1.661,0,0,0,.183.03,1.688,1.688,0,0,0,.877.55,1.909,1.909,0,0,0,1.962-.836,3.569,3.569,0,0,0,.494-1.845c.031-.508.014-1.017.044-1.525,0-.041.046-.465.013-.239.015-.1.035-.206.058-.308a2.8,2.8,0,0,1,.112-.369c-.016.058.115-.2.135-.233a1.081,1.081,0,0,0,.075-.907,1.109,1.109,0,0,0-.123-1.359" fill="#d35f5a"/>
        <path id="Caminho_4492" data-name="Caminho 4492" d="M36.007,26.109a9.309,9.309,0,0,0-1.76-4.286c-.675-.926-1.467-1.628-2.088-2.432a12.62,12.62,0,0,0,.094-8.165,11.58,11.58,0,0,0-6.517-6.767,14.872,14.872,0,0,0-9.462-.207c-.231.063-.462.138-.694.21l-.072,0A1.118,1.118,0,0,0,15,4.648c-.236.079-.469.166-.7.255A6.351,6.351,0,0,0,10.67,6.866,9.4,9.4,0,0,0,8.446,9.219a9.059,9.059,0,0,0-1.192,5.712c.156,1.614.572,3.2.736,4.695-2.4,2.17-4.419,5.06-3.955,8.431.5,3.642,4.045,5.442,7.1,6.814,3.414,1.532,7.261,2.8,11.058,2.459a22.575,22.575,0,0,0,9.832-3.681c2.6-1.732,4.386-4.328,3.982-7.54" fill="#8d2711"/>
        <path id="Caminho_4493" data-name="Caminho 4493" d="M33.737,23.857A9.143,9.143,0,0,0,29.7,20.119a13.845,13.845,0,0,0,1.173-2.653,6.861,6.861,0,0,0-1.162-6.586A4.889,4.889,0,0,0,26.94,9.265a6.036,6.036,0,0,0-3.856.595,6.643,6.643,0,0,0-2.59,2.546c-.065-.155-.11-.32-.18-.472a5.317,5.317,0,0,0-3.2-2.9,5.3,5.3,0,0,0-4.855,1.152,8.074,8.074,0,0,0-2.28,3.467,8.414,8.414,0,0,0-.589,3.654,9.076,9.076,0,0,0,.6,2.662,6.412,6.412,0,0,0-4.419,6.105c.1,3.885,3.8,6.413,7.019,7.754a18.819,18.819,0,0,0,10.837,1.436c3.569-.643,7.922-1.948,10.014-5.124a6.293,6.293,0,0,0,.3-6.284" fill="#fcad83"/>
        <path id="Caminho_4494" data-name="Caminho 4494" d="M12.02,14.384a3.266,3.266,0,0,1,1.081-1.62,4.506,4.506,0,0,1,1.47-.72,3.941,3.941,0,0,1,3.29.243c.039.024.07.06.108.086a1.253,1.253,0,0,1,.337.169,4.244,4.244,0,0,1,1.152,1.244,3.226,3.226,0,0,1,.46.709,3.468,3.468,0,0,1,.38,1.726,3.566,3.566,0,0,1-.526,1.7c-.052.079-.119.146-.176.221a3.265,3.265,0,0,1-.257.524,3.325,3.325,0,0,1-2.933,1.624,3.993,3.993,0,0,1-1.118-.233,3.421,3.421,0,0,1-1.094-.21,3.46,3.46,0,0,1-1.446-.961,3.684,3.684,0,0,1-.821-1.648,6.144,6.144,0,0,1-.112-1.457,5.508,5.508,0,0,1,.205-1.394" fill="#fff"/>
        <path id="Caminho_4495" data-name="Caminho 4495" d="M15.9,13.372l-.016-.006h0c-.092-.038-.123-.051.02.006" fill="#1a1818"/>
        <path id="Caminho_4496" data-name="Caminho 4496" d="M15.1,16.841l.005-.018,0-.01c.016-.042.171-.414.188-.455l0-.006a.145.145,0,0,1,.02-.034c.1-.134.191-.273.3-.4l.015-.014c.061-.053.17-.135.194-.154s.128-.106.194-.153l.018-.01,0,0,.444-.191h0l.01,0,.01,0h.005c.029-.006.469-.066.5-.069h.02a2.863,2.863,0,0,1,.515.071l-.494-.067a3.337,3.337,0,0,1,.508.07c.131.053.386.159.469.2l.008,0a1.894,1.894,0,0,1,.2.158,1.97,1.97,0,0,1,.2.16l.011.013c-.108-.136.219.263.3.4a.056.056,0,0,1,.009.017,4.987,4.987,0,0,1,.193.467.139.139,0,0,1,.006.019,4.354,4.354,0,0,1,.069.52v.018a3.567,3.567,0,0,1-.067.521l0,.018,0,.008c-.031.077-.063.153-.094.23s-.062.154-.1.229l-.011.018a1.414,1.414,0,0,1-.479.532,1.514,1.514,0,0,1-.851.38c-.022.006-.046.007-.069.013s-.067.012-.1.013a1.786,1.786,0,0,1-.328.044l-.494-.067a1.861,1.861,0,0,1-.821-.488l-.014-.013a2.937,2.937,0,0,1-.3-.4l-.008-.015-.188-.453v0l0-.005,0-.009,0-.009v0c0-.016-.065-.489-.067-.506v-.02a2.531,2.531,0,0,1,.071-.541" fill="#1a1818"/>
        <path id="Caminho_4497" data-name="Caminho 4497" d="M21.774,15.511a2.251,2.251,0,0,1,.745-1.117,3.115,3.115,0,0,1,1.013-.5,2.716,2.716,0,0,1,2.267.167c.027.018.049.042.075.06a.872.872,0,0,1,.232.117,2.9,2.9,0,0,1,.794.857,2.214,2.214,0,0,1,.317.489,2.381,2.381,0,0,1,.262,1.189,2.453,2.453,0,0,1-.362,1.17c-.036.054-.082.1-.121.152a2.418,2.418,0,0,1-.177.361A2.3,2.3,0,0,1,24.8,19.58a2.781,2.781,0,0,1-.771-.161,2.347,2.347,0,0,1-.754-.145,2.376,2.376,0,0,1-1-.663,2.523,2.523,0,0,1-.566-1.135,4.18,4.18,0,0,1-.077-1,3.79,3.79,0,0,1,.141-.961" fill="#fff"/>
        <path id="Caminho_4498" data-name="Caminho 4498" d="M24.1,16.046l-.011,0h0c-.063-.026-.085-.035.014,0" fill="#1a1818"/>
        <path id="Caminho_4499" data-name="Caminho 4499" d="M23.539,16.789l0-.012,0-.007c.011-.029.118-.286.13-.314l0,0a.1.1,0,0,1,.014-.024c.067-.092.131-.188.207-.273l.01-.01c.043-.037.118-.093.134-.106s.088-.073.134-.1l.012-.007h0l.306-.132h0l.007,0h.01c.02,0,.323-.045.343-.047a.065.065,0,0,1,.014,0,1.839,1.839,0,0,1,.355.049l-.34-.047a2.286,2.286,0,0,1,.35.049c.09.037.266.109.323.137l.006,0a1.4,1.4,0,0,1,.139.109,1.372,1.372,0,0,1,.139.11l.008.01c-.075-.094.15.181.207.274l.006.011c.048.106.095.213.133.322l0,.013a2.915,2.915,0,0,1,.047.359v.012a2.481,2.481,0,0,1-.047.359l0,.013,0,0c-.022.053-.044.106-.065.159s-.043.106-.066.158l-.007.012a.991.991,0,0,1-.33.367.951.951,0,0,1-.436.234,1,1,0,0,1-.151.028c-.015,0-.032,0-.047.008s-.047.009-.07.01a1.294,1.294,0,0,1-.226.03l-.341-.047a1.273,1.273,0,0,1-.565-.336l-.01-.009a2.058,2.058,0,0,1-.208-.274l0-.011-.129-.313h0v0l0-.007,0-.006v0c0-.011-.045-.336-.046-.348v-.014a1.681,1.681,0,0,1,.049-.373" fill="#1a1818"/>
        <path id="Caminho_4500" data-name="Caminho 4500" d="M25.193,22.412a1.084,1.084,0,0,0-.171-.639c-.42-.651-1.359-.723-2.054-.8a19.679,19.679,0,0,0-2.291-.064,15.947,15.947,0,0,0-2.332.158,2.619,2.619,0,0,0-1,.287,1.2,1.2,0,0,0-.541,1.081c.033.868.951,1.457,1.624,1.849a15.013,15.013,0,0,0,2.247.993.64.64,0,0,0,.48-.032,5.522,5.522,0,0,0,1.388-.328,6.924,6.924,0,0,0,2.532-1.6.724.724,0,0,0,.119-.909" fill="#d35f5a"/>
      </g>
    </g>
    <g id="Grupo_3271" data-name="Grupo 3271">
      <g id="Grupo_3270" data-name="Grupo 3270" clip-path="url(#clip-path-2)">
        <path id="Caminho_4501" data-name="Caminho 4501" d="M20.587,24.379a1.776,1.776,0,0,0-.239-.535,2.013,2.013,0,0,0-.376-.437,2.818,2.818,0,0,0-.32-.237A2.629,2.629,0,0,0,19.268,23a.914.914,0,0,0-.16-.047,2.414,2.414,0,0,0-.415-.051,2.238,2.238,0,0,0-.416.048.727.727,0,0,0-.08.022,1.377,1.377,0,0,0-.56.322.451.451,0,0,0-.066.065,1.4,1.4,0,0,0-.187.254,1.2,1.2,0,0,0-.147.543,1.219,1.219,0,0,0,.621,1.052,4.165,4.165,0,0,0,.669.307,3.05,3.05,0,0,0,.448.128s.006.011.01.015a.969.969,0,0,0,1.373,0l.152-.2a.972.972,0,0,0,.133-.49.825.825,0,0,0,.005-.179,2.214,2.214,0,0,0-.061-.413" fill="#661a04"/>
        <path id="Caminho_4502" data-name="Caminho 4502" d="M24.658,23.355a1.451,1.451,0,0,0-.348-.26,1.659,1.659,0,0,0-.669-.189,1.445,1.445,0,0,0-.467.047,1.826,1.826,0,0,0-.444.181,2.368,2.368,0,0,0-.59.48,3.22,3.22,0,0,0-.511.684,1.972,1.972,0,0,0-.191.489v.007c-.01.016-.027.024-.037.041a.972.972,0,0,0,.348,1.329.957.957,0,0,0,.749.1l.008,0a.8.8,0,0,0,.131-.009,1.171,1.171,0,0,0,.322-.161l.8-.3a2.8,2.8,0,0,0,.657-.3,1.653,1.653,0,0,0,.469-.47,1.339,1.339,0,0,0,.195-.66,1.382,1.382,0,0,0-.419-1.009" fill="#661a04"/>
      </g>
    </g>
    <g id="Grupo_3273" data-name="Grupo 3273">
      <g id="Grupo_3272" data-name="Grupo 3272" clip-path="url(#clip-path)">
        <path id="Caminho_4504" data-name="Caminho 4504" d="M24.574,30.066a9.457,9.457,0,0,1-6.1,1.2c-2.038-.291-4.355-1.237-5.484-3.052a.631.631,0,0,0-1.073.663A8.888,8.888,0,0,0,18.181,32.5a10.849,10.849,0,0,0,7.057-1.359c.7-.414.036-1.487-.664-1.074" fill="#c1494f"/>
        <path id="Caminho_4505" data-name="Caminho 4505" d="M22.354,3.838h0v0" fill="#8d2711"/>
        <path id="Caminho_4506" data-name="Caminho 4506" d="M23.426,4.063a.808.808,0,0,0-1.057-.179c0-.027,0-.074,0-.1.018-.047.037-.093.058-.139a1.941,1.941,0,0,0,.244-.765.864.864,0,0,0-.32-.757.772.772,0,0,0-.787-.106,2.485,2.485,0,0,0-.7.625c.081-.581.255-1.143.3-1.732a.81.81,0,0,0-1.432-.6,5.73,5.73,0,0,0-1.194,2.487,2.611,2.611,0,0,0,.224,1.485A9.9,9.9,0,0,1,19.3,5.513a.8.8,0,0,0,1.046.442.765.765,0,0,0,.414-.446.732.732,0,0,0,.583.023.779.779,0,0,0,.259-.2,1.429,1.429,0,0,0,1.7-.127.836.836,0,0,0,.119-1.138" fill="#8d2711"/>
      </g>
    </g>
  </g>
</svg>
