<svg xmlns="http://www.w3.org/2000/svg" xmlns:xlink="http://www.w3.org/1999/xlink" width="66.205" height="40" viewBox="0 0 66.205 40">
  <defs>
    <clipPath id="clip-path">
      <path id="Caminho_4381" data-name="Caminho 4381" d="M346.112-14.641h66.205v-40H346.112Z" transform="translate(0 0)" fill="none"/>
    </clipPath>
  </defs>
  <g id="alfabeto_ing_w_fim" transform="translate(-346.112 54.641)" clip-path="url(#clip-path)">
    <g id="Grupo_3180" data-name="Grupo 3180" transform="translate(346.37 -54.022)">
      <path id="Caminho_4372" data-name="Caminho 4372" d="M40.686,0c-1.3.138-2.6.278-3.9.41A2.862,2.862,0,0,0,36.622.7,2.193,2.193,0,0,0,36.183.47C34.025.685,31.858.863,29.7.94A220.066,220.066,0,0,0-19.578,12.508a2.582,2.582,0,0,0-1.791,2.376,3.034,3.034,0,0,0-.387,1.232,17.31,17.31,0,0,0,2.68,10,34.744,34.744,0,0,0,5.827,7.661c5.228,5.013,12.634,5.6,19.539,5.377A98.446,98.446,0,0,0,17.671,38.04a37.622,37.622,0,0,0,10.017-2.789A26.809,26.809,0,0,0,40.365,22.987,27.077,27.077,0,0,0,41.279.931,3.228,3.228,0,0,0,40.686,0" transform="translate(21.802)" fill="#46ac46"/>
    </g>
    <g id="Grupo_3181" data-name="Grupo 3181" transform="translate(348.121 -54.058)">
      <path id="Caminho_4373" data-name="Caminho 4373" d="M37.668.272c-.757-1-2.462-.014-1.7,1,3.631,4.815,3.287,11.235.857,16.518a30.692,30.692,0,0,1-4.809,7.42,17.88,17.88,0,0,1-7.329,4.732,68.777,68.777,0,0,1-8.859,2.832,29.512,29.512,0,0,1-3.236.533.972.972,0,0,0-.714-.149c-.82.143-1.642.258-2.465.358-1.124.02-2.247.009-3.368-.066a54.793,54.793,0,0,1-9.332-1.536c-1.625-.4-3.279-.825-4.9-1.344A.965.965,0,0,0-8.531,28.9a22.778,22.778,0,0,1-3.27-.969,5.96,5.96,0,0,1-2.187-1.745,15.928,15.928,0,0,1-3-5.1,1.007,1.007,0,0,0-1.181-.7,35.792,35.792,0,0,1-.052-6.965c.075-1.278-1.981-1.275-1.966,0,.069,5.173,1.218,11.654,5.566,15.592a11.269,11.269,0,0,0,3.224,2.5,17.493,17.493,0,0,0,3.422,1.949,33.889,33.889,0,0,0,6.655,1.4,47.906,47.906,0,0,0,6.566.874,29.406,29.406,0,0,0,4.319-.238,35.327,35.327,0,0,0,4.526-.367,54.772,54.772,0,0,0,9.963-2.843,22.723,22.723,0,0,0,8.295-4.563,29.428,29.428,0,0,0,5.621-7.8c3.147-6.091,4.047-13.887-.3-19.653" transform="translate(20.185 0.146)" fill="#9ad58c"/>
    </g>
    <g id="Grupo_3182" data-name="Grupo 3182" transform="translate(348.615 -53.798)">
      <path id="Caminho_4374" data-name="Caminho 4374" d="M36.74,0c-1.169.12-7.971.757-9.923.825a203.542,203.542,0,0,0-44.5,10.152A2.281,2.281,0,0,0-19.3,13.064a2.567,2.567,0,0,0-.347,1.081,14.856,14.856,0,0,0,2.419,8.776,30.526,30.526,0,0,0,5.259,6.727c4.723,4.4,11.41,4.915,17.644,4.718a90.862,90.862,0,0,0,10.281-.977A34.774,34.774,0,0,0,25,30.94,23.914,23.914,0,0,0,36.448,20.178,23.169,23.169,0,0,0,37.276.817,2.882,2.882,0,0,0,36.74,0" transform="translate(19.688)" fill="#ff6e88"/>
    </g>
    <g id="Grupo_3183" data-name="Grupo 3183" transform="translate(358.034 -39.406)">
      <path id="Caminho_4375" data-name="Caminho 4375" d="M2.65,1.273a.143.143,0,0,0-.023-.023c-.009-.011-.02-.02-.029-.032-.023-.032-.046-.066-.069-.1s-.057-.092-.083-.138c.043.075,0,0-.017-.037C2.346.768,2.28.585,2.2.407A2.057,2.057,0,0,0,1.363-.63.477.477,0,0,0,.87-.593Q-.171.224-1.211,1.035a.5.5,0,0,0-.123.685.494.494,0,0,0,.682.123l.258-.2a.461.461,0,0,0,.086.06,1.442,1.442,0,0,0,.86.095,6.907,6.907,0,0,1,1.565.292.506.506,0,0,0,.622-.178.5.5,0,0,0-.089-.639" transform="translate(1.42 0.682)" fill="#2b2e34"/>
    </g>
    <g id="Grupo_3184" data-name="Grupo 3184" transform="translate(364.553 -32.093)">
      <path id="Caminho_4376" data-name="Caminho 4376" d="M2.451.855A.156.156,0,0,0,2.422.844.424.424,0,0,1,2.385.821C2.35.8,2.316.778,2.282.755S2.2.689,2.155.655c.066.054,0,0-.029-.026C1.986.494,1.857.348,1.72.211A2.053,2.053,0,0,0,.562-.454a.474.474,0,0,0-.444.215Q-.557.9-1.235,2.028A.5.5,0,0,0-1.1,2.71a.5.5,0,0,0,.682-.132L-.255,2.3a.6.6,0,0,0,.1.026A1.475,1.475,0,0,0,.685,2.1a7.232,7.232,0,0,1,1.565-.3.491.491,0,0,0,.2-.952" transform="translate(1.313 0.458)" fill="#2b2e34"/>
    </g>
    <g id="Grupo_3185" data-name="Grupo 3185" transform="translate(388.009 -44.178)">
      <path id="Caminho_4377" data-name="Caminho 4377" d="M2.024.421l-.032,0L1.95.412C1.91.4,1.872.392,1.832.381S1.729.346,1.68.329c.08.029,0,0-.037-.017C1.468.232,1.3.137,1.124.051A2.068,2.068,0,0,0-.188-.2a.48.48,0,0,0-.353.35q-.267,1.29-.533,2.585a.506.506,0,0,0,.35.6.492.492,0,0,0,.6-.347l.066-.321a.43.43,0,0,0,.106-.009,1.464,1.464,0,0,0,.717-.484,7.053,7.053,0,0,1,1.381-.791A.5.5,0,0,0,2.506.851a.5.5,0,0,0-.482-.43" transform="translate(1.085 0.225)" fill="#2b2e34"/>
    </g>
    <g id="Grupo_3186" data-name="Grupo 3186" transform="translate(373.174 -40.599)">
      <path id="Caminho_4378" data-name="Caminho 4378" d="M2.547,1A.206.206,0,0,1,2.518.982.239.239,0,0,1,2.484.959C2.452.934,2.421.908,2.392.879S2.314.8,2.277.767c.057.06,0,0-.026-.032C2.128.587,2.016.426,1.9.274a2.04,2.04,0,0,0-1.072-.8.477.477,0,0,0-.467.161q-.8,1.045-1.608,2.1a.5.5,0,0,0,.052.691.5.5,0,0,0,.691-.049l.2-.261a.5.5,0,0,0,.1.04,1.476,1.476,0,0,0,.857-.123,6.977,6.977,0,0,1,1.588-.109A.492.492,0,0,0,2.547,1" transform="translate(1.365 0.536)" fill="#2b2e34"/>
    </g>
    <g id="Grupo_3187" data-name="Grupo 3187" transform="translate(396.739 -48.59)">
      <path id="Caminho_4379" data-name="Caminho 4379" d="M1.625.026a.178.178,0,0,1-.032.009l-.04.009c-.04.006-.08.011-.12.014S1.324.063,1.27.063c.086,0,0,0-.037,0C1.038.049.846.02.651,0A2.054,2.054,0,0,0-.665.238a.473.473,0,0,0-.2.45Q-.655,1.995-.438,3.3A.5.5,0,0,0,.1,3.734a.5.5,0,0,0,.436-.542L.484,2.872a.411.411,0,0,0,.095-.046,1.46,1.46,0,0,0,.5-.711A7.215,7.215,0,0,1,2.084.886.5.5,0,0,0,2.227.255a.5.5,0,0,0-.6-.229" transform="translate(0.871 0.014)" fill="#2b2e34"/>
    </g>
    <g id="Grupo_3188" data-name="Grupo 3188" transform="translate(385.202 -33.363)">
      <path id="Caminho_4380" data-name="Caminho 4380" d="M2.052.443l-.032,0L1.978.432C1.938.423,1.9.412,1.863.4,1.809.383,1.76.366,1.708.346c.08.032,0,0-.034-.017C1.5.246,1.33.145,1.158.056A2.072,2.072,0,0,0-.149-.216.481.481,0,0,0-.507.125C-.7.985-.894,1.845-1.086,2.7a.5.5,0,0,0,.335.6.493.493,0,0,0,.608-.335l.072-.318a.332.332,0,0,0,.106-.009,1.439,1.439,0,0,0,.725-.47,7.1,7.1,0,0,1,1.4-.765.5.5,0,0,0,.37-.53A.5.5,0,0,0,2.052.443" transform="translate(1.1 0.238)" fill="#2b2e34"/>
    </g>
  </g>
</svg>
