<svg xmlns="http://www.w3.org/2000/svg" xmlns:xlink="http://www.w3.org/1999/xlink" width="30.656" height="40" viewBox="0 0 30.656 40">
  <defs>
    <clipPath id="clip-path">
      <path id="Caminho_4207" data-name="Caminho 4207" d="M386.969-104.433h30.656v-40H386.969Z" transform="translate(0)" fill="none"/>
    </clipPath>
  </defs>
  <g id="alfabeto_ing_k_fim" transform="translate(-386.969 144.433)" clip-path="url(#clip-path)">
    <g id="Grupo_3004" data-name="Grupo 3004" transform="translate(395.939 -121.262)">
      <path id="Caminho_4196" data-name="Caminho 4196" d="M11,6.778A3.087,3.087,0,0,0,9.531,4.16a4.484,4.484,0,0,0-3.615-.372C3.271,4.526,1.483,6.93-1.22,7.52a8.046,8.046,0,0,1-3.855-.2A9.733,9.733,0,0,1-8.656,5.583,3.289,3.289,0,0,1-9.7,2.279,5.851,5.851,0,0,1-7.662-.827c1.049-.912,2.552-1.51,3.294-2.725a1.974,1.974,0,0,0-.827-2.983c-.52-.2-.748.624-.232.821a1.106,1.106,0,0,1,.4,1.573,4.032,4.032,0,0,1-1.49,1.408A12.288,12.288,0,0,0-9.328-.349c-1.321,1.626-1.922,4.091-.561,5.879a7.344,7.344,0,0,0,3,2.046,11.23,11.23,0,0,0,3.4.908A7.754,7.754,0,0,0,0,8.044,16.268,16.268,0,0,0,3.286,6.109a7.629,7.629,0,0,1,4.03-1.679,2.549,2.549,0,0,1,2.821,2.347.434.434,0,0,0,.868,0" transform="translate(10.661 6.566)" fill="#2b2e34"/>
    </g>
    <g id="Grupo_3005" data-name="Grupo 3005" transform="translate(386.97 -144.433)">
      <path id="Caminho_4197" data-name="Caminho 4197" d="M1.772,0-1.717,13.754l8.23-3.729Z" transform="translate(1.717)" fill="#ff5872"/>
    </g>
    <g id="Grupo_3006" data-name="Grupo 3006" transform="translate(395.201 -137.783)">
      <path id="Caminho_4198" data-name="Caminho 4198" d="M3.988,0-3.864,3.376,2.692,17.57Z" transform="translate(3.864)" fill="#ffc734"/>
    </g>
    <g id="Grupo_3007" data-name="Grupo 3007" transform="translate(390.46 -144.433)">
      <path id="Caminho_4199" data-name="Caminho 4199" d="M0,0,4.741,10.025l7.852-3.376Z" fill="#46ac46"/>
    </g>
    <g id="Grupo_3008" data-name="Grupo 3008" transform="translate(386.969 -134.409)">
      <path id="Caminho_4200" data-name="Caminho 4200" d="M4.181,0l6.556,14.195L-4.051,3.731Z" transform="translate(4.051)" fill="#03a2de"/>
    </g>
    <g id="Grupo_3009" data-name="Grupo 3009" transform="translate(399.318 -122.069)">
      <path id="Caminho_4201" data-name="Caminho 4201" d="M2.224.207a.677.677,0,0,0-.725-.4,1.77,1.77,0,0,0-.8.459A3.37,3.37,0,0,0,.053,1c-.024.037-.049.077-.071.116a.115.115,0,0,1-.024.008,3.346,3.346,0,0,0-.984-.1,1.786,1.786,0,0,0-.937.236c-.3.234-.175.6-.1.91a.836.836,0,0,0,.181.439.579.579,0,0,0,.453.144,1.651,1.651,0,0,0,.939-.482,2.476,2.476,0,0,1,.411-.3,2.2,2.2,0,0,0,.24-.154.3.3,0,0,0,.146,0l1.108-.3c.319-.087.74-.138.9-.463A.985.985,0,0,0,2.224.207" transform="translate(2.154 0.2)" fill="#ff5872"/>
    </g>
    <g id="Grupo_3010" data-name="Grupo 3010" transform="translate(396.003 -117.013)">
      <path id="Caminho_4202" data-name="Caminho 4202" d="M2.124,1.566A.657.657,0,0,0,2.112.749,1.761,1.761,0,0,0,1.3.29,3.5,3.5,0,0,0,.346.109C.3.1.252.107.207.1A.08.08,0,0,1,.187.089,3.139,3.139,0,0,0-.219-.8,1.739,1.739,0,0,0-.894-1.48c-.356-.14-.616.15-.851.366a.859.859,0,0,0-.3.374.555.555,0,0,0,.1.457,1.62,1.62,0,0,0,.892.561,2.592,2.592,0,0,1,.469.2A2.479,2.479,0,0,0-.325.607.309.309,0,0,0-.25.731l.819.793c.236.23.49.565.858.543a1.015,1.015,0,0,0,.7-.5" transform="translate(2.058 1.517)" fill="#ffc734"/>
    </g>
    <g id="Grupo_3011" data-name="Grupo 3011" transform="translate(395.037 -110.623)">
      <path id="Caminho_4203" data-name="Caminho 4203" d="M2.368.29a.669.669,0,0,0-.6-.567,1.778,1.778,0,0,0-.9.242A3.51,3.51,0,0,0,.063.509C.031.538,0,.57-.034.6A.107.107,0,0,1-.061.6,3.264,3.264,0,0,0-.985.266,1.759,1.759,0,0,0-1.953.257c-.352.148-.325.537-.335.854a.822.822,0,0,0,.061.469.568.568,0,0,0,.4.252A1.65,1.65,0,0,0-.794,1.6a2.52,2.52,0,0,1,.476-.189,2.1,2.1,0,0,0,.27-.087.32.32,0,0,0,.142.035l1.15-.014c.329,0,.75.053.994-.219A.991.991,0,0,0,2.368.29" transform="translate(2.294 0.281)" fill="#ff5872"/>
    </g>
    <g id="Grupo_3012" data-name="Grupo 3012" transform="translate(401.793 -109.177)">
      <path id="Caminho_4204" data-name="Caminho 4204" d="M.71,0a.676.676,0,0,0-.736.38A1.71,1.71,0,0,0-.076,1.3a3.39,3.39,0,0,0,.27.927c.018.039.039.081.061.122a.107.107,0,0,0-.006.024,3.184,3.184,0,0,0-.622.758,1.707,1.707,0,0,0-.313.9c.035.374.417.471.717.581A.867.867,0,0,0,.5,4.706a.562.562,0,0,0,.37-.295A1.6,1.6,0,0,0,.979,3.373a2.444,2.444,0,0,1-.033-.5,2.189,2.189,0,0,0,0-.282.31.31,0,0,0,.079-.122l.348-1.077c.1-.311.289-.687.1-1A1.026,1.026,0,0,0,.71,0" transform="translate(0.688 0.003)" fill="#ffc734"/>
    </g>
    <g id="Grupo_3013" data-name="Grupo 3013" transform="translate(407.458 -110.806)">
      <path id="Caminho_4205" data-name="Caminho 4205" d="M.216.071A.665.665,0,0,0-.2.779a1.724,1.724,0,0,0,.451.8,3.5,3.5,0,0,0,.728.644c.037.024.077.049.116.071a.115.115,0,0,1,.008.024,3.174,3.174,0,0,0-.118.967,1.712,1.712,0,0,0,.222.927c.23.3.608.185.921.12a.861.861,0,0,0,.449-.169.557.557,0,0,0,.154-.443,1.6,1.6,0,0,0-.469-.935,2.585,2.585,0,0,1-.3-.411,2.176,2.176,0,0,0-.15-.24.266.266,0,0,0,0-.144L1.527.9C1.444.584,1.4.167,1.074,0A1.028,1.028,0,0,0,.216.071" transform="translate(0.21 0.069)" fill="#ff5872"/>
    </g>
    <g id="Grupo_3014" data-name="Grupo 3014" transform="translate(412.991 -112.676)">
      <path id="Caminho_4206" data-name="Caminho 4206" d="M1.628.073A.683.683,0,0,0,.8.065,1.727,1.727,0,0,0,.313.85a3.408,3.408,0,0,0-.207.941c0,.045,0,.091,0,.136l-.018.018a3.287,3.287,0,0,0-.91.38,1.75,1.75,0,0,0-.709.648c-.15.348.14.612.354.847a.852.852,0,0,0,.372.3.575.575,0,0,0,.467-.089,1.605,1.605,0,0,0,.589-.864A2.548,2.548,0,0,1,.46,2.709,1.963,1.963,0,0,0,.6,2.463a.322.322,0,0,0,.128-.071L1.549,1.6c.238-.226.583-.469.569-.833a.994.994,0,0,0-.49-.7" transform="translate(1.577 0.071)" fill="#ffc734"/>
    </g>
  </g>
</svg>
