<svg id="alfabeto_ing_i_fim" xmlns="http://www.w3.org/2000/svg" xmlns:xlink="http://www.w3.org/1999/xlink" width="38.933" height="40" viewBox="0 0 38.933 40">
  <defs>
    <clipPath id="clip-path">
      <rect id="Retângulo_440" data-name="Retângulo 440" width="38.933" height="40" fill="none"/>
    </clipPath>
  </defs>
  <g id="Grupo_3597" data-name="Grupo 3597" clip-path="url(#clip-path)">
    <path id="Caminho_4824" data-name="Caminho 4824" d="M.628,8.59,19.115.1a1.078,1.078,0,0,1,.864-.015L38.268,7.689a1.08,1.08,0,0,1,.665,1V31.113a1.081,1.081,0,0,1-.68,1L18.61,39.924a1.079,1.079,0,0,1-.747.018L.729,34.082A1.079,1.079,0,0,1,0,33.061V9.57a1.079,1.079,0,0,1,.628-.98" fill="#6ecbe7"/>
    <path id="Caminho_4825" data-name="Caminho 4825" d="M35.014,10.025s-.1,9.745-.769,11.914a4.056,4.056,0,0,1-2.47,2.355,2.135,2.135,0,0,0-1.253,1.733c-.152,1.244-.233,2.4-1.638,2.4-1.847-.01-1.945-1.37-3.242-4.565S23.373,21.12,21.1,21.691s-2.377-5.375-2.377-5.375Z" fill="#dae9ec"/>
    <path id="Caminho_4826" data-name="Caminho 4826" d="M4.69,11.039a7.639,7.639,0,0,1,.685,5.592c-.913,2.853,1.055,2.607,1.055,2.607s.828.377,1.17-2.362a4.7,4.7,0,0,1,2.225-3.669" fill="#dae9ec"/>
    <path id="Caminho_4827" data-name="Caminho 4827" d="M.675,9.39c5.776,2.036,11.8,4.836,17.182,7.163,6.785-2.823,13.6-5.57,20.581-7.878.029-.012.048.036.018.048-6.721,2.984-13.612,5.53-20.533,8C12.22,14.348,6.047,12.19.675,9.39" fill="#1facd6"/>
    <path id="Caminho_4828" data-name="Caminho 4828" d="M17.84,17.112c.457,3.651-.078,7.3.117,10.947a71.445,71.445,0,0,1-.145,10.97,72.489,72.489,0,0,1-.142-10.97c.243-3.6-.434-7.5.17-10.947" fill="#1facd6"/>
    <path id="Caminho_4829" data-name="Caminho 4829" d="M9.837,4.342c1.028.481,2.44.633,3.074,1.625a2.719,2.719,0,0,1-1.641-.623q-.74-.459-1.457-.955a.027.027,0,0,1,.024-.047" fill="#1facd6"/>
    <path id="Caminho_4830" data-name="Caminho 4830" d="M35.735,9.763c-.716-.377-1.923-.539-2.171-1.38a1.567,1.567,0,0,1,1.2.51c.24.223,1.058.764.971.87" fill="#1facd6"/>
    <path id="Caminho_4831" data-name="Caminho 4831" d="M22.572,38.339c-.043-1.094-.552-2.383.04-3.358a2.556,2.556,0,0,1,.2,1.685q-.071.837-.184,1.673a.026.026,0,0,1-.052,0" fill="#1facd6"/>
    <path id="Caminho_4832" data-name="Caminho 4832" d="M8.258,36.666c-.04-1.377-.555-2.923.037-4.2a3.871,3.871,0,0,1,.2,2.106q-.071,1.045-.184,2.092a.026.026,0,0,1-.052,0" fill="#1facd6"/>
    <path id="Caminho_4833" data-name="Caminho 4833" d="M2.807,11.37S.748,10.194.665,11.039s-.316,6.6,0,6.945.462-4.269.576-5.581,2.313-.68,1.566-1.033" fill="#dae9ec"/>
    <path id="Caminho_4834" data-name="Caminho 4834" d="M.665,26.681v5.1s-.33,1.6,1.068,1.826a13.13,13.13,0,0,1,2.957.97s1.1-.285-1.1-1.274S1.152,31.55,1.38,29.192.665,23.486.665,26.681" fill="#dae9ec"/>
    <path id="Caminho_4835" data-name="Caminho 4835" d="M17.813,1.727,19.556.871,23.8,2.583S20.035,1.5,19.466,1.955s-1.653-.228-1.653-.228" fill="#dae9ec"/>
    <path id="Caminho_4836" data-name="Caminho 4836" d="M38.012,24.608v6.3a.336.336,0,0,1-.188.3l-3.169,1.562s-1.2-.171,1.678-1.883.538-5.306,1.165-6.276.514,0,.514,0" fill="#dae9ec"/>
    <path id="Caminho_4837" data-name="Caminho 4837" d="M38.02,13.739v-4l-1.111.284s-.348.215.027.241.548-.456.65.452.239,3.717.434,3.021" fill="#dae9ec"/>
  </g>
</svg>
