<svg xmlns="http://www.w3.org/2000/svg" xmlns:xlink="http://www.w3.org/1999/xlink" width="79.198" height="40" viewBox="0 0 79.198 40">
  <defs>
    <clipPath id="clip-path">
      <path id="Caminho_4287" data-name="Caminho 4287" d="M87.175-13.346h79.2v-40h-79.2Z" transform="translate(0 0)" fill="none"/>
    </clipPath>
  </defs>
  <g id="alfabeto_ing_p_fim" transform="translate(-87.175 53.346)" clip-path="url(#clip-path)">
    <g id="Grupo_3085" data-name="Grupo 3085" transform="translate(100.455 -53.348)">
      <path id="Caminho_4277" data-name="Caminho 4277" d="M44.735.063C43.512.015,42.29,0,41.067-.029A110.2,110.2,0,0,1,23.457,1.2Q18.3,2.783,13.174,4.482a2.336,2.336,0,0,0-.572.076A217.72,217.72,0,0,0-19.121,15.944,2.02,2.02,0,0,0-20.151,18a9.488,9.488,0,0,0,2.2,9.8,13.174,13.174,0,0,0,4.695,3.08,10.318,10.318,0,0,0,6.183.765,1.759,1.759,0,0,0,.84-.5.012.012,0,0,0,.009,0q10.35-4.118,20.7-8.239c5.614-2.237,11.272-4.511,16.334-7.835a2.78,2.78,0,0,0,1.03-.537c.635-.518,1.28-1.014,1.93-1.5a18.846,18.846,0,0,0,2.6-1.927c.256-.186.5-.385.752-.575C39.81,7.3,42.457,4.031,45.2.846a2.076,2.076,0,0,0-.464-.784" transform="translate(20.717 0.029)" fill="#ffc734"/>
    </g>
    <g id="Grupo_3086" data-name="Grupo 3086" transform="translate(159.345 -53.348)">
      <path id="Caminho_4278" data-name="Caminho 4278" d="M4.485.063C3.262.015,2.04,0,.817-.029c-.85.111-1.7.215-2.556.319a4.428,4.428,0,0,0-.313,2.091A4.9,4.9,0,0,0-.393,5.655a6.176,6.176,0,0,0,.831.562c1.491-1.8,2.986-3.6,4.511-5.371A2.076,2.076,0,0,0,4.485.063" transform="translate(2.077 0.029)" fill="#2b2e34"/>
    </g>
    <g id="Grupo_3087" data-name="Grupo 3087" transform="translate(100.454 -52.117)">
      <path id="Caminho_4279" data-name="Caminho 4279" d="M34.795,6.227a19.84,19.84,0,0,1-5.658-9.1c-.357-.006-.714,0-1.074-.016Q22.9-1.3,17.779.4a2.487,2.487,0,0,0-.572.079A217.745,217.745,0,0,0-14.519,11.857a2.018,2.018,0,0,0-1.027,2.06,9.487,9.487,0,0,0,2.193,9.8,13.2,13.2,0,0,0,4.7,3.083,12.969,12.969,0,0,0,3.181.869.412.412,0,0,0,.032.047,1.354,1.354,0,0,0,.3.256,1.29,1.29,0,0,0,.363.161c.025.006.054.006.082.013a.526.526,0,0,0,.547.177c.088-.025.167-.066.256-.1a.494.494,0,0,0,.4-.054,8.648,8.648,0,0,1,1.011-.607.012.012,0,0,1,.009,0,1.574,1.574,0,0,0,.6-.3q.7-.332,1.4-.657Q9.3,22.714,19.077,18.82c5.611-2.234,11.269-4.511,16.334-7.835a2.75,2.75,0,0,0,1.03-.534c.54-.442,1.093-.866,1.646-1.286a32.532,32.532,0,0,1-3.292-2.938" transform="translate(16.114 2.884)" fill="#ff9a39"/>
    </g>
    <g id="Grupo_3088" data-name="Grupo 3088" transform="translate(96.018 -37.772)">
      <path id="Caminho_4280" data-name="Caminho 4280" d="M11.817,6.368Q9.642,2.932,7.466-.5A5.637,5.637,0,0,0,.9-2.611a4.691,4.691,0,0,0-1.156.3A6.127,6.127,0,0,0-1-1.922a.52.52,0,0,0-.4.06c-.427.287-.831.61-1.238.923-.209.1-.414.2-.622.3A6.16,6.16,0,0,0-5.3.6a.654.654,0,0,0,0,.891.664.664,0,0,0,.221.136.557.557,0,0,0,.107.237.6.6,0,0,0,.8.161s0,0,.006,0a.65.65,0,0,0,.287.36,5.68,5.68,0,0,0,.243,2.55,17.008,17.008,0,0,0,8.4,9.721,5.125,5.125,0,0,0,1.627.5.621.621,0,0,0-.088.635.642.642,0,0,0,.13.4.6.6,0,0,0,.8.161l.158-.114a.825.825,0,0,0,.329-.066,1.806,1.806,0,0,0,.626-.48.589.589,0,0,0,.316-.073A18.269,18.269,0,0,0,11.349,13.7a.609.609,0,0,0,.167-.559,5.928,5.928,0,0,0,.3-6.77" transform="translate(5.473 2.949)" fill="#ffc734"/>
    </g>
    <g id="Grupo_3089" data-name="Grupo 3089" transform="translate(94.176 -35.466)">
      <path id="Caminho_4281" data-name="Caminho 4281" d="M10.164,6.75Q7.989,3.314,5.813-.118C4.474-2.235,2.61-3.748.3-2.873a18.945,18.945,0,0,0-2.215.945C-4.739-.76-5.235,1.66-4.23,4.665a17.037,17.037,0,0,0,8.4,9.724c2.123,1.08,4.085,1.207,5.6-.727a5.935,5.935,0,0,0,.4-6.913" transform="translate(4.707 3.126)" fill="#ff9a39"/>
    </g>
    <g id="Grupo_3090" data-name="Grupo 3090" transform="translate(88.418 -34.216)">
      <path id="Caminho_4282" data-name="Caminho 4282" d="M13.488,5.943Q11.422,2.73,9.353-.479A5.357,5.357,0,0,0,4.367-2.726c-.205.073-.4.152-.607.224C1.575-1.459-.716-.6-2.817.6a.592.592,0,0,0-.076.12,10.487,10.487,0,0,1-.948.509c-.123.082-.25.158-.37.24a1.508,1.508,0,0,1-.474.212,4.172,4.172,0,0,0-.686.5A2.372,2.372,0,0,0-6.08,4.854,4.7,4.7,0,0,0-3.648,6.939c1.172.635,2.322,1.317,3.437,2.047a11.89,11.89,0,0,1,3.14,2.5,38.512,38.512,0,0,1,1.937,3.551,2.453,2.453,0,0,0,2.426,1.292,3.251,3.251,0,0,0,1.472-.553,2.023,2.023,0,0,1,.278-.395c1.469-1.561,3.248-2.777,4.812-4.233a5.388,5.388,0,0,0-.366-5.2" transform="translate(6.247 2.752)" fill="#e06077"/>
    </g>
    <g id="Grupo_3091" data-name="Grupo 3091" transform="translate(87.839 -30.82)">
      <path id="Caminho_4283" data-name="Caminho 4283" d="M10.243,5.955Q8.176,2.742,6.107-.468A5.413,5.413,0,0,0-.142-2.442a4.478,4.478,0,0,0-1.1.281,5.4,5.4,0,0,0-3.213,6.77A16,16,0,0,0,3.532,13.7a5.375,5.375,0,0,0,6.334-1.283,5.485,5.485,0,0,0,.376-6.464" transform="translate(4.743 2.758)" fill="#ff6e88"/>
    </g>
    <g id="Grupo_3092" data-name="Grupo 3092" transform="translate(109.878 -48.442)">
      <path id="Caminho_4284" data-name="Caminho 4284" d="M21.563.013a123.847,123.847,0,0,0-15.5,5.267C.823,7.361-4.4,9.491-9.625,11.6c-.638.259-.36,1.3.287,1.043C-4.109,10.537,1.11,8.407,6.348,6.322a124.879,124.879,0,0,1,15.5-5.267A.541.541,0,0,0,21.563.013" transform="translate(9.986 0.006)" fill="#ffc734"/>
    </g>
    <g id="Grupo_3093" data-name="Grupo 3093" transform="translate(114.563 -43.952)">
      <path id="Caminho_4285" data-name="Caminho 4285" d="M20.271.017A262.459,262.459,0,0,0-9.1,10.6c-.638.275-.088,1.207.547.935A259.24,259.24,0,0,1,20.559,1.059.541.541,0,0,0,20.271.017" transform="translate(9.388 0.008)" fill="#ffc734"/>
    </g>
    <g id="Grupo_3094" data-name="Grupo 3094" transform="translate(117.908 -39.785)">
      <path id="Caminho_4286" data-name="Caminho 4286" d="M20.088.056a42.987,42.987,0,0,1-7.162,3.1Q9.168,4.595,5.391,5.977C.538,7.752-4.346,9.462-9.025,11.667c-.629.3-.079,1.229.547.932,4.755-2.24,9.731-3.952,14.659-5.763q3.777-1.384,7.535-2.828A41.435,41.435,0,0,0,20.634.991c.594-.363.051-1.3-.547-.935" transform="translate(9.303 0.026)" fill="#ffc734"/>
    </g>
  </g>
</svg>
