<svg xmlns="http://www.w3.org/2000/svg" xmlns:xlink="http://www.w3.org/1999/xlink" width="42.259" height="42.762" viewBox="0 0 42.259 42.762">
  <defs>
    <clipPath id="clip-path">
      <rect id="Retângulo_351" data-name="Retângulo 351" width="42.259" height="42.762" transform="translate(0 0)" fill="none"/>
    </clipPath>
    <clipPath id="clip-path-2">
      <path id="Caminho_4467" data-name="Caminho 4467" d="M19.38,4.393c-.081.011-.162.023-.242.036-.059.01-.118.015-.176.025a.23.23,0,0,0-.1,0c-.023,0-.043.011-.065.016v0l-.02.008a5.917,5.917,0,0,0-.866.258,4.227,4.227,0,0,0-.81.245,2.485,2.485,0,0,0-.284.127c-.056.027-.116.046-.171.076a.383.383,0,0,0-.1.089.562.562,0,0,0-.312.347.437.437,0,0,0-.022.07c0,.017-.006.033-.007.051a.578.578,0,0,0,.012.159l0,.008a1.293,1.293,0,0,0,.195.433,11.276,11.276,0,0,1,.54,1.59q.211,1,.328,2.025v.011a21.463,21.463,0,0,1,.139,2.695,15.683,15.683,0,0,1-.327,1.625,1.014,1.014,0,0,0,.454,1.064,1.129,1.129,0,0,0,1.1.294,29.315,29.315,0,0,1,9.654-.919,12.983,12.983,0,0,1,2.275.471,4.483,4.483,0,0,1,1.988,1.02c.4.437.629,4.262.835,4.809.318.84.171,2.415.477,3.26a1.106,1.106,0,0,0,1.492.569,1.008,1.008,0,0,0,.911-.792c.122-.491.845-2.5.928-3a.843.843,0,0,0,.04-.283,1.012,1.012,0,0,0-.178-.661c-.968-2.764-.529-8.4-2.189-10.95a7.749,7.749,0,0,0-4.337-2.907,47.049,47.049,0,0,0-6-1.432,22.456,22.456,0,0,0-4-.5,8.7,8.7,0,0,0-1.165.075" fill="none"/>
    </clipPath>
    <clipPath id="clip-path-4">
      <path id="Caminho_4481" data-name="Caminho 4481" d="M19.547,12.611c-.841.27-2.308.644-3.156.892a7.137,7.137,0,0,0-2.255.859,4.276,4.276,0,0,0-1.325,2.051q-.492,1.212-.938,2.441c-.455,1.247-.645,1.475-1.034,2.742q-.3.664-.6,1.329c-.542.365-1.086.726-1.618,1.1-1.637,1.153-3.632,2.721-5.26,3.786a1.3,1.3,0,0,0-.7.149c-.008.006-.015.013-.023.018a.407.407,0,0,0-.144.094.8.8,0,0,0-.083.082,1.514,1.514,0,0,0-.151.186.432.432,0,0,0-.031.051,1.553,1.553,0,0,0-.086.179c-.005.014-.005.03-.01.045l-.061.039c-.581.38-.017,1.474.179,1.982C1.514,31.67,1.162,32.879,2.128,34a2.056,2.056,0,0,0,.622.489,10.255,10.255,0,0,0,1.2,2.048c.162.211.341.411.524.61.769.12,1.536.253,2.3.382a6.936,6.936,0,0,1,.98-.929,1.489,1.489,0,0,0,.678.508,5.678,5.678,0,0,0,2.913.275,4.745,4.745,0,0,0,3.137-.544c2.192-.621,4-2.577,6.049-3.572.436-.171.867-.355,1.3-.543q-.511,2.666-1.084,5.319a1.557,1.557,0,0,0,.583,1.691,1.773,1.773,0,0,0,1.06.978c4.179,1.6,8.253-.306,11.893-2.372A9.369,9.369,0,0,0,38.255,34.2,3.526,3.526,0,0,0,39.9,32.164a3.218,3.218,0,0,0-.08-1.819,1.685,1.685,0,0,0-.061-1.2,3.6,3.6,0,0,0-.089-1.162c-.285-1.168-.9-1.539-1.472-2.667l-.816-1.84c-.622-1.844-1.683-2.143-2.446-3.934-.074-.176-.146-.352-.221-.528l-.01-.029h0c-.051-.118-.1-.236-.149-.354-.008-.02-.02-.035-.03-.055s-.019-.044-.028-.067a11.124,11.124,0,0,0-4.213-4.015,12.98,12.98,0,0,0-7.583-2.3,10.733,10.733,0,0,0-3.157.42" fill="none"/>
    </clipPath>
  </defs>
  <g id="alfabeto_ing_z_fim" transform="translate(0 0)">
    <g id="Grupo_3258" data-name="Grupo 3258">
      <g id="Grupo_3257" data-name="Grupo 3257" clip-path="url(#clip-path)">
        <path id="Caminho_4464" data-name="Caminho 4464" d="M37.207,21.054a.865.865,0,0,0,.04-.283,1.012,1.012,0,0,0-.178-.661c-.969-2.764-.529-8.4-2.19-10.949a7.748,7.748,0,0,0-4.336-2.908,47.049,47.049,0,0,0-6-1.432,16.657,16.657,0,0,0-5.165-.428c-.082.01-.162.022-.243.035-.058.01-.117.015-.175.026a.233.233,0,0,0-.106,0c-.022,0-.043.012-.065.016v0l-.02.008a6.227,6.227,0,0,0-.867.258,4.315,4.315,0,0,0-.809.246,2.478,2.478,0,0,0-.284.126c-.056.028-.116.047-.171.076a.356.356,0,0,0-.1.09.56.56,0,0,0-.312.346.437.437,0,0,0-.022.07c0,.017-.006.033-.007.051a.549.549,0,0,0,.011.16l0,.007a1.33,1.33,0,0,0,.2.434,11.216,11.216,0,0,1,.539,1.589q.213,1,.329,2.025v.011a21.483,21.483,0,0,1,.139,2.695,15.63,15.63,0,0,1-.327,1.625,1.013,1.013,0,0,0,.454,1.064,1.127,1.127,0,0,0,1.1.3,29.32,29.32,0,0,1,9.655-.92,12.954,12.954,0,0,1,2.274.471,4.488,4.488,0,0,1,1.989,1.021c.4.436.628,4.261.835,4.808.317.841.17,2.415.477,3.261a1.107,1.107,0,0,0,1.491.569,1.012,1.012,0,0,0,.912-.792c.122-.492.845-2.505.928-3" fill="#c9cbcd"/>
      </g>
    </g>
    <g id="Grupo_3260" data-name="Grupo 3260">
      <g id="Grupo_3259" data-name="Grupo 3259" clip-path="url(#clip-path-2)">
        <path id="Caminho_4465" data-name="Caminho 4465" d="M23.789,1.562c-.18-2.073-3.44-2.092-3.258,0a57.725,57.725,0,0,1-.973,16.88c-.426,2.046,2.714,2.921,3.142.866A60.772,60.772,0,0,0,23.789,1.562" fill="#1a1818"/>
        <path id="Caminho_4466" data-name="Caminho 4466" d="M30.692,2.688a45.548,45.548,0,0,1-4.934,10.179,3.929,3.929,0,0,1,3.2.984l.01.013a49.325,49.325,0,0,0,4.865-10.31c.674-1.99-2.472-2.845-3.142-.866" fill="#1a1818"/>
      </g>
    </g>
    <g id="Grupo_3262" data-name="Grupo 3262">
      <g id="Grupo_3261" data-name="Grupo 3261" clip-path="url(#clip-path)">
        <path id="Caminho_4468" data-name="Caminho 4468" d="M9.56,5.985a.571.571,0,0,1,.222-.077,4.635,4.635,0,0,1,2.189.4,7.594,7.594,0,0,1,1.887.938,4.855,4.855,0,0,1,1.426,1.911c.342.727.679,1.456,1.018,2.183a.154.154,0,0,1,.01.035l-.021.014a7.227,7.227,0,0,1,.612,1.3h0c.029.08.06.159.087.241a.983.983,0,0,1-.125.733,1.019,1.019,0,0,1-.506.4.972.972,0,0,1-.57.036,1.061,1.061,0,0,1-.785-.52c-.222-.355-.451-.706-.68-1.058a4.12,4.12,0,0,1-2.912-1.194A6.635,6.635,0,0,1,10.2,9.274Q9.676,8.1,9.153,6.93a.692.692,0,0,1,.407-.945" fill="#5a5b5e"/>
        <path id="Caminho_4469" data-name="Caminho 4469" d="M39.824,30.345a1.7,1.7,0,0,0-.061-1.2,3.6,3.6,0,0,0-.09-1.162c-.285-1.167-.906-1.538-1.472-2.667q-.408-.92-.816-1.84c-.621-1.844-1.683-2.143-2.447-3.934q-.108-.264-.22-.527l-.01-.03h0c-.05-.118-.1-.237-.149-.355-.009-.02-.021-.035-.03-.055s-.02-.044-.028-.066a11.1,11.1,0,0,0-4.212-4.015,13.26,13.26,0,0,0-10.74-1.88c-.841.27-2.309.645-3.157.892a7.146,7.146,0,0,0-2.254.859,4.272,4.272,0,0,0-1.326,2.05q-.49,1.214-.938,2.442c-.454,1.247-.645,1.474-1.034,2.742l-.6,1.329c-.542.364-1.085.726-1.618,1.1-1.638,1.153-3.632,2.721-5.26,3.786a1.3,1.3,0,0,0-.7.149c-.008.005-.014.013-.022.018a.412.412,0,0,0-.144.094.8.8,0,0,0-.084.081,1.6,1.6,0,0,0-.151.187.325.325,0,0,0-.03.051,1.636,1.636,0,0,0-.086.179.173.173,0,0,0-.01.045l-.061.039c-.582.38-.017,1.474.179,1.982C1.514,31.67,1.163,32.879,2.128,34a2.084,2.084,0,0,0,.622.489,10.331,10.331,0,0,0,1.2,2.048c.163.21.342.412.524.61.77.12,1.537.253,2.3.382a6.83,6.83,0,0,1,.98-.929,1.484,1.484,0,0,0,.678.508,5.664,5.664,0,0,0,2.912.275,4.753,4.753,0,0,0,3.138-.543c2.191-.622,4-2.578,6.048-3.573.436-.171.867-.355,1.3-.543q-.511,2.666-1.083,5.319a1.557,1.557,0,0,0,.582,1.691,1.773,1.773,0,0,0,1.06.978c4.18,1.6,8.253-.306,11.893-2.372A9.375,9.375,0,0,0,38.255,34.2,3.523,3.523,0,0,0,39.9,32.164a3.21,3.21,0,0,0-.079-1.819" fill="#c9cbcd"/>
        <path id="Caminho_4470" data-name="Caminho 4470" d="M38.5,7.09a.715.715,0,0,1,.157.252,5.887,5.887,0,0,1,.12,2.82,9.675,9.675,0,0,1-.626,2.6,6.154,6.154,0,0,1-1.959,2.3c-.8.628-1.607,1.25-2.411,1.875a.256.256,0,0,1-.039.022l-.024-.022A9.254,9.254,0,0,1,32.28,18.06h0c-.091.058-.18.119-.273.176a1.245,1.245,0,0,1-.942.052,1.3,1.3,0,0,1-.637-.512,1.233,1.233,0,0,1-.2-.694,1.343,1.343,0,0,1,.421-1.117c.376-.375.745-.757,1.115-1.139a5.212,5.212,0,0,1,.654-3.936,8.38,8.38,0,0,1,2.2-2.082l2.6-1.955A.877.877,0,0,1,38.5,7.09" fill="#818386"/>
        <path id="Caminho_4471" data-name="Caminho 4471" d="M14.512,30.232l0-.006c-.013-.02-.031-.036-.044-.056s-.016-.021-.025-.031c-.033-.049-.073-.093-.11-.14l-.029-.04-.005-.008c-.028-.051-.061-.1-.094-.148a17.184,17.184,0,0,0-2.482-3.031C10.706,25.66,8.9,26,7.55,26.149a17.944,17.944,0,0,0-4.489,1.016A2.6,2.6,0,0,0,1.6,28.338a2.445,2.445,0,0,0-.253,1.143,4.182,4.182,0,0,0-.227.838c-.069.415-.125.839-.16,1.266a2.584,2.584,0,0,0-.769,1.038,4.238,4.238,0,0,0-.066,2.306c.009.048.019.1.03.146.028.131.059.259.091.383h0c.021.078.054.157.083.235.017.05.031.1.05.149.011.03.029.055.043.084s.024.05.038.075a.815.815,0,0,0,.049.08,2.971,2.971,0,0,0,.212.34C1.906,38,4.467,38.04,6.572,37.839c1.776.576,3.663,1.5,5.409,1.226,2.012-.317,2.385-1.9,2.485-3.485a3.118,3.118,0,0,0,.036-.373,12.66,12.66,0,0,0,.446-2.55c.046-.706.148-1.88-.436-2.425" fill="#1a1818"/>
        <path id="Caminho_4472" data-name="Caminho 4472" d="M8.619,31.386a.506.506,0,0,1,.01-.068,1.89,1.89,0,0,1,.083-.271,1.193,1.193,0,0,1,.058-.126.473.473,0,0,1,.123-.169c.006-.01.01-.02.017-.03a1.909,1.909,0,0,1,.9-.55,4.55,4.55,0,0,1,1.009-.234,4.293,4.293,0,0,1,1.995.243,1.272,1.272,0,0,1,.7,1.854A2.544,2.544,0,0,1,11.7,33.118a4.382,4.382,0,0,1-.95.073,3.875,3.875,0,0,1-1.007-.105,1.453,1.453,0,0,1-.879-.635,1.249,1.249,0,0,1-.156-.47c-.009-.019-.02-.038-.029-.057l-.01-.026a.962.962,0,0,1-.057-.281,1.778,1.778,0,0,1,.01-.231" fill="#c9cbcd"/>
        <path id="Caminho_4473" data-name="Caminho 4473" d="M2.093,29.426a.615.615,0,0,1,.033-.055,1.89,1.89,0,0,1,.164-.2,1.083,1.083,0,0,1,.091-.088.438.438,0,0,1,.157-.1.223.223,0,0,1,.024-.019,1.559,1.559,0,0,1,.895-.16,3.5,3.5,0,0,1,.863.15,3.33,3.33,0,0,1,1.445.9,1.209,1.209,0,0,1,.335.905,1.37,1.37,0,0,1-.477.926,2.075,2.075,0,0,1-1.8.3,3.332,3.332,0,0,1-.758-.267,2.964,2.964,0,0,1-.737-.439,1.265,1.265,0,0,1-.442-.847,1.283,1.283,0,0,1,.054-.456c0-.019,0-.039,0-.058l0-.027A.973.973,0,0,1,2,29.62a1.92,1.92,0,0,1,.093-.194" fill="#c9cbcd"/>
      </g>
    </g>
    <g id="Grupo_3264" data-name="Grupo 3264">
      <g id="Grupo_3263" data-name="Grupo 3263" clip-path="url(#clip-path-4)">
        <path id="Caminho_4474" data-name="Caminho 4474" d="M40.758,25.421a6.451,6.451,0,0,1-1.919,2.835,16.509,16.509,0,0,1-2.453,2.023A26.012,26.012,0,0,1,30.1,33.288c-2.2.747-4.464,1.241-6.676,1.936a10.256,10.256,0,0,0-4.951,2.921c-.448.531.317,1.3.768.768A6.841,6.841,0,0,1,20.8,37.569a6.13,6.13,0,0,0-1.107,1.625c-.293.629.643,1.182.938.548.972-2.09,2.885-2.935,4.972-3.6,2.2-.7,4.435-1.273,6.607-2.05,3.653-1.306,7.221-3.283,9.3-6.678a.481.481,0,0,0-.1-.646,4.865,4.865,0,0,0,.4-1.058c.163-.68-.884-.97-1.047-.289" fill="#1a1818"/>
        <path id="Caminho_4475" data-name="Caminho 4475" d="M40.632,30.109a6.975,6.975,0,0,1-3.347,3.265,43.562,43.562,0,0,1-5.209,2.457c-1.756.711-3.534,1.361-5.3,2.042A25.994,25.994,0,0,0,21.6,40.2c-.867.58-.053,1.992.822,1.406A27.085,27.085,0,0,1,27.9,39.179c1.59-.607,3.186-1.2,4.762-1.843a43.1,43.1,0,0,0-4.579,4.029c-.732.751.418,1.9,1.151,1.152a66.258,66.258,0,0,1,11.4-8.754.816.816,0,0,0,.26-1.107A6.779,6.779,0,0,0,42.2,30.542c.371-.982-1.2-1.406-1.57-.433" fill="#1a1818"/>
        <path id="Caminho_4476" data-name="Caminho 4476" d="M37.01,20.037c-.33.162-.645.345-.957.53a.242.242,0,0,0,0-.038.31.31,0,0,0-.008-.277.266.266,0,0,0-.316-.327c-.032.009-.061.022-.093.032A.273.273,0,0,0,35.5,19.8c.1-.136.2-.273.3-.414a.259.259,0,0,0-.216-.411c.1-.181.208-.363.3-.552.158-.317-.364-.5-.52-.182a16.037,16.037,0,0,1-3.625,4.389c-.683.64-1.376,1.269-2.037,1.933s-1.259,1.387-1.889,2.082A9.85,9.85,0,0,1,25.5,28.65c-.358.211-.245.507.081.379,3.53-1.463,6-4.495,8.963-6.781a15.886,15.886,0,0,1,2.706-1.718.275.275,0,0,0-.245-.493" fill="#1a1818"/>
        <path id="Caminho_4477" data-name="Caminho 4477" d="M40.253,22.9a21.75,21.75,0,0,1-7.3,4.558c2.74-1.72,5.221-4,6.064-7.226a.544.544,0,0,0-1.048-.288c-1.013,3.88-4.592,6.164-7.925,7.919a56.705,56.705,0,0,0-5.525,3.087,24.874,24.874,0,0,0-3.179,2.583.246.246,0,0,0-.03-.07l-.014-.022a.271.271,0,0,0,.174-.392,10.678,10.678,0,0,1-1.149-3.383,32.163,32.163,0,0,0-.406-3.659A3.275,3.275,0,0,0,18.184,23.8a4.314,4.314,0,0,0-3.2.136,8.145,8.145,0,0,0-1.634,1.1l-.495.379c-.463.308-.915.631-1.367.936a.279.279,0,0,0-.046.422.227.227,0,0,0,.363.126c.4-.306.794-.622,1.192-.936,1.459-.993,3.2-1.956,4.784-1.033,1.781,1.039,1.82,3.372,1.988,5.222a.258.258,0,0,0-.013.114q.2,2.075.507,4.135a.217.217,0,0,0,.077.141c-.119.128-.245.25-.362.38-.466.519.3,1.289.768.768.073-.08.151-.155.225-.234l.061-.017a.544.544,0,0,0,.373-.128c1.429-1.2,2.92-2.321,4.457-3.377.164-.1.328-.2.492-.3a8.574,8.574,0,0,1,1.91-.925c.644-.212,1.3-.385,1.944-.6a31.513,31.513,0,0,0,7.242-3.456,7.577,7.577,0,0,0,1.921-1.539,17.445,17.445,0,0,0,1.652-1.446.543.543,0,0,0-.768-.768" fill="#1a1818"/>
        <path id="Caminho_4478" data-name="Caminho 4478" d="M17.45,28.642a4.01,4.01,0,0,0-.675-2.32,2.215,2.215,0,0,0-2.306-.616c-1.124.275-1.975,1.126-3.017,1.584-.217.095-.157.337,0,.442a.274.274,0,0,0,.4.266c.543-.308,1.08-.627,1.631-.919a3.031,3.031,0,0,1,1.617-.454c1.3.1,1.4,1.524,1.459,2.547a14.575,14.575,0,0,1-.327,3.845,18.146,18.146,0,0,0-.539,3.594c0,.3.479.381.533.072.041-.232.083-.465.124-.7a.281.281,0,0,0,.444-.209c0-.052.007-.1.01-.158v.418a.272.272,0,0,0,.543,0c0-.094.01-.188.016-.282v.021c.023.347.566.349.543,0-.153-2.378-.3-4.757-.46-7.134" fill="#1a1818"/>
        <path id="Caminho_4479" data-name="Caminho 4479" d="M10.036,24.366a4.859,4.859,0,0,0-3.029-.381.277.277,0,0,0-.19.334c.056.4.528.482.858.481.5,0,1.009-.023,1.51,0,.351.016.826.138.822.572s-.39.741-.687,1c-.233.2.039.523.286.44a.249.249,0,0,0,.1.106.274.274,0,0,0,.372-.1c.2-.477.62-.85.652-1.4a1.152,1.152,0,0,0-.69-1.056" fill="#1a1818"/>
        <path id="Caminho_4480" data-name="Caminho 4480" d="M12.257,24.022a4.563,4.563,0,0,0-.7-1.217,6.93,6.93,0,0,1-.614-1.543.274.274,0,0,0-.517-.016.279.279,0,0,0-.117.175h0a.279.279,0,0,0-.189.334,2.544,2.544,0,0,0,.23.822,2.3,2.3,0,0,0,.416.536c.136.137.279.267.414.4q.07.075.138.153l.013.016a.71.71,0,0,1,.174.33,2.563,2.563,0,0,1-1.074,2.408c-.258.181-.058.58.195.5a.283.283,0,0,0,.361-.085c.57-.783,1.524-1.758,1.272-2.82" fill="#1a1818"/>
      </g>
    </g>
    <g id="Grupo_3266" data-name="Grupo 3266">
      <g id="Grupo_3265" data-name="Grupo 3265" clip-path="url(#clip-path)">
        <path id="Caminho_4482" data-name="Caminho 4482" d="M30.211,20.153a3.5,3.5,0,0,0-.521-2.035,4.971,4.971,0,0,0-1.249-1.273,4.394,4.394,0,0,0-3.472-.979c-.049.011-.095.035-.143.047a1.368,1.368,0,0,0-.408.046,4.577,4.577,0,0,0-1.638.824,3.433,3.433,0,0,0-.731.544,3.663,3.663,0,0,0-1.021,1.6,3.772,3.772,0,0,0-.077,1.907c.025.1.069.191.1.288a3.57,3.57,0,0,0,.073.624,3.654,3.654,0,0,0,2.424,2.728,4.42,4.42,0,0,0,1.235.181,4,4,0,0,0,3.039-.236,3.916,3.916,0,0,0,1.445-1.355,6.436,6.436,0,0,0,.647-1.427,5.794,5.794,0,0,0,.3-1.482" fill="#fff"/>
        <path id="Caminho_4483" data-name="Caminho 4483" d="M28.289,16.649h.023c.108,0,.145,0-.023,0" fill="#1a1818"/>
        <path id="Caminho_4484" data-name="Caminho 4484" d="M27.84,20.44v-.032c0-.048-.024-.481-.028-.528v-.007a.15.15,0,0,0-.009-.042c-.051-.171-.1-.346-.164-.512l-.01-.02c-.044-.076-.127-.2-.144-.227s-.093-.155-.144-.226l-.014-.017,0,0-.387-.358,0,0-.01-.007-.009-.006,0,0c-.029-.017-.459-.241-.488-.254l-.02-.008a3.151,3.151,0,0,0-.556-.12l.533.116a3.721,3.721,0,0,0-.548-.119c-.154.006-.456.017-.556.027h-.009a2.056,2.056,0,0,0-.266.084,2.3,2.3,0,0,0-.265.087l-.017.009c.161-.1-.321.184-.454.289l-.015.014c-.128.129-.255.259-.369.4a.088.088,0,0,0-.012.017,4.552,4.552,0,0,0-.261.5l-.007.018a3.705,3.705,0,0,0-.12.55l0,.02v.009c0,.089.01.178.014.267s.007.178.014.266l0,.022a1.544,1.544,0,0,0,.3.715,1.531,1.531,0,0,0,.527.578,1.637,1.637,0,0,0,.21.122c.021.014.045.024.066.038s.065.037.1.051a2.12,2.12,0,0,0,.321.167l.533.115a2.042,2.042,0,0,0,1.022-.186l.019-.008a3.13,3.13,0,0,0,.455-.29l.015-.013.358-.387v0l0,0,.006-.008.006-.008,0,0c.009-.015.245-.469.253-.485l.009-.02a2.666,2.666,0,0,0,.124-.572" fill="#1a1818"/>
        <path id="Caminho_4485" data-name="Caminho 4485" d="M18.829,19.367a2.416,2.416,0,0,0-.359-1.4,3.433,3.433,0,0,0-.861-.877,3.023,3.023,0,0,0-2.393-.674c-.033.007-.065.023-.1.032a.945.945,0,0,0-.28.031,3.147,3.147,0,0,0-1.13.569,2.36,2.36,0,0,0-.5.375,2.519,2.519,0,0,0-.7,1.1,2.6,2.6,0,0,0-.053,1.314c.017.068.047.132.069.2a2.441,2.441,0,0,0,.05.43,2.52,2.52,0,0,0,1.671,1.881,3.068,3.068,0,0,0,.851.124,2.751,2.751,0,0,0,2.1-.162,2.711,2.711,0,0,0,.995-.934,4.426,4.426,0,0,0,.446-.984,3.964,3.964,0,0,0,.2-1.021" fill="#fff"/>
        <path id="Caminho_4486" data-name="Caminho 4486" d="M16.3,18.356h.016c.074,0,.1,0-.016,0" fill="#1a1818"/>
        <path id="Caminho_4487" data-name="Caminho 4487" d="M17.473,19.629v-.022c0-.033-.017-.331-.019-.364v0a.293.293,0,0,0-.005-.029c-.036-.118-.067-.238-.114-.353l-.007-.013c-.03-.053-.087-.138-.1-.157s-.064-.106-.1-.156l-.01-.011,0,0-.267-.247h0l-.007,0-.006,0,0,0c-.019-.012-.316-.166-.336-.176l-.014,0a2.2,2.2,0,0,0-.383-.082l.367.079a2.705,2.705,0,0,0-.378-.081c-.105,0-.313.011-.382.018H15.7a1.344,1.344,0,0,0-.183.058,1.443,1.443,0,0,0-.183.06l-.011.006c.111-.067-.221.127-.313.2l-.011.01c-.087.089-.175.178-.254.275l-.008.012a2.959,2.959,0,0,0-.18.344l-.005.012a2.544,2.544,0,0,0-.083.379v.02l.009.184c0,.061.005.122.01.183l0,.016a1.576,1.576,0,0,0,.568.89,1.183,1.183,0,0,0,.145.084c.015.01.031.017.046.026s.045.026.068.036a1.5,1.5,0,0,0,.222.115l.367.079a1.4,1.4,0,0,0,.7-.128l.013-.006a2.221,2.221,0,0,0,.314-.2l.01-.009.247-.267h0l0,0,0-.006,0-.006,0,0c.006-.01.169-.323.174-.334l.006-.014a1.778,1.778,0,0,0,.086-.394" fill="#1a1818"/>
      </g>
    </g>
  </g>
</svg>
