<svg xmlns="http://www.w3.org/2000/svg" xmlns:xlink="http://www.w3.org/1999/xlink" width="36.473" height="40" viewBox="0 0 36.473 40">
  <defs>
    <clipPath id="clip-path">
      <path id="Caminho_4276" data-name="Caminho 4276" d="M54.141-19.8H90.614v-40H54.141Z" transform="translate(0 0)" fill="none"/>
    </clipPath>
  </defs>
  <g id="alfabeto_ing_o_fim" transform="translate(-54.141 59.805)" clip-path="url(#clip-path)">
    <g id="Grupo_3076" data-name="Grupo 3076" transform="translate(54.627 -50.487)">
      <path id="Caminho_4268" data-name="Caminho 4268" d="M16.854,6.058A12.828,12.828,0,0,0,12.622-.831,17.106,17.106,0,0,0,5.448-4.714C.107-6.112-5.709-6.114-9.907-1.846a11.739,11.739,0,0,0-2.418,3.7,17.9,17.9,0,0,0-2.92,12.49c.824,5.241,6.067,8.529,10.579,9.749a19.377,19.377,0,0,0,8.492.527A16.979,16.979,0,0,0,10.879,21.1a13.769,13.769,0,0,0,4.987-6.441,18.383,18.383,0,0,0,.987-8.6" transform="translate(15.433 5.547)" fill="#ff7d33"/>
    </g>
    <g id="Grupo_3077" data-name="Grupo 3077" transform="translate(74.395 -25.191)">
      <path id="Caminho_4269" data-name="Caminho 4269" d="M.527,0a1.047,1.047,0,0,0,0,2.092A1.047,1.047,0,0,0,.527,0" transform="translate(0.483)" fill="#ffa04c"/>
    </g>
    <g id="Grupo_3078" data-name="Grupo 3078" transform="translate(76.59 -30.022)">
      <path id="Caminho_4270" data-name="Caminho 4270" d="M.527,0a1.047,1.047,0,0,0,0,2.092A1.047,1.047,0,0,0,.527,0" transform="translate(0.483)" fill="#ffa04c"/>
    </g>
    <g id="Grupo_3079" data-name="Grupo 3079" transform="translate(79.137 -27.299)">
      <path id="Caminho_4271" data-name="Caminho 4271" d="M.527,0a1.047,1.047,0,0,0,0,2.092A1.047,1.047,0,0,0,.527,0" transform="translate(0.483)" fill="#ffa04c"/>
    </g>
    <g id="Grupo_3080" data-name="Grupo 3080" transform="translate(82.299 -32.393)">
      <path id="Caminho_4272" data-name="Caminho 4272" d="M.527,0a1.047,1.047,0,0,0,0,2.092A1.047,1.047,0,0,0,.527,0" transform="translate(0.483)" fill="#ffa04c"/>
    </g>
    <g id="Grupo_3081" data-name="Grupo 3081" transform="translate(56.942 -45.806)">
      <path id="Caminho_4273" data-name="Caminho 4273" d="M2.687.161A17.832,17.832,0,0,0-2.458,11.414,1.056,1.056,0,0,0-1.412,12.46,1.064,1.064,0,0,0-.366,11.414,15.6,15.6,0,0,1,4.166,1.64,1.046,1.046,0,0,0,2.687.161" transform="translate(2.46 0.147)" fill="#ffa04c"/>
    </g>
    <g id="Grupo_3082" data-name="Grupo 3082" transform="translate(72.431 -59.638)">
      <path id="Caminho_4274" data-name="Caminho 4274" d="M1.023.269A1.076,1.076,0,0,0-.408-.105,1.052,1.052,0,0,0-.783,1.325C1.24,4.072,1.474,7.643.782,10.895.5,12.208,2.52,12.769,2.8,11.451,3.6,7.7,3.372,3.457,1.023.269" transform="translate(0.936 0.246)" fill="#a72517"/>
    </g>
    <g id="Grupo_3083" data-name="Grupo 3083" transform="translate(74.087 -58.43)">
      <path id="Caminho_4275" data-name="Caminho 4275" d="M7.86.035c-3.1,1.328-6.523,1.711-9.529,3.3A9.052,9.052,0,0,0-6.515,9.4c-.052.029-.1.071-.155.1a1.121,1.121,0,0,0,.544,2.063A18.173,18.173,0,0,0,3.529,8.936C6.224,7.3,9.33,4.629,9.224,1.1,9.2.464,8.537-.256,7.86.035" transform="translate(7.197 0.032)" fill="#46ac46"/>
    </g>
  </g>
</svg>
