<svg xmlns="http://www.w3.org/2000/svg" xmlns:xlink="http://www.w3.org/1999/xlink" width="54.269" height="40" viewBox="0 0 54.269 40">
  <defs>
    <clipPath id="clip-path">
      <path id="Caminho_4130" data-name="Caminho 4130" d="M124.965-101.842h54.269v-40H124.965Z" transform="translate(0)" fill="none"/>
    </clipPath>
  </defs>
  <g id="alfabeto_ing_d_fim" transform="translate(-124.965 141.842)" clip-path="url(#clip-path)">
    <g id="Grupo_2913" data-name="Grupo 2913" transform="translate(125.819 -141.55)">
      <path id="Caminho_4120" data-name="Caminho 4120" d="M22.333,3.525C18.753-1.79,12.01-2.921,5.788-2.572a15.391,15.391,0,0,0-2.3.105c-.044,0-.077-.03-.124-.035A12.831,12.831,0,0,0-7.458,2.062c-3.035,3.653-3.068,8.151-2.949,12.668a6.005,6.005,0,0,1-.03,1.992c-.3.5-1.547.784-2.069,1.046a7.221,7.221,0,0,0-3.918,4.718c-1.093,4.25,1.708,8.271,5.385,10.147,4.074,2.078,9.282,2.586,13.784,2.834a25.723,25.723,0,0,0,13.529-2.6,16.554,16.554,0,0,0,8.769-14.056c1.54-5.025.257-10.887-2.71-15.291" transform="translate(16.663 2.63)" fill="#f08f53"/>
    </g>
    <g id="Grupo_2914" data-name="Grupo 2914" transform="translate(160.713 -137.311)">
      <path id="Caminho_4121" data-name="Caminho 4121" d="M9.646,10.927c-.978-2.2-2.42-3.744-3.23-5.993S5.134.106,4.359-2.171c-1.016-3-2.488-5.315-4.414-5.841-2.188-.6-4.257.805-6.195,2.584-.941.866-1.2,3.358-.7,4.961a3.665,3.665,0,0,0,.286.6A6.238,6.238,0,0,0-6.8,1.43c.012,3.555.059,7.107.173,10.655.1,3.1.19,6.473,1.189,9.1,2.338,6.134,7.487,4.784,10.866,3.41,1.561-.634,3.274-1.243,4.414-3.52,1.481-2.97,1.1-7.234-.194-10.145" transform="translate(7.197 8.153)" fill="#b02819"/>
    </g>
    <g id="Grupo_2915" data-name="Grupo 2915" transform="translate(143.826 -134.577)">
      <path id="Caminho_4122" data-name="Caminho 4122" d="M8.2,2.547A5.629,5.629,0,0,0,6.33-.243a7.844,7.844,0,0,0-2.539-1.24,6.834,6.834,0,0,0-5.682.419c-.068.042-.124.1-.19.15a2.175,2.175,0,0,0-.58.29A7.33,7.33,0,0,0-4.653,1.517a5.607,5.607,0,0,0-.793,1.222A5.944,5.944,0,0,0-6.1,5.709a6.091,6.091,0,0,0,.908,2.923c.091.133.206.25.3.379a5.969,5.969,0,0,0,.445.9,5.75,5.75,0,0,0,5.067,2.8,6.9,6.9,0,0,0,1.933-.4,5.907,5.907,0,0,0,1.889-.363,5.973,5.973,0,0,0,2.5-1.655A6.34,6.34,0,0,0,8.357,7.454a10.371,10.371,0,0,0,.194-2.509,9.437,9.437,0,0,0-.353-2.4" transform="translate(6.116 1.9)" fill="#fff"/>
    </g>
    <g id="Grupo_2916" data-name="Grupo 2916" transform="translate(151.445 -131.939)">
      <path id="Caminho_4123" data-name="Caminho 4123" d="M0,.038A.132.132,0,0,1,.028.029H.035C.194-.037.248-.06,0,.038" transform="translate(0 0.028)" fill="#2b2e34"/>
    </g>
    <g id="Grupo_2917" data-name="Grupo 2917" transform="translate(146.019 -128.52)">
      <path id="Caminho_4124" data-name="Caminho 4124" d="M3.892,1.5a.151.151,0,0,0-.009-.03l-.007-.019c-.028-.07-.295-.711-.323-.782,0,0,0-.007,0-.012C3.536.636,3.525.617,3.513.6c-.168-.229-.33-.47-.522-.683L2.968-.108C2.86-.2,2.673-.34,2.631-.372c-.059-.047-.22-.183-.335-.264l-.03-.016-.007,0C2-.766,1.746-.876,1.491-.986c0,0,0,0,0,0L1.468-.995a.06.06,0,0,1-.016,0H1.444c-.051-.009-.812-.115-.861-.117a.177.177,0,0,0-.035,0,4.732,4.732,0,0,0-.889.124c.283-.04.569-.08.854-.117a5.849,5.849,0,0,0-.88.119c-.225.094-.667.274-.81.344l-.014.007a3.6,3.6,0,0,0-.349.274,3.344,3.344,0,0,0-.349.274.2.2,0,0,1-.019.023c.187-.234-.377.454-.52.686l-.014.028c-.122.264-.239.531-.335.805,0,.012-.007.021-.009.033a8.242,8.242,0,0,0-.119.9v.03a5.981,5.981,0,0,0,.117.9l.007.03s0,.009,0,.014c.054.133.11.264.164.4s.108.264.164.4c.007.009.012.021.019.03a2.447,2.447,0,0,0,.828.917A2.4,2.4,0,0,0-.51,5.67a2.7,2.7,0,0,0,.379.07c.037.009.08.012.119.021.056.007.115.021.173.023a3.266,3.266,0,0,0,.566.077c.286-.04.571-.08.854-.117A3.206,3.206,0,0,0,3,4.9a.111.111,0,0,0,.023-.023A5.142,5.142,0,0,0,3.546,4.2.255.255,0,0,0,3.56,4.17l.323-.782,0,0s0-.007,0-.009a.043.043,0,0,0,0-.016s0-.009,0-.014V3.337c0-.028.112-.842.115-.871a.177.177,0,0,0,0-.035A4.166,4.166,0,0,0,3.892,1.5" transform="translate(2.904 1.119)" fill="#2b2e34"/>
    </g>
    <g id="Grupo_2918" data-name="Grupo 2918" transform="translate(132.659 -131.874)">
      <path id="Caminho_4125" data-name="Caminho 4125" d="M5.65,1.755A3.871,3.871,0,0,0,4.363-.166a5.374,5.374,0,0,0-1.751-.857A4.7,4.7,0,0,0-1.3-.732c-.047.028-.084.07-.131.1a1.523,1.523,0,0,0-.4.2A5.032,5.032,0,0,0-3.206,1.046a3.839,3.839,0,0,0-.548.84,4.1,4.1,0,0,0-.452,2.048A4.226,4.226,0,0,0-3.58,5.949c.063.094.143.173.211.262a4.012,4.012,0,0,0,.3.62A3.968,3.968,0,0,0,.429,8.76,4.725,4.725,0,0,0,1.76,8.481a4.012,4.012,0,0,0,1.3-.248,4.122,4.122,0,0,0,1.722-1.14A4.362,4.362,0,0,0,5.76,5.139,7.163,7.163,0,0,0,5.893,3.41,6.457,6.457,0,0,0,5.65,1.755" transform="translate(4.215 1.31)" fill="#fff"/>
    </g>
    <g id="Grupo_2919" data-name="Grupo 2919" transform="translate(137.04 -127.934)">
      <path id="Caminho_4126" data-name="Caminho 4126" d="M0,.026.019.019h0C.133-.025.171-.042,0,.026" transform="translate(0 0.02)" fill="#2b2e34"/>
    </g>
    <g id="Grupo_2920" data-name="Grupo 2920" transform="translate(134.789 -128.414)">
      <path id="Caminho_4127" data-name="Caminho 4127" d="M2.683,1.033l-.007-.021a.018.018,0,0,0,0-.012C2.653.951,2.47.509,2.449.46c0,0,0,0,0-.007a.137.137,0,0,0-.023-.04,5.412,5.412,0,0,0-.358-.47.141.141,0,0,0-.019-.019c-.073-.063-.2-.159-.229-.18s-.152-.126-.232-.183A.1.1,0,0,0,1.562-.45a.008.008,0,0,1,0,0C1.38-.528,1.2-.6,1.029-.68c0,0,0,0,0,0l-.012,0A.025.025,0,0,1,1-.689H1C.961-.7.437-.769.4-.771H.378a3.363,3.363,0,0,0-.613.084l.59-.08a4.017,4.017,0,0,0-.606.082c-.154.063-.461.19-.559.239,0,0,0,0-.009,0a2.036,2.036,0,0,0-.241.187,2.192,2.192,0,0,0-.239.19.1.1,0,0,0-.014.016c.129-.161-.26.311-.358.47,0,.007-.007.014-.009.021A5.426,5.426,0,0,0-1.911,1a.074.074,0,0,0-.007.021A4.605,4.605,0,0,0-2,1.637c0,.007,0,.014,0,.021a4.412,4.412,0,0,0,.082.618.068.068,0,0,0,0,.021s0,.007,0,.012c.037.089.075.18.112.271s.073.183.112.271c0,.007.007.014.012.021A1.709,1.709,0,0,0-1.1,3.5a1.652,1.652,0,0,0,.754.4,1.691,1.691,0,0,0,.26.049c.028.007.056.007.082.014s.08.014.122.016A2.154,2.154,0,0,0,.5,4.038l.59-.08a2.213,2.213,0,0,0,.976-.578.108.108,0,0,0,.016-.016,3.362,3.362,0,0,0,.36-.473.139.139,0,0,0,.009-.019l.222-.538s0,0,0,0,0,0,0,0,0-.007,0-.012a.018.018,0,0,0,0-.009.009.009,0,0,1,0-.007c0-.019.077-.58.077-.6a.1.1,0,0,0,0-.026,2.974,2.974,0,0,0-.084-.641" transform="translate(2.002 0.771)" fill="#2b2e34"/>
    </g>
    <g id="Grupo_2921" data-name="Grupo 2921" transform="translate(125.266 -121.419)">
      <path id="Caminho_4128" data-name="Caminho 4128" d="M8.978,1.9A11.418,11.418,0,0,0,.953-1.412C-1.9-1.48-6.9-.39-6.692,3.338c.145,2.621,2.331,3.911,4.706,4.582A13.258,13.258,0,0,0,4.7,9.229C6.317,9.1,8.14,8.819,9.3,7.57,10.892,5.868,10.41,3.5,8.978,1.9" transform="translate(6.699 1.415)" fill="#2b2e34"/>
    </g>
    <g id="Grupo_2922" data-name="Grupo 2922" transform="translate(144.891 -109.948)">
      <path id="Caminho_4129" data-name="Caminho 4129" d="M4.6.172a7.331,7.331,0,0,1-6.759,2,1.027,1.027,0,0,0-1.238.7A1.017,1.017,0,0,0-2.7,4.11,9.379,9.379,0,0,0,6.022,1.595C6.932.67,5.509-.753,4.6.172" transform="translate(3.431 0.128)" fill="#2b2e34"/>
    </g>
  </g>
</svg>
