<svg id="alfabeto_ing_l_fim" xmlns="http://www.w3.org/2000/svg" xmlns:xlink="http://www.w3.org/1999/xlink" width="40" height="38.447" viewBox="0 0 40 38.447">
  <defs>
    <clipPath id="clip-path">
      <rect id="Retângulo_348" data-name="Retângulo 348" width="40" height="38.447" transform="translate(0 0)" fill="none"/>
    </clipPath>
    <clipPath id="clip-path-2">
      <path id="Caminho_4447" data-name="Caminho 4447" d="M17.028,10.634a2.772,2.772,0,0,0-2.85,1.819.75.75,0,0,0-.026.277A27.687,27.687,0,0,0,11.4,17.755a30.453,30.453,0,0,0-2.261,6.584C8.8,26.285,9,28.347,10.565,29.7c1.506,1.3,3.617,1.676,5.51,1.93a41.53,41.53,0,0,0,6.926.3,6.359,6.359,0,0,0,4.966-2.142,10.971,10.971,0,0,0,2.081-5.294,22.5,22.5,0,0,0,.178-7.1,8.143,8.143,0,0,0-3.24-5.537,5.593,5.593,0,0,0-3.164-1.026,3.9,3.9,0,0,0-1.53.381c-.453.212-.9.671-1.378.874a13.788,13.788,0,0,0-1.478-.917,6.1,6.1,0,0,0-2.4-.536h-.01" fill="none"/>
    </clipPath>
    <clipPath id="clip-path-4">
      <path id="Caminho_4453" data-name="Caminho 4453" d="M14.648,25.306a.628.628,0,0,0-.31.066.6.6,0,0,0-.258.159.8.8,0,0,0-.236.543,1.032,1.032,0,0,0,.009.184,2.057,2.057,0,0,0,.068.373,1.693,1.693,0,0,0,.252.5,2.708,2.708,0,0,0,.352.382c.022.02.041.042.063.062.067.1.142.2.218.3.02.027.035.052.057.077a4.154,4.154,0,0,0,2.592,1.551c1.752.27,3.155-.769,4.365-1.842.045-.04.047-.1.079-.143a.7.7,0,0,0,.246-.349.588.588,0,0,0,.063-.1.551.551,0,0,0,.07-.3c-.01-.068-.019-.137-.029-.2a.752.752,0,0,0-.207-.339l-.163-.12a.816.816,0,0,0-.406-.1h-.03c-.018,0-.033.01-.052.011a3.81,3.81,0,0,0-.918.024,11.767,11.767,0,0,1-1.751.041,10.473,10.473,0,0,1-1.6-.22c-.41-.115-.818-.246-1.218-.4a.617.617,0,0,0-.129-.018,1.147,1.147,0,0,0-.258-.053c-.038-.01-.077-.016-.114-.025s-.069-.018-.1-.031v.009c-.07-.013-.139-.028-.209-.035h-.007a2.591,2.591,0,0,0-.278-.016c-.053,0-.106,0-.158.007" fill="none"/>
    </clipPath>
  </defs>
  <g id="Grupo_3247" data-name="Grupo 3247">
    <g id="Grupo_3246" data-name="Grupo 3246" clip-path="url(#clip-path)">
      <path id="Caminho_4438" data-name="Caminho 4438" d="M36.854,19.278a3.517,3.517,0,0,0,1.77-.88,3.8,3.8,0,0,0,.928-3.541c-.464-2.1-2.162-3.222-4-4.043a2.509,2.509,0,0,0,.236-.248,2.638,2.638,0,0,0,.53-.443c.032-.036.058-.077.088-.115a1.571,1.571,0,0,0,.169-.16,2.194,2.194,0,0,0,.356-.7,2.532,2.532,0,0,0,.019-1.3,2.944,2.944,0,0,0-1.32-1.78,4.5,4.5,0,0,0-2.069-.562c-.41-.031-.822-.043-1.233-.058a1.934,1.934,0,0,0,.257-1.041c-.057-1.708-1.988-2.541-3.4-2.741a6.9,6.9,0,0,0-6.461,2.816,2.654,2.654,0,0,0-.518.589A11.04,11.04,0,0,0,19.6,1.833C18.421.856,16.886-.155,15.3.02a2.612,2.612,0,0,0-2.434,2.6A7.189,7.189,0,0,0,14.134,5.94,16.815,16.815,0,0,0,9.047,5.8c-1.825.234-4.244.625-5.47,2.192a2.619,2.619,0,0,0,.776,4.059,7.372,7.372,0,0,0,2.652.535c.05,0,.1,0,.151.005q-1.671.759-3.277,1.654c-1.61.9-3.421,2.137-3.794,4.114-.617,3.264,2.243,3.554,5.047,3.024-.5.414-.992.839-1.459,1.288A8.372,8.372,0,0,0,.955,27.206c-.238,1.519.225,3.419,1.888,3.82a6.264,6.264,0,0,0,3.8-.635c-.243,1.922.957,3.955,2.332,5.266a4.984,4.984,0,0,0,3.608,1.619,4.117,4.117,0,0,0,2.775-1.642,8.491,8.491,0,0,0,7.326,2.743c1.38-.182,3.056-.719,3.671-2.128a2.119,2.119,0,0,0,.065-.205,7.108,7.108,0,0,0,4.642,1.336,2.277,2.277,0,0,0,2.013-1.933,5.115,5.115,0,0,0-.6-2.688,6.1,6.1,0,0,0,3.194.638,3.651,3.651,0,0,0,3-2.207c.526-1.435-.3-2.98-1.1-4.135-.187-.27-.392-.522-.6-.77,1.47.161,2.816-.2,3.005-1.848.236-2.05-1.423-3.848-3.123-5.159" fill="#8d2711"/>
      <path id="Caminho_4439" data-name="Caminho 4439" d="M30.226,17.4a8.142,8.142,0,0,0-3.239-5.537,5.591,5.591,0,0,0-3.165-1.026,3.884,3.884,0,0,0-1.53.381c-.454.212-.9.671-1.377.874a13.741,13.741,0,0,0-1.479-.917,6.094,6.094,0,0,0-2.408-.536,2.77,2.77,0,0,0-2.85,1.819.765.765,0,0,0-.026.276A27.75,27.75,0,0,0,11.4,17.754a30.421,30.421,0,0,0-2.262,6.584C8.8,26.285,9,28.347,10.566,29.7c1.505,1.3,3.616,1.675,5.509,1.929a41.534,41.534,0,0,0,6.926.3,6.354,6.354,0,0,0,4.966-2.141,10.979,10.979,0,0,0,2.081-5.3,22.5,22.5,0,0,0,.178-7.095" fill="#fd971f"/>
      <path id="Caminho_4440" data-name="Caminho 4440" d="M27.146,15.562a2.7,2.7,0,0,0-.892-1.338,3.763,3.763,0,0,0-1.214-.6,3.261,3.261,0,0,0-2.717.2c-.032.021-.058.05-.089.072a1.035,1.035,0,0,0-.278.139A3.505,3.505,0,0,0,21,15.068a2.682,2.682,0,0,0-.379.586,2.863,2.863,0,0,0-.314,1.425,2.935,2.935,0,0,0,.434,1.4c.044.065.1.12.145.182a2.9,2.9,0,0,0,.212.433,2.749,2.749,0,0,0,2.422,1.341,3.288,3.288,0,0,0,.924-.193,2.81,2.81,0,0,0,.9-.173,2.857,2.857,0,0,0,1.194-.794,3.042,3.042,0,0,0,.678-1.36,5.059,5.059,0,0,0,.092-1.2,4.518,4.518,0,0,0-.169-1.151" fill="#fff"/>
      <path id="Caminho_4441" data-name="Caminho 4441" d="M23.946,14.726l.014-.005h0c.076-.031.1-.042-.016.005" fill="#1a1818"/>
      <path id="Caminho_4442" data-name="Caminho 4442" d="M24.6,17.59l0-.015,0-.008c-.014-.035-.141-.342-.156-.375l0-.006a.161.161,0,0,0-.017-.028c-.08-.11-.157-.225-.248-.327l-.012-.012c-.051-.044-.141-.112-.161-.127s-.1-.088-.16-.126l-.014-.009h0l-.367-.158h0l-.009,0-.008,0h0c-.024-.005-.387-.054-.411-.056H23a2.429,2.429,0,0,0-.425.059l.408-.056a2.816,2.816,0,0,0-.419.058c-.108.044-.319.131-.388.165l-.006,0a1.577,1.577,0,0,0-.167.131,1.558,1.558,0,0,0-.167.132l-.009.011c.09-.112-.18.217-.248.328l-.007.015c-.058.126-.114.254-.16.385l0,.016a3.639,3.639,0,0,0-.057.43v.014a3.027,3.027,0,0,0,.056.43l0,.015,0,.007.079.189c.024.064.05.127.078.19l.009.015a1.171,1.171,0,0,0,.4.439,1.157,1.157,0,0,0,.522.281,1.3,1.3,0,0,0,.181.033c.019,0,.038.006.057.01s.055.01.083.011a1.438,1.438,0,0,0,.271.037l.408-.056a1.539,1.539,0,0,0,.678-.4l.011-.011a2.429,2.429,0,0,0,.249-.329l.007-.013L24.6,18.5V18.49l0-.008,0-.007v0c0-.013.053-.4.055-.417v-.017a2.107,2.107,0,0,0-.059-.447" fill="#1a1818"/>
      <path id="Caminho_4443" data-name="Caminho 4443" d="M19.092,16.492a1.862,1.862,0,0,0-.615-.922,2.591,2.591,0,0,0-.837-.41,2.246,2.246,0,0,0-1.872.138c-.022.015-.04.035-.062.05a.729.729,0,0,0-.191.1,2.4,2.4,0,0,0-.656.708,1.782,1.782,0,0,0-.261.4,1.968,1.968,0,0,0-.217.982,2.033,2.033,0,0,0,.3.966c.029.045.067.083.1.126a1.829,1.829,0,0,0,.146.3,1.892,1.892,0,0,0,1.669.924,2.233,2.233,0,0,0,.636-.133,1.924,1.924,0,0,0,.623-.119,1.978,1.978,0,0,0,.823-.547,2.1,2.1,0,0,0,.467-.937,3.506,3.506,0,0,0,.064-.83,3.116,3.116,0,0,0-.117-.793" fill="#fff"/>
      <path id="Caminho_4444" data-name="Caminho 4444" d="M17.169,16.934l.009,0h0c.053-.022.07-.029-.011,0" fill="#1a1818"/>
      <path id="Caminho_4445" data-name="Caminho 4445" d="M17.634,17.548l0-.01,0-.006c-.009-.024-.1-.236-.107-.259l0,0-.011-.02c-.056-.076-.109-.155-.171-.225l-.009-.009c-.035-.03-.1-.076-.11-.087s-.073-.06-.111-.087l-.01-.006h0l-.253-.109h0l-.006,0h-.008c-.017,0-.267-.038-.283-.039h-.012a1.7,1.7,0,0,0-.293.041l.281-.038a1.893,1.893,0,0,0-.289.039c-.074.031-.22.091-.267.114l0,0c-.039.023-.123.1-.116.09a1.266,1.266,0,0,0-.114.091l-.007.008c.062-.077-.124.15-.17.226l-.005.01a2.807,2.807,0,0,0-.11.266l0,.011a2.448,2.448,0,0,0-.04.3v.01a2.065,2.065,0,0,0,.039.3l0,.011,0,0,.054.131c.017.044.035.087.054.13l.006.011a.819.819,0,0,0,.272.3.8.8,0,0,0,.36.193.914.914,0,0,0,.125.023l.039.007c.019,0,.038.007.057.008a1.168,1.168,0,0,0,.187.025l.281-.039a1.045,1.045,0,0,0,.467-.278l.008-.007a1.671,1.671,0,0,0,.172-.227l0-.009.107-.257v-.018c0-.009.037-.278.038-.288v-.011a1.4,1.4,0,0,0-.04-.308" fill="#1a1818"/>
    </g>
  </g>
  <g id="Grupo_3249" data-name="Grupo 3249">
    <g id="Grupo_3248" data-name="Grupo 3248" clip-path="url(#clip-path-2)">
      <path id="Caminho_4446" data-name="Caminho 4446" d="M25.9,31.218a22.662,22.662,0,0,0-3.219-3.225,6.285,6.285,0,0,0-4.044-1.153,12.444,12.444,0,0,0-4.405.88,4.491,4.491,0,0,0-2.419,3.044.659.659,0,0,0,.514.893.623.623,0,0,0,.9.141.641.641,0,0,0,.232.01l.252.028c.253.028.505.055.758.081q.758.078,1.517.147,1.581.141,3.166.238,3.106.191,6.218.208a.768.768,0,0,0,.525-1.292" fill="#ffda7d"/>
    </g>
  </g>
  <g id="Grupo_3251" data-name="Grupo 3251">
    <g id="Grupo_3250" data-name="Grupo 3250" clip-path="url(#clip-path)">
      <path id="Caminho_4448" data-name="Caminho 4448" d="M20.573,29.512a3.438,3.438,0,0,1-1.764.709.422.422,0,0,0-.093-.256c-.015-.018-.029-.038-.043-.056a1.772,1.772,0,0,1-.166-.321c-.012-.038-.025-.075-.035-.113a.377.377,0,0,0-.146-.216.294.294,0,0,0-.246-.036.328.328,0,0,0-.19.166.422.422,0,0,0-.032.278,2.1,2.1,0,0,0,.285.619c-.175-.012-.349-.029-.519-.053s-.318.184-.318.361a.35.35,0,0,0,.318.361,3.7,3.7,0,0,0,3.4-.932c.3-.322-.154-.832-.45-.511" fill="#661a04"/>
      <path id="Caminho_4449" data-name="Caminho 4449" d="M22.154,25.4a8.667,8.667,0,0,0-.608-1.614c-.482-1.063-.972-2.122-1.458-3.182a.843.843,0,0,0-.252-.573.947.947,0,0,0-1.26,0,19.53,19.53,0,0,0-4.628,5.656.85.85,0,0,0,.769,1.265,32.019,32.019,0,0,1,3.612.111q.844.075,1.684.2c.6.091,1.316.341,1.844-.061.577-.438.434-1.2.3-1.8" fill="#ffd868"/>
      <path id="Caminho_4450" data-name="Caminho 4450" d="M22.278,26.782c-.01-.068-.019-.136-.029-.2a.765.765,0,0,0-.206-.339l-.163-.12a.844.844,0,0,0-.406-.1h-.03c-.019,0-.034.011-.052.012a3.818,3.818,0,0,0-.919.023,11.767,11.767,0,0,1-1.751.041,10.585,10.585,0,0,1-1.6-.219c-.411-.116-.818-.247-1.219-.4a.558.558,0,0,0-.128-.019,1.156,1.156,0,0,0-.259-.053c-.038-.01-.076-.016-.114-.025s-.069-.018-.1-.03v.008c-.07-.013-.138-.027-.209-.035h-.007a2.124,2.124,0,0,0-.436-.01.63.63,0,0,0-.31.066.6.6,0,0,0-.258.159.8.8,0,0,0-.236.543,1.129,1.129,0,0,0,.009.184,1.976,1.976,0,0,0,.069.373,1.666,1.666,0,0,0,.251.5,2.832,2.832,0,0,0,.352.382c.022.02.041.042.064.062.066.1.142.2.217.3a.738.738,0,0,0,.058.077,4.151,4.151,0,0,0,2.591,1.552c1.752.27,3.155-.77,4.365-1.843.045-.04.048-.1.079-.143a.7.7,0,0,0,.246-.349.659.659,0,0,0,.064-.1.563.563,0,0,0,.069-.3" fill="#f16121"/>
    </g>
  </g>
  <g id="Grupo_3253" data-name="Grupo 3253">
    <g id="Grupo_3252" data-name="Grupo 3252" clip-path="url(#clip-path-4)">
      <path id="Caminho_4451" data-name="Caminho 4451" d="M16.856,28.177a1.335,1.335,0,0,0-.185-.572,1.007,1.007,0,0,0-.329-.317,1.162,1.162,0,0,0-.268-.116,1.53,1.53,0,0,0-.3-.044,1.117,1.117,0,0,0-.129-.008,2.393,2.393,0,0,0-.705.093.838.838,0,0,0-.481.353.545.545,0,0,0-.095.286.488.488,0,0,0,.006.132.5.5,0,0,0-.06.109.735.735,0,0,0,.081.591,1.517,1.517,0,0,0,.129.153l0,0,.017.013a1.608,1.608,0,0,0,.282.24.583.583,0,0,0,.062.028,5.453,5.453,0,0,0,.747.583.612.612,0,0,0,.3.091.637.637,0,0,0,.321-.014l.192-.077a.792.792,0,0,0,.288-.275.12.12,0,0,0,.008-.016.6.6,0,0,0,.13-.135l.081-.184a.744.744,0,0,0,0-.408c-.029-.169-.059-.339-.088-.509" fill="#661a04"/>
      <path id="Caminho_4452" data-name="Caminho 4452" d="M21.775,27.952a1.749,1.749,0,0,0-.479-.506,1.52,1.52,0,0,0-.626-.3,1.438,1.438,0,0,0-.954.13,1.663,1.663,0,0,0-.556.528,4.605,4.605,0,0,0-.562,1.165.745.745,0,0,0,.081.591.813.813,0,0,0,.48.353.739.739,0,0,0,.094,0c.016.01.025.027.042.036a.856.856,0,0,0,.62.077,6.219,6.219,0,0,0,1.126-.522,2.741,2.741,0,0,0,.584-.352.953.953,0,0,0,.15-1.206" fill="#661a04"/>
    </g>
  </g>
  <g id="Grupo_3255" data-name="Grupo 3255">
    <g id="Grupo_3254" data-name="Grupo 3254" clip-path="url(#clip-path)">
      <path id="Caminho_4454" data-name="Caminho 4454" d="M33.477,9.99a3.824,3.824,0,0,0-1.363-1.332,3.056,3.056,0,0,0-2.093-.583,1.668,1.668,0,0,0-.976.579A3.659,3.659,0,0,0,28.48,9.7a1.036,1.036,0,0,0,.1.794,1.048,1.048,0,0,0,.616.473,1.277,1.277,0,0,0,.248.017.109.109,0,0,1,.013.017c.014.013.017.032.031.044l.015.014.748.962c.119.154.236.31.358.461,0,.009.007.018.009.027a1.038,1.038,0,0,0,.993.756c.013,0,.026-.006.04-.007a.767.767,0,0,0,.172.031,5.977,5.977,0,0,0,1.054-.092,1.238,1.238,0,0,0,.679-.461,1.458,1.458,0,0,0,.274-.82,3.466,3.466,0,0,0-.357-1.923" fill="#fd971f"/>
      <path id="Caminho_4455" data-name="Caminho 4455" d="M31.988,11.739c-.019.033-.034.053-.05.079s0,0,.05-.079" fill="#f06448"/>
      <path id="Caminho_4456" data-name="Caminho 4456" d="M32.19,10.994v-.005a1.113,1.113,0,0,0-.127-.566,1.094,1.094,0,0,0-.3-.473,1.071,1.071,0,0,0-.332-.213h0c-.05-.025-.086-.072-.14-.09s-.09-.013-.132-.029-.054-.039-.088-.046l-.3-.04c-.017,0-.031-.012-.049-.011l-.016,0-.028,0a1.463,1.463,0,0,0-.742.2l-.3.229a1.476,1.476,0,0,0-.378.649c0,.017-.053.378-.053.395s.052.388.054.4.144.345.149.354a1.3,1.3,0,0,0,.232.3,1.489,1.489,0,0,0,.655.382,1.3,1.3,0,0,0,.4.055H30.7c.011,0,.384-.051.4-.053a1.037,1.037,0,0,0,.508-.267,1.067,1.067,0,0,0,.333-.339,4.232,4.232,0,0,0,.2-.434c.017-.13.035-.261.052-.391" fill="#f16121"/>
      <path id="Caminho_4457" data-name="Caminho 4457" d="M32.385,13.507a2.326,2.326,0,0,0-1.058-1.555,2.256,2.256,0,0,0-.981-.338,2.959,2.959,0,0,0-.4-.011c-.009-.058-.013-.116-.026-.173a2.8,2.8,0,0,0-.255-.668,2.764,2.764,0,0,0-.985-1.043.742.742,0,0,0-1.006.263.751.751,0,0,0,.264,1.006l.06.038c0,.008.095.077.108.09.037.034.072.07.1.107.017.018.034.037.05.056l.012.014a1.675,1.675,0,0,1,.123.211c.012.022.023.045.034.067l.019.041c.006.026.013.054.015.064.015.047.028.1.039.144s.014.066.019.1c0-.033-.007-.065-.011-.1.032.017.013.309.017.348a.9.9,0,0,0,.4.719,1.23,1.23,0,0,0,.584.17,3.211,3.211,0,0,0,.416.01c.122,0,.249.016.369.009l-.055,0a.232.232,0,0,1,.045.006c.045.011.088.027.132.041l.042.021c.042.023.083.047.122.073a.414.414,0,0,1,.034.024c.029.025.065.059.075.069.033.032.062.067.093.1l.029.042c.025.04.049.081.071.123l.008.017c.015.05.071.285.073.3a.731.731,0,0,0,.337.439.735.735,0,0,0,1.08-.83" fill="#8d2711"/>
      <path id="Caminho_4458" data-name="Caminho 4458" d="M30.244,13.08c-.045,0-.067,0,0,0" fill="#8d2711"/>
      <path id="Caminho_4459" data-name="Caminho 4459" d="M10.042,8.054a3.819,3.819,0,0,1,1.509-1.163A3.046,3.046,0,0,1,13.7,6.556a1.669,1.669,0,0,1,.9.688,3.7,3.7,0,0,1,.439,1.1,1.04,1.04,0,0,1-.2.777,1.052,1.052,0,0,1-.667.4,1.308,1.308,0,0,1-.249-.013l-.014.016c-.015.012-.021.029-.036.04l-.016.012-.856.869c-.136.138-.27.28-.41.416,0,.008-.008.016-.011.025a1.04,1.04,0,0,1-1.075.635c-.013,0-.025-.009-.038-.012a.789.789,0,0,1-.175.011,5.935,5.935,0,0,1-1.036-.214,1.242,1.242,0,0,1-.621-.538,1.451,1.451,0,0,1-.176-.846,3.462,3.462,0,0,1,.579-1.868" fill="#fd971f"/>
      <path id="Caminho_4460" data-name="Caminho 4460" d="M11.316,9.965c.015.035.027.057.04.085s0,0-.04-.085" fill="#f06448"/>
      <path id="Caminho_4461" data-name="Caminho 4461" d="M11.209,9.6a4.55,4.55,0,0,0,.147.455,1.06,1.06,0,0,0,.292.375,1.014,1.014,0,0,0,.473.324c.011,0,.375.1.386.1h.006a1.336,1.336,0,0,0,.4-.007,1.49,1.49,0,0,0,.7-.3,1.261,1.261,0,0,0,.265-.271c.006-.008.185-.322.19-.333s.1-.379.1-.386-.005-.382-.007-.4a1.464,1.464,0,0,0-.3-.688L13.592,8.2a1.463,1.463,0,0,0-.713-.286H12.85l-.015,0c-.018,0-.033.007-.05.005l-.3.005c-.034,0-.06.029-.092.036a1.028,1.028,0,0,0-.136.014c-.055.011-.1.054-.148.072h0a1.123,1.123,0,0,0-.712.608A1.1,1.1,0,0,0,11.2,9.2V9.2c0,.131.005.263.007.394" fill="#f16121"/>
      <path id="Caminho_4462" data-name="Caminho 4462" d="M11.12,12.632a.753.753,0,0,0,.571-.007.737.737,0,0,0,.387-.4c0-.015.086-.241.107-.29l.01-.015c.027-.039.055-.077.085-.114.01-.013.022-.026.033-.039.035-.031.069-.062.105-.09.01-.008.051-.039.082-.06.012-.007.024-.014.037-.02.042-.021.085-.04.129-.058l.045-.016c.045-.009.09-.019.136-.026a.338.338,0,0,1,.045,0l-.054-.009c.118.022.247.018.367.035a3.371,3.371,0,0,0,.414.039,1.239,1.239,0,0,0,.6-.1A.9.9,0,0,0,14.7,10.8c.008-.038.023-.33.057-.343-.007.032-.015.063-.023.1.01-.032.02-.064.031-.1s.035-.093.055-.139c0-.009.014-.036.023-.061l.024-.038c.013-.022.027-.043.041-.063a1.554,1.554,0,0,1,.147-.195s0,0,.014-.013l.055-.05c.038-.033.077-.064.117-.094.015-.011.112-.069.119-.076l.064-.032a.75.75,0,0,0,.379-.967.742.742,0,0,0-.968-.38A2.768,2.768,0,0,0,13.4,9.9c-.019.055-.03.113-.045.169a2.958,2.958,0,0,0-.4-.036,2.281,2.281,0,0,0-1.014.221,2.327,2.327,0,0,0-1.232,1.421.759.759,0,0,0,.4.958" fill="#8d2711"/>
      <path id="Caminho_4463" data-name="Caminho 4463" d="M12.892,11.5c.045,0,.066.01,0,0" fill="#8d2711"/>
    </g>
  </g>
</svg>
