<svg xmlns="http://www.w3.org/2000/svg" xmlns:xlink="http://www.w3.org/1999/xlink" width="35.603" height="42.884" viewBox="0 0 35.603 42.884">
  <defs>
    <clipPath id="clip-path">
      <rect id="Retângulo_356" data-name="Retângulo 356" width="35.603" height="42.884" transform="translate(0 0)" fill="none"/>
    </clipPath>
    <clipPath id="clip-path-2">
      <path id="Caminho_4510" data-name="Caminho 4510" d="M34.292,2.909C30.121,4.846,25.686,6.392,22.15,9.435a13.151,13.151,0,0,0-4.646,8.1,7.188,7.188,0,0,0-1.3-.332,7.661,7.661,0,0,0-5.416,1.312c-1.724.14-3.291,2.558-3.864,3.889-.97,2.25-.958,4.757-2.417,6.805-1.369,1.921-3.132,4.024-1.989,6.517.9,1.958,3.107,3.155,5.076,3.754a13.714,13.714,0,0,0,7.511-.01c2.2-.587,5.1-1.618,6.617-3.393s1.849-4.785,1.829-7.043a18.174,18.174,0,0,0-1.191-6.195c1.167-.694,2.283-1.512,3.343-2.271a23.825,23.825,0,0,0,4.624-4.124,16.683,16.683,0,0,0,2.948-5.59A51.607,51.607,0,0,1,35.5,4.115a1.009,1.009,0,0,0,.1-.407V3.647a.871.871,0,0,0-.881-.837,1.017,1.017,0,0,0-.43.1" fill="none"/>
    </clipPath>
  </defs>
  <g id="alfabeto_ing_r_fim" transform="translate(0 0)">
    <g id="Grupo_3276" data-name="Grupo 3276">
      <g id="Grupo_3275" data-name="Grupo 3275" clip-path="url(#clip-path)">
        <path id="Caminho_4507" data-name="Caminho 4507" d="M16.776,1c-.15-.868-1.313-1.428-1.9-.6-1.165,1.641-2.33,3.283-3.43,4.97a18.249,18.249,0,0,0-2.668,5.063,10.566,10.566,0,0,0,.443,5.45,7.209,7.209,0,0,0,1.087,2.4c0,.05,0,.1,0,.15a1.138,1.138,0,0,0,1.234.983c.04.023.067.057.109.079a.922.922,0,0,0,.767.065.835.835,0,0,0,1.284.076A12.552,12.552,0,0,0,17.178,11.8a37.786,37.786,0,0,0-.4-10.8" fill="#818386"/>
        <path id="Caminho_4508" data-name="Caminho 4508" d="M34.292,2.774C30.121,4.712,25.686,6.257,22.15,9.3A13.154,13.154,0,0,0,17.5,17.4a7.208,7.208,0,0,0-1.3-.331,7.659,7.659,0,0,0-5.416,1.311c-1.724.14-3.291,2.559-3.864,3.889-.971,2.25-.958,4.757-2.417,6.805C3.137,31,1.374,33.1,2.517,35.591c.9,1.958,3.107,3.155,5.076,3.755a13.738,13.738,0,0,0,7.51-.01c2.2-.588,5.1-1.619,6.618-3.393S23.57,31.157,23.55,28.9A18.169,18.169,0,0,0,22.359,22.7c1.167-.695,2.283-1.513,3.343-2.272a23.854,23.854,0,0,0,4.624-4.124,16.653,16.653,0,0,0,2.947-5.59A51.807,51.807,0,0,1,35.5,3.98a.889.889,0,0,0-1.206-1.206" fill="#a2a4a7"/>
      </g>
    </g>
    <g id="Grupo_3278" data-name="Grupo 3278">
      <g id="Grupo_3277" data-name="Grupo 3277" clip-path="url(#clip-path-2)">
        <path id="Caminho_4509" data-name="Caminho 4509" d="M15.941,35.466a13.258,13.258,0,0,0-8.19-2.828,8.874,8.874,0,0,0-7.6,3.953.945.945,0,0,0-.1.844,3.279,3.279,0,0,0,1.782,2.623,5.946,5.946,0,0,0,.795.705,5.061,5.061,0,0,0,2.209.9,8.562,8.562,0,0,0,1.31.636,11.413,11.413,0,0,0,4.937.53,17.725,17.725,0,0,0,4.689-.916c1.287-.492,2.646-1.505,2.658-3.025.012-1.482-1.438-2.6-2.5-3.418" fill="#c7c9cb"/>
      </g>
    </g>
    <g id="Grupo_3280" data-name="Grupo 3280">
      <g id="Grupo_3279" data-name="Grupo 3279" clip-path="url(#clip-path)">
        <path id="Caminho_4511" data-name="Caminho 4511" d="M17.626,26.022a2.472,2.472,0,0,0-.731-1.29,3.532,3.532,0,0,0-1.087-.636,3.1,3.1,0,0,0-2.545-.024c-.032.016-.059.041-.09.058a.976.976,0,0,0-.269.107,3.233,3.233,0,0,0-.963.865,2.413,2.413,0,0,0-.4.506,2.586,2.586,0,0,0-.4,1.277,2.662,2.662,0,0,0,.3,1.313c.035.063.082.117.121.178a2.636,2.636,0,0,0,.166.411,2.581,2.581,0,0,0,2.156,1.41,3.15,3.15,0,0,0,.875-.106,2.815,2.815,0,0,0,2.026-.723,2.761,2.761,0,0,0,.733-1.19,4.545,4.545,0,0,0,.177-1.092,4.123,4.123,0,0,0-.072-1.064" fill="#fff"/>
        <path id="Caminho_4512" data-name="Caminho 4512" d="M15.061,27.428l0-.014,0-.008c-.01-.032-.106-.323-.117-.354v0a.244.244,0,0,0-.014-.028c-.066-.106-.13-.217-.207-.317l-.01-.012c-.044-.044-.123-.113-.14-.128s-.092-.088-.14-.128l-.013-.009h0l-.33-.173h0l-.008,0-.007,0h0c-.022-.007-.356-.08-.379-.083l-.015,0a2.334,2.334,0,0,0-.4.021l.385-.02a2.9,2.9,0,0,0-.4.021c-.1.032-.307.1-.373.121l-.006,0a1.607,1.607,0,0,0-.166.106,1.672,1.672,0,0,0-.165.108l-.009.01c.092-.1-.185.184-.256.281l-.008.012c-.063.111-.125.223-.177.34l-.005.014a3.2,3.2,0,0,0-.086.388v.013a2.608,2.608,0,0,0,.02.4l0,.014,0,.007c.019.059.039.119.058.179s.038.119.059.179l.007.014a1.073,1.073,0,0,0,.336.431,1.077,1.077,0,0,0,.465.3,1.019,1.019,0,0,0,.166.044.5.5,0,0,0,.052.014c.026,0,.051.014.077.017a1.482,1.482,0,0,0,.25.054l.384-.02a1.441,1.441,0,0,0,.662-.316l.011-.009a2.287,2.287,0,0,0,.257-.282l.007-.011.172-.33h0l0,0,0-.007,0-.006v0c0-.012.081-.365.083-.377l0-.016a1.835,1.835,0,0,0-.021-.412" fill="#1a1818"/>
        <path id="Caminho_4513" data-name="Caminho 4513" d="M10.625,26.031a1.7,1.7,0,0,0-.505-.889,2.434,2.434,0,0,0-.748-.438,2.134,2.134,0,0,0-1.754-.017c-.023.011-.04.028-.062.04a.676.676,0,0,0-.185.074,2.195,2.195,0,0,0-.664.6,1.687,1.687,0,0,0-.274.348,1.783,1.783,0,0,0-.275.881,1.837,1.837,0,0,0,.206.905c.025.043.057.081.084.122a1.754,1.754,0,0,0,.114.284,1.777,1.777,0,0,0,1.485.971,2.159,2.159,0,0,0,.6-.073,1.935,1.935,0,0,0,1.4-.5,1.912,1.912,0,0,0,.505-.82,3.158,3.158,0,0,0,.122-.753,2.815,2.815,0,0,0-.049-.733" fill="#fff"/>
        <path id="Caminho_4514" data-name="Caminho 4514" d="M9.651,27.064l0-.01,0-.005c-.006-.022-.072-.223-.08-.244v0l-.009-.019c-.046-.073-.09-.15-.143-.219l-.007-.008c-.031-.03-.085-.077-.1-.088s-.063-.061-.1-.088L9.2,26.373h0l-.228-.119h0l-.005,0-.005,0h0c-.015,0-.246-.055-.261-.058H8.689a1.5,1.5,0,0,0-.276.015l.265-.014a1.758,1.758,0,0,0-.272.015c-.072.022-.212.066-.258.083l0,0a1.034,1.034,0,0,0-.114.073,1.132,1.132,0,0,0-.114.075l-.006.006c.063-.066-.127.127-.176.194l-.006.008c-.043.077-.086.154-.122.235l0,.009a2.2,2.2,0,0,0-.058.268v.009a1.759,1.759,0,0,0,.013.273l0,.01v0c.013.041.027.082.04.123s.026.082.041.123l.005.01a.745.745,0,0,0,.231.3.751.751,0,0,0,.321.2.69.69,0,0,0,.114.031c.012,0,.024,0,.036.009a.505.505,0,0,0,.053.012.993.993,0,0,0,.172.037l.265-.014a.988.988,0,0,0,.456-.218l.008-.006a1.482,1.482,0,0,0,.177-.194l.005-.007.119-.228h0v0l0-.005,0,0v0l.057-.26,0-.011a1.354,1.354,0,0,0-.015-.284" fill="#1a1818"/>
        <path id="Caminho_4515" data-name="Caminho 4515" d="M10.752,30.9a1.294,1.294,0,0,0-.275-.167,1.047,1.047,0,0,0-.5-.346,3.966,3.966,0,0,0-1.2-.169,2.573,2.573,0,0,0-1.286.286,1.632,1.632,0,0,0-.668,1.513,5.065,5.065,0,0,0,.156,1.194A2.243,2.243,0,0,0,8.638,35.1a1.5,1.5,0,0,0,1.505-.789c.161-.28.283-.586.421-.877l.254-.536a2.852,2.852,0,0,0,.284-.717,1.414,1.414,0,0,0-.35-1.281" fill="#5a5b5e"/>
        <path id="Caminho_4516" data-name="Caminho 4516" d="M11.817,36.386a.448.448,0,0,0-.613-.161.515.515,0,0,0-.2.264l.03-.071a.89.89,0,0,1-.066.112c-.024.027-.05.052-.076.076a.878.878,0,0,1-.094.054c-.027.009-.055.016-.083.023a1.607,1.607,0,0,1-.208,0,1.187,1.187,0,0,0-.223,0,3.421,3.421,0,0,1-.374-.111,1.518,1.518,0,0,1-.229-.13,1.076,1.076,0,0,1-.1-.1l-.005-.009c0-.008,0-.016,0-.024a3.169,3.169,0,0,1-.144-1.143.451.451,0,0,0-.449-.448.459.459,0,0,0-.448.448,3.917,3.917,0,0,0,.117,1.113,2.93,2.93,0,0,1-.279.254,3,3,0,0,1-.61.356.445.445,0,0,0-.206.268.448.448,0,0,0,.313.551l.119.016a.448.448,0,0,0,.226-.061,3.162,3.162,0,0,0,.86-.567,2.49,2.49,0,0,0,1,.456.405.405,0,0,0,.127.038c.017,0,.034.011.051.015a.479.479,0,0,0,.3-.032.987.987,0,0,0,.163.006,1.362,1.362,0,0,0,.516-.139,1.2,1.2,0,0,0,.348-.256,1.364,1.364,0,0,0,.28-.459.448.448,0,0,0-.045-.345" fill="#5a5b5e"/>
        <path id="Caminho_4517" data-name="Caminho 4517" d="M32.053,5.158a82.85,82.85,0,0,0-7.589,5.771A16.625,16.625,0,0,0,19.375,17.5a.865.865,0,0,0,.542,1.174.82.82,0,0,0,.13.465c.466.675.974,1.818,1.771,2.142.879.357,1.753-.423,2.442-.873a16.129,16.129,0,0,0,4.1-3.534,27.187,27.187,0,0,0,2.754-4.857c.9-1.859,1.724-3.754,2.488-5.672.337-.848-.82-1.678-1.545-1.188" fill="#f9beb6"/>
        <path id="Caminho_4518" data-name="Caminho 4518" d="M15.675,32.723a17.345,17.345,0,0,0-4.017.443.432.432,0,0,0-.2.724.435.435,0,0,0-.05.828,10.725,10.725,0,0,1,4.646,2.643c.361.413.99-.163.628-.577a11.17,11.17,0,0,0-4.792-2.8,16.372,16.372,0,0,1,3.737-.414c.548,0,.6-.848.047-.851" fill="#1a1818"/>
        <path id="Caminho_4519" data-name="Caminho 4519" d="M2.281,32.723a17.345,17.345,0,0,1,4.017.443.432.432,0,0,1,.2.724.435.435,0,0,1,.05.828A10.725,10.725,0,0,0,1.9,37.361c-.361.413-.99-.163-.628-.577a11.17,11.17,0,0,1,4.792-2.8,16.372,16.372,0,0,0-3.737-.414c-.548,0-.6-.848-.047-.851" fill="#1a1818"/>
      </g>
    </g>
  </g>
</svg>
