<svg xmlns="http://www.w3.org/2000/svg" xmlns:xlink="http://www.w3.org/1999/xlink" width="43.527" height="40" viewBox="0 0 43.527 40">
  <defs>
    <clipPath id="clip-path">
      <path id="Caminho_4422" data-name="Caminho 4422" d="M309.833-20.862H353.36v-40H309.833Z" transform="translate(0)" fill="none"/>
    </clipPath>
  </defs>
  <g id="alfabeto_ing_v_fim" transform="translate(-309.833 60.862)" clip-path="url(#clip-path)">
    <g id="Grupo_3209" data-name="Grupo 3209" transform="translate(313.461 -48.733)">
      <path id="Caminho_4401" data-name="Caminho 4401" d="M14.52,3A6.887,6.887,0,0,0,9.743-2.529C6.914-3.481,2.693-3.2.239-1.234A6.806,6.806,0,0,0-1.89,2.851C-2.138,4-2.6,7.007-4.129,7.155L-4.2,7.143a1.508,1.508,0,0,1-.656-.115,1.065,1.065,0,0,0-.212-.052.927.927,0,0,0-.567-.18,6.734,6.734,0,0,0-2.246.428A7.434,7.434,0,0,0-12.77,9.953a10.451,10.451,0,0,0-1.772,8.562c1.245,6.3,9.3,6.035,13.219,2.488a12.045,12.045,0,0,0,2.452-3.136A32.715,32.715,0,0,0,2.77,13.2c.632-1.707,1.913-1.8,3.5-1.923a10.434,10.434,0,0,0,4.122-1.1A7.41,7.41,0,0,0,14.52,3" transform="translate(14.78 3.056)" fill="#e78731"/>
    </g>
    <g id="Grupo_3210" data-name="Grupo 3210" transform="translate(336.059 -55.496)">
      <path id="Caminho_4402" data-name="Caminho 4402" d="M6.4.172a1.04,1.04,0,0,0-1.441-.1c-.3.323-.619.636-.926.96Q-.9,5.183-6.171,8.932a1,1,0,0,0-.089,1.423,4.838,4.838,0,0,0,1.729,1.283c.739.186,1.225-.317,1.707-.783Q-1.251,9.336.3,7.788C2.013,6.078,3.692,4.331,5.361,2.577c.238-.2.488-.387.726-.589a.914.914,0,0,0,.3-.5A1,1,0,0,0,6.4.172" transform="translate(6.516 0.175)" fill="#e78731"/>
    </g>
    <g id="Grupo_3211" data-name="Grupo 3211" transform="translate(346.673 -59.162)">
      <path id="Caminho_4403" data-name="Caminho 4403" d="M.208.269l.5-.422a.449.449,0,0,1,.313-.119.43.43,0,0,1,.3.135.869.869,0,0,1,.157.232,1,1,0,0,1,.052.161.366.366,0,0,1,.054.038.443.443,0,0,1-.018.617L1.5.976a4.142,4.142,0,0,1,.543.676.437.437,0,0,1-.18.591.438.438,0,0,1-.327.034.477.477,0,0,1-.264-.214c-.028-.044-.057-.085-.087-.129a3.8,3.8,0,0,0-.321-.373.518.518,0,0,1-.184.083A.539.539,0,0,1,.3,1.581a1.09,1.09,0,0,1-.244-.224A.972.972,0,0,1-.18,1.038.52.52,0,0,1-.012.455L.208.269" transform="translate(0.212 0.274)" fill="#2b2e34"/>
    </g>
    <g id="Grupo_3212" data-name="Grupo 3212" transform="translate(344.799 -57.583)">
      <path id="Caminho_4404" data-name="Caminho 4404" d="M.2.275C.369.133.531-.012.7-.155A.45.45,0,0,1,1-.28a.444.444,0,0,1,.307.131.8.8,0,0,1,.159.23A.846.846,0,0,1,1.526.24.627.627,0,0,1,1.58.275a.443.443,0,0,1-.008.619C1.55.916,1.526.939,1.5.961a4.06,4.06,0,0,1,.553.668.436.436,0,0,1-.5.632.482.482,0,0,1-.268-.208c-.028-.044-.057-.085-.087-.129a3.618,3.618,0,0,0-.329-.367.5.5,0,0,1-.182.085.538.538,0,0,1-.379-.057,1.145,1.145,0,0,1-.25-.22,1.012,1.012,0,0,1-.236-.313A.522.522,0,0,1-.014.466L.2.275" transform="translate(0.208 0.28)" fill="#2b2e34"/>
    </g>
    <g id="Grupo_3213" data-name="Grupo 3213" transform="translate(312.614 -49.525)">
      <path id="Caminho_4405" data-name="Caminho 4405" d="M14.52,3A6.887,6.887,0,0,0,9.743-2.529C6.914-3.481,2.693-3.2.239-1.234A6.806,6.806,0,0,0-1.89,2.851C-2.138,4-2.6,7.007-4.129,7.155L-4.2,7.143a1.508,1.508,0,0,1-.656-.115,1.065,1.065,0,0,0-.212-.052.927.927,0,0,0-.567-.18,6.734,6.734,0,0,0-2.246.428A7.434,7.434,0,0,0-12.77,9.953a10.451,10.451,0,0,0-1.772,8.562c1.245,6.3,9.3,6.035,13.219,2.488a12.045,12.045,0,0,0,2.452-3.136A32.715,32.715,0,0,0,2.77,13.2c.632-1.707,1.913-1.8,3.5-1.923a10.434,10.434,0,0,0,4.122-1.1A7.41,7.41,0,0,0,14.52,3" transform="translate(14.78 3.056)" fill="#ff9a39"/>
    </g>
    <g id="Grupo_3214" data-name="Grupo 3214" transform="translate(324.251 -34.964)">
      <path id="Caminho_4406" data-name="Caminho 4406" d="M.942,0A.415.415,0,0,0,.478.357.416.416,0,0,0,.8.811a.007.007,0,0,1,0,0l0,0h0a0,0,0,0,1,0,0s0,0,0,0,0,0,0,0l.01.012L.83.868s0,0,0,.008a.236.236,0,0,0,0,.03V.914a.3.3,0,0,1-.065.147.851.851,0,0,1-.17.165c-.182.137-.4.23-.6.355a2.3,2.3,0,0,0-.577.494A1.177,1.177,0,0,0-.8,3.5a.98.98,0,0,0,1.4.226A.414.414,0,0,0,.67,3.148a.416.416,0,0,0-.577-.071c-.022.014-.065.028-.03.02C.051,3.1,0,3.1-.012,3.1l-.056-.014-.008,0L-.1,3.069c-.008-.01-.02-.028-.03-.042a.168.168,0,0,0-.014-.036l0-.018a.05.05,0,0,0,0-.02c.008-.036.008-.046,0-.028,0-.008.006-.016.012-.032s.024-.054.036-.079A1.916,1.916,0,0,1,.747,2.1a1.573,1.573,0,0,0,.9-1.037A.92.92,0,0,0,.942,0" transform="translate(0.958 0.004)" fill="#2b2e34"/>
    </g>
    <g id="Grupo_3215" data-name="Grupo 3215" transform="translate(320.151 -38.037)">
      <path id="Caminho_4407" data-name="Caminho 4407" d="M1.552,0A1.575,1.575,0,0,0,.369.694a1.932,1.932,0,0,1-.858.7c-.03.008-.057.016-.085.022l-.034,0c.02,0,.01,0-.028,0a.08.08,0,0,0-.02-.006L-.672,1.4-.7,1.382l-.038-.038A.242.242,0,0,1-.753,1.32s0,0,0-.008,0-.036,0-.057.014-.061.02-.073c-.016.036.006-.006.024-.024A.417.417,0,0,0-.678.577.415.415,0,0,0-1.259.541a.98.98,0,0,0-.034,1.417A1.178,1.178,0,0,0,.149,2a2.3,2.3,0,0,0,.593-.478C.9,1.348,1.031,1.154,1.2,1A.922.922,0,0,1,1.394.86.3.3,0,0,1,1.548.825h.008l.028.01.01,0A.4.4,0,0,1,1.63.862l.012.012v0h0l0,0v0l0,0a.409.409,0,0,0,.817.014A.918.918,0,0,0,1.552,0" transform="translate(1.58 0)" fill="#2b2e34"/>
    </g>
    <g id="Grupo_3216" data-name="Grupo 3216" transform="translate(312.845 -32.006)">
      <path id="Caminho_4408" data-name="Caminho 4408" d="M3.22.232a1.009,1.009,0,0,0-1.528-.2Q-.572,2.014-2.833,4a1.4,1.4,0,0,0-.234,1.754,1.009,1.009,0,0,0,1.528.2L2.986,1.986A1.4,1.4,0,0,0,3.22.232" transform="translate(3.277 0.236)" fill="#2b2e34"/>
    </g>
    <g id="Grupo_3217" data-name="Grupo 3217" transform="translate(331.477 -55.833)">
      <path id="Caminho_4409" data-name="Caminho 4409" d="M7.814.109Q.014,6.181-7.55,12.558c-1.031.868.121,2.633,1.16,1.756Q1.172,7.939,8.975,1.865C10.042,1.034,8.886-.726,7.814.109" transform="translate(7.953 0.111)" fill="#2b2e34"/>
    </g>
    <g id="Grupo_3218" data-name="Grupo 3218" transform="translate(346.33 -60.686)">
      <path id="Caminho_4410" data-name="Caminho 4410" d="M3.223,1.644c.024-.056.067-.1.087-.155A2.339,2.339,0,0,0,1.728-1.642,1.846,1.846,0,0,0-.444.047,1.752,1.752,0,0,0-.478.618a.973.973,0,0,0,.561.728c.02.02.046.034.067.054-.236.034-.472.061-.706.115A4.568,4.568,0,0,0-3.083,3.088a1,1,0,0,0,.192,1.388,1.267,1.267,0,0,0,.176.079,2.788,2.788,0,0,0,.983,1.106A1.025,1.025,0,0,0-.343,5.467Q.18,4.89.7,4.309l.242-.268.139-.151c-.05.048-.048.048,0,0a1.279,1.279,0,0,1,.452-.3A3.152,3.152,0,0,0,3.223,1.644" transform="translate(3.281 1.674)" fill="#ff9a39"/>
    </g>
    <g id="Grupo_3219" data-name="Grupo 3219" transform="translate(348.43 -54.616)">
      <path id="Caminho_4411" data-name="Caminho 4411" d="M.9,1.03,1.389.591A.447.447,0,0,0,1.547.3a.432.432,0,0,0-.1-.319.847.847,0,0,0-.208-.186,1.062,1.062,0,0,0-.153-.073.247.247,0,0,0-.03-.056A.441.441,0,0,0,.449-.4L.372-.34a3.979,3.979,0,0,0-.6-.626.445.445,0,0,0-.319-.077.442.442,0,0,0-.289.178.438.438,0,0,0-.077.319.483.483,0,0,0,.176.289c.04.034.079.067.117.1A3.6,3.6,0,0,1-.292.215.54.54,0,0,0-.4.385.541.541,0,0,0-.386.768,1.121,1.121,0,0,0-.2,1.041a.981.981,0,0,0,.285.272.521.521,0,0,0,.6-.089L.9,1.03" transform="translate(0.919 1.048)" fill="#2b2e34"/>
    </g>
    <g id="Grupo_3220" data-name="Grupo 3220" transform="translate(350.067 -56.19)">
      <path id="Caminho_4412" data-name="Caminho 4412" d="M.9,1.03,1.389.591A.447.447,0,0,0,1.547.3a.432.432,0,0,0-.1-.319.847.847,0,0,0-.208-.186,1.062,1.062,0,0,0-.153-.073.247.247,0,0,0-.03-.056A.441.441,0,0,0,.449-.4L.372-.34a3.979,3.979,0,0,0-.6-.626.445.445,0,0,0-.319-.077.442.442,0,0,0-.289.178.438.438,0,0,0-.077.319.483.483,0,0,0,.176.289c.04.034.079.067.117.1A3.6,3.6,0,0,1-.292.215.54.54,0,0,0-.4.385.541.541,0,0,0-.386.768,1.121,1.121,0,0,0-.2,1.041a.981.981,0,0,0,.285.272.521.521,0,0,0,.6-.089L.9,1.03" transform="translate(0.919 1.048)" fill="#2b2e34"/>
    </g>
    <g id="Grupo_3221" data-name="Grupo 3221" transform="translate(347.581 -59.238)">
      <path id="Caminho_4413" data-name="Caminho 4413" d="M1.669.009A.813.813,0,0,0,.91,1.365a.443.443,0,0,0,.494.067,2.645,2.645,0,0,1-.866.585A5.6,5.6,0,0,0-1.646,3.972a.459.459,0,0,0,.2.611.468.468,0,0,0,.611-.2A4.313,4.313,0,0,1,.543,3.058,4.673,4.673,0,0,0,2.234,1.831,1.178,1.178,0,0,0,1.669.009" transform="translate(1.699 0.009)" fill="#ffc734"/>
    </g>
    <g id="Grupo_3222" data-name="Grupo 3222" transform="translate(312.306 -54.317)">
      <path id="Caminho_4414" data-name="Caminho 4414" d="M0,14.062c-.244-.438,34.074-28.748,34.342-28.371" transform="translate(0.001 14.313)" fill="none" stroke="#fff" stroke-linecap="round" stroke-linejoin="round" stroke-width="0.25"/>
    </g>
    <g id="Grupo_3223" data-name="Grupo 3223" transform="translate(312.733 -53.728)">
      <path id="Caminho_4415" data-name="Caminho 4415" d="M0,14.062c-.244-.438,34.074-28.748,34.342-28.371" transform="translate(0.001 14.313)" fill="none" stroke="#fff" stroke-linecap="round" stroke-linejoin="round" stroke-width="0.25"/>
    </g>
    <g id="Grupo_3224" data-name="Grupo 3224" transform="translate(313.564 -34.727)">
      <path id="Caminho_4416" data-name="Caminho 4416" d="M1.02.111A.518.518,0,0,0,.312-.028a3.174,3.174,0,0,0-1.348,2.7.516.516,0,0,0,.543.478.519.519,0,0,0,.476-.541c0-.054,0-.109,0-.163V2.4l0,0V2.389a2.477,2.477,0,0,1,.048-.3q.015-.071.036-.143l.024-.075A2.718,2.718,0,0,1,.207,1.6C.25,1.519.3,1.436.35,1.354c.016-.02.028-.04.044-.057.03-.04.059-.077.091-.115C.552,1.1.623,1.031.7.96L.75.916C.792.882.835.851.881.819A.516.516,0,0,0,1.02.111" transform="translate(1.038 0.113)" fill="#fff"/>
    </g>
    <g id="Grupo_3225" data-name="Grupo 3225" transform="translate(314.585 -32.225)">
      <path id="Caminho_4417" data-name="Caminho 4417" d="M0,.009C0,.047.006.09,0-.009,0-.005,0,0,0,0Z" transform="translate(0 0.009)" fill="#fff"/>
    </g>
    <g id="Grupo_3226" data-name="Grupo 3226" transform="translate(329.345 -48.83)">
      <path id="Caminho_4418" data-name="Caminho 4418" d="M1.971.135A2.681,2.681,0,0,0-.152.034,3.939,3.939,0,0,0-1.879,1.36a.525.525,0,0,0,.036.726.519.519,0,0,0,.726-.034,4.5,4.5,0,0,1,.3-.349c.052-.056.105-.109.161-.163.024-.024.05-.048.075-.069s.093-.109.024-.022a.875.875,0,0,1,.18-.139c.063-.044.125-.085.19-.125s.133-.073.2-.109c0,0,0,0,0,0a.024.024,0,0,1,.01,0c.038-.016.075-.032.113-.046A1.834,1.834,0,0,1,.316.962C.352.952.389.94.429.932L.455.924A1.516,1.516,0,0,1,.877.888a.259.259,0,0,1,.034,0l.065,0c.071.008.141.022.21.036l.093.024L1.3.962a1.417,1.417,0,0,0,.2.089A.519.519,0,0,0,2.2.825a.523.523,0,0,0-.226-.69" transform="translate(2.007 0.137)" fill="#fff"/>
    </g>
    <g id="Grupo_3227" data-name="Grupo 3227" transform="translate(325.04 -55.299)">
      <path id="Caminho_4419" data-name="Caminho 4419" d="M6.133,15.074-6.243-15.343" transform="translate(6.243 15.343)" fill="none" stroke="#e78731" stroke-linecap="round" stroke-linejoin="round" stroke-width="0.5"/>
    </g>
    <g id="Grupo_3228" data-name="Grupo 3228" transform="translate(324.194 -54.41)">
      <path id="Caminho_4420" data-name="Caminho 4420" d="M6.284,14.3l-1.614-.48L-6.4-12.858l.712-1.7" transform="translate(6.396 14.559)" fill="none" stroke="#2b2e34" stroke-linecap="round" stroke-linejoin="round" stroke-width="0.25"/>
    </g>
    <g id="Grupo_3229" data-name="Grupo 3229" transform="translate(324.856 -55.376)">
      <path id="Caminho_4421" data-name="Caminho 4421" d="M6.133,15.074-6.243-15.343" transform="translate(6.243 15.343)" fill="none" stroke="#2b2e34" stroke-linecap="round" stroke-linejoin="round" stroke-width="0.25"/>
    </g>
  </g>
</svg>
