<svg xmlns="http://www.w3.org/2000/svg" xmlns:xlink="http://www.w3.org/1999/xlink" width="50.563" height="40" viewBox="0 0 50.563 40">
  <defs>
    <clipPath id="clip-path">
      <path id="Caminho_4267" data-name="Caminho 4267" d="M15.118-17.915H65.681v-40H15.118Z" transform="translate(0 0)" fill="none"/>
    </clipPath>
  </defs>
  <g id="alfabeto_ing_n_fim" transform="translate(-15.118 57.915)" clip-path="url(#clip-path)">
    <g id="Grupo_3066" data-name="Grupo 3066" transform="translate(18.468 -52.06)">
      <path id="Caminho_4258" data-name="Caminho 4258" d="M26.834,14.3a8.9,8.9,0,0,0-.167-1.135c-.012-.067-.028-.128-.039-.193-.014-.046-.03-.086-.044-.132A5.053,5.053,0,0,0,24.218,9.6a23.18,23.18,0,0,0-2.563-2.621c-.344-.385-.65-.8-1.008-1.175a1.015,1.015,0,0,0-.508-.288C19.263,4.4,18.263,3.4,17.292,2.371a53.134,53.134,0,0,0-3.738-4.782,53.842,53.842,0,0,0-2.967-4.731c-2.4-3.3-5.853-3.856-9.479-3.638a7.766,7.766,0,0,0-2.259.211.905.905,0,0,0-.306.153c-1.588-.016-3.178.021-4.761.158a51.886,51.886,0,0,0-12.541,2.7l-.276.039a1.034,1.034,0,0,0-.474.283l-.481.488a.84.84,0,0,0-.223.355.863.863,0,0,0-.093.425.876.876,0,0,0,.084.388,1.051,1.051,0,0,0,.163.752,1.015,1.015,0,0,0,.07.232C-16.363,2.61-11.443,9.271-6.768,15.783q1.661,2.316,3.364,4.6c.947,1.275,1.82,2.667,3.515,2.8s3.605-.52,5.27-.847q3.071-.6,6.14-1.24,2.814-.585,5.618-1.2,1.529-.334,3.057-.68c.19-.044.392-.084.6-.128a5.447,5.447,0,0,0,1.683-.439,9.273,9.273,0,0,0,1.72-.443,3.908,3.908,0,0,0,2.1-1.435,3.9,3.9,0,0,0,.539-2.47" transform="translate(20.305 10.822)" fill="#ff4e68"/>
    </g>
    <g id="Grupo_3067" data-name="Grupo 3067" transform="translate(19.982 -53.492)">
      <path id="Caminho_4259" data-name="Caminho 4259" d="M25.469,13.465c-.395-1.04-1.335-1.133-2.319-1.1A78.709,78.709,0,0,0,14,13.395c-2.927.434-5.943.576-8.845,1.121a6.175,6.175,0,0,0-3,1.4c-.009-.016-.021-.033-.03-.049a1.138,1.138,0,0,0-1.46-.434,3.537,3.537,0,0,0-.279-.5c-.8-1.179-1.755-2.28-2.626-3.41C-3.75,9.567-5.268,7.61-6.763,5.634c-1.718-2.27-3.387-4.583-4.926-6.972q-1.752-3.044-3.461-6.1c-.114-.23-.246-.45-.355-.683a.763.763,0,0,0-.121-.16c-.046-.086-.1-.172-.144-.258a.968.968,0,0,0-.508-.416c-.014-.149-.014-.3-.037-.45-.2-1.37-2.3-.787-2.1.576.023.146.026.288.039.432q-.341,1.734-.678,3.473a4.477,4.477,0,0,0,.014,2.774A6.5,6.5,0,0,0-17.372-.188a13,13,0,0,1,2.117,2.746C-12.708,6.772-10.2,10.916-7.3,14.9q1.055,1.445,2.124,2.879a8.384,8.384,0,0,0,1.4,1.746c.081.137.163.272.251.4.541,1.312,1.391,2.53,2.923,2.7a13.109,13.109,0,0,0,3.673-.511q2.25-.421,4.5-.838l17.219-3.2a1.091,1.091,0,0,0,.8-1.042,11.18,11.18,0,0,0-.121-3.577" transform="translate(19.272 10.189)" fill="#f5eac0"/>
    </g>
    <g id="Grupo_3068" data-name="Grupo 3068" transform="translate(19.572 -57.869)">
      <path id="Caminho_4260" data-name="Caminho 4260" d="M25.287,13.609a.8.8,0,0,0-.118-.3Q23.243,10.78,21.21,8.346C19.2,5.607,16.785,3.09,14.6.532c-2.647-3.1-5.163-6.405-7.984-9.344-1.288-1.342-2.879-1.367-4.629-1.442a52.557,52.557,0,0,0-6.6.144A54.3,54.3,0,0,0-17.541-7.384l-.286.037a1.113,1.113,0,0,0-.488.288l-.494.492a.819.819,0,0,0-.23.358.842.842,0,0,0-.1.432.863.863,0,0,0,.086.39,1.046,1.046,0,0,0,.167.761.949.949,0,0,0,.072.232C-15.068,2.884-10,9.612-5.174,16.188q1.713,2.337,3.468,4.645c.977,1.286,1.876,2.7,3.624,2.832s3.717-.527,5.435-.857q3.169-.609,6.333-1.254,2.9-.589,5.792-1.212c1.052-.228,2.1-.455,3.155-.689A4.43,4.43,0,0,0,24.544,19,2.84,2.84,0,0,0,26.6,16.741a3.726,3.726,0,0,0-1.314-3.132" transform="translate(19.134 10.298)" fill="#ff5872"/>
    </g>
    <g id="Grupo_3069" data-name="Grupo 3069" transform="translate(15.3 -52.06)">
      <path id="Caminho_4261" data-name="Caminho 4261" d="M4.47.412A3.075,3.075,0,0,0,2.587-.3,6.064,6.064,0,0,0-1,.742,5.308,5.308,0,0,0-3.238,3.855a4.439,4.439,0,0,0,.729,3.81A3.339,3.339,0,0,0,1.062,8.855c.966-.311.555-1.932-.42-1.616a1.871,1.871,0,0,1-2.113-.882,2.944,2.944,0,0,1,.035-2.816,4.064,4.064,0,0,1,2.349-1.9,4.515,4.515,0,0,1,1.514-.272,1.9,1.9,0,0,1,.727.135,1.456,1.456,0,0,1,.2.118c-.1.676.731,1.351,1.33.743A1.365,1.365,0,0,0,4.47.412" transform="translate(3.382 0.312)" fill="#2b2e34"/>
    </g>
    <g id="Grupo_3070" data-name="Grupo 3070" transform="translate(18.949 -47.655)">
      <path id="Caminho_4262" data-name="Caminho 4262" d="M4.47.412A3.075,3.075,0,0,0,2.587-.3,6.064,6.064,0,0,0-1,.742,5.308,5.308,0,0,0-3.238,3.855a4.439,4.439,0,0,0,.729,3.81A3.339,3.339,0,0,0,1.062,8.855c.966-.311.555-1.932-.42-1.616a1.871,1.871,0,0,1-2.113-.882,2.944,2.944,0,0,1,.035-2.816,4.064,4.064,0,0,1,2.349-1.9,4.515,4.515,0,0,1,1.514-.272,1.9,1.9,0,0,1,.727.135,1.456,1.456,0,0,1,.2.118c-.1.676.731,1.351,1.33.743A1.365,1.365,0,0,0,4.47.412" transform="translate(3.382 0.312)" fill="#2b2e34"/>
    </g>
    <g id="Grupo_3071" data-name="Grupo 3071" transform="translate(21.883 -42.374)">
      <path id="Caminho_4263" data-name="Caminho 4263" d="M4.47.412A3.075,3.075,0,0,0,2.587-.3,6.064,6.064,0,0,0-1,.742,5.308,5.308,0,0,0-3.238,3.855a4.439,4.439,0,0,0,.729,3.81A3.339,3.339,0,0,0,1.062,8.855c.966-.311.555-1.932-.42-1.616a1.871,1.871,0,0,1-2.113-.882,2.944,2.944,0,0,1,.035-2.816,4.064,4.064,0,0,1,2.349-1.9,4.515,4.515,0,0,1,1.514-.272,1.9,1.9,0,0,1,.727.135,1.456,1.456,0,0,1,.2.118c-.1.676.731,1.351,1.33.743A1.365,1.365,0,0,0,4.47.412" transform="translate(3.382 0.312)" fill="#2b2e34"/>
    </g>
    <g id="Grupo_3072" data-name="Grupo 3072" transform="translate(24.962 -37.72)">
      <path id="Caminho_4264" data-name="Caminho 4264" d="M4.47.412A3.075,3.075,0,0,0,2.587-.3,6.064,6.064,0,0,0-1,.742,5.308,5.308,0,0,0-3.238,3.855a4.439,4.439,0,0,0,.729,3.81A3.339,3.339,0,0,0,1.062,8.855c.966-.311.555-1.932-.42-1.616a1.871,1.871,0,0,1-2.113-.882,2.944,2.944,0,0,1,.035-2.816,4.064,4.064,0,0,1,2.349-1.9,4.515,4.515,0,0,1,1.514-.272,1.9,1.9,0,0,1,.727.135,1.456,1.456,0,0,1,.2.118c-.1.676.731,1.351,1.33.743A1.365,1.365,0,0,0,4.47.412" transform="translate(3.382 0.312)" fill="#2b2e34"/>
    </g>
    <g id="Grupo_3073" data-name="Grupo 3073" transform="translate(28.344 -32.688)">
      <path id="Caminho_4265" data-name="Caminho 4265" d="M4.47.412A3.075,3.075,0,0,0,2.587-.3,6.064,6.064,0,0,0-1,.742,5.308,5.308,0,0,0-3.238,3.855a4.439,4.439,0,0,0,.729,3.81A3.339,3.339,0,0,0,1.062,8.855c.966-.311.555-1.932-.42-1.616a1.871,1.871,0,0,1-2.113-.882,2.944,2.944,0,0,1,.035-2.816,4.064,4.064,0,0,1,2.349-1.9,4.515,4.515,0,0,1,1.514-.272,1.9,1.9,0,0,1,.727.135,1.456,1.456,0,0,1,.2.118c-.1.676.731,1.351,1.33.743A1.365,1.365,0,0,0,4.47.412" transform="translate(3.382 0.312)" fill="#2b2e34"/>
    </g>
    <g id="Grupo_3074" data-name="Grupo 3074" transform="translate(31.9 -28.034)">
      <path id="Caminho_4266" data-name="Caminho 4266" d="M4.47.412A3.075,3.075,0,0,0,2.587-.3,6.064,6.064,0,0,0-1,.742,5.308,5.308,0,0,0-3.238,3.855a4.439,4.439,0,0,0,.729,3.81A3.339,3.339,0,0,0,1.062,8.855c.966-.311.555-1.932-.42-1.616a1.871,1.871,0,0,1-2.113-.882,2.944,2.944,0,0,1,.035-2.816,4.064,4.064,0,0,1,2.349-1.9,4.515,4.515,0,0,1,1.514-.272,1.9,1.9,0,0,1,.727.135,1.456,1.456,0,0,1,.2.118c-.1.676.731,1.351,1.33.743A1.365,1.365,0,0,0,4.47.412" transform="translate(3.382 0.312)" fill="#2b2e34"/>
    </g>
  </g>
</svg>
