<svg xmlns="http://www.w3.org/2000/svg" xmlns:xlink="http://www.w3.org/1999/xlink" width="47.547" height="40" viewBox="0 0 47.547 40">
  <defs>
    <clipPath id="clip-path">
      <path id="Caminho_4105" data-name="Caminho 4105" d="M52.022-102.983H99.569v-40H52.022Z" transform="translate(0 0)" fill="none"/>
    </clipPath>
  </defs>
  <g id="alfabeto_ing_b_fim" transform="translate(-52.022 142.983)" clip-path="url(#clip-path)">
    <g id="Grupo_2877" data-name="Grupo 2877" transform="translate(87.892 -113.199)">
      <path id="Caminho_4084" data-name="Caminho 4084" d="M3.786,1.124A44.2,44.2,0,0,0-2.04-.925.655.655,0,0,0-2.789-.4a.553.553,0,0,0,.07.362.638.638,0,0,0-.007.224.628.628,0,0,0,.072,1.22q3.021.523,6.062.924a.639.639,0,0,0,.377-1.207" transform="translate(3.172 0.942)" fill="#2b2e34"/>
    </g>
    <g id="Grupo_2878" data-name="Grupo 2878" transform="translate(79.437 -134.835)">
      <path id="Caminho_4085" data-name="Caminho 4085" d="M10.515,1.594A4.908,4.908,0,0,0,7.273-.975,11.763,11.763,0,0,0-.862-.03,18.513,18.513,0,0,0-8.617,7.278a1.2,1.2,0,0,0,0,1.3c-.268.614-.145,1.516.524,1.58A44.312,44.312,0,0,0,2.319,9.911,32.005,32.005,0,0,0,7.444,8.86a4.877,4.877,0,0,0,3.142-2.483,5.686,5.686,0,0,0-.07-4.783" transform="translate(8.808 1.335)" fill="#72c1e8"/>
    </g>
    <g id="Grupo_2879" data-name="Grupo 2879" transform="translate(65.972 -139.331)">
      <path id="Caminho_4086" data-name="Caminho 4086" d="M7.818,6.895C7.493.46,3.924-4.671-.889-5.619a4.423,4.423,0,0,0-3.431.412A6.341,6.341,0,0,0-6.367-1.429c-.8,3.253,1.18,5.074,3.124,6.141A43.173,43.173,0,0,0,5.616,8.336.643.643,0,0,0,6.4,7.871c.45.568,1.472.125,1.417-.976" transform="translate(6.549 5.775)" fill="#72c1e8"/>
    </g>
    <g id="Grupo_2880" data-name="Grupo 2880" transform="translate(75.172 -125.156)">
      <path id="Caminho_4087" data-name="Caminho 4087" d="M5.809,4.335c-.05-2.053-.244-4.1-.211-6.154a6.388,6.388,0,0,0-.928-.546c0-.029-.015-.057-.02-.083a14.481,14.481,0,0,0-2.38-1.182c1.1,4.611,1.3,9.55-.487,14a16.194,16.194,0,0,1-6.649,7.939c.32-.055.643-.11.957-.184.226.02.452.044.678.055a15.114,15.114,0,0,0,4.467-.476,19.683,19.683,0,0,0,3.793-7.011,20.367,20.367,0,0,0,.781-6.36" transform="translate(4.866 3.631)" fill="#ffc734"/>
    </g>
    <g id="Grupo_2881" data-name="Grupo 2881" transform="translate(58.543 -126.71)">
      <path id="Caminho_4088" data-name="Caminho 4088" d="M7.423,12.792a14.324,14.324,0,0,0,8.549-8.731c1.63-4.412,1.281-9.221.1-13.7a13.433,13.433,0,0,0-4.767-.373c-.09.009-.173.029-.261.039a8.186,8.186,0,0,0-5.627-.443A8.939,8.939,0,0,0-.819-7.757a9,9,0,0,0-3.8,3.282,9.387,9.387,0,0,0-1.564,5.8,9.27,9.27,0,0,0-.033.941,8.579,8.579,0,0,0,1.18,4.14A8.065,8.065,0,0,0-3.092,8.589,11.717,11.717,0,0,0-1.44,10.513a6.509,6.509,0,0,0,3.89,1.759,10.41,10.41,0,0,0,1.906.239c.013,0,.024.009.035.011a12.965,12.965,0,0,0,2.762.448.632.632,0,0,1,.27-.178" transform="translate(6.218 10.715)" fill="#ffc734"/>
    </g>
    <g id="Grupo_2882" data-name="Grupo 2882" transform="translate(83.263 -122.139)">
      <path id="Caminho_4089" data-name="Caminho 4089" d="M3.9,3.484C4.064,1.849,4.119.2,2.822-1.091A4.3,4.3,0,0,0,.933-2.159C.87-2.269.819-2.381.747-2.486.642-2.639.521-2.778.4-2.918.449-1.064.617.787.626,2.646a20.845,20.845,0,0,1-.908,6.32A21.036,21.036,0,0,1-3.27,14.944a.475.475,0,0,1,.055-.009c.11-.094.206-.2.312-.3A5.8,5.8,0,0,0-.238,12.992a5.52,5.52,0,0,0,1.1-1.81,5.8,5.8,0,0,0,1.953-2.29,8.693,8.693,0,0,0,.494-1.4c.11-.219.213-.445.3-.678A6.068,6.068,0,0,0,3.9,3.484" transform="translate(3.27 2.918)" fill="#ffc734"/>
    </g>
    <g id="Grupo_2883" data-name="Grupo 2883" transform="translate(71.914 -125.636)">
      <path id="Caminho_4090" data-name="Caminho 4090" d="M5.391,7.882c1.786-4.451,1.588-9.392.487-14A14.057,14.057,0,0,0,4.406-6.6c1.18,4.482,1.527,9.291-.1,13.7a14.328,14.328,0,0,1-8.552,8.731.646.646,0,0,0-.27.178,14.309,14.309,0,0,0,1.593.013,14.751,14.751,0,0,0,1.665-.2A16.185,16.185,0,0,0,5.391,7.882" transform="translate(4.516 6.602)" fill="#2b2e34"/>
    </g>
    <g id="Grupo_2884" data-name="Grupo 2884" transform="translate(81.272 -123.342)">
      <path id="Caminho_4091" data-name="Caminho 4091" d="M3.2,3.683c-.011-1.858-.178-3.71-.222-5.566a6.37,6.37,0,0,0-1.3-1.2c-.031,2.051.162,4.1.211,6.151a20.436,20.436,0,0,1-.779,6.362,19.731,19.731,0,0,1-3.8,7.009c.338-.088.676-.176,1-.29.336-.044.66-.105.987-.169A21.082,21.082,0,0,0,2.3,10,20.923,20.923,0,0,0,3.2,3.683" transform="translate(2.684 3.085)" fill="#2b2e34"/>
    </g>
    <g id="Grupo_2885" data-name="Grupo 2885" transform="translate(56.859 -129.688)">
      <path id="Caminho_4092" data-name="Caminho 4092" d="M2.75,13.148c2.529.849,5.5.129,8.018-.382,2.916-.595,5.675-1.36,7.33-4.056a28.42,28.42,0,0,0,1.823-3.973,13.1,13.1,0,0,0,.691-1.847,1.242,1.242,0,0,0,.524-.663c.816-2.455.075-5.441-1.062-7.7A9.968,9.968,0,0,0,14.59-10.64c-2.481-.8-5.213-.156-7.65.43-2.314.557-5.263.992-7.007,2.784S-1.921-2.564-2.112-.188a24.844,24.844,0,0,0,.333,8.383A7.11,7.11,0,0,0,2.75,13.148" transform="translate(2.303 11.013)" fill="#2b2e34"/>
    </g>
    <g id="Grupo_2886" data-name="Grupo 2886" transform="translate(54.092 -139.091)">
      <path id="Caminho_4093" data-name="Caminho 4093" d="M3.218.949A3.538,3.538,0,0,0,1.836-.435,3.731,3.731,0,0,0,.068-.793a2.741,2.741,0,0,0-1.926.7A3.231,3.231,0,0,0-2.646,1.66,2.407,2.407,0,0,0-1.08,4.6,1.629,1.629,0,0,0,.684,3.965,2.152,2.152,0,0,0,.772,2a.641.641,0,0,0-.853-.294.653.653,0,0,0-.287.858.846.846,0,0,1-.011.689.288.288,0,0,1-.191.114A.672.672,0,0,1-.906,3.32c-.66-.27-.575-1.222-.412-1.792A1.328,1.328,0,0,1-.748.659,2.172,2.172,0,0,1,.421.495,2.062,2.062,0,0,1,1.5.841a2.942,2.942,0,0,1,.742.937A4.982,4.982,0,0,1,3.2,4.4a.637.637,0,0,0,1.27.094A6.324,6.324,0,0,0,3.218.949" transform="translate(2.696 0.795)" fill="#2b2e34"/>
    </g>
    <g id="Grupo_2887" data-name="Grupo 2887" transform="translate(61.204 -142.735)">
      <path id="Caminho_4094" data-name="Caminho 4094" d="M3.529.8A3.874,3.874,0,0,0-.222-.58C-1.771-.194-2.453,1.177-2.738,2.64a12.432,12.432,0,0,0,.09,5.066c.18.805,1.43.57,1.248-.235a11.39,11.39,0,0,1-.265-3.19,5.924,5.924,0,0,1,.715-2.9A1.925,1.925,0,0,1,1.432.8c.537.217,1.735,1.014,1.4,1.746A1.574,1.574,0,0,1,1.682,3.3c-.3.037-.81-.105-.82-.487A.666.666,0,0,0,.269,2.12a.638.638,0,0,0-.678.592A1.865,1.865,0,0,0,.62,4.36,2.337,2.337,0,0,0,2.72,4.3,2.5,2.5,0,0,0,4.1,2.783,2.27,2.27,0,0,0,3.529.8" transform="translate(2.956 0.67)" fill="#2b2e34"/>
    </g>
    <g id="Grupo_2888" data-name="Grupo 2888" transform="translate(52.239 -133.909)">
      <path id="Caminho_4095" data-name="Caminho 4095" d="M12.221,1.291C10.087-.31,7.042-.565,4.49-.87c-2.953-.355-5.816-.5-8.233,1.54a28.775,28.775,0,0,0-2.981,3.2A13.114,13.114,0,0,0-7.962,5.4a1.232,1.232,0,0,0-.706.465c-1.549,2.073-1.786,5.14-1.415,7.639A9.973,9.973,0,0,0-6.507,20.14c2.1,1.538,4.9,1.79,7.4,2,2.374.2,5.309.715,7.527-.437s3.291-4.03,4.221-6.224a24.853,24.853,0,0,0,2.323-8.062,7.112,7.112,0,0,0-2.738-6.127" transform="translate(10.237 1.081)" fill="#ffc734"/>
    </g>
    <g id="Grupo_2889" data-name="Grupo 2889" transform="translate(61.542 -130.405)">
      <path id="Caminho_4096" data-name="Caminho 4096" d="M6.259,1.931a4.461,4.461,0,0,0-1.5-2.225,6.314,6.314,0,0,0-2.04-.989A5.516,5.516,0,0,0-1.847-.95c-.055.033-.1.083-.151.118A1.756,1.756,0,0,0-2.466-.6a5.822,5.822,0,0,0-1.6,1.709,4.337,4.337,0,0,0-.638.974,4.751,4.751,0,0,0-.529,2.369A4.876,4.876,0,0,0-4.5,6.786c.072.107.165.2.244.3a4.779,4.779,0,0,0,.358.72A4.629,4.629,0,0,0,.171,10.039a5.505,5.505,0,0,0,1.551-.322,4.706,4.706,0,0,0,1.518-.287A4.783,4.783,0,0,0,5.248,8.109,5.014,5.014,0,0,0,6.389,5.847a8.393,8.393,0,0,0,.156-2,7.518,7.518,0,0,0-.285-1.915" transform="translate(5.243 1.617)" fill="#fff"/>
    </g>
    <g id="Grupo_2890" data-name="Grupo 2890" transform="translate(65.204 -125.965)">
      <path id="Caminho_4097" data-name="Caminho 4097" d="M0,.028A.084.084,0,0,1,.022.022a.008.008,0,0,1,.007,0C.156-.031.2-.048,0,.028" transform="translate(0 0.024)" fill="#2b2e34"/>
    </g>
    <g id="Grupo_2891" data-name="Grupo 2891" transform="translate(63.193 -126.023)">
      <path id="Caminho_4098" data-name="Caminho 4098" d="M2.971,1.137c0-.009,0-.018-.007-.024A.107.107,0,0,1,2.958,1.1C2.936,1.041,2.721.529,2.7.475c0,0,0-.007,0-.009A.349.349,0,0,0,2.666.417C2.53.235,2.4.042,2.247-.127l-.02-.02c-.086-.072-.237-.184-.27-.211S1.78-.5,1.688-.568L1.664-.581a.008.008,0,0,0-.007,0L1.041-.846a0,0,0,0,1,0,0l-.015,0-.013,0H1C.962-.866.352-.947.313-.951a.124.124,0,0,0-.029,0,4.123,4.123,0,0,0-.715.1L.255-.947a4.757,4.757,0,0,0-.706.1c-.18.075-.535.217-.652.274l-.009.007a2.529,2.529,0,0,0-.283.217,2.569,2.569,0,0,0-.279.219.125.125,0,0,0-.015.018c.151-.186-.3.362-.417.546a.239.239,0,0,0-.013.024c-.1.211-.191.423-.268.641l-.007.026a6.023,6.023,0,0,0-.1.715v.024a4.523,4.523,0,0,0,.094.715.079.079,0,0,0,0,.024s0,.009,0,.013l.132.314c.042.107.086.211.132.316a.148.148,0,0,0,.015.024A1.958,1.958,0,0,0-1.443,4a1.949,1.949,0,0,0,.878.467,1.815,1.815,0,0,0,.3.055c.031.009.064.009.094.018.046,0,.094.018.14.018a2.407,2.407,0,0,0,.454.061l.687-.092a2.592,2.592,0,0,0,1.141-.671.132.132,0,0,0,.018-.018,4.2,4.2,0,0,0,.419-.546c0-.007.007-.015.011-.022l.261-.623v0a.008.008,0,0,0,0-.007.031.031,0,0,0,0-.013.028.028,0,0,0,0-.013.008.008,0,0,0,0-.007c0-.022.09-.671.092-.7a.107.107,0,0,0,0-.026,3.407,3.407,0,0,0-.1-.744" transform="translate(2.489 0.952)" fill="#2b2e34"/>
    </g>
    <g id="Grupo_2892" data-name="Grupo 2892" transform="translate(52.569 -128.25)">
      <path id="Caminho_4099" data-name="Caminho 4099" d="M4.314,1.331A3.1,3.1,0,0,0,3.281-.2,4.382,4.382,0,0,0,1.875-.885a3.805,3.805,0,0,0-3.148.23c-.037.024-.068.057-.1.081a1.265,1.265,0,0,0-.322.16A4.062,4.062,0,0,0-2.8.765a3.049,3.049,0,0,0-.439.671,3.25,3.25,0,0,0-.364,1.632,3.342,3.342,0,0,0,.5,1.608c.05.075.112.138.167.208a3.16,3.16,0,0,0,.246.5A3.188,3.188,0,0,0,.117,6.919,3.8,3.8,0,0,0,1.188,6.7a3.3,3.3,0,0,0,1.046-.2,3.315,3.315,0,0,0,1.384-.91A3.461,3.461,0,0,0,4.4,4.029a5.593,5.593,0,0,0,.107-1.378,5.061,5.061,0,0,0-.2-1.321" transform="translate(3.614 1.115)" fill="#fff"/>
    </g>
    <g id="Grupo_2893" data-name="Grupo 2893" transform="translate(56.527 -125.189)">
      <path id="Caminho_4100" data-name="Caminho 4100" d="M0,.02a.041.041,0,0,1,.015,0s0,0,0,0C.107-.022.136-.033,0,.02" transform="translate(0 0.017)" fill="#2b2e34"/>
    </g>
    <g id="Grupo_2894" data-name="Grupo 2894" transform="translate(55.139 -125.229)">
      <path id="Caminho_4101" data-name="Caminho 4101" d="M2.049.784c0-.007,0-.011,0-.018s0-.007,0-.009C2.024.718,1.877.365,1.86.327c0,0,0,0,0-.007L1.838.288a4.719,4.719,0,0,0-.287-.375A.1.1,0,0,0,1.535-.1c-.057-.05-.162-.127-.184-.145s-.123-.1-.186-.145A.122.122,0,0,0,1.147-.4a.007.007,0,0,1,0,0L.719-.583s0,0,0,0l-.011,0A.013.013,0,0,0,.7-.59s0,0,0,0C.664-.6.243-.653.217-.655a.06.06,0,0,0-.02,0A2.5,2.5,0,0,0-.3-.587L.177-.653A3.294,3.294,0,0,0-.31-.585c-.125.05-.369.149-.45.189l-.007,0a1.721,1.721,0,0,0-.193.151,1.933,1.933,0,0,0-.193.151l-.011.013c.1-.129-.208.248-.287.375a.13.13,0,0,0-.009.018c-.066.145-.132.29-.184.441a.052.052,0,0,0,0,.018,3.755,3.755,0,0,0-.066.494.037.037,0,0,0,0,.015,3.3,3.3,0,0,0,.066.494.052.052,0,0,0,0,.018s0,0,0,.009c.031.072.061.145.09.217s.059.145.092.215a.13.13,0,0,0,.009.018,1.356,1.356,0,0,0,.459.5,1.375,1.375,0,0,0,.605.322,1.437,1.437,0,0,0,.208.037c.022,0,.046.007.066.011a.761.761,0,0,0,.1.013A1.637,1.637,0,0,0,.3,3.182L.77,3.118a1.758,1.758,0,0,0,.785-.463.058.058,0,0,0,.013-.011,2.808,2.808,0,0,0,.287-.377.055.055,0,0,0,.009-.015l.18-.428v0a.008.008,0,0,1,0,0s0-.007,0-.011a.008.008,0,0,0,0-.007V1.793c0-.013.064-.461.064-.478a.061.061,0,0,0,0-.02A2.368,2.368,0,0,0,2.049.784" transform="translate(1.716 0.656)" fill="#2b2e34"/>
    </g>
    <g id="Grupo_2895" data-name="Grupo 2895" transform="translate(61.53 -117.408)">
      <path id="Caminho_4102" data-name="Caminho 4102" d="M0,0A.013.013,0,0,0,0,0H0S0,0,0,0" transform="translate(0.004)" fill="#2b2e34"/>
    </g>
    <g id="Grupo_2896" data-name="Grupo 2896" transform="translate(61.202 -117.411)">
      <path id="Caminho_4103" data-name="Caminho 4103" d="M0,0H0C.064.013.123,0,0,0" transform="translate(0 0)" fill="#2b2e34"/>
    </g>
    <g id="Grupo_2897" data-name="Grupo 2897" transform="translate(59.241 -118.507)">
      <path id="Caminho_4104" data-name="Caminho 4104" d="M2.492.279a.735.735,0,0,0-.34-.426A.764.764,0,0,0,1.14.11a2.058,2.058,0,0,1-.2.336C.923.469.9.494.877.518.831.564.78.6.732.647.712.66.693.676.673.687a1.634,1.634,0,0,1-.182.1C.44.809.432.812.445.805l-.011,0C.361.831.287.849.212.866a.136.136,0,0,1,.057,0,.131.131,0,0,0-.064,0C.162.877.175.873.2.866a.242.242,0,0,1-.053,0,1.687,1.687,0,0,1-.211,0C-.091.869-.124.862-.154.862h.029C-.194.849-.262.834-.328.814-.358.805-.387.794-.415.783-.479.752-.54.722-.6.684L-.67.641C-.725.592-.779.544-.832.491a.766.766,0,0,0-1.044,0,.7.7,0,0,0,0,1,2.749,2.749,0,0,0,2.435.748A2.586,2.586,0,0,0,2.417.827.761.761,0,0,0,2.492.279" transform="translate(2.087 0.233)" fill="#2b2e34"/>
    </g>
  </g>
</svg>
