<svg xmlns="http://www.w3.org/2000/svg" xmlns:xlink="http://www.w3.org/1999/xlink" width="38.713" height="40" viewBox="0 0 38.713 40">
  <defs>
    <clipPath id="clip-path">
      <path id="Caminho_4195" data-name="Caminho 4195" d="M348.52-103.642h38.713v-40H348.52Z" transform="translate(0)" fill="none"/>
    </clipPath>
    <clipPath id="clip-path-2">
      <rect id="Retângulo_343" data-name="Retângulo 343" width="23.79" height="30.546" fill="none"/>
    </clipPath>
    <clipPath id="clip-path-3">
      <path id="Caminho_4185" data-name="Caminho 4185" d="M349.888-110.2h23.79v-30.546h-23.79Z" transform="translate(-349.888 140.748)" fill="none"/>
    </clipPath>
    <clipPath id="clip-path-4">
      <rect id="Retângulo_344" data-name="Retângulo 344" width="5.787" height="3.153" fill="none"/>
    </clipPath>
    <clipPath id="clip-path-5">
      <path id="Caminho_4187" data-name="Caminho 4187" d="M360.4-138.407h5.787v-3.155H360.4Z" transform="translate(-360.402 141.562)" fill="none"/>
    </clipPath>
    <clipPath id="clip-path-6">
      <rect id="Retângulo_345" data-name="Retângulo 345" width="7.362" height="9.464" fill="none"/>
    </clipPath>
    <clipPath id="clip-path-7">
      <path id="Caminho_4189" data-name="Caminho 4189" d="M362.774-128.224h7.362v-9.464h-7.362Z" transform="translate(-362.774 137.688)" fill="none"/>
    </clipPath>
    <clipPath id="clip-path-8">
      <rect id="Retângulo_346" data-name="Retângulo 346" width="6.974" height="15.215" fill="none"/>
    </clipPath>
    <clipPath id="clip-path-9">
      <path id="Caminho_4192" data-name="Caminho 4192" d="M357.254-119.212h6.972v-15.215h-6.972Z" transform="translate(-357.254 134.427)" fill="none"/>
    </clipPath>
    <clipPath id="clip-path-10">
      <rect id="Retângulo_347" data-name="Retângulo 347" width="8.6" height="24.914" fill="none"/>
    </clipPath>
    <clipPath id="clip-path-11">
      <path id="Caminho_4194" data-name="Caminho 4194" d="M350.871-114.576h8.6V-139.49h-8.6Z" transform="translate(-350.871 139.49)" fill="none"/>
    </clipPath>
  </defs>
  <g id="alfabeto_ing_j_fim" transform="translate(-348.52 143.642)" clip-path="url(#clip-path)">
    <g id="Grupo_2975" data-name="Grupo 2975" transform="translate(348.885 -143.542)">
      <path id="Caminho_4182" data-name="Caminho 4182" d="M16.516,8.967a18.482,18.482,0,0,1-2.761,3.225,55.1,55.1,0,0,0-3.712-6.161.833.833,0,0,0-.013-.1A12.521,12.521,0,0,1,9.476.879,17.271,17.271,0,0,1,12.861-.666a7.242,7.242,0,0,1,3.375-.506C17.9-.88,18.87.943,18.927,2.526c.085,2.357-1.137,4.544-2.412,6.441m6.5-7.8a7.835,7.835,0,0,0-5.488-6.384,11.7,11.7,0,0,0-7.144.925l.184-.769a.992.992,0,0,0-.4-1.095.992.992,0,0,0-.544-.411,32.5,32.5,0,0,0-10.6-1.44,33.118,33.118,0,0,0-5.189.589q-1.308.254-2.589.62a5.094,5.094,0,0,1-2.657.434.985.985,0,0,0-.745.083.986.986,0,0,0-.716.978,2.162,2.162,0,0,0,.318,1,2.829,2.829,0,0,0,.57.629c.216.174.443.339.669.5q.292.486.584.968c.479.788.985,1.567,1.393,2.393A6.547,6.547,0,0,1-9.18,5.5c-1.209,3.383-3.887,6-4.98,9.462a12.5,12.5,0,0,0,.7,9.517c1.535,2.949,4.383,4.4,6.972,6.252a.89.89,0,0,0,.661.584,36.829,36.829,0,0,0,11.38-.087c.025,0,.044-.025.07-.032a1.073,1.073,0,0,0,.709-.233c3.714-2.956,7.163-7.12,8.179-11.865a11.8,11.8,0,0,0,.239-2.287,23.011,23.011,0,0,0,5.759-6.219c1.783-2.8,3.057-6.066,2.507-9.43" transform="translate(14.782 8.026)" fill="#ade3d7"/>
    </g>
    <g id="Grupo_2976" data-name="Grupo 2976" transform="translate(350.927 -143.543)">
      <path id="Caminho_4183" data-name="Caminho 4183" d="M11.924.78C8.681-.759,5.007-.787,1.465-.641A60.616,60.616,0,0,0-9.937.941c-1.289.3-.743,2.217.548,1.912.1-.025.207-.042.311-.066a.709.709,0,0,0,.1.044,37.345,37.345,0,0,0,10.4.921c3.371-.1,7.059-.025,10.258-1.162.76-.269,1.112-1.4.248-1.81" transform="translate(10.673 0.698)" fill="#5accc2"/>
    </g>
    <g id="Grupo_2981" data-name="Grupo 2981" transform="translate(351.416 -137.515)" opacity="0.74">
      <g id="Grupo_2980" data-name="Grupo 2980">
        <g id="Grupo_2979" data-name="Grupo 2979" clip-path="url(#clip-path-2)">
          <g id="Grupo_2978" data-name="Grupo 2978" clip-path="url(#clip-path-3)">
            <g id="Grupo_2977" data-name="Grupo 2977" transform="translate(0 0.001)">
              <path id="Caminho_4184" data-name="Caminho 4184" d="M11.181,5.432a12.132,12.132,0,0,1-.94-8.757.937.937,0,0,0-.807-1.194.894.894,0,0,0-.792-.106,22.253,22.253,0,0,1-13.5-.18C-5.989-5.18-6.5-3.588-5.614-3.029c.015.019.017.038.034.057A5.673,5.673,0,0,1-4.422-.907a.99.99,0,0,0,.008.273c.04.157.106.3.155.455a5.289,5.289,0,0,1-.006,2.047C-4.64,3.579-5.874,4.975-6.789,6.425A13.149,13.149,0,0,0-8.078,9.152a12.158,12.158,0,0,0-1.787,8.177,8.335,8.335,0,0,0,3.225,5.261,12.163,12.163,0,0,0,5.5,2.534c2.712.838,5.895.572,8.567.243.042-.006.07-.028.11-.036a.915.915,0,0,0,.472-.155,11.407,11.407,0,0,0,4.171-5.367,16.8,16.8,0,0,0,1.573-7.438c-.21-2.522-1.495-4.7-2.57-6.941" transform="translate(10.007 4.862)" fill="#5accc2"/>
            </g>
          </g>
        </g>
      </g>
    </g>
    <g id="Grupo_2986" data-name="Grupo 2986" transform="translate(373.678 -139.236)" opacity="0.74">
      <g id="Grupo_2985" data-name="Grupo 2985">
        <g id="Grupo_2984" data-name="Grupo 2984" clip-path="url(#clip-path-4)">
          <g id="Grupo_2983" data-name="Grupo 2983" transform="translate(0 -0.002)" clip-path="url(#clip-path-5)">
            <g id="Grupo_2982" data-name="Grupo 2982" transform="translate(-0.001 0.001)">
              <path id="Caminho_4186" data-name="Caminho 4186" d="M2.649.053A5.574,5.574,0,0,0-2.062,1.311a1.061,1.061,0,0,0,0,1.5,1.085,1.085,0,0,0,1.5,0c.025-.021.053-.042.078-.066.074-.053.148-.1.227-.152A5.347,5.347,0,0,1,.261,2.31l.1-.036c.093-.032.186-.061.282-.089.14-.038.282-.064.423-.089a4.569,4.569,0,0,1,1.021,0h0A1.137,1.137,0,0,0,2.9,1.988a1.08,1.08,0,0,0,.487-.633,1.072,1.072,0,0,0-.739-1.3" transform="translate(2.371 0.047)" fill="#5accc2"/>
            </g>
          </g>
        </g>
      </g>
    </g>
    <g id="Grupo_2991" data-name="Grupo 2991" transform="translate(378.7 -131.036)" opacity="0.74">
      <g id="Grupo_2990" data-name="Grupo 2990">
        <g id="Grupo_2989" data-name="Grupo 2989" clip-path="url(#clip-path-6)">
          <g id="Grupo_2988" data-name="Grupo 2988" clip-path="url(#clip-path-7)">
            <g id="Grupo_2987" data-name="Grupo 2987" transform="translate(-0.001 0.001)">
              <path id="Caminho_4188" data-name="Caminho 4188" d="M3.62.072A1.068,1.068,0,0,0,2.171.451,22.186,22.186,0,0,1-2.935,7.6a1.073,1.073,0,0,0,0,1.5,1.08,1.08,0,0,0,1.5,0A23.959,23.959,0,0,0,4,1.52,1.089,1.089,0,0,0,3.62.072" transform="translate(3.24 0.064)" fill="#5accc2"/>
            </g>
          </g>
        </g>
      </g>
    </g>
    <g id="Grupo_2992" data-name="Grupo 2992" transform="translate(358.254 -106.24)">
      <path id="Caminho_4190" data-name="Caminho 4190" d="M5.768.493a5.148,5.148,0,0,0-2.335-.72A20.476,20.476,0,0,0,.644-.441,19.357,19.357,0,0,0-4.7.247c-.445.125-.589.44-.339.661a1.073,1.073,0,0,0,.616.22,1.437,1.437,0,0,0,.55.1H4.947a1.177,1.177,0,0,0,.735-.2C5.916.891,6.005.7,5.768.493" transform="translate(5.163 0.441)" fill="#5accc2"/>
    </g>
    <g id="Grupo_2997" data-name="Grupo 2997" transform="translate(367.012 -124.131)" opacity="0.44">
      <g id="Grupo_2996" data-name="Grupo 2996">
        <g id="Grupo_2995" data-name="Grupo 2995" clip-path="url(#clip-path-8)">
          <g id="Grupo_2994" data-name="Grupo 2994" clip-path="url(#clip-path-9)">
            <g id="Grupo_2993" data-name="Grupo 2993" transform="translate(0.001 -0.001)">
              <path id="Caminho_4191" data-name="Caminho 4191" d="M3.071.162a1.065,1.065,0,0,0-1.5,0,1,1,0,0,0-.241.39.831.831,0,0,0-.159.534A13.667,13.667,0,0,1,.2,7.768c-.87,2.047-2.426,3.754-2.924,5.962A1.071,1.071,0,0,0-1.7,15.07c1.533-.017,2.539-1.207,3.271-2.424A17,17,0,0,0,3.238,8.589C4.028,5.856,5.07,2.616,3.071.162" transform="translate(2.749 0.145)" fill="#ade3d7"/>
            </g>
          </g>
        </g>
      </g>
    </g>
    <g id="Grupo_3002" data-name="Grupo 3002" transform="translate(353.498 -134.851)" opacity="0.44">
      <g id="Grupo_3001" data-name="Grupo 3001">
        <g id="Grupo_3000" data-name="Grupo 3000" clip-path="url(#clip-path-10)">
          <g id="Grupo_2999" data-name="Grupo 2999" clip-path="url(#clip-path-11)">
            <g id="Grupo_2998" data-name="Grupo 2998" transform="translate(-0.001 -0.001)">
              <path id="Caminho_4193" data-name="Caminho 4193" d="M4.538,1.529A2.874,2.874,0,0,0,4.216.136,2.784,2.784,0,0,0,3.272-.9,2.547,2.547,0,0,0,2.3-1.277C1.489-1.653.352-.807.958.117A1.253,1.253,0,0,1,1.034.3a.96.96,0,0,0,.025.106c.011.023.03.038.04.059A3.479,3.479,0,0,1,.936,2.547,23.106,23.106,0,0,1-.2,5.711C-.98,7.447-1.971,9.077-2.72,10.824a17.737,17.737,0,0,0-1.3,5.312,6.447,6.447,0,0,0,1.5,5.014c.855,1.065,2.151,2.74,3.743,2.333,1.806-.459,1-2.249.169-3.18A6.966,6.966,0,0,1-.148,18.363,7.22,7.22,0,0,1-.355,15.2,8.993,8.993,0,0,1,.894,12.482c.381-.779.635-1.611,1-2.4.459-.989,1.046-1.9,1.44-2.926a16.3,16.3,0,0,0,.8-3.261c.07-.443.174-.915.22-1.385.021-.074.036-.152.057-.229a3.263,3.263,0,0,0,.127-.756" transform="translate(4.062 1.368)" fill="#ade3d7"/>
            </g>
          </g>
        </g>
      </g>
    </g>
  </g>
</svg>
