<svg xmlns="http://www.w3.org/2000/svg" xmlns:xlink="http://www.w3.org/1999/xlink" width="37.663" height="40" viewBox="0 0 37.663 40">
  <defs>
    <clipPath id="clip-path">
      <path id="Caminho_4119" data-name="Caminho 4119" d="M90.515-104.278h37.663v-40H90.515Z" transform="translate(0)" fill="none"/>
    </clipPath>
  </defs>
  <g id="alfabeto_ing_c_fim" transform="translate(-90.515 144.278)" clip-path="url(#clip-path)">
    <g id="Grupo_2899" data-name="Grupo 2899" transform="translate(90.661 -144.276)">
      <path id="Caminho_4106" data-name="Caminho 4106" d="M19.144,14.445c-.023-.133-.051-.268-.086-.4a2.16,2.16,0,0,0-.164-1.235c-.051-.125-.1-.252-.152-.377-.1-.342-.2-.68-.315-1.018-.012-.037-.023-.072-.035-.109a1.364,1.364,0,0,0-.063-.658L14.427-.127l.006-.023c-.217-.758-.447-1.512-.717-2.253C12.9-4.621,12.05-6.87,11.11-9.039c-.143-.3-.277-.606-.42-.907-.535-1.114-1.17-2.2-1.694-3.32-.082-.16-.184-.315-.252-.479a1.631,1.631,0,0,0-.174-.033c-.176.1-.356.209-.535.311-1.084,2.5-2.265,4.955-3.353,7.454-.174.623-.346,1.247-.522,1.87-.031.006-.057.014-.092.02-.061.012-.58.1-.676.125-.33.045-.662.076-.993.1-.856.074-1.714.111-2.573.129-1.8.037-3.6.018-5.4.008-1.041-.006-1.6-.029-2.64-.041l-.363-.006a3.794,3.794,0,0,0-.293-.334L-10.674-6c-1.221-1.252-1.977-2.724-3.2-3.976a7.139,7.139,0,0,1-.684-.59,5.89,5.89,0,0,0-.488-.578c-.244-.34-1.528-.8-1.948-.469-.381.305-.4,1.4-.352,1.592.018.078.033.156.049.234a.748.748,0,0,0,0,.1c1.073,6.6.805,13.32,1.122,19.922a.773.773,0,0,0,.039.158c-.053.365-.121.725-.17,1.09-.518,1.577-1.09,3.144-1.549,4.73a4.769,4.769,0,0,0-.338,2.462,3.148,3.148,0,0,0,1.063,1.442,1.347,1.347,0,0,0,.391.473c.4.293.836.526,1.252.791.057.033.111.072.166.1a22.212,22.212,0,0,0,4.949,2.284c.3.133.594.279.9.406a8.608,8.608,0,0,0,1.917.639c.147.063.295.131.444.19a.876.876,0,0,0,.158.027,18.378,18.378,0,0,0,6.27.873,6.086,6.086,0,0,0,3.329.006,12.423,12.423,0,0,0,2.681-.15A16.034,16.034,0,0,0,10,23.845a20.511,20.511,0,0,0,2.788-1.762,9.022,9.022,0,0,0,2.634-2.011A17.47,17.47,0,0,0,16.8,18.519c.129-.121.256-.242.379-.367.2-.186.387-.379.592-.555a1.513,1.513,0,0,0,.315-.453c.039-.047.076-.1.115-.143a2.551,2.551,0,0,0,.875-1.221c.025-.08.035-.16.053-.24a1.7,1.7,0,0,0,.016-1.1" transform="translate(18.261 13.779)" fill="#ff9a39"/>
    </g>
    <g id="Grupo_2900" data-name="Grupo 2900" transform="translate(98.538 -130.27)">
      <path id="Caminho_4107" data-name="Caminho 4107" d="M.185,2.2A5.425,5.425,0,0,1,2.018-.5a7.722,7.722,0,0,1,2.495-1.2,6.812,6.812,0,0,1,5.58.4c.068.041.121.1.184.145a2.119,2.119,0,0,1,.571.281A7.086,7.086,0,0,1,12.8,1.2a5.287,5.287,0,0,1,.78,1.18,5.67,5.67,0,0,1,.645,2.87,5.826,5.826,0,0,1-.893,2.823c-.088.131-.2.242-.3.367a5.6,5.6,0,0,1-.436.873,5.669,5.669,0,0,1-4.975,2.7,6.913,6.913,0,0,1-1.9-.387,5.877,5.877,0,0,1-1.854-.348,5.867,5.867,0,0,1-2.454-1.6A6.083,6.083,0,0,1,.027,6.94a9.932,9.932,0,0,1-.19-2.423A9.049,9.049,0,0,1,.185,2.2" transform="translate(0.176 2.097)" fill="#fff"/>
    </g>
    <g id="Grupo_2901" data-name="Grupo 2901" transform="translate(105.306 -127.723)">
      <path id="Caminho_4108" data-name="Caminho 4108" d="M.085.033C.077.029.067.027.057.023h0c-.158-.063-.211-.084.033.01" transform="translate(0.082 0.031)" fill="#2b2e34"/>
    </g>
    <g id="Grupo_2902" data-name="Grupo 2902" transform="translate(104.007 -124.42)">
      <path id="Caminho_4109" data-name="Caminho 4109" d="M.062,1.295c0-.01.006-.02.008-.031a.141.141,0,0,0,.006-.016C.1,1.178.367.559.4.492a.016.016,0,0,0,0-.01A.534.534,0,0,1,.435.424C.6.2.758-.029.945-.235A.315.315,0,0,1,.971-.26c.1-.088.289-.223.33-.254.057-.045.215-.176.33-.254A.131.131,0,0,1,1.66-.784a.011.011,0,0,1,.008,0c.25-.107.5-.213.754-.317,0,0,0,0,0,0l.016-.006a.048.048,0,0,1,.016,0l.008,0c.051-.008.795-.109.846-.113a.176.176,0,0,1,.033,0,5.019,5.019,0,0,1,.875.119c-.279-.037-.559-.074-.838-.113a6.143,6.143,0,0,1,.862.117c.221.09.655.264.795.332a.033.033,0,0,1,.014.008A2.95,2.95,0,0,1,5.4-.51a3.276,3.276,0,0,1,.342.266.224.224,0,0,1,.02.023c-.184-.227.369.436.508.662.006.008.01.018.016.027.117.256.234.512.326.778a.18.18,0,0,1,.01.031,7.274,7.274,0,0,1,.117.866.134.134,0,0,1,0,.029,5.452,5.452,0,0,1-.115.864q0,.018-.006.031a.1.1,0,0,1-.006.014l-.16.381c-.051.129-.1.256-.162.383a.2.2,0,0,1-.016.029,2.366,2.366,0,0,1-.813.885,2.376,2.376,0,0,1-1.073.565,2.614,2.614,0,0,1-.371.068c-.039.01-.078.01-.117.02-.057.006-.115.02-.172.023a3.32,3.32,0,0,1-.555.074c-.281-.039-.559-.076-.84-.113A3.18,3.18,0,0,1,.936,4.582a.2.2,0,0,1-.023-.02A5.331,5.331,0,0,1,.4,3.9L.39,3.874.07,3.12s0,0,0,0,0-.006,0-.008a.039.039,0,0,1,0-.016.03.03,0,0,1,0-.014.015.015,0,0,0,0-.008c0-.027-.109-.811-.113-.84,0-.012,0-.023,0-.035a4.167,4.167,0,0,1,.121-.9" transform="translate(0.059 1.235)" fill="#2b2e34"/>
    </g>
    <g id="Grupo_2903" data-name="Grupo 2903" transform="translate(113.985 -127.66)">
      <path id="Caminho_4110" data-name="Caminho 4110" d="M.127,1.515A3.743,3.743,0,0,1,1.391-.343a5.356,5.356,0,0,1,1.719-.825A4.7,4.7,0,0,1,6.956-.89c.045.029.082.07.127.1a1.438,1.438,0,0,1,.393.195A4.9,4.9,0,0,1,8.824.829a3.7,3.7,0,0,1,.537.813,3.914,3.914,0,0,1,.444,1.979,4.019,4.019,0,0,1-.615,1.944c-.061.09-.139.168-.2.254a3.822,3.822,0,0,1-.3.6A3.911,3.911,0,0,1,5.256,8.281a4.771,4.771,0,0,1-1.309-.268,4.016,4.016,0,0,1-1.278-.24,4.051,4.051,0,0,1-1.69-1.1A4.193,4.193,0,0,1,.018,4.782,6.818,6.818,0,0,1-.113,3.113a6.18,6.18,0,0,1,.24-1.6" transform="translate(0.121 1.445)" fill="#fff"/>
    </g>
    <g id="Grupo_2904" data-name="Grupo 2904" transform="translate(119.504 -123.854)">
      <path id="Caminho_4111" data-name="Caminho 4111" d="M.059.023.04.017h0C-.072-.028-.109-.043.059.023" transform="translate(0.056 0.022)" fill="#2b2e34"/>
    </g>
    <g id="Grupo_2905" data-name="Grupo 2905" transform="translate(117.146 -124.318)">
      <path id="Caminho_4112" data-name="Caminho 4112" d="M.042.892.049.872s0-.008,0-.012C.071.812.253.386.272.339c0,0,0,0,0-.006A.167.167,0,0,1,.3.292a5.366,5.366,0,0,1,.35-.455A.133.133,0,0,0,.669-.179C.741-.239.868-.333.9-.355s.15-.121.227-.174l.02-.012a.007.007,0,0,1,0,0l.52-.219a0,0,0,0,0,0,0,.029.029,0,0,0,.012,0l.01,0a.008.008,0,0,0,.006,0c.035-.006.549-.074.584-.078h.023a3.278,3.278,0,0,1,.6.082L2.33-.847a4.139,4.139,0,0,1,.594.08c.154.061.453.182.549.229,0,0,.006,0,.008,0a2.161,2.161,0,0,1,.238.182,2.567,2.567,0,0,1,.236.182l.012.016c-.127-.156.256.3.352.455,0,.006.006.014.01.02.08.176.162.352.225.535L4.561.88a4.481,4.481,0,0,1,.08.6.07.07,0,0,1,0,.02,4.053,4.053,0,0,1-.08.6c0,.008,0,.014,0,.02s0,.008,0,.01c-.037.088-.074.176-.111.262s-.072.176-.111.264l-.012.02a1.643,1.643,0,0,1-.561.61,1.633,1.633,0,0,1-.739.389,1.559,1.559,0,0,1-.256.045c-.025.008-.053.008-.08.014s-.078.014-.119.016a2.129,2.129,0,0,1-.383.049l-.578-.076A2.184,2.184,0,0,1,.647,3.16.124.124,0,0,1,.63,3.143a3.308,3.308,0,0,1-.352-.457.045.045,0,0,1-.01-.016L.049,2.15a0,0,0,0,0,0,0,.008.008,0,0,0,0-.006s0-.006,0-.01a.022.022,0,0,1,0-.01s0,0,0-.006c0-.018-.076-.559-.078-.58a.083.083,0,0,1,0-.023A2.759,2.759,0,0,1,.042.892" transform="translate(0.04 0.851)" fill="#2b2e34"/>
    </g>
    <g id="Grupo_2906" data-name="Grupo 2906" transform="translate(112.578 -118.037)">
      <path id="Caminho_4113" data-name="Caminho 4113" d="M2.5.3A1,1,0,0,0,1.875-.18,7.066,7.066,0,0,0,.111-.26,7.09,7.09,0,0,0-1.616.106,1.109,1.109,0,0,0-2.24.586a1.075,1.075,0,0,0-.107.8,1.192,1.192,0,0,0,.516.635c.029.037.041.086.078.117q.393.329.791.658a3.16,3.16,0,0,0,.533.4,1.557,1.557,0,0,0,.942.172,1.318,1.318,0,0,0,.58-.207,1.953,1.953,0,0,0,.535-.535c.078-.1.147-.213.217-.322.068-.07.137-.139.2-.207a1.016,1.016,0,0,0,.266-.541A.966.966,0,0,0,2.6,1.1,1.052,1.052,0,0,0,2.5.3" transform="translate(2.384 0.285)" fill="#2b2e34"/>
    </g>
    <g id="Grupo_2907" data-name="Grupo 2907" transform="translate(110.691 -115.979)">
      <path id="Caminho_4114" data-name="Caminho 4114" d="M4.4.175A.558.558,0,0,0,3.366.588a1.672,1.672,0,0,1-.871,2.2A1.362,1.362,0,0,1,1.3,2.719c-.44-.274-.44-.866-.467-1.325C.8.744-.151.767-.27,1.367c-.168.852-.416,1.9-1.458,1.983A1.291,1.291,0,0,1-3.062,1.8a.558.558,0,0,0-1.1-.176A2.415,2.415,0,0,0-1.841,4.464a2.431,2.431,0,0,0,1.88-.858,2.656,2.656,0,0,0,.231-.35,1.7,1.7,0,0,0,.363.354A2.467,2.467,0,0,0,2.8,3.858,2.794,2.794,0,0,0,4.4.175" transform="translate(4.199 0.167)" fill="#2b2e34"/>
    </g>
    <g id="Grupo_2908" data-name="Grupo 2908" transform="translate(102.492 -115.129)">
      <path id="Caminho_4115" data-name="Caminho 4115" d="M3.307,0a23.937,23.937,0,0,0-6.09.617c-.653.154-.375.967.281.811A22.765,22.765,0,0,1,3.307.846c.682.018.682-.823,0-.842" transform="translate(3.155 0.004)" fill="#fff"/>
    </g>
    <g id="Grupo_2909" data-name="Grupo 2909" transform="translate(103.423 -113.554)">
      <path id="Caminho_4116" data-name="Caminho 4116" d="M3.4.1a.631.631,0,0,0-.725-.152Q-.063.931-2.855,1.807c-.266.084-.453.281-.371.518a.562.562,0,0,0,.651.293Q.347,1.7,3.212.678A.379.379,0,0,0,3.4.1" transform="translate(3.246 0.098)" fill="#fff"/>
    </g>
    <g id="Grupo_2910" data-name="Grupo 2910" transform="translate(120.147 -117.374)">
      <path id="Caminho_4117" data-name="Caminho 4117" d="M2.666,0a36.608,36.608,0,0,0-4.91.891.422.422,0,0,0,.225.813A34.643,34.643,0,0,1,2.666.843a.433.433,0,0,0,.422-.42A.425.425,0,0,0,2.666,0" transform="translate(2.543 0.001)" fill="#fff"/>
    </g>
    <g id="Grupo_2911" data-name="Grupo 2911" transform="translate(120.601 -115.428)">
      <path id="Caminho_4118" data-name="Caminho 4118" d="M2.208,0H-1.7a.421.421,0,0,0,0,.842H2.208a.421.421,0,0,0,0-.842" transform="translate(2.106)" fill="#fff"/>
    </g>
  </g>
</svg>
