<svg xmlns="http://www.w3.org/2000/svg" xmlns:xlink="http://www.w3.org/1999/xlink" width="43.252" height="40" viewBox="0 0 43.252 40">
  <defs>
    <clipPath id="clip-path">
      <path id="Caminho_4400" data-name="Caminho 4400" d="M237.395-18.655h43.252v-40H237.395Z" transform="translate(0 0)" fill="none"/>
    </clipPath>
  </defs>
  <g id="alfabeto_ing_t_fim" transform="translate(-237.395 58.655)" clip-path="url(#clip-path)">
    <g id="Grupo_3190" data-name="Grupo 3190" transform="translate(273.07 -37.018)">
      <path id="Caminho_4382" data-name="Caminho 4382" d="M3.812.051A9.987,9.987,0,0,1-2.347,3.112c-.016,0-.029.007-.042.009-.053.007-.1.007-.158.009-.011,0-.022,0-.033.009-.073.007-.145.02-.218.024a.343.343,0,0,0-.256.532,1.985,1.985,0,0,0,.329,1.142,2.713,2.713,0,0,0,.26.332.76.76,0,0,0,.321.516.453.453,0,0,0,.12.049,1.151,1.151,0,0,0,.376.252.681.681,0,0,0,.5,0A1.532,1.532,0,0,0-.121,5.7a9.119,9.119,0,0,0,1.178-.766,9.745,9.745,0,0,0,3.3-4.57A.33.33,0,0,0,3.812.051" transform="translate(3.109 0.042)" fill="#46ac46"/>
    </g>
    <g id="Grupo_3191" data-name="Grupo 3191" transform="translate(247.786 -54.454)">
      <path id="Caminho_4383" data-name="Caminho 4383" d="M6.07,13.736c1.462.013,2.925,0,4.387-.042A105.28,105.28,0,0,0,22.4,12.612,15.219,15.219,0,0,0,21.083-5.375C17.963-9.068,12.93-11.759,8-11.107,3.318-10.486-2.231-6.085-3.989-1.7a1.707,1.707,0,0,0-.114.545C-5.125.906-5.051,3.488-4.766,5.712a8.128,8.128,0,0,0,.385,1.616,7.515,7.515,0,0,0,.327,1.287,3.509,3.509,0,0,0,.706,1.171,19.875,19.875,0,0,0,6.907,3.363c.83.231,1.667.423,2.511.588" transform="translate(4.951 11.205)" fill="#ff7d33"/>
    </g>
    <g id="Grupo_3192" data-name="Grupo 3192" transform="translate(269.197 -38.187)">
      <path id="Caminho_4384" data-name="Caminho 4384" d="M2.226.116A1.694,1.694,0,0,0,1.749.009,2.882,2.882,0,0,0,1.206-.08,7.32,7.32,0,0,1,.035-.089.293.293,0,0,0-.236,0a1.061,1.061,0,0,0-.2.029A.647.647,0,0,0-.523.056.9.9,0,0,0-.67.127.233.233,0,0,0-.719.172.311.311,0,0,0-.813.256s0,.011-.007.016A.39.39,0,0,0-.891.35,15.527,15.527,0,0,0-1.8,2.565a.205.205,0,0,0,.022.2c0,.009-.007.018-.009.027A.189.189,0,0,0-1.75,3a.178.178,0,0,0,.011.058c.036.067.076.129.114.194a.16.16,0,0,0,.016.056l.287.454c.031.045.065.093.1.14,0,0,0,0,0,.007s0,0,0,0,.013.02.018.031a1.333,1.333,0,0,0,.225.4.293.293,0,0,0,.056.049c.022.024.042.053.069.078a.445.445,0,0,0,.022.047s0,0,0,0l.011.011A.191.191,0,0,0-.646,4.6a4.8,4.8,0,0,0,2.433-.176.31.31,0,0,0,.147-.093.323.323,0,0,0,.187-.129c.122-.189.24-.383.352-.577a.242.242,0,0,0,.051-.056c.013-.02.02-.04.033-.06l0,0c0-.011.009-.022.013-.031.029-.053.06-.107.087-.16,0,0,.007-.009.009-.013.167-.292.332-.585.5-.877A.177.177,0,0,0,3.1,2.191a9.055,9.055,0,0,0-.41-1.048,5.287,5.287,0,0,1-.211-.55C2.424.414,2.406.216,2.226.116" transform="translate(1.816 0.095)" fill="#f0732e"/>
    </g>
    <g id="Grupo_3193" data-name="Grupo 3193" transform="translate(269.197 -43.498)">
      <path id="Caminho_4385" data-name="Caminho 4385" d="M2.226.116A1.694,1.694,0,0,0,1.749.009,2.882,2.882,0,0,0,1.206-.08,7.32,7.32,0,0,1,.035-.089.293.293,0,0,0-.236,0a1.061,1.061,0,0,0-.2.029A.647.647,0,0,0-.523.056.9.9,0,0,0-.67.127.233.233,0,0,0-.719.172.311.311,0,0,0-.813.256s0,.011-.007.016A.39.39,0,0,0-.891.35,15.527,15.527,0,0,0-1.8,2.565a.205.205,0,0,0,.022.2c0,.009-.007.018-.009.027A.189.189,0,0,0-1.75,3a.178.178,0,0,0,.011.058c.036.067.076.129.114.194a.16.16,0,0,0,.016.056l.287.454c.031.045.065.093.1.14,0,0,0,0,0,.007s0,0,0,0,.013.02.018.031a1.333,1.333,0,0,0,.225.4.293.293,0,0,0,.056.049.752.752,0,0,0,.069.078.445.445,0,0,0,.022.047s0,0,0,0l.011.011A.191.191,0,0,0-.646,4.6a4.8,4.8,0,0,0,2.433-.176.31.31,0,0,0,.147-.093.323.323,0,0,0,.187-.129c.122-.189.24-.383.352-.577a.242.242,0,0,0,.051-.056c.013-.02.02-.04.033-.06l0,0c0-.011.009-.022.013-.031.029-.053.06-.107.087-.16,0,0,.007-.009.009-.013.167-.292.332-.585.5-.877A.177.177,0,0,0,3.1,2.191a9.055,9.055,0,0,0-.41-1.048,5.287,5.287,0,0,1-.211-.55C2.424.414,2.406.216,2.226.116" transform="translate(1.816 0.095)" fill="#f0732e"/>
    </g>
    <g id="Grupo_3194" data-name="Grupo 3194" transform="translate(264.566 -40.641)">
      <path id="Caminho_4386" data-name="Caminho 4386" d="M2.226.116A1.694,1.694,0,0,0,1.749.009,2.882,2.882,0,0,0,1.206-.08,7.32,7.32,0,0,1,.035-.089.293.293,0,0,0-.236,0a1.061,1.061,0,0,0-.2.029A.647.647,0,0,0-.523.056.9.9,0,0,0-.67.127.233.233,0,0,0-.719.172.311.311,0,0,0-.813.256s0,.011-.007.016A.39.39,0,0,0-.891.35,15.527,15.527,0,0,0-1.8,2.565a.205.205,0,0,0,.022.2c0,.009-.007.018-.009.027A.189.189,0,0,0-1.75,3a.178.178,0,0,0,.011.058c.036.067.076.129.114.194a.16.16,0,0,0,.016.056l.287.454c.031.045.065.093.1.14,0,0,0,0,0,.007s0,0,0,0,.013.02.018.031a1.333,1.333,0,0,0,.225.4.293.293,0,0,0,.056.049.752.752,0,0,0,.069.078.445.445,0,0,0,.022.047s0,0,0,0l.011.011A.191.191,0,0,0-.646,4.6a4.8,4.8,0,0,0,2.433-.176.31.31,0,0,0,.147-.093.323.323,0,0,0,.187-.129c.122-.189.24-.383.352-.577a.242.242,0,0,0,.051-.056c.013-.02.022-.04.033-.06l0,0c0-.011.009-.022.013-.031.029-.053.06-.107.087-.16,0,0,.007-.009.009-.013.167-.292.332-.585.5-.877A.177.177,0,0,0,3.1,2.191a9.055,9.055,0,0,0-.41-1.048,5.287,5.287,0,0,1-.211-.55C2.424.414,2.406.216,2.226.116" transform="translate(1.816 0.095)" fill="#f0732e"/>
    </g>
    <g id="Grupo_3195" data-name="Grupo 3195" transform="translate(251.827 -31.54)">
      <path id="Caminho_4387" data-name="Caminho 4387" d="M3.1.493a1.313,1.313,0,0,0-1.91-.73A1.319,1.319,0,0,0-.658.516Q-1.152,2.1-1.647,3.692a13.313,13.313,0,0,0-.881,3.021C-2.6,8.447-.3,8.48,1.007,8.531,2.654,8.6,4.112,8.2,4.212,6.406A17.543,17.543,0,0,0,3.1.493" transform="translate(2.53 0.403)" fill="#3b8f39"/>
    </g>
    <g id="Grupo_3196" data-name="Grupo 3196" transform="translate(242.873 -33.458)">
      <path id="Caminho_4388" data-name="Caminho 4388" d="M5.5.524s0,0,0-.009S5.477.48,5.468.462A1.805,1.805,0,0,0,3.447-.362a2.558,2.558,0,0,0-.772.41,1.582,1.582,0,0,0-1.211.26A12.8,12.8,0,0,0-1.3,3.191,32.7,32.7,0,0,0-4.11,6.661c-1.353,2.25,1.249,4.013,3.029,4.933,2,1.033,5.082,1.275,6.328-1.011C6.559,8.177,6.53,4.816,6.657,2.16A1.5,1.5,0,0,0,5.5.524" transform="translate(4.486 0.428)" fill="#46ac46"/>
    </g>
    <g id="Grupo_3197" data-name="Grupo 3197" transform="translate(260.49 -31.46)">
      <path id="Caminho_4389" data-name="Caminho 4389" d="M4.188.7A1.749,1.749,0,0,0,1.6-.331,1.761,1.761,0,0,0-.907.746L-2.23,5.271a19.472,19.472,0,0,0-1.184,4.3c-.093,2.469,3.027,2.506,4.795,2.573,2.233.085,4.2-.492,4.334-3.038C5.857,6.275,4.973,3.386,4.188.7" transform="translate(3.416 0.57)" fill="#46ac46"/>
    </g>
    <g id="Grupo_3198" data-name="Grupo 3198" transform="translate(270.112 -32.876)">
      <path id="Caminho_4390" data-name="Caminho 4390" d="M2.179.274A1.519,1.519,0,0,0-.181.425,1.526,1.526,0,0,0-1.764,2.106q.247,1.907.492,3.813a15.314,15.314,0,0,0,.525,3.6c.755,1.856,3.194.784,4.59.211,1.763-.726,3.1-1.848,2.346-3.777A20.247,20.247,0,0,0,2.179.274" transform="translate(1.777 0.223)" fill="#3b8f39"/>
    </g>
    <g id="Grupo_3199" data-name="Grupo 3199" transform="translate(245.508 -36.098)">
      <path id="Caminho_4391" data-name="Caminho 4391" d="M15.977,1.183A96.057,96.057,0,0,1,3.839,1.061C.088.9-4.722.987-8.146-.617c-3.546-1.663-6.94,3.085-3.37,4.759,4.276,2.006,9.264,2.3,13.983,2.553a108.758,108.758,0,0,0,14.9.051c3.967-.334,2.551-5.894-1.389-5.563" transform="translate(13.032 0.965)" fill="#ff9a39"/>
    </g>
    <g id="Grupo_3200" data-name="Grupo 3200" transform="translate(237.447 -58.6)">
      <path id="Caminho_4392" data-name="Caminho 4392" d="M12.195.662A7.186,7.186,0,0,0,10.53.09,10.025,10.025,0,0,0,6.479-.527a2.165,2.165,0,0,0-.387.056c-.4.02-.817.053-1.244.1C2.109-.044-1.7,1.694-2.921,4.345c-.027.038-.058.071-.082.109a2.041,2.041,0,0,0-.249.552A8.05,8.05,0,0,0-6.746,6.685,7.632,7.632,0,0,0-9.94,12.6a5.2,5.2,0,0,0,.795,3.112,5.292,5.292,0,0,0,1.191,1.712A22.957,22.957,0,0,0-4.544,19.4a9.657,9.657,0,0,0,1.89.608,13.264,13.264,0,0,0,5.569-.439c-.016.062-.487,6,1.741,8.318a9.864,9.864,0,0,0,8.2,1.5c3.328-.735,3.653-3.343,2.811-5.137a1.583,1.583,0,0,0-1.084-.768,9.472,9.472,0,0,1-.387-4.935c.28-2.457,1.678-4.763,2.5-7.13a5.618,5.618,0,0,0,.89-2.6,2.367,2.367,0,0,0,.071-.349,8.516,8.516,0,0,0-5.456-7.8" transform="translate(9.947 0.54)" fill="#46ac46"/>
    </g>
    <g id="Grupo_3201" data-name="Grupo 3201" transform="translate(250.187 -55.204)">
      <path id="Caminho_4393" data-name="Caminho 4393" d="M3.983,1.913A2.708,2.708,0,0,0,3.627.328,3.873,3.873,0,0,0,2.687-.685,3.385,3.385,0,0,0,.025-1.519c-.038.007-.073.024-.114.031A1.169,1.169,0,0,0-.4-1.461a3.546,3.546,0,0,0-1.284.6,2.726,2.726,0,0,0-.579.405A2.819,2.819,0,0,0-3.091.758a2.932,2.932,0,0,0-.1,1.474c.018.076.049.149.071.225a2.887,2.887,0,0,0,.042.483A2.833,2.833,0,0,0-1.268,5.105a3.467,3.467,0,0,0,.953.167,2.955,2.955,0,0,0,.924.178A2.94,2.94,0,0,0,2.04,5.159,3.047,3.047,0,0,0,3.188,4.141,5.085,5.085,0,0,0,3.72,3.053a4.581,4.581,0,0,0,.263-1.14" transform="translate(3.249 1.561)" fill="#fff"/>
    </g>
    <g id="Grupo_3202" data-name="Grupo 3202" transform="translate(256.018 -54.735)">
      <path id="Caminho_4394" data-name="Caminho 4394" d="M0,0H.016a0,0,0,0,0,0,0C.1,0,.129,0,0,0" fill="#2b2e34"/>
    </g>
    <g id="Grupo_3203" data-name="Grupo 3203" transform="translate(252.22 -53.695)">
      <path id="Caminho_4395" data-name="Caminho 4395" d="M1.854,1.037s0-.011,0-.016V1.013c0-.038-.009-.372-.011-.41v0a.172.172,0,0,0,0-.033C1.8.432,1.773.3,1.725.165A.128.128,0,0,0,1.716.149c-.031-.06-.093-.156-.1-.178S1.542-.152,1.5-.207L1.493-.221l0,0L1.2-.51h0L1.19-.517s0,0-.007,0,0,0,0,0C1.159-.537.832-.719.81-.73A.03.03,0,0,0,.794-.737,2.4,2.4,0,0,0,.367-.844c.136.036.272.069.41.1a3.088,3.088,0,0,0-.423-.1c-.118,0-.352,0-.43.009H-.083a1.775,1.775,0,0,0-.207.06A1.853,1.853,0,0,0-.5-.717L-.51-.71c.127-.071-.254.136-.358.214,0,0-.009.007-.011.011a4.193,4.193,0,0,0-.3.3s-.007.009-.009.013A3.511,3.511,0,0,0-1.4.207.032.032,0,0,0-1.4.22,3.019,3.019,0,0,0-1.51.643a.033.033,0,0,1,0,.016V.668c0,.067,0,.136,0,.2s0,.138.007.207a.049.049,0,0,0,0,.018,1.193,1.193,0,0,0,.214.559,1.191,1.191,0,0,0,.4.459,1.456,1.456,0,0,0,.158.1c.018.011.036.018.051.029A.828.828,0,0,0-.6,2.286a1.533,1.533,0,0,0,.245.136c.136.036.274.069.41.1A1.568,1.568,0,0,0,.845,2.4a.032.032,0,0,0,.013,0,2.651,2.651,0,0,0,.361-.214.049.049,0,0,1,.011-.009l.285-.292s0,0,0,0a0,0,0,0,1,0,0s0,0,0-.007,0,0,0-.007,0,0,0,0,.2-.356.207-.37a.109.109,0,0,0,.007-.016,1.976,1.976,0,0,0,.109-.439" transform="translate(1.512 0.846)" fill="#2b2e34"/>
    </g>
    <g id="Grupo_3204" data-name="Grupo 3204" transform="translate(245.085 -56.342)">
      <path id="Caminho_4396" data-name="Caminho 4396" d="M2.745,1.319A1.855,1.855,0,0,0,2.5.226a2.643,2.643,0,0,0-.646-.7A2.347,2.347,0,0,0,.016-1.047c-.024,0-.049.018-.076.022a.8.8,0,0,0-.218.018,2.453,2.453,0,0,0-.886.414,1.808,1.808,0,0,0-.4.28,1.948,1.948,0,0,0-.57.835A1.993,1.993,0,0,0-2.2,1.537c.011.053.033.1.047.156a1.845,1.845,0,0,0,.031.334A1.945,1.945,0,0,0-.874,3.518a2.367,2.367,0,0,0,.657.116,2.03,2.03,0,0,0,.637.122,2.034,2.034,0,0,0,.986-.2,2.092,2.092,0,0,0,.792-.7,3.5,3.5,0,0,0,.367-.75,3.2,3.2,0,0,0,.18-.786" transform="translate(2.239 1.076)" fill="#fff"/>
    </g>
    <g id="Grupo_3205" data-name="Grupo 3205" transform="translate(248.132 -54.787)">
      <path id="Caminho_4397" data-name="Caminho 4397" d="M0,0H.011Z" fill="#2b2e34"/>
    </g>
    <g id="Grupo_3206" data-name="Grupo 3206" transform="translate(246.696 -55.074)">
      <path id="Caminho_4398" data-name="Caminho 4398" d="M1.277.715V.7c0-.024,0-.256-.007-.28v0a.076.076,0,0,0,0-.022C1.244.3,1.222.2,1.188.114a.017.017,0,0,1,0-.011C1.162.063,1.119,0,1.11-.02S1.064-.1,1.037-.142a.017.017,0,0,0-.009-.009v0C.959-.22.892-.285.826-.352c0,0,0,0,0,0s0,0,0,0h0C.8-.369.572-.5.558-.505a.017.017,0,0,1-.011,0,1.736,1.736,0,0,0-.3-.071c.1.022.189.047.283.069A2.2,2.2,0,0,0,.245-.583c-.082,0-.243,0-.3.007H-.058A1.148,1.148,0,0,0-.2-.536s-.1.024-.142.042c0,0-.007,0-.009,0C-.265-.538-.526-.4-.6-.343a.031.031,0,0,1-.009.007c-.069.067-.138.136-.2.209L-.817-.12A2.542,2.542,0,0,0-.964.143a.012.012,0,0,1,0,.009A1.987,1.987,0,0,0-1.04.443s0,.007,0,.011v0c0,.049,0,.1,0,.142s0,.1,0,.142a.1.1,0,0,0,0,.011.835.835,0,0,0,.149.387.8.8,0,0,0,.272.316A.681.681,0,0,0-.5,1.525c.011.009.024.013.036.022s.033.02.051.029a1.132,1.132,0,0,0,.169.093c.093.022.187.047.283.069a1.076,1.076,0,0,0,.548-.082s.007,0,.009,0A1.721,1.721,0,0,0,.839,1.5.031.031,0,0,0,.848,1.5l.2-.2,0,0,0,0a.008.008,0,0,0,0,0s0,0,0,0,0,0,0,0,.138-.245.142-.254,0-.007,0-.011a1.436,1.436,0,0,0,.076-.3" transform="translate(1.042 0.583)" fill="#2b2e34"/>
    </g>
    <g id="Grupo_3207" data-name="Grupo 3207" transform="translate(245.353 -42.773)">
      <path id="Caminho_4399" data-name="Caminho 4399" d="M2.608.112A.723.723,0,0,0,1.6.112c-.056.056-.111.109-.171.16l-.06.049C1.246.4,1.126.486.995.555.957.575.917.6.879.613L.859.624S.821.64.808.644C.776.658.743.669.71.68A3.477,3.477,0,0,1,.258.8C.224.811.189.818.155.822L.093.831H.086C.042.836,0,.838-.045.84a3.269,3.269,0,0,1-.443,0L-.564.827C-.637.811-.713.8-.786.782A3.148,3.148,0,0,1-1.231.638a.712.712,0,0,0-.875.5.733.733,0,0,0,.5.875,4.02,4.02,0,0,0,4.218-.89.719.719,0,0,0,0-1.006" transform="translate(2.128 0.092)" fill="#174012"/>
    </g>
  </g>
</svg>
