<svg xmlns="http://www.w3.org/2000/svg" xmlns:xlink="http://www.w3.org/1999/xlink" width="45.09" height="40" viewBox="0 0 45.09 40">
  <defs>
    <clipPath id="clip-path">
      <path id="Caminho_4170" data-name="Caminho 4170" d="M274.522-101.5h45.09v-40h-45.09Z" transform="translate(0)" fill="none"/>
    </clipPath>
  </defs>
  <g id="alfabeto_ing_h_fim" transform="translate(-274.522 141.497)" clip-path="url(#clip-path)">
    <g id="Grupo_2961" data-name="Grupo 2961" transform="translate(275.152 -140.539)">
      <path id="Caminho_4168" data-name="Caminho 4168" d="M25.063,5.667A10.039,10.039,0,0,0,12.858-1.917,16,16,0,0,0,5.351,3.111a21.419,21.419,0,0,0-6.49-5.67A10.984,10.984,0,0,0-14.351-1.007c-3.5,3.289-4.33,8.321-3.267,12.836A21.973,21.973,0,0,0-10.7,23.239,89.85,89.85,0,0,0,2.848,33.2c.055.06.1.134.16.191a3.962,3.962,0,0,0,5.474-.119c4.354-3.7,9.069-7.7,12.334-12.4,3.05-4.39,5.591-9.752,4.247-15.205" transform="translate(18.051 4.081)" fill="#f5425e"/>
    </g>
    <g id="Grupo_2962" data-name="Grupo 2962" transform="translate(310.524 -135.719)">
      <path id="Caminho_4169" data-name="Caminho 4169" d="M1.7.345C.326-1.32-2.2.877-.828,2.54A9.023,9.023,0,0,1-.656,13.78,1.691,1.691,0,0,0-.217,16.1a1.7,1.7,0,0,0,2.326-.437A12.422,12.422,0,0,0,1.7.345" transform="translate(1.224 0.248)" fill="#fff"/>
    </g>
  </g>
</svg>
