<svg xmlns="http://www.w3.org/2000/svg" xmlns:xlink="http://www.w3.org/1999/xlink" width="59.933" height="40" viewBox="0 0 59.933 40">
  <defs>
    <clipPath id="clip-path">
      <path id="Caminho_3790" data-name="Caminho 3790" d="M272.941-190.378h59.933v-40H272.941Z" transform="translate(0 0)" fill="none"/>
    </clipPath>
  </defs>
  <g id="alfabeto_h_e002_fim" transform="translate(-272.941 230.378)" clip-path="url(#clip-path)">
    <g id="Grupo_2595" data-name="Grupo 2595" transform="translate(277.727 -203.949)">
      <path id="Caminho_3777" data-name="Caminho 3777" d="M19.152,1.476,12.414,2.955a.5.5,0,0,0-.038-.286,6.271,6.271,0,0,1-.286-.732c-.038-.125-.076-.253-.106-.381-.014-.054-.027-.109-.038-.163,0-.014-.027-.136-.03-.155-.008-.044-.016-.1-.016-.109-.008-.054-.016-.111-.022-.166C11.861.834,11.851.7,11.845.57c0-.09,0-.179,0-.269a.693.693,0,0,0,.038-.487c-.022-.073-.044-.141-.063-.209a.675.675,0,0,0-.772-.451.688.688,0,0,0-.557.7,6.649,6.649,0,0,0,.585,3.25,1.319,1.319,0,0,0,.079.133q-3.443.751-6.88,1.507-3.635.8-7.272,1.6c-.065.016-.147.035-.242.063a.607.607,0,0,0,.082-.34c-.073-.952-.114-1.909-.117-2.861a.687.687,0,0,0-.715-.65.7.7,0,0,0-.647.712q0,1.436.114,2.864a.737.737,0,0,0,.313.525C-6.035,7.111-9,7.714-9.092,6.107a1.024,1.024,0,0,0-2.045.1c.152,2.709,3.076,3.146,5.224,2.815,2.858-.443,5.692-1.2,8.517-1.825Q11.2,5.31,19.791,3.423c1.284-.283.639-2.23-.639-1.947" transform="translate(11.139 0.858)" fill="#6f7175"/>
    </g>
    <g id="Grupo_2596" data-name="Grupo 2596" transform="translate(279.343 -218.042)">
      <path id="Caminho_3778" data-name="Caminho 3778" d="M18.977,6.216c1.237-1.417,1.036-2.983-.3-3.8C14.142-.365,8.627-3.514,2.25-3.615a4.45,4.45,0,0,0-1.422.207c-4.109.481-8.77,3.334-10.579,6.646A7.151,7.151,0,0,0-10.6,6.053a7.777,7.777,0,0,0,1.373,7.584A11.14,11.14,0,0,0-1.4,17.657c1.031.033,4.637.465,5.749.155,6.6-.873,10.4-6.75,14.628-11.6" transform="translate(11.037 3.615)" fill="#ff4227"/>
    </g>
    <g id="Grupo_2597" data-name="Grupo 2597" transform="translate(282.105 -226.484)">
      <path id="Caminho_3779" data-name="Caminho 3779" d="M28.041,7.006c-2.877,0-6.026.808-8.9.674a10.038,10.038,0,0,0-3.628-5.447,7.986,7.986,0,0,0-2.986-3.652A11.743,11.743,0,0,0,5.516-3.562a22.312,22.312,0,0,0-9.069-.1C-10.518-2.36-18.081,4.8-15.938,12.151c-.506,3.93,1.251,7.563,4.155,10.282C-8.5,25.506-3.3,25.5.89,25.068c4.465-.46,13.874-2.336,16.877-7.174,6.831-3.133,8.039-4.3,11.378-6.048,4.729-2.472,3.47-4.843-1.1-4.841" transform="translate(16.308 4.075)" fill="#ff4227"/>
    </g>
    <g id="Grupo_2598" data-name="Grupo 2598" transform="translate(284.356 -222.414)">
      <path id="Caminho_3780" data-name="Caminho 3780" d="M.035,5.39a1.151,1.151,0,0,0,.2.653,31.876,31.876,0,0,1,5.849.294,35.208,35.208,0,0,1,9.3,2.189,5.45,5.45,0,0,0,2.7-4.476,5.471,5.471,0,0,0-3.266-5.618,13.476,13.476,0,0,0-3.837-1.2c-2.39-.65-5.3-.435-6.951.6A5.326,5.326,0,0,0,1.585.158,8.215,8.215,0,0,0,.6,2.779C.552,2.9.5,3.013.46,3.133a1.231,1.231,0,0,0-.133.3c-.027.1-.041.2-.065.3A1.1,1.1,0,0,0,.071,4.9c-.016.16-.033.324-.035.487" transform="translate(0.021 3.135)" fill="#c5effc"/>
    </g>
    <g id="Grupo_2599" data-name="Grupo 2599" transform="translate(288.497 -202.721)">
      <path id="Caminho_3781" data-name="Caminho 3781" d="M20.8,1.067l-7.28,2.148a.48.48,0,0,0-.065-.288,6.2,6.2,0,0,1-.373-.734c-.052-.125-.1-.253-.147-.383-.019-.054-.038-.111-.054-.166-.005-.014-.041-.139-.046-.158a.988.988,0,0,1-.024-.111c-.014-.054-.027-.114-.038-.169C12.739,1.07,12.717.937,12.7.8c-.008-.092-.005-.188-.014-.28a.7.7,0,0,0,0-.509c-.03-.071-.057-.139-.087-.212a.761.761,0,0,0-1.441.378,6.534,6.534,0,0,0,.906,3.31c.03.049.065.087.1.131L4.728,5.812Q.8,6.971-3.129,8.132c-.073.019-.16.049-.267.084a.581.581,0,0,0,.065-.359c-.158-.976-.277-1.963-.356-2.951a.743.743,0,0,0-.84-.609.75.75,0,0,0-.653.8q.118,1.489.359,2.953a.739.739,0,0,0,.383.517c-1.969.645-5.181,1.542-5.409-.111-.185-1.354-2.426-1.069-2.238.288.386,2.793,3.633,2.978,5.964,2.437C-3.017,10.457.034,9.4,3.085,8.5q9.288-2.741,18.568-5.482c1.39-.411.525-2.363-.857-1.955" transform="translate(12.095 0.621)" fill="#85868a"/>
    </g>
    <g id="Grupo_2600" data-name="Grupo 2600" transform="translate(273.011 -230.328)">
      <path id="Caminho_3782" data-name="Caminho 3782" d="M30.929.637c-.03-.005-.057-.008-.087-.011a5.625,5.625,0,0,0-1.566-.4c-1.664-.2-3.4-.28-5.091-.378-3.424-.2-6.872-.264-10.309-.182-1.333.03-2.668.09-4,.166-.473,0-.946-.008-1.417-.005a2.5,2.5,0,0,0-.593-.046l-1.58.076c-1.373.038-2.741.106-4.1.223C-.63.243-3.434.441-6.213.738c-2.23.239-4.441.538-6.6.933-2.184.4-4.9.761-5.17,2.3-.076.435.642.979,1.4,1.055a64.583,64.583,0,0,0,8.767.087c3.024-.1,6.043-.242,9.061-.375q9.048-.4,18.1-.8c2.978-.131,5.975-.218,8.931-.441,1.265-.1,2.864-.111,3.788-.683,1.2-.745.47-1.887-1.131-2.173" transform="translate(17.988 0.37)" fill="#72c1e8"/>
    </g>
    <g id="Grupo_2601" data-name="Grupo 2601" transform="translate(292.921 -228.925)">
      <path id="Caminho_3783" data-name="Caminho 3783" d="M7.7.159c-.008,0-.016,0-.022,0a1.4,1.4,0,0,0-.389-.1c-.416-.049-.848-.068-1.27-.092C5.164-.086,4.307-.105,3.453-.083c-.334.008-.666.022-1,.041l-.351,0a.644.644,0,0,0-.147-.011l-.394.019C1.223-.026.88-.01.543.02c-.7.041-1.4.09-2.089.163-.555.06-1.1.136-1.643.231S-4.409.6-4.474.988c-.019.109.158.242.348.261a16.208,16.208,0,0,0,2.181.022c.753-.024,1.5-.06,2.254-.092l4.5-.2C5.552.947,6.3.926,7.034.868A2.385,2.385,0,0,0,7.978.7c.3-.188.114-.47-.283-.541" transform="translate(4.476 0.092)" fill="#2b2e34"/>
    </g>
    <g id="Grupo_2602" data-name="Grupo 2602" transform="translate(276.713 -229.18)">
      <path id="Caminho_3784" data-name="Caminho 3784" d="M9.062,0A72.747,72.747,0,0,0,1.42.713C.188.892-1.041,1.1-2.262,1.352a6.4,6.4,0,0,0-2.88,1.2c-.378.313.163.851.541.541A6.256,6.256,0,0,1-1.745,2.023q1.766-.347,3.552-.6A70.421,70.421,0,0,1,9.062.764c.489-.022.492-.783,0-.764" transform="translate(5.27 0)" fill="#fff"/>
    </g>
    <g id="Grupo_2603" data-name="Grupo 2603" transform="translate(308.808 -228.51)">
      <path id="Caminho_3785" data-name="Caminho 3785" d="M7.359.073A3.146,3.146,0,0,1,5.091.7C4.1.731,3.1.761,2.1.8S.111.862-.884.892A9.313,9.313,0,0,1-3.807.8a.383.383,0,0,0-.207.737,10.062,10.062,0,0,0,3.13.117Q.8,1.6,2.477,1.547c1.052-.035,2.1-.046,3.155-.109A3.259,3.259,0,0,0,7.9.611C8.24.258,7.7-.281,7.359.073" transform="translate(4.28 0.042)" fill="#fff"/>
    </g>
    <g id="Grupo_2604" data-name="Grupo 2604" transform="translate(321.328 -219.161)">
      <path id="Caminho_3786" data-name="Caminho 3786" d="M5.5.719A4.573,4.573,0,0,0,3.464-.258c-.487-.054-.971-.109-1.458-.16a5.164,5.164,0,0,0-2.79.87l-1.107,1A5.466,5.466,0,0,0-3.062,4.1l-.049.3a4.6,4.6,0,0,0,.125,2.254,4.875,4.875,0,0,0,.895,2.2A4.81,4.81,0,0,0-.4,10.522a4.593,4.593,0,0,0,2.031.979l1.458.158a5.184,5.184,0,0,0,2.79-.867l1.107-1A5.5,5.5,0,0,0,8.158,7.139l.046-.3a4.587,4.587,0,0,0-.125-2.252,4.873,4.873,0,0,0-.895-2.2A4.855,4.855,0,0,0,5.5.719" transform="translate(3.196 0.418)" fill="#72c1e8"/>
    </g>
    <g id="Grupo_2605" data-name="Grupo 2605" transform="translate(325.54 -214.735)">
      <path id="Caminho_3787" data-name="Caminho 3787" d="M1.466.193A1.238,1.238,0,0,0,.924-.068L.533-.112A1.378,1.378,0,0,0-.21.122l-.3.267A1.455,1.455,0,0,0-.819,1.1c-.005.027-.008.054-.014.079a1.3,1.3,0,0,0,.035.6,1.293,1.293,0,0,0,.239.585,1.273,1.273,0,0,0,.449.443,1.259,1.259,0,0,0,.541.264c.131.011.261.027.392.041a1.4,1.4,0,0,0,.742-.231l.3-.267a1.466,1.466,0,0,0,.313-.707l.014-.082a1.289,1.289,0,0,0-.035-.6A1.281,1.281,0,0,0,1.914.639,1.3,1.3,0,0,0,1.466.193" transform="translate(0.852 0.112)" fill="#2b2e34"/>
    </g>
    <g id="Grupo_2606" data-name="Grupo 2606" transform="translate(329.412 -216.989)">
      <path id="Caminho_3788" data-name="Caminho 3788" d="M.275.035C-.089-.2-.348.386.014.622A3.12,3.12,0,0,1,.974,4.9c-.234.332.267.789.5.454a3.548,3.548,0,0,0,.579-2.668A4.065,4.065,0,0,0,.275.035" transform="translate(0.16 0.02)" fill="#fff"/>
    </g>
    <g id="Grupo_2607" data-name="Grupo 2607" transform="translate(304.91 -220.53)">
      <path id="Caminho_3789" data-name="Caminho 3789" d="M5.6,4.094a1.222,1.222,0,0,0-.057-.12,2.631,2.631,0,0,0-.56-2.265c-.046-.133-.087-.269-.139-.4A7.224,7.224,0,0,0,2.9-1.628,2.766,2.766,0,0,0-.683-1.794,7.681,7.681,0,0,0-1.777-.434,7.564,7.564,0,0,0-2.6,1.024a5.619,5.619,0,0,0-.408,1.885,17.442,17.442,0,0,0-.245,2.439,1.053,1.053,0,0,0,.587.925.99.99,0,0,0,.723.873,1.08,1.08,0,0,0,.688-.063,1.031,1.031,0,0,0,1-.005A12.883,12.883,0,0,1,2.153,6.006a15.992,15.992,0,0,1,2.728-.653A1.028,1.028,0,0,0,5.6,4.094" transform="translate(3.256 2.381)" fill="#c5effc"/>
    </g>
  </g>
</svg>
