<svg xmlns="http://www.w3.org/2000/svg" xmlns:xlink="http://www.w3.org/1999/xlink" width="60" height="54" viewBox="0 0 60 54">
  <defs>
    <clipPath id="clip-path">
      <rect id="Retângulo_466" data-name="Retângulo 466" width="60" height="54" transform="translate(464 1235)" fill="none" stroke="#707070" stroke-width="1" opacity="0.4"/>
    </clipPath>
    <clipPath id="clip-path-2">
      <path id="Caminho_3790" data-name="Caminho 3790" d="M272.941-193h56v-37.375h-56Z" transform="translate(0 0)" fill="none"/>
    </clipPath>
  </defs>
  <g id="alfabeto_h_e002_fim" transform="translate(-464 -1235)" clip-path="url(#clip-path)">
    <g id="alfabeto_h_e002_fim-2" data-name="alfabeto_h_e002_fim" transform="translate(193.059 1473.378)" clip-path="url(#clip-path-2)">
      <g id="Grupo_2595" data-name="Grupo 2595" transform="translate(277.413 -205.684)">
        <path id="Caminho_3777" data-name="Caminho 3777" d="M17.164,1.323l-6.3,1.382a.469.469,0,0,0-.036-.267,5.859,5.859,0,0,1-.267-.684c-.036-.117-.071-.236-.1-.356-.013-.051-.025-.1-.036-.152,0-.013-.025-.127-.028-.145-.008-.041-.015-.091-.015-.1-.008-.051-.015-.1-.02-.155-.015-.122-.025-.244-.03-.368,0-.084,0-.168,0-.252a.647.647,0,0,0,.036-.455c-.02-.069-.041-.132-.058-.2a.631.631,0,0,0-.722-.422.642.642,0,0,0-.521.65A6.212,6.212,0,0,0,9.62,2.84a1.232,1.232,0,0,0,.074.125q-3.217.7-6.429,1.408-3.4.747-6.794,1.492c-.061.015-.137.033-.226.058A.567.567,0,0,0-3.679,5.6c-.069-.889-.107-1.784-.109-2.673a.642.642,0,0,0-.668-.607.65.65,0,0,0-.6.666q0,1.342.107,2.676a.689.689,0,0,0,.292.49c-1.708.432-4.48,1-4.564-.506a.957.957,0,0,0-1.911.091c.142,2.531,2.874,2.94,4.881,2.63,2.671-.414,5.318-1.126,7.958-1.7Q9.729,4.906,17.761,3.142c1.2-.264.6-2.084-.6-1.819" transform="translate(11.139 0.858)" fill="#6f7175"/>
      </g>
      <g id="Grupo_2596" data-name="Grupo 2596" transform="translate(278.922 -218.851)">
        <path id="Caminho_3778" data-name="Caminho 3778" d="M17.007,5.571c1.156-1.324.968-2.787-.285-3.555C12.489-.578,7.336-3.521,1.378-3.615a4.158,4.158,0,0,0-1.329.193c-3.839.45-8.195,3.115-9.884,6.21a6.681,6.681,0,0,0-.8,2.63,7.266,7.266,0,0,0,1.283,7.087,10.409,10.409,0,0,0,7.315,3.756c.963.03,4.332.435,5.372.145C9.506,15.59,13.053,10.1,17.007,5.571" transform="translate(11.037 3.615)" fill="#ff4227"/>
      </g>
      <g id="Grupo_2597" data-name="Grupo 2597" transform="translate(281.503 -226.74)">
        <path id="Caminho_3779" data-name="Caminho 3779" d="M25.13,6.279c-2.688,0-5.631.755-8.319.63a9.38,9.38,0,0,0-3.39-5.09,7.462,7.462,0,0,0-2.79-3.412,10.972,10.972,0,0,0-6.548-2,20.847,20.847,0,0,0-8.474-.089c-6.507,1.212-13.574,7.9-11.571,14.771a11.228,11.228,0,0,0,3.883,9.607c3.067,2.871,7.928,2.866,11.841,2.462,4.172-.429,12.964-2.183,15.769-6.7,6.383-2.927,7.511-4.02,10.631-5.651C30.58,8.492,29.4,6.276,25.13,6.279" transform="translate(16.308 4.075)" fill="#ff4227"/>
      </g>
      <g id="Grupo_2598" data-name="Grupo 2598" transform="translate(283.607 -222.936)">
        <path id="Caminho_3780" data-name="Caminho 3780" d="M.032,4.83a1.076,1.076,0,0,0,.183.61,29.784,29.784,0,0,1,5.466.274A32.9,32.9,0,0,1,14.37,7.76a5.093,5.093,0,0,0,2.521-4.182,5.112,5.112,0,0,0-3.052-5.25A12.591,12.591,0,0,0,10.254-2.79a8.967,8.967,0,0,0-6.495.562A4.977,4.977,0,0,0,1.48-.059,7.676,7.676,0,0,0,.56,2.391c-.046.109-.091.219-.132.33A1.15,1.15,0,0,0,.3,3.006c-.025.094-.038.188-.061.282A1.028,1.028,0,0,0,.065,4.375c-.015.15-.03.3-.033.455" transform="translate(0.021 3.135)" fill="#c5effc"/>
      </g>
      <g id="Grupo_2599" data-name="Grupo 2599" transform="translate(287.476 -204.536)">
        <path id="Caminho_3781" data-name="Caminho 3781" d="M18.638.956l-6.8,2.007a.448.448,0,0,0-.061-.269,5.794,5.794,0,0,1-.348-.686c-.048-.117-.1-.236-.137-.358-.018-.051-.036-.1-.051-.155-.005-.013-.038-.13-.043-.147a.923.923,0,0,1-.023-.1c-.013-.051-.025-.107-.036-.158-.028-.127-.048-.252-.066-.379-.008-.086-.005-.175-.013-.262a.652.652,0,0,0,0-.475c-.028-.066-.053-.13-.081-.2A.711.711,0,0,0,9.63.125a6.106,6.106,0,0,0,.846,3.092c.028.046.061.081.089.122L3.623,5.39Q-.051,6.473-3.717,7.558c-.069.018-.15.046-.249.079A.543.543,0,0,0-3.905,7.3c-.147-.912-.259-1.835-.333-2.757a.694.694,0,0,0-.785-.569.7.7,0,0,0-.61.747q.111,1.391.335,2.759a.691.691,0,0,0,.358.483c-1.84.6-4.841,1.441-5.054-.1-.173-1.265-2.267-1-2.091.269.361,2.61,3.395,2.782,5.572,2.277,2.9-.676,5.75-1.659,8.6-2.5q8.679-2.561,17.35-5.123c1.3-.384.49-2.208-.8-1.827" transform="translate(12.095 0.621)" fill="#85868a"/>
      </g>
      <g id="Grupo_2600" data-name="Grupo 2600" transform="translate(273.007 -230.331)">
        <path id="Caminho_3782" data-name="Caminho 3782" d="M27.719.571c-.028-.005-.053-.008-.081-.01A5.255,5.255,0,0,0,26.174.185C24.619-.006,23-.077,21.417-.169c-3.2-.183-6.421-.246-9.633-.17-1.245.028-2.493.084-3.738.155-.442,0-.884-.008-1.324-.005a2.333,2.333,0,0,0-.554-.043L4.693-.161c-1.283.036-2.561.1-3.834.208C-1.769.2-4.389.388-6.986.665c-2.084.224-4.149.5-6.167.872-2.04.371-4.581.711-4.83,2.147-.071.407.6.915,1.309.986a60.345,60.345,0,0,0,8.192.081c2.826-.1,5.646-.226,8.466-.351q8.454-.374,16.907-.75c2.782-.122,5.582-.2,8.344-.412a8.8,8.8,0,0,0,3.54-.638c1.123-.7.44-1.763-1.057-2.03" transform="translate(17.988 0.37)" fill="#72c1e8"/>
      </g>
      <g id="Grupo_2601" data-name="Grupo 2601" transform="translate(291.609 -229.02)">
        <path id="Caminho_3783" data-name="Caminho 3783" d="M6.9.142l-.02,0A1.308,1.308,0,0,0,6.513.046C6.124,0,5.72-.018,5.326-.041c-.8-.046-1.6-.064-2.394-.043C2.62-.076,2.31-.064,2-.046l-.328,0a.6.6,0,0,0-.137-.01l-.368.018C.849-.031.529-.015.214.013-.442.051-1.092.1-1.738.165c-.518.056-1.032.127-1.535.216s-1.141.178-1.2.536c-.018.1.147.226.325.244a15.144,15.144,0,0,0,2.038.02C-1.407,1.159-.706,1.126,0,1.1L4.2.91c.694-.03,1.39-.051,2.078-.1A2.229,2.229,0,0,0,7.161.648C7.438.473,7.268.208,6.9.142" transform="translate(4.476 0.092)" fill="#2b2e34"/>
      </g>
      <g id="Grupo_2602" data-name="Grupo 2602" transform="translate(276.466 -229.259)">
        <path id="Caminho_3784" data-name="Caminho 3784" d="M8.121,0A67.972,67.972,0,0,0,.981.666c-1.151.168-2.3.363-3.44.6A5.982,5.982,0,0,0-5.15,2.386c-.353.292.152.8.506.506a5.845,5.845,0,0,1,2.668-1q1.65-.324,3.318-.564A65.8,65.8,0,0,1,8.121.714c.457-.02.46-.732,0-.714" transform="translate(5.27 0)" fill="#fff"/>
      </g>
      <g id="Grupo_2603" data-name="Grupo 2603" transform="translate(306.454 -228.633)">
        <path id="Caminho_3785" data-name="Caminho 3785" d="M6.595.065A2.939,2.939,0,0,1,4.476.65c-.93.03-1.86.058-2.793.091S-.177.8-1.107.83A8.7,8.7,0,0,1-3.838.746a.358.358,0,0,0-.193.689,9.4,9.4,0,0,0,2.925.109q1.57-.053,3.141-.1C3.017,1.41,4,1.4,4.981,1.341A3.045,3.045,0,0,0,7.1.569c.32-.33-.183-.833-.5-.5" transform="translate(4.28 0.042)" fill="#fff"/>
      </g>
      <g id="Grupo_2604" data-name="Grupo 2604" transform="translate(318.152 -219.897)">
        <path id="Caminho_3786" data-name="Caminho 3786" d="M4.925.644a4.273,4.273,0,0,0-1.9-.912c-.455-.051-.907-.1-1.362-.15A4.825,4.825,0,0,0-.942.4l-1.034.933a5.107,5.107,0,0,0-1.1,2.477l-.046.282A4.3,4.3,0,0,0-3,6.194a4.555,4.555,0,0,0,.836,2.053A4.494,4.494,0,0,0-.586,9.8a4.291,4.291,0,0,0,1.9.915l1.362.147a4.844,4.844,0,0,0,2.607-.811l1.034-.935a5.134,5.134,0,0,0,1.1-2.477l.043-.282a4.286,4.286,0,0,0-.117-2.1A4.553,4.553,0,0,0,6.5,2.2,4.537,4.537,0,0,0,4.925.644" transform="translate(3.196 0.418)" fill="#72c1e8"/>
      </g>
      <g id="Grupo_2605" data-name="Grupo 2605" transform="translate(322.088 -215.761)">
        <path id="Caminho_3787" data-name="Caminho 3787" d="M1.314.173A1.157,1.157,0,0,0,.808-.071L.442-.112A1.288,1.288,0,0,0-.252.107L-.529.356a1.36,1.36,0,0,0-.292.661c-.005.025-.008.051-.013.074A1.213,1.213,0,0,0-.8,1.654,1.208,1.208,0,0,0-.577,2.2a1.189,1.189,0,0,0,.419.414,1.177,1.177,0,0,0,.506.246c.122.01.244.025.366.038a1.307,1.307,0,0,0,.694-.216l.277-.249a1.37,1.37,0,0,0,.292-.661L1.989,1.7a1.2,1.2,0,0,0-.033-.562A1.2,1.2,0,0,0,1.733.589,1.218,1.218,0,0,0,1.314.173" transform="translate(0.852 0.112)" fill="#2b2e34"/>
      </g>
      <g id="Grupo_2606" data-name="Grupo 2606" transform="translate(325.706 -217.868)">
        <path id="Caminho_3788" data-name="Caminho 3788" d="M.247.031C-.094-.19-.335.359,0,.58A2.915,2.915,0,0,1,.9,4.574c-.219.31.249.737.47.424a3.315,3.315,0,0,0,.541-2.493A3.8,3.8,0,0,0,.247.031" transform="translate(0.16 0.02)" fill="#fff"/>
      </g>
      <g id="Grupo_2607" data-name="Grupo 2607" transform="translate(302.812 -221.176)">
        <path id="Caminho_3789" data-name="Caminho 3789" d="M5.017,3.669a1.142,1.142,0,0,0-.053-.112A2.459,2.459,0,0,0,4.441,1.44c-.043-.125-.081-.252-.13-.374A6.75,6.75,0,0,0,2.5-1.677,2.584,2.584,0,0,0-.852-1.832,7.177,7.177,0,0,0-1.874-.562,7.067,7.067,0,0,0-2.646.8a5.25,5.25,0,0,0-.381,1.761A16.3,16.3,0,0,0-3.256,4.84a.984.984,0,0,0,.549.864.925.925,0,0,0,.676.816,1.009,1.009,0,0,0,.643-.058.964.964,0,0,0,.935-.005,12.037,12.037,0,0,1,2.251-1,14.942,14.942,0,0,1,2.549-.61.961.961,0,0,0,.671-1.176" transform="translate(3.256 2.381)" fill="#c5effc"/>
      </g>
    </g>
  </g>
</svg>
