<svg xmlns="http://www.w3.org/2000/svg" xmlns:xlink="http://www.w3.org/1999/xlink" width="49.479" height="40" viewBox="0 0 49.479 40">
  <defs>
    <clipPath id="clip-path">
      <path id="Caminho_3762" data-name="Caminho 3762" d="M198.335-194.95h49.479v-40H198.335Z" transform="translate(0 0)" fill="none"/>
    </clipPath>
  </defs>
  <g id="alfabeto_f_e002_fim" transform="translate(-198.335 234.95)" clip-path="url(#clip-path)">
    <g id="Grupo_2578" data-name="Grupo 2578" transform="translate(200.053 -234.393)">
      <path id="Caminho_3760" data-name="Caminho 3760" d="M22.269,3.584c-1.987-.344-4.18.759-5.906,1.635-1.668.846-3.249,1.867-4.832,2.863-1.064.672-2.091,1.388-3.1,2.122-.1-1.514-.259-3.025-.5-4.529C7.463,2.758,6.552-.252,4.061-2.071c-2.346-1.712-6-1.819-7.983.51C-5.974.839-5.665,4.294-4.949,7.154c.11.442.274.867.413,1.3-.185-.079-.363-.168-.55-.245-3.637-1.5-7.832-2.446-11.489-.475-2.9,1.562-5.867,6.149-2.95,9.072,1.979,1.983,4.946,2.946,7.817,3.363-.359.2-.72.392-1.066.608-1.981,1.228-3.994,2.838-4.67,5.174a5.231,5.231,0,0,0,2.216,6.016c2.216,1.257,5.261.7,7.551-.033a45.744,45.744,0,0,0,6.915-3,24.064,24.064,0,0,0,3.521-2.216c0,.01.008.023.012.031a20.138,20.138,0,0,0,2.552,4.423c2.133,2.749,5.535,4.931,9.145,4.6a4,4,0,0,0,2.815-1.253,8.544,8.544,0,0,0,1.431-2.5,10.116,10.116,0,0,0,.67-4.429,11.3,11.3,0,0,0-4.415-8.244c.882-.185,1.757-.388,2.62-.627,3.56-.983,6.836-2.931,8.234-6.5,1.214-3.1.282-7.975-3.554-8.639" transform="translate(20.724 3.335)" fill="#ff5872"/>
    </g>
    <g id="Grupo_2579" data-name="Grupo 2579" transform="translate(216.567 -219.516)">
      <path id="Caminho_3761" data-name="Caminho 3761" d="M5.485.906A4.792,4.792,0,0,0,3.6-.177,4.285,4.285,0,0,0,2.315-.7a5.824,5.824,0,0,0-3.1.129,6.122,6.122,0,0,0-1.324.61A5.917,5.917,0,0,0-3.71,1.6a4.365,4.365,0,0,0-.483.888,5.325,5.325,0,0,0-.753,1.761A5.6,5.6,0,0,0-4.8,7.4,5.117,5.117,0,0,0-3.737,9.182,4.724,4.724,0,0,0-1.749,10.36a6.856,6.856,0,0,0,3.255.106,6.025,6.025,0,0,0,2.4-.992A3.12,3.12,0,0,0,5.016,8.136a7.017,7.017,0,0,0,.8-.938c1.272-1.84,1.367-4.68-.336-6.292" transform="translate(5.104 0.843)" fill="#ffc734"/>
    </g>
  </g>
</svg>
