<svg xmlns="http://www.w3.org/2000/svg" xmlns:xlink="http://www.w3.org/1999/xlink" width="48.419" height="40" viewBox="0 0 48.419 40">
  <defs>
    <clipPath id="clip-path">
      <path id="Caminho_3735" data-name="Caminho 3735" d="M52.654-192.53h48.419v-40H52.654Z" transform="translate(0 0)" fill="none"/>
    </clipPath>
  </defs>
  <g id="alfabeto_b_e002_fim" transform="translate(-52.654 232.53)" clip-path="url(#clip-path)">
    <g id="Grupo_2540" data-name="Grupo 2540" transform="translate(55.914 -230.482)">
      <path id="Caminho_3722" data-name="Caminho 3722" d="M23.865,6.038a1.479,1.479,0,0,0-.512-.6,2.007,2.007,0,0,0-1.236-.273,11.214,11.214,0,0,0-3.53.584,33.715,33.715,0,0,1-5.257.894,36.609,36.609,0,0,1-5.492-.192A70.165,70.165,0,0,1-2.881,5.025c-3.485-.835-7.2-2.161-9.622-4.92,0-.031,0-.059,0-.093-.214-1.056-.19-1.6-.4-2.657-.116-.584-.173-.437-.477-.958a2.752,2.752,0,0,0-.686-.8c-.8.294-1.108.638-1.922.9-.465.152-.932.3-1.4.444a24.246,24.246,0,0,0,2.652,4.2c-.069.306-.128.61-.171.911a1.2,1.2,0,0,0-.059.738.021.021,0,0,0,0,.012c0,.069-.014.152-.009.216a1.349,1.349,0,0,0,.038.14.824.824,0,0,0,.014.377c.043.161.1.313.149.47A17.433,17.433,0,0,0-14.135,8.3a8.106,8.106,0,0,0,2.946,3.751c2.769,1.945,6.455,2.823,9.746,3.364A41.555,41.555,0,0,0,9.19,15.7a30.321,30.321,0,0,0,3.5-.543.244.244,0,0,0,.043,0c.218-.033.439-.078.66-.116a11.852,11.852,0,0,0,1.687-.173,3.217,3.217,0,0,0,.963-.368,5.963,5.963,0,0,0,.619-.27,1.427,1.427,0,0,0,.19-.055q.754-.367,1.509-.735c.121-.059.244-.114.365-.178a2.116,2.116,0,0,0,.588-.467,4.477,4.477,0,0,0,1.153-.771c.05-.028.1-.047.152-.078a8.673,8.673,0,0,0,2.5-2.757,15.2,15.2,0,0,0,.818-3.06.8.8,0,0,0-.069-.088" transform="translate(17.39 4.4)" fill="#ffc734"/>
    </g>
    <g id="Grupo_2541" data-name="Grupo 2541" transform="translate(58.303 -224.939)">
      <path id="Caminho_3723" data-name="Caminho 3723" d="M22.049,4.652a15.289,15.289,0,0,0,.811-3.02c-1.99,1.094-4.035,2.8-8.811,3.857-3.613.8-10.2.859-14.929.334C-13.147,4.462-15.8-3.39-15.8-3.39q-.1.459-.171.911a1.206,1.206,0,0,0-.059.74.014.014,0,0,1,0,.009c0,.069-.012.154-.007.216a1.342,1.342,0,0,0,.036.14A.859.859,0,0,0-15.987-1c.043.161.1.313.149.47A17.3,17.3,0,0,0-15.2,3.763a8.124,8.124,0,0,0,2.946,3.753c2.769,1.943,6.455,2.821,9.743,3.362a41.466,41.466,0,0,0,10.635.285,30.88,30.88,0,0,0,3.494-.541c.014,0,.026,0,.043,0,.221-.036.441-.081.66-.119a11.814,11.814,0,0,0,1.687-.171,3.337,3.337,0,0,0,.966-.368,6.175,6.175,0,0,0,.617-.273,1.322,1.322,0,0,0,.19-.052L17.29,8.9c.123-.057.247-.114.365-.178a2.107,2.107,0,0,0,.588-.465A4.658,4.658,0,0,0,19.4,7.49c.047-.028.1-.047.149-.078a8.627,8.627,0,0,0,2.5-2.759" transform="translate(16.067 3.39)" fill="#ffe08c"/>
    </g>
    <g id="Grupo_2542" data-name="Grupo 2542" transform="translate(62.547 -224.198)">
      <path id="Caminho_3724" data-name="Caminho 3724" d="M.43,1.556a2.567,2.567,0,0,0,.448.674,2.162,2.162,0,0,0,2.09.657c.017,0,.033-.014.052-.019a1.3,1.3,0,0,0,.145.052,2.125,2.125,0,0,0,.771.033,1.85,1.85,0,0,0,1.374.2A2.144,2.144,0,0,0,6.491,2.33c.021,0,.043,0,.064,0a2.728,2.728,0,0,0,1.189-.289c-.059-.014-.121-.024-.18-.038A21.848,21.848,0,0,1-.066-1.134,1.9,1.9,0,0,0-.308-.32,2.507,2.507,0,0,0,.43,1.556" transform="translate(0.313 1.134)" fill="#2b2e34"/>
    </g>
    <g id="Grupo_2543" data-name="Grupo 2543" transform="translate(70.631 -216.736)">
      <path id="Caminho_3725" data-name="Caminho 3725" d="M2.982.13A2.8,2.8,0,0,0,2.413.011,2.54,2.54,0,0,0,1.729.02a2.5,2.5,0,0,0-.961-.1,1.552,1.552,0,0,0-1.184.7A1.377,1.377,0,0,0-.709.673a1.742,1.742,0,0,0-.859.6,1.382,1.382,0,0,0-.126.109,1.466,1.466,0,0,0-.353,1.654,1.722,1.722,0,0,0,1.056.885A1.744,1.744,0,0,0-.5,4.179,1.471,1.471,0,0,0,.963,3.892a.149.149,0,0,0,.026-.028c.036-.007.069-.007.1-.017a1.521,1.521,0,0,0,.474-.23,1.262,1.262,0,0,0,.887-.33,1.472,1.472,0,0,0,.441-.88.264.264,0,0,0,.038-.017A1.443,1.443,0,0,0,3.765,1.2,1.136,1.136,0,0,0,2.982.13" transform="translate(2.173 0.094)" fill="#2b2e34"/>
    </g>
    <g id="Grupo_2544" data-name="Grupo 2544" transform="translate(57.091 -226.003)">
      <path id="Caminho_3726" data-name="Caminho 3726" d="M25.4,7.2a1.555,1.555,0,0,0-.541-.636,2.128,2.128,0,0,0-1.307-.289,11.8,11.8,0,0,0-3.734.617,35.884,35.884,0,0,1-5.561.947,38.956,38.956,0,0,1-5.81-.2A74.676,74.676,0,0,1-2.891,6.131c-3.687-.883-7.61-2.287-10.175-5.2,0-.033,0-.064,0-.1q-.342-1.676-.678-3.354A6.2,6.2,0,0,0-14.269-4.4a3.012,3.012,0,0,0-.726-.845c-.852.313-1.172.676-2.033.958-.493.161-.987.316-1.48.47a48.79,48.79,0,0,0,3.077,5.843c-.076.325-.138.645-.183.963a1.27,1.27,0,0,0-.062.783.014.014,0,0,1,0,.009c0,.074-.014.161-.009.23,0,.052.031.1.038.147a.855.855,0,0,0,.019.4c.045.171.1.33.157.5a18.292,18.292,0,0,0,.676,4.536,8.566,8.566,0,0,0,3.115,3.967c2.927,2.057,6.83,2.987,10.308,3.559a43.762,43.762,0,0,0,11.247.3,32.31,32.31,0,0,0,3.7-.574.209.209,0,0,0,.04,0c.235-.038.465-.085.7-.126a12.454,12.454,0,0,0,1.784-.18,3.483,3.483,0,0,0,1.02-.389c.221-.085.441-.18.655-.287a1.27,1.27,0,0,0,.2-.059c.534-.259,1.063-.517,1.6-.778.13-.062.261-.119.387-.187a2.294,2.294,0,0,0,.624-.5A4.867,4.867,0,0,0,21.8,13.53c.052-.028.107-.05.159-.083a9.141,9.141,0,0,0,2.645-2.916A16,16,0,0,0,25.473,7.3.723.723,0,0,0,25.4,7.2" transform="translate(18.508 5.247)" fill="#ffc734"/>
    </g>
    <g id="Grupo_2545" data-name="Grupo 2545" transform="translate(59.889 -218.732)">
      <path id="Caminho_3727" data-name="Caminho 3727" d="M23.323,4.921a16.078,16.078,0,0,0,.856-3.2c-2.1,1.158-4.265,2.963-9.316,4.08-3.824.845-10.789.909-15.8.353C-13.909,4.722-16.715-3.586-16.715-3.586c-.076.325-.138.645-.183.963a1.27,1.27,0,0,0-.062.783.014.014,0,0,1,0,.009c0,.076-.014.164-.009.23s.031.1.038.147a.855.855,0,0,0,.019.4c.045.171.1.332.157.5a18.327,18.327,0,0,0,.676,4.538,8.571,8.571,0,0,0,3.115,3.964c2.927,2.059,6.828,2.987,10.308,3.559a43.762,43.762,0,0,0,11.247.3,31.8,31.8,0,0,0,3.7-.574.209.209,0,0,0,.04,0c.235-.038.465-.085.7-.126a12.123,12.123,0,0,0,1.784-.18,3.484,3.484,0,0,0,1.02-.389c.221-.085.441-.18.655-.287a1.571,1.571,0,0,0,.2-.057c.534-.261,1.063-.52,1.6-.778.13-.064.261-.121.387-.19a2.25,2.25,0,0,0,.624-.5,4.858,4.858,0,0,0,1.219-.811c.052-.031.107-.052.159-.085a9.141,9.141,0,0,0,2.645-2.916" transform="translate(16.995 3.586)" fill="#ffe08c"/>
    </g>
    <g id="Grupo_2546" data-name="Grupo 2546" transform="translate(52.702 -230.483)">
      <path id="Caminho_3728" data-name="Caminho 3728" d="M27.19,18.2a1.905,1.905,0,0,0-.325-.975A2.626,2.626,0,0,0,25.5,16.3a14.568,14.568,0,0,0-4.545-1.008,43.806,43.806,0,0,1-6.787-1.476,47.558,47.558,0,0,1-6.541-2.9A91.429,91.429,0,0,1-4.627,3.988c-3.8-2.7-7.641-6.1-9.231-10.616.009-.038.033-.071.04-.111a24.754,24.754,0,0,0,.014-5.226,3.612,3.612,0,0,0-.441-1.3c-1.115-.033-2.835.6-3.471.55a35.685,35.685,0,0,0,.652,6.253q-.352.505-.652,1.018a1.57,1.57,0,0,0-.429.864.03.03,0,0,1,0,.014c-.033.083-.09.18-.114.259-.019.059-.012.123-.026.185a1.07,1.07,0,0,0-.161.463c-.028.216-.031.427-.05.643a22.492,22.492,0,0,0-1.312,5.49,10.558,10.558,0,0,0,1.737,5.962c2.4,3.694,6.427,6.548,10.139,8.8A53.965,53.965,0,0,0,4.774,22.742,40.117,40.117,0,0,0,9.26,23.786c.017,0,.031.017.05.021.282.069.569.119.852.18h0a15.025,15.025,0,0,0,2.121.61,4.191,4.191,0,0,0,1.343.026,8.346,8.346,0,0,0,.878-.028,1.835,1.835,0,0,0,.259.028l2.178-.157c.176-.012.353-.019.529-.038a2.886,2.886,0,0,0,.937-.278,6.04,6.04,0,0,0,1.77-.37c.071-.009.145-.007.218-.021a11.286,11.286,0,0,0,4.36-2.118,19.87,19.87,0,0,0,2.477-3.3,1.366,1.366,0,0,0-.043-.14" transform="translate(19.813 13.265)" fill="#ffd036"/>
    </g>
    <g id="Grupo_2547" data-name="Grupo 2547" transform="translate(52.703 -223.677)">
      <path id="Caminho_3729" data-name="Caminho 3729" d="M25.781,16.255A20.061,20.061,0,0,0,28.229,13c-2.935.356-6.237,1.428-12.516.382-4.754-.79-12.739-3.914-18.2-6.849-14.158-7.6-13.551-18.376-13.551-18.376-.235.337-.451.674-.65,1.015a1.555,1.555,0,0,0-.429.866s0,.009,0,.014c-.036.083-.093.178-.116.256-.019.062-.012.126-.026.187a1.1,1.1,0,0,0-.161.463c-.026.216-.031.427-.047.641a22.428,22.428,0,0,0-1.312,5.492,10.561,10.561,0,0,0,1.734,5.962c2.4,3.694,6.429,6.545,10.142,8.8A54.047,54.047,0,0,0,5.8,17.356,39.513,39.513,0,0,0,10.287,18.4c.017,0,.028.019.047.024.282.066.569.119.854.18h0a15.316,15.316,0,0,0,2.118.61,4.275,4.275,0,0,0,1.345.026,8.347,8.347,0,0,0,.878-.028,1.8,1.8,0,0,0,.256.028c.726-.055,1.452-.1,2.178-.159.176-.009.353-.017.531-.036a2.89,2.89,0,0,0,.935-.278,5.967,5.967,0,0,0,1.77-.372c.074-.009.147-.007.218-.019a11.32,11.32,0,0,0,4.36-2.118" transform="translate(18.786 11.845)" fill="#ffe08c"/>
    </g>
    <g id="Grupo_2548" data-name="Grupo 2548" transform="translate(52.813 -213.72)">
      <path id="Caminho_3730" data-name="Caminho 3730" d="M3.134,4.993A1.806,1.806,0,0,0,4.446,3.339a4.463,4.463,0,0,0-.062-.923,4.176,4.176,0,0,0-.3-1.044A4,4,0,0,0,3.832-.141,2.456,2.456,0,0,0,2.259-1.657a2.062,2.062,0,0,0-.216-.427A2.759,2.759,0,0,0,.757-3.147a2.237,2.237,0,0,0-.223-.145,2.32,2.32,0,0,0-2.681.164c-.052.043-.09.1-.138.147A10.818,10.818,0,0,0-.657,1.3,20.245,20.245,0,0,0,2.56,5.045a1.7,1.7,0,0,0,.574-.052" transform="translate(2.284 3.638)" fill="#2b2e34"/>
    </g>
    <g id="Grupo_2549" data-name="Grupo 2549" transform="translate(68.1 -212.279)">
      <path id="Caminho_3731" data-name="Caminho 3731" d="M.006.941a2.511,2.511,0,0,0,.681,1.9,2.631,2.631,0,0,0,.427.688,2.159,2.159,0,0,0,2.066.721.369.369,0,0,0,.055-.019,1.483,1.483,0,0,0,.142.057,2.195,2.195,0,0,0,.771.059,1.853,1.853,0,0,0,1.366.237A2.138,2.138,0,0,0,6.722,3.8a.546.546,0,0,0,.062.007,2.469,2.469,0,0,0,1.485-.422A77.663,77.663,0,0,1,1.175-.686,2.015,2.015,0,0,0,.006.941" transform="translate(0.004 0.686)" fill="#2b2e34"/>
    </g>
    <g id="Grupo_2550" data-name="Grupo 2550" transform="translate(75.893 -198.481)">
      <path id="Caminho_3732" data-name="Caminho 3732" d="M5.675,2.652A1.869,1.869,0,0,0,5.454.474,4.566,4.566,0,0,0,4.74-.167a4.3,4.3,0,0,0-.98-.56,4.139,4.139,0,0,0-1.279-.944,2.545,2.545,0,0,0-2.266.009,2.037,2.037,0,0,0-.47-.161,2.868,2.868,0,0,0-1.725.142,2.591,2.591,0,0,0-.27.052A2.412,2.412,0,0,0-4.125.429,2.578,2.578,0,0,0-3.9,1.712c.387.121.773.247,1.16.361A39.513,39.513,0,0,0,1.749,3.114c.017,0,.028.019.047.024.282.066.569.119.854.18h0c.325.114.657.225.992.325a2.308,2.308,0,0,0,2.031-.992" transform="translate(4.135 1.932)" fill="#2b2e34"/>
    </g>
    <g id="Grupo_2551" data-name="Grupo 2551" transform="translate(79.617 -213.5)">
      <path id="Caminho_3733" data-name="Caminho 3733" d="M.326,1.208a1.913,1.913,0,0,0,.344.51,1.63,1.63,0,0,0,1.582.5c.012,0,.026-.012.04-.017a1.015,1.015,0,0,0,.109.04,1.583,1.583,0,0,0,.586.026,1.4,1.4,0,0,0,1.044.149,1.614,1.614,0,0,0,.894-.624c.017,0,.033,0,.05,0a1.611,1.611,0,0,0,1.44-.721A1.251,1.251,0,0,0,6.25-.344Q5.218-.415,4.193-.5c-1.4-.114-2.8-.237-4.2-.38a1.483,1.483,0,0,0-.223.662,1.917,1.917,0,0,0,.56,1.426" transform="translate(0.238 0.88)" fill="#2b2e34"/>
    </g>
    <g id="Grupo_2552" data-name="Grupo 2552" transform="translate(53.05 -232.498)">
      <path id="Caminho_3734" data-name="Caminho 3734" d="M4.646,1.047A2.872,2.872,0,0,0,4.11-.486a.457.457,0,0,0-.557-.187A.416.416,0,0,0,3.135-.73Q1.178.074-.758.971q-.5.231-.994.47c-.021.009-.043.019-.064.031a1.257,1.257,0,0,0-.9.28A2.3,2.3,0,0,0-3.28,4.145a1.422,1.422,0,0,0,1.739,1.2A7.174,7.174,0,0,0,1.472,4.43c.522-.249,1.063-.46,1.589-.707a2.72,2.72,0,0,0,.892-.607.5.5,0,0,0,.2-.074c.425-.261.534-.937.539-1.516a2.431,2.431,0,0,0-.05-.479" transform="translate(3.386 0.763)" fill="#ffd036"/>
    </g>
  </g>
</svg>
