<svg xmlns="http://www.w3.org/2000/svg" xmlns:xlink="http://www.w3.org/1999/xlink" width="51.179" height="41.958" viewBox="0 0 51.179 41.958">
  <defs>
    <clipPath id="clip-path">
      <rect id="Retângulo_341" data-name="Retângulo 341" width="51.179" height="41.958" transform="translate(0 0)" fill="none"/>
    </clipPath>
    <clipPath id="clip-path-2">
      <path id="Caminho_4073" data-name="Caminho 4073" d="M14.817,16.429A15.068,15.068,0,0,0,8.995,19.7c-1.739,1.657-3.057,2.71-1.417,4.845a7.284,7.284,0,0,0,3.335,2.688c1.274.481,2.675,1.333,4.108,1.426,2.3.345,4.6.676,6.9.976,5.475.715,11.236,1.143,16.487-.552,2.6-.839,5.264-2.243,6.4-4.5a4.017,4.017,0,0,0,.259-2.958,3.236,3.236,0,0,0-.087-.6c-.562-2.2-3.006-3.6-5.351-4.265a42.8,42.8,0,0,0-8.2-1.095c-2.55-.206-5.159-.414-7.749-.414a29.221,29.221,0,0,0-8.855,1.183" fill="none"/>
    </clipPath>
  </defs>
  <g id="alfabeto_y_e002_fim" transform="translate(0 0)">
    <g id="Grupo_2865" data-name="Grupo 2865">
      <g id="Grupo_2864" data-name="Grupo 2864" clip-path="url(#clip-path)">
        <path id="Caminho_4061" data-name="Caminho 4061" d="M44.83,22.4a1.678,1.678,0,0,0-1.093-.881A114.242,114.242,0,0,0,23.688,19.5q-2.339-.034-4.676.017-2.233-.1-4.469-.188a10.9,10.9,0,0,0-4.876.44A6.114,6.114,0,0,0,6.7,22.691c-1.48,3.06-.228,11.6,7.172,13.979,4.2,1.349,7.9,3.56,12.289,2.983a31.164,31.164,0,0,0,7.7-1.246,19.975,19.975,0,0,0,6.706-2.952,10.889,10.889,0,0,0,4.244-4A9.792,9.792,0,0,0,45.9,26.835c.03-1.521.074-3.273-1.066-4.434" fill="#e82721"/>
        <path id="Caminho_4062" data-name="Caminho 4062" d="M32.521,37.785c-2.266-.023-4.533-.006-6.8-.007l-3.264,0q-.816,0-1.632,0a9.811,9.811,0,0,0-2.09.337c-1.642.343-1.537,2.647,0,3.32,2.118.927,11.519.35,13.785.327a1.987,1.987,0,0,0,0-3.974" fill="#e82721"/>
        <path id="Caminho_4063" data-name="Caminho 4063" d="M45.011,21.622a3.214,3.214,0,0,0-.087-.6c-.561-2.2-3.006-3.6-5.351-4.265a42.715,42.715,0,0,0-8.2-1.1c-5.525-.446-11.327-.9-16.6.77A15.055,15.055,0,0,0,8.944,19.7c-1.74,1.657-3.057,2.71-1.418,4.845a7.283,7.283,0,0,0,3.335,2.688c1.274.482,2.675,1.333,4.108,1.426,2.3.345,4.6.676,6.9.977,5.475.714,11.236,1.142,16.487-.553,2.6-.838,5.264-2.243,6.4-4.5a4.017,4.017,0,0,0,.259-2.958" fill="#9d1823"/>
        <path id="Caminho_4064" data-name="Caminho 4064" d="M43.7,4.327a11.785,11.785,0,0,0-.908,1.131q-.262.361-.535.717c-.332.431-.671.858-1.02,1.275-.7.834-1.433,1.638-2.173,2.435-1.615,1.739-3.266,3.447-4.9,5.166-3.4,3.569-6.715,7.217-9.9,10.978-.691.816.308,2.02,1.159,1.263,4.326-3.853,8.458-7.9,12.552-12.007,1.88-1.885,3.786-3.752,5.53-5.766.5-.58.995-1.169,1.47-1.771a5.9,5.9,0,0,0,1.072-1.571c.547-1.582-1.1-3.25-2.344-1.85" fill="#ffd49e"/>
        <path id="Caminho_4065" data-name="Caminho 4065" d="M36.729.65q-4.248,6.162-9,11.939c-3.134,3.822-6.615,7.37-9.658,11.262-.548.7.49,1.341,1.091.916A64.159,64.159,0,0,0,30.01,14.325,117.548,117.548,0,0,0,39.233,2.249c1.062-1.594-1.42-3.173-2.5-1.6" fill="#ffd49e"/>
        <path id="Caminho_4066" data-name="Caminho 4066" d="M43.5,9.519c.5-.58.995-1.169,1.47-1.771a5.9,5.9,0,0,0,1.072-1.571c.547-1.582-1.1-3.25-2.345-1.85a11.958,11.958,0,0,0-.907,1.131q-.264.361-.536.717c-.33.431-.67.858-1.02,1.275l-.032.038a7.673,7.673,0,0,0,2.248,2.086l.05-.055" fill="#007dca"/>
        <path id="Caminho_4067" data-name="Caminho 4067" d="M34.032,4.439a7.765,7.765,0,0,0,2.55,1.607c.906-1.25,1.795-2.513,2.652-3.8C40.3.656,37.814-.924,36.729.65c-.88,1.277-1.783,2.537-2.7,3.789" fill="#007dca"/>
      </g>
    </g>
    <g id="Grupo_2867" data-name="Grupo 2867">
      <g id="Grupo_2866" data-name="Grupo 2866" clip-path="url(#clip-path-2)">
        <path id="Caminho_4068" data-name="Caminho 4068" d="M50.927,21.18c-2.211-3.248-7.569-4.378-10.961-2.347-.782.468-1.394,1.16-2.151,1.657a5.287,5.287,0,0,1-2.126.81,5.551,5.551,0,0,1-4.4-1.323,10.331,10.331,0,0,0-5.524-2.619,9.014,9.014,0,0,0-5.85,1.314c-1.428.907-2.62,2.343-4.194,3.01-1.517.642-3.168-.142-4.581-.707a10.529,10.529,0,0,0-6.354-.95,7.409,7.409,0,0,0-2.936,1.353,4.7,4.7,0,0,0-1.016,1.03c-.3.44-.443.953-.711,1.41-.522.891.762,1.961,1.469,1.134a7.07,7.07,0,0,1,2.056-1.244,5.976,5.976,0,0,1,2.042-.693c1.667-.211,3.184.543,4.672,1.183a9.6,9.6,0,0,0,5.424,1.035,9.893,9.893,0,0,0,4.483-2.44A7.342,7.342,0,0,1,24.2,20.835a5.9,5.9,0,0,1,4.372,1.445,9.8,9.8,0,0,0,4.791,2.442,9.215,9.215,0,0,0,5.352-.729A11.993,11.993,0,0,0,41.2,22.249a3.728,3.728,0,0,1,2.365-.85c1.469-.041,3.4.262,4.28,1.581a1.825,1.825,0,0,0,2.44.64,1.8,1.8,0,0,0,.64-2.44" fill="#fc9200"/>
        <path id="Caminho_4069" data-name="Caminho 4069" d="M50.628,23.808c-2.185-3.209-7.48-4.326-10.832-2.319-.772.462-1.378,1.146-2.125,1.637a5.235,5.235,0,0,1-2.1.8,5.488,5.488,0,0,1-4.349-1.308,10.214,10.214,0,0,0-5.459-2.588,8.911,8.911,0,0,0-5.782,1.3c-1.411.9-2.589,2.316-4.144,2.975-1.5.635-3.131-.14-4.527-.7a10.408,10.408,0,0,0-6.279-.939A7.343,7.343,0,0,0,2.128,24a4.634,4.634,0,0,0-1,1.017c-.293.435-.438.942-.7,1.394-.516.88.753,1.938,1.452,1.12A6.967,6.967,0,0,1,3.9,26.307a5.892,5.892,0,0,1,2.019-.685c1.647-.209,3.146.536,4.617,1.168a9.489,9.489,0,0,0,5.36,1.023A9.788,9.788,0,0,0,20.33,25.4a7.259,7.259,0,0,1,3.888-1.935A5.834,5.834,0,0,1,28.539,24.9a9.678,9.678,0,0,0,4.735,2.413,9.1,9.1,0,0,0,5.289-.72,11.845,11.845,0,0,0,2.455-1.724,3.679,3.679,0,0,1,2.337-.839c1.451-.041,3.36.258,4.229,1.562A1.8,1.8,0,0,0,50,26.219a1.778,1.778,0,0,0,.632-2.411" fill="#ffcd00"/>
        <path id="Caminho_4070" data-name="Caminho 4070" d="M50.927,26.544C48.716,23.3,43.358,22.166,39.966,24.2c-.782.468-1.394,1.16-2.151,1.657a5.287,5.287,0,0,1-2.126.81,5.551,5.551,0,0,1-4.4-1.323,10.331,10.331,0,0,0-5.524-2.619,9.014,9.014,0,0,0-5.85,1.314c-1.428.907-2.62,2.343-4.194,3.01-1.517.642-3.168-.142-4.581-.707a10.529,10.529,0,0,0-6.354-.95,7.409,7.409,0,0,0-2.936,1.353,4.7,4.7,0,0,0-1.016,1.03c-.3.44-.443.953-.711,1.41-.522.891.762,1.961,1.469,1.134a7.07,7.07,0,0,1,2.056-1.244,5.976,5.976,0,0,1,2.042-.693c1.667-.211,3.184.543,4.672,1.183A9.6,9.6,0,0,0,15.785,30.6a9.893,9.893,0,0,0,4.483-2.44A7.342,7.342,0,0,1,24.2,26.2a5.9,5.9,0,0,1,4.372,1.445,9.8,9.8,0,0,0,4.791,2.442,9.215,9.215,0,0,0,5.352-.729A11.993,11.993,0,0,0,41.2,27.613a3.728,3.728,0,0,1,2.365-.85c1.469-.041,3.4.262,4.28,1.581a1.825,1.825,0,0,0,2.44.64,1.8,1.8,0,0,0,.64-2.44" fill="#fc9200"/>
        <path id="Caminho_4071" data-name="Caminho 4071" d="M50.628,31.981c-2.185-3.209-7.48-4.326-10.832-2.319-.772.462-1.378,1.146-2.125,1.637a5.22,5.22,0,0,1-2.1.8,5.488,5.488,0,0,1-4.349-1.308A10.214,10.214,0,0,0,25.762,28.2a8.911,8.911,0,0,0-5.782,1.3c-1.411.9-2.589,2.316-4.144,2.975-1.5.635-3.131-.14-4.527-.7a10.415,10.415,0,0,0-6.279-.939,7.343,7.343,0,0,0-2.9,1.338,4.634,4.634,0,0,0-1,1.017c-.293.435-.438.942-.7,1.394-.516.88.753,1.938,1.452,1.12A6.967,6.967,0,0,1,3.9,34.48a5.892,5.892,0,0,1,2.019-.685c1.647-.209,3.146.536,4.617,1.168a9.489,9.489,0,0,0,5.36,1.023,9.788,9.788,0,0,0,4.43-2.411,7.259,7.259,0,0,1,3.888-1.935,5.834,5.834,0,0,1,4.321,1.428,9.678,9.678,0,0,0,4.735,2.413,9.1,9.1,0,0,0,5.289-.72,11.845,11.845,0,0,0,2.455-1.724,3.679,3.679,0,0,1,2.337-.839c1.451-.041,3.36.258,4.229,1.562A1.8,1.8,0,0,0,50,34.392a1.778,1.778,0,0,0,.632-2.411" fill="#fc9200"/>
        <path id="Caminho_4072" data-name="Caminho 4072" d="M50.628,29.109C48.443,25.9,43.148,24.783,39.8,26.79c-.772.462-1.378,1.146-2.125,1.637a5.22,5.22,0,0,1-2.1.8,5.488,5.488,0,0,1-4.349-1.308,10.214,10.214,0,0,0-5.459-2.588,8.911,8.911,0,0,0-5.782,1.3c-1.411.9-2.589,2.316-4.144,2.975-1.5.635-3.131-.14-4.527-.7a10.415,10.415,0,0,0-6.279-.939,7.343,7.343,0,0,0-2.9,1.338,4.634,4.634,0,0,0-1,1.017c-.293.435-.438.942-.7,1.394-.516.88.753,1.938,1.452,1.12A6.967,6.967,0,0,1,3.9,31.608a5.892,5.892,0,0,1,2.019-.685c1.647-.209,3.146.536,4.617,1.168a9.489,9.489,0,0,0,5.36,1.023A9.788,9.788,0,0,0,20.33,30.7a7.259,7.259,0,0,1,3.888-1.935A5.834,5.834,0,0,1,28.539,30.2a9.678,9.678,0,0,0,4.735,2.413,9.1,9.1,0,0,0,5.289-.72,11.845,11.845,0,0,0,2.455-1.724,3.679,3.679,0,0,1,2.337-.839c1.451-.041,3.36.258,4.229,1.562A1.8,1.8,0,0,0,50,31.52a1.778,1.778,0,0,0,.632-2.411" fill="#ffcd00"/>
      </g>
    </g>
    <g id="Grupo_2869" data-name="Grupo 2869">
      <g id="Grupo_2868" data-name="Grupo 2868" clip-path="url(#clip-path)">
        <path id="Caminho_4074" data-name="Caminho 4074" d="M19.474,21.333a3.156,3.156,0,0,0-.828-1.529,3.842,3.842,0,0,0-1.561-.942,4.824,4.824,0,0,0-1.427-.249A3.148,3.148,0,0,0,14.026,19a2.512,2.512,0,0,0-.856.828,2.559,2.559,0,0,0-.363,1.246,5.855,5.855,0,0,0,.076,1.214,2.835,2.835,0,0,0,.381,1.4,2.22,2.22,0,0,0,.209.377,3.24,3.24,0,0,0,1.692,1.312,2.7,2.7,0,0,0,2.288-.294,4.166,4.166,0,0,0,.774-.622c.082-.088.155-.175.223-.263a3.324,3.324,0,0,0,.7-.789,2.867,2.867,0,0,0,.32-2.076" fill="#6c9f66"/>
        <path id="Caminho_4075" data-name="Caminho 4075" d="M24.452,22.714l-.006-.075a1.656,1.656,0,0,0-.226-.831c-.01-.018-.02-.036-.031-.054a1.433,1.433,0,0,0-.172-.22c-.01-.025-.02-.049-.031-.073l-.195-.253-.253-.2a.932.932,0,0,0-.465-.148.627.627,0,0,0-.333,0,.61.61,0,0,0-.315.085.623.623,0,0,0-.276.161.925.925,0,0,0-.219.2.9.9,0,0,0-.14.131l-.037.045a1.637,1.637,0,0,0-.421.727c-.006.024-.013.048-.019.072a1.617,1.617,0,0,0,0,.886,1.65,1.65,0,0,0,.189.412l.069.163.227.294.3.228a1.077,1.077,0,0,0,.541.172.723.723,0,0,0,.386,0,.714.714,0,0,0,.367-.1.724.724,0,0,0,.321-.187,1.1,1.1,0,0,0,.375-.408l.022-.04a1.47,1.47,0,0,0,.119-.154,1.556,1.556,0,0,0,.226-.842" fill="#85be5a"/>
        <path id="Caminho_4076" data-name="Caminho 4076" d="M39.384,23.634a3.011,3.011,0,0,0-.622-1.13,2.786,2.786,0,0,0-1.543-.911,3.441,3.441,0,0,0-1.422,0,2.776,2.776,0,0,0-1.214.627,2.562,2.562,0,0,0-.44.461,2.1,2.1,0,0,0-.672.5,3.025,3.025,0,0,0-.488.679,2.692,2.692,0,0,0-.32,1.18,2.031,2.031,0,0,0,.561,1.394,3.01,3.01,0,0,0,1.558.787,5.2,5.2,0,0,0,1.762.183,3.41,3.41,0,0,0,2.037-.85,2.907,2.907,0,0,0,.9-1.979,2.732,2.732,0,0,0-.1-.939" fill="#753a29"/>
        <path id="Caminho_4077" data-name="Caminho 4077" d="M33.146,24.6a1.406,1.406,0,0,0-.126-.2,1.352,1.352,0,0,0-.146-.2,2.342,2.342,0,0,0-.27-.24,1.782,1.782,0,0,0-.321-.167.471.471,0,0,0-.1-.036c-.015,0-.03-.006-.046-.009a2.347,2.347,0,0,0-.312-.046.354.354,0,0,0-.046,0,2.447,2.447,0,0,0-.307.047.381.381,0,0,0-.045.013,2.135,2.135,0,0,0-.285.138,1.125,1.125,0,0,0-.348.313,3.159,3.159,0,0,0-.184.281.5.5,0,0,0-.028.057,2.5,2.5,0,0,0-.136.387,1.85,1.85,0,0,0-.05.561,2.746,2.746,0,0,0,.056.427c.006.022.013.043.02.064.037.109.074.221.12.326a.5.5,0,0,0,.028.057c.047.081.1.158.155.234.008.02.013.041.022.06a1.34,1.34,0,0,0,.1.151,1.054,1.054,0,0,0,.313.321,1.6,1.6,0,0,0,.237.12.343.343,0,0,0,.061.022,1,1,0,0,0,.343.046A1.256,1.256,0,0,0,32.5,27.1a1.884,1.884,0,0,0,.227-.2c.016-.016.031-.033.045-.05A2.744,2.744,0,0,0,33,26.511a1.759,1.759,0,0,0,.137-.291,2.666,2.666,0,0,0,.137-.413,3.49,3.49,0,0,0,.043-.354.648.648,0,0,0,0-.088,1.924,1.924,0,0,0-.178-.765" fill="#d7381a"/>
      </g>
    </g>
  </g>
</svg>
