<svg xmlns="http://www.w3.org/2000/svg" xmlns:xlink="http://www.w3.org/1999/xlink" width="60" height="54" viewBox="0 0 60 54">
  <defs>
    <clipPath id="clip-path">
      <rect id="Retângulo_468" data-name="Retângulo 468" width="60" height="54" transform="translate(206 1323)" fill="none" stroke="#707070" stroke-width="1" opacity="0.4"/>
    </clipPath>
    <clipPath id="clip-path-2">
      <path id="Caminho_3907" data-name="Caminho 3907" d="M88.333-111.645h56.375v-33.464H88.333Z" transform="translate(0 0)" fill="none"/>
    </clipPath>
  </defs>
  <g id="alfabeto_p_e002_fim" transform="translate(-206 -1323)" clip-path="url(#clip-path)">
    <g id="alfabeto_p_e002_fim-2" data-name="alfabeto_p_e002_fim" transform="translate(119.667 1478.109)" clip-path="url(#clip-path-2)">
      <g id="Grupo_2711" data-name="Grupo 2711" transform="translate(127.126 -130.967)">
        <path id="Caminho_3893" data-name="Caminho 3893" d="M9.338,2.764A10.8,10.8,0,0,0,6.382-.4,10.728,10.728,0,0,0,4.414-1.5a2.439,2.439,0,0,0-2.079-.221.855.855,0,0,0-.357.28A24.629,24.629,0,0,0-.916.7,12.244,12.244,0,0,0-2.484,1.969c-.431.409-.84.842-1.246,1.279-.057-.03-.114-.062-.171-.094a.271.271,0,0,0-.287.007.965.965,0,0,0-.969.615,4.354,4.354,0,0,0-.273,1.266,4.518,4.518,0,0,0-.8,1.142A.925.925,0,0,0-6,7.292a.261.261,0,0,0,.2.206c.079.022.159.047.238.067-.037.592-.069,1.182-.069,1.772a11.662,11.662,0,0,0,.166,1.985,22.866,22.866,0,0,0,.453,3.519.846.846,0,0,0,.042.449,2.379,2.379,0,0,0,1.613,1.3,10.925,10.925,0,0,0,2.171.619,11.117,11.117,0,0,0,4.383-.139,15.1,15.1,0,0,0,7.347-4.6.929.929,0,0,0,.2-.332c.05-.045.1-.084.151-.134a.332.332,0,0,0,.079-.216s0,0,0-.007a.027.027,0,0,0,0-.012.267.267,0,0,0,.022-.072v-.027c0-.015.01-.03.012-.045v-.04a.393.393,0,0,0-.015-.094.9.9,0,0,0,.1-.362A14.5,14.5,0,0,0,9.338,2.764" transform="translate(6.318 1.87)" fill="#ffc734"/>
      </g>
      <g id="Grupo_2712" data-name="Grupo 2712" transform="translate(88.378 -141.761)">
        <path id="Caminho_3894" data-name="Caminho 3894" d="M26.139,8.992c-.287-.654-.582-1.306-.877-1.958C21.042,1.113,15.64-3.363,9.614-5.2a14.44,14.44,0,0,0-6.4-.84A17.462,17.462,0,0,0-2.493-4.671,14.7,14.7,0,0,0-8.272-.525a29.251,29.251,0,0,0-4.2,5.677c-.766,1.328-1.489,2.694-2.186,4.084-.139.171-.278.339-.424.5a5.261,5.261,0,0,1-1.194.964l-.012.007c-.109.037-.221.072-.33.121a1.66,1.66,0,0,0-.87.825,2.294,2.294,0,0,0-.161,1.385.46.46,0,0,0,.037.1,4.1,4.1,0,0,0,.278,1.13,17.609,17.609,0,0,0,1.217,2.309c.164.282.325.57.486.855a13.952,13.952,0,0,0,1.105,1.306c.067.069.139.136.208.206a9.313,9.313,0,0,0,1.967,1.281,9.117,9.117,0,0,0,1.227.444c.473.092.952.166,1.43.221.243,0,.486.007.729.022s.491.045.736.069c.134,0,.265,0,.4,0a1.222,1.222,0,0,1,.619.136A40.811,40.811,0,0,1-.223,23.127c1.13.238,2.265.449,3.395.684.934.022,1.871.04,2.805.04,1.061,0,2.116-.035,3.174-.092a1.223,1.223,0,0,1,.426-.1c3.1-.129,6.026-1.794,8.968-2.969.885-.6,1.759-1.224,2.594-1.873a27.141,27.141,0,0,0,3.709-3.851c.54-1.787,1-3.588,1.427-5.407-.045-.188-.087-.377-.136-.565" transform="translate(17.687 6.084)" fill="#ff7d33"/>
      </g>
      <g id="Grupo_2713" data-name="Grupo 2713" transform="translate(95.499 -133.049)">
        <path id="Caminho_3895" data-name="Caminho 3895" d="M7.116,2.918A4.465,4.465,0,0,0,6.152.408,6.343,6.343,0,0,0,4.375-1.024,5.614,5.614,0,0,0-.187-1.753c-.059.02-.114.057-.176.079a1.74,1.74,0,0,0-.51.119A5.881,5.881,0,0,0-2.833-.263a4.35,4.35,0,0,0-.847.8A4.627,4.627,0,0,0-4.741,2.72a4.812,4.812,0,0,0,.183,2.436c.047.121.116.233.168.352a4.485,4.485,0,0,0,.188.781A4.671,4.671,0,0,0-.715,9.4a5.666,5.666,0,0,0,1.6.047,4.842,4.842,0,0,0,1.556.069,4.83,4.83,0,0,0,2.272-.82A5.034,5.034,0,0,0,6.347,6.757a8.221,8.221,0,0,0,.612-1.91,7.53,7.53,0,0,0,.156-1.928" transform="translate(4.815 1.975)" fill="#fff"/>
      </g>
      <g id="Grupo_2714" data-name="Grupo 2714" transform="translate(105.302 -133.939)">
        <path id="Caminho_3896" data-name="Caminho 3896" d="M0,.012l.022,0H.03c.136-.02.183-.027-.03,0" transform="translate(0 0.008)" fill="#2b2e34"/>
      </g>
      <g id="Grupo_2715" data-name="Grupo 2715" transform="translate(99.696 -131.756)">
        <path id="Caminho_3897" data-name="Caminho 3897" d="M3.339,1.624V1.6s0-.01,0-.015c-.01-.062-.1-.61-.114-.669a.019.019,0,0,0,0-.01A.214.214,0,0,0,3.2.854,6.723,6.723,0,0,0,2.917.229L2.9.2c-.067-.089-.191-.233-.218-.268s-.139-.181-.216-.265l-.02-.02a.005.005,0,0,1,0,0C2.261-.484,2.08-.618,1.9-.75a0,0,0,0,1,0,0L1.882-.759,1.869-.767l-.007,0c-.037-.017-.617-.238-.657-.25l-.027-.007A3.96,3.96,0,0,0,.452-1.1l.7.067A4.935,4.935,0,0,0,.435-1.1c-.2.032-.577.089-.7.116,0,0-.007,0-.01,0a2.41,2.41,0,0,0-.327.146,2.584,2.584,0,0,0-.325.149l-.02.015c.191-.149-.379.28-.533.434a.124.124,0,0,0-.017.02c-.144.183-.285.367-.411.562a.078.078,0,0,0-.012.025,5.513,5.513,0,0,0-.258.672c0,.01,0,.015,0,.025a4.739,4.739,0,0,0-.072.716v.027a.027.027,0,0,0,0,.012c.017.112.037.223.057.335s.035.225.057.339a.1.1,0,0,0,.01.025,1.954,1.954,0,0,0,.483.865,1.977,1.977,0,0,0,.756.657,2.2,2.2,0,0,0,.285.124c.03.015.062.025.089.037a1.288,1.288,0,0,0,.136.052,2.718,2.718,0,0,0,.431.164l.7.067A2.623,2.623,0,0,0,2.015,4.1l.022-.015a3.774,3.774,0,0,0,.535-.436.114.114,0,0,0,.017-.017l.4-.545a0,0,0,0,1,0,0s0,0,0-.007L3,3.069s0-.007,0-.012,0,0,0,0c.007-.022.24-.634.248-.654a.188.188,0,0,0,.01-.027,3.415,3.415,0,0,0,.072-.746" transform="translate(2.259 1.099)" fill="#2b2e34"/>
      </g>
      <g id="Grupo_2716" data-name="Grupo 2716" transform="translate(113.33 -123.068)">
        <path id="Caminho_3898" data-name="Caminho 3898" d="M3.974,5.224A.5.5,0,0,0,4.13,5.08,8.159,8.159,0,0,0,5.758.625a5.962,5.962,0,0,0-.446-2.359A5.631,5.631,0,0,0,4.72-2.82a1.309,1.309,0,0,0-.9-.709.462.462,0,0,0-.245.027,13.008,13.008,0,0,0-1.965.168,6.662,6.662,0,0,0-1.1.141c-.491.1-.974.248-1.455.384a5.05,5.05,0,0,0-1.507.518.52.52,0,0,0-.221.587.151.151,0,0,0,.032.156l6.019,6.8a.147.147,0,0,0,.042.03.333.333,0,0,0,.055.077.222.222,0,0,0,.089.047.174.174,0,0,0,.136.02l.017,0h0a.191.191,0,0,0,.059-.03s0,0,0,0,.015,0,.02,0h0a.174.174,0,0,0,.109-.069c.02-.03.035-.062.055-.094" transform="translate(2.689 3.534)" fill="#ffc734"/>
      </g>
      <g id="Grupo_2717" data-name="Grupo 2717" transform="translate(102.847 -145.063)">
        <path id="Caminho_3899" data-name="Caminho 3899" d="M.006,3.94a.2.2,0,0,0,.007.114c.007.02.032.03.042.047a22.9,22.9,0,0,1,6.428-1.14,19.564,19.564,0,0,1,7.461,1.006A30.785,30.785,0,0,1,20.008,6.43c.161.015.325.035.486.04a8.491,8.491,0,0,0,5.432-2.086c1.6-1.177,1.462-3.149,2.267-4.862.114-.243-.094-.461-.387-.421a39.339,39.339,0,0,1-12.065-.6l-.069-.022a5.957,5.957,0,0,0-1.507-.268c-.679-.129-1.36-.255-2.039-.389a18.4,18.4,0,0,0-3.095-.483A10.35,10.35,0,0,0,3.446-.635C1.748.428.148,1.8,0,3.736a.219.219,0,0,0,.032.136.153.153,0,0,0-.022.067" transform="translate(0.004 2.666)" fill="#ffc734"/>
      </g>
      <g id="Grupo_2718" data-name="Grupo 2718" transform="translate(117.493 -120.102)">
        <path id="Caminho_3900" data-name="Caminho 3900" d="M3.713.884Q.728.066-2.291-.593c-.245-.055-.312.33-.067.384q3.018.658,6,1.477c.24.069.307-.317.067-.384" transform="translate(2.512 0.598)" fill="#ff7d33"/>
      </g>
      <g id="Grupo_2719" data-name="Grupo 2719" transform="translate(117.024 -118.939)">
        <path id="Caminho_3901" data-name="Caminho 3901" d="M3.083,2.295Q.7.329-1.788-1.514c-.2-.151-.419.173-.218.325Q.48.651,2.865,2.617c.193.159.411-.166.218-.322" transform="translate(2.086 1.553)" fill="#ff7d33"/>
      </g>
      <g id="Grupo_2720" data-name="Grupo 2720" transform="translate(117.555 -121.947)">
        <path id="Caminho_3902" data-name="Caminho 3902" d="M4.366,0Q.809.03-2.753.057c-.248,0-.278.392-.025.392L4.339.389c.25,0,.28-.392.027-.389" transform="translate(2.954 0)" fill="#ff7d33"/>
      </g>
      <g id="Grupo_2721" data-name="Grupo 2721" transform="translate(130.084 -122.439)">
        <path id="Caminho_3903" data-name="Caminho 3903" d="M3.713.885Q.728.067-2.291-.594c-.245-.052-.312.332-.067.387Q.664.45,3.648,1.269c.24.067.3-.32.064-.384" transform="translate(2.512 0.599)" fill="#ff7d33"/>
      </g>
      <g id="Grupo_2722" data-name="Grupo 2722" transform="translate(129.102 -121.038)">
        <path id="Caminho_3904" data-name="Caminho 3904" d="M2.357,3.038Q.618.481-1.253-1.982c-.154-.2-.451.05-.3.248Q.32.726,2.057,3.289c.144.206.441-.045.3-.25" transform="translate(1.595 2.056)" fill="#ff7d33"/>
      </g>
      <g id="Grupo_2723" data-name="Grupo 2723" transform="translate(130.196 -124.969)">
        <path id="Caminho_3905" data-name="Caminho 3905" d="M4.307,0-2.74,1c-.245.035-.225.424.025.389l7.05-1C4.579.356,4.557-.033,4.307,0" transform="translate(2.914 0.001)" fill="#ff7d33"/>
      </g>
      <g id="Grupo_2724" data-name="Grupo 2724" transform="translate(105.749 -127.789)">
        <path id="Caminho_3906" data-name="Caminho 3906" d="M3.481.209C3.488-.2,2.857-.282,2.849.127A11.473,11.473,0,0,1-2.223,9.392c-.342.225.05.729.387.5A12.058,12.058,0,0,0,3.481.209" transform="translate(2.355 0.141)" fill="#ff4227"/>
      </g>
    </g>
  </g>
</svg>
