<svg xmlns="http://www.w3.org/2000/svg" xmlns:xlink="http://www.w3.org/1999/xlink" width="60" height="54" viewBox="0 0 60 54">
  <defs>
    <clipPath id="clip-path">
      <rect id="Retângulo_466" data-name="Retângulo 466" width="60" height="54" transform="translate(276 1233)" fill="none" stroke="#707070" stroke-width="1" opacity="0.4"/>
    </clipPath>
    <clipPath id="clip-path-2">
      <path id="Caminho_3759" data-name="Caminho 3759" d="M161.19-194.867h57.889v-36H161.19Z" transform="translate(0 0)" fill="none"/>
    </clipPath>
  </defs>
  <g id="alfabeto_e_e002_fim" transform="translate(-276 -1233)" clip-path="url(#clip-path)">
    <g id="alfabeto_e_e002_fim-2" data-name="alfabeto_e_e002_fim" transform="translate(115.81 1473.867)" clip-path="url(#clip-path-2)">
      <g id="Grupo_2567" data-name="Grupo 2567" transform="translate(169.789 -226.538)">
        <path id="Caminho_3749" data-name="Caminho 3749" d="M5,9.662a13.287,13.287,0,0,1-.085-2.111c-.469-3.4-.332-7.4,1.244-9.915a7.3,7.3,0,0,1,1.5-1.722,7.6,7.6,0,0,1,1.767-1.9c.05-.038.1-.064.154-.1.211-.182.424-.358.64-.521a5.7,5.7,0,0,1,.573-.379,2.58,2.58,0,0,0-.528-.071c-1.691-.036-3.1,1.272-4.29,2.283C4.5-3.51,3.153-2.122,1.8-.72A24.574,24.574,0,0,1-.22,1.2c-.713.592-1.54.985-2.279,1.53A3.454,3.454,0,0,0-3.33,6.851,13.631,13.631,0,0,0,.135,11.086a26.393,26.393,0,0,1,3.792,4.2C5.394,14,4.657,12.656,5,9.662" transform="translate(3.655 7.059)" fill="#6f7175"/>
      </g>
      <g id="Grupo_2568" data-name="Grupo 2568" transform="translate(161.279 -228.892)">
        <path id="Caminho_3750" data-name="Caminho 3750" d="M27.978,7.4C27.294-2.3,16.251-7.381,7.612-4.69a7.8,7.8,0,0,0-3.406.831q-.412.206-.81.433A6.146,6.146,0,0,0,1.948-2.6c-.216.163-.426.339-.64.521-.05.036-.1.062-.154.1A7.637,7.637,0,0,0-.61-.078,7.312,7.312,0,0,0-2.116,1.644c-1.575,2.513-1.713,6.519-1.241,9.915a13.287,13.287,0,0,0,.085,2.111c-.419,3.624.756,4.837-2.319,6.441-5.439,2.835-6.8-2.445-8.054-6.526,0,0,0,0,0,0-.057-.185-.114-.37-.171-.55,0-.017-.014-.031-.019-.047a8.769,8.769,0,0,1-.13-1.433,2.3,2.3,0,0,0-.144-.379,1,1,0,0,0-.346-.377,1.236,1.236,0,0,0-.812-.287q-1.919.2-3.837.41a1.689,1.689,0,0,0-.68.182,1.334,1.334,0,0,0-.547.644,1.317,1.317,0,0,0,.277,1.466c.471.4,1.007.237,1.549.81,1.042,7.724,2.193,13.414,10.415,14.227a24.683,24.683,0,0,0,7.454-.374c.142-.026.289-.043.433-.062.251-.043.5-.083.756-.128.592-.1,1.182-.22,1.769-.351.066-.014.133-.028.2-.045A11.8,11.8,0,0,1,3.682,27c1.926-.251,10.271.592,14.253-2.134a16.094,16.094,0,0,0,1.642-1.3A13.042,13.042,0,0,0,24.157,18.1,13.786,13.786,0,0,0,27.978,7.4" transform="translate(20.441 5.406)" fill="#9a9b9f"/>
      </g>
      <g id="Grupo_2569" data-name="Grupo 2569" transform="translate(194.229 -226.888)">
        <path id="Caminho_3751" data-name="Caminho 3751" d="M13.877,8.143c-.478-.786-1.1-1.461-1.535-2.279A24.231,24.231,0,0,1,11.2,3.323c-.722-1.8-1.443-3.6-2.34-5.332C8.136-3.392,7.323-5.136,5.743-5.74a7.371,7.371,0,0,0-2.769-.144,10.776,10.776,0,0,0-2.087.178c-.31.054-.616.121-.924.185-.3.012-.6.033-.9.036-2.113.021-3.584-.118-5.54.808a6.793,6.793,0,0,0-1.191.734A4.044,4.044,0,0,0-9.86-.955c-.017.045-.038.088-.054.133A.439.439,0,0,0-9.9-.5c0,.024,0,.047,0,.069A3.284,3.284,0,0,0-10.137.886a5.182,5.182,0,0,0,1.1,2.641c1.353,1.942,3.184,3.565,4.235,5.7a38,38,0,0,1,2.563,6.521,15.756,15.756,0,0,1,.58,3.361,3.4,3.4,0,0,0,.907,2.686c.775.67,1.8-.327,1.8-.758a.484.484,0,0,0,.14-.237.513.513,0,0,0,.1-.211c.827-3.74,3.792-4.427,6.995-5.7a13.559,13.559,0,0,0,4.806-2.613,3.451,3.451,0,0,0,.786-4.129" transform="translate(10.139 5.95)" fill="#6f7175"/>
      </g>
      <g id="Grupo_2570" data-name="Grupo 2570" transform="translate(184.529 -215.891)">
        <path id="Caminho_3752" data-name="Caminho 3752" d="M6.214,2.122A4.1,4.1,0,0,0,5-.019,5.885,5.885,0,0,0,3.2-1.073a5.149,5.149,0,0,0-4.223-.04c-.052.028-.1.069-.149.1a1.579,1.579,0,0,0-.445.178A5.332,5.332,0,0,0-3.218.594a4.046,4.046,0,0,0-.659.839,4.278,4.278,0,0,0-.663,2.12,4.405,4.405,0,0,0,.5,2.179c.059.1.137.194.2.294a4.024,4.024,0,0,0,.275.682A4.278,4.278,0,0,0,.01,9.048a5.178,5.178,0,0,0,1.452-.175,4.433,4.433,0,0,0,1.416-.147A4.417,4.417,0,0,0,4.824,7.672,4.566,4.566,0,0,0,6.041,5.7a7.6,7.6,0,0,0,.291-1.812,6.68,6.68,0,0,0-.118-1.765" transform="translate(4.54 1.55)" fill="#fff"/>
      </g>
      <g id="Grupo_2571" data-name="Grupo 2571" transform="translate(188.003 -211.988)">
        <path id="Caminho_3753" data-name="Caminho 3753" d="M0,.021l.021,0h0c.121-.038.163-.05-.026,0" transform="translate(0 0.016)" fill="#2b2e34"/>
      </g>
      <g id="Grupo_2572" data-name="Grupo 2572" transform="translate(185.947 -211.994)">
        <path id="Caminho_3754" data-name="Caminho 3754" d="M2.935,1.217a.084.084,0,0,0,0-.024.1.1,0,0,0,0-.012c-.017-.054-.178-.538-.194-.59,0,0,0,0,0-.007A.27.27,0,0,0,2.707.54,5.927,5.927,0,0,0,2.364.012a.135.135,0,0,0-.017-.019c-.073-.073-.2-.187-.232-.213s-.152-.144-.232-.211L1.862-.446l-.007,0q-.27-.142-.547-.284v0a.034.034,0,0,0-.014,0s-.007,0-.012,0l-.007,0C1.239-.758.682-.879.647-.886a.106.106,0,0,0-.026,0,3.668,3.668,0,0,0-.666.036l.64-.033a4.7,4.7,0,0,0-.659.033c-.171.054-.507.159-.618.2,0,0-.007,0-.009,0a2.238,2.238,0,0,0-.275.178,2.871,2.871,0,0,0-.275.178.109.109,0,0,1-.017.017c.154-.159-.3.308-.422.467a.131.131,0,0,0-.014.019C-1.8.4-1.9.582-1.987.774A.163.163,0,0,0-2,.8a6.013,6.013,0,0,0-.142.644c0,.007,0,.014,0,.021a4.317,4.317,0,0,0,.036.659.081.081,0,0,0,0,.024s0,.007,0,.012c.033.1.064.2.1.3s.062.2.1.3a.115.115,0,0,0,.009.026,1.8,1.8,0,0,0,.557.713,1.811,1.811,0,0,0,.772.493,2,2,0,0,0,.277.073c.026.012.057.014.085.024s.085.021.128.026a2.63,2.63,0,0,0,.415.09l.637-.033a2.418,2.418,0,0,0,1.1-.523l.019-.017a3.607,3.607,0,0,0,.424-.467.052.052,0,0,0,.012-.019l.287-.545,0,0,0,0s0-.007,0-.012,0-.007,0-.012,0,0,0,0l.137-.628c0-.009,0-.017,0-.024a3.012,3.012,0,0,0-.036-.685" transform="translate(2.144 0.889)" fill="#2b2e34"/>
      </g>
      <g id="Grupo_2573" data-name="Grupo 2573" transform="translate(176.255 -214.736)">
        <path id="Caminho_3755" data-name="Caminho 3755" d="M4.283,1.463A2.836,2.836,0,0,0,3.447-.013,4.038,4.038,0,0,0,2.205-.74,3.545,3.545,0,0,0-.706-.766a1.066,1.066,0,0,0-.1.064,1.164,1.164,0,0,0-.308.123,3.718,3.718,0,0,0-1.1.99,2.812,2.812,0,0,0-.455.578A2.962,2.962,0,0,0-3.129,2.45a3.033,3.033,0,0,0,.343,1.5c.04.073.095.135.137.2a3.032,3.032,0,0,0,.189.469A2.945,2.945,0,0,0,.007,6.236a3.557,3.557,0,0,0,1-.121,3.142,3.142,0,0,0,.978-.1,3.034,3.034,0,0,0,1.338-.725,3.131,3.131,0,0,0,.839-1.36,5.206,5.206,0,0,0,.2-1.248,4.764,4.764,0,0,0-.083-1.218" transform="translate(3.129 1.069)" fill="#fff"/>
      </g>
      <g id="Grupo_2574" data-name="Grupo 2574" transform="translate(179.968 -211.939)">
        <path id="Caminho_3756" data-name="Caminho 3756" d="M0,.015l.014,0h0C.1-.016.13-.023,0,.015" transform="translate(0 0.011)" fill="#2b2e34"/>
      </g>
      <g id="Grupo_2575" data-name="Grupo 2575" transform="translate(178.552 -211.942)">
        <path id="Caminho_3757" data-name="Caminho 3757" d="M2.023.838s0-.009,0-.014,0-.007,0-.009C2.006.777,1.895.445,1.883.407a.008.008,0,0,1,0,0L1.866.372C1.788.248,1.717.123,1.627.007a.042.042,0,0,0-.009-.012c-.05-.05-.14-.13-.161-.147s-.1-.1-.161-.144L1.284-.308s0,0,0,0c-.126-.064-.251-.13-.379-.2,0,0-.007,0-.009,0l-.007,0s0,0,0,0C.852-.524.469-.607.443-.611H.426a2.456,2.456,0,0,0-.457.024C.116-.595.26-.6.407-.611a3.218,3.218,0,0,0-.452.024c-.116.038-.351.109-.426.14l-.007,0c-.064.031-.2.13-.189.121A2.1,2.1,0,0,0-.855-.2L-.867-.19c.107-.109-.211.211-.291.322a.05.05,0,0,0-.009.014c-.071.126-.142.253-.2.388a.034.034,0,0,0,0,.014,3.55,3.55,0,0,0-.1.445.03.03,0,0,0,0,.014,3.214,3.214,0,0,0,.024.455.04.04,0,0,0,0,.017.009.009,0,0,0,0,.007c.021.069.043.137.066.2s.043.137.066.206a.059.059,0,0,0,.009.017,1.228,1.228,0,0,0,.384.493,1.214,1.214,0,0,0,.531.336A1.155,1.155,0,0,0-.2,2.795c.017.007.038.009.057.017s.059.014.09.017a1.6,1.6,0,0,0,.284.064l.441-.024a1.672,1.672,0,0,0,.756-.36S1.438,2.5,1.44,2.5a2.371,2.371,0,0,0,.294-.322.024.024,0,0,0,.009-.012l.2-.377v0l0,0,0-.007a.014.014,0,0,1,0-.009v0c0-.014.092-.417.095-.431s0-.012,0-.019A2.1,2.1,0,0,0,2.023.838" transform="translate(1.478 0.612)" fill="#2b2e34"/>
      </g>
      <g id="Grupo_2576" data-name="Grupo 2576" transform="translate(183.152 -201.685)">
        <path id="Caminho_3758" data-name="Caminho 3758" d="M4.049,1.22A1.42,1.42,0,0,0,3.736.566C3.722.549,3.7.54,3.689.523A1.2,1.2,0,0,0,3.16-.036c-.8-.415-1.734.031-2.577.014a1.4,1.4,0,0,1-.14-.017A5.049,5.049,0,0,1-.383-.083a2.834,2.834,0,0,1-.81-.256c-.09-.024-.178-.054-.263-.085A1.943,1.943,0,0,1-1.97-.747.691.691,0,0,0-2.044-.78l-.036-.014c-.081-.024-.159-.05-.237-.076-.014,0-.026-.014-.043-.021-.37.028-.741.374-.545.777.021.045.047.09.071.135A6.911,6.911,0,0,0-1.042,2.449a3.9,3.9,0,0,0,2.513.874,1.377,1.377,0,0,0,.711.223.125.125,0,0,1,.028.007c.024,0,.047-.007.071,0a1.385,1.385,0,0,0,.14-.009,1,1,0,0,0,.268-.054.306.306,0,0,0,.05-.012c.024-.007.045-.021.069-.031a.5.5,0,0,0,.073-.033A2.183,2.183,0,0,0,4.075,2.03a.379.379,0,0,0,.012-.05.891.891,0,0,0,.024-.156,1.278,1.278,0,0,0-.062-.6" transform="translate(2.958 0.891)" fill="#fff"/>
      </g>
    </g>
  </g>
</svg>
