<svg xmlns="http://www.w3.org/2000/svg" xmlns:xlink="http://www.w3.org/1999/xlink" width="44.411" height="40" viewBox="0 0 44.411 40">
  <defs>
    <clipPath id="clip-path">
      <path id="Caminho_3930" data-name="Caminho 3930" d="M161.79-112.534H206.2v-40H161.79Z" transform="translate(0)" fill="none"/>
    </clipPath>
  </defs>
  <g id="alfabeto_r_e002_fim" transform="translate(-161.79 152.534)" clip-path="url(#clip-path)">
    <g id="Grupo_2734" data-name="Grupo 2734" transform="translate(165.472 -152.129)">
      <path id="Caminho_3916" data-name="Caminho 3916" d="M18.076,4.7a13.027,13.027,0,0,0-7.924-8.321A21.538,21.538,0,0,0-2.092-4.746a17.3,17.3,0,0,0-2.24.208A17.78,17.78,0,0,0-10.425-2.38a5.476,5.476,0,0,0-1.565.6c-11.53,8.656-9.9,27.65,1.894,32.1,10.907,4.111,28.407-1.156,29.2-15.367A59.076,59.076,0,0,0,18.076,4.7" transform="translate(19.839 5.164)" fill="#72c1e8"/>
    </g>
    <g id="Grupo_2735" data-name="Grupo 2735" transform="translate(167.142 -152.129)">
      <path id="Caminho_3917" data-name="Caminho 3917" d="M18.076,4.7a13.022,13.022,0,0,0-7.924-8.321A21.536,21.536,0,0,0-2.092-4.746a17.244,17.244,0,0,0-2.238.208A17.775,17.775,0,0,0-10.425-2.38a5.476,5.476,0,0,0-1.565.6c-11.53,8.656-9.9,27.65,1.9,32.1,10.9,4.111,28.407-1.156,29.2-15.367A59.076,59.076,0,0,0,18.076,4.7" transform="translate(19.839 5.164)" fill="#0081c9"/>
    </g>
    <g id="Grupo_2736" data-name="Grupo 2736" transform="translate(169.694 -148.754)">
      <path id="Caminho_3918" data-name="Caminho 3918" d="M12.484,1.047C7.292-1.787.266-1.787-5.117.527c-5.424,2.33-7.994,7.151-8.04,12.573-1.344,4.8-.313,10.11,4.367,12.885,4.646,2.756,11.417,2.838,16.472,1.472,5.575-1.506,10.5-5.9,11.675-11.96a13.585,13.585,0,0,0-6.872-14.45" transform="translate(13.702 1.149)" fill="#fff"/>
    </g>
    <g id="Grupo_2737" data-name="Grupo 2737" transform="translate(184.95 -143.966)">
      <path id="Caminho_3919" data-name="Caminho 3919" d="M.241.4c-.231,4.029-.44,5.9-.5,9.94a.876.876,0,0,0,1.751,0c.065-4.036.273-5.911.5-9.94C2.054-.724.3-.72.241.4" transform="translate(0.264 0.441)" fill="#0081c9"/>
    </g>
    <g id="Grupo_2738" data-name="Grupo 2738" transform="translate(186.095 -133.483)">
      <path id="Caminho_3920" data-name="Caminho 3920" d="M3.559,0-3.124.538c-1.04.059-1.045,1.812,0,1.751l6.683-.537C4.6,1.692,4.6-.06,3.559,0" transform="translate(3.906 0.001)" fill="#0081c9"/>
    </g>
    <g id="Grupo_2739" data-name="Grupo 2739" transform="translate(183.782 -134.79)">
      <path id="Caminho_3921" data-name="Caminho 3921" d="M2.045.629c-.01-.04-.019-.08-.031-.12C2.008.488,2,.469,1.993.448a1.563,1.563,0,0,0-.688-.889A1.545,1.545,0,0,0,.757-.613C.738-.617.72-.626.7-.63A2.43,2.43,0,0,0-.585-.575,2.428,2.428,0,0,0-1.672.117a2.09,2.09,0,0,0-.34.5,2.471,2.471,0,0,0-.227.892A2.019,2.019,0,0,0-.77,3.563a1.96,1.96,0,0,0,.656.055c.019.008.036.021.055.027A1.715,1.715,0,0,0,2.066,1.82V1.814c.011-.092.021-.183.029-.273a2.71,2.71,0,0,0-.05-.912" transform="translate(2.244 0.691)" fill="#ff7d33"/>
    </g>
    <g id="Grupo_2740" data-name="Grupo 2740" transform="translate(184.869 -147.726)">
      <path id="Caminho_3922" data-name="Caminho 3922" d="M.666.214A.554.554,0,0,0,.515-.021.515.515,0,0,0,.28-.172.547.547,0,0,0,0-.235c-.065.01-.13.017-.195.025a.74.74,0,0,0-.321.189A.754.754,0,0,0-.731.5v.789a.551.551,0,0,0,.063.281A.536.536,0,0,0-.517,1.8a.554.554,0,0,0,.233.151A.553.553,0,0,0,0,2.013c.065-.008.13-.015.193-.025A.725.725,0,0,0,.515,1.8a.758.758,0,0,0,.214-.516V.5A.547.547,0,0,0,.666.214" transform="translate(0.731 0.235)" fill="#ff7d33"/>
    </g>
    <g id="Grupo_2741" data-name="Grupo 2741" transform="translate(194.796 -144.554)">
      <path id="Caminho_3923" data-name="Caminho 3923" d="M.933.478A.556.556,0,0,0,.992.205.565.565,0,0,0,.933-.068.564.564,0,0,0,.78-.311C.729-.351.675-.391.624-.429a.744.744,0,0,0-.361-.1.758.758,0,0,0-.516.214L-.81.245A.54.54,0,0,0-.965.49a.536.536,0,0,0-.059.273.54.54,0,0,0,.059.273.525.525,0,0,0,.155.243c.05.04.1.078.155.118a.722.722,0,0,0,.359.1.759.759,0,0,0,.518-.214L.78.721A.543.543,0,0,0,.933.478" transform="translate(1.024 0.525)" fill="#ff7d33"/>
    </g>
    <g id="Grupo_2742" data-name="Grupo 2742" transform="translate(175.222 -124.579)">
      <path id="Caminho_3924" data-name="Caminho 3924" d="M.934.478A.556.556,0,0,0,.993.205.553.553,0,0,0,.934-.066.536.536,0,0,0,.779-.311c-.052-.04-.1-.078-.155-.12A.77.77,0,0,0,.263-.525a.762.762,0,0,0-.518.214L-.811.247A.531.531,0,0,0-.966.49a.558.558,0,0,0-.059.271.568.568,0,0,0,.059.275.541.541,0,0,0,.155.243c.052.038.105.08.155.118a.75.75,0,0,0,.361.1.767.767,0,0,0,.518-.214L.779.723A.546.546,0,0,0,.934.478" transform="translate(1.025 0.525)" fill="#ff7d33"/>
    </g>
    <g id="Grupo_2743" data-name="Grupo 2743" transform="translate(194.797 -126.421)">
      <path id="Caminho_3925" data-name="Caminho 3925" d="M.478.028A.568.568,0,0,0,.2-.031.553.553,0,0,0-.068.028.547.547,0,0,0-.311.183c-.042.052-.08.1-.12.155A.729.729,0,0,0-.525.7a.757.757,0,0,0,.214.514l.556.558a.557.557,0,0,0,.243.155.543.543,0,0,0,.273.057.534.534,0,0,0,.273-.057.563.563,0,0,0,.245-.155L1.4,1.617a.7.7,0,0,0,.1-.359A.757.757,0,0,0,1.279.739L.721.183A.557.557,0,0,0,.478.028" transform="translate(0.525 0.031)" fill="#ff7d33"/>
    </g>
    <g id="Grupo_2744" data-name="Grupo 2744" transform="translate(174.527 -143.545)">
      <path id="Caminho_3926" data-name="Caminho 3926" d="M.478.028A.556.556,0,0,0,.205-.031.56.56,0,0,0-.068.028.541.541,0,0,0-.311.183c-.04.052-.08.1-.118.155A.729.729,0,0,0-.525.7a.762.762,0,0,0,.214.518l.556.556a.546.546,0,0,0,.245.155.553.553,0,0,0,.271.059.568.568,0,0,0,.275-.059.541.541,0,0,0,.243-.155c.038-.052.078-.105.118-.155a.729.729,0,0,0,.1-.361A.763.763,0,0,0,1.279.741L.721.183A.531.531,0,0,0,.478.028" transform="translate(0.525 0.031)" fill="#ff7d33"/>
    </g>
    <g id="Grupo_2745" data-name="Grupo 2745" transform="translate(184.587 -122.762)">
      <path id="Caminho_3927" data-name="Caminho 3927" d="M.666.214A.549.549,0,0,0,.515-.021.554.554,0,0,0,.28-.172.533.533,0,0,0,0-.235c-.065.01-.13.017-.195.025a.739.739,0,0,0-.323.189A.761.761,0,0,0-.731.5v.789a.55.55,0,0,0,.061.281A.572.572,0,0,0-.519,1.8a.532.532,0,0,0,.235.149A.535.535,0,0,0,0,2.013C.064,2.005.127,2,.192,1.988A.735.735,0,0,0,.515,1.8a.758.758,0,0,0,.214-.516V.5A.551.551,0,0,0,.666.214" transform="translate(0.731 0.235)" fill="#ff7d33"/>
    </g>
    <g id="Grupo_2746" data-name="Grupo 2746" transform="translate(199.285 -133.623)">
      <path id="Caminho_3928" data-name="Caminho 3928" d="M.858.666A.531.531,0,0,0,1.093.515.554.554,0,0,0,1.244.28.529.529,0,0,0,1.307,0C1.3-.066,1.29-.131,1.282-.2a.739.739,0,0,0-.189-.323A.761.761,0,0,0,.577-.731H-.213A.55.55,0,0,0-.494-.67a.572.572,0,0,0-.235.151.532.532,0,0,0-.149.235A.535.535,0,0,0-.941,0c.008.065.015.13.025.193A.725.725,0,0,0-.729.515.758.758,0,0,0-.213.729H.577A.551.551,0,0,0,.858.666" transform="translate(0.941 0.731)" fill="#ff7d33"/>
    </g>
    <g id="Grupo_2747" data-name="Grupo 2747" transform="translate(171.6 -132.894)">
      <path id="Caminho_3929" data-name="Caminho 3929" d="M.858.667A.572.572,0,0,0,1.094.516.554.554,0,0,0,1.245.281.554.554,0,0,0,1.308,0C1.3-.065,1.29-.13,1.281-.195a.735.735,0,0,0-.187-.323A.767.767,0,0,0,.578-.732H-.212a.551.551,0,0,0-.281.063.554.554,0,0,0-.235.151.554.554,0,0,0-.151.235A.551.551,0,0,0-.942,0c.01.065.017.13.027.195A.746.746,0,0,0-.728.516.765.765,0,0,0-.212.728H.578A.566.566,0,0,0,.858.667" transform="translate(0.942 0.732)" fill="#ff7d33"/>
    </g>
  </g>
</svg>
