<svg xmlns="http://www.w3.org/2000/svg" xmlns:xlink="http://www.w3.org/1999/xlink" width="60" height="54" viewBox="0 0 60 54">
  <defs>
    <clipPath id="clip-path">
      <rect id="Retângulo_466" data-name="Retângulo 466" width="60" height="54" transform="translate(819 1236)" fill="none" stroke="#707070" stroke-width="1" opacity="0.4"/>
    </clipPath>
    <clipPath id="clip-path-2">
      <path id="Caminho_3872" data-name="Caminho 3872" d="M456.664-192.767h61v-36.859h-61Z" transform="translate(0 0)" fill="none"/>
    </clipPath>
  </defs>
  <g id="alfabeto_m_e002_fim" transform="translate(-819 -1236)" clip-path="url(#clip-path)">
    <g id="alfabeto_m_e002_fim-2" data-name="alfabeto_m_e002_fim" transform="translate(361.336 1474.626)" clip-path="url(#clip-path-2)">
      <g id="Grupo_2681" data-name="Grupo 2681" transform="translate(456.901 -229.053)">
        <path id="Caminho_3863" data-name="Caminho 3863" d="M35.775,0c-1.194.127-2.393.256-3.592.38a1.991,1.991,0,0,0-.153.261,2.021,2.021,0,0,0-.4-.209c-1.989.2-3.985.362-5.976.433a202.772,202.772,0,0,0-45.4,10.659A2.382,2.382,0,0,0-21.4,13.714a2.756,2.756,0,0,0-.357,1.136,15.936,15.936,0,0,0,2.469,9.212,31.976,31.976,0,0,0,5.366,7.062C-9.1,35.74-2.28,36.286,4.082,36.078A90.709,90.709,0,0,0,14.569,35.05a34.568,34.568,0,0,0,9.23-2.57,24.709,24.709,0,0,0,11.681-11.3A24.966,24.966,0,0,0,36.319.858,3,3,0,0,0,35.775,0" transform="translate(21.802)" fill="#46ac46"/>
      </g>
      <g id="Grupo_2682" data-name="Grupo 2682" transform="translate(458.514 -229.087)">
        <path id="Caminho_3864" data-name="Caminho 3864" d="M33.122.239c-.7-.924-2.269-.013-1.563.924,3.346,4.437,3.029,10.355.79,15.22a28.356,28.356,0,0,1-4.434,6.84,16.46,16.46,0,0,1-6.75,4.358A62.964,62.964,0,0,1,13,30.19a27.24,27.24,0,0,1-2.984.491.89.89,0,0,0-.658-.137c-.753.132-1.511.24-2.269.33-1.035.021-2.07.008-3.1-.058a50.668,50.668,0,0,1-8.6-1.418c-1.5-.367-3.021-.761-4.511-1.239a.889.889,0,0,0-.327-1.545,21.055,21.055,0,0,1-3.011-.893,5.512,5.512,0,0,1-2.015-1.606,14.7,14.7,0,0,1-2.765-4.7.926.926,0,0,0-1.088-.642,33.4,33.4,0,0,1-.048-6.417c.069-1.175-1.825-1.175-1.809,0,.061,4.767,1.122,10.738,5.126,14.367a10.42,10.42,0,0,0,2.971,2.306,16.227,16.227,0,0,0,3.156,1.8A31.221,31.221,0,0,0-2.8,32.107a44.087,44.087,0,0,0,6.05.805A27.426,27.426,0,0,0,7.228,32.7a32.959,32.959,0,0,0,4.17-.341,50.284,50.284,0,0,0,9.182-2.62,20.992,20.992,0,0,0,7.643-4.2A27.162,27.162,0,0,0,33.4,18.348c2.9-5.612,3.732-12.793-.277-18.109" transform="translate(20.185 0.146)" fill="#9ad58c"/>
      </g>
      <g id="Grupo_2683" data-name="Grupo 2683" transform="translate(458.969 -228.847)">
        <path id="Caminho_3865" data-name="Caminho 3865" d="M32.306,0c-1.077.111-7.344.7-9.143.761a187.547,187.547,0,0,0-41,9.354,2.1,2.1,0,0,0-1.492,1.923,2.366,2.366,0,0,0-.32,1,13.688,13.688,0,0,0,2.229,8.086,28.127,28.127,0,0,0,4.846,6.2c4.352,4.054,10.514,4.532,16.26,4.347a84.349,84.349,0,0,0,9.47-.9,32.042,32.042,0,0,0,8.332-2.255,22.035,22.035,0,0,0,10.548-9.917A21.339,21.339,0,0,0,32.8.753,2.6,2.6,0,0,0,32.306,0" transform="translate(19.688)" fill="#ff6e88"/>
      </g>
      <g id="Grupo_2684" data-name="Grupo 2684" transform="translate(467.649 -215.586)">
        <path id="Caminho_3866" data-name="Caminho 3866" d="M2.329,1.12A.131.131,0,0,0,2.308,1.1c-.008-.011-.018-.021-.026-.032-.021-.029-.042-.058-.063-.09S2.166.892,2.142.848c.04.069,0,0-.016-.032C2.052.655,1.989.486,1.917.322a1.912,1.912,0,0,0-.774-.959A.446.446,0,0,0,.689-.6Q-.269.153-1.228.9a.467.467,0,0,0-.114.631.455.455,0,0,0,.629.114l.238-.188A.406.406,0,0,0-.4,1.516,1.333,1.333,0,0,0,.4,1.6a6.516,6.516,0,0,1,1.439.267.452.452,0,0,0,.491-.75" transform="translate(1.42 0.682)" fill="#2b2e34"/>
      </g>
      <g id="Grupo_2685" data-name="Grupo 2685" transform="translate(473.655 -208.848)">
        <path id="Caminho_3867" data-name="Caminho 3867" d="M2.155.752A.144.144,0,0,0,2.128.742.391.391,0,0,1,2.094.721.724.724,0,0,1,2,.66C1.959.631,1.922.6,1.883.57c.061.048,0,0-.026-.026C1.727.419,1.608.285,1.481.158A1.892,1.892,0,0,0,.414-.455a.437.437,0,0,0-.409.2Q-.621.789-1.241,1.832a.463.463,0,0,0,.121.629.456.456,0,0,0,.629-.119l.153-.259a.386.386,0,0,0,.1.024,1.357,1.357,0,0,0,.771-.2A6.36,6.36,0,0,1,1.97,1.632a.462.462,0,0,0,.473-.359.456.456,0,0,0-.288-.52" transform="translate(1.313 0.458)" fill="#2b2e34"/>
      </g>
      <g id="Grupo_2686" data-name="Grupo 2686" transform="translate(495.268 -219.984)">
        <path id="Caminho_3868" data-name="Caminho 3868" d="M1.78.371l-.029,0c-.013,0-.026,0-.037-.005A1.069,1.069,0,0,1,1.605.334C1.555.32,1.508.3,1.463.286c.071.026,0,0-.034-.016C1.267.2,1.109.109.95.03A1.885,1.885,0,0,0-.259-.2.443.443,0,0,0-.584.12Q-.83,1.312-1.073,2.5a.459.459,0,0,0,.32.555A.457.457,0,0,0-.2,2.737l.061-.293a.44.44,0,0,0,.1-.008,1.373,1.373,0,0,0,.66-.446,6.48,6.48,0,0,1,1.27-.729A.462.462,0,0,0,2.223.767a.459.459,0,0,0-.444-.4" transform="translate(1.085 0.226)" fill="#2b2e34"/>
      </g>
      <g id="Grupo_2687" data-name="Grupo 2687" transform="translate(481.598 -216.685)">
        <path id="Caminho_3869" data-name="Caminho 3869" d="M2.239.878C2.223.868,2.218.865,2.213.865L2.184.841C2.152.818,2.126.794,2.1.767a1.291,1.291,0,0,1-.106-.1c.055.055,0,0-.024-.029C1.854.5,1.751.35,1.64.21A1.869,1.869,0,0,0,.652-.524a.445.445,0,0,0-.43.148L-1.26,1.554a.465.465,0,0,0,.048.639.46.46,0,0,0,.639-.048l.182-.238A.421.421,0,0,0-.3,1.943a1.33,1.33,0,0,0,.787-.114,6.583,6.583,0,0,1,1.463-.1.454.454,0,0,0,.288-.85" transform="translate(1.365 0.535)" fill="#2b2e34"/>
      </g>
      <g id="Grupo_2688" data-name="Grupo 2688" transform="translate(503.312 -224.048)">
        <path id="Caminho_3870" data-name="Caminho 3870" d="M1.429.023A.164.164,0,0,1,1.4.031L1.363.038c-.037.005-.074.011-.111.013s-.1.005-.151.005c.079,0,0,0-.037,0C.887.044.71.017.531,0A1.9,1.9,0,0,0-.682.218.441.441,0,0,0-.866.633l.393,2.4a.46.46,0,0,0,.5.4.453.453,0,0,0,.4-.5l-.045-.3A.868.868,0,0,0,.467,2.6a1.351,1.351,0,0,0,.457-.655A6.416,6.416,0,0,1,1.851.815.462.462,0,0,0,1.986.234.459.459,0,0,0,1.429.023" transform="translate(0.871 0.014)" fill="#2b2e34"/>
      </g>
      <g id="Grupo_2689" data-name="Grupo 2689" transform="translate(492.68 -210.017)">
        <path id="Caminho_3871" data-name="Caminho 3871" d="M1.8.389H1.775L1.738.381,1.63.349C1.583.334,1.535.318,1.49.3c.071.029,0,0-.034-.016C1.3.207,1.142.114.98.035a1.872,1.872,0,0,0-1.2-.251A.443.443,0,0,0-.554.1l-.533,2.374a.468.468,0,0,0,.309.56.458.458,0,0,0,.56-.312l.069-.293c.029,0,.063,0,.1-.005a1.353,1.353,0,0,0,.668-.436A6.467,6.467,0,0,1,1.9,1.282.459.459,0,0,0,2.24.793.459.459,0,0,0,1.8.389" transform="translate(1.1 0.237)" fill="#2b2e34"/>
      </g>
    </g>
  </g>
</svg>
