<svg xmlns="http://www.w3.org/2000/svg" xmlns:xlink="http://www.w3.org/1999/xlink" width="42.319" height="40" viewBox="0 0 42.319 40">
  <defs>
    <clipPath id="clip-path">
      <path id="Caminho_4848" data-name="Caminho 4848" d="M199.8-20.455h42.319v-40H199.8Z" fill="none"/>
    </clipPath>
  </defs>
  <g id="alfabeto_s_e002_fim" transform="translate(-199.802 60.455)" clip-path="url(#clip-path)">
    <g id="Grupo_3598" data-name="Grupo 3598" transform="translate(212.991 -49.12)">
      <path id="Caminho_4838" data-name="Caminho 4838" d="M8.283,2.917C7.4.9,6.09-1.449,3.947-2.232c-2.07-.755-4.949-1-6.847.318-.176.121-.33.283-.5.419a5.981,5.981,0,0,0-3.48,3.185,11.986,11.986,0,0,0-.961,3.355,11.11,11.11,0,0,0-.15,3.729,6.44,6.44,0,0,0,4.093,4.5,9.862,9.862,0,0,0,7.094.342,13.032,13.032,0,0,0,2.918-1.839A8.361,8.361,0,0,0,8.364,9.416a7.275,7.275,0,0,0-.081-6.5" transform="translate(8.095 2.851)" fill="#ffd938"/>
    </g>
    <g id="Grupo_3599" data-name="Grupo 3599" transform="translate(215.678 -60.261)">
      <path id="Caminho_4839" data-name="Caminho 4839" d="M2.66,4.471A7.6,7.6,0,0,0,1.569,1.145C1.488.756,1.407.368,1.318-.015A9.683,9.683,0,0,0-.551-4.073a1.021,1.021,0,0,0-1.59.2A4.07,4.07,0,0,0-2.6-1.917c0,.014,0,.032,0,.049a8.692,8.692,0,0,0,.771,3.11A9.923,9.923,0,0,0,.537,4.813c.061.148.111.3.18.443A1.022,1.022,0,0,0,2.1,5.62a.955.955,0,0,0,.469-.848.906.906,0,0,0,.089-.3" transform="translate(2.599 4.369)" fill="#ff9328"/>
    </g>
    <g id="Grupo_3600" data-name="Grupo 3600" transform="translate(204.717 -54.479)">
      <path id="Caminho_4840" data-name="Caminho 4840" d="M4.912,3.61C3.682,1.049,1.1-.612-1.136-2.213c-.308-.221-.619-.441-.931-.66a3.477,3.477,0,0,0-1.052-.611C-4.148-3.752-4.8-2.769-4.8-1.854-4.792-.361-3.313.654-2.206,1.468a.791.791,0,0,0,.142.17A24.125,24.125,0,0,0,3.769,5.1a1,1,0,0,0,1.064-.362A1.037,1.037,0,0,0,4.912,3.61" transform="translate(4.8 3.528)" fill="#ff9328"/>
    </g>
    <g id="Grupo_3601" data-name="Grupo 3601" transform="translate(199.959 -42.542)">
      <path id="Caminho_4841" data-name="Caminho 4841" d="M5.654,1.258A1.011,1.011,0,0,0,4.93.147C3.884-.11,2.828-.306,1.766-.478c-.6-.156-1.2-.314-1.815-.417-1.588-.267-3.466-.629-4.981.073a1.019,1.019,0,0,0-.2,1.59,5.365,5.365,0,0,0,.514.374,1.582,1.582,0,0,0,.892,1.1,6.9,6.9,0,0,0,.9.33.976.976,0,0,0,.73.348c.4.018.807.026,1.212.036a27.643,27.643,0,0,0,4.154.152A.923.923,0,0,0,4,2.6c.249-.051.5-.083.749-.146a1.015,1.015,0,0,0,.7-.72.889.889,0,0,0,.212-.473" transform="translate(5.526 1.229)" fill="#ff9328"/>
    </g>
    <g id="Grupo_3602" data-name="Grupo 3602" transform="translate(203.753 -34.588)">
      <path id="Caminho_4842" data-name="Caminho 4842" d="M4.918.248A1.03,1.03,0,0,0,3.534-.114c-.342.178-.672.38-1.006.573a8.026,8.026,0,0,0-1.623.917C.439,1.7,0,2.057-.45,2.4A28.257,28.257,0,0,0-3.632,4.667a5.461,5.461,0,0,0-.868.686c-.9.9.38,2.191,1.341,1.483a1.253,1.253,0,0,0,.37.188,2.5,2.5,0,0,0,1.621-.338A13.69,13.69,0,0,0,3.285,3.6q.44-.458.832-.955a1.221,1.221,0,0,0,.241-.585,1.119,1.119,0,0,0,.36-.573,1.028,1.028,0,0,0,.2-1.244" transform="translate(4.806 0.242)" fill="#ff9328"/>
    </g>
    <g id="Grupo_3603" data-name="Grupo 3603" transform="translate(212.963 -31.761)">
      <path id="Caminho_4843" data-name="Caminho 4843" d="M2.809,3.135a13.774,13.774,0,0,0,1.3-5.19,1.021,1.021,0,0,0-1.281-.975,2.1,2.1,0,0,0-1.147.981c-.19.271-.374.548-.56.821A4.432,4.432,0,0,0,.5-.575,16.283,16.283,0,0,0-1.344,2.142a.962.962,0,0,0-.073.8c-.261.467-.53.931-.775,1.406-.439.848-.933,1.934-.111,2.737a1.477,1.477,0,0,0,1.05.421,1.411,1.411,0,0,0,.718.583A1.01,1.01,0,0,0,.606,7.623c.37-.751.767-1.507,1.155-2.274.134-.214.281-.423.395-.639a9.848,9.848,0,0,0,.654-1.574" transform="translate(2.746 3.064)" fill="#ff9328"/>
    </g>
    <g id="Grupo_3604" data-name="Grupo 3604" transform="translate(224.861 -31.509)">
      <path id="Caminho_4844" data-name="Caminho 4844" d="M3.721,3.7A14.157,14.157,0,0,0,1.817.672a14.647,14.647,0,0,0-2.193-2.1c-.467-.6-.941-1.194-1.424-1.778a1.015,1.015,0,0,0-1.785.915A14.339,14.339,0,0,0-2.921-.52a4.483,4.483,0,0,0,.453,1.4A17.124,17.124,0,0,0-1.222,3.043a27.793,27.793,0,0,0,3.15,3.725A1.016,1.016,0,0,0,3.5,6.444,1.192,1.192,0,0,0,3.525,6.3a1.564,1.564,0,0,0,.411-.5,2.358,2.358,0,0,0-.214-2.1" transform="translate(3.637 3.613)" fill="#ff9328"/>
    </g>
    <g id="Grupo_3605" data-name="Grupo 3605" transform="translate(230.157 -36.568)">
      <path id="Caminho_4845" data-name="Caminho 4845" d="M5.118,2.347c-.1-.1-.21-.184-.314-.281a.939.939,0,0,0-.49-.787L-3.4-2.169a1.048,1.048,0,0,0-1.226.158A1.267,1.267,0,0,0-4.962-.769a.909.909,0,0,0,.5.615,1.033,1.033,0,0,0,.239.939A7.5,7.5,0,0,0-2.19,2.224a11.664,11.664,0,0,0,2.452,1.3,10.523,10.523,0,0,0,2.3.571c.783.107,1.956.344,2.551-.318a1.033,1.033,0,0,0,0-1.43" transform="translate(5.002 2.294)" fill="#ff9328"/>
    </g>
    <g id="Grupo_3606" data-name="Grupo 3606" transform="translate(232.027 -47.514)">
      <path id="Caminho_4846" data-name="Caminho 4846" d="M4.808.868A1.022,1.022,0,0,0,4.092-.846a15.8,15.8,0,0,0-4.6.84C-.9.1-1.284.23-1.672.348a6.621,6.621,0,0,0-2.533.759.942.942,0,0,0-.322,1.38c.314,1.35,2.687,1.03,3.676.8a6.733,6.733,0,0,0,.651-.2,30.1,30.1,0,0,0,4.666-.461,1.019,1.019,0,0,0,.743-.975.979.979,0,0,0-.4-.781" transform="translate(4.699 0.848)" fill="#ff9328"/>
    </g>
    <g id="Grupo_3607" data-name="Grupo 3607" transform="translate(226.376 -59.558)">
      <path id="Caminho_4847" data-name="Caminho 4847" d="M3.325.136a50.659,50.659,0,0,0-5.5,5.876,4.58,4.58,0,0,0-.868,1.677,2.572,2.572,0,0,0-.061.573,3.224,3.224,0,0,0-.148.8,1,1,0,0,0,1.473.866c.01,0,.016,0,.026,0A5.489,5.489,0,0,0,.808,8.332a21.254,21.254,0,0,0,1.9-2.1A10.256,10.256,0,0,0,5.052.852C5.135-.065,3.911-.427,3.325.136" transform="translate(3.249 0.133)" fill="#ff9328"/>
    </g>
  </g>
</svg>
