<svg xmlns="http://www.w3.org/2000/svg" xmlns:xlink="http://www.w3.org/1999/xlink" width="67.385" height="40" viewBox="0 0 67.385 40">
  <defs>
    <clipPath id="clip-path">
      <path id="Caminho_3907" data-name="Caminho 3907" d="M88.333-105.109h67.385v-40H88.333Z" transform="translate(0 0)" fill="none"/>
    </clipPath>
  </defs>
  <g id="alfabeto_p_e002_fim" transform="translate(-88.333 145.109)" clip-path="url(#clip-path)">
    <g id="Grupo_2711" data-name="Grupo 2711" transform="translate(134.702 -128.205)">
      <path id="Caminho_3893" data-name="Caminho 3893" d="M12.4,3.67A12.906,12.906,0,0,0,8.862-.119a12.824,12.824,0,0,0-2.352-1.3,2.915,2.915,0,0,0-2.485-.264,1.022,1.022,0,0,0-.427.335A29.44,29.44,0,0,0,.139,1.2,14.636,14.636,0,0,0-1.736,2.719c-.515.489-1,1.007-1.49,1.528-.068-.036-.136-.074-.2-.113a.323.323,0,0,0-.344.009,1.153,1.153,0,0,0-1.158.735,5.2,5.2,0,0,0-.326,1.514,5.4,5.4,0,0,0-.951,1.365,1.105,1.105,0,0,0,.27,1.324.312.312,0,0,0,.234.246c.095.027.19.056.284.08-.044.708-.083,1.413-.083,2.118A13.939,13.939,0,0,0-5.3,13.9,27.331,27.331,0,0,0-4.763,18.1a1.011,1.011,0,0,0,.05.536,2.843,2.843,0,0,0,1.928,1.555,13.059,13.059,0,0,0,2.595.74,13.289,13.289,0,0,0,5.24-.166,18.046,18.046,0,0,0,8.782-5.5,1.111,1.111,0,0,0,.234-.4c.059-.053.124-.1.181-.16a.4.4,0,0,0,.095-.258s0-.006,0-.009a.032.032,0,0,0,0-.015.319.319,0,0,0,.027-.086v-.033c0-.018.012-.036.015-.053v-.047a.47.47,0,0,0-.018-.113,1.072,1.072,0,0,0,.124-.432,17.334,17.334,0,0,0-2.094-10" transform="translate(6.318 1.87)" fill="#ffc734"/>
    </g>
    <g id="Grupo_2712" data-name="Grupo 2712" transform="translate(88.387 -141.107)">
      <path id="Caminho_3894" data-name="Caminho 3894" d="M34.7,11.937c-.344-.782-.7-1.561-1.049-2.34-5.044-7.079-11.5-12.428-18.7-14.62a17.26,17.26,0,0,0-7.651-1A20.872,20.872,0,0,0,.474-4.395,17.568,17.568,0,0,0-6.433.56,34.963,34.963,0,0,0-11.45,7.346c-.915,1.588-1.78,3.22-2.612,4.881-.166.2-.332.406-.506.592A6.289,6.289,0,0,1-16,13.972a.065.065,0,0,1-.015.009c-.13.044-.264.086-.394.145a1.984,1.984,0,0,0-1.04.986,2.742,2.742,0,0,0-.193,1.656.55.55,0,0,0,.044.118,4.906,4.906,0,0,0,.332,1.351A21.048,21.048,0,0,0-15.807,21c.2.338.388.681.581,1.022a16.676,16.676,0,0,0,1.321,1.561c.08.083.166.163.249.246a11.131,11.131,0,0,0,2.352,1.531,10.9,10.9,0,0,0,1.466.53c.566.11,1.137.2,1.709.264.29,0,.581.009.871.027s.586.053.88.083c.16,0,.317.006.474,0a1.461,1.461,0,0,1,.74.163,48.781,48.781,0,0,1,8.352,2.408c1.351.284,2.707.536,4.058.817,1.117.027,2.236.047,3.353.047,1.268,0,2.529-.041,3.794-.11a1.462,1.462,0,0,1,.509-.121c3.705-.154,7.2-2.144,10.719-3.548,1.057-.72,2.1-1.463,3.1-2.239a32.442,32.442,0,0,0,4.434-4.6c.646-2.136,1.2-4.289,1.706-6.463-.053-.225-.1-.45-.163-.675" transform="translate(17.687 6.084)" fill="#ff7d33"/>
    </g>
    <g id="Grupo_2713" data-name="Grupo 2713" transform="translate(96.898 -130.694)">
      <path id="Caminho_3895" data-name="Caminho 3895" d="M9.446,3.874a5.337,5.337,0,0,0-1.152-3A7.581,7.581,0,0,0,6.17-.838,6.711,6.711,0,0,0,.717-1.709c-.071.024-.136.068-.21.095a2.08,2.08,0,0,0-.61.142A7.03,7.03,0,0,0-2.446.071a5.2,5.2,0,0,0-1.013.96A5.53,5.53,0,0,0-4.727,3.637a5.752,5.752,0,0,0,.219,2.912c.056.145.139.278.2.421a5.361,5.361,0,0,0,.225.933A5.584,5.584,0,0,0,.086,11.619,6.773,6.773,0,0,0,2,11.675a5.788,5.788,0,0,0,1.86.083,5.774,5.774,0,0,0,2.716-.98A6.017,6.017,0,0,0,8.527,8.462a9.827,9.827,0,0,0,.732-2.284,9,9,0,0,0,.187-2.3" transform="translate(4.815 1.975)" fill="#fff"/>
    </g>
    <g id="Grupo_2714" data-name="Grupo 2714" transform="translate(108.616 -131.758)">
      <path id="Caminho_3896" data-name="Caminho 3896" d="M0,.016l.027,0H.036C.2-.011.255-.02,0,.016" transform="translate(0 0.008)" fill="#2b2e34"/>
    </g>
    <g id="Grupo_2715" data-name="Grupo 2715" transform="translate(101.915 -129.148)">
      <path id="Caminho_3897" data-name="Caminho 3897" d="M4.432,2.156v-.03c0-.006,0-.012,0-.018-.012-.074-.121-.729-.136-.8a.022.022,0,0,0,0-.012.256.256,0,0,0-.021-.062A8.036,8.036,0,0,0,3.928.489L3.911.459C3.831.352,3.683.181,3.65.139s-.166-.216-.258-.317L3.369-.2a.006.006,0,0,1-.006-.006c-.219-.157-.435-.317-.655-.474a0,0,0,0,1,0,0A.065.065,0,0,0,2.69-.693L2.675-.7l-.009,0c-.044-.021-.738-.284-.785-.3l-.033-.009A4.733,4.733,0,0,0,.981-1.1l.832.08A5.9,5.9,0,0,0,.961-1.1C.727-1.06.27-.992.119-.96c-.006,0-.009,0-.012.006a2.881,2.881,0,0,0-.391.175A3.088,3.088,0,0,0-.671-.6L-.7-.584c.228-.178-.453.335-.637.518a.148.148,0,0,0-.021.024c-.172.219-.341.438-.492.672a.093.093,0,0,0-.015.03,6.59,6.59,0,0,0-.308.8c0,.012,0,.018-.006.03a5.664,5.664,0,0,0-.086.856v.033a.032.032,0,0,0,0,.015c.021.133.044.267.068.4s.041.27.068.406a.124.124,0,0,0,.012.03A2.336,2.336,0,0,0-1.53,4.265a2.363,2.363,0,0,0,.9.785A2.634,2.634,0,0,0-.286,5.2c.036.018.074.03.107.044A1.539,1.539,0,0,0-.017,5.3,3.249,3.249,0,0,0,.5,5.5l.832.08A3.135,3.135,0,0,0,2.85,5.118L2.877,5.1a4.511,4.511,0,0,0,.64-.521.137.137,0,0,0,.021-.021l.474-.652a0,0,0,0,1,0,0s0-.006.006-.009l.009-.012c0-.006,0-.009.006-.015s0,0,0-.006c.009-.027.287-.758.3-.782a.225.225,0,0,0,.012-.033,4.081,4.081,0,0,0,.086-.892" transform="translate(2.259 1.099)" fill="#2b2e34"/>
    </g>
    <g id="Grupo_2716" data-name="Grupo 2716" transform="translate(118.212 -118.763)">
      <path id="Caminho_3898" data-name="Caminho 3898" d="M5.276,6.934a.6.6,0,0,0,.187-.172A9.752,9.752,0,0,0,7.408,1.437a7.126,7.126,0,0,0-.533-2.82,6.73,6.73,0,0,0-.708-1.3,1.565,1.565,0,0,0-1.075-.847.552.552,0,0,0-.293.033,15.549,15.549,0,0,0-2.349.2,7.963,7.963,0,0,0-1.309.169C.555-3-.023-2.828-.6-2.665a6.036,6.036,0,0,0-1.8.619.622.622,0,0,0-.264.7.181.181,0,0,0,.039.187q3.6,4.065,7.194,8.13a.175.175,0,0,0,.05.036.4.4,0,0,0,.065.092.266.266,0,0,0,.107.056.208.208,0,0,0,.163.024l.021-.006h0a.229.229,0,0,0,.071-.036s0,0,0,0,.018,0,.024-.006h0a.209.209,0,0,0,.13-.083c.024-.036.041-.074.065-.113" transform="translate(2.689 3.534)" fill="#ffc734"/>
    </g>
    <g id="Grupo_2717" data-name="Grupo 2717" transform="translate(105.682 -145.054)">
      <path id="Caminho_3899" data-name="Caminho 3899" d="M.009,5.23a.237.237,0,0,0,.009.136c.009.024.039.036.05.056A27.37,27.37,0,0,1,7.751,4.06a23.385,23.385,0,0,1,8.918,1.2,36.8,36.8,0,0,1,7.248,2.944c.193.018.388.041.581.047,2.562.116,4.635-1.126,6.492-2.494C32.9,4.353,32.737,2,33.7-.051c.136-.29-.113-.551-.462-.5a47.022,47.022,0,0,1-14.421-.72L18.734-1.3a7.121,7.121,0,0,0-1.8-.32c-.812-.154-1.626-.305-2.438-.465a22,22,0,0,0-3.7-.578C8.284-2.72,6.063-1.452,4.12-.238,2.091,1.033.177,2.673,0,4.987a.262.262,0,0,0,.039.163.183.183,0,0,0-.027.08" transform="translate(0.004 2.666)" fill="#ffc734"/>
    </g>
    <g id="Grupo_2718" data-name="Grupo 2718" transform="translate(123.188 -115.218)">
      <path id="Caminho_3900" data-name="Caminho 3900" d="M4.928,1.173Q1.361.2-2.248-.592c-.293-.065-.373.394-.08.459Q1.279.654,4.848,1.633c.287.083.367-.379.08-.459" transform="translate(2.512 0.598)" fill="#ff7d33"/>
    </g>
    <g id="Grupo_2719" data-name="Grupo 2719" transform="translate(122.628 -113.828)">
      <path id="Caminho_3901" data-name="Caminho 3901" d="M4.093,3.046Q1.24.7-1.73-1.506c-.24-.181-.5.207-.261.388q2.972,2.2,5.823,4.549c.231.19.492-.2.261-.385" transform="translate(2.086 1.553)" fill="#ff7d33"/>
    </g>
    <g id="Grupo_2720" data-name="Grupo 2720" transform="translate(123.262 -117.424)">
      <path id="Caminho_3902" data-name="Caminho 3902" d="M5.8,0Q1.544.036-2.714.068c-.3,0-.332.468-.03.468L5.763.465C6.062.462,6.1,0,5.8,0" transform="translate(2.954 0)" fill="#ff7d33"/>
    </g>
    <g id="Grupo_2721" data-name="Grupo 2721" transform="translate(138.238 -118.012)">
      <path id="Caminho_3903" data-name="Caminho 3903" d="M4.928,1.175Q1.361.2-2.248-.593c-.293-.062-.373.4-.08.462q3.612.786,7.18,1.765c.287.08.364-.382.077-.459" transform="translate(2.512 0.599)" fill="#ff7d33"/>
    </g>
    <g id="Grupo_2722" data-name="Grupo 2722" transform="translate(137.064 -116.337)">
      <path id="Caminho_3904" data-name="Caminho 3904" d="M3.129,4.033Q1.05.977-1.187-1.967c-.184-.24-.539.059-.358.3q2.239,2.941,4.315,6c.172.246.527-.053.358-.3" transform="translate(1.595 2.056)" fill="#ff7d33"/>
    </g>
    <g id="Grupo_2723" data-name="Grupo 2723" transform="translate(138.372 -121.036)">
      <path id="Caminho_3905" data-name="Caminho 3905" d="M5.717,0-2.706,1.2c-.293.041-.27.506.03.465L5.75.467C6.043.425,6.016-.04,5.717,0" transform="translate(2.914 0.001)" fill="#ff7d33"/>
    </g>
    <g id="Grupo_2724" data-name="Grupo 2724" transform="translate(109.15 -124.406)">
      <path id="Caminho_3906" data-name="Caminho 3906" d="M4.621.277c.009-.486-.746-.586-.755-.1A13.713,13.713,0,0,1-2.2,11.254c-.409.27.059.871.462.6A14.412,14.412,0,0,0,4.621.277" transform="translate(2.355 0.141)" fill="#ff4227"/>
    </g>
  </g>
</svg>
