<svg xmlns="http://www.w3.org/2000/svg" xmlns:xlink="http://www.w3.org/1999/xlink" width="60" height="54" viewBox="0 0 60 54">
  <defs>
    <clipPath id="clip-path">
      <rect id="Retângulo_468" data-name="Retângulo 468" width="60" height="54" transform="translate(107 1318)" fill="none" stroke="#707070" stroke-width="1" opacity="0.4"/>
    </clipPath>
    <clipPath id="clip-path-2">
      <path id="Caminho_3892" data-name="Caminho 3892" d="M50.887-113.044h58v-31.608h-58Z" transform="translate(0 0)" fill="none"/>
    </clipPath>
  </defs>
  <g id="alfabeto_o_e002_fim" transform="translate(-107 -1318)" clip-path="url(#clip-path)">
    <g id="alfabeto_o_e002_fim-2" data-name="alfabeto_o_e002_fim" transform="translate(57.113 1473.652)" clip-path="url(#clip-path-2)">
      <g id="Grupo_2705" data-name="Grupo 2705" transform="translate(54.211 -139.4)">
        <path id="Caminho_3887" data-name="Caminho 3887" d="M26.9,10.665a81.749,81.749,0,0,0-8-11.913C16.4-4.119,13.3-6.585,9.475-7.29A18.857,18.857,0,0,0-2.346-5C-9.3-.9-14.022,5.856-17.774,12.833a2.448,2.448,0,0,1-1.134,1.129,2.8,2.8,0,0,1,.438.24c6.928,4.656,16.916,4.457,25.021,4.489,6.109.022,14.723-2.5,21.606-7.013A2.144,2.144,0,0,1,26.9,10.665" transform="translate(18.908 7.498)" fill="#ebecec"/>
      </g>
      <g id="Grupo_2706" data-name="Grupo 2706" transform="translate(65.083 -139.495)">
        <path id="Caminho_3888" data-name="Caminho 3888" d="M15.123,4.823a5.635,5.635,0,0,0-.131-1.306,2.562,2.562,0,0,0-.085-.274,5.966,5.966,0,0,0-2.536-4.22A12.353,12.353,0,0,0,5.564-3.363,20.779,20.779,0,0,0-2.49-2,11.924,11.924,0,0,0-7.379.678a1.05,1.05,0,0,0-.664.373c-.073.092-.138.189-.206.283l-.007-.007c-.019.029-.034.061-.051.087A7.669,7.669,0,0,0-9.171,3a15.722,15.722,0,0,0-1.415,5.3A7.493,7.493,0,0,0-9.2,13.846a10.933,10.933,0,0,0,6.252,6.817c4.181,1.756,9.421.879,13.219-1.647,3.539-2.352,4.92-6.737,4.719-11.09.007-.121,0-.242.01-.363a1.338,1.338,0,0,0,.1-.511c0-.574,0-1.151,0-1.725.01-.167.019-.337.022-.5" transform="translate(10.632 3.391)" fill="#90561d"/>
      </g>
      <g id="Grupo_2707" data-name="Grupo 2707" transform="translate(71.051 -135.106)">
        <path id="Caminho_3889" data-name="Caminho 3889" d="M8.67,3.781A5.292,5.292,0,0,0,6.6.048a.479.479,0,0,0-.017-.1A2.005,2.005,0,0,0,5.455-1.212,2.674,2.674,0,0,0,4.8-1.386c-.08-.051-.16-.109-.242-.157-.019-.01-.041-.017-.058-.027A4.683,4.683,0,0,0,1.446-2.653a3.827,3.827,0,0,0-1.158.262A4.438,4.438,0,0,0-2.958-1.086a.159.159,0,0,0-.029.041,5.193,5.193,0,0,0-.547.373.4.4,0,0,0-.126.24c-.1.068-.2.128-.3.2a5.428,5.428,0,0,0-2.023,5.4,3.342,3.342,0,0,0-.073.351C-6.41,8.11-4.4,10.3-2.122,11.169a9.514,9.514,0,0,0,7.972-.9A6.592,6.592,0,0,0,8.67,3.781" transform="translate(6.095 2.658)" fill="#2b2e34"/>
      </g>
      <g id="Grupo_2708" data-name="Grupo 2708" transform="translate(77.603 -137.793)">
        <path id="Caminho_3890" data-name="Caminho 3890" d="M5.45,2.377a3.426,3.426,0,0,0-2-2.786c0-.007-.012-.015-.017-.022A3.309,3.309,0,0,0,.911-1.668a3,3,0,0,0-1.529.591,6.038,6.038,0,0,0-1.87.93,3.408,3.408,0,0,0-1.272,3.4,2.223,2.223,0,0,0-.046.22A3.529,3.529,0,0,0-1.335,7.023a5.987,5.987,0,0,0,5.014-.567A4.145,4.145,0,0,0,5.45,2.377" transform="translate(3.832 1.671)" fill="#fff"/>
      </g>
      <g id="Grupo_2709" data-name="Grupo 2709" transform="translate(51.925 -143.866)">
        <path id="Caminho_3891" data-name="Caminho 3891" d="M33.292,10.54a1.245,1.245,0,0,0-1.361-.567,13.673,13.673,0,0,1-1.567.342c-.036.007-.276.039-.286.041-.1.012-.2.024-.3.034-.266.024-.533.044-.8.053-.329.015-.656-.007-.984-.017.174-.126.344-.254.506-.388.974-.79,1.919-1.613,2.878-2.42a1.215,1.215,0,0,0,.191-1.453A1.246,1.246,0,0,0,30.206,5.6a15.063,15.063,0,0,1-1.567.344c-.039,0-.279.036-.286.039-.1.012-.2.024-.3.034-.266.027-.533.044-.8.053a14.178,14.178,0,0,1-1.572-.024,6.486,6.486,0,0,0,.967-1.291c.562-.933,1.095-1.887,1.642-2.832A1.052,1.052,0,0,0,28.014.676,1.081,1.081,0,0,0,26.733.613a12.421,12.421,0,0,1-1.182.744l-.223.116c-.078.041-.16.08-.24.119-.211.1-.424.191-.637.279a11.829,11.829,0,0,1-1.323.453c-.111.034-.225.063-.339.092-.046.01-.1.022-.145.034l-.015,0c-.206.041-.409.078-.615.111-.109-.145-.225-.283-.339-.426a6.007,6.007,0,0,0,1.172-1.4C23.438-.17,24-1.1,24.569-2.025a1.054,1.054,0,0,0-.23-1.25,1.084,1.084,0,0,0-1.277-.1,12.152,12.152,0,0,1-1.2.7c-.027.015-.218.107-.225.111-.08.036-.157.073-.24.109-.213.092-.429.177-.647.259a12.42,12.42,0,0,1-1.33.409c-.109.027-.223.053-.337.078l-.15.031s-.007,0-.015,0c-.184.031-.366.058-.55.082A20.792,20.792,0,0,0,9.773-6.831C5.132-8.2.444-6.972-3.8-4.942A35.273,35.273,0,0,0-14.16,2.866,60.763,60.763,0,0,0-23.051,15.7c-1.393,2.59,1.669,4.28,3.064,1.686C-16.232,10.409-11.51,3.655-4.558-.443A18.857,18.857,0,0,1,7.264-2.735c3.825.7,6.928,3.171,9.423,6.039a81.888,81.888,0,0,1,8,11.916,2.252,2.252,0,0,0,3.59.371,6.475,6.475,0,0,0,1.95-1.177C31.2,13.624,32.142,12.8,33.1,12a1.216,1.216,0,0,0,.191-1.456" transform="translate(23.406 7.41)" fill="#2b2e34"/>
      </g>
    </g>
  </g>
</svg>
