<svg xmlns="http://www.w3.org/2000/svg" xmlns:xlink="http://www.w3.org/1999/xlink" width="60" height="54" viewBox="0 0 60 54">
  <defs>
    <clipPath id="clip-path">
      <rect id="Retângulo_466" data-name="Retângulo 466" width="60" height="54" transform="translate(605 1235)" fill="none" stroke="#707070" stroke-width="1" opacity="0.4"/>
    </clipPath>
    <clipPath id="clip-path-2">
      <path id="Caminho_3831" data-name="Caminho 3831" d="M344.321-195.386h60.3v-36.38h-60.3Z" transform="translate(0 0)" fill="none"/>
    </clipPath>
  </defs>
  <g id="alfabeto_j_e002_fim" transform="translate(-605 -1235)" clip-path="url(#clip-path)">
    <g id="alfabeto_j_e002_fim-2" data-name="alfabeto_j_e002_fim" transform="translate(260.679 1476.369)" clip-path="url(#clip-path-2)">
      <g id="Grupo_2616" data-name="Grupo 2616" transform="translate(378.626 -226.489)">
        <path id="Caminho_3798" data-name="Caminho 3798" d="M12.727,5.637c.106.14-.025-.041-.043-.07-.023-.045-.047-.09-.07-.136a.342.342,0,0,0-.02-.032.813.813,0,0,1-.047-.165c-.016-.057-.025-.115-.038-.174,0-.007,0-.009,0-.014V5.038a2.33,2.33,0,0,1,.014-.355.677.677,0,0,0-.653-.694c-.721,0-1.444.009-2.165.016a.478.478,0,0,0-.027-.045c.057.077,0-.014-.025-.045s-.057-.093-.081-.14c-.05-.084-.086-.174-.129-.26A.056.056,0,0,0,9.428,3.5c0-.007,0-.014-.009-.034-.018-.052-.034-.1-.047-.154a2.473,2.473,0,0,1-.066-.285s-.011-.079-.016-.108-.007-.077-.007-.086a.893.893,0,0,0-.228-.572.968.968,0,0,0-.99-.163l-2.656.606a2.655,2.655,0,0,1-.122-.24.093.093,0,0,1-.007-.018A1.175,1.175,0,0,1,5.24,2.31c-.029-.1-.045-.2-.066-.3V1.974c0-.041,0-.081,0-.122a1.547,1.547,0,0,0-.041-.368A.9.9,0,0,0,4.277.862a12.006,12.006,0,0,0-1.4.054c-.457.029-.909.077-1.363.127A.282.282,0,0,0,1.5,1.015C1.4.889,1.264.794,1.156.676l0-.007c0-.027-.009-.057-.009-.066A1.273,1.273,0,0,0,.875-.221a1,1,0,0,0-.99-.271c-.258.054-.509.122-.766.165-.131.023-.262.041-.391.057a.328.328,0,0,0-.038.007l-.043,0-.2.014c-.185.009-.371.007-.556,0a.627.627,0,0,0-.075-.231c-.244-.457-.486-.915-.735-1.372a1.521,1.521,0,0,0-1.216-.913A1.889,1.889,0,0,0-5.218-2.4c-.129.079-.255.154-.389.219l-.034.007c-.016-.034-.034-.07-.047-.106a.32.32,0,0,0-.018-.192c-.192-.418-.362-.857-.592-1.254a1.349,1.349,0,0,0-.976-.737A2.027,2.027,0,0,0-8.5-4.174c-.429.224-.85.468-1.275.7a.365.365,0,0,0-.183.267.5.5,0,0,0-.068.09c-.285.495.321.814.728.854a4.165,4.165,0,0,0,1.08-.075.784.784,0,0,0,.619.269,5.082,5.082,0,0,1,.427.337l.009.009a.347.347,0,0,1,.043.038,3.891,3.891,0,0,1,.728-.179.55.55,0,0,0-.072.14.686.686,0,0,0,.443.843A1.457,1.457,0,0,0-5.044-.96a.047.047,0,0,1,.009.014A.774.774,0,0,0-4.379-.7a4.943,4.943,0,0,1,.45.307l.011.007c.027.025.057.05.086.075.072.066.145.136.215.206A4.815,4.815,0,0,1-3.263.31a.481.481,0,0,0,.24.16.68.68,0,0,0,.64.633c.12,0,.24,0,.359,0a.6.6,0,0,0,.572.4c.029,0,.054-.011.084-.014a.726.726,0,0,0,.292.206q.831.322,1.663.64a.4.4,0,0,0,.09.014.6.6,0,0,0,.414.4l1.15.269.576.133.285.068a.753.753,0,0,0,.854.108c.032.014.081.038.106.047.081.045.16.093.237.145.009.011.09.079.106.095l.02.023.034.052,0,0a1.442,1.442,0,0,0,.1.142.62.62,0,0,0,.61.188.7.7,0,0,0,.3.212,12.521,12.521,0,0,0,1.978.531c.337.095.683.2,1.031.267a.738.738,0,0,0,.179.457,2.347,2.347,0,0,0,1.487.714c.138.023.276.043.409.061.05.009.1.016.145.023.027.007.057.011.084.016a3.022,3.022,0,0,1,.328.084l.1.034a.221.221,0,0,0,.038.016c.025.016.054.032.084.05a.7.7,0,0,0,.416.084l0,0a.683.683,0,0,0,.951.029.691.691,0,0,0,.029-.951" transform="translate(10.101 4.474)" fill="#3b8f39"/>
      </g>
      <g id="Grupo_2617" data-name="Grupo 2617" transform="translate(385.092 -208.703)">
        <path id="Caminho_3799" data-name="Caminho 3799" d="M.011,0a.269.269,0,0,0-.02.034S0,.027,0,.025.007.009.011,0" transform="translate(0.009)" fill="#3b8f39"/>
      </g>
      <g id="Grupo_2618" data-name="Grupo 2618" transform="translate(383.104 -211.991)">
        <path id="Caminho_3800" data-name="Caminho 3800" d="M3.988,1.05a1.907,1.907,0,0,0-.1-.68,1.471,1.471,0,0,0-.637-.737.937.937,0,0,0-.118-.115A1.538,1.538,0,0,0,2.067-.831a1.44,1.44,0,0,0-.8.314A1.276,1.276,0,0,0,.51.168,14.641,14.641,0,0,1-.157,1.484c-.043.077-.09.149-.136.224.038-.054.075-.1,0,0A.238.238,0,0,0-.3,1.732a.541.541,0,0,0-.029.047A.409.409,0,0,1-.31,1.741c-.032.047-.066.1-.1.142-.133.188-.273.368-.42.545-.24.3-.468.6-.678.92-.014.011-.027.025-.034.032-.129.111-.26.215-.389.319A3.815,3.815,0,0,0-2.957,4.817a1.513,1.513,0,0,0,.814,2.208,3.819,3.819,0,0,0,1.469.057A9.406,9.406,0,0,0,.3,6.939a3.387,3.387,0,0,0,2.8-1.193c.94-1.227.615-2.852,1.155-4.22a.354.354,0,0,0-.273-.477" transform="translate(3.165 0.833)" fill="#3b8f39"/>
      </g>
      <g id="Grupo_2619" data-name="Grupo 2619" transform="translate(344.365 -231.72)">
        <path id="Caminho_3801" data-name="Caminho 3801" d="M33.3,10.816a3.376,3.376,0,0,0-.235-.951,2.289,2.289,0,0,0-.753-.972,8.561,8.561,0,0,0-4.394-3.1,13.257,13.257,0,0,0-1.774-.791,22.532,22.532,0,0,0-4.222-1.049c-.05,0-.1,0-.147-.009-1.207-.454-2.423-.884-3.666-1.229-.061-.018-.124-.032-.19-.05-1.286-.649-2.563-1.318-3.77-2.082,0,0-.007-.011-.014-.016a7.342,7.342,0,0,0-1.306-.92,11.577,11.577,0,0,0-1.191-.692,12.91,12.91,0,0,0-2.7-.884c-.027-.014-.052-.025-.077-.038-.26-.138-.5-.28-.739-.423-.066-.047-.136-.086-.2-.14a5.149,5.149,0,0,1-1.2-1.153c-.014-.027-.029-.054-.043-.084A2.02,2.02,0,0,1,6.6-3.988c-.009-.068-.016-.136-.027-.2A3.2,3.2,0,0,0,5.509-6.664,7.649,7.649,0,0,0,2.72-8.126a13.743,13.743,0,0,0-1.345-.368A4.606,4.606,0,0,0-.51-8.476,4.267,4.267,0,0,0-2.838-7.337a4.886,4.886,0,0,0-.533.5.77.77,0,0,1-.093.081,1.131,1.131,0,0,1-.31.425A1.049,1.049,0,0,1-5.161-6.41a6.894,6.894,0,0,0-.594-.664c-.075-.075-.156-.142-.237-.212.047.043-.165-.124-.224-.16-.1-.063-.206-.12-.312-.174-.007-.007-.045-.02-.075-.036L-6.732-7.7a3.419,3.419,0,0,0-.362-.1c-.054-.014-.111-.023-.167-.032l-.038,0a18.1,18.1,0,0,0-1.885-.05c-.172,0-.339.014-.509.029-.02,0-.034,0-.043,0h-.009c-.02,0-.038.009-.057.011-.244.081-.493.154-.728.249-.088.036-.172.084-.255.122a6.417,6.417,0,0,0-.832.366A4.5,4.5,0,0,0-13.46-5.522a5.163,5.163,0,0,0-.707,2.366A6.668,6.668,0,0,0-14.1-1.337c-1.693-.163-1.756-.271-3.758-.391A3.39,3.39,0,0,0-19.714-3.4a2.541,2.541,0,0,0-2.821.556,1.442,1.442,0,0,0-.364-.339,1.748,1.748,0,0,0-1.772.129,2.109,2.109,0,0,0-.981,1.736c0,.027.016.041.02.063a1.505,1.505,0,0,0-.542.506A3.066,3.066,0,0,0-26.424.883c0,.4,0,.8,0,1.191v.294s0,0,0,.007v.262a1.248,1.248,0,0,0,.183.68,1.277,1.277,0,0,0,1.417,1.166l1.935.1c.585.127.879.766,1.5.82,1.4.127,1.087.267,2.493.38,1.037.086,1.141.075,2.181.16a3.2,3.2,0,0,1,2.2.909c1.324,1.4,4.423,4.549,8.032,4.714a3.657,3.657,0,0,0,.4.825A8.172,8.172,0,0,0-2.35,15.349c.188.041.375.072.56.1.255.066.513.124.757.194,1.281.366,2.567.809,3.871,1.089l.081.014c-.294.133-.588.262-.886.377a72.057,72.057,0,0,0,9.879.536c2.251,0,9.113-2.459,9.87-2.536-.088.07-1.822,1.758-2.341,2.226-1.526,1.374-3.573,3.175-3.851,6.814a3.916,3.916,0,0,0,.834,2.913c1,.671,2.181.237,3.114-1.175a24.435,24.435,0,0,1,3.844-4.936c1.521-1.372,3.546-2.02,5.336-3.087a7.512,7.512,0,0,0,1.053-.75,9.667,9.667,0,0,0,2.721-1.889c.007-.007.011-.016.02-.025.029-.009.059-.025.088-.036l.585-.725c.084-.127.163-.251.242-.384.038-.084.068-.172.1-.255,0-.111.007-.221.011-.334a3.469,3.469,0,0,0-.246-2.665" transform="translate(26.426 8.583)" fill="#46ac46"/>
      </g>
      <g id="Grupo_2620" data-name="Grupo 2620" transform="translate(348.742 -226.363)">
        <path id="Caminho_3802" data-name="Caminho 3802" d="M1.534.841a.735.735,0,0,0-.075-.8A2.025,2.025,0,0,0,.5-.531a1.237,1.237,0,0,0-1.116,0,1.457,1.457,0,0,0-.556.843,1.285,1.285,0,0,0,.129.99,1.252,1.252,0,0,0,.768.542A1.29,1.29,0,0,0,.748,1.652C.786,1.63.825,1.6.861,1.58A1.388,1.388,0,0,0,1.534.841" transform="translate(1.218 0.667)" fill="#3b8f39"/>
      </g>
      <g id="Grupo_2621" data-name="Grupo 2621" transform="translate(345.584 -225.966)">
        <path id="Caminho_3803" data-name="Caminho 3803" d="M.168.167a.769.769,0,0,0-.3.518A1.033,1.033,0,0,0,.037,1.3c.1.172.233.364.468.31a1.22,1.22,0,0,0,.576-.368A1.4,1.4,0,0,0,1.434.59a.7.7,0,0,0-.1-.547.475.475,0,0,0-.506-.16.45.45,0,0,0-.077.011A.991.991,0,0,0,.168.167" transform="translate(0.133 0.133)" fill="#3b8f39"/>
      </g>
      <g id="Grupo_2622" data-name="Grupo 2622" transform="translate(365.4 -230.196)">
        <path id="Caminho_3804" data-name="Caminho 3804" d="M6.093,2.323A4.125,4.125,0,0,0,5.065.072,5.892,5.892,0,0,0,3.351-1.144,5.169,5.169,0,0,0-.879-1.553c-.057.02-.1.059-.158.084a1.623,1.623,0,0,0-.461.138,5.364,5.364,0,0,0-1.729,1.3A3.953,3.953,0,0,0-3.962.75a4.281,4.281,0,0,0-.85,2.066A4.445,4.445,0,0,0-4.5,5.044c.05.108.12.206.176.312a4.071,4.071,0,0,0,.215.707A4.309,4.309,0,0,0-.732,8.724a5.244,5.244,0,0,0,1.469-.05,4.557,4.557,0,0,0,1.435-.023,4.5,4.5,0,0,0,2.041-.884A4.6,4.6,0,0,0,5.6,5.894,7.538,7.538,0,0,0,6.057,4.1a6.813,6.813,0,0,0,.036-1.781" transform="translate(4.835 1.844)" fill="#fff"/>
      </g>
      <g id="Grupo_2623" data-name="Grupo 2623" transform="translate(369.007 -226.425)">
        <path id="Caminho_3805" data-name="Caminho 3805" d="M0,.015l.023,0h0C.151-.015.194-.026,0,.015" transform="translate(0 0.012)" fill="#2b2e34"/>
      </g>
      <g id="Grupo_2624" data-name="Grupo 2624" transform="translate(366.723 -226.409)">
        <path id="Caminho_3806" data-name="Caminho 3806" d="M2.863,1.307a.077.077,0,0,0,0-.023s0-.009,0-.014c-.014-.057-.131-.554-.142-.608,0,0,0,0,0-.007a.177.177,0,0,0-.02-.047,6.057,6.057,0,0,0-.3-.56.106.106,0,0,0-.014-.02c-.068-.079-.188-.2-.215-.233s-.14-.16-.215-.233l-.02-.016,0,0L1.4-.793l0,0L1.389-.8l-.014,0s0,0,0,0C1.335-.822.79-.992.752-1a.081.081,0,0,0-.025,0A3.682,3.682,0,0,0,.058-1.03L.7-1.005A4.316,4.316,0,0,0,.038-1.03c-.176.038-.522.115-.637.147l-.011,0A2.281,2.281,0,0,0-.9-.725a2.921,2.921,0,0,0-.287.154.129.129,0,0,0-.018.016,5.974,5.974,0,0,0-.466.429.124.124,0,0,0-.016.02c-.12.176-.242.353-.346.54a.156.156,0,0,1-.009.023,5.227,5.227,0,0,0-.2.631c0,.009,0,.016,0,.023a4.374,4.374,0,0,0-.023.664V1.8a.02.02,0,0,0,0,.011c.023.1.047.2.072.305s.045.206.07.307a.121.121,0,0,0,.011.025,1.793,1.793,0,0,0,.495.766,1.808,1.808,0,0,0,.73.56,2.018,2.018,0,0,0,.269.1c.029.011.059.018.086.029.043.011.084.032.127.041A2.363,2.363,0,0,0,0,4.064l.642.023a2.381,2.381,0,0,0,1.146-.429.053.053,0,0,0,.02-.014,3.66,3.66,0,0,0,.468-.429L2.289,3.2l.334-.524a0,0,0,0,0,0,0s0,0,0,0a.038.038,0,0,0,0-.011s0-.007,0-.011a.008.008,0,0,0,0-.007c.007-.018.188-.594.192-.615L2.838,2a3.053,3.053,0,0,0,.025-.689" transform="translate(2.272 1.037)" fill="#2b2e34"/>
      </g>
      <g id="Grupo_2625" data-name="Grupo 2625" transform="translate(357.151 -229.905)">
        <path id="Caminho_3807" data-name="Caminho 3807" d="M4.2,1.6A2.866,2.866,0,0,0,3.49.048,4.071,4.071,0,0,0,2.31-.788,3.573,3.573,0,0,0-.607-1.071c-.038.016-.07.041-.106.057a1.2,1.2,0,0,0-.321.095,3.724,3.724,0,0,0-1.191.895,2.857,2.857,0,0,0-.506.54A2.991,2.991,0,0,0-3.317,1.94,3.081,3.081,0,0,0-3.1,3.477c.034.075.084.142.122.215a2.766,2.766,0,0,0,.147.488A2.976,2.976,0,0,0-.506,6.012,3.722,3.722,0,0,0,.509,5.979,3.078,3.078,0,0,0,1.5,5.963,3.094,3.094,0,0,0,2.9,5.352a3.17,3.17,0,0,0,.961-1.29,5.287,5.287,0,0,0,.312-1.234A4.749,4.749,0,0,0,4.2,1.6" transform="translate(3.333 1.27)" fill="#fff"/>
      </g>
      <g id="Grupo_2626" data-name="Grupo 2626" transform="translate(360.949 -227.081)">
        <path id="Caminho_3808" data-name="Caminho 3808" d="M0,.01l.016,0h0C.1-.01.133-.017,0,.01" transform="translate(0 0.008)" fill="#2b2e34"/>
      </g>
      <g id="Grupo_2627" data-name="Grupo 2627" transform="translate(359.375 -227.07)">
        <path id="Caminho_3809" data-name="Caminho 3809" d="M1.973.9V.884a.017.017,0,0,1,0-.009c-.009-.038-.09-.382-.1-.418V.451L1.858.419A3.942,3.942,0,0,0,1.652.032L1.641.019c-.045-.057-.129-.142-.147-.16S1.4-.252,1.347-.3a.041.041,0,0,0-.016-.011,0,0,0,0,0,0,0L.967-.546s0,0,0,0,0,0-.009,0l-.007,0h0C.92-.566.545-.684.518-.691L.5-.7A2.627,2.627,0,0,0,.041-.709L.481-.7A3.052,3.052,0,0,0,.027-.709c-.122.025-.362.077-.441.1H-.42a1.493,1.493,0,0,0-.2.106,1.5,1.5,0,0,0-.2.108.023.023,0,0,0-.011.009,4.078,4.078,0,0,0-.321.3.06.06,0,0,0-.011.014C-1.248.048-1.329.17-1.4.3a.11.11,0,0,1-.007.016,3.789,3.789,0,0,0-.138.438s0,.009,0,.014a2.822,2.822,0,0,0-.016.457v.016s0,.007,0,.009c.016.07.032.14.05.21s.029.142.047.21a.156.156,0,0,0,.007.018,1.252,1.252,0,0,0,.341.529,1.249,1.249,0,0,0,.5.384,1.225,1.225,0,0,0,.185.068c.02.009.041.014.059.023s.059.02.086.025A1.752,1.752,0,0,0,0,2.8l.445.016a1.656,1.656,0,0,0,.789-.3.047.047,0,0,1,.014-.009,2.869,2.869,0,0,0,.323-.3s.007-.009.009-.014l.231-.359s0,0,0,0,0,0,0,0,0,0,0-.009l0-.007v0l.133-.423c0-.007,0-.011,0-.018A2.22,2.22,0,0,0,1.973.9" transform="translate(1.566 0.714)" fill="#2b2e34"/>
      </g>
      <g id="Grupo_2628" data-name="Grupo 2628" transform="translate(365.556 -207.33)">
        <path id="Caminho_3810" data-name="Caminho 3810" d="M.011,0l-.02.027L0,.02.011,0" transform="translate(0.009)" fill="#46ac46"/>
      </g>
      <g id="Grupo_2629" data-name="Grupo 2629" transform="translate(362.56 -209.518)">
        <path id="Caminho_3811" data-name="Caminho 3811" d="M3.946,1.07A1.728,1.728,0,0,0,3.906.426,1.36,1.36,0,0,0,3.37-.318C3.336-.361,3.3-.4,3.271-.435A1.456,1.456,0,0,0,2.3-.849a1.327,1.327,0,0,0-.773.231A1.206,1.206,0,0,0,.76-.04C.531.365.294.76.03,1.138c-.047.068-.1.133-.145.2.038-.05.075-.093,0,0,0,.007-.011.014-.018.023s-.023.029-.032.043l.025-.036c-.034.041-.068.086-.1.127-.14.167-.287.323-.438.477-.251.26-.486.527-.707.8l-.038.029c-.129.093-.258.179-.391.267a3.573,3.573,0,0,0-1.051.965,1.421,1.421,0,0,0,.583,2.133A3.6,3.6,0,0,0-.91,6.34c.307,0,.617-.023.924-.052A3.192,3.192,0,0,0,2.739,5.4c.979-1.074.807-2.622,1.426-3.86a.331.331,0,0,0-.219-.468" transform="translate(3.132 0.849)" fill="#46ac46"/>
      </g>
      <g id="Grupo_2630" data-name="Grupo 2630" transform="translate(361.373 -204.945)">
        <path id="Caminho_3812" data-name="Caminho 3812" d="M2.833,1.069a.322.322,0,0,0-.072-.1A.29.29,0,0,0,2.555.78,2.693,2.693,0,0,0,1.908.771,3.529,3.529,0,0,1,.914.461,4.255,4.255,0,0,1,.329.174.241.241,0,0,1,.22-.154.322.322,0,0,0,0-.547s-.009,0-.016,0a.312.312,0,0,0-.088-.21.331.331,0,0,0-.452,0L-2.157.694a.316.316,0,0,0-.066.348.327.327,0,0,0,.292.2A5.758,5.758,0,0,0-.537,1.227c-.038.147-.079.289-.108.438A.33.33,0,0,0-.53,2a.331.331,0,0,0,.355.027l1.2-.536a1.342,1.342,0,0,0,.023.319.426.426,0,0,0,.547.314,2.48,2.48,0,0,0,.554-.3c.19-.115.375-.235.558-.355a.326.326,0,0,0,.131-.4" transform="translate(2.248 0.848)" fill="#46ac46"/>
      </g>
      <g id="Grupo_2631" data-name="Grupo 2631" transform="translate(389.473 -200.78)">
        <path id="Caminho_3813" data-name="Caminho 3813" d="M.985.511A1.4,1.4,0,0,1,.8.149,2.189,2.189,0,0,0,.7-.235.3.3,0,0,0,.214-.321,2.149,2.149,0,0,0-.064.039a4.621,4.621,0,0,0-.71,1.593.237.237,0,0,0,.163.289A.233.233,0,0,0-.344,1.8a.244.244,0,0,0,.093-.054c.1-.093.188-.19.273-.289a2.487,2.487,0,0,1,.823-.6A.236.236,0,0,0,.985.511" transform="translate(0.781 0.405)" fill="#3b8f39"/>
      </g>
      <g id="Grupo_2632" data-name="Grupo 2632" transform="translate(391.55 -203.829)">
        <path id="Caminho_3814" data-name="Caminho 3814" d="M1.135.585a1.278,1.278,0,0,1-.075-.4,2.148,2.148,0,0,0,.007-.4A.307.307,0,0,0,.626-.429,2.292,2.292,0,0,0,.26-.163,4.661,4.661,0,0,0-.868,1.168a.24.24,0,0,0,.075.323A.24.24,0,0,0-.5,1.449a.234.234,0,0,0,.1-.029,3.814,3.814,0,0,0,.346-.2A2.456,2.456,0,0,1,.9.877c.138-.014.283-.136.231-.292" transform="translate(0.901 0.465)" fill="#3b8f39"/>
      </g>
      <g id="Grupo_2633" data-name="Grupo 2633" transform="translate(394.373 -205.997)">
        <path id="Caminho_3815" data-name="Caminho 3815" d="M1.207.627a1.287,1.287,0,0,1,.045-.4,1.866,1.866,0,0,0,.124-.38.3.3,0,0,0-.353-.334,2.341,2.341,0,0,0-.429.145A4.716,4.716,0,0,0-.879.591.24.24,0,0,0-.9.923.237.237,0,0,0-.61.968.248.248,0,0,0-.5.97,3.291,3.291,0,0,0-.115.882,2.445,2.445,0,0,1,.9.837c.136.027.312-.045.307-.21" transform="translate(0.958 0.497)" fill="#3b8f39"/>
      </g>
      <g id="Grupo_2634" data-name="Grupo 2634" transform="translate(397.468 -208.013)">
        <path id="Caminho_3816" data-name="Caminho 3816" d="M1.207.627a1.287,1.287,0,0,1,.045-.4,1.866,1.866,0,0,0,.124-.38.3.3,0,0,0-.355-.334,2.318,2.318,0,0,0-.427.145A4.665,4.665,0,0,0-.879.591.24.24,0,0,0-.9.923.237.237,0,0,0-.61.968.238.238,0,0,0-.5.97,3.227,3.227,0,0,0-.115.882,2.445,2.445,0,0,1,.9.837c.136.027.312-.045.307-.21" transform="translate(0.958 0.497)" fill="#3b8f39"/>
      </g>
      <g id="Grupo_2635" data-name="Grupo 2635" transform="translate(400.612 -209.393)">
        <path id="Caminho_3817" data-name="Caminho 3817" d="M1.21.631a1.355,1.355,0,0,1,.07-.4A1.851,1.851,0,0,0,1.43-.14.3.3,0,0,0,1.1-.5a2.523,2.523,0,0,0-.438.12A4.624,4.624,0,0,0-.869.464.234.234,0,0,0-.912.792.237.237,0,0,0-.625.857.271.271,0,0,0-.519.866,3.244,3.244,0,0,0-.125.8,2.473,2.473,0,0,1,.889.821.238.238,0,0,0,1.21.631" transform="translate(0.961 0.501)" fill="#3b8f39"/>
      </g>
      <g id="Grupo_2636" data-name="Grupo 2636" transform="translate(348.437 -219.12)">
        <path id="Caminho_3818" data-name="Caminho 3818" d="M20.549,6.139a8.041,8.041,0,0,0-3.058-1.485C15.629,3.936,14.157,3.9,12.3,1.1a9.134,9.134,0,0,0-1.887-2.59C9.556-2.146,9.1-2.822,8.021-2.842a.959.959,0,0,0-.364.063A1.182,1.182,0,0,0,6.88-2.5c-.3.237-.906.312-1.22.533A20.427,20.427,0,0,1-4.567-2.781C-6.4-3.358-8.655-4.738-10.59-4.845a25.242,25.242,0,0,0-4.95.334,1.007,1.007,0,0,0-.768.479,1.91,1.91,0,0,0,.97.549c1.4.124,1.089.264,2.493.38,1.04.084,1.141.072,2.181.158a3.21,3.21,0,0,1,2.2.909c1.324,1.4,4.423,4.549,8.032,4.717a3.419,3.419,0,0,0,.4.823A8.186,8.186,0,0,0,3.7,6.462c.188.038.375.07.56.1.258.066.515.124.757.194,1.284.368,2.567.809,3.874,1.089l.079.014a.228.228,0,0,1-.034.016c.158.027.316.043.472.068l.332.1c.3.093.615.21.931.307a1,1,0,0,0,.14.068,10.006,10.006,0,0,0,1.465.3,1.451,1.451,0,0,0,.4.113,10.044,10.044,0,0,0,3.257-.041c.174,0,.355.011.524.011l1.236-.106,2.1-.179a1.361,1.361,0,0,0,.762-2.373" transform="translate(16.308 4.872)" fill="#85c957"/>
      </g>
      <g id="Grupo_2637" data-name="Grupo 2637" transform="translate(352.713 -220.538)">
        <path id="Caminho_3819" data-name="Caminho 3819" d="M1.368.676C1.359.667,1.356.662,1.354.662L1.338.64A.526.526,0,0,1,1.3.581C1.282.552,1.268.525,1.252.493c.023.047,0,0-.009-.02C1.2.364,1.16.253,1.119.145A1.238,1.238,0,0,0,.635-.5a.285.285,0,0,0-.3.014L-.949.443a.3.3,0,0,0-.09.409.3.3,0,0,0,.407.09l.16-.115a.209.209,0,0,0,.05.038A.86.86,0,0,0,.1.943a4.423,4.423,0,0,1,.933.21A.3.3,0,0,0,1.368.676" transform="translate(1.085 0.537)" fill="#fff"/>
      </g>
      <g id="Grupo_2638" data-name="Grupo 2638" transform="translate(355.137 -219.975)">
        <path id="Caminho_3820" data-name="Caminho 3820" d="M1.366.711C1.359.7,1.355.7,1.355.695A.2.2,0,0,1,1.339.672C1.328.654,1.316.632,1.305.611S1.276.55,1.264.521c.02.047,0,0-.007-.023C1.219.387,1.19.274,1.156.161A1.223,1.223,0,0,0,.724-.517a.285.285,0,0,0-.3-.011L-.928.306a.3.3,0,0,0-.122.4.3.3,0,0,0,.4.12l.17-.1A.167.167,0,0,0-.433.765.85.85,0,0,0,.076.88a4.273,4.273,0,0,1,.915.283A.3.3,0,0,0,1.366.711" transform="translate(1.084 0.564)" fill="#fff"/>
      </g>
      <g id="Grupo_2639" data-name="Grupo 2639" transform="translate(357.663 -219.207)">
        <path id="Caminho_3821" data-name="Caminho 3821" d="M1.363.726C1.354.714,1.351.712,1.351.71A.2.2,0,0,1,1.338.687C1.324.667,1.315.644,1.3.624S1.279.563,1.268.533c.018.047,0,0-.007-.023C1.227.4,1.2.285,1.173.17A1.259,1.259,0,0,0,.764-.524a.29.29,0,0,0-.3-.02C0-.28-.457-.02-.918.244a.3.3,0,0,0-.133.4.3.3,0,0,0,.4.133l.172-.1A.285.285,0,0,0-.439.721a.866.866,0,0,0,.5.131,4.223,4.223,0,0,1,.909.312A.3.3,0,0,0,1.363.726" transform="translate(1.081 0.576)" fill="#fff"/>
      </g>
      <g id="Grupo_2640" data-name="Grupo 2640" transform="translate(360.063 -218.21)">
        <path id="Caminho_3822" data-name="Caminho 3822" d="M1.363.725A.068.068,0,0,0,1.351.71.2.2,0,0,1,1.338.687C1.326.667,1.315.644,1.306.624a.774.774,0,0,1-.038-.09c.018.047,0,0-.007-.023C1.227.4,1.2.285,1.173.169A1.246,1.246,0,0,0,.764-.522a.285.285,0,0,0-.3-.023C0-.28-.457-.02-.916.244a.3.3,0,0,0-.136.4.3.3,0,0,0,.4.133l.172-.1A.228.228,0,0,0-.436.721a.858.858,0,0,0,.5.131,4.329,4.329,0,0,1,.906.312A.3.3,0,0,0,1.363.725" transform="translate(1.081 0.576)" fill="#fff"/>
      </g>
      <g id="Grupo_2641" data-name="Grupo 2641" transform="translate(362.653 -217.611)">
        <path id="Caminho_3823" data-name="Caminho 3823" d="M1.368.675,1.354.661,1.338.641,1.3.58C1.282.55,1.266.523,1.252.494c.023.045,0,0-.009-.023C1.2.365,1.16.252,1.117.146A1.246,1.246,0,0,0,.635-.5a.289.289,0,0,0-.3.014L-.951.447a.3.3,0,0,0-.088.409.3.3,0,0,0,.407.09l.16-.118a.217.217,0,0,0,.05.041A.876.876,0,0,0,.1.944a4.287,4.287,0,0,1,.933.21A.3.3,0,0,0,1.368.675" transform="translate(1.085 0.536)" fill="#fff"/>
      </g>
      <g id="Grupo_2642" data-name="Grupo 2642" transform="translate(365.336 -217.26)">
        <path id="Caminho_3824" data-name="Caminho 3824" d="M1.367.656,1.353.643,1.337.622A.56.56,0,0,1,1.294.564C1.276.536,1.26.509,1.245.48c.025.045,0,0-.009-.02C1.183.353,1.143.243,1.1.136A1.227,1.227,0,0,0,.591-.49a.29.29,0,0,0-.3.023L-.959.514a.3.3,0,0,0-.075.411A.3.3,0,0,0-.622,1L-.466.88A.3.3,0,0,0-.414.916.891.891,0,0,0,.1.973a4.24,4.24,0,0,1,.942.174.3.3,0,0,0,.321-.49" transform="translate(1.085 0.521)" fill="#fff"/>
      </g>
      <g id="Grupo_2643" data-name="Grupo 2643" transform="translate(367.888 -217.561)">
        <path id="Caminho_3825" data-name="Caminho 3825" d="M1.33.546C1.319.539,1.317.537,1.314.537L1.294.519C1.276.5,1.258.487,1.24.469S1.2.422,1.177.4c.032.038,0,0-.016-.02C1.093.284,1.03.187.962.09A1.252,1.252,0,0,0,.343-.423.3.3,0,0,0,.056-.34C-.288.065-.634.467-.977.872a.3.3,0,0,0,.009.418A.3.3,0,0,0-.55,1.281l.129-.149a.253.253,0,0,0,.057.025.881.881,0,0,0,.52-.047,4.155,4.155,0,0,1,.961-.016A.3.3,0,0,0,1.459.912.3.3,0,0,0,1.33.546" transform="translate(1.056 0.433)" fill="#fff"/>
      </g>
      <g id="Grupo_2644" data-name="Grupo 2644" transform="translate(348.179 -219.416)">
        <path id="Caminho_3826" data-name="Caminho 3826" d="M14.617,1.211A3,3,0,0,1,12.344.594a.3.3,0,0,0-.418,0,.3.3,0,0,0,0,.418c.072.059.147.111.224.165-2.54,1.467-5.63,1.467-8.453.954C.481,1.546-2.821-.56-6.092-.881A13.063,13.063,0,0,0-11.443-.4c-.359.118-.023.651.217.551C-5.19-2.362,1.645,3.562,8.135,2.986a10.235,10.235,0,0,0,4.608-1.474,3.48,3.48,0,0,0,1.874.292.308.308,0,0,0,.3-.3.3.3,0,0,0-.3-.3" transform="translate(11.601 0.961)" fill="#3b8f39"/>
      </g>
      <g id="Grupo_2645" data-name="Grupo 2645" transform="translate(382.391 -207.456)">
        <path id="Caminho_3827" data-name="Caminho 3827" d="M.014,0-.011.032A.031.031,0,0,0,0,.023.158.158,0,0,0,.014,0" transform="translate(0.011)" fill="#46ac46"/>
      </g>
      <g id="Grupo_2646" data-name="Grupo 2646" transform="translate(378.352 -209.758)">
        <path id="Caminho_3828" data-name="Caminho 3828" d="M5.32,1.212A1.914,1.914,0,0,0,5.274.48a1.564,1.564,0,0,0-.608-.843C4.628-.41,4.592-.456,4.553-.5a1.634,1.634,0,0,0-1.1-.466A1.513,1.513,0,0,0,2.578-.7a1.378,1.378,0,0,0-.872.658A15.485,15.485,0,0,1,.879,1.289c-.052.075-.111.151-.165.228.045-.059.088-.1,0,0L.7,1.54c-.011.016-.027.032-.038.05.007-.011.02-.027.032-.043l-.12.147c-.158.185-.325.364-.495.54-.285.292-.551.594-.8.911a.256.256,0,0,0-.041.032c-.147.1-.294.2-.445.3A4.171,4.171,0,0,0-2.407,4.571c-.029.045-.045.093-.072.138-.547.5-1.1,1-1.645,1.5a.339.339,0,0,0-.07.373.354.354,0,0,0,.312.21A6.417,6.417,0,0,0-2.4,6.774c-.043.154-.084.307-.115.466a.344.344,0,0,0,.124.357.347.347,0,0,0,.377.027c.341-.151.685-.307,1.026-.459.086.009.172.011.258.014A1.128,1.128,0,0,0-.71,7.4a.453.453,0,0,0,.583.334,2.786,2.786,0,0,0,.592-.321c.145-.09.289-.185.434-.28a3.608,3.608,0,0,0,3.053-1.01c1.112-1.214.913-2.974,1.616-4.378a.375.375,0,0,0-.249-.529" transform="translate(4.222 0.962)" fill="#46ac46"/>
      </g>
      <g id="Grupo_2647" data-name="Grupo 2647" transform="translate(372.662 -206.966)">
        <path id="Caminho_3829" data-name="Caminho 3829" d="M.013,0-.01.029A.031.031,0,0,0,0,.02L.013,0" transform="translate(0.01)" fill="#46ac46"/>
      </g>
      <g id="Grupo_2648" data-name="Grupo 2648" transform="translate(368.268 -209.438)">
        <path id="Caminho_3830" data-name="Caminho 3830" d="M4.99.682C4.978.659,4.963.639,4.951.619S4.944.569,4.94.546A.978.978,0,0,0,4.651.106C4.624.067,4.6.027,4.572-.01a.427.427,0,0,0-.12-.1H4.445a.247.247,0,0,0-.023-.025,1.258,1.258,0,0,0-.6-.287l-.045-.02a1.069,1.069,0,0,0-.409-.093.277.277,0,0,0-.043,0,2,2,0,0,0-.646.038,2.207,2.207,0,0,0-.617.28,1.512,1.512,0,0,0-.407.359,1.248,1.248,0,0,0-.264.316C1.145.894.892,1.315.61,1.719c-.047.07-.1.14-.154.212.043-.057.081-.1,0,0l-.02.023C.429,1.968.418,1.981.406,2a.317.317,0,0,1,.027-.041C.4,2.006.361,2.049.323,2.1c-.149.174-.307.341-.466.506-.267.273-.906,1.207-1.046,1.3A5.007,5.007,0,0,0-2.448,5.094q-.709.648-1.419,1.293a.321.321,0,0,0-.068.35.338.338,0,0,0,.294.2A5.874,5.874,0,0,0-2.247,6.92c-.041.145-.079.292-.108.436a.33.33,0,0,0,.115.339.326.326,0,0,0,.355.023q.529-.234,1.058-.475c.047,0,.095,0,.142,0a1.2,1.2,0,0,0,.018.258.425.425,0,0,0,.547.312,2.448,2.448,0,0,0,.554-.3c.165-.1.325-.2.486-.307a3.222,3.222,0,0,0,2.572-.961C4.526,5.116,4.355,3.484,5,2.171a1.225,1.225,0,0,0,.066-.163.863.863,0,0,0,.025-.129.546.546,0,0,0,.043-.21c0-.034.016-.068.018-.1A1.8,1.8,0,0,0,4.99.682" transform="translate(3.96 0.541)" fill="#46ac46"/>
      </g>
    </g>
  </g>
</svg>
