<svg xmlns="http://www.w3.org/2000/svg" xmlns:xlink="http://www.w3.org/1999/xlink" width="60" height="54" viewBox="0 0 60 54">
  <defs>
    <clipPath id="clip-path">
      <rect id="Retângulo_466" data-name="Retângulo 466" width="60" height="54" transform="translate(155 1235)" fill="none" stroke="#707070" stroke-width="1" opacity="0.4"/>
    </clipPath>
    <clipPath id="clip-path-2">
      <path id="Caminho_3738" data-name="Caminho 3738" d="M90.27-192.416h45.09v-40H90.27Z" transform="translate(0 0)" fill="none"/>
    </clipPath>
  </defs>
  <g id="alfabeto_c_e002_fim" transform="translate(-155 -1235)" clip-path="url(#clip-path)">
    <g id="alfabeto_c_e002_fim-2" data-name="alfabeto_c_e002_fim" transform="translate(71.73 1474.416)" clip-path="url(#clip-path-2)">
      <g id="Grupo_2554" data-name="Grupo 2554" transform="translate(90.901 -231.46)">
        <path id="Caminho_3736" data-name="Caminho 3736" d="M25.063,5.666A10.043,10.043,0,0,0,12.858-1.918,16.009,16.009,0,0,0,5.351,3.11a21.479,21.479,0,0,0-6.49-5.67A10.988,10.988,0,0,0-14.354-1.005c-3.5,3.287-4.328,8.319-3.265,12.836A21.945,21.945,0,0,0-10.7,23.238,89.815,89.815,0,0,0,2.846,33.2c.057.064.1.136.162.193a3.959,3.959,0,0,0,5.474-.117c4.352-3.7,9.067-7.7,12.334-12.4,3.048-4.39,5.589-9.752,4.247-15.205" transform="translate(18.051 4.081)" fill="#f5425e"/>
      </g>
      <g id="Grupo_2555" data-name="Grupo 2555" transform="translate(126.272 -226.64)">
        <path id="Caminho_3737" data-name="Caminho 3737" d="M1.7.345C.326-1.32-2.2.877-.828,2.54A9.026,9.026,0,0,1-.654,13.78,1.688,1.688,0,0,0-.217,16.1a1.7,1.7,0,0,0,2.326-.437A12.422,12.422,0,0,0,1.7.345" transform="translate(1.224 0.248)" fill="#fff"/>
      </g>
    </g>
  </g>
</svg>
