<svg xmlns="http://www.w3.org/2000/svg" xmlns:xlink="http://www.w3.org/1999/xlink" width="60" height="54" viewBox="0 0 60 54">
  <defs>
    <clipPath id="clip-path">
      <rect id="Retângulo_466" data-name="Retângulo 466" width="60" height="54" transform="translate(747 1230)" fill="none" stroke="#707070" stroke-width="1" opacity="0.4"/>
    </clipPath>
    <clipPath id="clip-path-2">
      <path id="Caminho_3862" data-name="Caminho 3862" d="M418.828-199.441h57.2V-228.33h-57.2Z" transform="translate(0 0)" fill="none"/>
    </clipPath>
  </defs>
  <g id="alfabeto_l_e002_fim" transform="translate(-747 -1230)" clip-path="url(#clip-path)">
    <g id="alfabeto_l_e002_fim-2" data-name="alfabeto_l_e002_fim" transform="translate(329.172 1471.33)" clip-path="url(#clip-path-2)">
      <g id="Grupo_2670" data-name="Grupo 2670" transform="translate(428.42 -228.329)">
        <path id="Caminho_3852" data-name="Caminho 3852" d="M26.553.037C25.67,0,24.79-.011,23.906-.029A79.361,79.361,0,0,1,11.188.859Q7.461,2,3.759,3.227a1.777,1.777,0,0,0-.411.057A157.258,157.258,0,0,0-19.564,11.5a1.462,1.462,0,0,0-.744,1.49,6.847,6.847,0,0,0,1.586,7.078A9.49,9.49,0,0,0-15.332,22.3a7.422,7.422,0,0,0,4.468.55,1.235,1.235,0,0,0,.6-.361h.009Q-2.779,19.511,4.7,16.534a64.979,64.979,0,0,0,11.8-5.656,2.043,2.043,0,0,0,.744-.388c.456-.374.922-.732,1.392-1.086a13.77,13.77,0,0,0,1.882-1.392c.185-.135.361-.278.543-.415C23,5.262,24.908,2.9,26.889.6a1.5,1.5,0,0,0-.335-.566" transform="translate(20.717 0.029)" fill="#ffc734"/>
      </g>
      <g id="Grupo_2671" data-name="Grupo 2671" transform="translate(470.951 -228.329)">
        <path id="Caminho_3853" data-name="Caminho 3853" d="M2.662.037C1.779,0,.9-.011.015-.029Q-.909.087-1.833.2a3.2,3.2,0,0,0-.226,1.51,3.552,3.552,0,0,0,1.2,2.364,4.485,4.485,0,0,0,.6.406C.816,3.179,1.9,1.883,3,.6A1.5,1.5,0,0,0,2.662.037" transform="translate(2.077 0.029)" fill="#2b2e34"/>
      </g>
      <g id="Grupo_2672" data-name="Grupo 2672" transform="translate(428.42 -227.441)">
        <path id="Caminho_3854" data-name="Caminho 3854" d="M20.653,3.7A14.322,14.322,0,0,1,16.566-2.87c-.258,0-.518,0-.776-.014Q12.063-1.741,8.364-.516a1.761,1.761,0,0,0-.411.057A157.067,157.067,0,0,0-14.96,7.762a1.459,1.459,0,0,0-.744,1.49A6.847,6.847,0,0,0-14.12,16.33a9.5,9.5,0,0,0,3.393,2.227,9.4,9.4,0,0,0,2.3.627.327.327,0,0,1,.025.034.978.978,0,0,0,.214.185.932.932,0,0,0,.262.116c.018,0,.039,0,.059.009a.38.38,0,0,0,.395.128c.064-.018.123-.048.183-.068A.354.354,0,0,0-7,19.547a6.246,6.246,0,0,1,.73-.438.008.008,0,0,0,.007,0,1.137,1.137,0,0,0,.431-.219q.5-.24,1.011-.472Q2.241,15.6,9.3,12.791A64.835,64.835,0,0,0,21.1,7.135a2.008,2.008,0,0,0,.744-.388c.39-.319.789-.625,1.189-.926A23.8,23.8,0,0,1,20.653,3.7" transform="translate(16.114 2.884)" fill="#ff9a39"/>
      </g>
      <g id="Grupo_2673" data-name="Grupo 2673" transform="translate(425.216 -217.081)">
        <path id="Caminho_3855" data-name="Caminho 3855" d="M7.014,3.78Q5.443,1.3,3.874-1.179A4.075,4.075,0,0,0-.874-2.705a3.371,3.371,0,0,0-.833.217,4.425,4.425,0,0,0-.536.281.367.367,0,0,0-.287.046c-.308.205-.6.438-.894.664l-.449.217a4.383,4.383,0,0,0-1.472.894.472.472,0,0,0,0,.643.432.432,0,0,0,.16.1.406.406,0,0,0,.078.169.429.429,0,0,0,.575.116h0a.492.492,0,0,0,.21.26,4.126,4.126,0,0,0,.173,1.839A12.287,12.287,0,0,0,1.919,9.762a3.683,3.683,0,0,0,1.175.358.449.449,0,0,0-.064.459.492.492,0,0,0,.091.29.436.436,0,0,0,.577.116c.037-.027.075-.055.114-.082a.634.634,0,0,0,.237-.046,1.362,1.362,0,0,0,.452-.349.445.445,0,0,0,.228-.05A13.331,13.331,0,0,0,6.676,9.073a.438.438,0,0,0,.121-.4,4.277,4.277,0,0,0,.217-4.89" transform="translate(5.473 2.949)" fill="#ffc734"/>
      </g>
      <g id="Grupo_2674" data-name="Grupo 2674" transform="translate(423.887 -215.415)">
        <path id="Caminho_3856" data-name="Caminho 3856" d="M6.033,4.007Q4.462,1.525,2.891-.952C1.924-2.483.577-3.575-1.088-2.943a13.519,13.519,0,0,0-1.6.682C-4.73-1.417-5.088.333-4.363,2.5A12.292,12.292,0,0,0,1.7,9.524c1.531.783,2.95.872,4.043-.525a4.29,4.29,0,0,0,.287-4.992" transform="translate(4.707 3.126)" fill="#ff9a39"/>
      </g>
      <g id="Grupo_2675" data-name="Grupo 2675" transform="translate(419.728 -214.512)">
        <path id="Caminho_3857" data-name="Caminho 3857" d="M8.006,3.528q-1.5-2.32-2.987-4.639a3.871,3.871,0,0,0-3.6-1.622c-.146.052-.29.11-.436.162C-.6-1.818-2.252-1.2-3.77-.33a.428.428,0,0,0-.055.087c-.219.137-.452.253-.685.37C-4.6.183-4.689.238-4.778.3a1.034,1.034,0,0,1-.34.153,2.92,2.92,0,0,0-.5.361,1.712,1.712,0,0,0-.513,1.93,3.387,3.387,0,0,0,1.755,1.5c.849.461,1.679.951,2.485,1.481a8.661,8.661,0,0,1,2.268,1.8,28.114,28.114,0,0,1,1.4,2.565,1.773,1.773,0,0,0,1.752.933,2.375,2.375,0,0,0,1.063-.4,1.4,1.4,0,0,1,.2-.285C5.857,9.214,7.141,8.335,8.271,7.284a3.891,3.891,0,0,0-.265-3.756" transform="translate(6.247 2.752)" fill="#e06077"/>
      </g>
      <g id="Grupo_2676" data-name="Grupo 2676" transform="translate(419.309 -212.058)">
        <path id="Caminho_3858" data-name="Caminho 3858" d="M6.08,3.534Q4.587,1.214,3.093-1.1A3.905,3.905,0,0,0-1.42-2.528a3.059,3.059,0,0,0-.792.2,3.9,3.9,0,0,0-2.32,4.89A11.555,11.555,0,0,0,1.233,9.129,3.885,3.885,0,0,0,5.808,8.2,3.961,3.961,0,0,0,6.08,3.534" transform="translate(4.743 2.757)" fill="#ff6e88"/>
      </g>
      <g id="Grupo_2677" data-name="Grupo 2677" transform="translate(435.227 -224.786)">
        <path id="Caminho_3859" data-name="Caminho 3859" d="M12.8.008a89.444,89.444,0,0,0-11.2,3.8C-2.18,5.315-5.95,6.853-9.726,8.377c-.461.187-.258.942.208.753C-5.742,7.608-1.973,6.068,1.81,4.564a89.444,89.444,0,0,1,11.2-3.8A.391.391,0,0,0,12.8.008" transform="translate(9.986 0.006)" fill="#ffc734"/>
      </g>
      <g id="Grupo_2678" data-name="Grupo 2678" transform="translate(438.61 -221.543)">
        <path id="Caminho_3860" data-name="Caminho 3860" d="M12.032.01A188.325,188.325,0,0,0-9.183,7.651c-.461.2-.064.872.395.675A187.064,187.064,0,0,1,12.24.763.391.391,0,0,0,12.032.01" transform="translate(9.388 0.008)" fill="#ffc734"/>
      </g>
      <g id="Grupo_2679" data-name="Grupo 2679" transform="translate(441.026 -218.534)">
        <path id="Caminho_3861" data-name="Caminho 3861" d="M11.924.033A31.046,31.046,0,0,1,6.751,2.274Q4.037,3.311,1.309,4.312C-2.2,5.592-5.723,6.826-9.1,8.419c-.454.214-.057.885.395.675C-5.274,7.474-1.68,6.237,1.88,4.93q2.731-1,5.442-2.042a29.925,29.925,0,0,0,5-2.179c.427-.262.034-.938-.395-.675" transform="translate(9.303 0.026)" fill="#ffc734"/>
      </g>
    </g>
  </g>
</svg>
