<svg xmlns="http://www.w3.org/2000/svg" xmlns:xlink="http://www.w3.org/1999/xlink" width="58.142" height="40" viewBox="0 0 58.142 40">
  <defs>
    <clipPath id="clip-path">
      <path id="Caminho_3998" data-name="Caminho 3998" d="M306.626-111.121h58.142v-40H306.626Z" transform="translate(0 0)" fill="none"/>
    </clipPath>
  </defs>
  <g id="alfabeto_v_e002_fim" transform="translate(-306.626 151.121)" clip-path="url(#clip-path)">
    <g id="Grupo_2799" data-name="Grupo 2799" transform="translate(343.644 -123.993)">
      <path id="Caminho_3981" data-name="Caminho 3981" d="M8.83.714A1.211,1.211,0,0,0,7.72-.208,1.158,1.158,0,0,0,6.756-.68Q1.881-.461-3-.4a1.349,1.349,0,0,0-.439.08,1.175,1.175,0,0,0-.783-.3C-5.51-.667-7.57-.782-8.238.446c-.57,1.051.369,2.213,1.006,3.05a6.428,6.428,0,0,0,2.8,2.263,11.426,11.426,0,0,0,4.322.418A24.54,24.54,0,0,0,4.324,5.6q.981-.221,1.933-.529A5.491,5.491,0,0,0,8.191,4.2a2.155,2.155,0,0,0,.67-1.57A5.888,5.888,0,0,0,8.83.714" transform="translate(8.414 0.68)" fill="#e16162"/>
    </g>
    <g id="Grupo_2800" data-name="Grupo 2800" transform="translate(315.673 -131.95)">
      <path id="Caminho_3982" data-name="Caminho 3982" d="M11.549,5.893a.971.971,0,0,0-1-.279,3.467,3.467,0,0,0-1.15-.18,9.087,9.087,0,0,0-1.99.275,1,1,0,0,0-.383.057c-.176.059-.357.109-.535.168A12.384,12.384,0,0,0,5.015,6.2a7.077,7.077,0,0,0-1.767.008A1.242,1.242,0,0,0,2.5,5.8C1.648,5.68.795,5.578-.062,5.481A6.347,6.347,0,0,0-.517,3.6a1.37,1.37,0,0,0-.629-.713c-.029-.469-.035-.943-.016-1.416A1.025,1.025,0,0,0-1.607.511C-1.617.3-1.63.1-1.64-.106a1.19,1.19,0,0,0-.652-1.008c0-.109.006-.213.008-.322a1.049,1.049,0,0,0-.172-.627c.027-.242.051-.484.078-.728A.973.973,0,0,0-2.568-3.5c.871-.742.3-2.447-.9-2.062-2.2.705-5.136,1.129-6.519,3.337a7.235,7.235,0,0,0-.9,3.865,9.073,9.073,0,0,0,.143,3.566c.02.121.037.238.061.357a1.133,1.133,0,0,0,.092.266,1.075,1.075,0,0,0,.068.158,8.813,8.813,0,0,0,1.9,3.191,9.436,9.436,0,0,0,3.96,2.486,6.914,6.914,0,0,0,.76.2,9.522,9.522,0,0,0,2.843,1.181,16.752,16.752,0,0,0,9.2.213c.2-.057.4-.125.6-.2a4.95,4.95,0,0,0,3.242-2.367,4.345,4.345,0,0,0-.428-4.8" transform="translate(11.004 5.615)" fill="#764616"/>
    </g>
    <g id="Grupo_2801" data-name="Grupo 2801" transform="translate(320.331 -129.494)">
      <path id="Caminho_3983" data-name="Caminho 3983" d="M10.557,2.571c-.23-.7-1.1-1.168-1.67-.449-.557.7-1.15,1.359-1.769,2a1.051,1.051,0,0,0-1.289-.238,3.5,3.5,0,0,0-.779.5A9.051,9.051,0,0,1-.979,5.56a5.142,5.142,0,0,0-1.562-.32.912.912,0,0,0-.709.248,7.287,7.287,0,0,1-.844-.371,1.031,1.031,0,0,0-.549-.1,15.72,15.72,0,0,1-.664-1.554A11.467,11.467,0,0,0-7.185-.025.947.947,0,0,0-7.7-.345,3.851,3.851,0,0,1-7.429-.89a1.049,1.049,0,0,0-1.81-1.058,6.481,6.481,0,0,0,.381,6.895A10.579,10.579,0,0,0-2.4,9.39a17.516,17.516,0,0,0,4.32-.031A17.6,17.6,0,0,0,6.11,8.595a7.856,7.856,0,0,0,5.142-4.786.929.929,0,0,0-.695-1.238" transform="translate(10.059 2.45)" fill="#ff4227"/>
    </g>
    <g id="Grupo_2802" data-name="Grupo 2802" transform="translate(306.753 -150.381)">
      <path id="Caminho_3984" data-name="Caminho 3984" d="M26.9,9.014c-1.824-1.144-3.937-2.619-5.778-4.035q-1.393-1.07-2.73-2.2c-.537-.678-.959-1.461-1.443-2.189-.582-3.136-2.373-5.261-4.831-7.169A10.492,10.492,0,0,0,.549-7.091c-.15.076-.3.158-.445.242a11.529,11.529,0,0,1-2,1.066c-1.228.6-2.843.373-4.146.748q-.489.138-.974.281a9.679,9.679,0,0,0-1.422.629A4.6,4.6,0,0,0-10.92-1.185a11.083,11.083,0,0,0-.293,2.527.278.278,0,0,0-.057-.023C-12.653.99-13.5.98-14.883.658A8.6,8.6,0,0,0-19.1.539a13.511,13.511,0,0,0-3.373,1.59,8.206,8.206,0,0,0-2.962,2.6.985.985,0,0,0-.137.391,1.224,1.224,0,0,0,.865,1.6l4.4,1.119a11.711,11.711,0,0,0,4.191.576c2.1-.244,3.466-1.73,4.64-3.466-.047,1.113.7,2.412.953,3.513v0a7.3,7.3,0,0,0-.338,1.207c-.93,5.05.781,10.51,6.493,11.506A12.969,12.969,0,0,0,5,19.236c2.24.668,6.505.568,8.78,1.1,2.525.594,5.21,1.41,7.813.826a6,6,0,0,0,4.48-3.917,4.517,4.517,0,0,0,.609-1.07,5.294,5.294,0,0,0-.164-3.871A1.748,1.748,0,0,0,26.9,9.014" transform="translate(25.633 8.588)" fill="#90561d"/>
    </g>
    <g id="Grupo_2803" data-name="Grupo 2803" transform="translate(345.065 -150.767)">
      <path id="Caminho_3985" data-name="Caminho 3985" d="M6.263.6A.693.693,0,0,0,6.071.39,5.622,5.622,0,0,0,3.494-.431,9.305,9.305,0,0,0,.937-.511,5.875,5.875,0,0,0-1.685.72c-.785.58-1.562,1.168-2.343,1.752a.218.218,0,0,0-.031.031l.016.027a8.938,8.938,0,0,0-1.4,1.043v0c-.078.07-.156.135-.232.207a1.2,1.2,0,0,0-.287.859,1.248,1.248,0,0,0,.314.717,1.17,1.17,0,0,0,.59.365,1.279,1.279,0,0,0,1.135-.107c.443-.252.889-.5,1.336-.744a5,5,0,0,0,3.8.391A8.073,8.073,0,0,0,3.7,3.754L6.157,1.846A.839.839,0,0,0,6.263.6" transform="translate(5.968 0.571)" fill="#90561d"/>
    </g>
    <g id="Grupo_2804" data-name="Grupo 2804" transform="translate(324.52 -143.736)">
      <path id="Caminho_3986" data-name="Caminho 3986" d="M0,3.058A4.8,4.8,0,0,1,.714.268,6.859,6.859,0,0,1,2.428-1.476a6.013,6.013,0,0,1,4.757-1.34c.068.014.129.047.2.064a1.979,1.979,0,0,1,.56.061A6.288,6.288,0,0,1,10.185-1.56a4.689,4.689,0,0,1,1,.746,5.032,5.032,0,0,1,1.4,2.189,5.167,5.167,0,0,1,.1,2.615c-.033.135-.094.26-.135.394a5.349,5.349,0,0,1-.1.855,5.018,5.018,0,0,1-3.322,3.74,6.163,6.163,0,0,1-1.695.246,5.222,5.222,0,0,1-1.646.268A5.222,5.222,0,0,1,3.274,8.9a5.37,5.37,0,0,1-1.98-1.859A8.8,8.8,0,0,1,.409,5.089,8.014,8.014,0,0,1,0,3.058" transform="translate(0.001 2.914)" fill="#fff"/>
    </g>
    <g id="Grupo_2805" data-name="Grupo 2805" transform="translate(326.999 -143.014)">
      <path id="Caminho_3987" data-name="Caminho 3987" d="M.08,0H.054s0,0,0,0C-.1,0-.149,0,.08,0" transform="translate(0.077 0.001)" fill="#2b2e34"/>
    </g>
    <g id="Grupo_2806" data-name="Grupo 2806" transform="translate(327.769 -141.069)">
      <path id="Caminho_3988" data-name="Caminho 3988" d="M0,1.667c0-.008,0-.018,0-.027a.04.04,0,0,1,0-.016C0,1.558.034.964.038.9V.89A.26.26,0,0,1,.05.832a7.186,7.186,0,0,1,.225-.7A.169.169,0,0,1,.29.1c.059-.1.172-.273.2-.312s.127-.211.2-.309A.107.107,0,0,1,.7-.541s0,0,0-.006c.178-.164.355-.326.531-.49a0,0,0,0,1,0,0,.089.089,0,0,1,.014-.012.043.043,0,0,0,.012-.008s0,0,.006,0c.039-.02.627-.328.668-.346l.027-.012a4.476,4.476,0,0,1,.762-.164L2-1.426a4.94,4.94,0,0,1,.75-.162c.211.006.623.02.762.035a.026.026,0,0,0,.012,0,2.982,2.982,0,0,1,.365.115,3.278,3.278,0,0,1,.363.119l.023.012a7.285,7.285,0,0,1,.623.4.185.185,0,0,1,.02.018c.174.176.348.355.5.547a.1.1,0,0,1,.018.023A6.385,6.385,0,0,1,5.8.365a.125.125,0,0,1,.01.025,4.912,4.912,0,0,1,.164.754.1.1,0,0,1,0,.027v.012c-.006.123-.012.244-.018.365s-.01.246-.02.367c0,.01,0,.018,0,.029a2.129,2.129,0,0,1-.41.98,2.11,2.11,0,0,1-.721.793,2.146,2.146,0,0,1-.289.166c-.029.02-.061.033-.09.051-.045.023-.09.053-.137.072a2.689,2.689,0,0,1-.439.227l-.73.16a2.8,2.8,0,0,1-1.4-.256l-.025-.01a4.3,4.3,0,0,1-.625-.4.08.08,0,0,0-.02-.016l-.49-.531s0,0,0,0,0,0,0-.006l-.01-.01L.534,3.148s0,0,0-.006C.518,3.122.194,2.5.183,2.478A.121.121,0,0,1,.171,2.45,3.657,3.657,0,0,1,0,1.667" transform="translate(0.001 1.588)" fill="#2b2e34"/>
    </g>
    <g id="Grupo_2807" data-name="Grupo 2807" transform="translate(337.644 -145.429)">
      <path id="Caminho_3989" data-name="Caminho 3989" d="M0,2.108A3.316,3.316,0,0,1,.493.186a4.8,4.8,0,0,1,1.178-1.2,4.154,4.154,0,0,1,3.281-.924c.045.01.09.033.133.045a1.3,1.3,0,0,1,.387.043,4.323,4.323,0,0,1,1.547.779,3.223,3.223,0,0,1,.691.514A3.449,3.449,0,0,1,8.674.948a3.557,3.557,0,0,1,.074,1.8c-.025.092-.066.18-.094.271a3.3,3.3,0,0,1-.07.59A3.452,3.452,0,0,1,6.293,6.189a4.314,4.314,0,0,1-1.166.17,3.586,3.586,0,0,1-1.133.184,3.57,3.57,0,0,1-1.736-.408A3.667,3.667,0,0,1,.894,4.854,6.047,6.047,0,0,1,.282,3.508,5.459,5.459,0,0,1,0,2.108" transform="translate(0.001 2.009)" fill="#fff"/>
    </g>
    <g id="Grupo_2808" data-name="Grupo 2808" transform="translate(341.01 -142.701)">
      <path id="Caminho_3990" data-name="Caminho 3990" d="M.055,0H.035c-.1,0-.137,0,.02,0" transform="translate(0.053 0.001)" fill="#2b2e34"/>
    </g>
    <g id="Grupo_2809" data-name="Grupo 2809" transform="translate(339.503 -143.198)">
      <path id="Caminho_3991" data-name="Caminho 3991" d="M0,1.149V1.118C0,1.073.025.666.027.62V.612A.264.264,0,0,1,.035.573C.082.411.127.247.191.09A.083.083,0,0,1,.2.071,2.292,2.292,0,0,1,.336-.142C.359-.181.422-.29.471-.357L.484-.374s0,0,0,0C.611-.488.732-.6.855-.716h0S.863-.722.865-.724A.028.028,0,0,0,.873-.73l.006,0c.025-.014.432-.227.459-.24A.073.073,0,0,1,1.357-.98a3.3,3.3,0,0,1,.527-.113c-.168.037-.336.074-.5.109A3.7,3.7,0,0,1,1.9-1.1c.143,0,.43.016.525.025a.012.012,0,0,1,.008,0,1.769,1.769,0,0,1,.252.08,1.93,1.93,0,0,1,.25.082L2.947-.9c-.152-.09.3.174.428.275a.089.089,0,0,1,.014.012c.121.123.24.246.348.377.006.006.008.012.012.016A4.117,4.117,0,0,1,4,.252C4,.258,4,.262,4,.268a3.577,3.577,0,0,1,.113.521.057.057,0,0,1,0,.018V.815l-.012.252c0,.084-.006.168-.014.252a.073.073,0,0,1,0,.02,1.385,1.385,0,0,1-.283.674,1.429,1.429,0,0,1-.5.547,1.751,1.751,0,0,1-.2.115c-.02.012-.045.023-.066.035a.658.658,0,0,1-.092.049,1.845,1.845,0,0,1-.3.158c-.168.035-.336.072-.5.109a1.937,1.937,0,0,1-.965-.176l-.018-.006a3.182,3.182,0,0,1-.43-.275.054.054,0,0,1-.01-.012l-.34-.365v0l0,0L.373,2.178s0,0,0-.008,0,0,0,0-.234-.443-.24-.459a.08.08,0,0,1-.008-.018A2.532,2.532,0,0,1,0,1.149" transform="translate(0 1.095)" fill="#2b2e34"/>
    </g>
    <g id="Grupo_2810" data-name="Grupo 2810" transform="translate(343.133 -135.229)">
      <path id="Caminho_3992" data-name="Caminho 3992" d="M10.875,3.632A3.774,3.774,0,0,0,9.747,2.111C9.7,1.486,9.616.863,9.514.256a3.955,3.955,0,0,0-2.525-3.41,10.037,10.037,0,0,0-4.46-.107c-1.752.2-3.492.467-5.216.834q-1.264.271-2.513.6a17.5,17.5,0,0,0-1.937.555,4.007,4.007,0,0,0-2.324,1,3.924,3.924,0,0,0-.9,3.068A17.07,17.07,0,0,0-9.895,6.15a2.14,2.14,0,0,0-.18.838,3.582,3.582,0,0,0,.045.971c.146,2.324.693,4.642,3.638,5.105,2.558.4,5.323-.951,7.921-1.8,3.082.3,6.835.234,8.563-2.078a4.53,4.53,0,0,0,.312-.5c.025-.039.049-.076.074-.117s.035-.074.053-.111.045-.08.061-.123c.029-.076.049-.143.074-.219a3.441,3.441,0,0,0,.123-.344l.006,0c.045-.18.092-.369.131-.56.016-.07.033-.143.045-.215a6.2,6.2,0,0,0-.1-3.376" transform="translate(10.362 3.46)" fill="#ff7f61"/>
    </g>
    <g id="Grupo_2811" data-name="Grupo 2811" transform="translate(345.121 -132.328)">
      <path id="Caminho_3993" data-name="Caminho 3993" d="M5.135,1.46a.968.968,0,0,0-.02-.131A3.575,3.575,0,0,0,4.948.809,1.87,1.87,0,0,0,4.836.565.993.993,0,0,0,4.59.239C4.577.222,4.571.2,4.557.183A3.84,3.84,0,0,0,2.776-.88a9.308,9.308,0,0,0-2-.455,8.735,8.735,0,0,0-3.947.459A2.581,2.581,0,0,0-4.727.54a2.524,2.524,0,0,0,.17,2.15A5.089,5.089,0,0,0-.95,4.778a8.9,8.9,0,0,0,1.879.143,7.68,7.68,0,0,0,2-.2A2.852,2.852,0,0,0,4.661,3.508a2.344,2.344,0,0,0,.305-.9c.018-.037.041-.074.055-.109.008-.018.016-.035.023-.053a1.791,1.791,0,0,0,.111-.539,3.216,3.216,0,0,0-.02-.445" transform="translate(4.893 1.391)" fill="#e16162"/>
    </g>
    <g id="Grupo_2812" data-name="Grupo 2812" transform="translate(355.816 -134.201)">
      <path id="Caminho_3994" data-name="Caminho 3994" d="M3.006.982A1,1,0,0,0,2.979.869,4.16,4.16,0,0,0,2.821.437a1.946,1.946,0,0,0-.1-.2.746.746,0,0,0-.18-.254A.489.489,0,0,0,2.52-.059,2.117,2.117,0,0,0,1.356-.774,3.809,3.809,0,0,0,.14-.934,3.76,3.76,0,0,0-2.1-.075a2.135,2.135,0,0,0-.738,1.412,3.153,3.153,0,0,0,.353,1.847A2.8,2.8,0,0,0-.14,4.575,3.622,3.622,0,0,0,.97,4.481a3.326,3.326,0,0,0,1.137-.406,2.05,2.05,0,0,0,.865-1.26A2.851,2.851,0,0,0,3.045,2c0-.035.012-.07.018-.1a.186.186,0,0,0,.006-.047,2.224,2.224,0,0,0,0-.482c-.014-.129-.039-.258-.066-.383" transform="translate(2.864 0.936)" fill="#e16162"/>
    </g>
    <g id="Grupo_2813" data-name="Grupo 2813" transform="translate(336.683 -120.108)">
      <path id="Caminho_3995" data-name="Caminho 3995" d="M4.3,2.215c-.084-.094-.174-.184-.264-.275A3.194,3.194,0,0,0,3.128.625a5.424,5.424,0,0,0-.574-.6A7.115,7.115,0,0,0,1.025-1.415a3.311,3.311,0,0,0-2.6-.629,2.7,2.7,0,0,0-.711.273,2.613,2.613,0,0,0-.3.059A1.717,1.717,0,0,0-3.871-.048a2.958,2.958,0,0,0-.2.834A8.781,8.781,0,0,0-3.908,3.2,14.854,14.854,0,0,0-3.277,5.72a1.222,1.222,0,0,0,1.31.7,7.732,7.732,0,0,0,4.734-.555A3.374,3.374,0,0,0,4.64,4.482,1.877,1.877,0,0,0,4.3,2.215" transform="translate(4.101 2.111)" fill="#ffc734"/>
    </g>
    <g id="Grupo_2814" data-name="Grupo 2814" transform="translate(338.011 -115.222)">
      <path id="Caminho_3996" data-name="Caminho 3996" d="M3.521.316A4.9,4.9,0,0,0-.4-.059,6.048,6.048,0,0,0-2.072.8,3.246,3.246,0,0,0-3.339,2.185c-.135.432.609.619.744.187a1.513,1.513,0,0,1,.441-.557A5.868,5.868,0,0,1-1.529,1.3,4.927,4.927,0,0,1-.1.587,4.1,4.1,0,0,1,3.134.919c.416.246.8-.359.387-.6" transform="translate(3.355 0.301)" fill="#90561d"/>
    </g>
    <g id="Grupo_2815" data-name="Grupo 2815" transform="translate(336.825 -121.507)">
      <path id="Caminho_3997" data-name="Caminho 3997" d="M1.394.255A1.342,1.342,0,0,0,.519-.172a2.254,2.254,0,0,0-.66-.068.724.724,0,0,0-.424.17,1.176,1.176,0,0,0-.629.707C-1.2.656-1.2.679-1.209.7a1.082,1.082,0,0,0-.1.3A1.238,1.238,0,0,0-.953,2.1c.006.006.014.01.02.016A.982.982,0,0,0-.6,2.4a1.509,1.509,0,0,0,1.629-.2c.037-.029.072-.055.1-.086.014-.014.031-.027.045-.039A1.238,1.238,0,0,0,1.394.255" transform="translate(1.328 0.243)" fill="#ffc734"/>
    </g>
  </g>
</svg>
