<svg xmlns="http://www.w3.org/2000/svg" xmlns:xlink="http://www.w3.org/1999/xlink" width="37.662" height="40" viewBox="0 0 37.662 40">
  <defs>
    <clipPath id="clip-path">
      <path id="Caminho_3776" data-name="Caminho 3776" d="M237.824-195.394h37.662v-40H237.824Z" transform="translate(0 0)" fill="none"/>
    </clipPath>
  </defs>
  <g id="alfabeto_g_e002_fim" transform="translate(-237.824 235.394)" clip-path="url(#clip-path)">
    <g id="Grupo_2581" data-name="Grupo 2581" transform="translate(237.969 -235.392)">
      <path id="Caminho_3763" data-name="Caminho 3763" d="M18.96,14.306c-.024-.134-.051-.268-.087-.4a2.164,2.164,0,0,0-.162-1.235c-.053-.124-.1-.251-.15-.377-.1-.341-.2-.681-.318-1.016-.01-.039-.022-.073-.034-.112a1.326,1.326,0,0,0-.063-.657q-1.953-5.387-3.9-10.776a.154.154,0,0,1,.008-.022c-.217-.756-.446-1.511-.718-2.253-.813-2.216-1.665-4.467-2.606-6.637-.142-.3-.276-.606-.42-.906-.535-1.113-1.168-2.2-1.7-3.322-.079-.158-.183-.314-.249-.477a1.325,1.325,0,0,0-.174-.034c-.178.1-.357.209-.535.31C6.768-11.107,5.584-8.652,4.5-6.153q-.262.937-.523,1.87l-.093.022c-.061.012-.58.1-.675.124-.331.045-.663.075-.994.1-.856.073-1.714.11-2.571.128-1.8.039-3.6.02-5.4.008-1.04,0-1.6-.028-2.64-.041l-.363-.006a3.52,3.52,0,0,0-.292-.335l-1.809-1.856c-1.221-1.251-1.977-2.723-3.2-3.975a6.947,6.947,0,0,1-.683-.592,5.915,5.915,0,0,0-.487-.576c-.245-.339-1.529-.8-1.949-.468-.381.3-.4,1.4-.353,1.592.018.077.032.156.049.233a.74.74,0,0,0,0,.1c1.075,6.6.805,13.321,1.121,19.922a.9.9,0,0,0,.041.158c-.053.365-.122.724-.17,1.089-.517,1.578-1.089,3.145-1.547,4.731a4.775,4.775,0,0,0-.339,2.462,3.152,3.152,0,0,0,1.063,1.442,1.363,1.363,0,0,0,.391.472c.4.294.835.527,1.253.791.055.034.11.073.164.105a22.434,22.434,0,0,0,4.948,2.285c.3.132.594.276.9.4a8.582,8.582,0,0,0,1.916.639c.148.065.3.134.446.191a.7.7,0,0,0,.156.028,18.3,18.3,0,0,0,6.27.87,6.072,6.072,0,0,0,3.33.006,12.438,12.438,0,0,0,2.683-.148,16.067,16.067,0,0,0,4.67-1.914A20.384,20.384,0,0,0,12.6,21.945a9,9,0,0,0,2.636-2.014,17.607,17.607,0,0,0,1.379-1.549c.126-.124.256-.243.377-.369.2-.185.387-.377.592-.554a1.538,1.538,0,0,0,.316-.454c.039-.047.077-.1.114-.142a2.552,2.552,0,0,0,.876-1.221c.024-.081.034-.16.051-.241a1.676,1.676,0,0,0,.018-1.1" transform="translate(18.445 13.918)" fill="#ff9a39"/>
    </g>
    <g id="Grupo_2582" data-name="Grupo 2582" transform="translate(245.847 -221.386)">
      <path id="Caminho_3764" data-name="Caminho 3764" d="M.182,2.177a5.437,5.437,0,0,1,1.833-2.7,7.709,7.709,0,0,1,2.494-1.2,6.813,6.813,0,0,1,5.581.4c.067.041.12.1.185.144a2.134,2.134,0,0,1,.57.282A7.113,7.113,0,0,1,12.8,1.181a5.359,5.359,0,0,1,.779,1.18,5.677,5.677,0,0,1,.645,2.869,5.833,5.833,0,0,1-.892,2.823c-.089.13-.2.241-.3.367a5.525,5.525,0,0,1-.434.87,5.671,5.671,0,0,1-4.978,2.7,6.8,6.8,0,0,1-1.9-.387,5.879,5.879,0,0,1-1.856-.349,5.887,5.887,0,0,1-2.454-1.6A6.106,6.106,0,0,1,.024,6.918,9.93,9.93,0,0,1-.164,4.495,8.856,8.856,0,0,1,.182,2.177" transform="translate(0.177 2.118)" fill="#fff"/>
    </g>
    <g id="Grupo_2583" data-name="Grupo 2583" transform="translate(252.614 -218.839)">
      <path id="Caminho_3765" data-name="Caminho 3765" d="M.084.033C.076.029.066.027.056.023H.05C-.1-.04-.159-.063.084.033" transform="translate(0.082 0.032)" fill="#2b2e34"/>
    </g>
    <g id="Grupo_2584" data-name="Grupo 2584" transform="translate(251.315 -215.537)">
      <path id="Caminho_3766" data-name="Caminho 3766" d="M.061,1.283l.008-.03a.041.041,0,0,1,.008-.016C.1,1.165.365.547.4.48A.015.015,0,0,0,.4.47.528.528,0,0,1,.434.413C.6.19.759-.041.945-.246A.312.312,0,0,1,.97-.273C1.075-.36,1.26-.5,1.3-.526c.057-.045.217-.176.329-.256L1.659-.8l.008,0,.754-.32h0a.064.064,0,0,1,.018-.006.048.048,0,0,1,.016,0s.006,0,.008,0c.051-.01.795-.11.846-.114a.186.186,0,0,1,.034,0,5.063,5.063,0,0,1,.874.12l-.84-.114a6.228,6.228,0,0,1,.864.118c.219.089.653.264.795.333l.012.006A3.111,3.111,0,0,1,5.4-.522a3.467,3.467,0,0,1,.341.266l.02.022c-.185-.227.371.438.509.661a.185.185,0,0,1,.014.028c.118.256.235.513.329.779,0,.008.006.018.008.028a6.971,6.971,0,0,1,.118.868c0,.008,0,.018,0,.028a5.716,5.716,0,0,1-.118.864c0,.012,0,.022-.006.032a.038.038,0,0,0,0,.014c-.055.126-.107.253-.162.381s-.1.256-.16.381c-.006.01-.012.02-.016.028a2.394,2.394,0,0,1-.813.886,2.371,2.371,0,0,1-1.075.564,2.386,2.386,0,0,1-.371.069c-.037.008-.077.01-.116.018-.057.006-.116.022-.172.024a2.978,2.978,0,0,1-.556.073c-.28-.037-.56-.075-.84-.114A3.151,3.151,0,0,1,.937,4.57a.215.215,0,0,1-.024-.02A5.061,5.061,0,0,1,.4,3.887.168.168,0,0,0,.388,3.86L.069,3.106a.006.006,0,0,0,0,0s0,0,0-.006a.038.038,0,0,1,0-.016s0-.01,0-.014V3.057c-.006-.028-.112-.813-.114-.842a.1.1,0,0,1,0-.034,3.972,3.972,0,0,1,.12-.9" transform="translate(0.059 1.248)" fill="#2b2e34"/>
    </g>
    <g id="Grupo_2585" data-name="Grupo 2585" transform="translate(261.294 -218.776)">
      <path id="Caminho_3767" data-name="Caminho 3767" d="M.125,1.5A3.742,3.742,0,0,1,1.389-.357a5.372,5.372,0,0,1,1.72-.825A4.7,4.7,0,0,1,6.955-.9c.047.03.083.071.128.1a1.5,1.5,0,0,1,.391.195A4.881,4.881,0,0,1,8.823.815a3.659,3.659,0,0,1,.537.811A3.916,3.916,0,0,1,9.8,3.606,4.054,4.054,0,0,1,9.19,5.552c-.063.089-.14.166-.2.253a4.122,4.122,0,0,1-.3.6A3.906,3.906,0,0,1,5.254,8.266,4.7,4.7,0,0,1,3.948,8a3.991,3.991,0,0,1-1.28-.243,4.06,4.06,0,0,1-1.691-1.1A4.206,4.206,0,0,1,.016,4.77,7.009,7.009,0,0,1-.114,3.1,6.156,6.156,0,0,1,.125,1.5" transform="translate(0.122 1.46)" fill="#fff"/>
    </g>
    <g id="Grupo_2586" data-name="Grupo 2586" transform="translate(266.813 -214.97)">
      <path id="Caminho_3768" data-name="Caminho 3768" d="M.058.022.038.016h0C-.072-.028-.11-.043.058.022" transform="translate(0.057 0.022)" fill="#2b2e34"/>
    </g>
    <g id="Grupo_2587" data-name="Grupo 2587" transform="translate(264.454 -215.434)">
      <path id="Caminho_3769" data-name="Caminho 3769" d="M.042.884.048.863s0-.008,0-.012C.073.8.253.377.271.33c0,0,0,0,0-.006A.166.166,0,0,1,.3.283C.413.131.521-.029.651-.171A.131.131,0,0,0,.669-.187C.74-.248.867-.341.9-.363s.148-.122.227-.174l.02-.012a.006.006,0,0,1,0,0l.521-.219a0,0,0,0,0,0,0,.029.029,0,0,0,.012,0l.01,0,.006,0c.034-.006.55-.075.582-.077a.049.049,0,0,1,.024,0,3.164,3.164,0,0,1,.6.081C2.715-.8,2.522-.83,2.33-.854a3.875,3.875,0,0,1,.594.079c.152.061.452.183.548.229l.01,0a1.878,1.878,0,0,1,.235.183,2.044,2.044,0,0,1,.237.183.055.055,0,0,1,.014.016c-.128-.156.256.3.349.454l.012.02c.081.176.16.353.227.535l.006.022a5.328,5.328,0,0,1,.079.6.069.069,0,0,1,0,.02,4.1,4.1,0,0,1-.081.6.072.072,0,0,1,0,.02.015.015,0,0,1,0,.01c-.037.089-.075.176-.112.264s-.071.176-.112.264a.036.036,0,0,1-.012.018,1.623,1.623,0,0,1-.56.61,1.659,1.659,0,0,1-.738.391,2.247,2.247,0,0,1-.256.045c-.026.008-.055.008-.081.014s-.079.014-.118.016a2.641,2.641,0,0,1-.383.051c-.193-.026-.387-.051-.578-.079a2.2,2.2,0,0,1-.961-.558.116.116,0,0,0-.016-.014,3.717,3.717,0,0,1-.353-.458c0-.006-.006-.012-.008-.018L.048,2.143s0,0,0,0,0,0,0,0,0-.008,0-.012,0-.006,0-.01V2.107c0-.018-.075-.56-.077-.58a.083.083,0,0,1,0-.022A2.787,2.787,0,0,1,.042.884" transform="translate(0.041 0.86)" fill="#2b2e34"/>
    </g>
    <g id="Grupo_2588" data-name="Grupo 2588" transform="translate(259.885 -209.153)">
      <path id="Caminho_3770" data-name="Caminho 3770" d="M2.476.3a1.011,1.011,0,0,0-.625-.481A7.044,7.044,0,0,0,.087-.261,7.055,7.055,0,0,0-1.639.1a1.124,1.124,0,0,0-.627.481,1.073,1.073,0,0,0-.105.805,1.191,1.191,0,0,0,.515.635c.03.037.045.087.079.116l.791.657a3.09,3.09,0,0,0,.533.4,1.539,1.539,0,0,0,.943.172,1.316,1.316,0,0,0,.58-.207A1.963,1.963,0,0,0,1.6,2.624c.079-.1.15-.213.219-.322l.2-.2a1,1,0,0,0,.266-.539A.992.992,0,0,0,2.583,1.1,1.059,1.059,0,0,0,2.476.3" transform="translate(2.409 0.288)" fill="#2b2e34"/>
    </g>
    <g id="Grupo_2589" data-name="Grupo 2589" transform="translate(257.998 -207.097)">
      <path id="Caminho_3771" data-name="Caminho 3771" d="M4.361.173A.558.558,0,0,0,3.325.587a1.67,1.67,0,0,1-.872,2.194,1.357,1.357,0,0,1-1.19-.063c-.44-.276-.44-.866-.468-1.326C.757.743-.192.768-.311,1.366c-.168.852-.416,1.9-1.456,1.981A1.289,1.289,0,0,1-3.1,1.8a.559.559,0,0,0-1.1-.176A2.417,2.417,0,0,0-1.881,4.462,2.435,2.435,0,0,0,0,3.6a2.461,2.461,0,0,0,.229-.349,1.672,1.672,0,0,0,.365.351,2.452,2.452,0,0,0,2.168.249A2.792,2.792,0,0,0,4.361.173" transform="translate(4.243 0.169)" fill="#2b2e34"/>
    </g>
    <g id="Grupo_2590" data-name="Grupo 2590" transform="translate(249.8 -206.246)">
      <path id="Caminho_3772" data-name="Caminho 3772" d="M3.275,0a23.883,23.883,0,0,0-6.09.619c-.653.152-.375.965.282.811A22.7,22.7,0,0,1,3.275.848c.681.018.681-.823,0-.844" transform="translate(3.186 0.004)" fill="#fff"/>
    </g>
    <g id="Grupo_2591" data-name="Grupo 2591" transform="translate(250.73 -204.67)">
      <path id="Caminho_3773" data-name="Caminho 3773" d="M3.37.1a.625.625,0,0,0-.724-.15Q-.095.928-2.888,1.805c-.266.085-.452.282-.371.519a.565.565,0,0,0,.653.294Q.314,1.7,3.179.678A.379.379,0,0,0,3.37.1" transform="translate(3.278 0.099)" fill="#fff"/>
    </g>
    <g id="Grupo_2592" data-name="Grupo 2592" transform="translate(267.455 -208.491)">
      <path id="Caminho_3774" data-name="Caminho 3774" d="M2.64,0A36.36,36.36,0,0,0-2.268.893a.422.422,0,0,0,.223.813A34.357,34.357,0,0,1,2.64.845.435.435,0,0,0,3.062.423.424.424,0,0,0,2.64,0" transform="translate(2.568 0.001)" fill="#fff"/>
    </g>
    <g id="Grupo_2593" data-name="Grupo 2593" transform="translate(267.909 -206.544)">
      <path id="Caminho_3775" data-name="Caminho 3775" d="M2.187,0H-1.721a.422.422,0,0,0,0,.844H2.187a.422.422,0,0,0,0-.844" transform="translate(2.127)" fill="#fff"/>
    </g>
  </g>
</svg>
