<svg xmlns="http://www.w3.org/2000/svg" xmlns:xlink="http://www.w3.org/1999/xlink" width="73.4" height="40" viewBox="0 0 73.4 40">
  <defs>
    <clipPath id="clip-path">
      <path id="Caminho_3892" data-name="Caminho 3892" d="M50.887-104.652h73.4v-40h-73.4Z" transform="translate(0 0)" fill="none"/>
    </clipPath>
  </defs>
  <g id="alfabeto_o_e002_fim" transform="translate(-50.887 144.652)" clip-path="url(#clip-path)">
    <g id="Grupo_2705" data-name="Grupo 2705" transform="translate(55.093 -138.006)">
      <path id="Caminho_3887" data-name="Caminho 3887" d="M39.056,15.487C35.979,10.334,32.882,4.951,28.934.411c-3.155-3.633-7.082-6.754-11.922-7.646-4.761-.877-10.938.527-14.96,2.9C-6.747.855-12.725,9.4-17.473,18.231a3.1,3.1,0,0,1-1.435,1.429,3.546,3.546,0,0,1,.555.3c8.768,5.892,21.407,5.641,31.665,5.681,7.731.028,18.633-3.158,27.342-8.875a2.713,2.713,0,0,1-1.6-1.281" transform="translate(18.908 7.498)" fill="#ebecec"/>
    </g>
    <g id="Grupo_2706" data-name="Grupo 2706" transform="translate(68.852 -138.126)">
      <path id="Caminho_3888" data-name="Caminho 3888" d="M21.961,7A7.132,7.132,0,0,0,21.8,5.351,3.243,3.243,0,0,0,21.688,5a7.55,7.55,0,0,0-3.21-5.34,15.633,15.633,0,0,0-8.614-3.02A26.3,26.3,0,0,0-.329-1.626C-2.536-.854-4.9.042-6.515,1.758a1.329,1.329,0,0,0-.84.472c-.092.116-.175.239-.261.359l-.009-.009c-.025.037-.043.077-.064.11A9.706,9.706,0,0,0-8.784,4.7a19.9,19.9,0,0,0-1.79,6.7c-.221,2.462.153,5.15,1.754,7.017A13.836,13.836,0,0,0-.908,27.05c5.291,2.223,11.922,1.113,16.729-2.085,4.479-2.977,6.226-8.525,5.972-14.034.009-.153.006-.307.012-.46a1.693,1.693,0,0,0,.132-.647c0-.727,0-1.456,0-2.183.012-.212.025-.426.028-.638" transform="translate(10.632 3.391)" fill="#90561d"/>
    </g>
    <g id="Grupo_2707" data-name="Grupo 2707" transform="translate(76.405 -132.571)">
      <path id="Caminho_3889" data-name="Caminho 3889" d="M12.59,5.49A6.7,6.7,0,0,0,9.966.766.607.607,0,0,0,9.944.644,2.538,2.538,0,0,0,8.522-.828,3.384,3.384,0,0,0,7.7-1.048c-.1-.064-.2-.138-.307-.2-.025-.012-.052-.021-.074-.034a5.927,5.927,0,0,0-3.869-1.37,4.843,4.843,0,0,0-1.465.331A5.617,5.617,0,0,0-2.125-.668a.2.2,0,0,0-.037.052,6.571,6.571,0,0,0-.693.472.507.507,0,0,0-.159.3c-.126.086-.254.162-.377.251A6.869,6.869,0,0,0-5.951,7.25a4.229,4.229,0,0,0-.092.445c-.451,3.274,2.094,6.045,4.975,7.146A12.04,12.04,0,0,0,9.021,13.7c2.848-1.726,3.869-5.018,3.568-8.207" transform="translate(6.095 2.658)" fill="#2b2e34"/>
    </g>
    <g id="Grupo_2708" data-name="Grupo 2708" transform="translate(84.696 -135.972)">
      <path id="Caminho_3890" data-name="Caminho 3890" d="M7.915,3.452A4.335,4.335,0,0,0,5.382-.073C5.376-.082,5.367-.092,5.361-.1A4.187,4.187,0,0,0,2.17-1.667,3.8,3.8,0,0,0,.235-.919,7.641,7.641,0,0,0-2.131.258a4.312,4.312,0,0,0-1.609,4.3,2.814,2.814,0,0,0-.058.279c-.282,2.06,1.315,3.8,3.127,4.494a7.577,7.577,0,0,0,6.346-.717A5.246,5.246,0,0,0,7.915,3.452" transform="translate(3.832 1.671)" fill="#fff"/>
    </g>
    <g id="Grupo_2709" data-name="Grupo 2709" transform="translate(52.2 -143.657)">
      <path id="Caminho_3891" data-name="Caminho 3891" d="M48.347,15.306a1.575,1.575,0,0,0-1.723-.717,17.3,17.3,0,0,1-1.983.432c-.046.009-.349.049-.362.052-.126.015-.254.031-.383.043-.337.031-.674.055-1.012.067-.417.018-.831-.009-1.245-.021.221-.159.435-.322.641-.49,1.232-1,2.428-2.042,3.642-3.063a1.538,1.538,0,0,0,.242-1.839,1.577,1.577,0,0,0-1.723-.717,19.062,19.062,0,0,1-1.983.435c-.049.006-.353.046-.362.049-.129.015-.254.031-.383.043-.337.034-.674.055-1.012.067a17.943,17.943,0,0,1-1.99-.031,8.208,8.208,0,0,0,1.223-1.634C40.646,6.8,41.32,5.594,42.013,4.4a1.331,1.331,0,0,0-.346-1.576,1.368,1.368,0,0,0-1.622-.08,15.719,15.719,0,0,1-1.5.941l-.282.147c-.1.052-.2.1-.3.15-.267.126-.536.242-.806.353a14.97,14.97,0,0,1-1.674.573c-.141.043-.285.08-.429.116-.058.012-.123.028-.184.043a.128.128,0,0,0-.018.006c-.261.052-.518.1-.779.141-.138-.184-.285-.359-.429-.54a7.6,7.6,0,0,0,1.484-1.769c.748-1.153,1.453-2.336,2.18-3.5a1.334,1.334,0,0,0-.291-1.582A1.371,1.371,0,0,0,35.4-2.309a15.378,15.378,0,0,1-1.521.889c-.034.018-.276.135-.285.141-.1.046-.2.092-.3.138-.27.116-.543.224-.819.328A15.718,15.718,0,0,1,30.79-.3c-.138.034-.282.067-.426.1-.064.012-.126.028-.19.04-.006,0-.009,0-.018,0-.233.04-.463.074-.7.1A26.313,26.313,0,0,0,18.583-6.678C12.709-8.407,6.777-6.856,1.409-4.287a44.639,44.639,0,0,0-13.115,9.88A76.9,76.9,0,0,0-22.956,21.835c-1.763,3.277,2.112,5.417,3.878,2.134C-14.327,15.14-8.352,6.593.446,1.406c4.022-2.373,10.2-3.777,14.96-2.9,4.841.892,8.768,4.013,11.925,7.643,3.949,4.543,7.042,9.926,10.12,15.08a2.85,2.85,0,0,0,4.543.469,8.2,8.2,0,0,0,2.468-1.49c1.232-1,2.428-2.039,3.642-3.059a1.538,1.538,0,0,0,.242-1.842" transform="translate(23.406 7.41)" fill="#2b2e34"/>
    </g>
  </g>
</svg>
