<svg xmlns="http://www.w3.org/2000/svg" xmlns:xlink="http://www.w3.org/1999/xlink" width="43.252" height="40" viewBox="0 0 43.252 40">
  <defs>
    <clipPath id="clip-path">
      <path id="Caminho_3960" data-name="Caminho 3960" d="M237.681-109.331h43.252v-40H237.681Z" transform="translate(0 0)" fill="none"/>
    </clipPath>
  </defs>
  <g id="alfabeto_t_e002_fim" transform="translate(-237.681 149.331)" clip-path="url(#clip-path)">
    <g id="Grupo_2760" data-name="Grupo 2760" transform="translate(273.358 -127.695)">
      <path id="Caminho_3942" data-name="Caminho 3942" d="M3.9.052a9.982,9.982,0,0,1-6.158,3.06c-.016,0-.03.007-.044.009-.053.007-.1.007-.158.009-.011,0-.021,0-.032.009-.073.007-.144.021-.218.025a.343.343,0,0,0-.257.532,1.99,1.99,0,0,0,.33,1.142,2.61,2.61,0,0,0,.259.33.76.76,0,0,0,.321.516.434.434,0,0,0,.119.05,1.172,1.172,0,0,0,.376.25.677.677,0,0,0,.5,0A1.526,1.526,0,0,0-.03,5.706,9.261,9.261,0,0,0,1.149,4.94,9.75,9.75,0,0,0,4.452.371.331.331,0,0,0,3.9.052" transform="translate(3.018 0.04)" fill="#46ac46"/>
    </g>
    <g id="Grupo_2761" data-name="Grupo 2761" transform="translate(248.073 -145.13)">
      <path id="Caminho_3943" data-name="Caminho 3943" d="M6.216,14.067c1.463.014,2.924,0,4.388-.041a105.836,105.836,0,0,0,11.94-1.083A15.221,15.221,0,0,0,21.23-5.045c-3.122-3.693-8.154-6.383-13.089-5.732C3.463-10.155-2.085-5.754-3.844-1.366a1.731,1.731,0,0,0-.112.546c-1.023,2.057-.95,4.64-.663,6.862a8.2,8.2,0,0,0,.383,1.617,7.557,7.557,0,0,0,.328,1.287,3.5,3.5,0,0,0,.706,1.17A19.881,19.881,0,0,0,3.7,13.48c.83.232,1.667.422,2.511.587" transform="translate(4.805 10.875)" fill="#ff7d33"/>
    </g>
    <g id="Grupo_2762" data-name="Grupo 2762" transform="translate(269.484 -128.863)">
      <path id="Caminho_3944" data-name="Caminho 3944" d="M2.279.119A1.728,1.728,0,0,0,1.8.011a2.962,2.962,0,0,0-.541-.087A7.381,7.381,0,0,1,.089-.086.284.284,0,0,0-.182,0a.889.889,0,0,0-.2.028A.756.756,0,0,0-.471.059.96.96,0,0,0-.618.13.286.286,0,0,0-.666.174.372.372,0,0,0-.76.259s0,.011-.007.016A.456.456,0,0,0-.838.353a15.759,15.759,0,0,0-.911,2.216.211.211,0,0,0,.023.195c0,.009-.007.018-.009.028A.188.188,0,0,0-1.7,3a.17.17,0,0,0,.011.057c.034.067.076.128.112.193a.164.164,0,0,0,.016.057c.1.151.19.3.287.454.032.044.064.092.1.14,0,0,0,0,0,.007s0,0,0,0,.014.018.016.03a1.352,1.352,0,0,0,.227.4.185.185,0,0,0,.055.048A.541.541,0,0,0-.8,4.47a.458.458,0,0,0,.023.048s0,0,0,0l.009.011a.2.2,0,0,0,.177.073,4.816,4.816,0,0,0,2.433-.177.312.312,0,0,0,.147-.094.32.32,0,0,0,.186-.128c.124-.19.241-.383.353-.578a.233.233,0,0,0,.05-.055c.014-.021.021-.039.034-.06l0,0c0-.011.007-.023.011-.032.03-.053.062-.106.087-.158,0,0,.007-.009.009-.014.167-.291.333-.587.5-.878a.176.176,0,0,0-.071-.241,8.812,8.812,0,0,0-.408-1.05A5.1,5.1,0,0,1,2.531.6C2.476.417,2.46.22,2.279.119" transform="translate(1.762 0.092)" fill="#f0732e"/>
    </g>
    <g id="Grupo_2763" data-name="Grupo 2763" transform="translate(269.484 -134.174)">
      <path id="Caminho_3945" data-name="Caminho 3945" d="M2.279.119A1.728,1.728,0,0,0,1.8.011a2.962,2.962,0,0,0-.541-.087A7.381,7.381,0,0,1,.089-.086.284.284,0,0,0-.182,0a.889.889,0,0,0-.2.028A.756.756,0,0,0-.471.059.96.96,0,0,0-.618.13.286.286,0,0,0-.666.174.372.372,0,0,0-.76.259s0,.011-.007.016A.456.456,0,0,0-.838.353a15.759,15.759,0,0,0-.911,2.216.211.211,0,0,0,.023.195c0,.009-.007.018-.009.028A.189.189,0,0,0-1.7,3a.17.17,0,0,0,.011.057c.034.067.076.128.112.193a.164.164,0,0,0,.016.057c.1.151.19.3.287.454.032.044.064.092.1.14,0,0,0,0,0,.007s0,0,0,0,.014.018.016.03a1.352,1.352,0,0,0,.227.4.185.185,0,0,0,.055.048A.441.441,0,0,0-.8,4.47a.458.458,0,0,0,.023.048s0,0,0,0a.04.04,0,0,0,.009.011.2.2,0,0,0,.177.073,4.816,4.816,0,0,0,2.433-.177.312.312,0,0,0,.147-.094.32.32,0,0,0,.186-.128c.124-.19.241-.383.353-.578a.233.233,0,0,0,.05-.055c.014-.021.021-.039.034-.06l0,0c0-.011.007-.023.011-.032.03-.053.062-.106.087-.161a.05.05,0,0,0,.009-.011c.167-.291.333-.587.5-.878a.176.176,0,0,0-.071-.241,8.812,8.812,0,0,0-.408-1.05A5.1,5.1,0,0,1,2.531.6C2.476.417,2.46.22,2.279.119" transform="translate(1.762 0.092)" fill="#f0732e"/>
    </g>
    <g id="Grupo_2764" data-name="Grupo 2764" transform="translate(264.854 -131.317)">
      <path id="Caminho_3946" data-name="Caminho 3946" d="M2.279.119A1.728,1.728,0,0,0,1.8.011a2.962,2.962,0,0,0-.541-.087A7.381,7.381,0,0,1,.089-.086.284.284,0,0,0-.182,0a.889.889,0,0,0-.2.028A.756.756,0,0,0-.471.059.96.96,0,0,0-.618.13.286.286,0,0,0-.666.174.372.372,0,0,0-.76.259s0,.011-.007.016A.456.456,0,0,0-.838.353a15.759,15.759,0,0,0-.911,2.216.211.211,0,0,0,.023.195c0,.009-.007.018-.009.028A.189.189,0,0,0-1.7,3a.17.17,0,0,0,.011.057c.034.067.076.128.112.193a.164.164,0,0,0,.016.057l.287.454c.032.044.064.092.1.14,0,0,0,0,0,.007s0,0,0,0,.014.018.016.03a1.4,1.4,0,0,0,.225.4.229.229,0,0,0,.057.048A.441.441,0,0,0-.8,4.47a.458.458,0,0,0,.023.048s0,0,0,0l.009.011a.2.2,0,0,0,.177.073,4.816,4.816,0,0,0,2.433-.177.312.312,0,0,0,.147-.094.32.32,0,0,0,.186-.128c.124-.19.241-.383.353-.578a.233.233,0,0,0,.05-.055c.014-.021.023-.039.034-.06l0,0c0-.011.007-.023.011-.032.03-.053.062-.106.087-.158,0,0,.007-.009.009-.014.167-.291.333-.587.5-.878a.176.176,0,0,0-.071-.241,8.812,8.812,0,0,0-.408-1.05A5.1,5.1,0,0,1,2.531.6C2.476.417,2.46.22,2.279.119" transform="translate(1.762 0.092)" fill="#f0732e"/>
    </g>
    <g id="Grupo_2765" data-name="Grupo 2765" transform="translate(252.115 -122.216)">
      <path id="Caminho_3947" data-name="Caminho 3947" d="M3.175.505A1.312,1.312,0,0,0,1.265-.224,1.316,1.316,0,0,0-.584.528q-.5,1.586-.989,3.177a13.261,13.261,0,0,0-.881,3.021C-2.529,8.459-.224,8.492,1.081,8.544c1.647.064,3.106-.337,3.2-2.126A17.538,17.538,0,0,0,3.175.505" transform="translate(2.455 0.391)" fill="#3b8f39"/>
    </g>
    <g id="Grupo_2766" data-name="Grupo 2766" transform="translate(243.16 -124.134)">
      <path id="Caminho_3948" data-name="Caminho 3948" d="M5.632.537s0,0,0-.009S5.609.493,5.6.475A1.8,1.8,0,0,0,3.579-.349,2.61,2.61,0,0,0,2.806.06,1.588,1.588,0,0,0,1.6.321,12.852,12.852,0,0,0-1.171,3.2a32.513,32.513,0,0,0-2.807,3.47c-1.353,2.25,1.25,4.014,3.03,4.931,2,1.034,5.083,1.275,6.328-1.009C6.692,8.19,6.662,4.828,6.79,2.172A1.5,1.5,0,0,0,5.632.537" transform="translate(4.354 0.415)" fill="#46ac46"/>
    </g>
    <g id="Grupo_2767" data-name="Grupo 2767" transform="translate(260.778 -122.136)">
      <path id="Caminho_3949" data-name="Caminho 3949" d="M4.288.716A1.749,1.749,0,0,0,1.7-.314,1.759,1.759,0,0,0-.806.762Q-1.47,3.026-2.129,5.287A19.452,19.452,0,0,0-3.313,9.592c-.094,2.47,3.028,2.507,4.794,2.573,2.234.085,4.2-.491,4.335-3.037C5.958,6.292,5.075,3.4,4.288.716" transform="translate(3.315 0.554)" fill="#46ac46"/>
    </g>
    <g id="Grupo_2768" data-name="Grupo 2768" transform="translate(270.399 -123.552)">
      <path id="Caminho_3950" data-name="Caminho 3950" d="M2.231.28A1.52,1.52,0,0,0-.129.431,1.526,1.526,0,0,0-1.711,2.113q.248,1.906.493,3.812a15.222,15.222,0,0,0,.525,3.6c.755,1.858,3.193.784,4.589.213C5.66,9.012,7,7.89,6.243,5.961A20.229,20.229,0,0,0,2.231.28" transform="translate(1.725 0.216)" fill="#3b8f39"/>
    </g>
    <g id="Grupo_2769" data-name="Grupo 2769" transform="translate(245.795 -126.774)">
      <path id="Caminho_3951" data-name="Caminho 3951" d="M16.361,1.212A96.144,96.144,0,0,1,4.223,1.09C.471.925-4.339,1.017-7.761-.589-11.306-2.252-14.7,2.5-11.132,4.17c4.278,2,9.264,2.3,13.984,2.553a108.763,108.763,0,0,0,14.9.05c3.966-.333,2.55-5.894-1.39-5.562" transform="translate(12.648 0.937)" fill="#ff9a39"/>
    </g>
    <g id="Grupo_2770" data-name="Grupo 2770" transform="translate(237.734 -149.275)">
      <path id="Caminho_3952" data-name="Caminho 3952" d="M12.489.677A7.112,7.112,0,0,0,10.823.106a10.017,10.017,0,0,0-4.05-.617,2.1,2.1,0,0,0-.388.055c-.4.021-.817.053-1.245.106C2.4-.029-1.4,1.709-2.628,4.361c-.025.039-.057.071-.083.11a2.034,2.034,0,0,0-.248.55A8.071,8.071,0,0,0-6.452,6.7a7.635,7.635,0,0,0-3.195,5.915,5.2,5.2,0,0,0,.8,3.112,5.285,5.285,0,0,0,1.19,1.711A23.073,23.073,0,0,0-4.25,19.416a9.724,9.724,0,0,0,1.89.608,13.278,13.278,0,0,0,5.569-.438c-.016.062-.489,6,1.741,8.317a9.852,9.852,0,0,0,8.195,1.5c3.328-.734,3.654-3.342,2.812-5.135a1.575,1.575,0,0,0-1.085-.768,9.483,9.483,0,0,1-.385-4.936c.28-2.456,1.677-4.764,2.5-7.128a5.624,5.624,0,0,0,.892-2.606,2.677,2.677,0,0,0,.071-.349,8.518,8.518,0,0,0-5.456-7.8" transform="translate(9.654 0.523)" fill="#46ac46"/>
    </g>
    <g id="Grupo_2771" data-name="Grupo 2771" transform="translate(250.474 -145.881)">
      <path id="Caminho_3953" data-name="Caminho 3953" d="M4.078,1.959A2.706,2.706,0,0,0,3.723.375a3.914,3.914,0,0,0-.94-1.014A3.391,3.391,0,0,0,.12-1.474c-.037.007-.073.025-.112.032a1.138,1.138,0,0,0-.317.028,3.5,3.5,0,0,0-1.284.6,2.775,2.775,0,0,0-.578.4A2.837,2.837,0,0,0-3,.8,2.954,2.954,0,0,0-3.1,2.278c.018.076.048.149.071.225a2.786,2.786,0,0,0,.044.482A2.831,2.831,0,0,0-1.172,5.152,3.514,3.514,0,0,0-.22,5.32,3,3,0,0,0,.7,5.5,2.936,2.936,0,0,0,2.136,5.2,3.052,3.052,0,0,0,3.285,4.187,5.022,5.022,0,0,0,3.815,3.1a4.549,4.549,0,0,0,.264-1.14" transform="translate(3.153 1.515)" fill="#fff"/>
    </g>
    <g id="Grupo_2772" data-name="Grupo 2772" transform="translate(256.305 -145.411)">
      <path id="Caminho_3954" data-name="Caminho 3954" d="M0,0H.016a0,0,0,0,0,0,0C.1,0,.128,0,0,0" fill="#2b2e34"/>
    </g>
    <g id="Grupo_2773" data-name="Grupo 2773" transform="translate(252.508 -144.372)">
      <path id="Caminho_3955" data-name="Caminho 3955" d="M1.9,1.062s0-.011,0-.016V1.037C1.9,1,1.891.665,1.889.629v0a.177.177,0,0,0,0-.034,4.149,4.149,0,0,0-.115-.4A.132.132,0,0,0,1.76.174C1.728.115,1.666.018,1.655,0s-.069-.122-.106-.179c0,0-.007-.007-.011-.011l0,0L1.244-.484h0L1.235-.491s0,0-.007,0,0,0,0,0C1.2-.511.877-.695.854-.706a.025.025,0,0,0-.016,0A2.326,2.326,0,0,0,.411-.819l.408.1A2.988,2.988,0,0,0,.4-.821c-.119,0-.351,0-.429.009H-.038C-.1-.8-.261-.748-.247-.752c-.007,0-.144.034-.206.06l-.014.007c.128-.071-.252.135-.358.213,0,0-.009.007-.011.011-.1.1-.2.195-.3.3,0,0-.007.009-.009.014a3.405,3.405,0,0,0-.213.378.033.033,0,0,0,0,.014,2.911,2.911,0,0,0-.106.422.034.034,0,0,1,0,.016V.693c0,.067,0,.135,0,.2s0,.138,0,.206a.05.05,0,0,0,0,.018,1.2,1.2,0,0,0,.216.56,1.2,1.2,0,0,0,.394.459,1.645,1.645,0,0,0,.158.1c.018.011.037.018.053.03a.4.4,0,0,0,.076.041,1.479,1.479,0,0,0,.243.138c.138.034.275.069.411.1a1.566,1.566,0,0,0,.794-.122.033.033,0,0,0,.014,0,2.565,2.565,0,0,0,.36-.213A.05.05,0,0,1,1.274,2.2l.284-.291s0,0,0,0a0,0,0,0,1,0,0s0,0,0-.007,0,0,0-.007,0,0,0,0,.2-.356.209-.369a.146.146,0,0,0,0-.016,1.917,1.917,0,0,0,.11-.438" transform="translate(1.467 0.821)" fill="#2b2e34"/>
    </g>
    <g id="Grupo_2774" data-name="Grupo 2774" transform="translate(245.373 -147.019)">
      <path id="Caminho_3956" data-name="Caminho 3956" d="M2.811,1.351A1.843,1.843,0,0,0,2.563.257a2.626,2.626,0,0,0-.644-.7A2.349,2.349,0,0,0,.081-1.016c-.025,0-.048.018-.076.023a.772.772,0,0,0-.218.018A2.451,2.451,0,0,0-1.1-.562a1.819,1.819,0,0,0-.4.282,1.923,1.923,0,0,0-.569.835,1.979,1.979,0,0,0-.069,1.014c.009.053.032.106.046.156a1.8,1.8,0,0,0,.032.335A1.943,1.943,0,0,0-.808,3.55a2.374,2.374,0,0,0,.656.115,2.055,2.055,0,0,0,.638.124,2.034,2.034,0,0,0,.986-.2,2.059,2.059,0,0,0,.791-.7,3.444,3.444,0,0,0,.367-.75,3.236,3.236,0,0,0,.181-.787" transform="translate(2.173 1.044)" fill="#fff"/>
    </g>
    <g id="Grupo_2775" data-name="Grupo 2775" transform="translate(248.42 -145.464)">
      <path id="Caminho_3957" data-name="Caminho 3957" d="M0,0H.011Z" fill="#2b2e34"/>
    </g>
    <g id="Grupo_2776" data-name="Grupo 2776" transform="translate(246.984 -145.751)">
      <path id="Caminho_3958" data-name="Caminho 3958" d="M1.308.732V.714c0-.023,0-.255-.007-.28v0a.078.078,0,0,0,0-.023C1.273.317,1.253.221,1.218.131a.018.018,0,0,1,0-.011C1.193.081,1.15.014,1.14,0s-.046-.085-.073-.124a.018.018,0,0,0-.009-.009h0l-.2-.2s0,0,0,0,0,0,0,0h0C.828-.353.6-.479.59-.488a.018.018,0,0,1-.011,0,1.98,1.98,0,0,0-.3-.071c.094.023.188.048.282.069A2.653,2.653,0,0,0,.276-.566c-.083,0-.243,0-.3.007H-.027a1.031,1.031,0,0,0-.142.041s-.1.023-.144.041l-.007,0c.085-.048-.174.094-.248.147a.032.032,0,0,1-.009.007c-.069.067-.138.135-.2.209L-.786-.1A2.133,2.133,0,0,0-.933.161s0,0,0,.007a1.709,1.709,0,0,0-.071.294s0,.007,0,.009v0c0,.05,0,.1,0,.144s0,.094,0,.142c0,0,0,.007,0,.009a.8.8,0,0,0,.149.388.8.8,0,0,0,.271.317.541.541,0,0,0,.11.067c.009.009.023.014.034.023s.034.021.05.03a1.212,1.212,0,0,0,.17.092c.094.023.188.048.282.069a1.066,1.066,0,0,0,.548-.08s.007,0,.009,0A1.9,1.9,0,0,0,.87,1.523a.032.032,0,0,0,.009-.007l.195-.2,0,0,0,0a.008.008,0,0,0,0,0s0,0,0,0,0,0,0,0,.138-.243.142-.252,0-.007,0-.011a1.394,1.394,0,0,0,.076-.3" transform="translate(1.011 0.566)" fill="#2b2e34"/>
    </g>
    <g id="Grupo_2777" data-name="Grupo 2777" transform="translate(245.639 -133.449)">
      <path id="Caminho_3959" data-name="Caminho 3959" d="M2.671.115a.724.724,0,0,0-1.007,0c-.055.055-.11.11-.17.161L1.433.324C1.309.4,1.19.489,1.057.558,1.02.578.979.6.942.615L.921.626S.885.643.871.647a.716.716,0,0,1-.1.034A3.38,3.38,0,0,1,.32.808C.288.815.252.821.217.826c-.009,0-.044,0-.062.007H.148C.1.837.064.84.018.842a3.169,3.169,0,0,1-.443,0C-.45.835-.473.831-.5.831-.574.815-.65.8-.723.785A3.052,3.052,0,0,1-1.168.64a.713.713,0,0,0-.876.5.737.737,0,0,0,.5.876,4.021,4.021,0,0,0,4.218-.89.721.721,0,0,0,0-1.007" transform="translate(2.065 0.089)" fill="#174012"/>
    </g>
  </g>
</svg>
