<svg xmlns="http://www.w3.org/2000/svg" xmlns:xlink="http://www.w3.org/1999/xlink" width="79.198" height="40" viewBox="0 0 79.198 40">
  <defs>
    <clipPath id="clip-path">
      <path id="Caminho_3862" data-name="Caminho 3862" d="M418.828-188.33h79.2v-40h-79.2Z" transform="translate(0 0)" fill="none"/>
    </clipPath>
  </defs>
  <g id="alfabeto_l_e002_fim" transform="translate(-418.828 228.33)" clip-path="url(#clip-path)">
    <g id="Grupo_2670" data-name="Grupo 2670" transform="translate(432.109 -228.329)">
      <path id="Caminho_3852" data-name="Caminho 3852" d="M44.735.063C43.512.012,42.293,0,41.07-.029A109.886,109.886,0,0,1,23.46,1.2Q18.3,2.783,13.174,4.479a2.461,2.461,0,0,0-.569.079A217.745,217.745,0,0,0-19.121,15.941,2.024,2.024,0,0,0-20.151,18a9.481,9.481,0,0,0,2.2,9.8,13.14,13.14,0,0,0,4.695,3.083,10.276,10.276,0,0,0,6.186.761,1.71,1.71,0,0,0,.837-.5h.013q10.345-4.123,20.7-8.246c5.614-2.234,11.269-4.508,16.337-7.832a2.829,2.829,0,0,0,1.03-.537c.632-.518,1.276-1.014,1.927-1.5A19.066,19.066,0,0,0,36.372,11.1c.256-.186.5-.385.752-.575C39.81,7.3,42.457,4.028,45.2.846a2.076,2.076,0,0,0-.464-.784" transform="translate(20.717 0.029)" fill="#ffc734"/>
    </g>
    <g id="Grupo_2671" data-name="Grupo 2671" transform="translate(490.999 -228.329)">
      <path id="Caminho_3853" data-name="Caminho 3853" d="M4.485.063C3.262.012,2.043,0,.82-.029Q-.459.132-1.739.29a4.428,4.428,0,0,0-.313,2.091A4.918,4.918,0,0,0-.393,5.655a6.211,6.211,0,0,0,.834.562c1.488-1.8,2.982-3.6,4.508-5.371A2.076,2.076,0,0,0,4.485.063" transform="translate(2.077 0.029)" fill="#2b2e34"/>
    </g>
    <g id="Grupo_2672" data-name="Grupo 2672" transform="translate(432.109 -227.099)">
      <path id="Caminho_3854" data-name="Caminho 3854" d="M34.795,6.227a19.83,19.83,0,0,1-5.658-9.092c-.357-.006-.717-.006-1.074-.019Q22.9-1.3,17.779.4a2.438,2.438,0,0,0-.569.079A217.479,217.479,0,0,0-14.516,11.857a2.019,2.019,0,0,0-1.03,2.063,9.48,9.48,0,0,0,2.193,9.8,13.152,13.152,0,0,0,4.7,3.083,13.021,13.021,0,0,0,3.178.869.452.452,0,0,1,.035.047,1.354,1.354,0,0,0,.3.256,1.29,1.29,0,0,0,.363.161c.025.006.054.006.082.013a.526.526,0,0,0,.547.177c.088-.025.171-.066.253-.095a.49.49,0,0,0,.408-.057,8.648,8.648,0,0,1,1.011-.607.012.012,0,0,0,.009,0,1.574,1.574,0,0,0,.6-.3q.7-.332,1.4-.654,9.776-3.9,19.55-7.788c5.617-2.234,11.272-4.508,16.337-7.832a2.78,2.78,0,0,0,1.03-.537c.54-.442,1.093-.866,1.646-1.283a32.948,32.948,0,0,1-3.292-2.941" transform="translate(16.114 2.884)" fill="#ff9a39"/>
    </g>
    <g id="Grupo_2673" data-name="Grupo 2673" transform="translate(427.673 -212.754)">
      <path id="Caminho_3855" data-name="Caminho 3855" d="M11.817,6.367Q9.642,2.936,7.47-.5A5.643,5.643,0,0,0,.9-2.611a4.667,4.667,0,0,0-1.153.3A6.127,6.127,0,0,0-1-1.923a.508.508,0,0,0-.4.063c-.427.284-.831.607-1.238.919l-.622.3A6.069,6.069,0,0,0-5.3.6a.654.654,0,0,0,0,.891.6.6,0,0,0,.221.139.563.563,0,0,0,.107.234.6.6,0,0,0,.8.161h0a.681.681,0,0,0,.291.36,5.712,5.712,0,0,0,.24,2.546,17.013,17.013,0,0,0,8.4,9.721,5.1,5.1,0,0,0,1.627.5.621.621,0,0,0-.088.635.681.681,0,0,0,.126.4.6.6,0,0,0,.8.161c.051-.038.1-.076.158-.114a.879.879,0,0,0,.329-.063,1.886,1.886,0,0,0,.626-.483.617.617,0,0,0,.316-.07A18.458,18.458,0,0,0,11.349,13.7a.607.607,0,0,0,.167-.559,5.922,5.922,0,0,0,.3-6.77" transform="translate(5.473 2.949)" fill="#ffc734"/>
    </g>
    <g id="Grupo_2674" data-name="Grupo 2674" transform="translate(425.833 -210.447)">
      <path id="Caminho_3856" data-name="Caminho 3856" d="M10.164,6.75Q7.989,3.314,5.813-.115C4.474-2.235,2.61-3.748.3-2.873a18.719,18.719,0,0,0-2.215.945C-4.739-.76-5.235,1.664-4.23,4.668a17.019,17.019,0,0,0,8.4,9.721c2.12,1.084,4.085,1.207,5.6-.727a5.94,5.94,0,0,0,.4-6.913" transform="translate(4.707 3.126)" fill="#ff9a39"/>
    </g>
    <g id="Grupo_2675" data-name="Grupo 2675" transform="translate(420.074 -209.197)">
      <path id="Caminho_3857" data-name="Caminho 3857" d="M13.488,5.943Q11.417,2.73,9.353-.479A5.36,5.36,0,0,0,4.364-2.726c-.2.073-.4.152-.6.224C1.575-1.459-.716-.6-2.817.6a.592.592,0,0,0-.076.12c-.3.19-.626.351-.948.512-.123.079-.25.155-.373.237a1.432,1.432,0,0,1-.471.212,4.043,4.043,0,0,0-.686.5A2.371,2.371,0,0,0-6.08,4.854a4.69,4.69,0,0,0,2.43,2.082c1.175.638,2.325,1.317,3.44,2.05a11.992,11.992,0,0,1,3.14,2.5,38.927,38.927,0,0,1,1.937,3.551,2.455,2.455,0,0,0,2.426,1.292,3.288,3.288,0,0,0,1.472-.553,1.933,1.933,0,0,1,.278-.395c1.469-1.561,3.248-2.777,4.812-4.233a5.388,5.388,0,0,0-.366-5.2" transform="translate(6.247 2.752)" fill="#e06077"/>
    </g>
    <g id="Grupo_2676" data-name="Grupo 2676" transform="translate(419.494 -205.8)">
      <path id="Caminho_3858" data-name="Caminho 3858" d="M10.242,5.954Q8.176,2.741,6.107-.466A5.408,5.408,0,0,0-.142-2.44a4.236,4.236,0,0,0-1.1.278,5.4,5.4,0,0,0-3.213,6.77A16,16,0,0,0,3.532,13.7a5.379,5.379,0,0,0,6.334-1.283,5.485,5.485,0,0,0,.376-6.464" transform="translate(4.743 2.757)" fill="#ff6e88"/>
    </g>
    <g id="Grupo_2677" data-name="Grupo 2677" transform="translate(441.534 -223.423)">
      <path id="Caminho_3859" data-name="Caminho 3859" d="M21.563.013A123.847,123.847,0,0,0,6.06,5.279C.822,7.361-4.4,9.491-9.626,11.6c-.638.259-.357,1.3.287,1.043C-4.11,10.537,1.11,8.4,6.348,6.322a123.847,123.847,0,0,1,15.5-5.267A.541.541,0,0,0,21.563.013" transform="translate(9.986 0.006)" fill="#ffc734"/>
    </g>
    <g id="Grupo_2678" data-name="Grupo 2678" transform="translate(446.219 -218.933)">
      <path id="Caminho_3860" data-name="Caminho 3860" d="M20.271.017A260.761,260.761,0,0,0-9.1,10.6c-.638.275-.088,1.207.547.935A259.015,259.015,0,0,1,20.559,1.059.541.541,0,0,0,20.271.017" transform="translate(9.388 0.008)" fill="#ffc734"/>
    </g>
    <g id="Grupo_2679" data-name="Grupo 2679" transform="translate(449.564 -214.766)">
      <path id="Caminho_3861" data-name="Caminho 3861" d="M20.088.056a42.987,42.987,0,0,1-7.162,3.1Q9.168,4.595,5.391,5.98C.538,7.752-4.346,9.462-9.025,11.667c-.629.3-.079,1.226.547.935,4.755-2.243,9.731-3.955,14.659-5.766q3.782-1.384,7.535-2.828A41.435,41.435,0,0,0,20.634.991c.591-.363.047-1.3-.547-.935" transform="translate(9.303 0.026)" fill="#ffc734"/>
    </g>
  </g>
</svg>
