<svg xmlns="http://www.w3.org/2000/svg" xmlns:xlink="http://www.w3.org/1999/xlink" width="35.544" height="40" viewBox="0 0 35.544 40">
  <defs>
    <clipPath id="clip-path">
      <path id="Caminho_3970" data-name="Caminho 3970" d="M273.793-114.487h35.544v-40H273.793Z" fill="none"/>
    </clipPath>
  </defs>
  <g id="alfabeto_u_e002_fim" transform="translate(-273.793 154.487)" clip-path="url(#clip-path)">
    <g id="Grupo_2779" data-name="Grupo 2779" transform="translate(281.418 -129.15)">
      <path id="Caminho_3961" data-name="Caminho 3961" d="M3.258,2.3a4.041,4.041,0,0,0,.708-3.678c-.184-.031-.365-.065-.547-.114A9.321,9.321,0,0,1,.8-2.648c-.093-.063-.168-.136-.253-.2a.667.667,0,0,1-.379-.163c-.212-.185-.956.1-1.176.154a7.476,7.476,0,0,0-1.442.482A3.451,3.451,0,0,0-4.323-.528c-.012.035-.017.07-.03.1a4.468,4.468,0,0,0,1.1,3.25A5.647,5.647,0,0,0,.2,4.4,6.679,6.679,0,0,0,3.258,2.3" transform="translate(4.356 3.077)" fill="#6a43a3"/>
    </g>
    <g id="Grupo_2780" data-name="Grupo 2780" transform="translate(286.065 -139.002)">
      <path id="Caminho_3962" data-name="Caminho 3962" d="M.05,2.085A5.561,5.561,0,0,0,.19,4.86a2.593,2.593,0,0,0,1.4,1.687,8.394,8.394,0,0,0,2.1.82A5.053,5.053,0,0,0,7.92,6.348,5.1,5.1,0,0,0,9.752,2.665c.051-1.44-.227-3.416-1.327-4.45a.038.038,0,0,0-.005-.009,5.346,5.346,0,0,0-1.944-.794,6.172,6.172,0,0,0-1.1-.112A4.863,4.863,0,0,0,2.5-2.382a4.368,4.368,0,0,0-.465.245,4.224,4.224,0,0,0-1.4,1.089.6.6,0,0,1,.1.379A17.833,17.833,0,0,1,.05,2.085" transform="translate(0.067 2.787)" fill="#6a43a3"/>
    </g>
    <g id="Grupo_2781" data-name="Grupo 2781" transform="translate(286.232 -124.285)">
      <path id="Caminho_3963" data-name="Caminho 3963" d="M3.052,1.292A7.545,7.545,0,0,1,.6-1.727a5.532,5.532,0,0,1-.7,1.246A8.107,8.107,0,0,1-3.775,2.162,3.95,3.95,0,0,0-1.788,7.27a4.261,4.261,0,0,0,3.326.512A3.42,3.42,0,0,0,3.731,6.426a4.309,4.309,0,0,0,.9-4.041c-.028-.094-.072-.182-.1-.271-.1-.042-.2-.082-.29-.128a3.247,3.247,0,0,1-1.187-.694" transform="translate(4.08 1.727)" fill="#6a43a3"/>
    </g>
    <g id="Grupo_2782" data-name="Grupo 2782" transform="translate(296.685 -138.744)">
      <path id="Caminho_3964" data-name="Caminho 3964" d="M1.251.021a4.06,4.06,0,0,0-2.924,1.53,7.167,7.167,0,0,1,.271.9,9.346,9.346,0,0,1,.259,3.416,6.261,6.261,0,0,1-.5,1.69A5.664,5.664,0,0,1,1.8,9.4a3.461,3.461,0,0,0,2.173-.454A4.627,4.627,0,0,0,6.184,5.526a5.276,5.276,0,0,0,.229-1.647C6.363,1.1,3.641-.32,1.251.021" transform="translate(1.673 0.029)" fill="#6a43a3"/>
    </g>
    <g id="Grupo_2783" data-name="Grupo 2783" transform="translate(276.81 -139.288)">
      <path id="Caminho_3965" data-name="Caminho 3965" d="M3.549,3.787l.072-.01a4.75,4.75,0,0,1-.175-.447A7.136,7.136,0,0,1,3.177.307c.136-1.012.656-1.946.731-2.966A.681.681,0,0,1,4.231-3.2,5.791,5.791,0,0,0,.4-5.032,4.619,4.619,0,0,0-4.675-1.09,4.513,4.513,0,0,0-4.415,1.4a5.054,5.054,0,0,0,.17.687,4.419,4.419,0,0,0,4.6,2.9A6.541,6.541,0,0,1,1.5,4.376a10.252,10.252,0,0,1,2.049-.589" transform="translate(4.745 5.063)" fill="#6a43a3"/>
    </g>
    <g id="Grupo_2784" data-name="Grupo 2784" transform="translate(291.625 -129.797)">
      <path id="Caminho_3966" data-name="Caminho 3966" d="M0,1.023A6.2,6.2,0,0,0,3.183,6.43c.1.052.2.1.306.157a5.918,5.918,0,0,0,1.395.2,7.761,7.761,0,0,0,1.259.005,5.369,5.369,0,0,0,2.071-2.3,3.772,3.772,0,0,0,.337-1.248,4.246,4.246,0,0,0,.1-.785,4.759,4.759,0,0,0-.308-1.122,4.357,4.357,0,0,0-4.083-2.7A6.573,6.573,0,0,1,0,1.023" transform="translate(0 1.368)" fill="#6a43a3"/>
    </g>
    <g id="Grupo_2785" data-name="Grupo 2785" transform="translate(281.422 -138.288)">
      <path id="Caminho_3967" data-name="Caminho 3967" d="M7.646,3.974A5.338,5.338,0,0,0,7,3.24a4.749,4.749,0,0,0,1.516.414A5.67,5.67,0,0,0,5.072,1.814a6.133,6.133,0,0,0,.5-1.692,9.389,9.389,0,0,0-.257-3.416,7.57,7.57,0,0,0-.271-.9,4.119,4.119,0,0,0-.547.909A4.617,4.617,0,0,0,2.908-5.035a.038.038,0,0,0,.005.009c1.1,1.037,1.377,3.012,1.328,4.45A5.118,5.118,0,0,1,2.41,3.109,5.055,5.055,0,0,1-1.818,4.128a8.414,8.414,0,0,1-2.1-.822A2.588,2.588,0,0,1-5.32,1.62a5.54,5.54,0,0,1-.142-2.776c.182-.776.472-1.5.608-2.283A.662.662,0,0,0-4.811-3.6c.1-.222.215-.441.322-.661a.514.514,0,0,0,.082-.259.525.525,0,0,0-.012-.28.531.531,0,0,0-.126-.238.516.516,0,0,0-.194-.178.7.7,0,0,0-.54-.072.693.693,0,0,0-.416.322l-.236.481c-.03.063-.059.124-.089.185a.664.664,0,0,0-.159.39.089.089,0,0,1,0,.023.434.434,0,0,0-.01.094c-.1.975-.586,1.874-.718,2.849A7.167,7.167,0,0,0-6.641,2.08a4.741,4.741,0,0,0,.173.447l-.07.01a10.186,10.186,0,0,0-2.05.589,6.58,6.58,0,0,0-1.143.607,3.967,3.967,0,0,0,.479-.047A3.672,3.672,0,0,0-10,5.055a5.854,5.854,0,0,0-.222,1.426c.012-.037.017-.07.03-.107A3.451,3.451,0,0,1-8.319,4.523a7.476,7.476,0,0,1,1.442-.482c.219-.054.965-.339,1.176-.154a.667.667,0,0,0,.379.163c.084.068.161.142.253.2A9.272,9.272,0,0,0-2.449,5.413c.182.051.364.082.547.115A4.038,4.038,0,0,1-2.61,9.2a6.688,6.688,0,0,1-3.061,2.1,5.309,5.309,0,0,0,.909.024,3.9,3.9,0,0,0,.7-.115,3.865,3.865,0,0,0-.883,1.04,3.3,3.3,0,0,0-.157.327A8.129,8.129,0,0,0-1.423,9.937,5.633,5.633,0,0,0-.729,8.691a7.586,7.586,0,0,0,2.451,3.019,3.286,3.286,0,0,0,1.187.694c.094.045.192.086.29.128a4.549,4.549,0,0,0-.454-.9,4.417,4.417,0,0,0,.843.241,3.725,3.725,0,0,0,2.538-.538,7.762,7.762,0,0,1-1.259-.005,5.918,5.918,0,0,1-1.395-.2c-.1-.052-.21-.1-.306-.157A6.2,6.2,0,0,1-.018,5.569,6.573,6.573,0,0,0,4.24,3.181a4.361,4.361,0,0,1,4.085,2.7,4.777,4.777,0,0,1,.306,1.122,4.851,4.851,0,0,0-.986-3.031" transform="translate(10.221 5.313)" fill="#8066b4"/>
    </g>
    <g id="Grupo_2786" data-name="Grupo 2786" transform="translate(274.029 -146.589)">
      <path id="Caminho_3968" data-name="Caminho 3968" d="M14.658,3.34a4.327,4.327,0,0,1-3.805-.3A8.128,8.128,0,0,1,8.482.382,5.131,5.131,0,0,0,3.84-1.46a3.533,3.533,0,0,0-.145-.5A3.673,3.673,0,0,0,1.609-3.928a4.33,4.33,0,0,0-1.57-.206.076.076,0,0,0-.012-.007c-.192.012-.385.023-.579.023a2.829,2.829,0,0,1-1.283-.236,6.854,6.854,0,0,1-.683-.068c-.22-.009-.439-.021-.657-.042a.026.026,0,0,0-.012,0c-.005,0-.01,0-.016,0A5.809,5.809,0,0,0-4.7-4.283,4.135,4.135,0,0,0-7.72-1.443c-1.844-.11-3.709.219-4.877,1.825a8.133,8.133,0,0,1-2.372,2.66,4.323,4.323,0,0,1-3.8.3.634.634,0,0,0-.689,1c2.131,2.72,6.3,2.411,9.28,1.495a13.04,13.04,0,0,0,1.94-.759,9.172,9.172,0,0,0,.6,4.576.49.49,0,0,0,.248.252.6.6,0,0,0,.731.166,15.373,15.373,0,0,0,4.4-3.1A7.4,7.4,0,0,0-.758,4.717c.1.189.2.376.3.559A5.015,5.015,0,0,0,2.277,7.794a.5.5,0,0,0,.323.063.562.562,0,0,0,.533-.439,5.392,5.392,0,0,0,.946-2.362,12.7,12.7,0,0,0,1.988.781c2.977.916,7.149,1.225,9.28-1.495a.635.635,0,0,0-.689-1" transform="translate(19.596 4.465)" fill="#46ac46"/>
    </g>
    <g id="Grupo_2787" data-name="Grupo 2787" transform="translate(291.567 -154.281)">
      <path id="Caminho_3969" data-name="Caminho 3969" d="M2.447,1.439a3.31,3.31,0,0,1,1.9,1.612c.441.678.879,1.624.357,2.379-.575.83-1.453.154-1.862-.47A4.173,4.173,0,0,1,2.164,2.5a3.281,3.281,0,0,1,.229-1.07c.017,0,.035,0,.054.005M5.726-.7c.774.108,1.11-1.075.327-1.185A4.522,4.522,0,0,0,1.606.224c-.08.012-.157.016-.239.033A5.683,5.683,0,0,0-1.689,2.276a6.977,6.977,0,0,0-.635,7.94A.614.614,0,0,0-1.262,9.6a5.74,5.74,0,0,1-.3-5.249A5.7,5.7,0,0,1,1.045,1.615c0,.009-.005.019-.007.03A5.4,5.4,0,0,0,1.557,5.2,2.9,2.9,0,0,0,4.319,7.036a2.363,2.363,0,0,0,1.853-2.3A5.012,5.012,0,0,0,4.615,1.395,3.86,3.86,0,0,0,3.047.357,3.024,3.024,0,0,1,5.726-.7" transform="translate(3.271 1.923)" fill="#46ac46"/>
    </g>
  </g>
</svg>
