<svg xmlns="http://www.w3.org/2000/svg" xmlns:xlink="http://www.w3.org/1999/xlink" width="64.322" height="40" viewBox="0 0 64.322 40">
  <defs>
    <clipPath id="clip-path">
      <path id="Caminho_3759" data-name="Caminho 3759" d="M161.19-190.867h64.322v-40H161.19Z" transform="translate(0 0)" fill="none"/>
    </clipPath>
  </defs>
  <g id="alfabeto_e_e002_fim" transform="translate(-161.19 230.867)" clip-path="url(#clip-path)">
    <g id="Grupo_2567" data-name="Grupo 2567" transform="translate(170.745 -226.057)">
      <path id="Caminho_3749" data-name="Caminho 3749" d="M5.965,11.52A14.764,14.764,0,0,1,5.87,9.175C5.349,5.4,5.5.95,7.252-1.842A8.108,8.108,0,0,1,8.923-3.755a8.448,8.448,0,0,1,1.963-2.113c.055-.042.113-.071.171-.111.234-.2.471-.4.711-.579a6.335,6.335,0,0,1,.637-.421,2.867,2.867,0,0,0-.587-.079C9.939-7.1,8.373-5.645,7.052-4.521,5.4-3.116,3.909-1.574,2.409-.015A27.3,27.3,0,0,1,.162,2.116c-.792.658-1.711,1.095-2.532,1.7A3.838,3.838,0,0,0-3.294,8.4C-2.531,10.257-.873,11.726.556,13.1A29.326,29.326,0,0,1,4.77,17.768c1.629-1.427.811-2.921,1.195-6.248" transform="translate(3.655 7.059)" fill="#6f7175"/>
    </g>
    <g id="Grupo_2568" data-name="Grupo 2568" transform="translate(161.289 -228.673)">
      <path id="Caminho_3750" data-name="Caminho 3750" d="M33.359,8.823C32.6-1.953,20.328-7.6,10.729-4.611a8.672,8.672,0,0,0-3.785.924q-.458.229-.9.482a6.829,6.829,0,0,0-1.608.916c-.24.182-.474.376-.711.579-.055.039-.116.068-.171.111A8.486,8.486,0,0,0,1.594.514,8.124,8.124,0,0,0-.08,2.427c-1.75,2.792-1.9,7.243-1.379,11.017a14.764,14.764,0,0,0,.095,2.345c-.466,4.027.84,5.374-2.577,7.156-6.043,3.15-7.554-2.716-8.949-7.251,0,0,0,0,0-.005-.063-.205-.126-.411-.189-.611-.005-.018-.016-.034-.021-.053a9.743,9.743,0,0,1-.145-1.592,2.557,2.557,0,0,0-.161-.421,1.109,1.109,0,0,0-.384-.418,1.373,1.373,0,0,0-.9-.318q-2.132.225-4.264.455a1.876,1.876,0,0,0-.755.2,1.483,1.483,0,0,0-.608.716,1.464,1.464,0,0,0,.308,1.629c.524.44,1.119.263,1.721.9,1.158,8.583,2.437,14.9,11.573,15.807a27.426,27.426,0,0,0,8.283-.416c.158-.029.321-.047.482-.068.279-.047.561-.092.84-.142.658-.113,1.313-.245,1.966-.39.074-.016.147-.032.218-.05A13.111,13.111,0,0,1,6.363,30.6c2.14-.279,11.412.658,15.836-2.371a17.882,17.882,0,0,0,1.824-1.445,14.492,14.492,0,0,0,5.09-6.072A15.318,15.318,0,0,0,33.359,8.823" transform="translate(20.441 5.406)" fill="#9a9b9f"/>
    </g>
    <g id="Grupo_2569" data-name="Grupo 2569" transform="translate(197.901 -226.446)">
      <path id="Caminho_3751" data-name="Caminho 3751" d="M16.546,9.709c-.532-.874-1.219-1.624-1.705-2.532a26.924,26.924,0,0,1-1.274-2.824c-.8-2.006-1.6-4-2.6-5.924-.8-1.537-1.7-3.474-3.458-4.145a8.19,8.19,0,0,0-3.077-.161,11.974,11.974,0,0,0-2.319.2c-.345.061-.684.134-1.026.205-.332.013-.663.037-.995.039-2.348.024-3.982-.132-6.156.9a7.548,7.548,0,0,0-1.324.816A4.493,4.493,0,0,0-9.828-.4c-.018.05-.042.1-.061.147a.488.488,0,0,0,.011.358c0,.026.005.053.005.076a3.649,3.649,0,0,0-.263,1.463A5.758,5.758,0,0,0-8.918,4.58c1.5,2.158,3.537,3.961,4.706,6.332a42.222,42.222,0,0,1,2.848,7.246,17.507,17.507,0,0,1,.645,3.735c.063,1.155.105,2.206,1.008,2.985.861.745,2-.363,2.006-.842a.538.538,0,0,0,.155-.263.57.57,0,0,0,.111-.234c.919-4.156,4.214-4.919,7.772-6.338,1.84-.732,3.932-1.466,5.34-2.9a3.835,3.835,0,0,0,.874-4.587" transform="translate(10.139 5.95)" fill="#6f7175"/>
    </g>
    <g id="Grupo_2570" data-name="Grupo 2570" transform="translate(187.122 -214.227)">
      <path id="Caminho_3752" data-name="Caminho 3752" d="M7.409,2.53A4.554,4.554,0,0,0,6.061.151a6.539,6.539,0,0,0-2-1.171A5.722,5.722,0,0,0-.634-1.065c-.058.032-.108.076-.166.108a1.754,1.754,0,0,0-.495.2A5.924,5.924,0,0,0-3.071.832a4.5,4.5,0,0,0-.732.932A4.754,4.754,0,0,0-4.54,4.12a4.894,4.894,0,0,0,.553,2.421c.066.116.153.216.224.326a4.472,4.472,0,0,0,.305.758,4.753,4.753,0,0,0,3.974,2.6,5.754,5.754,0,0,0,1.613-.195A4.926,4.926,0,0,0,3.7,9.868,4.908,4.908,0,0,0,5.864,8.7,5.073,5.073,0,0,0,7.217,6.5a8.439,8.439,0,0,0,.324-2.013A7.423,7.423,0,0,0,7.409,2.53" transform="translate(4.54 1.55)" fill="#fff"/>
    </g>
    <g id="Grupo_2571" data-name="Grupo 2571" transform="translate(190.982 -209.89)">
      <path id="Caminho_3753" data-name="Caminho 3753" d="M0,.026.024.02H.029C.163-.022.211-.035,0,.026" transform="translate(0 0.016)" fill="#2b2e34"/>
    </g>
    <g id="Grupo_2572" data-name="Grupo 2572" transform="translate(188.698 -209.897)">
      <path id="Caminho_3754" data-name="Caminho 3754" d="M3.5,1.451a.094.094,0,0,0-.005-.026.114.114,0,0,0,0-.013c-.018-.061-.2-.6-.216-.655,0,0,0-.005,0-.008A.3.3,0,0,0,3.247.7,6.585,6.585,0,0,0,2.865.112.15.15,0,0,0,2.847.091C2.765.009,2.62-.117,2.589-.146S2.42-.307,2.331-.38L2.307-.4,2.3-.4Q2-.559,1.691-.717v0a.037.037,0,0,0-.016-.005c-.005,0-.008-.005-.013-.005l-.008,0C1.615-.744,1-.878.957-.886a.118.118,0,0,0-.029,0,4.075,4.075,0,0,0-.74.039L.9-.886a5.222,5.222,0,0,0-.732.037C-.022-.788-.4-.673-.52-.625c0,0-.008,0-.011.005a2.487,2.487,0,0,0-.305.2,3.19,3.19,0,0,0-.305.2.122.122,0,0,1-.018.018c.171-.176-.337.342-.468.518a.146.146,0,0,0-.016.021c-.116.205-.232.413-.326.626A.181.181,0,0,0-1.98.986a6.681,6.681,0,0,0-.158.716c0,.008,0,.016,0,.024a4.8,4.8,0,0,0,.039.732.09.09,0,0,0,0,.026c0,.005,0,.008,0,.013.037.111.071.218.111.329s.068.221.108.329a.128.128,0,0,0,.011.029,2,2,0,0,0,.619.792,2.012,2.012,0,0,0,.858.547A2.219,2.219,0,0,0-.083,4.6c.029.013.063.016.095.026.047.005.095.024.142.029a2.922,2.922,0,0,0,.461.1l.708-.037a2.687,2.687,0,0,0,1.221-.582l.021-.018A4.008,4.008,0,0,0,3.036,3.6a.057.057,0,0,0,.013-.021l.318-.605,0-.005,0-.005c0-.005,0-.008.005-.013s0-.008,0-.013,0,0,0-.005l.153-.7c0-.011,0-.018,0-.026A3.347,3.347,0,0,0,3.5,1.451" transform="translate(2.144 0.889)" fill="#2b2e34"/>
    </g>
    <g id="Grupo_2573" data-name="Grupo 2573" transform="translate(177.929 -212.944)">
      <path id="Caminho_3755" data-name="Caminho 3755" d="M5.106,1.744A3.151,3.151,0,0,0,4.177.1,4.486,4.486,0,0,0,2.8-.7,3.939,3.939,0,0,0-.437-.733,1.184,1.184,0,0,0-.55-.662a1.293,1.293,0,0,0-.342.137A4.131,4.131,0,0,0-2.118.575a3.125,3.125,0,0,0-.505.642,3.291,3.291,0,0,0-.505,1.624,3.37,3.37,0,0,0,.382,1.666c.045.082.105.15.153.226a3.369,3.369,0,0,0,.211.521A3.273,3.273,0,0,0,.356,7.047a3.952,3.952,0,0,0,1.111-.134A3.491,3.491,0,0,0,2.553,6.8,3.371,3.371,0,0,0,4.04,5.994a3.479,3.479,0,0,0,.932-1.511A5.784,5.784,0,0,0,5.2,3.1a5.294,5.294,0,0,0-.092-1.353" transform="translate(3.129 1.069)" fill="#fff"/>
    </g>
    <g id="Grupo_2574" data-name="Grupo 2574" transform="translate(182.055 -209.835)">
      <path id="Caminho_3756" data-name="Caminho 3756" d="M0,.018l.016,0h0C.111-.016.145-.024,0,.018" transform="translate(0 0.011)" fill="#2b2e34"/>
    </g>
    <g id="Grupo_2575" data-name="Grupo 2575" transform="translate(180.481 -209.839)">
      <path id="Caminho_3757" data-name="Caminho 3757" d="M2.412,1c0-.005,0-.011,0-.016s0-.008-.005-.011C2.393.931,2.269.563,2.256.52a.009.009,0,0,1,0-.005L2.238.481C2.151.344,2.072.2,1.972.076A.046.046,0,0,0,1.961.062C1.906.007,1.806-.082,1.782-.1S1.667-.211,1.6-.261L1.59-.274s0,0-.005,0C1.446-.348,1.306-.422,1.164-.5c-.005,0-.008,0-.011-.005l-.008,0s-.005,0-.005,0C1.111-.514.685-.606.656-.611H.638A2.728,2.728,0,0,0,.13-.585C.293-.593.453-.6.617-.611a3.575,3.575,0,0,0-.5.026c-.129.042-.39.121-.474.155l-.008,0c-.071.034-.224.145-.211.134a2.331,2.331,0,0,0-.208.139L-.8-.143c.118-.121-.234.234-.324.358a.055.055,0,0,0-.011.016c-.079.139-.158.282-.226.432a.037.037,0,0,0-.005.016,3.945,3.945,0,0,0-.108.495.033.033,0,0,0,0,.016,3.571,3.571,0,0,0,.026.505.045.045,0,0,0,0,.018.01.01,0,0,0,0,.008c.024.076.047.153.074.226s.047.153.074.229a.066.066,0,0,0,.011.018,1.365,1.365,0,0,0,.426.547,1.349,1.349,0,0,0,.59.374,1.283,1.283,0,0,0,.213.058c.018.008.042.011.063.018s.066.016.1.018a1.776,1.776,0,0,0,.316.071l.49-.026a1.857,1.857,0,0,0,.84-.4c.005-.005.011-.008.013-.013a2.635,2.635,0,0,0,.326-.358A.026.026,0,0,0,2.1,2.471l.218-.418v0l0-.005.005-.008a.016.016,0,0,1,0-.011v0c.005-.016.1-.463.105-.479s0-.013,0-.021A2.332,2.332,0,0,0,2.412,1" transform="translate(1.478 0.612)" fill="#2b2e34"/>
    </g>
    <g id="Grupo_2576" data-name="Grupo 2576" transform="translate(185.593 -198.442)">
      <path id="Caminho_3758" data-name="Caminho 3758" d="M4.827,1.454A1.578,1.578,0,0,0,4.48.728C4.464.709,4.443.7,4.427.68A1.333,1.333,0,0,0,3.84.059C2.956-.4,1.914.093.977.075A1.56,1.56,0,0,1,.821.056,5.61,5.61,0,0,1-.1.006,3.149,3.149,0,0,1-1-.278c-.1-.026-.2-.061-.292-.095A2.159,2.159,0,0,1-1.861-.73a.768.768,0,0,0-.082-.037c-.011-.005-.026-.011-.039-.016-.089-.026-.176-.055-.263-.084-.016-.005-.029-.016-.047-.024-.411.032-.824.416-.605.863.024.05.053.1.079.15a7.679,7.679,0,0,0,1.99,2.7,4.338,4.338,0,0,0,2.792.971,1.53,1.53,0,0,0,.79.247.139.139,0,0,1,.032.008c.026,0,.053-.008.079-.005a1.538,1.538,0,0,0,.155-.011,1.106,1.106,0,0,0,.3-.061.34.34,0,0,0,.055-.013c.026-.008.05-.024.076-.034a.558.558,0,0,0,.082-.037A2.426,2.426,0,0,0,4.856,2.354.421.421,0,0,0,4.869,2.3.99.99,0,0,0,4.9,2.125a1.42,1.42,0,0,0-.068-.671" transform="translate(2.958 0.891)" fill="#fff"/>
    </g>
  </g>
</svg>
