<svg xmlns="http://www.w3.org/2000/svg" xmlns:xlink="http://www.w3.org/1999/xlink" width="40" height="34.802" viewBox="0 0 40 34.802">
  <defs>
    <clipPath id="clip-path">
      <rect id="Ret창ngulo_359" data-name="Ret창ngulo 359" width="40" height="34.802" transform="translate(0 0)" fill="none"/>
    </clipPath>
  </defs>
  <g id="tecla_2_fim" transform="translate(0 0)">
    <rect id="Ret창ngulo_358" data-name="Ret창ngulo 358" width="40" height="34.802" transform="translate(0 0)" fill="#fe9e36"/>
    <g id="Grupo_3283" data-name="Grupo 3283">
      <g id="Grupo_3282" data-name="Grupo 3282" clip-path="url(#clip-path)">
        <path id="Caminho_4520" data-name="Caminho 4520" d="M33.825,28.718H5.858A1.213,1.213,0,0,1,4.645,27.5V6.418A1.213,1.213,0,0,1,5.858,5.2H33.825a1.213,1.213,0,0,1,1.213,1.213V27.5a1.213,1.213,0,0,1-1.213,1.213" fill="#0055a5"/>
        <path id="Caminho_4521" data-name="Caminho 4521" d="M36.645,19.525c-.1-.685-.195-1.384-.274-2.082.092-3.041.18-6.164.168-9.265V8.166c0-.034,0-.068,0-.1a3.369,3.369,0,0,0-.949-2.37c-.766-.859-2.656-1.115-3.433-1.186-1.266-.115-2.525-.21-3.812-.215a20.081,20.081,0,0,0-3.971.278,8.467,8.467,0,0,1-1.973.021c-.1-.007-.21,0-.315-.007-.245-.013-.488-.017-.733-.017-.169,0-.342-.022-.507-.012-1.05-.07-2.094-.159-3.124-.246-1.978-.167-3.994-.327-6.014-.367a35.676,35.676,0,0,0-5.979.281,3.25,3.25,0,0,0-2.2.981,2.8,2.8,0,0,0-.473,1.532c-.072.834-.112,1.672-.126,2.51s-.009,1.663.028,2.486a.422.422,0,0,0,.173.319c-.08,2.336-.142,4.7-.175,7.073s-.039,4.789.012,7.193a4.5,4.5,0,0,0,.56,2.464,3.012,3.012,0,0,0,1.66,1.177,5.319,5.319,0,0,0,1.885.463,78.9,78.9,0,0,0,8.479.456c2.412,0,4.826-.11,7.226-.331a57.942,57.942,0,0,0,9.288.137,11.072,11.072,0,0,0,1.548.034,2.931,2.931,0,0,0,2.146-.873,2.775,2.775,0,0,0,.807-1.377,12.868,12.868,0,0,0,.509-4.236,32.565,32.565,0,0,0-.428-4.707M31.874,5.889a3.762,3.762,0,0,1,1.1.375,3.077,3.077,0,0,1,1.267,1.858,15.045,15.045,0,0,1,.393,4.937c-.022.743-.044,1.486-.02,2.224.018.608.068,1.22.134,1.83q-.008.192-.012.384c-.1,3.119-.194,6.345-.182,9.542a1.813,1.813,0,0,1-.121.839.466.466,0,0,1-.035.06,2.326,2.326,0,0,1-.869.276q-1.015.175-2.046.267c-.525-.048-1.053-.125-1.6-.205-.685-.1-1.392-.2-2.1-.246-.261-.015-.524-.022-.784-.022a29.648,29.648,0,0,0-3.134.221l-.582.06c-.214.022-.428.044-.643.064-.191-.014-.383-.029-.575-.042-1.4-.1-2.8-.2-4.186-.258L16.83,28.01A63.621,63.621,0,0,0,8.934,28a7.961,7.961,0,0,1-2.715-.141A1.543,1.543,0,0,1,5.99,27.7a2.963,2.963,0,0,1-.714-2.158c-.31-5.116-.443-10.306-.394-15.425a11.6,11.6,0,0,1,.373-3.373.428.428,0,0,0-.044-.354,1.377,1.377,0,0,1,.388-.47,2.087,2.087,0,0,1,1.055-.347c.059,0,.115-.005.175-.006.756-.013,1.434-.032,2.07-.05a44.046,44.046,0,0,1,6.187.133,35.74,35.74,0,0,0,4.993-.148l.814-.057c1.188.079,2.382.135,3.567.144.643.005,1.288,0,1.932-.012a40.163,40.163,0,0,1,4.161.1c.445.053.887.119,1.321.212m3.268,22.594a1.29,1.29,0,0,1-.119.051,1.63,1.63,0,0,0,.189-.236.792.792,0,0,1-.033.123c-.012.022-.024.042-.037.062" fill="#fff"/>
      </g>
    </g>
    <text id="_2" data-name="2" transform="translate(15.447 22.818)" fill="#fff" font-size="14.063" font-family="Neris-SemiBold, Neris" font-weight="600"><tspan x="0" y="0">2</tspan></text>
  </g>
</svg>
