<svg xmlns="http://www.w3.org/2000/svg" xmlns:xlink="http://www.w3.org/1999/xlink" width="40" height="34.802" viewBox="0 0 40 34.802">
  <defs>
    <clipPath id="clip-path">
      <rect id="Ret창ngulo_404" data-name="Ret창ngulo 404" width="40" height="34.802" transform="translate(0 0)" fill="none"/>
    </clipPath>
  </defs>
  <g id="tecla_off_fim" transform="translate(0 0)">
    <rect id="Ret창ngulo_403" data-name="Ret창ngulo 403" width="40" height="34.802" transform="translate(0 0)" fill="#fe9e36"/>
    <g id="Grupo_3349" data-name="Grupo 3349">
      <g id="Grupo_3348" data-name="Grupo 3348" clip-path="url(#clip-path)">
        <path id="Caminho_4578" data-name="Caminho 4578" d="M32.289,27.461H7.43a1.078,1.078,0,0,1-1.078-1.078V7.638A1.078,1.078,0,0,1,7.43,6.56H32.289a1.078,1.078,0,0,1,1.078,1.078V26.383a1.078,1.078,0,0,1-1.078,1.078" fill="#0055a5"/>
        <path id="Caminho_4579" data-name="Caminho 4579" d="M34.844,19.283c-.088-.614-.175-1.238-.244-1.861.082-2.7.159-5.468.149-8.219V9.192c0-.03,0-.06,0-.091a3.04,3.04,0,0,0-.856-2.137A5.216,5.216,0,0,0,30.81,5.893C29.677,5.79,28.551,5.7,27.4,5.7a17.878,17.878,0,0,0-3.518.25,7.747,7.747,0,0,1-1.74.016,11.968,11.968,0,0,0-1.391-.031c-.93-.062-1.857-.141-2.769-.219-1.748-.147-3.528-.289-5.312-.326a31.79,31.79,0,0,0-5.359.25,2.93,2.93,0,0,0-1.99.89,2.541,2.541,0,0,0-.43,1.387c-.064.74-.1,1.485-.113,2.231s-.008,1.481.025,2.217a.425.425,0,0,0,.153.3c-.07,2.072-.125,4.166-.154,6.274s-.035,4.25.01,6.387a4.049,4.049,0,0,0,.506,2.215,2.736,2.736,0,0,0,1.5,1.065,4.8,4.8,0,0,0,1.687.412,70.085,70.085,0,0,0,7.545.407c2.144,0,4.29-.1,6.424-.3a51.835,51.835,0,0,0,8.247.122,9.541,9.541,0,0,0,1.385.031,2.663,2.663,0,0,0,1.935-.789,2.5,2.5,0,0,0,.731-1.246,11.487,11.487,0,0,0,.454-3.789,28.967,28.967,0,0,0-.379-4.18m-4.3-12.068a3.319,3.319,0,0,1,.962.327,2.7,2.7,0,0,1,1.106,1.624,13.3,13.3,0,0,1,.346,4.366c-.018.664-.036,1.328-.016,1.988.016.539.06,1.083.117,1.624,0,.114-.007.227-.01.34-.084,2.774-.172,5.642-.161,8.483a1.629,1.629,0,0,1-.1.725c-.006.014-.015.027-.021.041a2.115,2.115,0,0,1-.749.234c-.6.1-1.2.18-1.806.235-.466-.042-.937-.11-1.422-.182-.608-.089-1.237-.18-1.869-.219q-.344-.018-.687-.018a26.51,26.51,0,0,0-2.781.194l-.54.055c-.19.02-.381.038-.571.057-.169-.014-.336-.025-.5-.037-1.244-.089-2.486-.179-3.72-.229l-.892-.037a56.686,56.686,0,0,0-7.067-.01,6.967,6.967,0,0,1-2.392-.122,1.317,1.317,0,0,1-.189-.13,2.6,2.6,0,0,1-.618-1.886c-.277-4.542-.394-9.154-.35-13.707a10.083,10.083,0,0,1,.328-2.985.425.425,0,0,0-.029-.329,1.154,1.154,0,0,1,.319-.379,1.821,1.821,0,0,1,.915-.3c.051,0,.1-.005.152-.006.672-.011,1.275-.028,1.84-.044a39.172,39.172,0,0,1,5.493.118,32.537,32.537,0,0,0,4.467-.133l.691-.049c1.058.07,2.122.12,3.179.128.571,0,1.14,0,1.71-.011a36.407,36.407,0,0,1,3.707.086c.392.047.781.105,1.164.187" fill="#fff"/>
      </g>
    </g>
    <text id="OFF" transform="translate(10.078 20.16)" fill="#fff" font-size="10.269" font-family="Neris-SemiBold, Neris" font-weight="600"><tspan x="0" y="0">OFF</tspan></text>
  </g>
</svg>
