<svg xmlns="http://www.w3.org/2000/svg" xmlns:xlink="http://www.w3.org/1999/xlink" width="40" height="34.802" viewBox="0 0 40 34.802">
  <defs>
    <clipPath id="clip-path">
      <rect id="Ret창ngulo_402" data-name="Ret창ngulo 402" width="40" height="34.802" transform="translate(0 0)" fill="none"/>
    </clipPath>
  </defs>
  <g id="tecla_subtracao_fim" transform="translate(0 0)">
    <rect id="Ret창ngulo_401" data-name="Ret창ngulo 401" width="40" height="34.802" transform="translate(0 0)" fill="#fe9e36"/>
    <g id="Grupo_3346" data-name="Grupo 3346">
      <g id="Grupo_3345" data-name="Grupo 3345" clip-path="url(#clip-path)">
        <path id="Caminho_4575" data-name="Caminho 4575" d="M32.168,27.51H7.309a1.078,1.078,0,0,1-1.078-1.078V7.687A1.078,1.078,0,0,1,7.309,6.609H32.168a1.078,1.078,0,0,1,1.078,1.078V26.432a1.078,1.078,0,0,1-1.078,1.078" fill="#0055a5"/>
        <path id="Caminho_4576" data-name="Caminho 4576" d="M34.722,19.329c-.086-.608-.174-1.227-.243-1.846.082-2.7.159-5.476.149-8.23V9.242c0-.031,0-.061,0-.092a3.049,3.049,0,0,0-.855-2.137,5.231,5.231,0,0,0-3.084-1.07c-1.13-.1-2.255-.188-3.4-.192A17.874,17.874,0,0,0,23.759,6a7.649,7.649,0,0,1-1.742.017,11.485,11.485,0,0,0-1.389-.032c-.931-.062-1.857-.14-2.769-.218-1.753-.147-3.536-.289-5.324-.326a31.777,31.777,0,0,0-5.349.25,2.934,2.934,0,0,0-1.989.89,2.509,2.509,0,0,0-.429,1.386c-.065.737-.1,1.482-.113,2.228s-.008,1.482.024,2.22a.429.429,0,0,0,.154.3C4.756,14.993,4.7,17.293,4.68,19.6c-.024,1.924-.032,3.853.009,5.777a3.959,3.959,0,0,0,.5,2.218,2.737,2.737,0,0,0,1.5,1.064,4.8,4.8,0,0,0,1.685.413,70.112,70.112,0,0,0,7.545.406q3.219,0,6.425-.294a51.953,51.953,0,0,0,8.247.122,10,10,0,0,0,1.384.03,2.594,2.594,0,0,0,1.932-.785,2.521,2.521,0,0,0,.735-1.249,11.469,11.469,0,0,0,.455-3.777,28.907,28.907,0,0,0-.381-4.2m-4.3-12.066a3.35,3.35,0,0,1,.964.328,2.722,2.722,0,0,1,1.107,1.626,13.334,13.334,0,0,1,.344,4.372c-.018.662-.037,1.323-.016,1.98.016.541.06,1.085.117,1.627,0,.107-.005.214-.009.32-.085,2.779-.174,5.653-.162,8.5a1.565,1.565,0,0,1-.1.724c-.007.014-.015.027-.023.04a2.047,2.047,0,0,1-.746.234c-.6.1-1.2.181-1.808.236-.465-.042-.936-.11-1.419-.182-.609-.089-1.239-.182-1.871-.218-.232-.014-.464-.02-.7-.02a26.468,26.468,0,0,0-2.793.2l-.518.053c-.19.021-.379.039-.57.056l-.508-.035c-1.242-.091-2.484-.179-3.717-.23l-.893-.037a57.008,57.008,0,0,0-7.063-.009A7.057,7.057,0,0,1,7.646,26.7a1.379,1.379,0,0,1-.19-.133,2.588,2.588,0,0,1-.617-1.883c-.276-4.543-.4-9.156-.351-13.709A10.061,10.061,0,0,1,6.817,8a.423.423,0,0,0-.03-.33,1.175,1.175,0,0,1,.319-.379,1.847,1.847,0,0,1,.916-.3l.151-.005C8.841,6.971,9.44,6.955,10,6.939a38.572,38.572,0,0,1,5.5.118,32.2,32.2,0,0,0,4.446-.132l.714-.051c1.058.071,2.121.121,3.177.129.579,0,1.142,0,1.712-.012a36.06,36.06,0,0,1,3.717.088c.388.046.773.1,1.152.184" fill="#fff"/>
        <path id="Caminho_4577" data-name="Caminho 4577" d="M25.628,16.286c.308,0,.481.062.481.171v1.2c0,.11-.173.172-.481.172H13.851c-.309,0-.485-.062-.485-.172v-1.2c0-.109.176-.171.485-.171Z" fill="#fff"/>
      </g>
    </g>
  </g>
</svg>
