<svg xmlns="http://www.w3.org/2000/svg" xmlns:xlink="http://www.w3.org/1999/xlink" width="40" height="34.802" viewBox="0 0 40 34.802">
  <defs>
    <clipPath id="clip-path">
      <rect id="Ret창ngulo_382" data-name="Ret창ngulo 382" width="40" height="34.802" transform="translate(0 0)" fill="none"/>
    </clipPath>
  </defs>
  <g id="tecla_mr_fim" transform="translate(0 0)">
    <rect id="Ret창ngulo_381" data-name="Ret창ngulo 381" width="40" height="34.802" transform="translate(0 0)" fill="#fe9e36"/>
    <g id="Grupo_3316" data-name="Grupo 3316">
      <g id="Grupo_3315" data-name="Grupo 3315" clip-path="url(#clip-path)">
        <path id="Caminho_4549" data-name="Caminho 4549" d="M32.289,27.461H7.43a1.078,1.078,0,0,1-1.078-1.078V7.638A1.078,1.078,0,0,1,7.43,6.56H32.289a1.078,1.078,0,0,1,1.078,1.078V26.383a1.078,1.078,0,0,1-1.078,1.078" fill="#0055a5"/>
        <path id="Caminho_4550" data-name="Caminho 4550" d="M34.843,19.284c-.085-.609-.173-1.229-.242-1.848.08-2.7.158-5.478.147-8.232V9.193c0-.03,0-.061,0-.091a3.036,3.036,0,0,0-.856-2.138A5.222,5.222,0,0,0,30.81,5.893c-1.123-.1-2.238-.186-3.379-.191a17.914,17.914,0,0,0-3.551.249,7.515,7.515,0,0,1-1.74.017,11.679,11.679,0,0,0-1.387-.032c-.933-.062-1.862-.141-2.778-.219-1.749-.147-3.531-.288-5.318-.325a31.882,31.882,0,0,0-5.349.25,2.92,2.92,0,0,0-1.989.889,2.524,2.524,0,0,0-.43,1.386c-.064.735-.1,1.476-.113,2.219s-.008,1.488.025,2.23a.424.424,0,0,0,.153.3c-.07,2.067-.126,4.159-.154,6.265s-.036,4.253.009,6.4a4.043,4.043,0,0,0,.506,2.215,2.736,2.736,0,0,0,1.5,1.065,4.79,4.79,0,0,0,1.69.413,69.8,69.8,0,0,0,7.542.407q3.219,0,6.428-.3a51.618,51.618,0,0,0,8.249.122,9.376,9.376,0,0,0,1.382.03,2.578,2.578,0,0,0,1.934-.787,2.5,2.5,0,0,0,.732-1.245,11.464,11.464,0,0,0,.455-3.789,28.982,28.982,0,0,0-.38-4.181m-4.3-12.069a3.345,3.345,0,0,1,.963.327,2.714,2.714,0,0,1,1.1,1.625,13.284,13.284,0,0,1,.346,4.373c-.019.661-.037,1.323-.017,1.98.017.539.06,1.083.117,1.624,0,.114-.007.227-.01.34-.084,2.774-.172,5.642-.161,8.483a1.629,1.629,0,0,1-.1.725.423.423,0,0,1-.023.041,2.069,2.069,0,0,1-.747.233q-.9.156-1.814.237c-.463-.043-.931-.111-1.41-.182-.61-.09-1.241-.181-1.872-.218-.233-.014-.467-.02-.7-.02a26.472,26.472,0,0,0-2.78.194l-.53.056-.569.055-.509-.036c-1.243-.09-2.483-.179-3.717-.229l-.918-.039a57.028,57.028,0,0,0-7.04-.008,7.031,7.031,0,0,1-2.388-.12,1.3,1.3,0,0,1-.194-.133,2.6,2.6,0,0,1-.617-1.884c-.276-4.543-.394-9.155-.351-13.708a10.1,10.1,0,0,1,.329-2.985.423.423,0,0,0-.03-.33,1.164,1.164,0,0,1,.32-.378,1.79,1.79,0,0,1,.911-.3c.052,0,.1-.005.153-.006.674-.011,1.277-.028,1.842-.044a38.881,38.881,0,0,1,5.493.118,32.471,32.471,0,0,0,4.452-.131l.712-.051c1.057.07,2.118.12,3.173.128.571,0,1.143,0,1.72-.011a36.342,36.342,0,0,1,3.69.086c.395.046.787.1,1.172.187" fill="#fff"/>
      </g>
    </g>
    <text id="MR" transform="translate(12.188 20.161)" fill="#fff" font-size="10.269" font-family="Neris-SemiBold, Neris" font-weight="600"><tspan x="0" y="0">MR</tspan></text>
  </g>
</svg>
