<svg xmlns="http://www.w3.org/2000/svg" xmlns:xlink="http://www.w3.org/1999/xlink" width="40" height="34.802" viewBox="0 0 40 34.802">
  <defs>
    <clipPath id="clip-path">
      <rect id="Ret창ngulo_396" data-name="Ret창ngulo 396" width="40" height="34.802" transform="translate(0 0)" fill="none"/>
    </clipPath>
  </defs>
  <g id="tecla_ponto_fim" transform="translate(0 0)">
    <rect id="Ret창ngulo_395" data-name="Ret창ngulo 395" width="40" height="34.802" transform="translate(0 0)" fill="#fe9e36"/>
    <g id="Grupo_3337" data-name="Grupo 3337">
      <g id="Grupo_3336" data-name="Grupo 3336" clip-path="url(#clip-path)">
        <path id="Caminho_4568" data-name="Caminho 4568" d="M33.825,28.792H5.858a1.213,1.213,0,0,1-1.213-1.213V6.492A1.213,1.213,0,0,1,5.858,5.279H33.825a1.213,1.213,0,0,1,1.213,1.213V27.579a1.213,1.213,0,0,1-1.213,1.213" fill="#0055a5"/>
        <path id="Caminho_4569" data-name="Caminho 4569" d="M36.645,19.6c-.1-.688-.195-1.388-.274-2.087.092-3.04.178-6.161.167-9.259V8.241c0-.034,0-.068,0-.1a3.367,3.367,0,0,0-.948-2.37,2.177,2.177,0,0,0-.3-.218l-.081-.059a6.9,6.9,0,0,0-3.058-.91c-1.276-.117-2.546-.212-3.844-.215a20.045,20.045,0,0,0-3.938.279,8.55,8.55,0,0,1-1.97.02c-.1-.006-.2,0-.307-.007-.253-.013-.5-.017-.756-.017-.166,0-.335-.021-.5-.012-1.05-.07-2.094-.158-3.124-.245-1.971-.167-3.978-.325-5.989-.366a35.726,35.726,0,0,0-6,.28,3.238,3.238,0,0,0-2.2.98,2.778,2.778,0,0,0-.473,1.532c-.073.83-.112,1.667-.127,2.505s-.009,1.665.027,2.493a.427.427,0,0,0,.174.317c-.08,2.337-.143,4.7-.175,7.073s-.039,4.789.011,7.194a4.494,4.494,0,0,0,.561,2.463,3.024,3.024,0,0,0,1.659,1.178,5.361,5.361,0,0,0,1.885.462,78.666,78.666,0,0,0,8.479.457c2.413,0,4.829-.11,7.231-.331a58.238,58.238,0,0,0,9.283.137,11.119,11.119,0,0,0,1.551.033,2.854,2.854,0,0,0,2.138-.867,2.783,2.783,0,0,0,.814-1.382,12.85,12.85,0,0,0,.508-4.233,32.479,32.479,0,0,0-.428-4.711M31.875,5.963a3.8,3.8,0,0,1,1.1.375A3.1,3.1,0,0,1,34.241,8.2a15.012,15.012,0,0,1,.393,4.936c-.022.743-.043,1.486-.02,2.224.019.608.069,1.222.132,1.833,0,.133-.006.266-.011.4-.094,3.114-.193,6.333-.181,9.524a1.832,1.832,0,0,1-.119.839c-.011.02-.023.04-.035.059a2.313,2.313,0,0,1-.871.277c-.677.118-1.36.206-2.047.268-.523-.048-1.051-.126-1.6-.2-.684-.1-1.393-.2-2.1-.246-.259-.015-.52-.022-.779-.022a29.8,29.8,0,0,0-3.126.219l-.6.062-.647.063-.573-.041c-1.4-.1-2.8-.2-4.182-.257l-1.01-.042a63.13,63.13,0,0,0-7.937-.011,7.952,7.952,0,0,1-2.718-.141,1.483,1.483,0,0,1-.225-.157,2.956,2.956,0,0,1-.714-2.157C4.965,20.5,4.832,15.311,4.882,10.2a11.335,11.335,0,0,1,.372-3.373.427.427,0,0,0-.043-.354A1.366,1.366,0,0,1,5.6,6a2.078,2.078,0,0,1,1.045-.347c.062,0,.122-.005.186-.006.753-.013,1.428-.032,2.061-.05a43.873,43.873,0,0,1,6.2.133,36.978,36.978,0,0,0,4.989-.148l.816-.058c1.188.079,2.381.135,3.568.145.644,0,1.289-.005,1.932-.013a40.248,40.248,0,0,1,4.165.1c.443.052.884.118,1.318.211m3.264,22.6c-.034.022-.08.031-.117.05a1.732,1.732,0,0,0,.191-.238.822.822,0,0,1-.036.125.657.657,0,0,1-.038.063" fill="#fff"/>
        <text id="_." data-name="." transform="translate(18.049 19.98)" fill="#fff" font-size="18.485" font-family="Neris-SemiBold, Neris" font-weight="600"><tspan x="0" y="0">.</tspan></text>
      </g>
    </g>
  </g>
</svg>
