<svg id="tecla_adicao_fim" xmlns="http://www.w3.org/2000/svg" xmlns:xlink="http://www.w3.org/1999/xlink" width="40" height="60.729" viewBox="0 0 40 60.729">
  <defs>
    <clipPath id="clip-path">
      <rect id="Ret창ngulo_367" data-name="Ret창ngulo 367" width="40" height="60.729" transform="translate(0 0)" fill="none"/>
    </clipPath>
  </defs>
  <rect id="Ret창ngulo_366" data-name="Ret창ngulo 366" width="40" height="60.729" transform="translate(0 0)" fill="#fe9e36"/>
  <g id="Grupo_3295" data-name="Grupo 3295">
    <g id="Grupo_3294" data-name="Grupo 3294" clip-path="url(#clip-path)">
      <path id="Caminho_4528" data-name="Caminho 4528" d="M32.094,54.206H8.769a1.845,1.845,0,0,1-1.845-1.845l-1-44.675A1.845,1.845,0,0,1,7.764,5.841H31.089a1.845,1.845,0,0,1,1.845,1.845l1.005,44.675a1.845,1.845,0,0,1-1.845,1.845" fill="#0055a5"/>
      <path id="Caminho_4529" data-name="Caminho 4529" d="M35.3,49.477c.109-5.759-.342-16.047-.74-24-.127-7.707-.237-14.73-.245-17.093a3.06,3.06,0,0,0-.856-2.138,5.231,5.231,0,0,0-3.084-1.07c-1.127-.1-2.249-.186-3.395-.191a17.913,17.913,0,0,0-3.535.249,7.461,7.461,0,0,1-1.74.017,12.351,12.351,0,0,0-1.387-.032c-.931-.062-1.86-.141-2.775-.218-1.76-.149-3.553-.291-5.351-.327-.9-.025-1.8-.024-2.7.017-.876.038-1.75.111-2.62.234a2.928,2.928,0,0,0-1.99.889A2.526,2.526,0,0,0,4.456,7.2c-.064.74-.1,1.485-.113,2.231s-.009,1.482.024,2.218a.425.425,0,0,0,.252.371c.032,8.366.464,27.046.666,35.811l.1,4.244a4.038,4.038,0,0,0,.507,2.217,2.735,2.735,0,0,0,1.5,1.066,4.817,4.817,0,0,0,1.685.413,70.274,70.274,0,0,0,7.55.406c2.145,0,4.289-.1,6.419-.294A52.607,52.607,0,0,0,31.294,56a10.056,10.056,0,0,0,1.379.03,2.664,2.664,0,0,0,1.934-.786,1.893,1.893,0,0,0,.753-1.357c.027-.6,0-2.2-.059-4.413M30.112,6.5a3.318,3.318,0,0,1,.963.328,2.7,2.7,0,0,1,1.1,1.624,13.284,13.284,0,0,1,.346,4.373c-.019.661-.037,1.323-.017,1.98.027.86.134,3.4.277,6.78.089,2.124.2,4.63.305,7.284.01.551.018,1.1.028,1.653.162,9.519.331,19.364.341,22.2a1.6,1.6,0,0,1-.1.724.41.41,0,0,1-.023.04,2.023,2.023,0,0,1-.749.234c-.6.1-1.2.182-1.813.238-.462-.044-.928-.112-1.408-.183-.61-.088-1.242-.182-1.875-.219-.233-.013-.466-.018-.7-.018a26.355,26.355,0,0,0-2.789.2l-.52.053c-.191.02-.381.039-.572.055L22.4,53.8c-1.242-.09-2.482-.179-3.715-.229l-.89-.037a56.5,56.5,0,0,0-7.067-.01c-1.278.1-2.827.1-3.451-.825a3.055,3.055,0,0,1-.34-1.652c-.018-.845-.056-2.453-.105-4.571-.185-7.845-.56-23.84-.65-32.617-.012-1.724-.015-3-.009-3.645A10.091,10.091,0,0,1,6.5,7.227.425.425,0,0,0,6.475,6.9a1.177,1.177,0,0,1,.319-.379,1.8,1.8,0,0,1,.912-.3c.053,0,.1,0,.155-.006C8.531,6.2,9.133,6.186,9.7,6.17a39.663,39.663,0,0,1,5.5.118,32.784,32.784,0,0,0,4.452-.131l.712-.051c1.057.07,2.118.12,3.173.128.571.006,1.145,0,1.718-.011a36.356,36.356,0,0,1,3.7.087c.39.046.778.1,1.16.186" fill="#fff"/>
      <path id="Caminho_4530" data-name="Caminho 4530" d="M27.773,29.07H20.882V22.179c0-.409-.077-.641-.213-.641H19.185c-.134,0-.211.232-.211.641V29.07H12.091c-.414,0-.648.077-.648.211v1.482c0,.135.234.212.648.212h6.883v6.888c0,.412.077.646.211.646h1.484c.136,0,.213-.234.213-.646V30.975h6.891c.406,0,.642-.077.642-.212V29.281c0-.134-.236-.211-.642-.211" fill="#fff"/>
    </g>
  </g>
</svg>
