<svg xmlns="http://www.w3.org/2000/svg" xmlns:xlink="http://www.w3.org/1999/xlink" width="40" height="34.802" viewBox="0 0 40 34.802">
  <defs>
    <clipPath id="clip-path">
      <rect id="Ret창ngulo_369" data-name="Ret창ngulo 369" width="40" height="34.802" transform="translate(0 0)" fill="none"/>
    </clipPath>
  </defs>
  <g id="tecla_4_fim" transform="translate(0 0)">
    <rect id="Ret창ngulo_368" data-name="Ret창ngulo 368" width="40" height="34.802" transform="translate(0 0)" fill="#fe9e36"/>
    <g id="Grupo_3298" data-name="Grupo 3298">
      <g id="Grupo_3297" data-name="Grupo 3297" clip-path="url(#clip-path)">
        <path id="Caminho_4531" data-name="Caminho 4531" d="M33.825,28.718H5.858A1.213,1.213,0,0,1,4.645,27.5V6.418A1.213,1.213,0,0,1,5.858,5.2H33.825a1.213,1.213,0,0,1,1.213,1.213V27.5a1.213,1.213,0,0,1-1.213,1.213" fill="#0055a5"/>
        <path id="Caminho_4532" data-name="Caminho 4532" d="M36.645,19.523c-.1-.686-.195-1.386-.274-2.085.092-3.04.178-6.161.167-9.259V8.166c0-.034,0-.068,0-.1A3.378,3.378,0,0,0,35.59,5.7c-.765-.859-2.657-1.116-3.435-1.187-1.263-.115-2.521-.209-3.807-.215a20.194,20.194,0,0,0-3.975.279,8.55,8.55,0,0,1-1.97.02c-.1-.006-.2,0-.3-.007-.257-.014-.511-.018-.766-.017-.164,0-.332-.02-.492-.012-1.05-.07-2.094-.158-3.124-.245-1.976-.167-3.987-.326-6-.367a35.689,35.689,0,0,0-5.989.281,3.247,3.247,0,0,0-2.2.981,2.809,2.809,0,0,0-.471,1.531c-.073.833-.113,1.672-.128,2.51s-.009,1.663.027,2.488a.43.43,0,0,0,.175.319c-.08,2.332-.143,4.69-.175,7.063s-.04,4.792.011,7.2a4.512,4.512,0,0,0,.559,2.463A3.014,3.014,0,0,0,5.185,29.96a5.35,5.35,0,0,0,1.884.462,78.737,78.737,0,0,0,8.482.458q3.621,0,7.229-.332a58.183,58.183,0,0,0,9.279.137,11,11,0,0,0,1.554.033,2.854,2.854,0,0,0,2.138-.867,2.806,2.806,0,0,0,.812-1.381,12.875,12.875,0,0,0,.51-4.237,32.478,32.478,0,0,0-.428-4.71M31.873,5.889a3.769,3.769,0,0,1,1.1.376,3.091,3.091,0,0,1,1.268,1.858,15.012,15.012,0,0,1,.393,4.936c-.022.743-.043,1.486-.02,2.224.019.606.067,1.216.132,1.824,0,.123-.008.248-.011.371-.1,3.126-.194,6.359-.181,9.56a1.889,1.889,0,0,1-.119.84c-.011.02-.023.04-.035.059a2.313,2.313,0,0,1-.871.277c-.677.118-1.36.206-2.047.268-.525-.048-1.053-.126-1.6-.2-.684-.1-1.392-.2-2.1-.246-.259-.015-.52-.022-.779-.022a29.8,29.8,0,0,0-3.126.219l-.6.062-.647.063-.573-.041c-1.4-.1-2.8-.2-4.182-.257l-1.01-.042A63.3,63.3,0,0,0,8.934,28a7.946,7.946,0,0,1-2.718-.141,1.553,1.553,0,0,1-.227-.157,2.954,2.954,0,0,1-.712-2.157c-.313-5.119-.445-10.31-.395-15.426a11.457,11.457,0,0,1,.371-3.373A.423.423,0,0,0,5.21,6.4,1.4,1.4,0,0,1,5.6,5.925a2.07,2.07,0,0,1,1.047-.347c.062,0,.12-.005.184-.006.753-.013,1.427-.032,2.06-.05a43.977,43.977,0,0,1,6.195.133,36.21,36.21,0,0,0,4.993-.148l.814-.058c1.188.079,2.381.135,3.568.145.642,0,1.289,0,1.932-.013a40.476,40.476,0,0,1,4.163.1c.444.053.884.118,1.318.212m3.266,22.6c-.034.022-.08.031-.117.05a1.732,1.732,0,0,0,.191-.238.822.822,0,0,1-.036.125.657.657,0,0,1-.038.063" fill="#fff"/>
      </g>
    </g>
    <text id="_4" data-name="4" transform="translate(15.475 22.817)" fill="#fff" font-size="14.063" font-family="Neris-SemiBold, Neris" font-weight="600"><tspan x="0" y="0">4</tspan></text>
  </g>
</svg>
