<svg xmlns="http://www.w3.org/2000/svg" xmlns:xlink="http://www.w3.org/1999/xlink" width="40" height="34.802" viewBox="0 0 40 34.802">
  <defs>
    <clipPath id="clip-path">
      <rect id="Ret창ngulo_388" data-name="Ret창ngulo 388" width="40" height="34.802" transform="translate(0 0)" fill="none"/>
    </clipPath>
  </defs>
  <g id="tecla_0_fim" transform="translate(0 0)">
    <rect id="Ret창ngulo_387" data-name="Ret창ngulo 387" width="40" height="34.802" transform="translate(0 0)" fill="#fe9e36"/>
    <g id="Grupo_3325" data-name="Grupo 3325">
      <g id="Grupo_3324" data-name="Grupo 3324" clip-path="url(#clip-path)">
        <path id="Caminho_4556" data-name="Caminho 4556" d="M33.662,28.785H5.7a1.213,1.213,0,0,1-1.213-1.213V6.485A1.213,1.213,0,0,1,5.7,5.272H33.662a1.213,1.213,0,0,1,1.213,1.213V27.572a1.213,1.213,0,0,1-1.213,1.213" fill="#0055a5"/>
        <path id="Caminho_4557" data-name="Caminho 4557" d="M36.483,19.586c-.1-.683-.2-1.381-.274-2.077.092-3.042.178-6.165.167-9.264V8.233c0-.035,0-.069,0-.1a3.372,3.372,0,0,0-.95-2.369c-.765-.859-2.656-1.116-3.433-1.187-1.275-.117-2.541-.211-3.835-.216a20.066,20.066,0,0,0-3.947.28,8.621,8.621,0,0,1-1.971.02,12.7,12.7,0,0,0-1.558-.035c-1.048-.071-2.094-.159-3.122-.246-1.98-.168-4-.327-6.018-.367a35.864,35.864,0,0,0-5.976.281,3.243,3.243,0,0,0-2.2.981A2.8,2.8,0,0,0,2.89,6.8c-.072.835-.112,1.675-.126,2.513s-.009,1.661.027,2.484a.432.432,0,0,0,.175.32c-.08,2.338-.143,4.7-.175,7.075s-.04,4.789.01,7.19a4.513,4.513,0,0,0,.56,2.463,3.03,3.03,0,0,0,1.663,1.179,5.344,5.344,0,0,0,1.882.461,78.769,78.769,0,0,0,8.483.458c2.413,0,4.827-.111,7.227-.332a58.208,58.208,0,0,0,9.282.137,10.973,10.973,0,0,0,1.553.033,2.936,2.936,0,0,0,2.137-.868,2.773,2.773,0,0,0,.813-1.38,12.884,12.884,0,0,0,.51-4.238,32.493,32.493,0,0,0-.428-4.712M31.711,5.956a3.746,3.746,0,0,1,1.1.375,3.077,3.077,0,0,1,1.267,1.858,15.014,15.014,0,0,1,.393,4.936c-.022.743-.043,1.486-.02,2.224.019.608.069,1.22.134,1.83-.005.127-.008.255-.012.383-.095,3.12-.194,6.347-.182,9.543a1.852,1.852,0,0,1-.117.839c-.012.02-.023.04-.035.059a2.341,2.341,0,0,1-.873.277c-.677.118-1.36.206-2.049.268-.523-.048-1.049-.126-1.594-.2-.684-.1-1.393-.2-2.1-.246-.259-.015-.52-.021-.779-.021a29.785,29.785,0,0,0-3.126.218l-.6.062c-.214.022-.428.042-.641.062l-.577-.041c-1.4-.1-2.8-.2-4.185-.257l-1.025-.043a64,64,0,0,0-7.919-.01,7.97,7.97,0,0,1-2.716-.139,1.549,1.549,0,0,1-.229-.158,2.958,2.958,0,0,1-.713-2.156c-.31-5.113-.444-10.3-.4-15.426a11.534,11.534,0,0,1,.373-3.373.427.427,0,0,0-.043-.354,1.363,1.363,0,0,1,.387-.47,2.091,2.091,0,0,1,1.057-.348c.059,0,.114-.005.174-.006.757-.012,1.435-.032,2.072-.05a44.155,44.155,0,0,1,6.185.134,36.6,36.6,0,0,0,5.007-.15l.793-.057c1.19.08,2.386.137,3.573.146.64,0,1.289,0,1.932-.013a40.945,40.945,0,0,1,4.173.1c.441.053.879.118,1.31.211m3.264,22.6c-.033.022-.078.03-.114.049a1.792,1.792,0,0,0,.187-.234.981.981,0,0,1-.033.121.746.746,0,0,1-.04.064" fill="#fff"/>
      </g>
    </g>
    <text id="_0" data-name="0" transform="translate(15.931 22.883)" fill="#fff" font-size="14.063" font-family="Neris-SemiBold, Neris" font-weight="600"><tspan x="0" y="0">0</tspan></text>
  </g>
</svg>
