<svg xmlns="http://www.w3.org/2000/svg" xmlns:xlink="http://www.w3.org/1999/xlink" width="40" height="34.802" viewBox="0 0 40 34.802">
  <defs>
    <clipPath id="clip-path">
      <rect id="Ret창ngulo_390" data-name="Ret창ngulo 390" width="40" height="34.802" transform="translate(0 0)" fill="none"/>
    </clipPath>
  </defs>
  <g id="tecla_1_fim" transform="translate(0 0)">
    <rect id="Ret창ngulo_389" data-name="Ret창ngulo 389" width="40" height="34.802" transform="translate(0 0)" fill="#fe9e36"/>
    <g id="Grupo_3328" data-name="Grupo 3328">
      <g id="Grupo_3327" data-name="Grupo 3327" clip-path="url(#clip-path)">
        <path id="Caminho_4558" data-name="Caminho 4558" d="M33.825,28.718H5.858A1.213,1.213,0,0,1,4.645,27.5V6.418A1.213,1.213,0,0,1,5.858,5.2H33.825a1.213,1.213,0,0,1,1.213,1.213V27.5a1.213,1.213,0,0,1-1.213,1.213" fill="#0055a5"/>
        <path id="Caminho_4559" data-name="Caminho 4559" d="M36.646,19.52c-.1-.684-.2-1.38-.274-2.077.092-3.041.178-6.165.167-9.264V8.166c0-.034,0-.068,0-.1A3.371,3.371,0,0,0,35.59,5.7c-.766-.859-2.656-1.116-3.434-1.187-1.271-.116-2.535-.211-3.827-.215a19.986,19.986,0,0,0-3.955.279,8.562,8.562,0,0,1-1.971.02c-.1-.006-.2,0-.3-.006-.26-.015-.518-.019-.776-.018-.162,0-.327-.021-.486-.012-1.049-.07-2.1-.158-3.124-.245-1.968-.167-3.971-.326-5.979-.367a35.625,35.625,0,0,0-6.011.281,3.244,3.244,0,0,0-2.2.98,2.786,2.786,0,0,0-.473,1.532c-.072.831-.112,1.668-.127,2.506s-.008,1.664.028,2.492a.426.426,0,0,0,.174.319c-.08,2.331-.143,4.689-.176,7.062-.036,2.388-.039,4.792.011,7.2a4.512,4.512,0,0,0,.561,2.463,3.01,3.01,0,0,0,1.659,1.177,5.335,5.335,0,0,0,1.886.463,78.718,78.718,0,0,0,8.481.458c2.414,0,4.828-.111,7.229-.332a57.835,57.835,0,0,0,9.28.137,11,11,0,0,0,1.554.033,2.944,2.944,0,0,0,2.139-.868,2.792,2.792,0,0,0,.811-1.38,12.884,12.884,0,0,0,.51-4.238,32.492,32.492,0,0,0-.428-4.712M31.874,5.889a3.769,3.769,0,0,1,1.1.376,3.082,3.082,0,0,1,1.267,1.858,15.039,15.039,0,0,1,.393,4.936c-.022.743-.044,1.486-.021,2.224.019.608.069,1.22.134,1.829-.005.129-.008.257-.011.385-.1,3.12-.194,6.346-.183,9.542a1.838,1.838,0,0,1-.117.839c-.011.02-.023.04-.035.059a2.342,2.342,0,0,1-.872.277c-.677.118-1.361.206-2.048.268-.523-.048-1.051-.126-1.6-.2-.684-.1-1.392-.2-2.1-.246-.259-.015-.52-.022-.779-.022a29.822,29.822,0,0,0-3.128.219l-.594.062-.648.063-.573-.041c-1.4-.1-2.794-.2-4.182-.257l-1.01-.042A63.509,63.509,0,0,0,8.933,28a7.9,7.9,0,0,1-2.718-.142A1.409,1.409,0,0,1,5.99,27.7a2.963,2.963,0,0,1-.714-2.157c-.31-5.108-.443-10.3-.394-15.425a11.335,11.335,0,0,1,.372-3.373.424.424,0,0,0-.043-.354,1.366,1.366,0,0,1,.388-.47,2.078,2.078,0,0,1,1.045-.347c.062,0,.123-.005.186-.006.753-.013,1.428-.032,2.061-.05a44.023,44.023,0,0,1,6.2.133,36.534,36.534,0,0,0,4.992-.148l.813-.058c1.188.079,2.382.135,3.568.145.643.005,1.286,0,1.933-.013a40.77,40.77,0,0,1,4.178.1c.438.053.874.117,1.3.21m3.266,22.6a1.226,1.226,0,0,1-.116.05,1.745,1.745,0,0,0,.188-.235.781.781,0,0,1-.034.122.658.658,0,0,1-.038.063" fill="#fff"/>
      </g>
    </g>
    <text id="_1" data-name="1" transform="translate(17.332 22.817)" fill="#fff" font-size="14.063" font-family="Neris-SemiBold, Neris" font-weight="600"><tspan x="0" y="0">1</tspan></text>
  </g>
</svg>
