<svg xmlns="http://www.w3.org/2000/svg" xmlns:xlink="http://www.w3.org/1999/xlink" width="40" height="34.802" viewBox="0 0 40 34.802">
  <defs>
    <clipPath id="clip-path">
      <rect id="Ret창ngulo_363" data-name="Ret창ngulo 363" width="40" height="34.802" transform="translate(0 0)" fill="none"/>
    </clipPath>
  </defs>
  <g id="tecla_9_fim" transform="translate(0 0)">
    <rect id="Ret창ngulo_362" data-name="Ret창ngulo 362" width="40" height="34.802" transform="translate(0 0)" fill="#fe9e36"/>
    <g id="Grupo_3289" data-name="Grupo 3289">
      <g id="Grupo_3288" data-name="Grupo 3288" clip-path="url(#clip-path)">
        <path id="Caminho_4524" data-name="Caminho 4524" d="M33.825,28.718H5.858A1.213,1.213,0,0,1,4.645,27.5V6.418A1.213,1.213,0,0,1,5.858,5.2H33.825a1.213,1.213,0,0,1,1.213,1.213V27.5a1.213,1.213,0,0,1-1.213,1.213" fill="#0055a5"/>
        <path id="Caminho_4525" data-name="Caminho 4525" d="M36.645,19.523c-.1-.687-.195-1.387-.274-2.086.092-3.04.178-6.161.167-9.259V8.166c0-.034,0-.068,0-.1A3.371,3.371,0,0,0,35.589,5.7c-.736-.828-2.467-1.1-3.434-1.187-1.265-.116-2.525-.21-3.813-.216a20.129,20.129,0,0,0-3.969.279,8.654,8.654,0,0,1-1.969.02,13.093,13.093,0,0,0-1.559-.035c-1.048-.07-2.093-.158-3.123-.245-1.975-.167-3.986-.327-6-.368a35.608,35.608,0,0,0-5.991.282,3.245,3.245,0,0,0-2.2.981,2.8,2.8,0,0,0-.472,1.53c-.072.831-.112,1.669-.127,2.507s-.008,1.663.028,2.491a.422.422,0,0,0,.174.318c-.08,2.337-.143,4.7-.175,7.074s-.04,4.788.011,7.193a4.5,4.5,0,0,0,.56,2.463,3.025,3.025,0,0,0,1.662,1.179,5.354,5.354,0,0,0,1.883.46,78.75,78.75,0,0,0,8.482.458c2.412,0,4.824-.111,7.223-.332a58.267,58.267,0,0,0,9.286.137,10.834,10.834,0,0,0,1.553.034,2.935,2.935,0,0,0,2.138-.868,2.781,2.781,0,0,0,.812-1.381,12.869,12.869,0,0,0,.51-4.236,32.465,32.465,0,0,0-.428-4.71M31.873,5.889a3.782,3.782,0,0,1,1.1.375,3.094,3.094,0,0,1,1.268,1.858,14.964,14.964,0,0,1,.392,4.928c-.021.746-.042,1.492-.019,2.232.019.606.067,1.216.132,1.824,0,.124-.008.248-.011.372-.1,3.126-.194,6.358-.181,9.559a1.891,1.891,0,0,1-.119.841c-.011.02-.023.039-.035.059a2.313,2.313,0,0,1-.871.277q-1.017.177-2.05.267c-.522-.047-1.05-.125-1.595-.2-.684-.1-1.392-.2-2.1-.246-.259-.015-.52-.022-.779-.022a30.077,30.077,0,0,0-3.126.218l-.6.063c-.214.022-.428.042-.642.062l-.578-.041c-1.4-.1-2.8-.2-4.184-.257l-1.023-.043A63.848,63.848,0,0,0,8.933,28a7.951,7.951,0,0,1-2.714-.14,1.464,1.464,0,0,1-.23-.158,2.956,2.956,0,0,1-.713-2.156c-.311-5.117-.444-10.307-.394-15.426a11.57,11.57,0,0,1,.372-3.373.428.428,0,0,0-.043-.354,1.364,1.364,0,0,1,.388-.47,2.081,2.081,0,0,1,1.056-.347c.059,0,.114-.005.175-.006.758-.013,1.437-.032,2.074-.05a43.962,43.962,0,0,1,6.182.133,36.45,36.45,0,0,0,5.008-.149l.793-.057c1.19.079,2.385.136,3.573.145.64,0,1.284,0,1.926-.013a40.15,40.15,0,0,1,4.174.1c.442.053.881.118,1.313.211m3.266,22.595a1.073,1.073,0,0,1-.115.049,1.7,1.7,0,0,0,.186-.232.786.786,0,0,1-.033.12.657.657,0,0,1-.038.063" fill="#fff"/>
      </g>
    </g>
    <text id="_9" data-name="9" transform="translate(15.51 22.816)" fill="#fff" font-size="14.063" font-family="Neris-SemiBold, Neris" font-weight="600"><tspan x="0" y="0">9</tspan></text>
  </g>
</svg>
