<svg xmlns="http://www.w3.org/2000/svg" xmlns:xlink="http://www.w3.org/1999/xlink" width="40" height="34.802" viewBox="0 0 40 34.802">
  <defs>
    <clipPath id="clip-path">
      <rect id="Ret창ngulo_375" data-name="Ret창ngulo 375" width="40" height="34.802" transform="translate(0 0)" fill="none"/>
    </clipPath>
  </defs>
  <g id="tecla_m_mais_fim" transform="translate(0 0)">
    <rect id="Ret창ngulo_374" data-name="Ret창ngulo 374" width="40" height="34.802" transform="translate(0 0)" fill="#fe9e36"/>
    <g id="Grupo_3307" data-name="Grupo 3307">
      <g id="Grupo_3306" data-name="Grupo 3306" clip-path="url(#clip-path)">
        <path id="Caminho_4540" data-name="Caminho 4540" d="M32.289,27.461H7.43a1.078,1.078,0,0,1-1.078-1.078V7.638A1.078,1.078,0,0,1,7.43,6.56H32.289a1.078,1.078,0,0,1,1.078,1.078V26.383a1.078,1.078,0,0,1-1.078,1.078" fill="#0055a5"/>
        <path id="Caminho_4541" data-name="Caminho 4541" d="M34.842,19.28c-.085-.608-.173-1.227-.242-1.845.081-2.7.158-5.477.149-8.232V9.192c0-.03,0-.06,0-.091a3.057,3.057,0,0,0-.856-2.138,5.231,5.231,0,0,0-3.084-1.07c-1.129-.1-2.255-.187-3.407-.191a17.859,17.859,0,0,0-3.523.249,7.7,7.7,0,0,1-1.741.016,11.919,11.919,0,0,0-1.389-.031c-.931-.063-1.857-.141-2.77-.219-1.75-.147-3.532-.289-5.317-.326a31.936,31.936,0,0,0-5.354.25,2.939,2.939,0,0,0-1.99.89,2.526,2.526,0,0,0-.429,1.386c-.065.741-.1,1.487-.113,2.233s-.008,1.48.025,2.216a.425.425,0,0,0,.153.3q-.107,3.113-.155,6.28c-.031,2.118-.034,4.248.011,6.38a4.036,4.036,0,0,0,.505,2.215,2.737,2.737,0,0,0,1.5,1.066,4.8,4.8,0,0,0,1.687.412,70.058,70.058,0,0,0,7.542.408q3.221,0,6.427-.3a51.955,51.955,0,0,0,8.247.122,10.307,10.307,0,0,0,1.384.031,2.6,2.6,0,0,0,1.934-.785,2.537,2.537,0,0,0,.734-1.249,11.478,11.478,0,0,0,.455-3.778,28.755,28.755,0,0,0-.382-4.195m-4.3-12.065a3.345,3.345,0,0,1,.963.327,2.712,2.712,0,0,1,1.106,1.625,13.311,13.311,0,0,1,.345,4.373c-.019.661-.037,1.323-.017,1.98.017.54.06,1.084.119,1.626,0,.114-.007.226-.01.338-.086,2.774-.173,5.642-.163,8.485a1.6,1.6,0,0,1-.1.723c-.009.013-.015.026-.024.039a2.062,2.062,0,0,1-.748.235q-.9.156-1.814.237c-.463-.043-.931-.112-1.414-.182-.608-.09-1.237-.182-1.869-.219-.23-.013-.463-.019-.693-.019a26.625,26.625,0,0,0-2.788.194l-.527.056-.571.055-.507-.036c-1.244-.09-2.484-.179-3.719-.229l-.918-.039a56.621,56.621,0,0,0-7.039-.008,7.015,7.015,0,0,1-2.392-.121,1.409,1.409,0,0,1-.191-.132,2.6,2.6,0,0,1-.617-1.884c-.276-4.543-.394-9.155-.35-13.708a10.083,10.083,0,0,1,.328-2.985.425.425,0,0,0-.029-.329,1.154,1.154,0,0,1,.319-.379,1.821,1.821,0,0,1,.915-.3c.051,0,.1-.005.152-.006.672-.011,1.275-.028,1.84-.044a39,39,0,0,1,5.492.118,32.67,32.67,0,0,0,4.466-.133l.693-.049c1.058.07,2.121.12,3.178.128.575.005,1.141,0,1.711-.011a36.4,36.4,0,0,1,3.707.086c.391.047.781.1,1.164.187" fill="#fff"/>
      </g>
    </g>
    <text id="M_" data-name="M+" transform="translate(12.389 20.159)" fill="#fff" font-size="10.269" font-family="Neris-SemiBold, Neris" font-weight="600"><tspan x="0" y="0">M+</tspan></text>
  </g>
</svg>
