<svg xmlns="http://www.w3.org/2000/svg" xmlns:xlink="http://www.w3.org/1999/xlink" width="40" height="34.802" viewBox="0 0 40 34.802">
  <defs>
    <clipPath id="clip-path">
      <rect id="Ret창ngulo_384" data-name="Ret창ngulo 384" width="40" height="34.802" transform="translate(0 0)" fill="none"/>
    </clipPath>
  </defs>
  <g id="tecla_5_fim" transform="translate(0 0)">
    <rect id="Ret창ngulo_383" data-name="Ret창ngulo 383" width="40" height="34.802" transform="translate(0 0)" fill="#fe9e36"/>
    <g id="Grupo_3319" data-name="Grupo 3319">
      <g id="Grupo_3318" data-name="Grupo 3318" clip-path="url(#clip-path)">
        <path id="Caminho_4551" data-name="Caminho 4551" d="M33.825,28.718H5.858A1.213,1.213,0,0,1,4.645,27.5V6.418A1.213,1.213,0,0,1,5.858,5.2H33.825a1.213,1.213,0,0,1,1.213,1.213V27.5a1.213,1.213,0,0,1-1.213,1.213" fill="#0055a5"/>
        <path id="Caminho_4552" data-name="Caminho 4552" d="M36.645,19.525c-.1-.685-.195-1.384-.274-2.082.092-3.041.18-6.165.168-9.265V8.166c0-.034,0-.068,0-.1a3.369,3.369,0,0,0-.949-2.37c-.766-.859-2.656-1.115-3.433-1.186-1.267-.115-2.527-.21-3.816-.215a20.2,20.2,0,0,0-3.967.278,8.578,8.578,0,0,1-1.973.021,12.657,12.657,0,0,0-1.555-.036c-1.05-.07-2.094-.159-3.124-.246-1.977-.167-3.991-.326-6.01-.367a35.613,35.613,0,0,0-5.983.281,3.252,3.252,0,0,0-2.2.981,2.8,2.8,0,0,0-.473,1.532c-.072.834-.112,1.672-.126,2.51s-.009,1.663.028,2.486a.422.422,0,0,0,.173.319c-.08,2.336-.142,4.7-.175,7.073s-.039,4.789.012,7.193a4.5,4.5,0,0,0,.56,2.464A3.021,3.021,0,0,0,5.186,29.96a5.334,5.334,0,0,0,1.884.462,78.769,78.769,0,0,0,8.483.457c2.411,0,4.827-.11,7.225-.332a58.24,58.24,0,0,0,9.284.137,10.943,10.943,0,0,0,1.551.034,2.936,2.936,0,0,0,2.142-.872,2.761,2.761,0,0,0,.809-1.377,12.874,12.874,0,0,0,.509-4.237,32.565,32.565,0,0,0-.428-4.707M31.874,5.889a3.762,3.762,0,0,1,1.1.375,3.077,3.077,0,0,1,1.267,1.858,15.045,15.045,0,0,1,.393,4.937c-.022.743-.044,1.486-.02,2.224.018.608.068,1.22.134,1.83q-.008.192-.012.384c-.1,3.119-.194,6.345-.182,9.542a1.84,1.84,0,0,1-.119.839l-.035.058a2.313,2.313,0,0,1-.871.278c-.677.118-1.361.2-2.047.267-.524-.047-1.052-.125-1.6-.2-.685-.1-1.394-.2-2.1-.246-.259-.015-.52-.022-.779-.022a29.554,29.554,0,0,0-3.128.219l-.593.062q-.321.033-.643.062l-.575-.041c-1.4-.1-2.8-.2-4.186-.258l-1.026-.042A64,64,0,0,0,8.934,28a7.983,7.983,0,0,1-2.715-.14A1.609,1.609,0,0,1,5.99,27.7a2.968,2.968,0,0,1-.714-2.156c-.31-5.1-.442-10.287-.394-15.426a11.534,11.534,0,0,1,.373-3.373.426.426,0,0,0-.044-.353A1.384,1.384,0,0,1,5.6,5.923a2.092,2.092,0,0,1,1.054-.346c.06,0,.116-.005.176-.006.756-.013,1.434-.032,2.07-.05a43.745,43.745,0,0,1,6.187.133,36.041,36.041,0,0,0,4.993-.148l.814-.057c1.188.079,2.382.135,3.567.144.64,0,1.288-.005,1.932-.012a40.879,40.879,0,0,1,4.169.1c.442.053.881.118,1.313.211m3.268,22.594c-.034.022-.081.031-.118.05a1.676,1.676,0,0,0,.188-.234.908.908,0,0,1-.033.122c-.012.022-.024.042-.037.062" fill="#fff"/>
      </g>
    </g>
    <text id="_5" data-name="5" transform="translate(15.645 22.816)" fill="#fff" font-size="14.063" font-family="Neris-SemiBold, Neris" font-weight="600"><tspan x="0" y="0">5</tspan></text>
  </g>
</svg>
