<svg xmlns="http://www.w3.org/2000/svg" xmlns:xlink="http://www.w3.org/1999/xlink" width="40" height="34.802" viewBox="0 0 40 34.802">
  <defs>
    <clipPath id="clip-path">
      <rect id="Ret창ngulo_394" data-name="Ret창ngulo 394" width="40" height="34.802" transform="translate(0 0)" fill="none"/>
    </clipPath>
  </defs>
  <g id="tecla_3_fim" transform="translate(0 0)">
    <rect id="Ret창ngulo_393" data-name="Ret창ngulo 393" width="40" height="34.802" transform="translate(0 0)" fill="#fe9e36"/>
    <g id="Grupo_3334" data-name="Grupo 3334">
      <g id="Grupo_3333" data-name="Grupo 3333" clip-path="url(#clip-path)">
        <path id="Caminho_4566" data-name="Caminho 4566" d="M33.825,28.718H5.858A1.213,1.213,0,0,1,4.645,27.5V6.418A1.213,1.213,0,0,1,5.858,5.2H33.825a1.213,1.213,0,0,1,1.213,1.213V27.5a1.213,1.213,0,0,1-1.213,1.213" fill="#0055a5"/>
        <path id="Caminho_4567" data-name="Caminho 4567" d="M36.645,19.523c-.1-.687-.195-1.387-.274-2.086.092-3.04.178-6.161.167-9.259V8.166c0-.034,0-.068,0-.1A3.371,3.371,0,0,0,35.589,5.7c-.736-.828-2.467-1.1-3.434-1.187-1.268-.116-2.531-.211-3.822-.216a20.04,20.04,0,0,0-3.96.279,8.6,8.6,0,0,1-1.969.02,13.093,13.093,0,0,0-1.559-.035c-1.048-.07-2.093-.158-3.123-.245-1.975-.167-3.986-.327-6-.368a35.6,35.6,0,0,0-5.99.282,3.245,3.245,0,0,0-2.2.981,2.8,2.8,0,0,0-.472,1.53c-.072.831-.112,1.669-.127,2.507s-.008,1.663.028,2.491a.422.422,0,0,0,.174.318c-.08,2.337-.143,4.7-.175,7.074s-.04,4.788.011,7.193a4.5,4.5,0,0,0,.56,2.463A3.021,3.021,0,0,0,5.18,29.958a5.381,5.381,0,0,0,1.889.465,79.1,79.1,0,0,0,8.486.456c2.415,0,4.83-.11,7.23-.332a58.049,58.049,0,0,0,9.269.137,11.892,11.892,0,0,0,1.559.035,2.945,2.945,0,0,0,2.136-.866,2.8,2.8,0,0,0,.814-1.384,12.869,12.869,0,0,0,.51-4.236,32.465,32.465,0,0,0-.428-4.71M31.873,5.889a3.782,3.782,0,0,1,1.1.375,3.094,3.094,0,0,1,1.268,1.858,14.964,14.964,0,0,1,.392,4.928c-.021.746-.042,1.492-.019,2.232.019.606.067,1.216.132,1.824,0,.124-.008.248-.011.372-.1,3.126-.194,6.358-.181,9.559a1.891,1.891,0,0,1-.119.841c-.011.02-.023.039-.035.059a2.313,2.313,0,0,1-.871.277c-.677.118-1.36.2-2.047.267-.523-.047-1.053-.125-1.6-.205-.686-.1-1.393-.2-2.1-.245-.259-.015-.52-.022-.779-.022a29.846,29.846,0,0,0-3.116.217l-.606.063c-.216.022-.433.043-.649.063l-.578-.041c-1.4-.1-2.79-.2-4.177-.257l-1.023-.043A63.848,63.848,0,0,0,8.933,28a7.951,7.951,0,0,1-2.714-.14,1.464,1.464,0,0,1-.23-.158,2.956,2.956,0,0,1-.713-2.156c-.311-5.117-.444-10.307-.394-15.426a11.57,11.57,0,0,1,.372-3.373.428.428,0,0,0-.043-.354,1.364,1.364,0,0,1,.388-.47,2.081,2.081,0,0,1,1.056-.347c.059,0,.114-.005.175-.006.758-.013,1.437-.032,2.074-.05a43.954,43.954,0,0,1,6.182.133,36.115,36.115,0,0,0,5.008-.149l.793-.057c1.19.079,2.385.136,3.573.145.642,0,1.284,0,1.926-.013a40.371,40.371,0,0,1,4.171.1c.443.052.883.118,1.316.211m3.266,22.595c-.033.022-.08.031-.116.05a1.817,1.817,0,0,0,.188-.234.769.769,0,0,1-.034.121.657.657,0,0,1-.038.063" fill="#fff"/>
      </g>
    </g>
    <text id="_3" data-name="3" transform="translate(15.51 22.817)" fill="#fff" font-size="14.063" font-family="Neris-SemiBold, Neris" font-weight="600"><tspan x="0" y="0">3</tspan></text>
  </g>
</svg>
