<svg xmlns="http://www.w3.org/2000/svg" xmlns:xlink="http://www.w3.org/1999/xlink" width="40" height="34.802" viewBox="0 0 40 34.802">
  <defs>
    <clipPath id="clip-path">
      <rect id="Ret창ngulo_398" data-name="Ret창ngulo 398" width="40" height="34.802" transform="translate(0 0)" fill="none"/>
    </clipPath>
  </defs>
  <g id="tecla_porcentagem_fim" transform="translate(0 0)">
    <rect id="Ret창ngulo_397" data-name="Ret창ngulo 397" width="40" height="34.802" transform="translate(0 0)" fill="#fe9e36"/>
    <g id="Grupo_3340" data-name="Grupo 3340">
      <g id="Grupo_3339" data-name="Grupo 3339" clip-path="url(#clip-path)">
        <path id="Caminho_4570" data-name="Caminho 4570" d="M32.289,27.461H7.43a1.078,1.078,0,0,1-1.078-1.078V7.638A1.078,1.078,0,0,1,7.43,6.56H32.289a1.078,1.078,0,0,1,1.078,1.078V26.383a1.078,1.078,0,0,1-1.078,1.078" fill="#0055a5"/>
        <path id="Caminho_4571" data-name="Caminho 4571" d="M34.842,19.28c-.085-.608-.173-1.227-.242-1.845.081-2.7.158-5.477.149-8.232V9.192c0-.03,0-.06,0-.091a3.057,3.057,0,0,0-.856-2.138,5.231,5.231,0,0,0-3.084-1.07c-1.128-.1-2.252-.187-3.4-.192a17.836,17.836,0,0,0-3.527.25,7.7,7.7,0,0,1-1.741.016,11.924,11.924,0,0,0-1.389-.031c-.93-.062-1.857-.141-2.77-.219-1.745-.147-3.521-.288-5.3-.325a31.815,31.815,0,0,0-5.37.249,2.931,2.931,0,0,0-1.989.89,2.511,2.511,0,0,0-.43,1.387c-.064.744-.1,1.492-.112,2.238s-.008,1.478.024,2.21a.419.419,0,0,0,.154.3c-.078,2.275-.13,4.574-.154,6.879-.024,1.926-.032,3.856.01,5.783a3.956,3.956,0,0,0,.5,2.215,2.738,2.738,0,0,0,1.5,1.066,4.805,4.805,0,0,0,1.686.412,70.178,70.178,0,0,0,7.547.407c2.144,0,4.29-.1,6.423-.3a51.957,51.957,0,0,0,8.247.122,9.826,9.826,0,0,0,1.384.03,2.593,2.593,0,0,0,1.934-.784,2.537,2.537,0,0,0,.734-1.249,11.478,11.478,0,0,0,.455-3.778,28.755,28.755,0,0,0-.382-4.195m-4.3-12.065a3.345,3.345,0,0,1,.963.327,2.712,2.712,0,0,1,1.106,1.625,13.311,13.311,0,0,1,.345,4.373c-.019.661-.037,1.323-.017,1.98.017.54.06,1.084.119,1.626,0,.114-.007.226-.01.338-.086,2.774-.173,5.642-.163,8.485a1.6,1.6,0,0,1-.1.723c-.009.013-.015.026-.024.039a2.062,2.062,0,0,1-.748.235q-.9.156-1.814.237c-.463-.043-.931-.112-1.414-.182-.608-.09-1.237-.182-1.869-.219-.23-.013-.463-.019-.693-.019a26.625,26.625,0,0,0-2.788.194l-.527.056-.571.055-.507-.036c-1.244-.09-2.484-.179-3.719-.229l-.918-.039a56.605,56.605,0,0,0-7.038-.008,7.044,7.044,0,0,1-2.392-.121,1.419,1.419,0,0,1-.192-.132,2.584,2.584,0,0,1-.615-1.884c-.278-4.543-.4-9.155-.351-13.708a10.278,10.278,0,0,1,.327-2.985.427.427,0,0,0-.028-.328,1.148,1.148,0,0,1,.319-.38,1.79,1.79,0,0,1,.906-.3c.054,0,.1-.005.159-.006.674-.011,1.275-.028,1.842-.044a38.979,38.979,0,0,1,5.491.118,32.51,32.51,0,0,0,4.466-.133l.693-.049c1.058.07,2.121.12,3.178.128.576,0,1.141,0,1.711-.011a36.961,36.961,0,0,1,3.7.086c.392.047.782.105,1.166.187" fill="#fff"/>
      </g>
    </g>
    <text id="_" data-name="%" transform="translate(13.835 21.804)" fill="#fff" font-size="15.625" font-family="Neris-SemiBold, Neris" font-weight="600"><tspan x="0" y="0">%</tspan></text>
  </g>
</svg>
