<svg xmlns="http://www.w3.org/2000/svg" xmlns:xlink="http://www.w3.org/1999/xlink" width="40" height="34.802" viewBox="0 0 40 34.802">
  <defs>
    <clipPath id="clip-path">
      <rect id="Ret창ngulo_361" data-name="Ret창ngulo 361" width="40" height="34.802" transform="translate(0 0)" fill="none"/>
    </clipPath>
  </defs>
  <g id="tecla_7_fim" transform="translate(0 0)">
    <rect id="Ret창ngulo_360" data-name="Ret창ngulo 360" width="40" height="34.802" transform="translate(0 0)" fill="#fe9e36"/>
    <g id="Grupo_3286" data-name="Grupo 3286">
      <g id="Grupo_3285" data-name="Grupo 3285" clip-path="url(#clip-path)">
        <path id="Caminho_4522" data-name="Caminho 4522" d="M33.825,28.718H5.858A1.213,1.213,0,0,1,4.645,27.5V6.418A1.213,1.213,0,0,1,5.858,5.2H33.825a1.213,1.213,0,0,1,1.213,1.213V27.5a1.213,1.213,0,0,1-1.213,1.213" fill="#0055a5"/>
        <path id="Caminho_4523" data-name="Caminho 4523" d="M36.645,19.523c-.1-.687-.194-1.387-.273-2.086.091-3.04.178-6.161.166-9.259V8.166c0-.034,0-.068,0-.1A3.371,3.371,0,0,0,35.589,5.7c-.735-.828-2.467-1.1-3.433-1.187-1.269-.117-2.532-.211-3.822-.216a20.121,20.121,0,0,0-3.961.279,8.588,8.588,0,0,1-1.968.02,12.907,12.907,0,0,0-1.56-.035c-1.048-.07-2.093-.158-3.122-.245-1.979-.168-3.994-.328-6.013-.368a35.49,35.49,0,0,0-5.981.282,3.245,3.245,0,0,0-2.2.981,2.8,2.8,0,0,0-.472,1.53c-.072.831-.112,1.669-.127,2.507s-.008,1.663.029,2.491a.421.421,0,0,0,.173.318q-.12,3.505-.175,7.074c-.036,2.388-.04,4.789.011,7.193a4.524,4.524,0,0,0,.561,2.464,3.01,3.01,0,0,0,1.657,1.175,5.364,5.364,0,0,0,1.888.465,79.062,79.062,0,0,0,8.485.456c2.415,0,4.83-.11,7.231-.332a58.152,58.152,0,0,0,9.268.137,11.558,11.558,0,0,0,1.559.035,2.943,2.943,0,0,0,2.136-.866,2.783,2.783,0,0,0,.814-1.384,12.843,12.843,0,0,0,.51-4.236,32.325,32.325,0,0,0-.428-4.71M31.873,5.889a3.782,3.782,0,0,1,1.1.375,3.1,3.1,0,0,1,1.269,1.858,14.991,14.991,0,0,1,.391,4.928c-.02.746-.042,1.492-.019,2.232.019.606.067,1.216.133,1.824,0,.124-.009.248-.012.372-.1,3.125-.194,6.358-.181,9.559a1.912,1.912,0,0,1-.118.842c-.012.02-.024.038-.035.057a2.278,2.278,0,0,1-.871.277c-.679.119-1.363.206-2.051.268-.525-.047-1.055-.126-1.6-.206-.682-.1-1.389-.2-2.1-.246q-.386-.019-.774-.02a29.4,29.4,0,0,0-3.119.218l-.608.061c-.217.024-.433.044-.65.064l-.573-.04c-1.4-.1-2.793-.2-4.181-.258l-1.019-.043A63.718,63.718,0,0,0,8.933,28a7.952,7.952,0,0,1-2.719-.142A1.531,1.531,0,0,1,5.99,27.7a2.963,2.963,0,0,1-.714-2.159c-.311-5.115-.443-10.3-.394-15.425a11.572,11.572,0,0,1,.373-3.373.428.428,0,0,0-.044-.354,1.375,1.375,0,0,1,.388-.47,2.087,2.087,0,0,1,1.056-.347c.059,0,.115-.005.175-.006.758-.013,1.437-.032,2.074-.05a44.256,44.256,0,0,1,6.182.133,36.133,36.133,0,0,0,5.009-.149l.792-.057c1.19.079,2.385.136,3.573.145.642.005,1.284,0,1.926-.013a40.15,40.15,0,0,1,4.174.1c.442.052.881.118,1.313.211m3.268,22.595c-.034.022-.08.031-.117.05a1.744,1.744,0,0,0,.187-.234.908.908,0,0,1-.033.122c-.012.02-.024.042-.037.062" fill="#fff"/>
      </g>
    </g>
    <text id="_7" data-name="7" transform="translate(15.708 22.816)" fill="#fff" font-size="14.063" font-family="Neris-SemiBold, Neris" font-weight="600"><tspan x="0" y="0">7</tspan></text>
  </g>
</svg>
